<?xml version="1.0" encoding="UTF-8" standalone="no"?>
<!DOCTYPE svg PUBLIC "-//W3C//DTD SVG 1.1//EN"
 "http://www.w3.org/Graphics/SVG/1.1/DTD/svg11.dtd">
<!-- Generated by graphviz version 2.43.0 (0)
 -->
<!-- Title: G Pages: 1 -->
<svg width="1518pt" height="1141pt"
 viewBox="0.00 0.00 1518.20 1140.83" xmlns="http://www.w3.org/2000/svg" xmlns:xlink="http://www.w3.org/1999/xlink">
<g id="graph0" class="graph" transform="scale(1 1) rotate(0) translate(21.6 1119.23)">
<title>G</title>
<polygon fill="#111111" stroke="transparent" points="-21.6,21.6 -21.6,-1119.23 1496.6,-1119.23 1496.6,21.6 -21.6,21.6"/>
<!-- components/AuthContainer.tsx -->
<g id="node1" class="node">
<title>components/AuthContainer.tsx</title>
<path fill="none" stroke="#c6c5fe" d="M433.83,-282.63C433.83,-282.63 248.17,-282.63 248.17,-282.63 244.33,-282.63 240.5,-278.8 240.5,-274.97 240.5,-274.97 240.5,-267.3 240.5,-267.3 240.5,-263.47 244.33,-259.63 248.17,-259.63 248.17,-259.63 433.83,-259.63 433.83,-259.63 437.67,-259.63 441.5,-263.47 441.5,-267.3 441.5,-267.3 441.5,-274.97 441.5,-274.97 441.5,-278.8 437.67,-282.63 433.83,-282.63"/>
<text text-anchor="middle" x="341" y="-267.43" font-family="Arial" font-size="14.00" fill="#c6c5fe">components/AuthContainer.tsx</text>
</g>
<!-- services/Firebase.ts -->
<g id="node2" class="node">
<title>services/Firebase.ts</title>
<path fill="none" stroke="#c6c5fe" d="M953.33,-347.63C953.33,-347.63 831.67,-347.63 831.67,-347.63 827.83,-347.63 824,-343.8 824,-339.97 824,-339.97 824,-332.3 824,-332.3 824,-328.47 827.83,-324.63 831.67,-324.63 831.67,-324.63 953.33,-324.63 953.33,-324.63 957.17,-324.63 961,-328.47 961,-332.3 961,-332.3 961,-339.97 961,-339.97 961,-343.8 957.17,-347.63 953.33,-347.63"/>
<text text-anchor="middle" x="892.5" y="-332.43" font-family="Arial" font-size="14.00" fill="#c6c5fe">services/Firebase.ts</text>
</g>
<!-- components/AuthContainer.tsx&#45;&gt;services/Firebase.ts -->
<g id="edge1" class="edge">
<title>components/AuthContainer.tsx&#45;&gt;services/Firebase.ts</title>
<path fill="none" stroke="#757575" d="M439.29,-282.64C546.02,-295.27 715.21,-315.28 813.56,-326.91"/>
<polygon fill="#757575" stroke="#757575" points="813.39,-330.42 823.73,-328.12 814.21,-323.47 813.39,-330.42"/>
</g>
<!-- types/models.d.ts -->
<g id="node21" class="node">
<title>types/models.d.ts</title>
<path fill="none" stroke="#cfffac" d="M1219.33,-191.63C1219.33,-191.63 1112.67,-191.63 1112.67,-191.63 1108.83,-191.63 1105,-187.8 1105,-183.97 1105,-183.97 1105,-176.3 1105,-176.3 1105,-172.47 1108.83,-168.63 1112.67,-168.63 1112.67,-168.63 1219.33,-168.63 1219.33,-168.63 1223.17,-168.63 1227,-172.47 1227,-176.3 1227,-176.3 1227,-183.97 1227,-183.97 1227,-187.8 1223.17,-191.63 1219.33,-191.63"/>
<text text-anchor="middle" x="1166" y="-176.43" font-family="Arial" font-size="14.00" fill="#cfffac">types/models.d.ts</text>
</g>
<!-- services/Firebase.ts&#45;&gt;types/models.d.ts -->
<g id="edge54" class="edge">
<title>services/Firebase.ts&#45;&gt;types/models.d.ts</title>
<path fill="none" stroke="#757575" d="M913.65,-324.58C935.98,-311.76 973.07,-290.48 1005,-272.13 1050.77,-245.84 1103.89,-215.29 1135.95,-196.85"/>
<polygon fill="#757575" stroke="#757575" points="1137.87,-199.78 1144.8,-191.76 1134.38,-193.71 1137.87,-199.78"/>
</g>
<!-- components/AuthFrom.tsx -->
<g id="node3" class="node">
<title>components/AuthFrom.tsx</title>
<path fill="none" stroke="#ff6c60" d="M1246.33,-468.63C1246.33,-468.63 1085.67,-468.63 1085.67,-468.63 1081.83,-468.63 1078,-464.8 1078,-460.97 1078,-460.97 1078,-453.3 1078,-453.3 1078,-449.47 1081.83,-445.63 1085.67,-445.63 1085.67,-445.63 1246.33,-445.63 1246.33,-445.63 1250.17,-445.63 1254,-449.47 1254,-453.3 1254,-453.3 1254,-460.97 1254,-460.97 1254,-464.8 1250.17,-468.63 1246.33,-468.63"/>
<text text-anchor="middle" x="1166" y="-453.43" font-family="Arial" font-size="14.00" fill="#ff6c60">components/AuthFrom.tsx</text>
</g>
<!-- components/Form.tsx -->
<g id="node4" class="node">
<title>components/Form.tsx</title>
<path fill="none" stroke="#cfffac" d="M1467.33,-468.63C1467.33,-468.63 1334.67,-468.63 1334.67,-468.63 1330.83,-468.63 1327,-464.8 1327,-460.97 1327,-460.97 1327,-453.3 1327,-453.3 1327,-449.47 1330.83,-445.63 1334.67,-445.63 1334.67,-445.63 1467.33,-445.63 1467.33,-445.63 1471.17,-445.63 1475,-449.47 1475,-453.3 1475,-453.3 1475,-460.97 1475,-460.97 1475,-464.8 1471.17,-468.63 1467.33,-468.63"/>
<text text-anchor="middle" x="1401" y="-453.43" font-family="Arial" font-size="14.00" fill="#cfffac">components/Form.tsx</text>
</g>
<!-- components/AuthFrom.tsx&#45;&gt;components/Form.tsx -->
<g id="edge2" class="edge">
<title>components/AuthFrom.tsx&#45;&gt;components/Form.tsx</title>
<path fill="none" stroke="#757575" d="M1254.09,-457.13C1274.55,-457.13 1296.3,-457.13 1316.59,-457.13"/>
<polygon fill="#757575" stroke="#757575" points="1316.74,-460.63 1326.74,-457.13 1316.74,-453.63 1316.74,-460.63"/>
</g>
<!-- components/FormInputGroup.tsx -->
<g id="node5" class="node">
<title>components/FormInputGroup.tsx</title>
<path fill="none" stroke="#ff6c60" d="M992.83,-427.63C992.83,-427.63 792.17,-427.63 792.17,-427.63 788.33,-427.63 784.5,-423.8 784.5,-419.97 784.5,-419.97 784.5,-412.3 784.5,-412.3 784.5,-408.47 788.33,-404.63 792.17,-404.63 792.17,-404.63 992.83,-404.63 992.83,-404.63 996.67,-404.63 1000.5,-408.47 1000.5,-412.3 1000.5,-412.3 1000.5,-419.97 1000.5,-419.97 1000.5,-423.8 996.67,-427.63 992.83,-427.63"/>
<text text-anchor="middle" x="892.5" y="-412.43" font-family="Arial" font-size="14.00" fill="#ff6c60">components/FormInputGroup.tsx</text>
</g>
<!-- components/AuthFrom.tsx&#45;&gt;components/FormInputGroup.tsx -->
<g id="edge3" class="edge">
<title>components/AuthFrom.tsx&#45;&gt;components/FormInputGroup.tsx</title>
<path fill="none" stroke="#757575" d="M1077.88,-450.33C1034.6,-444.53 983.71,-436.56 946.37,-429.6"/>
<polygon fill="#757575" stroke="#757575" points="946.7,-426.09 936.22,-427.66 945.39,-432.97 946.7,-426.09"/>
</g>
<!-- components/FormInputGroup.tsx&#45;&gt;components/AuthFrom.tsx -->
<g id="edge4" class="edge">
<title>components/FormInputGroup.tsx&#45;&gt;components/AuthFrom.tsx</title>
<path fill="none" stroke="#757575" d="M1000.8,-425.72C1039.19,-431.15 1080.75,-437.81 1112.46,-443.73"/>
<polygon fill="#757575" stroke="#757575" points="1111.91,-447.19 1122.39,-445.63 1113.22,-440.32 1111.91,-447.19"/>
</g>
<!-- components/FormInputGroup.scss -->
<g id="node7" class="node">
<title>components/FormInputGroup.scss</title>
<path fill="none" stroke="#cfffac" d="M1271.33,-427.63C1271.33,-427.63 1060.67,-427.63 1060.67,-427.63 1056.83,-427.63 1053,-423.8 1053,-419.97 1053,-419.97 1053,-412.3 1053,-412.3 1053,-408.47 1056.83,-404.63 1060.67,-404.63 1060.67,-404.63 1271.33,-404.63 1271.33,-404.63 1275.17,-404.63 1279,-408.47 1279,-412.3 1279,-412.3 1279,-419.97 1279,-419.97 1279,-423.8 1275.17,-427.63 1271.33,-427.63"/>
<text text-anchor="middle" x="1166" y="-412.43" font-family="Arial" font-size="14.00" fill="#cfffac">components/FormInputGroup.scss</text>
</g>
<!-- components/FormInputGroup.tsx&#45;&gt;components/FormInputGroup.scss -->
<g id="edge5" class="edge">
<title>components/FormInputGroup.tsx&#45;&gt;components/FormInputGroup.scss</title>
<path fill="none" stroke="#757575" d="M1000.8,-416.13C1014.52,-416.13 1028.64,-416.13 1042.57,-416.13"/>
<polygon fill="#757575" stroke="#757575" points="1042.68,-419.63 1052.68,-416.13 1042.68,-412.63 1042.68,-419.63"/>
</g>
<!-- components/Footer.tsx -->
<g id="node6" class="node">
<title>components/Footer.tsx</title>
<path fill="none" stroke="#cfffac" d="M159.33,-243.63C159.33,-243.63 20.67,-243.63 20.67,-243.63 16.83,-243.63 13,-239.8 13,-235.97 13,-235.97 13,-228.3 13,-228.3 13,-224.47 16.83,-220.63 20.67,-220.63 20.67,-220.63 159.33,-220.63 159.33,-220.63 163.17,-220.63 167,-224.47 167,-228.3 167,-228.3 167,-235.97 167,-235.97 167,-239.8 163.17,-243.63 159.33,-243.63"/>
<text text-anchor="middle" x="90" y="-228.43" font-family="Arial" font-size="14.00" fill="#cfffac">components/Footer.tsx</text>
</g>
<!-- components/Friends.tsx -->
<g id="node8" class="node">
<title>components/Friends.tsx</title>
<path fill="none" stroke="#cfffac" d="M162.83,-349.63C162.83,-349.63 17.17,-349.63 17.17,-349.63 13.33,-349.63 9.5,-345.8 9.5,-341.97 9.5,-341.97 9.5,-334.3 9.5,-334.3 9.5,-330.47 13.33,-326.63 17.17,-326.63 17.17,-326.63 162.83,-326.63 162.83,-326.63 166.67,-326.63 170.5,-330.47 170.5,-334.3 170.5,-334.3 170.5,-341.97 170.5,-341.97 170.5,-345.8 166.67,-349.63 162.83,-349.63"/>
<text text-anchor="middle" x="90" y="-334.43" font-family="Arial" font-size="14.00" fill="#cfffac">components/Friends.tsx</text>
</g>
<!-- components/MainMenu.tsx -->
<g id="node9" class="node">
<title>components/MainMenu.tsx</title>
<path fill="none" stroke="#c6c5fe" d="M172.33,-422.63C172.33,-422.63 7.67,-422.63 7.67,-422.63 3.83,-422.63 0,-418.8 0,-414.97 0,-414.97 0,-407.3 0,-407.3 0,-403.47 3.83,-399.63 7.67,-399.63 7.67,-399.63 172.33,-399.63 172.33,-399.63 176.17,-399.63 180,-403.47 180,-407.3 180,-407.3 180,-414.97 180,-414.97 180,-418.8 176.17,-422.63 172.33,-422.63"/>
<text text-anchor="middle" x="90" y="-407.43" font-family="Arial" font-size="14.00" fill="#c6c5fe">components/MainMenu.tsx</text>
</g>
<!-- services/LocalData.ts -->
<g id="node10" class="node">
<title>services/LocalData.ts</title>
<path fill="none" stroke="#cfffac" d="M405.83,-422.63C405.83,-422.63 276.17,-422.63 276.17,-422.63 272.33,-422.63 268.5,-418.8 268.5,-414.97 268.5,-414.97 268.5,-407.3 268.5,-407.3 268.5,-403.47 272.33,-399.63 276.17,-399.63 276.17,-399.63 405.83,-399.63 405.83,-399.63 409.67,-399.63 413.5,-403.47 413.5,-407.3 413.5,-407.3 413.5,-414.97 413.5,-414.97 413.5,-418.8 409.67,-422.63 405.83,-422.63"/>
<text text-anchor="middle" x="341" y="-407.43" font-family="Arial" font-size="14.00" fill="#cfffac">services/LocalData.ts</text>
</g>
<!-- components/MainMenu.tsx&#45;&gt;services/LocalData.ts -->
<g id="edge6" class="edge">
<title>components/MainMenu.tsx&#45;&gt;services/LocalData.ts</title>
<path fill="none" stroke="#757575" d="M180.19,-411.13C205.58,-411.13 233.1,-411.13 258.04,-411.13"/>
<polygon fill="#757575" stroke="#757575" points="258.19,-414.63 268.19,-411.13 258.19,-407.63 258.19,-414.63"/>
</g>
<!-- components/Menu/DropdownMenu.tsx -->
<g id="node11" class="node">
<title>components/Menu/DropdownMenu.tsx</title>
<path fill="none" stroke="#c6c5fe" d="M1283.33,-764.63C1283.33,-764.63 1048.67,-764.63 1048.67,-764.63 1044.83,-764.63 1041,-760.8 1041,-756.97 1041,-756.97 1041,-749.3 1041,-749.3 1041,-745.47 1044.83,-741.63 1048.67,-741.63 1048.67,-741.63 1283.33,-741.63 1283.33,-741.63 1287.17,-741.63 1291,-745.47 1291,-749.3 1291,-749.3 1291,-756.97 1291,-756.97 1291,-760.8 1287.17,-764.63 1283.33,-764.63"/>
<text text-anchor="middle" x="1166" y="-749.43" font-family="Arial" font-size="14.00" fill="#c6c5fe">components/Menu/DropdownMenu.tsx</text>
</g>
<!-- types/types.d.ts -->
<g id="node12" class="node">
<title>types/types.d.ts</title>
<path fill="none" stroke="#cfffac" d="M1448.33,-706.63C1448.33,-706.63 1353.67,-706.63 1353.67,-706.63 1349.83,-706.63 1346,-702.8 1346,-698.97 1346,-698.97 1346,-691.3 1346,-691.3 1346,-687.47 1349.83,-683.63 1353.67,-683.63 1353.67,-683.63 1448.33,-683.63 1448.33,-683.63 1452.17,-683.63 1456,-687.47 1456,-691.3 1456,-691.3 1456,-698.97 1456,-698.97 1456,-702.8 1452.17,-706.63 1448.33,-706.63"/>
<text text-anchor="middle" x="1401" y="-691.43" font-family="Arial" font-size="14.00" fill="#cfffac">types/types.d.ts</text>
</g>
<!-- components/Menu/DropdownMenu.tsx&#45;&gt;types/types.d.ts -->
<g id="edge7" class="edge">
<title>components/Menu/DropdownMenu.tsx&#45;&gt;types/types.d.ts</title>
<path fill="none" stroke="#757575" d="M1213.31,-741.61C1250.87,-732.26 1303.95,-719.04 1343.92,-709.09"/>
<polygon fill="#757575" stroke="#757575" points="1344.92,-712.45 1353.78,-706.64 1343.23,-705.66 1344.92,-712.45"/>
</g>
<!-- components/Menu/RootMenu.tsx -->
<g id="node13" class="node">
<title>components/Menu/RootMenu.tsx</title>
<path fill="none" stroke="#c6c5fe" d="M723.83,-802.63C723.83,-802.63 522.17,-802.63 522.17,-802.63 518.33,-802.63 514.5,-798.8 514.5,-794.97 514.5,-794.97 514.5,-787.3 514.5,-787.3 514.5,-783.47 518.33,-779.63 522.17,-779.63 522.17,-779.63 723.83,-779.63 723.83,-779.63 727.67,-779.63 731.5,-783.47 731.5,-787.3 731.5,-787.3 731.5,-794.97 731.5,-794.97 731.5,-798.8 727.67,-802.63 723.83,-802.63"/>
<text text-anchor="middle" x="623" y="-787.43" font-family="Arial" font-size="14.00" fill="#c6c5fe">components/Menu/RootMenu.tsx</text>
</g>
<!-- components/Menu/RootMenu.tsx&#45;&gt;components/Menu/DropdownMenu.tsx -->
<g id="edge8" class="edge">
<title>components/Menu/RootMenu.tsx&#45;&gt;components/Menu/DropdownMenu.tsx</title>
<path fill="none" stroke="#757575" d="M731.53,-783.58C817.37,-777.55 938.11,-769.07 1030.37,-762.59"/>
<polygon fill="#757575" stroke="#757575" points="1030.89,-766.06 1040.62,-761.87 1030.4,-759.08 1030.89,-766.06"/>
</g>
<!-- components/Menu/RootMenu.tsx&#45;&gt;types/types.d.ts -->
<g id="edge10" class="edge">
<title>components/Menu/RootMenu.tsx&#45;&gt;types/types.d.ts</title>
<path fill="none" stroke="#757575" d="M693.18,-802.66C817.11,-820.43 1083.41,-845.4 1291,-773.13 1326.7,-760.71 1360.98,-732.65 1381.27,-713.79"/>
<polygon fill="#757575" stroke="#757575" points="1383.75,-716.26 1388.58,-706.83 1378.92,-711.19 1383.75,-716.26"/>
</g>
<!-- main/MenuConfig.ts -->
<g id="node14" class="node">
<title>main/MenuConfig.ts</title>
<path fill="none" stroke="#c6c5fe" d="M953.83,-666.63C953.83,-666.63 831.17,-666.63 831.17,-666.63 827.33,-666.63 823.5,-662.8 823.5,-658.97 823.5,-658.97 823.5,-651.3 823.5,-651.3 823.5,-647.47 827.33,-643.63 831.17,-643.63 831.17,-643.63 953.83,-643.63 953.83,-643.63 957.67,-643.63 961.5,-647.47 961.5,-651.3 961.5,-651.3 961.5,-658.97 961.5,-658.97 961.5,-662.8 957.67,-666.63 953.83,-666.63"/>
<text text-anchor="middle" x="892.5" y="-651.43" font-family="Arial" font-size="14.00" fill="#c6c5fe">main/MenuConfig.ts</text>
</g>
<!-- components/Menu/RootMenu.tsx&#45;&gt;main/MenuConfig.ts -->
<g id="edge9" class="edge">
<title>components/Menu/RootMenu.tsx&#45;&gt;main/MenuConfig.ts</title>
<path fill="none" stroke="#757575" d="M646.81,-779.54C694.48,-755.3 804.79,-699.22 859.52,-671.39"/>
<polygon fill="#757575" stroke="#757575" points="861.42,-674.35 868.75,-666.7 858.25,-668.11 861.42,-674.35"/>
</g>
<!-- main/MenuConfig.ts&#45;&gt;types/types.d.ts -->
<g id="edge52" class="edge">
<title>main/MenuConfig.ts&#45;&gt;types/types.d.ts</title>
<path fill="none" stroke="#757575" d="M961.62,-655.44C1040.98,-656.49 1175.92,-660.37 1291,-674.13 1306.46,-675.98 1323.02,-678.76 1338.45,-681.69"/>
<polygon fill="#757575" stroke="#757575" points="1337.91,-685.15 1348.4,-683.63 1339.25,-678.28 1337.91,-685.15"/>
</g>
<!-- main/RoutePath.ts -->
<g id="node39" class="node">
<title>main/RoutePath.ts</title>
<path fill="none" stroke="#c6c5fe" d="M1222.33,-706.63C1222.33,-706.63 1109.67,-706.63 1109.67,-706.63 1105.83,-706.63 1102,-702.8 1102,-698.97 1102,-698.97 1102,-691.3 1102,-691.3 1102,-687.47 1105.83,-683.63 1109.67,-683.63 1109.67,-683.63 1222.33,-683.63 1222.33,-683.63 1226.17,-683.63 1230,-687.47 1230,-691.3 1230,-691.3 1230,-698.97 1230,-698.97 1230,-702.8 1226.17,-706.63 1222.33,-706.63"/>
<text text-anchor="middle" x="1166" y="-691.43" font-family="Arial" font-size="14.00" fill="#c6c5fe">main/RoutePath.ts</text>
</g>
<!-- main/MenuConfig.ts&#45;&gt;main/RoutePath.ts -->
<g id="edge51" class="edge">
<title>main/MenuConfig.ts&#45;&gt;main/RoutePath.ts</title>
<path fill="none" stroke="#757575" d="M961.66,-665.18C1001.34,-671.02 1051.36,-678.39 1091.86,-684.36"/>
<polygon fill="#757575" stroke="#757575" points="1091.53,-687.85 1101.94,-685.84 1092.55,-680.92 1091.53,-687.85"/>
</g>
<!-- components/Menu/SubMenu.tsx -->
<g id="node15" class="node">
<title>components/Menu/SubMenu.tsx</title>
<path fill="none" stroke="#c6c5fe" d="M721.33,-628.63C721.33,-628.63 524.67,-628.63 524.67,-628.63 520.83,-628.63 517,-624.8 517,-620.97 517,-620.97 517,-613.3 517,-613.3 517,-609.47 520.83,-605.63 524.67,-605.63 524.67,-605.63 721.33,-605.63 721.33,-605.63 725.17,-605.63 729,-609.47 729,-613.3 729,-613.3 729,-620.97 729,-620.97 729,-624.8 725.17,-628.63 721.33,-628.63"/>
<text text-anchor="middle" x="623" y="-613.43" font-family="Arial" font-size="14.00" fill="#c6c5fe">components/Menu/SubMenu.tsx</text>
</g>
<!-- components/Menu/SubMenu.tsx&#45;&gt;types/types.d.ts -->
<g id="edge11" class="edge">
<title>components/Menu/SubMenu.tsx&#45;&gt;types/types.d.ts</title>
<path fill="none" stroke="#757575" d="M729.07,-612.74C861.66,-609.53 1095.96,-611.58 1291,-654.13 1317.04,-659.81 1345.16,-670.51 1366.32,-679.56"/>
<polygon fill="#757575" stroke="#757575" points="1364.95,-682.78 1375.51,-683.58 1367.75,-676.37 1364.95,-682.78"/>
</g>
<!-- components/ModalForm.scss -->
<g id="node16" class="node">
<title>components/ModalForm.scss</title>
<path fill="none" stroke="#cfffac" d="M982.33,-191.63C982.33,-191.63 802.67,-191.63 802.67,-191.63 798.83,-191.63 795,-187.8 795,-183.97 795,-183.97 795,-176.3 795,-176.3 795,-172.47 798.83,-168.63 802.67,-168.63 802.67,-168.63 982.33,-168.63 982.33,-168.63 986.17,-168.63 990,-172.47 990,-176.3 990,-176.3 990,-183.97 990,-183.97 990,-187.8 986.17,-191.63 982.33,-191.63"/>
<text text-anchor="middle" x="892.5" y="-176.43" font-family="Arial" font-size="14.00" fill="#cfffac">components/ModalForm.scss</text>
</g>
<!-- components/ModalForm.tsx -->
<g id="node17" class="node">
<title>components/ModalForm.tsx</title>
<path fill="none" stroke="#c6c5fe" d="M707.83,-191.63C707.83,-191.63 538.17,-191.63 538.17,-191.63 534.33,-191.63 530.5,-187.8 530.5,-183.97 530.5,-183.97 530.5,-176.3 530.5,-176.3 530.5,-172.47 534.33,-168.63 538.17,-168.63 538.17,-168.63 707.83,-168.63 707.83,-168.63 711.67,-168.63 715.5,-172.47 715.5,-176.3 715.5,-176.3 715.5,-183.97 715.5,-183.97 715.5,-187.8 711.67,-191.63 707.83,-191.63"/>
<text text-anchor="middle" x="623" y="-176.43" font-family="Arial" font-size="14.00" fill="#c6c5fe">components/ModalForm.tsx</text>
</g>
<!-- components/ModalForm.tsx&#45;&gt;components/ModalForm.scss -->
<g id="edge12" class="edge">
<title>components/ModalForm.tsx&#45;&gt;components/ModalForm.scss</title>
<path fill="none" stroke="#757575" d="M715.68,-180.13C737.95,-180.13 761.95,-180.13 784.84,-180.13"/>
<polygon fill="#757575" stroke="#757575" points="784.92,-183.63 794.92,-180.13 784.92,-176.63 784.92,-183.63"/>
</g>
<!-- components/Navbar.tsx -->
<g id="node18" class="node">
<title>components/Navbar.tsx</title>
<path fill="none" stroke="#cfffac" d="M161.33,-892.63C161.33,-892.63 18.67,-892.63 18.67,-892.63 14.83,-892.63 11,-888.8 11,-884.97 11,-884.97 11,-877.3 11,-877.3 11,-873.47 14.83,-869.63 18.67,-869.63 18.67,-869.63 161.33,-869.63 161.33,-869.63 165.17,-869.63 169,-873.47 169,-877.3 169,-877.3 169,-884.97 169,-884.97 169,-888.8 165.17,-892.63 161.33,-892.63"/>
<text text-anchor="middle" x="90" y="-877.43" font-family="Arial" font-size="14.00" fill="#cfffac">components/Navbar.tsx</text>
</g>
<!-- components/ProductForm.tsx -->
<g id="node19" class="node">
<title>components/ProductForm.tsx</title>
<path fill="none" stroke="#c6c5fe" d="M712.33,-271.63C712.33,-271.63 533.67,-271.63 533.67,-271.63 529.83,-271.63 526,-267.8 526,-263.97 526,-263.97 526,-256.3 526,-256.3 526,-252.47 529.83,-248.63 533.67,-248.63 533.67,-248.63 712.33,-248.63 712.33,-248.63 716.17,-248.63 720,-252.47 720,-256.3 720,-256.3 720,-263.97 720,-263.97 720,-267.8 716.17,-271.63 712.33,-271.63"/>
<text text-anchor="middle" x="623" y="-256.43" font-family="Arial" font-size="14.00" fill="#c6c5fe">components/ProductForm.tsx</text>
</g>
<!-- components/ProductForm.tsx&#45;&gt;components/Form.tsx -->
<g id="edge13" class="edge">
<title>components/ProductForm.tsx&#45;&gt;components/Form.tsx</title>
<path fill="none" stroke="#757575" d="M720.09,-267.48C879.7,-280.84 1191.75,-312.11 1291,-359.13 1329.95,-377.59 1365.07,-414.52 1384.38,-437.4"/>
<polygon fill="#757575" stroke="#757575" points="1381.92,-439.92 1390.98,-445.41 1387.33,-435.47 1381.92,-439.92"/>
</g>
<!-- components/ProductForm.tsx&#45;&gt;components/FormInputGroup.tsx -->
<g id="edge14" class="edge">
<title>components/ProductForm.tsx&#45;&gt;components/FormInputGroup.tsx</title>
<path fill="none" stroke="#757575" d="M642.05,-271.71C670.89,-290.11 729.3,-326.92 780,-356.13 806.67,-371.5 837.51,-388 859.99,-399.8"/>
<polygon fill="#757575" stroke="#757575" points="858.59,-403.02 869.08,-404.56 861.84,-396.82 858.59,-403.02"/>
</g>
<!-- services/RestService.ts -->
<g id="node20" class="node">
<title>services/RestService.ts</title>
<path fill="none" stroke="#c6c5fe" d="M963.33,-32.63C963.33,-32.63 821.67,-32.63 821.67,-32.63 817.83,-32.63 814,-28.8 814,-24.97 814,-24.97 814,-17.3 814,-17.3 814,-13.47 817.83,-9.63 821.67,-9.63 821.67,-9.63 963.33,-9.63 963.33,-9.63 967.17,-9.63 971,-13.47 971,-17.3 971,-17.3 971,-24.97 971,-24.97 971,-28.8 967.17,-32.63 963.33,-32.63"/>
<text text-anchor="middle" x="892.5" y="-17.43" font-family="Arial" font-size="14.00" fill="#c6c5fe">services/RestService.ts</text>
</g>
<!-- components/ProductForm.tsx&#45;&gt;services/RestService.ts -->
<g id="edge15" class="edge">
<title>components/ProductForm.tsx&#45;&gt;services/RestService.ts</title>
<path fill="none" stroke="#757575" d="M655.65,-248.58C681.14,-238.31 717.04,-221.61 744,-200.13 751.97,-193.78 839.58,-85.53 875.89,-40.52"/>
<polygon fill="#757575" stroke="#757575" points="878.68,-42.63 882.23,-32.65 873.23,-38.24 878.68,-42.63"/>
</g>
<!-- components/ProductForm.tsx&#45;&gt;types/models.d.ts -->
<g id="edge16" class="edge">
<title>components/ProductForm.tsx&#45;&gt;types/models.d.ts</title>
<path fill="none" stroke="#757575" d="M720.02,-260.38C797.6,-258.96 909.26,-253.22 1005,-234.13 1048.51,-225.46 1096.5,-208.17 1128.46,-195.48"/>
<polygon fill="#757575" stroke="#757575" points="1129.87,-198.68 1137.84,-191.7 1127.26,-192.19 1129.87,-198.68"/>
</g>
<!-- services/RestService.ts&#45;&gt;types/models.d.ts -->
<g id="edge56" class="edge">
<title>services/RestService.ts&#45;&gt;types/models.d.ts</title>
<path fill="none" stroke="#757575" d="M965.11,-32.63C978.76,-36.26 992.63,-40.98 1005,-47.13 1064.13,-76.53 1120.4,-131.76 1147.74,-160.95"/>
<polygon fill="#757575" stroke="#757575" points="1145.31,-163.47 1154.67,-168.44 1150.45,-158.72 1145.31,-163.47"/>
</g>
<!-- services/products.json.ts -->
<g id="node43" class="node">
<title>services/products.json.ts</title>
<path fill="none" stroke="#cfffac" d="M1240.33,-32.63C1240.33,-32.63 1091.67,-32.63 1091.67,-32.63 1087.83,-32.63 1084,-28.8 1084,-24.97 1084,-24.97 1084,-17.3 1084,-17.3 1084,-13.47 1087.83,-9.63 1091.67,-9.63 1091.67,-9.63 1240.33,-9.63 1240.33,-9.63 1244.17,-9.63 1248,-13.47 1248,-17.3 1248,-17.3 1248,-24.97 1248,-24.97 1248,-28.8 1244.17,-32.63 1240.33,-32.63"/>
<text text-anchor="middle" x="1166" y="-17.43" font-family="Arial" font-size="14.00" fill="#cfffac">services/products.json.ts</text>
</g>
<!-- services/RestService.ts&#45;&gt;services/products.json.ts -->
<g id="edge55" class="edge">
<title>services/RestService.ts&#45;&gt;services/products.json.ts</title>
<path fill="none" stroke="#757575" d="M971.3,-21.13C1003.25,-21.13 1040.48,-21.13 1073.7,-21.13"/>
<polygon fill="#757575" stroke="#757575" points="1073.88,-24.63 1083.88,-21.13 1073.88,-17.63 1073.88,-24.63"/>
</g>
<!-- components/ProductFormModal.tsx -->
<g id="node22" class="node">
<title>components/ProductFormModal.tsx</title>
<path fill="none" stroke="#c6c5fe" d="M449.33,-212.63C449.33,-212.63 232.67,-212.63 232.67,-212.63 228.83,-212.63 225,-208.8 225,-204.97 225,-204.97 225,-197.3 225,-197.3 225,-193.47 228.83,-189.63 232.67,-189.63 232.67,-189.63 449.33,-189.63 449.33,-189.63 453.17,-189.63 457,-193.47 457,-197.3 457,-197.3 457,-204.97 457,-204.97 457,-208.8 453.17,-212.63 449.33,-212.63"/>
<text text-anchor="middle" x="341" y="-197.43" font-family="Arial" font-size="14.00" fill="#c6c5fe">components/ProductFormModal.tsx</text>
</g>
<!-- components/ProductFormModal.tsx&#45;&gt;components/ModalForm.tsx -->
<g id="edge17" class="edge">
<title>components/ProductFormModal.tsx&#45;&gt;components/ModalForm.tsx</title>
<path fill="none" stroke="#757575" d="M457.1,-192.5C478.1,-190.93 499.87,-189.29 520.44,-187.75"/>
<polygon fill="#757575" stroke="#757575" points="520.72,-191.24 530.43,-187 520.2,-184.26 520.72,-191.24"/>
</g>
<!-- components/ProductFormModal.tsx&#45;&gt;components/ProductForm.tsx -->
<g id="edge18" class="edge">
<title>components/ProductFormModal.tsx&#45;&gt;components/ProductForm.tsx</title>
<path fill="none" stroke="#757575" d="M396.65,-212.65C442.66,-222.34 508.55,-236.23 557.21,-246.48"/>
<polygon fill="#757575" stroke="#757575" points="556.5,-249.91 567.01,-248.55 557.95,-243.06 556.5,-249.91"/>
</g>
<!-- components/ProductFormModal.tsx&#45;&gt;types/models.d.ts -->
<g id="edge19" class="edge">
<title>components/ProductFormModal.tsx&#45;&gt;types/models.d.ts</title>
<path fill="none" stroke="#757575" d="M457.12,-205.24C589.47,-208.96 813.16,-212.22 1005,-200.13 1034.49,-198.28 1066.85,-194.55 1094.72,-190.81"/>
<polygon fill="#757575" stroke="#757575" points="1095.33,-194.26 1104.76,-189.44 1094.38,-187.33 1095.33,-194.26"/>
</g>
<!-- components/ProductList.tsx -->
<g id="node23" class="node">
<title>components/ProductList.tsx</title>
<path fill="none" stroke="#c6c5fe" d="M424.83,-131.63C424.83,-131.63 257.17,-131.63 257.17,-131.63 253.33,-131.63 249.5,-127.8 249.5,-123.97 249.5,-123.97 249.5,-116.3 249.5,-116.3 249.5,-112.47 253.33,-108.63 257.17,-108.63 257.17,-108.63 424.83,-108.63 424.83,-108.63 428.67,-108.63 432.5,-112.47 432.5,-116.3 432.5,-116.3 432.5,-123.97 432.5,-123.97 432.5,-127.8 428.67,-131.63 424.83,-131.63"/>
<text text-anchor="middle" x="341" y="-116.43" font-family="Arial" font-size="14.00" fill="#c6c5fe">components/ProductList.tsx</text>
</g>
<!-- components/ProductList.tsx&#45;&gt;types/models.d.ts -->
<g id="edge20" class="edge">
<title>components/ProductList.tsx&#45;&gt;types/models.d.ts</title>
<path fill="none" stroke="#757575" d="M432.51,-123.4C560.3,-128.48 800.82,-139.75 1005,-159.13 1034.44,-161.93 1066.79,-165.99 1094.66,-169.79"/>
<polygon fill="#757575" stroke="#757575" points="1094.33,-173.28 1104.71,-171.18 1095.29,-166.35 1094.33,-173.28"/>
</g>
<!-- utils/Array.ts -->
<g id="node24" class="node">
<title>utils/Array.ts</title>
<path fill="none" stroke="#cfffac" d="M660.33,-111.63C660.33,-111.63 585.67,-111.63 585.67,-111.63 581.83,-111.63 578,-107.8 578,-103.97 578,-103.97 578,-96.3 578,-96.3 578,-92.47 581.83,-88.63 585.67,-88.63 585.67,-88.63 660.33,-88.63 660.33,-88.63 664.17,-88.63 668,-92.47 668,-96.3 668,-96.3 668,-103.97 668,-103.97 668,-107.8 664.17,-111.63 660.33,-111.63"/>
<text text-anchor="middle" x="623" y="-96.43" font-family="Arial" font-size="14.00" fill="#cfffac">utils/Array.ts</text>
</g>
<!-- components/ProductList.tsx&#45;&gt;utils/Array.ts -->
<g id="edge21" class="edge">
<title>components/ProductList.tsx&#45;&gt;utils/Array.ts</title>
<path fill="none" stroke="#757575" d="M432.52,-113.67C476.92,-110.5 528.94,-106.78 567.23,-104.05"/>
<polygon fill="#757575" stroke="#757575" points="567.92,-107.51 577.64,-103.3 567.42,-100.52 567.92,-107.51"/>
</g>
<!-- components/ResetPasswordPage.tsx -->
<g id="node25" class="node">
<title>components/ResetPasswordPage.tsx</title>
<path fill="none" stroke="#c6c5fe" d="M736.33,-407.63C736.33,-407.63 509.67,-407.63 509.67,-407.63 505.83,-407.63 502,-403.8 502,-399.97 502,-399.97 502,-392.3 502,-392.3 502,-388.47 505.83,-384.63 509.67,-384.63 509.67,-384.63 736.33,-384.63 736.33,-384.63 740.17,-384.63 744,-388.47 744,-392.3 744,-392.3 744,-399.97 744,-399.97 744,-403.8 740.17,-407.63 736.33,-407.63"/>
<text text-anchor="middle" x="623" y="-392.43" font-family="Arial" font-size="14.00" fill="#c6c5fe">components/ResetPasswordPage.tsx</text>
</g>
<!-- components/ResetPasswordPage.tsx&#45;&gt;components/Form.tsx -->
<g id="edge22" class="edge">
<title>components/ResetPasswordPage.tsx&#45;&gt;components/Form.tsx</title>
<path fill="none" stroke="#757575" d="M692.7,-384.61C815.3,-366.53 1078.86,-339.02 1291,-395.13 1323.41,-403.71 1356.27,-424.4 1377.31,-439.53"/>
<polygon fill="#757575" stroke="#757575" points="1375.45,-442.5 1385.57,-445.62 1379.6,-436.87 1375.45,-442.5"/>
</g>
<!-- components/ResetPasswordPage.tsx&#45;&gt;components/FormInputGroup.tsx -->
<g id="edge23" class="edge">
<title>components/ResetPasswordPage.tsx&#45;&gt;components/FormInputGroup.tsx</title>
<path fill="none" stroke="#757575" d="M744.06,-405.11C754.16,-405.87 764.37,-406.63 774.45,-407.38"/>
<polygon fill="#757575" stroke="#757575" points="774.25,-410.88 784.48,-408.13 774.77,-403.9 774.25,-410.88"/>
</g>
<!-- components/pages/AccountPage.tsx -->
<g id="node26" class="node">
<title>components/pages/AccountPage.tsx</title>
<path fill="none" stroke="#c6c5fe" d="M451.33,-648.63C451.33,-648.63 230.67,-648.63 230.67,-648.63 226.83,-648.63 223,-644.8 223,-640.97 223,-640.97 223,-633.3 223,-633.3 223,-629.47 226.83,-625.63 230.67,-625.63 230.67,-625.63 451.33,-625.63 451.33,-625.63 455.17,-625.63 459,-629.47 459,-633.3 459,-633.3 459,-640.97 459,-640.97 459,-644.8 455.17,-648.63 451.33,-648.63"/>
<text text-anchor="middle" x="341" y="-633.43" font-family="Arial" font-size="14.00" fill="#c6c5fe">components/pages/AccountPage.tsx</text>
</g>
<!-- components/pages/AccountPage.tsx&#45;&gt;main/MenuConfig.ts -->
<g id="edge26" class="edge">
<title>components/pages/AccountPage.tsx&#45;&gt;main/MenuConfig.ts</title>
<path fill="none" stroke="#757575" d="M459.21,-640.97C566,-644.47 720.75,-649.54 813.22,-652.57"/>
<polygon fill="#757575" stroke="#757575" points="813.24,-656.07 823.35,-652.9 813.47,-649.08 813.24,-656.07"/>
</g>
<!-- components/pages/AccountPage.tsx&#45;&gt;components/Menu/SubMenu.tsx -->
<g id="edge24" class="edge">
<title>components/pages/AccountPage.tsx&#45;&gt;components/Menu/SubMenu.tsx</title>
<path fill="none" stroke="#757575" d="M459.12,-628.77C474.86,-627.64 490.99,-626.49 506.69,-625.37"/>
<polygon fill="#757575" stroke="#757575" points="507.22,-628.84 516.94,-624.64 506.72,-621.86 507.22,-628.84"/>
</g>
<!-- components/pages/Page.tsx -->
<g id="node27" class="node">
<title>components/pages/Page.tsx</title>
<path fill="none" stroke="#cfffac" d="M709.33,-548.63C709.33,-548.63 536.67,-548.63 536.67,-548.63 532.83,-548.63 529,-544.8 529,-540.97 529,-540.97 529,-533.3 529,-533.3 529,-529.47 532.83,-525.63 536.67,-525.63 536.67,-525.63 709.33,-525.63 709.33,-525.63 713.17,-525.63 717,-529.47 717,-533.3 717,-533.3 717,-540.97 717,-540.97 717,-544.8 713.17,-548.63 709.33,-548.63"/>
<text text-anchor="middle" x="623" y="-533.43" font-family="Arial" font-size="14.00" fill="#cfffac">components/pages/Page.tsx</text>
</g>
<!-- components/pages/AccountPage.tsx&#45;&gt;components/pages/Page.tsx -->
<g id="edge25" class="edge">
<title>components/pages/AccountPage.tsx&#45;&gt;components/pages/Page.tsx</title>
<path fill="none" stroke="#757575" d="M431.99,-625.62C443.59,-623.05 455.18,-619.93 466,-616.13 483.27,-610.07 485.78,-604.62 502,-596.13 530.87,-581.03 564.16,-564.75 588.34,-553.13"/>
<polygon fill="#757575" stroke="#757575" points="589.95,-556.23 597.46,-548.76 586.93,-549.92 589.95,-556.23"/>
</g>
<!-- components/pages/AuthPage.scss -->
<g id="node28" class="node">
<title>components/pages/AuthPage.scss</title>
<path fill="none" stroke="#cfffac" d="M997.33,-507.63C997.33,-507.63 787.67,-507.63 787.67,-507.63 783.83,-507.63 780,-503.8 780,-499.97 780,-499.97 780,-492.3 780,-492.3 780,-488.47 783.83,-484.63 787.67,-484.63 787.67,-484.63 997.33,-484.63 997.33,-484.63 1001.17,-484.63 1005,-488.47 1005,-492.3 1005,-492.3 1005,-499.97 1005,-499.97 1005,-503.8 1001.17,-507.63 997.33,-507.63"/>
<text text-anchor="middle" x="892.5" y="-492.43" font-family="Arial" font-size="14.00" fill="#cfffac">components/pages/AuthPage.scss</text>
</g>
<!-- components/pages/AuthPage.tsx -->
<g id="node29" class="node">
<title>components/pages/AuthPage.tsx</title>
<path fill="none" stroke="#c6c5fe" d="M722.83,-507.63C722.83,-507.63 523.17,-507.63 523.17,-507.63 519.33,-507.63 515.5,-503.8 515.5,-499.97 515.5,-499.97 515.5,-492.3 515.5,-492.3 515.5,-488.47 519.33,-484.63 523.17,-484.63 523.17,-484.63 722.83,-484.63 722.83,-484.63 726.67,-484.63 730.5,-488.47 730.5,-492.3 730.5,-492.3 730.5,-499.97 730.5,-499.97 730.5,-503.8 726.67,-507.63 722.83,-507.63"/>
<text text-anchor="middle" x="623" y="-492.43" font-family="Arial" font-size="14.00" fill="#c6c5fe">components/pages/AuthPage.tsx</text>
</g>
<!-- components/pages/AuthPage.tsx&#45;&gt;services/Firebase.ts -->
<g id="edge31" class="edge">
<title>components/pages/AuthPage.tsx&#45;&gt;services/Firebase.ts</title>
<path fill="none" stroke="#757575" d="M641,-484.42C669.34,-465.06 728.24,-425.5 780,-395.13 806.11,-379.81 836.54,-363.83 859.01,-352.37"/>
<polygon fill="#757575" stroke="#757575" points="860.78,-355.4 868.11,-347.75 857.61,-349.16 860.78,-355.4"/>
</g>
<!-- components/pages/AuthPage.tsx&#45;&gt;components/AuthFrom.tsx -->
<g id="edge27" class="edge">
<title>components/pages/AuthPage.tsx&#45;&gt;components/AuthFrom.tsx</title>
<path fill="none" stroke="#757575" d="M699.63,-484.6C725.11,-481.08 753.74,-477.51 780,-475.13 877.58,-466.3 989.49,-461.68 1067.41,-459.35"/>
<polygon fill="#757575" stroke="#757575" points="1067.8,-462.84 1077.7,-459.05 1067.6,-455.84 1067.8,-462.84"/>
</g>
<!-- components/pages/AuthPage.tsx&#45;&gt;components/Form.tsx -->
<g id="edge28" class="edge">
<title>components/pages/AuthPage.tsx&#45;&gt;components/Form.tsx</title>
<path fill="none" stroke="#757575" d="M725.28,-507.73C731.79,-510.07 738.09,-512.85 744,-516.13 765.19,-527.92 757.91,-547.13 780,-557.13 883.87,-604.16 1182.41,-545.88 1291,-511.13 1319.91,-501.88 1350.72,-486 1372.18,-473.84"/>
<polygon fill="#757575" stroke="#757575" points="1374.14,-476.75 1381.05,-468.73 1370.64,-470.69 1374.14,-476.75"/>
</g>
<!-- components/pages/AuthPage.tsx&#45;&gt;components/pages/AuthPage.scss -->
<g id="edge29" class="edge">
<title>components/pages/AuthPage.tsx&#45;&gt;components/pages/AuthPage.scss</title>
<path fill="none" stroke="#757575" d="M730.88,-496.13C743.62,-496.13 756.71,-496.13 769.64,-496.13"/>
<polygon fill="#757575" stroke="#757575" points="769.98,-499.63 779.98,-496.13 769.98,-492.63 769.98,-499.63"/>
</g>
<!-- containers/SignUpModal.tsx -->
<g id="node30" class="node">
<title>containers/SignUpModal.tsx</title>
<path fill="none" stroke="#c6c5fe" d="M977.33,-548.63C977.33,-548.63 807.67,-548.63 807.67,-548.63 803.83,-548.63 800,-544.8 800,-540.97 800,-540.97 800,-533.3 800,-533.3 800,-529.47 803.83,-525.63 807.67,-525.63 807.67,-525.63 977.33,-525.63 977.33,-525.63 981.17,-525.63 985,-529.47 985,-533.3 985,-533.3 985,-540.97 985,-540.97 985,-544.8 981.17,-548.63 977.33,-548.63"/>
<text text-anchor="middle" x="892.5" y="-533.43" font-family="Arial" font-size="14.00" fill="#c6c5fe">containers/SignUpModal.tsx</text>
</g>
<!-- components/pages/AuthPage.tsx&#45;&gt;containers/SignUpModal.tsx -->
<g id="edge30" class="edge">
<title>components/pages/AuthPage.tsx&#45;&gt;containers/SignUpModal.tsx</title>
<path fill="none" stroke="#757575" d="M699.23,-507.66C732.56,-512.77 771.93,-518.81 806.34,-524.08"/>
<polygon fill="#757575" stroke="#757575" points="805.96,-527.56 816.38,-525.62 807.02,-520.64 805.96,-527.56"/>
</g>
<!-- containers/SignUpModal.tsx&#45;&gt;components/AuthFrom.tsx -->
<g id="edge37" class="edge">
<title>containers/SignUpModal.tsx&#45;&gt;components/AuthFrom.tsx</title>
<path fill="none" stroke="#757575" d="M964.39,-525.63C977.97,-522.9 991.99,-519.73 1005,-516.13 1008.04,-515.29 1077.91,-489.44 1124.3,-472.24"/>
<polygon fill="#757575" stroke="#757575" points="1125.65,-475.47 1133.81,-468.71 1123.22,-468.9 1125.65,-475.47"/>
</g>
<!-- containers/SignUpModal.tsx&#45;&gt;components/Form.tsx -->
<g id="edge38" class="edge">
<title>containers/SignUpModal.tsx&#45;&gt;components/Form.tsx</title>
<path fill="none" stroke="#757575" d="M975.08,-525.59C1055.52,-514.03 1181.89,-495.37 1291,-477.13 1303.35,-475.07 1316.47,-472.76 1329.17,-470.47"/>
<polygon fill="#757575" stroke="#757575" points="1330.03,-473.87 1339.24,-468.63 1328.77,-466.98 1330.03,-473.87"/>
</g>
<!-- components/pages/HomePage.tsx -->
<g id="node31" class="node">
<title>components/pages/HomePage.tsx</title>
<path fill="none" stroke="#c6c5fe" d="M445.33,-525.63C445.33,-525.63 236.67,-525.63 236.67,-525.63 232.83,-525.63 229,-521.8 229,-517.97 229,-517.97 229,-510.3 229,-510.3 229,-506.47 232.83,-502.63 236.67,-502.63 236.67,-502.63 445.33,-502.63 445.33,-502.63 449.17,-502.63 453,-506.47 453,-510.3 453,-510.3 453,-517.97 453,-517.97 453,-521.8 449.17,-525.63 445.33,-525.63"/>
<text text-anchor="middle" x="341" y="-510.43" font-family="Arial" font-size="14.00" fill="#c6c5fe">components/pages/HomePage.tsx</text>
</g>
<!-- components/pages/HomePage.tsx&#45;&gt;components/pages/Page.tsx -->
<g id="edge32" class="edge">
<title>components/pages/HomePage.tsx&#45;&gt;components/pages/Page.tsx</title>
<path fill="none" stroke="#757575" d="M453.07,-523.26C474.68,-525.03 497.26,-526.89 518.62,-528.64"/>
<polygon fill="#757575" stroke="#757575" points="518.41,-532.14 528.66,-529.47 518.98,-525.16 518.41,-532.14"/>
</g>
<!-- components/pages/MessagesPage.tsx -->
<g id="node32" class="node">
<title>components/pages/MessagesPage.tsx</title>
<path fill="none" stroke="#c6c5fe" d="M458.33,-566.63C458.33,-566.63 223.67,-566.63 223.67,-566.63 219.83,-566.63 216,-562.8 216,-558.97 216,-558.97 216,-551.3 216,-551.3 216,-547.47 219.83,-543.63 223.67,-543.63 223.67,-543.63 458.33,-543.63 458.33,-543.63 462.17,-543.63 466,-547.47 466,-551.3 466,-551.3 466,-558.97 466,-558.97 466,-562.8 462.17,-566.63 458.33,-566.63"/>
<text text-anchor="middle" x="341" y="-551.43" font-family="Arial" font-size="14.00" fill="#c6c5fe">components/pages/MessagesPage.tsx</text>
</g>
<!-- components/pages/MessagesPage.tsx&#45;&gt;components/pages/Page.tsx -->
<g id="edge33" class="edge">
<title>components/pages/MessagesPage.tsx&#45;&gt;components/pages/Page.tsx</title>
<path fill="none" stroke="#757575" d="M466.03,-547.16C483.64,-546.03 501.59,-544.87 518.75,-543.77"/>
<polygon fill="#757575" stroke="#757575" points="519,-547.26 528.75,-543.13 518.55,-540.28 519,-547.26"/>
</g>
<!-- components/pages/NotFoundPage.tsx -->
<g id="node33" class="node">
<title>components/pages/NotFoundPage.tsx</title>
<path fill="none" stroke="#cfffac" d="M456.83,-810.63C456.83,-810.63 225.17,-810.63 225.17,-810.63 221.33,-810.63 217.5,-806.8 217.5,-802.97 217.5,-802.97 217.5,-795.3 217.5,-795.3 217.5,-791.47 221.33,-787.63 225.17,-787.63 225.17,-787.63 456.83,-787.63 456.83,-787.63 460.67,-787.63 464.5,-791.47 464.5,-795.3 464.5,-795.3 464.5,-802.97 464.5,-802.97 464.5,-806.8 460.67,-810.63 456.83,-810.63"/>
<text text-anchor="middle" x="341" y="-795.43" font-family="Arial" font-size="14.00" fill="#cfffac">components/pages/NotFoundPage.tsx</text>
</g>
<!-- components/pages/SellPage.tsx -->
<g id="node34" class="node">
<title>components/pages/SellPage.tsx</title>
<path fill="none" stroke="#c6c5fe" d="M438.33,-607.63C438.33,-607.63 243.67,-607.63 243.67,-607.63 239.83,-607.63 236,-603.8 236,-599.97 236,-599.97 236,-592.3 236,-592.3 236,-588.47 239.83,-584.63 243.67,-584.63 243.67,-584.63 438.33,-584.63 438.33,-584.63 442.17,-584.63 446,-588.47 446,-592.3 446,-592.3 446,-599.97 446,-599.97 446,-603.8 442.17,-607.63 438.33,-607.63"/>
<text text-anchor="middle" x="341" y="-592.43" font-family="Arial" font-size="14.00" fill="#c6c5fe">components/pages/SellPage.tsx</text>
</g>
<!-- components/pages/SellPage.tsx&#45;&gt;main/MenuConfig.ts -->
<g id="edge36" class="edge">
<title>components/pages/SellPage.tsx&#45;&gt;main/MenuConfig.ts</title>
<path fill="none" stroke="#757575" d="M446.3,-585.4C528.06,-579.56 644.29,-576.93 744,-596.13 786.09,-604.24 831.45,-624.25 860.58,-638.72"/>
<polygon fill="#757575" stroke="#757575" points="859.31,-642 869.81,-643.39 862.47,-635.76 859.31,-642"/>
</g>
<!-- components/pages/SellPage.tsx&#45;&gt;components/Menu/SubMenu.tsx -->
<g id="edge34" class="edge">
<title>components/pages/SellPage.tsx&#45;&gt;components/Menu/SubMenu.tsx</title>
<path fill="none" stroke="#757575" d="M446.26,-603.95C465.95,-605.43 486.64,-606.98 506.65,-608.48"/>
<polygon fill="#757575" stroke="#757575" points="506.48,-611.98 516.72,-609.24 507.01,-605 506.48,-611.98"/>
</g>
<!-- components/pages/SellPage.tsx&#45;&gt;components/pages/Page.tsx -->
<g id="edge35" class="edge">
<title>components/pages/SellPage.tsx&#45;&gt;components/pages/Page.tsx</title>
<path fill="none" stroke="#757575" d="M421.09,-584.61C436.09,-581.9 451.6,-578.73 466,-575.13 482.36,-571.05 485.73,-567.59 502,-563.13 518.17,-558.7 535.74,-554.54 552.31,-550.89"/>
<polygon fill="#757575" stroke="#757575" points="553.45,-554.23 562.49,-548.7 551.97,-547.39 553.45,-554.23"/>
</g>
<!-- containers/Router.tsx -->
<g id="node35" class="node">
<title>containers/Router.tsx</title>
<path fill="none" stroke="#cfffac" d="M153.83,-933.63C153.83,-933.63 26.17,-933.63 26.17,-933.63 22.33,-933.63 18.5,-929.8 18.5,-925.97 18.5,-925.97 18.5,-918.3 18.5,-918.3 18.5,-914.47 22.33,-910.63 26.17,-910.63 26.17,-910.63 153.83,-910.63 153.83,-910.63 157.67,-910.63 161.5,-914.47 161.5,-918.3 161.5,-918.3 161.5,-925.97 161.5,-925.97 161.5,-929.8 157.67,-933.63 153.83,-933.63"/>
<text text-anchor="middle" x="90" y="-918.43" font-family="Arial" font-size="14.00" fill="#cfffac">containers/Router.tsx</text>
</g>
<!-- index.css -->
<g id="node36" class="node">
<title>index.css</title>
<path fill="none" stroke="#cfffac" d="M369.83,-769.63C369.83,-769.63 312.17,-769.63 312.17,-769.63 308.33,-769.63 304.5,-765.8 304.5,-761.97 304.5,-761.97 304.5,-754.3 304.5,-754.3 304.5,-750.47 308.33,-746.63 312.17,-746.63 312.17,-746.63 369.83,-746.63 369.83,-746.63 373.67,-746.63 377.5,-750.47 377.5,-754.3 377.5,-754.3 377.5,-761.97 377.5,-761.97 377.5,-765.8 373.67,-769.63 369.83,-769.63"/>
<text text-anchor="middle" x="341" y="-754.43" font-family="Arial" font-size="14.00" fill="#cfffac">index.css</text>
</g>
<!-- index.tsx -->
<g id="node37" class="node">
<title>index.tsx</title>
<path fill="none" stroke="#c6c5fe" d="M117.33,-688.63C117.33,-688.63 62.67,-688.63 62.67,-688.63 58.83,-688.63 55,-684.8 55,-680.97 55,-680.97 55,-673.3 55,-673.3 55,-669.47 58.83,-665.63 62.67,-665.63 62.67,-665.63 117.33,-665.63 117.33,-665.63 121.17,-665.63 125,-669.47 125,-673.3 125,-673.3 125,-680.97 125,-680.97 125,-684.8 121.17,-688.63 117.33,-688.63"/>
<text text-anchor="middle" x="90" y="-673.43" font-family="Arial" font-size="14.00" fill="#c6c5fe">index.tsx</text>
</g>
<!-- index.tsx&#45;&gt;components/pages/AccountPage.tsx -->
<g id="edge39" class="edge">
<title>index.tsx&#45;&gt;components/pages/AccountPage.tsx</title>
<path fill="none" stroke="#757575" d="M125.1,-671.66C159.21,-666.18 212.98,-657.54 258.19,-650.28"/>
<polygon fill="#757575" stroke="#757575" points="258.97,-653.7 268.29,-648.65 257.86,-646.78 258.97,-653.7"/>
</g>
<!-- index.tsx&#45;&gt;components/pages/HomePage.tsx -->
<g id="edge40" class="edge">
<title>index.tsx&#45;&gt;components/pages/HomePage.tsx</title>
<path fill="none" stroke="#757575" d="M97.33,-665.46C113.16,-637.49 157.46,-566.59 216,-534.13 219.05,-532.44 222.2,-530.89 225.43,-529.45"/>
<polygon fill="#757575" stroke="#757575" points="226.74,-532.7 234.72,-525.73 224.13,-526.2 226.74,-532.7"/>
</g>
<!-- index.tsx&#45;&gt;components/pages/MessagesPage.tsx -->
<g id="edge41" class="edge">
<title>index.tsx&#45;&gt;components/pages/MessagesPage.tsx</title>
<path fill="none" stroke="#757575" d="M101.33,-665.33C121.16,-643.53 166.94,-597.17 216,-575.13 220.43,-573.14 225.03,-571.35 229.73,-569.73"/>
<polygon fill="#757575" stroke="#757575" points="231.02,-572.99 239.5,-566.65 228.92,-566.32 231.02,-572.99"/>
</g>
<!-- index.tsx&#45;&gt;components/pages/NotFoundPage.tsx -->
<g id="edge42" class="edge">
<title>index.tsx&#45;&gt;components/pages/NotFoundPage.tsx</title>
<path fill="none" stroke="#757575" d="M101.38,-688.79C121.27,-710.31 167.17,-756.11 216,-778.13 221.36,-780.55 226.95,-782.69 232.69,-784.58"/>
<polygon fill="#757575" stroke="#757575" points="231.86,-787.99 242.44,-787.55 233.89,-781.29 231.86,-787.99"/>
</g>
<!-- index.tsx&#45;&gt;components/pages/SellPage.tsx -->
<g id="edge43" class="edge">
<title>index.tsx&#45;&gt;components/pages/SellPage.tsx</title>
<path fill="none" stroke="#757575" d="M110.17,-665.55C134.09,-651.64 176.64,-628.61 216,-616.13 223.38,-613.79 231.1,-611.72 238.92,-609.88"/>
<polygon fill="#757575" stroke="#757575" points="239.86,-613.26 248.86,-607.67 238.34,-606.42 239.86,-613.26"/>
</g>
<!-- index.tsx&#45;&gt;index.css -->
<g id="edge44" class="edge">
<title>index.tsx&#45;&gt;index.css</title>
<path fill="none" stroke="#757575" d="M110.64,-688.7C134.67,-702.35 177,-724.74 216,-737.13 241.29,-745.17 270.51,-750.31 294.23,-753.49"/>
<polygon fill="#757575" stroke="#757575" points="294.01,-756.99 304.37,-754.78 294.89,-750.04 294.01,-756.99"/>
</g>
<!-- main/App.tsx -->
<g id="node38" class="node">
<title>main/App.tsx</title>
<path fill="none" stroke="#c6c5fe" d="M380.83,-851.63C380.83,-851.63 301.17,-851.63 301.17,-851.63 297.33,-851.63 293.5,-847.8 293.5,-843.97 293.5,-843.97 293.5,-836.3 293.5,-836.3 293.5,-832.47 297.33,-828.63 301.17,-828.63 301.17,-828.63 380.83,-828.63 380.83,-828.63 384.67,-828.63 388.5,-832.47 388.5,-836.3 388.5,-836.3 388.5,-843.97 388.5,-843.97 388.5,-847.8 384.67,-851.63 380.83,-851.63"/>
<text text-anchor="middle" x="341" y="-836.43" font-family="Arial" font-size="14.00" fill="#c6c5fe">main/App.tsx</text>
</g>
<!-- index.tsx&#45;&gt;main/App.tsx -->
<g id="edge45" class="edge">
<title>index.tsx&#45;&gt;main/App.tsx</title>
<path fill="none" stroke="#757575" d="M97.37,-688.7C113.28,-716.41 157.76,-786.68 216,-819.13 236.34,-830.47 261.26,-836.01 283.41,-838.61"/>
<polygon fill="#757575" stroke="#757575" points="283.07,-842.09 293.37,-839.6 283.76,-835.12 283.07,-842.09"/>
</g>
<!-- index.tsx&#45;&gt;main/RoutePath.ts -->
<g id="edge46" class="edge">
<title>index.tsx&#45;&gt;main/RoutePath.ts</title>
<path fill="none" stroke="#757575" d="M125.22,-677.71C275.71,-680.23 880.66,-690.37 1091.83,-693.91"/>
<polygon fill="#757575" stroke="#757575" points="1091.83,-697.41 1101.88,-694.08 1091.94,-690.41 1091.83,-697.41"/>
</g>
<!-- reportWebVitals.ts -->
<g id="node40" class="node">
<title>reportWebVitals.ts</title>
<path fill="none" stroke="#cfffac" d="M396.83,-728.63C396.83,-728.63 285.17,-728.63 285.17,-728.63 281.33,-728.63 277.5,-724.8 277.5,-720.97 277.5,-720.97 277.5,-713.3 277.5,-713.3 277.5,-709.47 281.33,-705.63 285.17,-705.63 285.17,-705.63 396.83,-705.63 396.83,-705.63 400.67,-705.63 404.5,-709.47 404.5,-713.3 404.5,-713.3 404.5,-720.97 404.5,-720.97 404.5,-724.8 400.67,-728.63 396.83,-728.63"/>
<text text-anchor="middle" x="341" y="-713.43" font-family="Arial" font-size="14.00" fill="#cfffac">reportWebVitals.ts</text>
</g>
<!-- index.tsx&#45;&gt;reportWebVitals.ts -->
<g id="edge47" class="edge">
<title>index.tsx&#45;&gt;reportWebVitals.ts</title>
<path fill="none" stroke="#757575" d="M125.1,-682.61C161.46,-688.45 220.13,-697.88 266.99,-705.41"/>
<polygon fill="#757575" stroke="#757575" points="266.67,-708.9 277.1,-707.03 267.78,-701.99 266.67,-708.9"/>
</g>
<!-- main/App.tsx&#45;&gt;components/Menu/RootMenu.tsx -->
<g id="edge49" class="edge">
<title>main/App.tsx&#45;&gt;components/Menu/RootMenu.tsx</title>
<path fill="none" stroke="#757575" d="M388.54,-832.36C411.81,-828.45 440.4,-823.6 466,-819.13 492.92,-814.44 522.43,-809.17 548.47,-804.48"/>
<polygon fill="#757575" stroke="#757575" points="549.43,-807.87 558.65,-802.65 548.19,-800.98 549.43,-807.87"/>
</g>
<!-- main/App.tsx&#45;&gt;main/RoutePath.ts -->
<g id="edge50" class="edge">
<title>main/App.tsx&#45;&gt;main/RoutePath.ts</title>
<path fill="none" stroke="#757575" d="M388.52,-840.47C413.14,-838.71 442.95,-833.34 466,-819.13 489,-804.95 478.61,-783.68 502,-770.13 527.28,-755.49 924.59,-717.34 1091.77,-701.83"/>
<polygon fill="#757575" stroke="#757575" points="1092.32,-705.3 1101.96,-700.89 1091.68,-698.33 1092.32,-705.3"/>
</g>
<!-- main/RoutePath.ts&#45;&gt;types/types.d.ts -->
<g id="edge53" class="edge">
<title>main/RoutePath.ts&#45;&gt;types/types.d.ts</title>
<path fill="none" stroke="#757575" d="M1230.05,-695.13C1262.77,-695.13 1302.66,-695.13 1335.57,-695.13"/>
<polygon fill="#757575" stroke="#757575" points="1335.99,-698.63 1345.99,-695.13 1335.99,-691.63 1335.99,-698.63"/>
</g>
<!-- main/App.test.tsx -->
<g id="node41" class="node">
<title>main/App.test.tsx</title>
<path fill="none" stroke="#c6c5fe" d="M142.83,-851.63C142.83,-851.63 37.17,-851.63 37.17,-851.63 33.33,-851.63 29.5,-847.8 29.5,-843.97 29.5,-843.97 29.5,-836.3 29.5,-836.3 29.5,-832.47 33.33,-828.63 37.17,-828.63 37.17,-828.63 142.83,-828.63 142.83,-828.63 146.67,-828.63 150.5,-832.47 150.5,-836.3 150.5,-836.3 150.5,-843.97 150.5,-843.97 150.5,-847.8 146.67,-851.63 142.83,-851.63"/>
<text text-anchor="middle" x="90" y="-836.43" font-family="Arial" font-size="14.00" fill="#c6c5fe">main/App.test.tsx</text>
</g>
<!-- main/App.test.tsx&#45;&gt;main/App.tsx -->
<g id="edge48" class="edge">
<title>main/App.test.tsx&#45;&gt;main/App.tsx</title>
<path fill="none" stroke="#757575" d="M150.64,-840.13C190.88,-840.13 243.65,-840.13 283.26,-840.13"/>
<polygon fill="#757575" stroke="#757575" points="283.29,-843.63 293.29,-840.13 283.29,-836.63 283.29,-843.63"/>
</g>
<!-- react&#45;app&#45;env.d.ts -->
<g id="node42" class="node">
<title>react&#45;app&#45;env.d.ts</title>
<path fill="none" stroke="#cfffac" d="M144.83,-974.63C144.83,-974.63 35.17,-974.63 35.17,-974.63 31.33,-974.63 27.5,-970.8 27.5,-966.97 27.5,-966.97 27.5,-959.3 27.5,-959.3 27.5,-955.47 31.33,-951.63 35.17,-951.63 35.17,-951.63 144.83,-951.63 144.83,-951.63 148.67,-951.63 152.5,-955.47 152.5,-959.3 152.5,-959.3 152.5,-966.97 152.5,-966.97 152.5,-970.8 148.67,-974.63 144.83,-974.63"/>
<text text-anchor="middle" x="90" y="-959.43" font-family="Arial" font-size="14.00" fill="#cfffac">react&#45;app&#45;env.d.ts</text>
</g>
<!-- setupTests.ts -->
<g id="node44" class="node">
<title>setupTests.ts</title>
<path fill="none" stroke="#cfffac" d="M129.83,-1015.63C129.83,-1015.63 50.17,-1015.63 50.17,-1015.63 46.33,-1015.63 42.5,-1011.8 42.5,-1007.97 42.5,-1007.97 42.5,-1000.3 42.5,-1000.3 42.5,-996.47 46.33,-992.63 50.17,-992.63 50.17,-992.63 129.83,-992.63 129.83,-992.63 133.67,-992.63 137.5,-996.47 137.5,-1000.3 137.5,-1000.3 137.5,-1007.97 137.5,-1007.97 137.5,-1011.8 133.67,-1015.63 129.83,-1015.63"/>
<text text-anchor="middle" x="90" y="-1000.43" font-family="Arial" font-size="14.00" fill="#cfffac">setupTests.ts</text>
</g>
<!-- views/AccountView.tsx -->
<g id="node45" class="node">
<title>views/AccountView.tsx</title>
<path fill="none" stroke="#cfffac" d="M158.33,-1056.63C158.33,-1056.63 21.67,-1056.63 21.67,-1056.63 17.83,-1056.63 14,-1052.8 14,-1048.97 14,-1048.97 14,-1041.3 14,-1041.3 14,-1037.47 17.83,-1033.63 21.67,-1033.63 21.67,-1033.63 158.33,-1033.63 158.33,-1033.63 162.17,-1033.63 166,-1037.47 166,-1041.3 166,-1041.3 166,-1048.97 166,-1048.97 166,-1052.8 162.17,-1056.63 158.33,-1056.63"/>
<text text-anchor="middle" x="90" y="-1041.43" font-family="Arial" font-size="14.00" fill="#cfffac">views/AccountView.tsx</text>
</g>
<!-- views/CatalogsView.tsx -->
<g id="node46" class="node">
<title>views/CatalogsView.tsx</title>
<path fill="none" stroke="#cfffac" d="M160.83,-1097.63C160.83,-1097.63 19.17,-1097.63 19.17,-1097.63 15.33,-1097.63 11.5,-1093.8 11.5,-1089.97 11.5,-1089.97 11.5,-1082.3 11.5,-1082.3 11.5,-1078.47 15.33,-1074.63 19.17,-1074.63 19.17,-1074.63 160.83,-1074.63 160.83,-1074.63 164.67,-1074.63 168.5,-1078.47 168.5,-1082.3 168.5,-1082.3 168.5,-1089.97 168.5,-1089.97 168.5,-1093.8 164.67,-1097.63 160.83,-1097.63"/>
<text text-anchor="middle" x="90" y="-1082.43" font-family="Arial" font-size="14.00" fill="#cfffac">views/CatalogsView.tsx</text>
</g>
<!-- views/ProductView.tsx -->
<g id="node47" class="node">
<title>views/ProductView.tsx</title>
<path fill="none" stroke="#c6c5fe" d="M157.33,-131.63C157.33,-131.63 22.67,-131.63 22.67,-131.63 18.83,-131.63 15,-127.8 15,-123.97 15,-123.97 15,-116.3 15,-116.3 15,-112.47 18.83,-108.63 22.67,-108.63 22.67,-108.63 157.33,-108.63 157.33,-108.63 161.17,-108.63 165,-112.47 165,-116.3 165,-116.3 165,-123.97 165,-123.97 165,-127.8 161.17,-131.63 157.33,-131.63"/>
<text text-anchor="middle" x="90" y="-116.43" font-family="Arial" font-size="14.00" fill="#c6c5fe">views/ProductView.tsx</text>
</g>
<!-- views/ProductView.tsx&#45;&gt;components/AuthContainer.tsx -->
<g id="edge57" class="edge">
<title>views/ProductView.tsx&#45;&gt;components/AuthContainer.tsx</title>
<path fill="none" stroke="#757575" d="M102.86,-131.78C124.07,-152.1 170.54,-194.41 216,-221.13 240.45,-235.5 269.8,-247.55 293.81,-256.21"/>
<polygon fill="#757575" stroke="#757575" points="292.81,-259.57 303.4,-259.59 295.14,-252.97 292.81,-259.57"/>
</g>
<!-- views/ProductView.tsx&#45;&gt;services/RestService.ts -->
<g id="edge60" class="edge">
<title>views/ProductView.tsx&#45;&gt;services/RestService.ts</title>
<path fill="none" stroke="#757575" d="M105.26,-108.4C127.36,-91.02 171.96,-59.07 216,-46.13 419.7,13.71 672.84,1.46 803.82,-10.88"/>
<polygon fill="#757575" stroke="#757575" points="803.52,-14.37 813.81,-11.84 804.19,-7.4 803.52,-14.37"/>
</g>
<!-- views/ProductView.tsx&#45;&gt;types/models.d.ts -->
<g id="edge61" class="edge">
<title>views/ProductView.tsx&#45;&gt;types/models.d.ts</title>
<path fill="none" stroke="#757575" d="M152.5,-108.59C172.67,-105.12 195.24,-101.6 216,-99.13 449.2,-71.46 510.61,-53.08 744,-79.13 862.19,-92.33 889.47,-109.92 1005,-138.13 1041.13,-146.96 1081.64,-157.6 1112.86,-165.96"/>
<polygon fill="#757575" stroke="#757575" points="1112.09,-169.38 1122.65,-168.59 1113.91,-162.62 1112.09,-169.38"/>
</g>
<!-- views/ProductView.tsx&#45;&gt;components/ProductFormModal.tsx -->
<g id="edge58" class="edge">
<title>views/ProductView.tsx&#45;&gt;components/ProductFormModal.tsx</title>
<path fill="none" stroke="#757575" d="M126.41,-131.65C170.63,-146.04 246.32,-170.66 294.71,-186.4"/>
<polygon fill="#757575" stroke="#757575" points="293.72,-189.76 304.31,-189.52 295.88,-183.1 293.72,-189.76"/>
</g>
<!-- views/ProductView.tsx&#45;&gt;components/ProductList.tsx -->
<g id="edge59" class="edge">
<title>views/ProductView.tsx&#45;&gt;components/ProductList.tsx</title>
<path fill="none" stroke="#757575" d="M165.03,-120.13C188.22,-120.13 214.21,-120.13 238.93,-120.13"/>
<polygon fill="#757575" stroke="#757575" points="239.06,-123.63 249.06,-120.13 239.06,-116.63 239.06,-123.63"/>
</g>
</g>
</svg>
