<?xml version="1.0" encoding="UTF-8" standalone="no"?>
<!DOCTYPE svg PUBLIC "-//W3C//DTD SVG 1.1//EN"
 "http://www.w3.org/Graphics/SVG/1.1/DTD/svg11.dtd">
<!-- Generated by graphviz version 2.43.0 (0)
 -->
<!-- Title: G Pages: 1 -->
<svg width="1891pt" height="1021pt"
 viewBox="0.00 0.00 1891.20 1021.39" xmlns="http://www.w3.org/2000/svg" xmlns:xlink="http://www.w3.org/1999/xlink">
<g id="graph0" class="graph" transform="scale(1 1) rotate(0) translate(21.6 999.79)">
<title>G</title>
<polygon fill="#111111" stroke="transparent" points="-21.6,21.6 -21.6,-999.79 1869.6,-999.79 1869.6,21.6 -21.6,21.6"/>
<!-- components/AuthContainer.tsx -->
<g id="node1" class="node">
<title>components/AuthContainer.tsx</title>
<path fill="none" stroke="#c6c5fe" d="M764.33,-654C764.33,-654 578.67,-654 578.67,-654 574.83,-654 571,-650.17 571,-646.33 571,-646.33 571,-638.67 571,-638.67 571,-634.83 574.83,-631 578.67,-631 578.67,-631 764.33,-631 764.33,-631 768.17,-631 772,-634.83 772,-638.67 772,-638.67 772,-646.33 772,-646.33 772,-650.17 768.17,-654 764.33,-654"/>
<text text-anchor="middle" x="671.5" y="-638.8" font-family="Arial" font-size="14.00" fill="#c6c5fe">components/AuthContainer.tsx</text>
</g>
<!-- services/Firebase.ts -->
<g id="node2" class="node">
<title>services/Firebase.ts</title>
<path fill="none" stroke="#c6c5fe" d="M1332.83,-620C1332.83,-620 1211.17,-620 1211.17,-620 1207.33,-620 1203.5,-616.17 1203.5,-612.33 1203.5,-612.33 1203.5,-604.67 1203.5,-604.67 1203.5,-600.83 1207.33,-597 1211.17,-597 1211.17,-597 1332.83,-597 1332.83,-597 1336.67,-597 1340.5,-600.83 1340.5,-604.67 1340.5,-604.67 1340.5,-612.33 1340.5,-612.33 1340.5,-616.17 1336.67,-620 1332.83,-620"/>
<text text-anchor="middle" x="1272" y="-604.8" font-family="Arial" font-size="14.00" fill="#c6c5fe">services/Firebase.ts</text>
</g>
<!-- components/AuthContainer.tsx&#45;&gt;services/Firebase.ts -->
<g id="edge1" class="edge">
<title>components/AuthContainer.tsx&#45;&gt;services/Firebase.ts</title>
<path fill="none" stroke="#757575" d="M772.04,-640.85C859.98,-638.92 991.64,-634.84 1106,-626.5 1134.54,-624.42 1165.77,-621.24 1193.3,-618.14"/>
<polygon fill="#757575" stroke="#757575" points="1193.73,-621.61 1203.27,-617 1192.93,-614.66 1193.73,-621.61"/>
</g>
<!-- types/models.d.ts -->
<g id="node12" class="node">
<title>types/models.d.ts</title>
<path fill="none" stroke="#cfffac" d="M1604.33,-519C1604.33,-519 1497.67,-519 1497.67,-519 1493.83,-519 1490,-515.17 1490,-511.33 1490,-511.33 1490,-503.67 1490,-503.67 1490,-499.83 1493.83,-496 1497.67,-496 1497.67,-496 1604.33,-496 1604.33,-496 1608.17,-496 1612,-499.83 1612,-503.67 1612,-503.67 1612,-511.33 1612,-511.33 1612,-515.17 1608.17,-519 1604.33,-519"/>
<text text-anchor="middle" x="1551" y="-503.8" font-family="Arial" font-size="14.00" fill="#cfffac">types/models.d.ts</text>
</g>
<!-- services/Firebase.ts&#45;&gt;types/models.d.ts -->
<g id="edge70" class="edge">
<title>services/Firebase.ts&#45;&gt;types/models.d.ts</title>
<path fill="none" stroke="#757575" d="M1340.66,-601.82C1360.75,-598.69 1382.56,-594.12 1402,-587.5 1447.65,-571.94 1495.99,-543.17 1524.55,-524.7"/>
<polygon fill="#757575" stroke="#757575" points="1526.66,-527.51 1533.1,-519.1 1522.82,-521.65 1526.66,-527.51"/>
</g>
<!-- components/AuthFrom.tsx -->
<g id="node3" class="node">
<title>components/AuthFrom.tsx</title>
<path fill="none" stroke="#ff6c60" d="M1631.33,-879C1631.33,-879 1470.67,-879 1470.67,-879 1466.83,-879 1463,-875.17 1463,-871.33 1463,-871.33 1463,-863.67 1463,-863.67 1463,-859.83 1466.83,-856 1470.67,-856 1470.67,-856 1631.33,-856 1631.33,-856 1635.17,-856 1639,-859.83 1639,-863.67 1639,-863.67 1639,-871.33 1639,-871.33 1639,-875.17 1635.17,-879 1631.33,-879"/>
<text text-anchor="middle" x="1551" y="-863.8" font-family="Arial" font-size="14.00" fill="#ff6c60">components/AuthFrom.tsx</text>
</g>
<!-- components/Form.tsx -->
<g id="node4" class="node">
<title>components/Form.tsx</title>
<path fill="none" stroke="#cfffac" d="M1840.33,-879C1840.33,-879 1707.67,-879 1707.67,-879 1703.83,-879 1700,-875.17 1700,-871.33 1700,-871.33 1700,-863.67 1700,-863.67 1700,-859.83 1703.83,-856 1707.67,-856 1707.67,-856 1840.33,-856 1840.33,-856 1844.17,-856 1848,-859.83 1848,-863.67 1848,-863.67 1848,-871.33 1848,-871.33 1848,-875.17 1844.17,-879 1840.33,-879"/>
<text text-anchor="middle" x="1774" y="-863.8" font-family="Arial" font-size="14.00" fill="#cfffac">components/Form.tsx</text>
</g>
<!-- components/AuthFrom.tsx&#45;&gt;components/Form.tsx -->
<g id="edge2" class="edge">
<title>components/AuthFrom.tsx&#45;&gt;components/Form.tsx</title>
<path fill="none" stroke="#757575" d="M1639.03,-867.5C1655.73,-867.5 1673.19,-867.5 1689.77,-867.5"/>
<polygon fill="#757575" stroke="#757575" points="1689.97,-871 1699.97,-867.5 1689.97,-864 1689.97,-871"/>
</g>
<!-- components/FormInputGroup.tsx -->
<g id="node5" class="node">
<title>components/FormInputGroup.tsx</title>
<path fill="none" stroke="#ff6c60" d="M1372.33,-818C1372.33,-818 1171.67,-818 1171.67,-818 1167.83,-818 1164,-814.17 1164,-810.33 1164,-810.33 1164,-802.67 1164,-802.67 1164,-798.83 1167.83,-795 1171.67,-795 1171.67,-795 1372.33,-795 1372.33,-795 1376.17,-795 1380,-798.83 1380,-802.67 1380,-802.67 1380,-810.33 1380,-810.33 1380,-814.17 1376.17,-818 1372.33,-818"/>
<text text-anchor="middle" x="1272" y="-802.8" font-family="Arial" font-size="14.00" fill="#ff6c60">components/FormInputGroup.tsx</text>
</g>
<!-- components/AuthFrom.tsx&#45;&gt;components/FormInputGroup.tsx -->
<g id="edge3" class="edge">
<title>components/AuthFrom.tsx&#45;&gt;components/FormInputGroup.tsx</title>
<path fill="none" stroke="#757575" d="M1484.47,-855.97C1458.9,-849.27 1429.24,-841.36 1402,-835.5 1373.86,-829.44 1341.89,-824.47 1316.82,-819.9"/>
<polygon fill="#757575" stroke="#757575" points="1317.35,-816.44 1306.88,-818.04 1316.06,-823.32 1317.35,-816.44"/>
</g>
<!-- components/FormInputGroup.tsx&#45;&gt;components/AuthFrom.tsx -->
<g id="edge4" class="edge">
<title>components/FormInputGroup.tsx&#45;&gt;components/AuthFrom.tsx</title>
<path fill="none" stroke="#757575" d="M1380.17,-813.15C1387.58,-814.52 1394.91,-815.97 1402,-817.5 1444.44,-826.63 1492.75,-840.73 1522.31,-852.1"/>
<polygon fill="#757575" stroke="#757575" points="1521.36,-855.49 1531.94,-856 1523.98,-849 1521.36,-855.49"/>
</g>
<!-- components/FormInputGroup.scss -->
<g id="node6" class="node">
<title>components/FormInputGroup.scss</title>
<path fill="none" stroke="#cfffac" d="M1656.33,-818C1656.33,-818 1445.67,-818 1445.67,-818 1441.83,-818 1438,-814.17 1438,-810.33 1438,-810.33 1438,-802.67 1438,-802.67 1438,-798.83 1441.83,-795 1445.67,-795 1445.67,-795 1656.33,-795 1656.33,-795 1660.17,-795 1664,-798.83 1664,-802.67 1664,-802.67 1664,-810.33 1664,-810.33 1664,-814.17 1660.17,-818 1656.33,-818"/>
<text text-anchor="middle" x="1551" y="-802.8" font-family="Arial" font-size="14.00" fill="#cfffac">components/FormInputGroup.scss</text>
</g>
<!-- components/FormInputGroup.tsx&#45;&gt;components/FormInputGroup.scss -->
<g id="edge5" class="edge">
<title>components/FormInputGroup.tsx&#45;&gt;components/FormInputGroup.scss</title>
<path fill="none" stroke="#757575" d="M1380.1,-806.5C1395.58,-806.5 1411.62,-806.5 1427.38,-806.5"/>
<polygon fill="#757575" stroke="#757575" points="1427.69,-810 1437.69,-806.5 1427.69,-803 1427.69,-810"/>
</g>
<!-- components/Friends.tsx -->
<g id="node7" class="node">
<title>components/Friends.tsx</title>
<path fill="none" stroke="#cfffac" d="M188.33,-404C188.33,-404 42.67,-404 42.67,-404 38.83,-404 35,-400.17 35,-396.33 35,-396.33 35,-388.67 35,-388.67 35,-384.83 38.83,-381 42.67,-381 42.67,-381 188.33,-381 188.33,-381 192.17,-381 196,-384.83 196,-388.67 196,-388.67 196,-396.33 196,-396.33 196,-400.17 192.17,-404 188.33,-404"/>
<text text-anchor="middle" x="115.5" y="-388.8" font-family="Arial" font-size="14.00" fill="#cfffac">components/Friends.tsx</text>
</g>
<!-- components/ModalForm.scss -->
<g id="node8" class="node">
<title>components/ModalForm.scss</title>
<path fill="none" stroke="#cfffac" d="M1361.83,-579C1361.83,-579 1182.17,-579 1182.17,-579 1178.33,-579 1174.5,-575.17 1174.5,-571.33 1174.5,-571.33 1174.5,-563.67 1174.5,-563.67 1174.5,-559.83 1178.33,-556 1182.17,-556 1182.17,-556 1361.83,-556 1361.83,-556 1365.67,-556 1369.5,-559.83 1369.5,-563.67 1369.5,-563.67 1369.5,-571.33 1369.5,-571.33 1369.5,-575.17 1365.67,-579 1361.83,-579"/>
<text text-anchor="middle" x="1272" y="-563.8" font-family="Arial" font-size="14.00" fill="#cfffac">components/ModalForm.scss</text>
</g>
<!-- components/ModalForm.tsx -->
<g id="node9" class="node">
<title>components/ModalForm.tsx</title>
<path fill="none" stroke="#c6c5fe" d="M1050.33,-618C1050.33,-618 880.67,-618 880.67,-618 876.83,-618 873,-614.17 873,-610.33 873,-610.33 873,-602.67 873,-602.67 873,-598.83 876.83,-595 880.67,-595 880.67,-595 1050.33,-595 1050.33,-595 1054.17,-595 1058,-598.83 1058,-602.67 1058,-602.67 1058,-610.33 1058,-610.33 1058,-614.17 1054.17,-618 1050.33,-618"/>
<text text-anchor="middle" x="965.5" y="-602.8" font-family="Arial" font-size="14.00" fill="#c6c5fe">components/ModalForm.tsx</text>
</g>
<!-- components/ModalForm.tsx&#45;&gt;components/ModalForm.scss -->
<g id="edge6" class="edge">
<title>components/ModalForm.tsx&#45;&gt;components/ModalForm.scss</title>
<path fill="none" stroke="#757575" d="M1056.62,-594.96C1092.53,-590.36 1134,-585.05 1170.85,-580.33"/>
<polygon fill="#757575" stroke="#757575" points="1171.63,-583.76 1181.11,-579.01 1170.74,-576.81 1171.63,-583.76"/>
</g>
<!-- components/ProductForm.tsx -->
<g id="node10" class="node">
<title>components/ProductForm.tsx</title>
<path fill="none" stroke="#c6c5fe" d="M1054.83,-698C1054.83,-698 876.17,-698 876.17,-698 872.33,-698 868.5,-694.17 868.5,-690.33 868.5,-690.33 868.5,-682.67 868.5,-682.67 868.5,-678.83 872.33,-675 876.17,-675 876.17,-675 1054.83,-675 1054.83,-675 1058.67,-675 1062.5,-678.83 1062.5,-682.67 1062.5,-682.67 1062.5,-690.33 1062.5,-690.33 1062.5,-694.17 1058.67,-698 1054.83,-698"/>
<text text-anchor="middle" x="965.5" y="-682.8" font-family="Arial" font-size="14.00" fill="#c6c5fe">components/ProductForm.tsx</text>
</g>
<!-- components/ProductForm.tsx&#45;&gt;components/Form.tsx -->
<g id="edge7" class="edge">
<title>components/ProductForm.tsx&#45;&gt;components/Form.tsx</title>
<path fill="none" stroke="#757575" d="M1062.56,-678.51C1229.12,-666.37 1563.36,-650.15 1664,-705.5 1719.96,-736.28 1752.59,-809.5 1765.92,-846.02"/>
<polygon fill="#757575" stroke="#757575" points="1762.7,-847.4 1769.31,-855.68 1769.3,-845.09 1762.7,-847.4"/>
</g>
<!-- components/ProductForm.tsx&#45;&gt;components/FormInputGroup.tsx -->
<g id="edge8" class="edge">
<title>components/ProductForm.tsx&#45;&gt;components/FormInputGroup.tsx</title>
<path fill="none" stroke="#757575" d="M995.7,-698.01C1050.8,-719.72 1170.15,-766.75 1232.02,-791.14"/>
<polygon fill="#757575" stroke="#757575" points="1230.86,-794.44 1241.44,-794.85 1233.42,-787.93 1230.86,-794.44"/>
</g>
<!-- services/RestService.ts -->
<g id="node11" class="node">
<title>services/RestService.ts</title>
<path fill="none" stroke="#c6c5fe" d="M1342.83,-738C1342.83,-738 1201.17,-738 1201.17,-738 1197.33,-738 1193.5,-734.17 1193.5,-730.33 1193.5,-730.33 1193.5,-722.67 1193.5,-722.67 1193.5,-718.83 1197.33,-715 1201.17,-715 1201.17,-715 1342.83,-715 1342.83,-715 1346.67,-715 1350.5,-718.83 1350.5,-722.67 1350.5,-722.67 1350.5,-730.33 1350.5,-730.33 1350.5,-734.17 1346.67,-738 1342.83,-738"/>
<text text-anchor="middle" x="1272" y="-722.8" font-family="Arial" font-size="14.00" fill="#c6c5fe">services/RestService.ts</text>
</g>
<!-- components/ProductForm.tsx&#45;&gt;services/RestService.ts -->
<g id="edge9" class="edge">
<title>components/ProductForm.tsx&#45;&gt;services/RestService.ts</title>
<path fill="none" stroke="#757575" d="M1054.17,-698.02C1094.66,-703.34 1142.63,-709.64 1183.15,-714.96"/>
<polygon fill="#757575" stroke="#757575" points="1182.91,-718.46 1193.28,-716.29 1183.82,-711.52 1182.91,-718.46"/>
</g>
<!-- components/ProductForm.tsx&#45;&gt;types/models.d.ts -->
<g id="edge10" class="edge">
<title>components/ProductForm.tsx&#45;&gt;types/models.d.ts</title>
<path fill="none" stroke="#757575" d="M1062.55,-676.52C1181.31,-663.75 1371.56,-641.69 1402,-628.5 1456.88,-604.72 1507.83,-554.46 1533.2,-526.78"/>
<polygon fill="#757575" stroke="#757575" points="1535.85,-529.07 1539.94,-519.3 1530.64,-524.39 1535.85,-529.07"/>
</g>
<!-- services/RestService.ts&#45;&gt;types/models.d.ts -->
<g id="edge72" class="edge">
<title>services/RestService.ts&#45;&gt;types/models.d.ts</title>
<path fill="none" stroke="#757575" d="M1303.35,-714.99C1330.61,-703.85 1370.99,-685.32 1402,-662.5 1457.33,-621.78 1509.83,-559.16 1534.81,-527.42"/>
<polygon fill="#757575" stroke="#757575" points="1537.72,-529.38 1541.1,-519.33 1532.2,-525.08 1537.72,-529.38"/>
</g>
<!-- services/products.json.ts -->
<g id="node47" class="node">
<title>services/products.json.ts</title>
<path fill="none" stroke="#cfffac" d="M1625.33,-738C1625.33,-738 1476.67,-738 1476.67,-738 1472.83,-738 1469,-734.17 1469,-730.33 1469,-730.33 1469,-722.67 1469,-722.67 1469,-718.83 1472.83,-715 1476.67,-715 1476.67,-715 1625.33,-715 1625.33,-715 1629.17,-715 1633,-718.83 1633,-722.67 1633,-722.67 1633,-730.33 1633,-730.33 1633,-734.17 1629.17,-738 1625.33,-738"/>
<text text-anchor="middle" x="1551" y="-722.8" font-family="Arial" font-size="14.00" fill="#cfffac">services/products.json.ts</text>
</g>
<!-- services/RestService.ts&#45;&gt;services/products.json.ts -->
<g id="edge71" class="edge">
<title>services/RestService.ts&#45;&gt;services/products.json.ts</title>
<path fill="none" stroke="#757575" d="M1350.53,-726.5C1384.03,-726.5 1423.48,-726.5 1458.42,-726.5"/>
<polygon fill="#757575" stroke="#757575" points="1458.62,-730 1468.62,-726.5 1458.62,-723 1458.62,-730"/>
</g>
<!-- components/ProductFormModal.tsx -->
<g id="node13" class="node">
<title>components/ProductFormModal.tsx</title>
<path fill="none" stroke="#c6c5fe" d="M779.83,-597C779.83,-597 563.17,-597 563.17,-597 559.33,-597 555.5,-593.17 555.5,-589.33 555.5,-589.33 555.5,-581.67 555.5,-581.67 555.5,-577.83 559.33,-574 563.17,-574 563.17,-574 779.83,-574 779.83,-574 783.67,-574 787.5,-577.83 787.5,-581.67 787.5,-581.67 787.5,-589.33 787.5,-589.33 787.5,-593.17 783.67,-597 779.83,-597"/>
<text text-anchor="middle" x="671.5" y="-581.8" font-family="Arial" font-size="14.00" fill="#c6c5fe">components/ProductFormModal.tsx</text>
</g>
<!-- components/ProductFormModal.tsx&#45;&gt;components/ModalForm.tsx -->
<g id="edge11" class="edge">
<title>components/ProductFormModal.tsx&#45;&gt;components/ModalForm.tsx</title>
<path fill="none" stroke="#757575" d="M787.91,-593.8C812.6,-595.58 838.51,-597.44 862.64,-599.17"/>
<polygon fill="#757575" stroke="#757575" points="862.64,-602.68 872.87,-599.91 863.14,-595.7 862.64,-602.68"/>
</g>
<!-- components/ProductFormModal.tsx&#45;&gt;components/ProductForm.tsx -->
<g id="edge12" class="edge">
<title>components/ProductFormModal.tsx&#45;&gt;components/ProductForm.tsx</title>
<path fill="none" stroke="#757575" d="M711.77,-597.05C734.44,-603.86 763.44,-612.83 789,-621.5 836.25,-637.54 889.96,-657.72 925.38,-671.31"/>
<polygon fill="#757575" stroke="#757575" points="924.28,-674.63 934.87,-674.96 926.79,-668.1 924.28,-674.63"/>
</g>
<!-- components/ProductFormModal.tsx&#45;&gt;types/models.d.ts -->
<g id="edge13" class="edge">
<title>components/ProductFormModal.tsx&#45;&gt;types/models.d.ts</title>
<path fill="none" stroke="#757575" d="M787.67,-575.26C972.21,-558.86 1328.72,-527.17 1479.7,-513.75"/>
<polygon fill="#757575" stroke="#757575" points="1480.13,-517.22 1489.78,-512.85 1479.51,-510.25 1480.13,-517.22"/>
</g>
<!-- components/ProductList.tsx -->
<g id="node14" class="node">
<title>components/ProductList.tsx</title>
<path fill="none" stroke="#c6c5fe" d="M755.33,-538C755.33,-538 587.67,-538 587.67,-538 583.83,-538 580,-534.17 580,-530.33 580,-530.33 580,-522.67 580,-522.67 580,-518.83 583.83,-515 587.67,-515 587.67,-515 755.33,-515 755.33,-515 759.17,-515 763,-518.83 763,-522.67 763,-522.67 763,-530.33 763,-530.33 763,-534.17 759.17,-538 755.33,-538"/>
<text text-anchor="middle" x="671.5" y="-522.8" font-family="Arial" font-size="14.00" fill="#c6c5fe">components/ProductList.tsx</text>
</g>
<!-- components/ProductList.tsx&#45;&gt;types/models.d.ts -->
<g id="edge14" class="edge">
<title>components/ProductList.tsx&#45;&gt;types/models.d.ts</title>
<path fill="none" stroke="#757575" d="M741.38,-514.98C767.49,-511.15 797.54,-507.38 825,-505.5 1064.64,-489.08 1349.87,-498.25 1479.56,-503.98"/>
<polygon fill="#757575" stroke="#757575" points="1479.61,-507.49 1489.75,-504.44 1479.92,-500.5 1479.61,-507.49"/>
</g>
<!-- utils/Array.ts -->
<g id="node15" class="node">
<title>utils/Array.ts</title>
<path fill="none" stroke="#cfffac" d="M1002.83,-538C1002.83,-538 928.17,-538 928.17,-538 924.33,-538 920.5,-534.17 920.5,-530.33 920.5,-530.33 920.5,-522.67 920.5,-522.67 920.5,-518.83 924.33,-515 928.17,-515 928.17,-515 1002.83,-515 1002.83,-515 1006.67,-515 1010.5,-518.83 1010.5,-522.67 1010.5,-522.67 1010.5,-530.33 1010.5,-530.33 1010.5,-534.17 1006.67,-538 1002.83,-538"/>
<text text-anchor="middle" x="965.5" y="-522.8" font-family="Arial" font-size="14.00" fill="#cfffac">utils/Array.ts</text>
</g>
<!-- components/ProductList.tsx&#45;&gt;utils/Array.ts -->
<g id="edge15" class="edge">
<title>components/ProductList.tsx&#45;&gt;utils/Array.ts</title>
<path fill="none" stroke="#757575" d="M763.29,-526.5C811.44,-526.5 868.99,-526.5 910.19,-526.5"/>
<polygon fill="#757575" stroke="#757575" points="910.29,-530 920.29,-526.5 910.29,-523 910.29,-530"/>
</g>
<!-- components/containers/App.test.tsx -->
<g id="node16" class="node">
<title>components/containers/App.test.tsx</title>
<path fill="none" stroke="#c6c5fe" d="M223.33,-99C223.33,-99 7.67,-99 7.67,-99 3.83,-99 0,-95.17 0,-91.33 0,-91.33 0,-83.67 0,-83.67 0,-79.83 3.83,-76 7.67,-76 7.67,-76 223.33,-76 223.33,-76 227.17,-76 231,-79.83 231,-83.67 231,-83.67 231,-91.33 231,-91.33 231,-95.17 227.17,-99 223.33,-99"/>
<text text-anchor="middle" x="115.5" y="-83.8" font-family="Arial" font-size="14.00" fill="#c6c5fe">components/containers/App.test.tsx</text>
</g>
<!-- components/containers/App.tsx -->
<g id="node17" class="node">
<title>components/containers/App.tsx</title>
<path fill="none" stroke="#c6c5fe" d="M487.83,-99C487.83,-99 297.17,-99 297.17,-99 293.33,-99 289.5,-95.17 289.5,-91.33 289.5,-91.33 289.5,-83.67 289.5,-83.67 289.5,-79.83 293.33,-76 297.17,-76 297.17,-76 487.83,-76 487.83,-76 491.67,-76 495.5,-79.83 495.5,-83.67 495.5,-83.67 495.5,-91.33 495.5,-91.33 495.5,-95.17 491.67,-99 487.83,-99"/>
<text text-anchor="middle" x="392.5" y="-83.8" font-family="Arial" font-size="14.00" fill="#c6c5fe">components/containers/App.tsx</text>
</g>
<!-- components/containers/App.test.tsx&#45;&gt;components/containers/App.tsx -->
<g id="edge16" class="edge">
<title>components/containers/App.test.tsx&#45;&gt;components/containers/App.tsx</title>
<path fill="none" stroke="#757575" d="M231.13,-87.5C246.97,-87.5 263.22,-87.5 279.02,-87.5"/>
<polygon fill="#757575" stroke="#757575" points="279.33,-91 289.33,-87.5 279.33,-84 279.33,-91"/>
</g>
<!-- components/menus/RootMenu.tsx -->
<g id="node18" class="node">
<title>components/menus/RootMenu.tsx</title>
<path fill="none" stroke="#c6c5fe" d="M775.83,-61C775.83,-61 567.17,-61 567.17,-61 563.33,-61 559.5,-57.17 559.5,-53.33 559.5,-53.33 559.5,-45.67 559.5,-45.67 559.5,-41.83 563.33,-38 567.17,-38 567.17,-38 775.83,-38 775.83,-38 779.67,-38 783.5,-41.83 783.5,-45.67 783.5,-45.67 783.5,-53.33 783.5,-53.33 783.5,-57.17 779.67,-61 775.83,-61"/>
<text text-anchor="middle" x="671.5" y="-45.8" font-family="Arial" font-size="14.00" fill="#c6c5fe">components/menus/RootMenu.tsx</text>
</g>
<!-- components/containers/App.tsx&#45;&gt;components/menus/RootMenu.tsx -->
<g id="edge17" class="edge">
<title>components/containers/App.tsx&#45;&gt;components/menus/RootMenu.tsx</title>
<path fill="none" stroke="#757575" d="M477.36,-76C508.54,-71.72 544.12,-66.84 576.17,-62.44"/>
<polygon fill="#757575" stroke="#757575" points="577.02,-65.86 586.45,-61.03 576.06,-58.92 577.02,-65.86"/>
</g>
<!-- main/RoutePath.ts -->
<g id="node19" class="node">
<title>main/RoutePath.ts</title>
<path fill="none" stroke="#c6c5fe" d="M1328.33,-139C1328.33,-139 1215.67,-139 1215.67,-139 1211.83,-139 1208,-135.17 1208,-131.33 1208,-131.33 1208,-123.67 1208,-123.67 1208,-119.83 1211.83,-116 1215.67,-116 1215.67,-116 1328.33,-116 1328.33,-116 1332.17,-116 1336,-119.83 1336,-123.67 1336,-123.67 1336,-131.33 1336,-131.33 1336,-135.17 1332.17,-139 1328.33,-139"/>
<text text-anchor="middle" x="1272" y="-123.8" font-family="Arial" font-size="14.00" fill="#c6c5fe">main/RoutePath.ts</text>
</g>
<!-- components/containers/App.tsx&#45;&gt;main/RoutePath.ts -->
<g id="edge18" class="edge">
<title>components/containers/App.tsx&#45;&gt;main/RoutePath.ts</title>
<path fill="none" stroke="#757575" d="M495.64,-89.68C634.05,-92.99 888.86,-100.33 1106,-113.5 1136.03,-115.32 1169.08,-117.99 1197.66,-120.52"/>
<polygon fill="#757575" stroke="#757575" points="1197.71,-124.03 1207.98,-121.44 1198.33,-117.06 1197.71,-124.03"/>
</g>
<!-- components/menus/DropdownMenu.tsx -->
<g id="node23" class="node">
<title>components/menus/DropdownMenu.tsx</title>
<path fill="none" stroke="#c6c5fe" d="M1086.33,-23C1086.33,-23 844.67,-23 844.67,-23 840.83,-23 837,-19.17 837,-15.33 837,-15.33 837,-7.67 837,-7.67 837,-3.83 840.83,0 844.67,0 844.67,0 1086.33,0 1086.33,0 1090.17,0 1094,-3.83 1094,-7.67 1094,-7.67 1094,-15.33 1094,-15.33 1094,-19.17 1090.17,-23 1086.33,-23"/>
<text text-anchor="middle" x="965.5" y="-7.8" font-family="Arial" font-size="14.00" fill="#c6c5fe">components/menus/DropdownMenu.tsx</text>
</g>
<!-- components/menus/RootMenu.tsx&#45;&gt;components/menus/DropdownMenu.tsx -->
<g id="edge24" class="edge">
<title>components/menus/RootMenu.tsx&#45;&gt;components/menus/DropdownMenu.tsx</title>
<path fill="none" stroke="#757575" d="M760.9,-38C794.05,-33.68 831.93,-28.75 865.94,-24.33"/>
<polygon fill="#757575" stroke="#757575" points="866.43,-27.79 875.89,-23.03 865.53,-20.85 866.43,-27.79"/>
</g>
<!-- types/types.d.ts -->
<g id="node24" class="node">
<title>types/types.d.ts</title>
<path fill="none" stroke="#cfffac" d="M1598.33,-139C1598.33,-139 1503.67,-139 1503.67,-139 1499.83,-139 1496,-135.17 1496,-131.33 1496,-131.33 1496,-123.67 1496,-123.67 1496,-119.83 1499.83,-116 1503.67,-116 1503.67,-116 1598.33,-116 1598.33,-116 1602.17,-116 1606,-119.83 1606,-123.67 1606,-123.67 1606,-131.33 1606,-131.33 1606,-135.17 1602.17,-139 1598.33,-139"/>
<text text-anchor="middle" x="1551" y="-123.8" font-family="Arial" font-size="14.00" fill="#cfffac">types/types.d.ts</text>
</g>
<!-- components/menus/RootMenu.tsx&#45;&gt;types/types.d.ts -->
<g id="edge26" class="edge">
<title>components/menus/RootMenu.tsx&#45;&gt;types/types.d.ts</title>
<path fill="none" stroke="#757575" d="M783.62,-56C926.83,-64.88 1183.39,-82.47 1402,-106.5 1429.56,-109.53 1459.88,-113.69 1485.87,-117.5"/>
<polygon fill="#757575" stroke="#757575" points="1485.57,-121 1495.98,-119 1486.6,-114.07 1485.57,-121"/>
</g>
<!-- main/MenuConfig.ts -->
<g id="node25" class="node">
<title>main/MenuConfig.ts</title>
<path fill="none" stroke="#c6c5fe" d="M1026.83,-179C1026.83,-179 904.17,-179 904.17,-179 900.33,-179 896.5,-175.17 896.5,-171.33 896.5,-171.33 896.5,-163.67 896.5,-163.67 896.5,-159.83 900.33,-156 904.17,-156 904.17,-156 1026.83,-156 1026.83,-156 1030.67,-156 1034.5,-159.83 1034.5,-163.67 1034.5,-163.67 1034.5,-171.33 1034.5,-171.33 1034.5,-175.17 1030.67,-179 1026.83,-179"/>
<text text-anchor="middle" x="965.5" y="-163.8" font-family="Arial" font-size="14.00" fill="#c6c5fe">main/MenuConfig.ts</text>
</g>
<!-- components/menus/RootMenu.tsx&#45;&gt;main/MenuConfig.ts -->
<g id="edge25" class="edge">
<title>components/menus/RootMenu.tsx&#45;&gt;main/MenuConfig.ts</title>
<path fill="none" stroke="#757575" d="M701.03,-61.03C753.91,-82.4 867.14,-128.16 926.47,-152.13"/>
<polygon fill="#757575" stroke="#757575" points="925.27,-155.42 935.85,-155.92 927.89,-148.93 925.27,-155.42"/>
</g>
<!-- main/RoutePath.ts&#45;&gt;types/types.d.ts -->
<g id="edge69" class="edge">
<title>main/RoutePath.ts&#45;&gt;types/types.d.ts</title>
<path fill="none" stroke="#757575" d="M1336.2,-127.5C1380.94,-127.5 1440.74,-127.5 1485.71,-127.5"/>
<polygon fill="#757575" stroke="#757575" points="1485.94,-131 1495.94,-127.5 1485.94,-124 1485.94,-131"/>
</g>
<!-- components/forms/NewCatalogForm.tsx -->
<g id="node20" class="node">
<title>components/forms/NewCatalogForm.tsx</title>
<path fill="none" stroke="#cfffac" d="M1394.33,-382C1394.33,-382 1149.67,-382 1149.67,-382 1145.83,-382 1142,-378.17 1142,-374.33 1142,-374.33 1142,-366.67 1142,-366.67 1142,-362.83 1145.83,-359 1149.67,-359 1149.67,-359 1394.33,-359 1394.33,-359 1398.17,-359 1402,-362.83 1402,-366.67 1402,-366.67 1402,-374.33 1402,-374.33 1402,-378.17 1398.17,-382 1394.33,-382"/>
<text text-anchor="middle" x="1272" y="-366.8" font-family="Arial" font-size="14.00" fill="#cfffac">components/forms/NewCatalogForm.tsx</text>
</g>
<!-- components/forms/ResetPasswordForm.tsx -->
<g id="node21" class="node">
<title>components/forms/ResetPasswordForm.tsx</title>
<path fill="none" stroke="#c6c5fe" d="M1098.33,-808C1098.33,-808 832.67,-808 832.67,-808 828.83,-808 825,-804.17 825,-800.33 825,-800.33 825,-792.67 825,-792.67 825,-788.83 828.83,-785 832.67,-785 832.67,-785 1098.33,-785 1098.33,-785 1102.17,-785 1106,-788.83 1106,-792.67 1106,-792.67 1106,-800.33 1106,-800.33 1106,-804.17 1102.17,-808 1098.33,-808"/>
<text text-anchor="middle" x="965.5" y="-792.8" font-family="Arial" font-size="14.00" fill="#c6c5fe">components/forms/ResetPasswordForm.tsx</text>
</g>
<!-- components/forms/ResetPasswordForm.tsx&#45;&gt;components/Form.tsx -->
<g id="edge19" class="edge">
<title>components/forms/ResetPasswordForm.tsx&#45;&gt;components/Form.tsx</title>
<path fill="none" stroke="#757575" d="M1087.8,-784.97C1258.63,-770.37 1560.76,-751 1664,-785.5 1701.08,-797.89 1735.66,-828.4 1755.55,-848.51"/>
<polygon fill="#757575" stroke="#757575" points="1753.21,-851.12 1762.67,-855.9 1758.25,-846.27 1753.21,-851.12"/>
</g>
<!-- components/forms/ResetPasswordForm.tsx&#45;&gt;components/FormInputGroup.tsx -->
<g id="edge20" class="edge">
<title>components/forms/ResetPasswordForm.tsx&#45;&gt;components/FormInputGroup.tsx</title>
<path fill="none" stroke="#757575" d="M1106.27,-801.09C1122.18,-801.61 1138.26,-802.14 1153.83,-802.65"/>
<polygon fill="#757575" stroke="#757575" points="1153.87,-806.16 1163.98,-802.99 1154.1,-799.16 1153.87,-806.16"/>
</g>
<!-- components/lists/CatalogList.tsx -->
<g id="node22" class="node">
<title>components/lists/CatalogList.tsx</title>
<path fill="none" stroke="#c6c5fe" d="M1062.83,-301C1062.83,-301 868.17,-301 868.17,-301 864.33,-301 860.5,-297.17 860.5,-293.33 860.5,-293.33 860.5,-285.67 860.5,-285.67 860.5,-281.83 864.33,-278 868.17,-278 868.17,-278 1062.83,-278 1062.83,-278 1066.67,-278 1070.5,-281.83 1070.5,-285.67 1070.5,-285.67 1070.5,-293.33 1070.5,-293.33 1070.5,-297.17 1066.67,-301 1062.83,-301"/>
<text text-anchor="middle" x="965.5" y="-285.8" font-family="Arial" font-size="14.00" fill="#c6c5fe">components/lists/CatalogList.tsx</text>
</g>
<!-- components/lists/CatalogList.tsx&#45;&gt;types/models.d.ts -->
<g id="edge22" class="edge">
<title>components/lists/CatalogList.tsx&#45;&gt;types/models.d.ts</title>
<path fill="none" stroke="#757575" d="M1019.87,-277.94C1105.95,-262.2 1278.3,-242.92 1402,-308.5 1476.5,-348 1523.63,-443.53 1541.67,-486.25"/>
<polygon fill="#757575" stroke="#757575" points="1538.5,-487.75 1545.53,-495.67 1544.98,-485.09 1538.5,-487.75"/>
</g>
<!-- components/lists/CatalogList.tsx&#45;&gt;main/RoutePath.ts -->
<g id="edge21" class="edge">
<title>components/lists/CatalogList.tsx&#45;&gt;main/RoutePath.ts</title>
<path fill="none" stroke="#757575" d="M988.4,-277.85C1041.84,-249.42 1179.03,-176.43 1240.46,-143.75"/>
<polygon fill="#757575" stroke="#757575" points="1242.12,-146.83 1249.3,-139.05 1238.83,-140.65 1242.12,-146.83"/>
</g>
<!-- components/menus/DropdownMenu.tsx&#45;&gt;types/types.d.ts -->
<g id="edge23" class="edge">
<title>components/menus/DropdownMenu.tsx&#45;&gt;types/types.d.ts</title>
<path fill="none" stroke="#757575" d="M1094.24,-3.12C1182.62,-1.16 1301.88,-6.2 1402,-37.5 1450.95,-52.8 1500.36,-87.66 1527.9,-109.22"/>
<polygon fill="#757575" stroke="#757575" points="1526.04,-112.22 1536.04,-115.72 1530.4,-106.75 1526.04,-112.22"/>
</g>
<!-- main/MenuConfig.ts&#45;&gt;main/RoutePath.ts -->
<g id="edge67" class="edge">
<title>main/MenuConfig.ts&#45;&gt;main/RoutePath.ts</title>
<path fill="none" stroke="#757575" d="M1034.84,-158.52C1083.31,-152.16 1148.29,-143.62 1197.82,-137.11"/>
<polygon fill="#757575" stroke="#757575" points="1198.37,-140.57 1207.82,-135.8 1197.45,-133.63 1198.37,-140.57"/>
</g>
<!-- main/MenuConfig.ts&#45;&gt;types/types.d.ts -->
<g id="edge68" class="edge">
<title>main/MenuConfig.ts&#45;&gt;types/types.d.ts</title>
<path fill="none" stroke="#757575" d="M1034.52,-166.24C1120.32,-164.22 1272.35,-159.21 1402,-147.5 1429.47,-145.02 1459.67,-141.15 1485.58,-137.47"/>
<polygon fill="#757575" stroke="#757575" points="1486.26,-140.9 1495.66,-136.02 1485.26,-133.98 1486.26,-140.9"/>
</g>
<!-- components/menus/SubMenu.tsx -->
<g id="node26" class="node">
<title>components/menus/SubMenu.tsx</title>
<path fill="none" stroke="#c6c5fe" d="M773.33,-257C773.33,-257 569.67,-257 569.67,-257 565.83,-257 562,-253.17 562,-249.33 562,-249.33 562,-241.67 562,-241.67 562,-237.83 565.83,-234 569.67,-234 569.67,-234 773.33,-234 773.33,-234 777.17,-234 781,-237.83 781,-241.67 781,-241.67 781,-249.33 781,-249.33 781,-253.17 777.17,-257 773.33,-257"/>
<text text-anchor="middle" x="671.5" y="-241.8" font-family="Arial" font-size="14.00" fill="#c6c5fe">components/menus/SubMenu.tsx</text>
</g>
<!-- components/menus/SubMenu.tsx&#45;&gt;types/types.d.ts -->
<g id="edge27" class="edge">
<title>components/menus/SubMenu.tsx&#45;&gt;types/types.d.ts</title>
<path fill="none" stroke="#757575" d="M781.2,-240.05C924.49,-231.53 1183.96,-211.47 1402,-169.5 1437.43,-162.68 1476.67,-151.37 1505.84,-142.2"/>
<polygon fill="#757575" stroke="#757575" points="1507.25,-145.42 1515.72,-139.05 1505.13,-138.75 1507.25,-145.42"/>
</g>
<!-- components/modals/Modal.tsx -->
<g id="node27" class="node">
<title>components/modals/Modal.tsx</title>
<path fill="none" stroke="#cfffac" d="M1364.83,-341C1364.83,-341 1179.17,-341 1179.17,-341 1175.33,-341 1171.5,-337.17 1171.5,-333.33 1171.5,-333.33 1171.5,-325.67 1171.5,-325.67 1171.5,-321.83 1175.33,-318 1179.17,-318 1179.17,-318 1364.83,-318 1364.83,-318 1368.67,-318 1372.5,-321.83 1372.5,-325.67 1372.5,-325.67 1372.5,-333.33 1372.5,-333.33 1372.5,-337.17 1368.67,-341 1364.83,-341"/>
<text text-anchor="middle" x="1272" y="-325.8" font-family="Arial" font-size="14.00" fill="#cfffac">components/modals/Modal.tsx</text>
</g>
<!-- components/modals/NewCatalogModal.tsx -->
<g id="node28" class="node">
<title>components/modals/NewCatalogModal.tsx</title>
<path fill="none" stroke="#c6c5fe" d="M1095.33,-382C1095.33,-382 835.67,-382 835.67,-382 831.83,-382 828,-378.17 828,-374.33 828,-374.33 828,-366.67 828,-366.67 828,-362.83 831.83,-359 835.67,-359 835.67,-359 1095.33,-359 1095.33,-359 1099.17,-359 1103,-362.83 1103,-366.67 1103,-366.67 1103,-374.33 1103,-374.33 1103,-378.17 1099.17,-382 1095.33,-382"/>
<text text-anchor="middle" x="965.5" y="-366.8" font-family="Arial" font-size="14.00" fill="#c6c5fe">components/modals/NewCatalogModal.tsx</text>
</g>
<!-- components/modals/NewCatalogModal.tsx&#45;&gt;components/forms/NewCatalogForm.tsx -->
<g id="edge28" class="edge">
<title>components/modals/NewCatalogModal.tsx&#45;&gt;components/forms/NewCatalogForm.tsx</title>
<path fill="none" stroke="#757575" d="M1103.16,-370.5C1112.57,-370.5 1122.05,-370.5 1131.47,-370.5"/>
<polygon fill="#757575" stroke="#757575" points="1131.66,-374 1141.66,-370.5 1131.66,-367 1131.66,-374"/>
</g>
<!-- components/modals/NewCatalogModal.tsx&#45;&gt;components/modals/Modal.tsx -->
<g id="edge29" class="edge">
<title>components/modals/NewCatalogModal.tsx&#45;&gt;components/modals/Modal.tsx</title>
<path fill="none" stroke="#757575" d="M1052.13,-358.97C1090.56,-353.8 1136.05,-347.67 1175.57,-342.35"/>
<polygon fill="#757575" stroke="#757575" points="1176.04,-345.82 1185.49,-341.01 1175.11,-338.88 1176.04,-345.82"/>
</g>
<!-- components/pages/AccountPage.tsx -->
<g id="node29" class="node">
<title>components/pages/AccountPage.tsx</title>
<path fill="none" stroke="#c6c5fe" d="M502.83,-179C502.83,-179 282.17,-179 282.17,-179 278.33,-179 274.5,-175.17 274.5,-171.33 274.5,-171.33 274.5,-163.67 274.5,-163.67 274.5,-159.83 278.33,-156 282.17,-156 282.17,-156 502.83,-156 502.83,-156 506.67,-156 510.5,-159.83 510.5,-163.67 510.5,-163.67 510.5,-171.33 510.5,-171.33 510.5,-175.17 506.67,-179 502.83,-179"/>
<text text-anchor="middle" x="392.5" y="-163.8" font-family="Arial" font-size="14.00" fill="#c6c5fe">components/pages/AccountPage.tsx</text>
</g>
<!-- components/pages/AccountPage.tsx&#45;&gt;main/MenuConfig.ts -->
<g id="edge32" class="edge">
<title>components/pages/AccountPage.tsx&#45;&gt;main/MenuConfig.ts</title>
<path fill="none" stroke="#757575" d="M510.77,-167.5C622.99,-167.5 789.11,-167.5 886.13,-167.5"/>
<polygon fill="#757575" stroke="#757575" points="886.16,-171 896.16,-167.5 886.16,-164 886.16,-171"/>
</g>
<!-- components/pages/AccountPage.tsx&#45;&gt;components/menus/SubMenu.tsx -->
<g id="edge30" class="edge">
<title>components/pages/AccountPage.tsx&#45;&gt;components/menus/SubMenu.tsx</title>
<path fill="none" stroke="#757575" d="M480.05,-179.06C492.86,-181.45 505.84,-184.25 518,-187.5 559.36,-198.56 605.04,-216.78 635.52,-229.85"/>
<polygon fill="#757575" stroke="#757575" points="634.29,-233.13 644.86,-233.89 637.07,-226.71 634.29,-233.13"/>
</g>
<!-- components/pages/Page.tsx -->
<g id="node30" class="node">
<title>components/pages/Page.tsx</title>
<path fill="none" stroke="#cfffac" d="M757.83,-379C757.83,-379 585.17,-379 585.17,-379 581.33,-379 577.5,-375.17 577.5,-371.33 577.5,-371.33 577.5,-363.67 577.5,-363.67 577.5,-359.83 581.33,-356 585.17,-356 585.17,-356 757.83,-356 757.83,-356 761.67,-356 765.5,-359.83 765.5,-363.67 765.5,-363.67 765.5,-371.33 765.5,-371.33 765.5,-375.17 761.67,-379 757.83,-379"/>
<text text-anchor="middle" x="671.5" y="-363.8" font-family="Arial" font-size="14.00" fill="#cfffac">components/pages/Page.tsx</text>
</g>
<!-- components/pages/AccountPage.tsx&#45;&gt;components/pages/Page.tsx -->
<g id="edge31" class="edge">
<title>components/pages/AccountPage.tsx&#45;&gt;components/pages/Page.tsx</title>
<path fill="none" stroke="#757575" d="M504.31,-179.03C509.13,-181.46 513.73,-184.26 518,-187.5 548.42,-210.57 531.14,-234.92 554,-265.5 579.78,-299.97 618.88,-331.23 644.56,-349.8"/>
<polygon fill="#757575" stroke="#757575" points="642.86,-352.89 653.04,-355.83 646.92,-347.18 642.86,-352.89"/>
</g>
<!-- components/pages/AuthPage.scss -->
<g id="node31" class="node">
<title>components/pages/AuthPage.scss</title>
<path fill="none" stroke="#cfffac" d="M1376.83,-859C1376.83,-859 1167.17,-859 1167.17,-859 1163.33,-859 1159.5,-855.17 1159.5,-851.33 1159.5,-851.33 1159.5,-843.67 1159.5,-843.67 1159.5,-839.83 1163.33,-836 1167.17,-836 1167.17,-836 1376.83,-836 1376.83,-836 1380.67,-836 1384.5,-839.83 1384.5,-843.67 1384.5,-843.67 1384.5,-851.33 1384.5,-851.33 1384.5,-855.17 1380.67,-859 1376.83,-859"/>
<text text-anchor="middle" x="1272" y="-843.8" font-family="Arial" font-size="14.00" fill="#cfffac">components/pages/AuthPage.scss</text>
</g>
<!-- components/pages/AuthPage.tsx -->
<g id="node32" class="node">
<title>components/pages/AuthPage.tsx</title>
<path fill="none" stroke="#c6c5fe" d="M1065.33,-869C1065.33,-869 865.67,-869 865.67,-869 861.83,-869 858,-865.17 858,-861.33 858,-861.33 858,-853.67 858,-853.67 858,-849.83 861.83,-846 865.67,-846 865.67,-846 1065.33,-846 1065.33,-846 1069.17,-846 1073,-849.83 1073,-853.67 1073,-853.67 1073,-861.33 1073,-861.33 1073,-865.17 1069.17,-869 1065.33,-869"/>
<text text-anchor="middle" x="965.5" y="-853.8" font-family="Arial" font-size="14.00" fill="#c6c5fe">components/pages/AuthPage.tsx</text>
</g>
<!-- components/pages/AuthPage.tsx&#45;&gt;services/Firebase.ts -->
<g id="edge37" class="edge">
<title>components/pages/AuthPage.tsx&#45;&gt;services/Firebase.ts</title>
<path fill="none" stroke="#757575" d="M1053.12,-845.97C1072.47,-839.86 1091.52,-830.58 1106,-816.5 1143.18,-780.34 1111.87,-747.72 1142,-705.5 1167.41,-669.9 1209.8,-641.64 1239.01,-625.02"/>
<polygon fill="#757575" stroke="#757575" points="1240.95,-627.95 1247.99,-620.03 1237.55,-621.83 1240.95,-627.95"/>
</g>
<!-- components/pages/AuthPage.tsx&#45;&gt;components/AuthFrom.tsx -->
<g id="edge33" class="edge">
<title>components/pages/AuthPage.tsx&#45;&gt;components/AuthFrom.tsx</title>
<path fill="none" stroke="#757575" d="M1073.18,-865.26C1095.88,-866.61 1119.73,-867.8 1142,-868.5 1257.5,-872.12 1286.45,-868.89 1402,-868.5 1418.28,-868.45 1435.56,-868.36 1452.36,-868.25"/>
<polygon fill="#757575" stroke="#757575" points="1452.76,-871.75 1462.74,-868.19 1452.72,-864.75 1452.76,-871.75"/>
</g>
<!-- components/pages/AuthPage.tsx&#45;&gt;components/Form.tsx -->
<g id="edge34" class="edge">
<title>components/pages/AuthPage.tsx&#45;&gt;components/Form.tsx</title>
<path fill="none" stroke="#757575" d="M982.38,-869.12C1011.97,-889.96 1078.31,-932.97 1142,-948.5 1367.87,-1003.58 1439.81,-976.08 1664,-914.5 1691.23,-907.02 1720.53,-894.08 1741.89,-883.67"/>
<polygon fill="#757575" stroke="#757575" points="1743.71,-886.68 1751.11,-879.1 1740.6,-880.41 1743.71,-886.68"/>
</g>
<!-- components/pages/AuthPage.tsx&#45;&gt;components/pages/AuthPage.scss -->
<g id="edge35" class="edge">
<title>components/pages/AuthPage.tsx&#45;&gt;components/pages/AuthPage.scss</title>
<path fill="none" stroke="#757575" d="M1073.43,-853.99C1097.9,-853.18 1124.1,-852.32 1149.15,-851.5"/>
<polygon fill="#757575" stroke="#757575" points="1149.55,-854.99 1159.43,-851.16 1149.32,-847.99 1149.55,-854.99"/>
</g>
<!-- containers/SignUpModal.tsx -->
<g id="node33" class="node">
<title>containers/SignUpModal.tsx</title>
<path fill="none" stroke="#c6c5fe" d="M1356.83,-939C1356.83,-939 1187.17,-939 1187.17,-939 1183.33,-939 1179.5,-935.17 1179.5,-931.33 1179.5,-931.33 1179.5,-923.67 1179.5,-923.67 1179.5,-919.83 1183.33,-916 1187.17,-916 1187.17,-916 1356.83,-916 1356.83,-916 1360.67,-916 1364.5,-919.83 1364.5,-923.67 1364.5,-923.67 1364.5,-931.33 1364.5,-931.33 1364.5,-935.17 1360.67,-939 1356.83,-939"/>
<text text-anchor="middle" x="1272" y="-923.8" font-family="Arial" font-size="14.00" fill="#c6c5fe">containers/SignUpModal.tsx</text>
</g>
<!-- components/pages/AuthPage.tsx&#45;&gt;containers/SignUpModal.tsx -->
<g id="edge36" class="edge">
<title>components/pages/AuthPage.tsx&#45;&gt;containers/SignUpModal.tsx</title>
<path fill="none" stroke="#757575" d="M1010,-869.01C1045.43,-878.24 1096.81,-891.29 1142,-901.5 1161.07,-905.81 1181.81,-910.14 1200.97,-914"/>
<polygon fill="#757575" stroke="#757575" points="1200.33,-917.45 1210.82,-915.98 1201.7,-910.58 1200.33,-917.45"/>
</g>
<!-- containers/SignUpModal.tsx&#45;&gt;components/AuthFrom.tsx -->
<g id="edge51" class="edge">
<title>containers/SignUpModal.tsx&#45;&gt;components/AuthFrom.tsx</title>
<path fill="none" stroke="#757575" d="M1331.83,-915.99C1353.87,-911.59 1379.11,-906.44 1402,-901.5 1431.61,-895.12 1464.45,-887.61 1491.66,-881.28"/>
<polygon fill="#757575" stroke="#757575" points="1492.47,-884.69 1501.41,-879.01 1490.88,-877.87 1492.47,-884.69"/>
</g>
<!-- containers/SignUpModal.tsx&#45;&gt;components/Form.tsx -->
<g id="edge52" class="edge">
<title>containers/SignUpModal.tsx&#45;&gt;components/Form.tsx</title>
<path fill="none" stroke="#757575" d="M1364.54,-920.74C1443.96,-914.3 1561.9,-903.4 1664,-888.5 1678.41,-886.4 1693.81,-883.71 1708.36,-880.96"/>
<polygon fill="#757575" stroke="#757575" points="1709.11,-884.38 1718.27,-879.05 1707.79,-877.5 1709.11,-884.38"/>
</g>
<!-- components/pages/HomePage.tsx -->
<g id="node34" class="node">
<title>components/pages/HomePage.tsx</title>
<path fill="none" stroke="#c6c5fe" d="M496.83,-425C496.83,-425 288.17,-425 288.17,-425 284.33,-425 280.5,-421.17 280.5,-417.33 280.5,-417.33 280.5,-409.67 280.5,-409.67 280.5,-405.83 284.33,-402 288.17,-402 288.17,-402 496.83,-402 496.83,-402 500.67,-402 504.5,-405.83 504.5,-409.67 504.5,-409.67 504.5,-417.33 504.5,-417.33 504.5,-421.17 500.67,-425 496.83,-425"/>
<text text-anchor="middle" x="392.5" y="-409.8" font-family="Arial" font-size="14.00" fill="#c6c5fe">components/pages/HomePage.tsx</text>
</g>
<!-- components/pages/HomePage.tsx&#45;&gt;components/pages/Page.tsx -->
<g id="edge38" class="edge">
<title>components/pages/HomePage.tsx&#45;&gt;components/pages/Page.tsx</title>
<path fill="none" stroke="#757575" d="M463.04,-401.95C501.9,-395.5 550.47,-387.43 590.85,-380.73"/>
<polygon fill="#757575" stroke="#757575" points="591.64,-384.14 600.93,-379.05 590.49,-377.24 591.64,-384.14"/>
</g>
<!-- components/pages/MessagesPage.tsx -->
<g id="node35" class="node">
<title>components/pages/MessagesPage.tsx</title>
<path fill="none" stroke="#c6c5fe" d="M509.83,-466C509.83,-466 275.17,-466 275.17,-466 271.33,-466 267.5,-462.17 267.5,-458.33 267.5,-458.33 267.5,-450.67 267.5,-450.67 267.5,-446.83 271.33,-443 275.17,-443 275.17,-443 509.83,-443 509.83,-443 513.67,-443 517.5,-446.83 517.5,-450.67 517.5,-450.67 517.5,-458.33 517.5,-458.33 517.5,-462.17 513.67,-466 509.83,-466"/>
<text text-anchor="middle" x="392.5" y="-450.8" font-family="Arial" font-size="14.00" fill="#c6c5fe">components/pages/MessagesPage.tsx</text>
</g>
<!-- components/pages/MessagesPage.tsx&#45;&gt;components/pages/Page.tsx -->
<g id="edge39" class="edge">
<title>components/pages/MessagesPage.tsx&#45;&gt;components/pages/Page.tsx</title>
<path fill="none" stroke="#757575" d="M497.86,-443C504.9,-440.39 511.69,-437.26 518,-433.5 540.31,-420.22 531.71,-400.81 554,-387.5 558.4,-384.87 563.05,-382.56 567.87,-380.54"/>
<polygon fill="#757575" stroke="#757575" points="569.17,-383.79 577.29,-377 566.7,-377.24 569.17,-383.79"/>
</g>
<!-- components/pages/NotFoundPage.tsx -->
<g id="node36" class="node">
<title>components/pages/NotFoundPage.tsx</title>
<path fill="none" stroke="#cfffac" d="M508.33,-546C508.33,-546 276.67,-546 276.67,-546 272.83,-546 269,-542.17 269,-538.33 269,-538.33 269,-530.67 269,-530.67 269,-526.83 272.83,-523 276.67,-523 276.67,-523 508.33,-523 508.33,-523 512.17,-523 516,-526.83 516,-530.67 516,-530.67 516,-538.33 516,-538.33 516,-542.17 512.17,-546 508.33,-546"/>
<text text-anchor="middle" x="392.5" y="-530.8" font-family="Arial" font-size="14.00" fill="#cfffac">components/pages/NotFoundPage.tsx</text>
</g>
<!-- components/pages/SellPage.tsx -->
<g id="node37" class="node">
<title>components/pages/SellPage.tsx</title>
<path fill="none" stroke="#c6c5fe" d="M489.83,-384C489.83,-384 295.17,-384 295.17,-384 291.33,-384 287.5,-380.17 287.5,-376.33 287.5,-376.33 287.5,-368.67 287.5,-368.67 287.5,-364.83 291.33,-361 295.17,-361 295.17,-361 489.83,-361 489.83,-361 493.67,-361 497.5,-364.83 497.5,-368.67 497.5,-368.67 497.5,-376.33 497.5,-376.33 497.5,-380.17 493.67,-384 489.83,-384"/>
<text text-anchor="middle" x="392.5" y="-368.8" font-family="Arial" font-size="14.00" fill="#c6c5fe">components/pages/SellPage.tsx</text>
</g>
<!-- components/pages/SellPage.tsx&#45;&gt;main/MenuConfig.ts -->
<g id="edge42" class="edge">
<title>components/pages/SellPage.tsx&#45;&gt;main/MenuConfig.ts</title>
<path fill="none" stroke="#757575" d="M497.69,-364.57C505.07,-361.2 511.96,-356.91 518,-351.5 561.69,-312.34 509.75,-263.02 554,-224.5 578.57,-203.11 773.8,-183.46 885.95,-173.79"/>
<polygon fill="#757575" stroke="#757575" points="886.53,-177.25 896.2,-172.91 885.94,-170.28 886.53,-177.25"/>
</g>
<!-- components/pages/SellPage.tsx&#45;&gt;components/menus/SubMenu.tsx -->
<g id="edge40" class="edge">
<title>components/pages/SellPage.tsx&#45;&gt;components/menus/SubMenu.tsx</title>
<path fill="none" stroke="#757575" d="M488.54,-360.98C498.66,-358.43 508.66,-355.31 518,-351.5 570.22,-330.2 622.27,-288.53 650.01,-264.26"/>
<polygon fill="#757575" stroke="#757575" points="652.66,-266.59 657.81,-257.33 648.01,-261.35 652.66,-266.59"/>
</g>
<!-- components/pages/SellPage.tsx&#45;&gt;components/pages/Page.tsx -->
<g id="edge41" class="edge">
<title>components/pages/SellPage.tsx&#45;&gt;components/pages/Page.tsx</title>
<path fill="none" stroke="#757575" d="M497.83,-370.62C520.44,-370.21 544.34,-369.78 566.92,-369.37"/>
<polygon fill="#757575" stroke="#757575" points="567.26,-372.86 577.19,-369.18 567.13,-365.87 567.26,-372.86"/>
</g>
<!-- components/views/CatalogsView.tsx -->
<g id="node38" class="node">
<title>components/views/CatalogsView.tsx</title>
<path fill="none" stroke="#c6c5fe" d="M781.33,-420C781.33,-420 561.67,-420 561.67,-420 557.83,-420 554,-416.17 554,-412.33 554,-412.33 554,-404.67 554,-404.67 554,-400.83 557.83,-397 561.67,-397 561.67,-397 781.33,-397 781.33,-397 785.17,-397 789,-400.83 789,-404.67 789,-404.67 789,-412.33 789,-412.33 789,-416.17 785.17,-420 781.33,-420"/>
<text text-anchor="middle" x="671.5" y="-404.8" font-family="Arial" font-size="14.00" fill="#c6c5fe">components/views/CatalogsView.tsx</text>
</g>
<!-- components/views/CatalogsView.tsx&#45;&gt;types/models.d.ts -->
<g id="edge45" class="edge">
<title>components/views/CatalogsView.tsx&#45;&gt;types/models.d.ts</title>
<path fill="none" stroke="#757575" d="M789.27,-397.79C935.1,-387.77 1191.1,-381.34 1402,-434.5 1447.62,-446 1495.62,-472.79 1524.17,-490.52"/>
<polygon fill="#757575" stroke="#757575" points="1522.4,-493.54 1532.72,-495.92 1526.14,-487.62 1522.4,-493.54"/>
</g>
<!-- components/views/CatalogsView.tsx&#45;&gt;components/lists/CatalogList.tsx -->
<g id="edge43" class="edge">
<title>components/views/CatalogsView.tsx&#45;&gt;components/lists/CatalogList.tsx</title>
<path fill="none" stroke="#757575" d="M766.81,-396.93C774.54,-394.37 782.04,-391.26 789,-387.5 809.47,-376.44 805.92,-362.81 825,-349.5 853.24,-329.79 888.97,-314.58 917.2,-304.4"/>
<polygon fill="#757575" stroke="#757575" points="918.57,-307.63 926.85,-301.01 916.25,-301.02 918.57,-307.63"/>
</g>
<!-- components/views/CatalogsView.tsx&#45;&gt;components/modals/NewCatalogModal.tsx -->
<g id="edge44" class="edge">
<title>components/views/CatalogsView.tsx&#45;&gt;components/modals/NewCatalogModal.tsx</title>
<path fill="none" stroke="#757575" d="M760.9,-397C794.05,-392.68 831.93,-387.75 865.94,-383.33"/>
<polygon fill="#757575" stroke="#757575" points="866.43,-386.79 875.89,-382.03 865.53,-379.85 866.43,-386.79"/>
</g>
<!-- components/views/EditCatalogView.tsx -->
<g id="node39" class="node">
<title>components/views/EditCatalogView.tsx</title>
<path fill="none" stroke="#cfffac" d="M510.33,-343C510.33,-343 274.67,-343 274.67,-343 270.83,-343 267,-339.17 267,-335.33 267,-335.33 267,-327.67 267,-327.67 267,-323.83 270.83,-320 274.67,-320 274.67,-320 510.33,-320 510.33,-320 514.17,-320 518,-323.83 518,-327.67 518,-327.67 518,-335.33 518,-335.33 518,-339.17 514.17,-343 510.33,-343"/>
<text text-anchor="middle" x="392.5" y="-327.8" font-family="Arial" font-size="14.00" fill="#cfffac">components/views/EditCatalogView.tsx</text>
</g>
<!-- components/views/ProductView.tsx -->
<g id="node40" class="node">
<title>components/views/ProductView.tsx</title>
<path fill="none" stroke="#c6c5fe" d="M498.83,-595C498.83,-595 286.17,-595 286.17,-595 282.33,-595 278.5,-591.17 278.5,-587.33 278.5,-587.33 278.5,-579.67 278.5,-579.67 278.5,-575.83 282.33,-572 286.17,-572 286.17,-572 498.83,-572 498.83,-572 502.67,-572 506.5,-575.83 506.5,-579.67 506.5,-579.67 506.5,-587.33 506.5,-587.33 506.5,-591.17 502.67,-595 498.83,-595"/>
<text text-anchor="middle" x="392.5" y="-579.8" font-family="Arial" font-size="14.00" fill="#c6c5fe">components/views/ProductView.tsx</text>
</g>
<!-- components/views/ProductView.tsx&#45;&gt;components/AuthContainer.tsx -->
<g id="edge46" class="edge">
<title>components/views/ProductView.tsx&#45;&gt;components/AuthContainer.tsx</title>
<path fill="none" stroke="#757575" d="M447.57,-595.02C492.99,-604.69 558,-618.54 606.1,-628.78"/>
<polygon fill="#757575" stroke="#757575" points="605.59,-632.25 616.1,-630.91 607.05,-625.41 605.59,-632.25"/>
</g>
<!-- components/views/ProductView.tsx&#45;&gt;services/RestService.ts -->
<g id="edge49" class="edge">
<title>components/views/ProductView.tsx&#45;&gt;services/RestService.ts</title>
<path fill="none" stroke="#757575" d="M412.48,-595.18C441.75,-612.63 500.16,-645.3 554,-662.5 772.35,-732.24 1045.86,-734.9 1183.41,-730.8"/>
<polygon fill="#757575" stroke="#757575" points="1183.6,-734.3 1193.48,-730.48 1183.38,-727.3 1183.6,-734.3"/>
</g>
<!-- components/views/ProductView.tsx&#45;&gt;types/models.d.ts -->
<g id="edge50" class="edge">
<title>components/views/ProductView.tsx&#45;&gt;types/models.d.ts</title>
<path fill="none" stroke="#757575" d="M479.51,-571.93C493.07,-567.77 506.42,-562.14 518,-554.5 540.56,-539.62 530.19,-518.28 554,-505.5 713.77,-419.75 1280.25,-475.85 1479.8,-498.92"/>
<polygon fill="#757575" stroke="#757575" points="1479.54,-502.42 1489.88,-500.1 1480.35,-495.46 1479.54,-502.42"/>
</g>
<!-- components/views/ProductView.tsx&#45;&gt;components/ProductFormModal.tsx -->
<g id="edge47" class="edge">
<title>components/views/ProductView.tsx&#45;&gt;components/ProductFormModal.tsx</title>
<path fill="none" stroke="#757575" d="M506.57,-584.32C519.2,-584.41 532.12,-584.5 544.89,-584.59"/>
<polygon fill="#757575" stroke="#757575" points="545.07,-588.09 555.1,-584.67 545.12,-581.09 545.07,-588.09"/>
</g>
<!-- components/views/ProductView.tsx&#45;&gt;components/ProductList.tsx -->
<g id="edge48" class="edge">
<title>components/views/ProductView.tsx&#45;&gt;components/ProductList.tsx</title>
<path fill="none" stroke="#757575" d="M449.56,-571.97C494.42,-562.73 557.44,-549.77 604.7,-540.04"/>
<polygon fill="#757575" stroke="#757575" points="605.44,-543.46 614.53,-538.02 604.03,-536.61 605.44,-543.46"/>
</g>
<!-- components/views/ProfileView.tsx -->
<g id="node41" class="node">
<title>components/views/ProfileView.tsx</title>
<path fill="none" stroke="#cfffac" d="M494.83,-302C494.83,-302 290.17,-302 290.17,-302 286.33,-302 282.5,-298.17 282.5,-294.33 282.5,-294.33 282.5,-286.67 282.5,-286.67 282.5,-282.83 286.33,-279 290.17,-279 290.17,-279 494.83,-279 494.83,-279 498.67,-279 502.5,-282.83 502.5,-286.67 502.5,-286.67 502.5,-294.33 502.5,-294.33 502.5,-298.17 498.67,-302 494.83,-302"/>
<text text-anchor="middle" x="392.5" y="-286.8" font-family="Arial" font-size="14.00" fill="#cfffac">components/views/ProfileView.tsx</text>
</g>
<!-- index.css -->
<g id="node42" class="node">
<title>index.css</title>
<path fill="none" stroke="#cfffac" d="M421.33,-261C421.33,-261 363.67,-261 363.67,-261 359.83,-261 356,-257.17 356,-253.33 356,-253.33 356,-245.67 356,-245.67 356,-241.83 359.83,-238 363.67,-238 363.67,-238 421.33,-238 421.33,-238 425.17,-238 429,-241.83 429,-245.67 429,-245.67 429,-253.33 429,-253.33 429,-257.17 425.17,-261 421.33,-261"/>
<text text-anchor="middle" x="392.5" y="-245.8" font-family="Arial" font-size="14.00" fill="#cfffac">index.css</text>
</g>
<!-- index.tsx -->
<g id="node43" class="node">
<title>index.tsx</title>
<path fill="none" stroke="#c6c5fe" d="M142.83,-363C142.83,-363 88.17,-363 88.17,-363 84.33,-363 80.5,-359.17 80.5,-355.33 80.5,-355.33 80.5,-347.67 80.5,-347.67 80.5,-343.83 84.33,-340 88.17,-340 88.17,-340 142.83,-340 142.83,-340 146.67,-340 150.5,-343.83 150.5,-347.67 150.5,-347.67 150.5,-355.33 150.5,-355.33 150.5,-359.17 146.67,-363 142.83,-363"/>
<text text-anchor="middle" x="115.5" y="-347.8" font-family="Arial" font-size="14.00" fill="#c6c5fe">index.tsx</text>
</g>
<!-- index.tsx&#45;&gt;components/containers/App.tsx -->
<g id="edge53" class="edge">
<title>index.tsx&#45;&gt;components/containers/App.tsx</title>
<path fill="none" stroke="#757575" d="M120.2,-339.75C133.18,-300.56 180.63,-173.4 267,-113.5 273.05,-109.3 279.64,-105.76 286.52,-102.77"/>
<polygon fill="#757575" stroke="#757575" points="288.03,-105.94 296.06,-99.02 285.47,-99.42 288.03,-105.94"/>
</g>
<!-- index.tsx&#45;&gt;main/RoutePath.ts -->
<g id="edge65" class="edge">
<title>index.tsx&#45;&gt;main/RoutePath.ts</title>
<path fill="none" stroke="#757575" d="M120.75,-339.75C134.76,-302.96 183.51,-189.78 267,-146.5 348.8,-104.1 980.11,-118.77 1197.63,-125.17"/>
<polygon fill="#757575" stroke="#757575" points="1197.57,-128.67 1207.67,-125.47 1197.78,-121.67 1197.57,-128.67"/>
</g>
<!-- index.tsx&#45;&gt;components/pages/AccountPage.tsx -->
<g id="edge54" class="edge">
<title>index.tsx&#45;&gt;components/pages/AccountPage.tsx</title>
<path fill="none" stroke="#757575" d="M123.19,-339.94C141.64,-309.24 196.56,-225.41 267,-187.5 270.28,-185.74 273.67,-184.12 277.14,-182.63"/>
<polygon fill="#757575" stroke="#757575" points="278.45,-185.88 286.52,-179.01 275.93,-179.35 278.45,-185.88"/>
</g>
<!-- index.tsx&#45;&gt;components/pages/AuthPage.tsx -->
<g id="edge55" class="edge">
<title>index.tsx&#45;&gt;components/pages/AuthPage.tsx</title>
<path fill="none" stroke="#757575" d="M150.59,-347.75C176.26,-346.95 210.44,-350.54 231,-371.5 304.08,-445.98 201.38,-522.37 267,-603.5 410.53,-780.97 689.31,-834.46 847.5,-850.56"/>
<polygon fill="#757575" stroke="#757575" points="847.45,-854.08 857.75,-851.57 848.14,-847.11 847.45,-854.08"/>
</g>
<!-- index.tsx&#45;&gt;components/pages/HomePage.tsx -->
<g id="edge56" class="edge">
<title>index.tsx&#45;&gt;components/pages/HomePage.tsx</title>
<path fill="none" stroke="#757575" d="M150.64,-354.26C173.84,-356.91 204.94,-361.97 231,-371.5 248.4,-377.86 249.58,-386.19 267,-392.5 274.47,-395.21 282.33,-397.57 290.3,-399.63"/>
<polygon fill="#757575" stroke="#757575" points="289.53,-403.04 300.07,-401.99 291.18,-396.24 289.53,-403.04"/>
</g>
<!-- index.tsx&#45;&gt;components/pages/MessagesPage.tsx -->
<g id="edge57" class="edge">
<title>index.tsx&#45;&gt;components/pages/MessagesPage.tsx</title>
<path fill="none" stroke="#757575" d="M150.67,-350.12C175.07,-350.78 207.58,-355.17 231,-371.5 257.14,-389.72 240.81,-415.35 267,-433.5 269.57,-435.28 272.25,-436.93 275.01,-438.46"/>
<polygon fill="#757575" stroke="#757575" points="273.54,-441.64 284.06,-442.92 276.64,-435.36 273.54,-441.64"/>
</g>
<!-- index.tsx&#45;&gt;components/pages/NotFoundPage.tsx -->
<g id="edge58" class="edge">
<title>index.tsx&#45;&gt;components/pages/NotFoundPage.tsx</title>
<path fill="none" stroke="#757575" d="M150.52,-348.35C175.82,-347.94 209.53,-351.77 231,-371.5 277.35,-414.11 221.36,-465.13 267,-508.5 270.8,-512.11 274.98,-515.28 279.41,-518.05"/>
<polygon fill="#757575" stroke="#757575" points="277.8,-521.16 288.24,-522.91 281.17,-515.03 277.8,-521.16"/>
</g>
<!-- index.tsx&#45;&gt;components/pages/SellPage.tsx -->
<g id="edge59" class="edge">
<title>index.tsx&#45;&gt;components/pages/SellPage.tsx</title>
<path fill="none" stroke="#757575" d="M150.77,-354.12C182.56,-356.54 231.7,-360.3 277.32,-363.78"/>
<polygon fill="#757575" stroke="#757575" points="277.06,-367.27 287.29,-364.54 277.59,-360.29 277.06,-367.27"/>
</g>
<!-- index.tsx&#45;&gt;components/views/CatalogsView.tsx -->
<g id="edge60" class="edge">
<title>index.tsx&#45;&gt;components/views/CatalogsView.tsx</title>
<path fill="none" stroke="#757575" d="M150.61,-348.84C175.62,-348.75 208.92,-352.76 231,-371.5 267.97,-402.88 227.46,-446.43 267,-474.5 312.48,-506.79 467.05,-497.19 518,-474.5 539.85,-464.77 533.35,-446.57 554,-434.5 561.75,-429.97 570.22,-426.23 578.93,-423.14"/>
<polygon fill="#757575" stroke="#757575" points="580.04,-426.46 588.47,-420.04 577.87,-419.8 580.04,-426.46"/>
</g>
<!-- index.tsx&#45;&gt;components/views/EditCatalogView.tsx -->
<g id="edge61" class="edge">
<title>index.tsx&#45;&gt;components/views/EditCatalogView.tsx</title>
<path fill="none" stroke="#757575" d="M150.77,-349.01C177.85,-347.04 217.51,-344.15 256.87,-341.29"/>
<polygon fill="#757575" stroke="#757575" points="257.14,-344.78 266.86,-340.57 256.63,-337.8 257.14,-344.78"/>
</g>
<!-- index.tsx&#45;&gt;components/views/ProductView.tsx -->
<g id="edge62" class="edge">
<title>index.tsx&#45;&gt;components/views/ProductView.tsx</title>
<path fill="none" stroke="#757575" d="M150.62,-347.98C176.13,-347.33 210.09,-351.03 231,-371.5 290.23,-429.49 209.41,-494.88 267,-554.5 271.82,-559.49 277.31,-563.69 283.25,-567.22"/>
<polygon fill="#757575" stroke="#757575" points="281.75,-570.39 292.24,-571.94 285.01,-564.19 281.75,-570.39"/>
</g>
<!-- index.tsx&#45;&gt;components/views/ProfileView.tsx -->
<g id="edge63" class="edge">
<title>index.tsx&#45;&gt;components/views/ProfileView.tsx</title>
<path fill="none" stroke="#757575" d="M150.61,-341.09C180.95,-332.1 226.63,-319.22 267,-310.5 278.09,-308.11 289.79,-305.86 301.4,-303.8"/>
<polygon fill="#757575" stroke="#757575" points="302.31,-307.2 311.56,-302.05 301.11,-300.3 302.31,-307.2"/>
</g>
<!-- index.tsx&#45;&gt;index.css -->
<g id="edge64" class="edge">
<title>index.tsx&#45;&gt;index.css</title>
<path fill="none" stroke="#757575" d="M133.22,-339.89C160.11,-321.81 215.19,-287.19 267,-269.5 292.27,-260.87 321.71,-255.93 345.62,-253.11"/>
<polygon fill="#757575" stroke="#757575" points="346.28,-256.56 355.84,-252 345.52,-249.6 346.28,-256.56"/>
</g>
<!-- reportWebVitals.ts -->
<g id="node44" class="node">
<title>reportWebVitals.ts</title>
<path fill="none" stroke="#cfffac" d="M448.33,-220C448.33,-220 336.67,-220 336.67,-220 332.83,-220 329,-216.17 329,-212.33 329,-212.33 329,-204.67 329,-204.67 329,-200.83 332.83,-197 336.67,-197 336.67,-197 448.33,-197 448.33,-197 452.17,-197 456,-200.83 456,-204.67 456,-204.67 456,-212.33 456,-212.33 456,-216.17 452.17,-220 448.33,-220"/>
<text text-anchor="middle" x="392.5" y="-204.8" font-family="Arial" font-size="14.00" fill="#cfffac">reportWebVitals.ts</text>
</g>
<!-- index.tsx&#45;&gt;reportWebVitals.ts -->
<g id="edge66" class="edge">
<title>index.tsx&#45;&gt;reportWebVitals.ts</title>
<path fill="none" stroke="#757575" d="M126.79,-339.64C149.35,-314.49 206.05,-255.88 267,-228.5 283.03,-221.3 301.24,-216.65 318.69,-213.66"/>
<polygon fill="#757575" stroke="#757575" points="319.51,-217.07 328.86,-212.08 318.44,-210.15 319.51,-217.07"/>
</g>
<!-- react&#45;app&#45;env.d.ts -->
<g id="node45" class="node">
<title>react&#45;app&#45;env.d.ts</title>
<path fill="none" stroke="#cfffac" d="M170.33,-445C170.33,-445 60.67,-445 60.67,-445 56.83,-445 53,-441.17 53,-437.33 53,-437.33 53,-429.67 53,-429.67 53,-425.83 56.83,-422 60.67,-422 60.67,-422 170.33,-422 170.33,-422 174.17,-422 178,-425.83 178,-429.67 178,-429.67 178,-437.33 178,-437.33 178,-441.17 174.17,-445 170.33,-445"/>
<text text-anchor="middle" x="115.5" y="-429.8" font-family="Arial" font-size="14.00" fill="#cfffac">react&#45;app&#45;env.d.ts</text>
</g>
<!-- services/LocalData.ts -->
<g id="node46" class="node">
<title>services/LocalData.ts</title>
<path fill="none" stroke="#cfffac" d="M180.33,-486C180.33,-486 50.67,-486 50.67,-486 46.83,-486 43,-482.17 43,-478.33 43,-478.33 43,-470.67 43,-470.67 43,-466.83 46.83,-463 50.67,-463 50.67,-463 180.33,-463 180.33,-463 184.17,-463 188,-466.83 188,-470.67 188,-470.67 188,-478.33 188,-478.33 188,-482.17 184.17,-486 180.33,-486"/>
<text text-anchor="middle" x="115.5" y="-470.8" font-family="Arial" font-size="14.00" fill="#cfffac">services/LocalData.ts</text>
</g>
<!-- setupTests.ts -->
<g id="node48" class="node">
<title>setupTests.ts</title>
<path fill="none" stroke="#cfffac" d="M155.33,-527C155.33,-527 75.67,-527 75.67,-527 71.83,-527 68,-523.17 68,-519.33 68,-519.33 68,-511.67 68,-511.67 68,-507.83 71.83,-504 75.67,-504 75.67,-504 155.33,-504 155.33,-504 159.17,-504 163,-507.83 163,-511.67 163,-511.67 163,-519.33 163,-519.33 163,-523.17 159.17,-527 155.33,-527"/>
<text text-anchor="middle" x="115.5" y="-511.8" font-family="Arial" font-size="14.00" fill="#cfffac">setupTests.ts</text>
</g>
</g>
</svg>
