<?xml version="1.0" encoding="UTF-8" standalone="no"?>
<!DOCTYPE svg PUBLIC "-//W3C//DTD SVG 1.1//EN"
 "http://www.w3.org/Graphics/SVG/1.1/DTD/svg11.dtd">
<!-- Generated by graphviz version 2.43.0 (0)
 -->
<!-- Title: G Pages: 1 -->
<svg width="1979pt" height="1460pt"
 viewBox="0.00 0.00 1979.20 1460.37" xmlns="http://www.w3.org/2000/svg" xmlns:xlink="http://www.w3.org/1999/xlink">
<g id="graph0" class="graph" transform="scale(1 1) rotate(0) translate(21.6 1438.77)">
<title>G</title>
<polygon fill="#111111" stroke="transparent" points="-21.6,21.6 -21.6,-1438.77 1957.6,-1438.77 1957.6,21.6 -21.6,21.6"/>
<!-- components/AuthContainer.tsx -->
<g id="node1" class="node">
<title>components/AuthContainer.tsx</title>
<path fill="none" stroke="#c6c5fe" d="M786.33,-812.16C786.33,-812.16 600.67,-812.16 600.67,-812.16 596.83,-812.16 593,-808.33 593,-804.5 593,-804.5 593,-796.83 593,-796.83 593,-793 596.83,-789.16 600.67,-789.16 600.67,-789.16 786.33,-789.16 786.33,-789.16 790.17,-789.16 794,-793 794,-796.83 794,-796.83 794,-804.5 794,-804.5 794,-808.33 790.17,-812.16 786.33,-812.16"/>
<text text-anchor="middle" x="693.5" y="-796.96" font-family="Arial" font-size="14.00" fill="#c6c5fe">components/AuthContainer.tsx</text>
</g>
<!-- services/Firebase.ts -->
<g id="node2" class="node">
<title>services/Firebase.ts</title>
<path fill="none" stroke="#c6c5fe" d="M1383.83,-893.16C1383.83,-893.16 1262.17,-893.16 1262.17,-893.16 1258.33,-893.16 1254.5,-889.33 1254.5,-885.5 1254.5,-885.5 1254.5,-877.83 1254.5,-877.83 1254.5,-874 1258.33,-870.16 1262.17,-870.16 1262.17,-870.16 1383.83,-870.16 1383.83,-870.16 1387.67,-870.16 1391.5,-874 1391.5,-877.83 1391.5,-877.83 1391.5,-885.5 1391.5,-885.5 1391.5,-889.33 1387.67,-893.16 1383.83,-893.16"/>
<text text-anchor="middle" x="1323" y="-877.96" font-family="Arial" font-size="14.00" fill="#c6c5fe">services/Firebase.ts</text>
</g>
<!-- components/AuthContainer.tsx&#45;&gt;services/Firebase.ts -->
<g id="edge1" class="edge">
<title>components/AuthContainer.tsx&#45;&gt;services/Firebase.ts</title>
<path fill="none" stroke="#757575" d="M783.74,-812.18C907.03,-828.1 1127.46,-856.55 1244.31,-871.63"/>
<polygon fill="#757575" stroke="#757575" points="1243.9,-875.11 1254.26,-872.92 1244.79,-868.17 1243.9,-875.11"/>
</g>
<!-- types/models.d.ts -->
<g id="node12" class="node">
<title>types/models.d.ts</title>
<path fill="none" stroke="#cfffac" d="M1676.83,-801.16C1676.83,-801.16 1570.17,-801.16 1570.17,-801.16 1566.33,-801.16 1562.5,-797.33 1562.5,-793.5 1562.5,-793.5 1562.5,-785.83 1562.5,-785.83 1562.5,-782 1566.33,-778.16 1570.17,-778.16 1570.17,-778.16 1676.83,-778.16 1676.83,-778.16 1680.67,-778.16 1684.5,-782 1684.5,-785.83 1684.5,-785.83 1684.5,-793.5 1684.5,-793.5 1684.5,-797.33 1680.67,-801.16 1676.83,-801.16"/>
<text text-anchor="middle" x="1623.5" y="-785.96" font-family="Arial" font-size="14.00" fill="#cfffac">types/models.d.ts</text>
</g>
<!-- services/Firebase.ts&#45;&gt;types/models.d.ts -->
<g id="edge94" class="edge">
<title>services/Firebase.ts&#45;&gt;types/models.d.ts</title>
<path fill="none" stroke="#757575" d="M1361.5,-870.1C1415.68,-853.41 1515.82,-822.54 1575.06,-804.28"/>
<polygon fill="#757575" stroke="#757575" points="1576.39,-807.54 1584.92,-801.25 1574.33,-800.85 1576.39,-807.54"/>
</g>
<!-- components/AuthFrom.tsx -->
<g id="node3" class="node">
<title>components/AuthFrom.tsx</title>
<path fill="none" stroke="#ff6c60" d="M1703.83,-1290.16C1703.83,-1290.16 1543.17,-1290.16 1543.17,-1290.16 1539.33,-1290.16 1535.5,-1286.33 1535.5,-1282.5 1535.5,-1282.5 1535.5,-1274.83 1535.5,-1274.83 1535.5,-1271 1539.33,-1267.16 1543.17,-1267.16 1543.17,-1267.16 1703.83,-1267.16 1703.83,-1267.16 1707.67,-1267.16 1711.5,-1271 1711.5,-1274.83 1711.5,-1274.83 1711.5,-1282.5 1711.5,-1282.5 1711.5,-1286.33 1707.67,-1290.16 1703.83,-1290.16"/>
<text text-anchor="middle" x="1623.5" y="-1274.96" font-family="Arial" font-size="14.00" fill="#ff6c60">components/AuthFrom.tsx</text>
</g>
<!-- components/Form.tsx -->
<g id="node4" class="node">
<title>components/Form.tsx</title>
<path fill="none" stroke="#cfffac" d="M1928.33,-1330.16C1928.33,-1330.16 1795.67,-1330.16 1795.67,-1330.16 1791.83,-1330.16 1788,-1326.33 1788,-1322.5 1788,-1322.5 1788,-1314.83 1788,-1314.83 1788,-1311 1791.83,-1307.16 1795.67,-1307.16 1795.67,-1307.16 1928.33,-1307.16 1928.33,-1307.16 1932.17,-1307.16 1936,-1311 1936,-1314.83 1936,-1314.83 1936,-1322.5 1936,-1322.5 1936,-1326.33 1932.17,-1330.16 1928.33,-1330.16"/>
<text text-anchor="middle" x="1862" y="-1314.96" font-family="Arial" font-size="14.00" fill="#cfffac">components/Form.tsx</text>
</g>
<!-- components/AuthFrom.tsx&#45;&gt;components/Form.tsx -->
<g id="edge2" class="edge">
<title>components/AuthFrom.tsx&#45;&gt;components/Form.tsx</title>
<path fill="none" stroke="#757575" d="M1692.59,-1290.18C1720.79,-1294.95 1753.65,-1300.51 1782.83,-1305.44"/>
<polygon fill="#757575" stroke="#757575" points="1782.54,-1308.94 1792.98,-1307.16 1783.71,-1302.04 1782.54,-1308.94"/>
</g>
<!-- components/FormInputGroup.tsx -->
<g id="node5" class="node">
<title>components/FormInputGroup.tsx</title>
<path fill="none" stroke="#ff6c60" d="M1423.33,-1250.16C1423.33,-1250.16 1222.67,-1250.16 1222.67,-1250.16 1218.83,-1250.16 1215,-1246.33 1215,-1242.5 1215,-1242.5 1215,-1234.83 1215,-1234.83 1215,-1231 1218.83,-1227.16 1222.67,-1227.16 1222.67,-1227.16 1423.33,-1227.16 1423.33,-1227.16 1427.17,-1227.16 1431,-1231 1431,-1234.83 1431,-1234.83 1431,-1242.5 1431,-1242.5 1431,-1246.33 1427.17,-1250.16 1423.33,-1250.16"/>
<text text-anchor="middle" x="1323" y="-1234.96" font-family="Arial" font-size="14.00" fill="#ff6c60">components/FormInputGroup.tsx</text>
</g>
<!-- components/AuthFrom.tsx&#45;&gt;components/FormInputGroup.tsx -->
<g id="edge3" class="edge">
<title>components/AuthFrom.tsx&#45;&gt;components/FormInputGroup.tsx</title>
<path fill="none" stroke="#757575" d="M1535.23,-1273.17C1485.91,-1267.48 1425.62,-1259.16 1382.09,-1251.92"/>
<polygon fill="#757575" stroke="#757575" points="1382.4,-1248.43 1371.96,-1250.2 1381.23,-1255.33 1382.4,-1248.43"/>
</g>
<!-- components/FormInputGroup.tsx&#45;&gt;components/AuthFrom.tsx -->
<g id="edge4" class="edge">
<title>components/FormInputGroup.tsx&#45;&gt;components/AuthFrom.tsx</title>
<path fill="none" stroke="#757575" d="M1431.34,-1246.54C1476.26,-1252.03 1526.69,-1259.13 1564.47,-1265.41"/>
<polygon fill="#757575" stroke="#757575" points="1564.33,-1268.94 1574.77,-1267.16 1565.5,-1262.04 1564.33,-1268.94"/>
</g>
<!-- components/FormInputGroup.scss -->
<g id="node6" class="node">
<title>components/FormInputGroup.scss</title>
<path fill="none" stroke="#cfffac" d="M1728.83,-1249.16C1728.83,-1249.16 1518.17,-1249.16 1518.17,-1249.16 1514.33,-1249.16 1510.5,-1245.33 1510.5,-1241.5 1510.5,-1241.5 1510.5,-1233.83 1510.5,-1233.83 1510.5,-1230 1514.33,-1226.16 1518.17,-1226.16 1518.17,-1226.16 1728.83,-1226.16 1728.83,-1226.16 1732.67,-1226.16 1736.5,-1230 1736.5,-1233.83 1736.5,-1233.83 1736.5,-1241.5 1736.5,-1241.5 1736.5,-1245.33 1732.67,-1249.16 1728.83,-1249.16"/>
<text text-anchor="middle" x="1623.5" y="-1233.96" font-family="Arial" font-size="14.00" fill="#cfffac">components/FormInputGroup.scss</text>
</g>
<!-- components/FormInputGroup.tsx&#45;&gt;components/FormInputGroup.scss -->
<g id="edge5" class="edge">
<title>components/FormInputGroup.tsx&#45;&gt;components/FormInputGroup.scss</title>
<path fill="none" stroke="#757575" d="M1431.34,-1238.3C1453.69,-1238.23 1477.41,-1238.15 1500.25,-1238.07"/>
<polygon fill="#757575" stroke="#757575" points="1500.33,-1241.57 1510.32,-1238.04 1500.31,-1234.57 1500.33,-1241.57"/>
</g>
<!-- components/Friends.tsx -->
<g id="node7" class="node">
<title>components/Friends.tsx</title>
<path fill="none" stroke="#cfffac" d="M188.33,-1136.16C188.33,-1136.16 42.67,-1136.16 42.67,-1136.16 38.83,-1136.16 35,-1132.33 35,-1128.5 35,-1128.5 35,-1120.83 35,-1120.83 35,-1117 38.83,-1113.16 42.67,-1113.16 42.67,-1113.16 188.33,-1113.16 188.33,-1113.16 192.17,-1113.16 196,-1117 196,-1120.83 196,-1120.83 196,-1128.5 196,-1128.5 196,-1132.33 192.17,-1136.16 188.33,-1136.16"/>
<text text-anchor="middle" x="115.5" y="-1120.96" font-family="Arial" font-size="14.00" fill="#cfffac">components/Friends.tsx</text>
</g>
<!-- components/ModalForm.scss -->
<g id="node8" class="node">
<title>components/ModalForm.scss</title>
<path fill="none" stroke="#cfffac" d="M1412.83,-742.16C1412.83,-742.16 1233.17,-742.16 1233.17,-742.16 1229.33,-742.16 1225.5,-738.33 1225.5,-734.5 1225.5,-734.5 1225.5,-726.83 1225.5,-726.83 1225.5,-723 1229.33,-719.16 1233.17,-719.16 1233.17,-719.16 1412.83,-719.16 1412.83,-719.16 1416.67,-719.16 1420.5,-723 1420.5,-726.83 1420.5,-726.83 1420.5,-734.5 1420.5,-734.5 1420.5,-738.33 1416.67,-742.16 1412.83,-742.16"/>
<text text-anchor="middle" x="1323" y="-726.96" font-family="Arial" font-size="14.00" fill="#cfffac">components/ModalForm.scss</text>
</g>
<!-- components/ModalForm.tsx -->
<g id="node9" class="node">
<title>components/ModalForm.tsx</title>
<path fill="none" stroke="#c6c5fe" d="M1095.33,-741.16C1095.33,-741.16 925.67,-741.16 925.67,-741.16 921.83,-741.16 918,-737.33 918,-733.5 918,-733.5 918,-725.83 918,-725.83 918,-722 921.83,-718.16 925.67,-718.16 925.67,-718.16 1095.33,-718.16 1095.33,-718.16 1099.17,-718.16 1103,-722 1103,-725.83 1103,-725.83 1103,-733.5 1103,-733.5 1103,-737.33 1099.17,-741.16 1095.33,-741.16"/>
<text text-anchor="middle" x="1010.5" y="-725.96" font-family="Arial" font-size="14.00" fill="#c6c5fe">components/ModalForm.tsx</text>
</g>
<!-- components/ModalForm.tsx&#45;&gt;components/ModalForm.scss -->
<g id="edge6" class="edge">
<title>components/ModalForm.tsx&#45;&gt;components/ModalForm.scss</title>
<path fill="none" stroke="#757575" d="M1103.4,-729.96C1138.54,-730.07 1178.91,-730.2 1215.32,-730.32"/>
<polygon fill="#757575" stroke="#757575" points="1215.47,-733.82 1225.48,-730.35 1215.49,-726.82 1215.47,-733.82"/>
</g>
<!-- components/ProductForm.tsx -->
<g id="node10" class="node">
<title>components/ProductForm.tsx</title>
<path fill="none" stroke="#c6c5fe" d="M1099.83,-1091.16C1099.83,-1091.16 921.17,-1091.16 921.17,-1091.16 917.33,-1091.16 913.5,-1087.33 913.5,-1083.5 913.5,-1083.5 913.5,-1075.83 913.5,-1075.83 913.5,-1072 917.33,-1068.16 921.17,-1068.16 921.17,-1068.16 1099.83,-1068.16 1099.83,-1068.16 1103.67,-1068.16 1107.5,-1072 1107.5,-1075.83 1107.5,-1075.83 1107.5,-1083.5 1107.5,-1083.5 1107.5,-1087.33 1103.67,-1091.16 1099.83,-1091.16"/>
<text text-anchor="middle" x="1010.5" y="-1075.96" font-family="Arial" font-size="14.00" fill="#c6c5fe">components/ProductForm.tsx</text>
</g>
<!-- components/ProductForm.tsx&#45;&gt;components/Form.tsx -->
<g id="edge7" class="edge">
<title>components/ProductForm.tsx&#45;&gt;components/Form.tsx</title>
<path fill="none" stroke="#757575" d="M1107.51,-1076.38C1295.63,-1070.74 1699.08,-1062.84 1752,-1096.66 1823.69,-1142.48 1849.71,-1250.38 1857.8,-1296.8"/>
<polygon fill="#757575" stroke="#757575" points="1854.39,-1297.65 1859.45,-1306.96 1861.3,-1296.53 1854.39,-1297.65"/>
</g>
<!-- components/ProductForm.tsx&#45;&gt;components/FormInputGroup.tsx -->
<g id="edge8" class="edge">
<title>components/ProductForm.tsx&#45;&gt;components/FormInputGroup.tsx</title>
<path fill="none" stroke="#757575" d="M1022.05,-1091.32C1047.44,-1118.56 1115.2,-1186.43 1187,-1217.66 1192.78,-1220.18 1198.82,-1222.4 1204.99,-1224.35"/>
<polygon fill="#757575" stroke="#757575" points="1204.21,-1227.77 1214.79,-1227.22 1206.18,-1221.05 1204.21,-1227.77"/>
</g>
<!-- services/RestService.ts -->
<g id="node11" class="node">
<title>services/RestService.ts</title>
<path fill="none" stroke="#c6c5fe" d="M1393.83,-662.16C1393.83,-662.16 1252.17,-662.16 1252.17,-662.16 1248.33,-662.16 1244.5,-658.33 1244.5,-654.5 1244.5,-654.5 1244.5,-646.83 1244.5,-646.83 1244.5,-643 1248.33,-639.16 1252.17,-639.16 1252.17,-639.16 1393.83,-639.16 1393.83,-639.16 1397.67,-639.16 1401.5,-643 1401.5,-646.83 1401.5,-646.83 1401.5,-654.5 1401.5,-654.5 1401.5,-658.33 1397.67,-662.16 1393.83,-662.16"/>
<text text-anchor="middle" x="1323" y="-646.96" font-family="Arial" font-size="14.00" fill="#c6c5fe">services/RestService.ts</text>
</g>
<!-- components/ProductForm.tsx&#45;&gt;services/RestService.ts -->
<g id="edge9" class="edge">
<title>components/ProductForm.tsx&#45;&gt;services/RestService.ts</title>
<path fill="none" stroke="#757575" d="M1040.19,-1068.09C1072.89,-1053.27 1125.15,-1024.31 1151,-981.66 1214.22,-877.38 1113.67,-807.09 1187,-709.66 1203.23,-688.1 1229.01,-674.29 1253.71,-665.51"/>
<polygon fill="#757575" stroke="#757575" points="1255.08,-668.74 1263.46,-662.27 1252.87,-662.1 1255.08,-668.74"/>
</g>
<!-- components/ProductForm.tsx&#45;&gt;types/models.d.ts -->
<g id="edge10" class="edge">
<title>components/ProductForm.tsx&#45;&gt;types/models.d.ts</title>
<path fill="none" stroke="#757575" d="M1107.68,-1070.87C1230.17,-1059.04 1429.56,-1037.43 1459,-1019.66 1542.84,-969.06 1595.43,-857.26 1614.46,-810.68"/>
<polygon fill="#757575" stroke="#757575" points="1617.75,-811.87 1618.2,-801.28 1611.25,-809.28 1617.75,-811.87"/>
</g>
<!-- services/RestService.ts&#45;&gt;types/models.d.ts -->
<g id="edge96" class="edge">
<title>services/RestService.ts&#45;&gt;types/models.d.ts</title>
<path fill="none" stroke="#757575" d="M1401.66,-659.94C1420.87,-663.76 1441.06,-669.13 1459,-676.66 1515.71,-700.47 1572.71,-745.91 1602.11,-771.31"/>
<polygon fill="#757575" stroke="#757575" points="1599.81,-773.95 1609.64,-777.91 1604.42,-768.69 1599.81,-773.95"/>
</g>
<!-- services/products.json.ts -->
<g id="node55" class="node">
<title>services/products.json.ts</title>
<path fill="none" stroke="#cfffac" d="M1697.83,-662.16C1697.83,-662.16 1549.17,-662.16 1549.17,-662.16 1545.33,-662.16 1541.5,-658.33 1541.5,-654.5 1541.5,-654.5 1541.5,-646.83 1541.5,-646.83 1541.5,-643 1545.33,-639.16 1549.17,-639.16 1549.17,-639.16 1697.83,-639.16 1697.83,-639.16 1701.67,-639.16 1705.5,-643 1705.5,-646.83 1705.5,-646.83 1705.5,-654.5 1705.5,-654.5 1705.5,-658.33 1701.67,-662.16 1697.83,-662.16"/>
<text text-anchor="middle" x="1623.5" y="-646.96" font-family="Arial" font-size="14.00" fill="#cfffac">services/products.json.ts</text>
</g>
<!-- services/RestService.ts&#45;&gt;services/products.json.ts -->
<g id="edge95" class="edge">
<title>services/RestService.ts&#45;&gt;services/products.json.ts</title>
<path fill="none" stroke="#757575" d="M1401.65,-650.66C1441.3,-650.66 1489.8,-650.66 1531.24,-650.66"/>
<polygon fill="#757575" stroke="#757575" points="1531.33,-654.16 1541.33,-650.66 1531.33,-647.16 1531.33,-654.16"/>
</g>
<!-- components/ProductFormModal.tsx -->
<g id="node13" class="node">
<title>components/ProductFormModal.tsx</title>
<path fill="none" stroke="#c6c5fe" d="M801.83,-732.16C801.83,-732.16 585.17,-732.16 585.17,-732.16 581.33,-732.16 577.5,-728.33 577.5,-724.5 577.5,-724.5 577.5,-716.83 577.5,-716.83 577.5,-713 581.33,-709.16 585.17,-709.16 585.17,-709.16 801.83,-709.16 801.83,-709.16 805.67,-709.16 809.5,-713 809.5,-716.83 809.5,-716.83 809.5,-724.5 809.5,-724.5 809.5,-728.33 805.67,-732.16 801.83,-732.16"/>
<text text-anchor="middle" x="693.5" y="-716.96" font-family="Arial" font-size="14.00" fill="#c6c5fe">components/ProductFormModal.tsx</text>
</g>
<!-- components/ProductFormModal.tsx&#45;&gt;components/ModalForm.tsx -->
<g id="edge11" class="edge">
<title>components/ProductFormModal.tsx&#45;&gt;components/ModalForm.tsx</title>
<path fill="none" stroke="#757575" d="M809.56,-723.95C841.75,-724.87 876.5,-725.86 907.86,-726.76"/>
<polygon fill="#757575" stroke="#757575" points="907.82,-730.26 917.91,-727.05 908.02,-723.26 907.82,-730.26"/>
</g>
<!-- components/ProductFormModal.tsx&#45;&gt;components/ProductForm.tsx -->
<g id="edge12" class="edge">
<title>components/ProductFormModal.tsx&#45;&gt;components/ProductForm.tsx</title>
<path fill="none" stroke="#757575" d="M754.82,-732.25C782.97,-740.73 814.48,-755.2 834,-779.66 890.88,-850.94 820.99,-904.76 870,-981.66 894.54,-1020.17 940.16,-1047.85 972.55,-1063.78"/>
<polygon fill="#757575" stroke="#757575" points="971.18,-1067 981.72,-1068.15 974.2,-1060.69 971.18,-1067"/>
</g>
<!-- components/ProductFormModal.tsx&#45;&gt;types/models.d.ts -->
<g id="edge13" class="edge">
<title>components/ProductFormModal.tsx&#45;&gt;types/models.d.ts</title>
<path fill="none" stroke="#757575" d="M753.98,-732.17C787.86,-738.3 831.16,-745.43 870,-749.66 1120.03,-776.88 1418.89,-785.78 1552.25,-788.52"/>
<polygon fill="#757575" stroke="#757575" points="1552.26,-792.02 1562.33,-788.72 1552.4,-785.02 1552.26,-792.02"/>
</g>
<!-- components/ProductList.tsx -->
<g id="node14" class="node">
<title>components/ProductList.tsx</title>
<path fill="none" stroke="#c6c5fe" d="M777.33,-582.16C777.33,-582.16 609.67,-582.16 609.67,-582.16 605.83,-582.16 602,-578.33 602,-574.5 602,-574.5 602,-566.83 602,-566.83 602,-563 605.83,-559.16 609.67,-559.16 609.67,-559.16 777.33,-559.16 777.33,-559.16 781.17,-559.16 785,-563 785,-566.83 785,-566.83 785,-574.5 785,-574.5 785,-578.33 781.17,-582.16 777.33,-582.16"/>
<text text-anchor="middle" x="693.5" y="-566.96" font-family="Arial" font-size="14.00" fill="#c6c5fe">components/ProductList.tsx</text>
</g>
<!-- components/ProductList.tsx&#45;&gt;types/models.d.ts -->
<g id="edge14" class="edge">
<title>components/ProductList.tsx&#45;&gt;types/models.d.ts</title>
<path fill="none" stroke="#757575" d="M782.49,-582.18C799.61,-584.73 817.4,-587.6 834,-590.66 992.19,-619.88 1028.81,-641.44 1187,-670.66 1307.09,-692.84 1342.28,-673.72 1459,-709.66 1509.3,-725.15 1563.36,-754.35 1594.99,-772.86"/>
<polygon fill="#757575" stroke="#757575" points="1593.29,-775.92 1603.68,-778.01 1596.86,-769.9 1593.29,-775.92"/>
</g>
<!-- utils/Array.ts -->
<g id="node15" class="node">
<title>utils/Array.ts</title>
<path fill="none" stroke="#cfffac" d="M1047.83,-464.16C1047.83,-464.16 973.17,-464.16 973.17,-464.16 969.33,-464.16 965.5,-460.33 965.5,-456.5 965.5,-456.5 965.5,-448.83 965.5,-448.83 965.5,-445 969.33,-441.16 973.17,-441.16 973.17,-441.16 1047.83,-441.16 1047.83,-441.16 1051.67,-441.16 1055.5,-445 1055.5,-448.83 1055.5,-448.83 1055.5,-456.5 1055.5,-456.5 1055.5,-460.33 1051.67,-464.16 1047.83,-464.16"/>
<text text-anchor="middle" x="1010.5" y="-448.96" font-family="Arial" font-size="14.00" fill="#cfffac">utils/Array.ts</text>
</g>
<!-- components/ProductList.tsx&#45;&gt;utils/Array.ts -->
<g id="edge15" class="edge">
<title>components/ProductList.tsx&#45;&gt;utils/Array.ts</title>
<path fill="none" stroke="#757575" d="M725.28,-559.13C782.44,-537.72 904.98,-491.82 968.87,-467.88"/>
<polygon fill="#757575" stroke="#757575" points="970.46,-471.02 978.6,-464.24 968.01,-464.47 970.46,-471.02"/>
</g>
<!-- components/containers/App.test.tsx -->
<g id="node16" class="node">
<title>components/containers/App.test.tsx</title>
<path fill="none" stroke="#c6c5fe" d="M223.33,-1095.16C223.33,-1095.16 7.67,-1095.16 7.67,-1095.16 3.83,-1095.16 0,-1091.33 0,-1087.5 0,-1087.5 0,-1079.83 0,-1079.83 0,-1076 3.83,-1072.16 7.67,-1072.16 7.67,-1072.16 223.33,-1072.16 223.33,-1072.16 227.17,-1072.16 231,-1076 231,-1079.83 231,-1079.83 231,-1087.5 231,-1087.5 231,-1091.33 227.17,-1095.16 223.33,-1095.16"/>
<text text-anchor="middle" x="115.5" y="-1079.96" font-family="Arial" font-size="14.00" fill="#c6c5fe">components/containers/App.test.tsx</text>
</g>
<!-- components/containers/App.tsx -->
<g id="node17" class="node">
<title>components/containers/App.tsx</title>
<path fill="none" stroke="#c6c5fe" d="M487.33,-1095.16C487.33,-1095.16 296.67,-1095.16 296.67,-1095.16 292.83,-1095.16 289,-1091.33 289,-1087.5 289,-1087.5 289,-1079.83 289,-1079.83 289,-1076 292.83,-1072.16 296.67,-1072.16 296.67,-1072.16 487.33,-1072.16 487.33,-1072.16 491.17,-1072.16 495,-1076 495,-1079.83 495,-1079.83 495,-1087.5 495,-1087.5 495,-1091.33 491.17,-1095.16 487.33,-1095.16"/>
<text text-anchor="middle" x="392" y="-1079.96" font-family="Arial" font-size="14.00" fill="#c6c5fe">components/containers/App.tsx</text>
</g>
<!-- components/containers/App.test.tsx&#45;&gt;components/containers/App.tsx -->
<g id="edge16" class="edge">
<title>components/containers/App.test.tsx&#45;&gt;components/containers/App.tsx</title>
<path fill="none" stroke="#757575" d="M231.32,-1083.66C246.99,-1083.66 263.06,-1083.66 278.68,-1083.66"/>
<polygon fill="#757575" stroke="#757575" points="278.87,-1087.16 288.87,-1083.66 278.87,-1080.16 278.87,-1087.16"/>
</g>
<!-- components/menus/RootMenu.tsx -->
<g id="node18" class="node">
<title>components/menus/RootMenu.tsx</title>
<path fill="none" stroke="#c6c5fe" d="M797.83,-1113.16C797.83,-1113.16 589.17,-1113.16 589.17,-1113.16 585.33,-1113.16 581.5,-1109.33 581.5,-1105.5 581.5,-1105.5 581.5,-1097.83 581.5,-1097.83 581.5,-1094 585.33,-1090.16 589.17,-1090.16 589.17,-1090.16 797.83,-1090.16 797.83,-1090.16 801.67,-1090.16 805.5,-1094 805.5,-1097.83 805.5,-1097.83 805.5,-1105.5 805.5,-1105.5 805.5,-1109.33 801.67,-1113.16 797.83,-1113.16"/>
<text text-anchor="middle" x="693.5" y="-1097.96" font-family="Arial" font-size="14.00" fill="#c6c5fe">components/menus/RootMenu.tsx</text>
</g>
<!-- components/containers/App.tsx&#45;&gt;components/menus/RootMenu.tsx -->
<g id="edge17" class="edge">
<title>components/containers/App.tsx&#45;&gt;components/menus/RootMenu.tsx</title>
<path fill="none" stroke="#757575" d="M495.23,-1089.81C519.58,-1091.27 545.81,-1092.85 570.93,-1094.36"/>
<polygon fill="#757575" stroke="#757575" points="571.05,-1097.87 581.24,-1094.98 571.47,-1090.88 571.05,-1097.87"/>
</g>
<!-- main/RoutePath.ts -->
<g id="node19" class="node">
<title>main/RoutePath.ts</title>
<path fill="none" stroke="#c6c5fe" d="M1379.33,-1011.16C1379.33,-1011.16 1266.67,-1011.16 1266.67,-1011.16 1262.83,-1011.16 1259,-1007.33 1259,-1003.5 1259,-1003.5 1259,-995.83 1259,-995.83 1259,-992 1262.83,-988.16 1266.67,-988.16 1266.67,-988.16 1379.33,-988.16 1379.33,-988.16 1383.17,-988.16 1387,-992 1387,-995.83 1387,-995.83 1387,-1003.5 1387,-1003.5 1387,-1007.33 1383.17,-1011.16 1379.33,-1011.16"/>
<text text-anchor="middle" x="1323" y="-995.96" font-family="Arial" font-size="14.00" fill="#c6c5fe">main/RoutePath.ts</text>
</g>
<!-- components/containers/App.tsx&#45;&gt;main/RoutePath.ts -->
<g id="edge18" class="edge">
<title>components/containers/App.tsx&#45;&gt;main/RoutePath.ts</title>
<path fill="none" stroke="#757575" d="M495.08,-1074.63C640.66,-1061.72 916.3,-1037.17 1151,-1015.66 1183.01,-1012.73 1218.39,-1009.43 1248.62,-1006.59"/>
<polygon fill="#757575" stroke="#757575" points="1249.03,-1010.07 1258.66,-1005.65 1248.38,-1003.1 1249.03,-1010.07"/>
</g>
<!-- types/types.d.ts -->
<g id="node22" class="node">
<title>types/types.d.ts</title>
<path fill="none" stroke="#cfffac" d="M1909.33,-603.16C1909.33,-603.16 1814.67,-603.16 1814.67,-603.16 1810.83,-603.16 1807,-599.33 1807,-595.5 1807,-595.5 1807,-587.83 1807,-587.83 1807,-584 1810.83,-580.16 1814.67,-580.16 1814.67,-580.16 1909.33,-580.16 1909.33,-580.16 1913.17,-580.16 1917,-584 1917,-587.83 1917,-587.83 1917,-595.5 1917,-595.5 1917,-599.33 1913.17,-603.16 1909.33,-603.16"/>
<text text-anchor="middle" x="1862" y="-587.96" font-family="Arial" font-size="14.00" fill="#cfffac">types/types.d.ts</text>
</g>
<!-- components/menus/RootMenu.tsx&#45;&gt;types/types.d.ts -->
<g id="edge37" class="edge">
<title>components/menus/RootMenu.tsx&#45;&gt;types/types.d.ts</title>
<path fill="none" stroke="#757575" d="M782.29,-1113.2C810.28,-1116.47 841.4,-1119.67 870,-1121.66 967.78,-1128.47 1676.21,-1199.82 1752,-1137.66 1835.23,-1069.41 1856.14,-706.68 1860.17,-613.5"/>
<polygon fill="#757575" stroke="#757575" points="1863.68,-613.42 1860.59,-603.28 1856.68,-613.13 1863.68,-613.42"/>
</g>
<!-- components/menus/DropdownMenu.tsx -->
<g id="node29" class="node">
<title>components/menus/DropdownMenu.tsx</title>
<path fill="none" stroke="#c6c5fe" d="M1744.33,-1129.16C1744.33,-1129.16 1502.67,-1129.16 1502.67,-1129.16 1498.83,-1129.16 1495,-1125.33 1495,-1121.5 1495,-1121.5 1495,-1113.83 1495,-1113.83 1495,-1110 1498.83,-1106.16 1502.67,-1106.16 1502.67,-1106.16 1744.33,-1106.16 1744.33,-1106.16 1748.17,-1106.16 1752,-1110 1752,-1113.83 1752,-1113.83 1752,-1121.5 1752,-1121.5 1752,-1125.33 1748.17,-1129.16 1744.33,-1129.16"/>
<text text-anchor="middle" x="1623.5" y="-1113.96" font-family="Arial" font-size="14.00" fill="#c6c5fe">components/menus/DropdownMenu.tsx</text>
</g>
<!-- components/menus/RootMenu.tsx&#45;&gt;components/menus/DropdownMenu.tsx -->
<g id="edge35" class="edge">
<title>components/menus/RootMenu.tsx&#45;&gt;components/menus/DropdownMenu.tsx</title>
<path fill="none" stroke="#757575" d="M805.52,-1103.58C975.46,-1106.51 1299.8,-1112.1 1484.59,-1115.28"/>
<polygon fill="#757575" stroke="#757575" points="1484.59,-1118.78 1494.65,-1115.46 1484.71,-1111.79 1484.59,-1118.78"/>
</g>
<!-- main/MenuConfig.ts -->
<g id="node30" class="node">
<title>main/MenuConfig.ts</title>
<path fill="none" stroke="#c6c5fe" d="M1071.83,-973.16C1071.83,-973.16 949.17,-973.16 949.17,-973.16 945.33,-973.16 941.5,-969.33 941.5,-965.5 941.5,-965.5 941.5,-957.83 941.5,-957.83 941.5,-954 945.33,-950.16 949.17,-950.16 949.17,-950.16 1071.83,-950.16 1071.83,-950.16 1075.67,-950.16 1079.5,-954 1079.5,-957.83 1079.5,-957.83 1079.5,-965.5 1079.5,-965.5 1079.5,-969.33 1075.67,-973.16 1071.83,-973.16"/>
<text text-anchor="middle" x="1010.5" y="-957.96" font-family="Arial" font-size="14.00" fill="#c6c5fe">main/MenuConfig.ts</text>
</g>
<!-- components/menus/RootMenu.tsx&#45;&gt;main/MenuConfig.ts -->
<g id="edge36" class="edge">
<title>components/menus/RootMenu.tsx&#45;&gt;main/MenuConfig.ts</title>
<path fill="none" stroke="#757575" d="M720.55,-1090.09C776.91,-1065.04 910.25,-1005.77 974.15,-977.37"/>
<polygon fill="#757575" stroke="#757575" points="975.71,-980.51 983.42,-973.25 972.86,-974.11 975.71,-980.51"/>
</g>
<!-- main/RoutePath.ts&#45;&gt;types/types.d.ts -->
<g id="edge91" class="edge">
<title>main/RoutePath.ts&#45;&gt;types/types.d.ts</title>
<path fill="none" stroke="#757575" d="M1365.08,-1011.18C1448.28,-1031.82 1638.39,-1064.92 1752,-973.66 1810.05,-927.03 1847.72,-687.32 1858.09,-613.4"/>
<polygon fill="#757575" stroke="#757575" points="1861.57,-613.75 1859.47,-603.37 1854.64,-612.8 1861.57,-613.75"/>
</g>
<!-- components/forms/CatalogForm.tsx -->
<g id="node20" class="node">
<title>components/forms/CatalogForm.tsx</title>
<path fill="none" stroke="#c6c5fe" d="M1431.83,-582.16C1431.83,-582.16 1214.17,-582.16 1214.17,-582.16 1210.33,-582.16 1206.5,-578.33 1206.5,-574.5 1206.5,-574.5 1206.5,-566.83 1206.5,-566.83 1206.5,-563 1210.33,-559.16 1214.17,-559.16 1214.17,-559.16 1431.83,-559.16 1431.83,-559.16 1435.67,-559.16 1439.5,-563 1439.5,-566.83 1439.5,-566.83 1439.5,-574.5 1439.5,-574.5 1439.5,-578.33 1435.67,-582.16 1431.83,-582.16"/>
<text text-anchor="middle" x="1323" y="-566.96" font-family="Arial" font-size="14.00" fill="#c6c5fe">components/forms/CatalogForm.tsx</text>
</g>
<!-- types/dto.d.ts -->
<g id="node21" class="node">
<title>types/dto.d.ts</title>
<path fill="none" stroke="#c6c5fe" d="M1664.33,-348.16C1664.33,-348.16 1582.67,-348.16 1582.67,-348.16 1578.83,-348.16 1575,-344.33 1575,-340.5 1575,-340.5 1575,-332.83 1575,-332.83 1575,-329 1578.83,-325.16 1582.67,-325.16 1582.67,-325.16 1664.33,-325.16 1664.33,-325.16 1668.17,-325.16 1672,-329 1672,-332.83 1672,-332.83 1672,-340.5 1672,-340.5 1672,-344.33 1668.17,-348.16 1664.33,-348.16"/>
<text text-anchor="middle" x="1623.5" y="-332.96" font-family="Arial" font-size="14.00" fill="#c6c5fe">types/dto.d.ts</text>
</g>
<!-- components/forms/CatalogForm.tsx&#45;&gt;types/dto.d.ts -->
<g id="edge19" class="edge">
<title>components/forms/CatalogForm.tsx&#45;&gt;types/dto.d.ts</title>
<path fill="none" stroke="#757575" d="M1426.47,-559.1C1437.9,-555.46 1449.01,-550.75 1459,-544.66 1535.97,-497.74 1591.02,-400.51 1612.52,-357.69"/>
<polygon fill="#757575" stroke="#757575" points="1615.77,-359.01 1617.04,-348.49 1609.49,-355.92 1615.77,-359.01"/>
</g>
<!-- components/forms/CatalogForm.tsx&#45;&gt;types/types.d.ts -->
<g id="edge20" class="edge">
<title>components/forms/CatalogForm.tsx&#45;&gt;types/types.d.ts</title>
<path fill="none" stroke="#757575" d="M1439.53,-575.18C1548.65,-579.45 1708.35,-585.69 1796.53,-589.14"/>
<polygon fill="#757575" stroke="#757575" points="1796.53,-592.64 1806.66,-589.54 1796.8,-585.65 1796.53,-592.64"/>
</g>
<!-- types/dto.d.ts&#45;&gt;types/types.d.ts -->
<g id="edge97" class="edge">
<title>types/dto.d.ts&#45;&gt;types/types.d.ts</title>
<path fill="none" stroke="#757575" d="M1662.4,-348.25C1689.84,-358.15 1726.45,-374.63 1752,-398.66 1805.56,-449.02 1839.88,-531.7 1853.85,-570.41"/>
<polygon fill="#757575" stroke="#757575" points="1850.64,-571.83 1857.25,-580.11 1857.24,-569.51 1850.64,-571.83"/>
</g>
<!-- components/forms/ProductForm.tsx -->
<g id="node23" class="node">
<title>components/forms/ProductForm.tsx</title>
<path fill="none" stroke="#c6c5fe" d="M1119.33,-232.16C1119.33,-232.16 901.67,-232.16 901.67,-232.16 897.83,-232.16 894,-228.33 894,-224.5 894,-224.5 894,-216.83 894,-216.83 894,-213 897.83,-209.16 901.67,-209.16 901.67,-209.16 1119.33,-209.16 1119.33,-209.16 1123.17,-209.16 1127,-213 1127,-216.83 1127,-216.83 1127,-224.5 1127,-224.5 1127,-228.33 1123.17,-232.16 1119.33,-232.16"/>
<text text-anchor="middle" x="1010.5" y="-216.96" font-family="Arial" font-size="14.00" fill="#c6c5fe">components/forms/ProductForm.tsx</text>
</g>
<!-- components/forms/ProductForm.tsx&#45;&gt;services/RestService.ts -->
<g id="edge22" class="edge">
<title>components/forms/ProductForm.tsx&#45;&gt;services/RestService.ts</title>
<path fill="none" stroke="#757575" d="M1021.7,-232.59C1047.46,-263.37 1115.66,-348.86 1151,-431.66 1179.44,-498.3 1141.01,-534.67 1187,-590.66 1205.04,-612.63 1232.77,-626.82 1258.41,-635.86"/>
<polygon fill="#757575" stroke="#757575" points="1257.52,-639.25 1268.11,-639.07 1259.72,-632.6 1257.52,-639.25"/>
</g>
<!-- components/forms/ProductForm.tsx&#45;&gt;types/dto.d.ts -->
<g id="edge23" class="edge">
<title>components/forms/ProductForm.tsx&#45;&gt;types/dto.d.ts</title>
<path fill="none" stroke="#757575" d="M1127.42,-213.52C1219.18,-211.15 1349.64,-215.14 1459,-246.66 1512.56,-262.1 1567.96,-297.43 1598.55,-318.94"/>
<polygon fill="#757575" stroke="#757575" points="1596.69,-321.91 1606.86,-324.88 1600.75,-316.22 1596.69,-321.91"/>
</g>
<!-- components/forms/ProductForm.tsx&#45;&gt;types/types.d.ts -->
<g id="edge24" class="edge">
<title>components/forms/ProductForm.tsx&#45;&gt;types/types.d.ts</title>
<path fill="none" stroke="#757575" d="M1026.33,-208.98C1055.23,-187.05 1121.94,-140.44 1187,-123.66 1309.03,-92.18 1659.02,-87.59 1752,-172.66 1812.26,-227.79 1848.76,-491.25 1858.41,-569.62"/>
<polygon fill="#757575" stroke="#757575" points="1854.97,-570.29 1859.64,-579.8 1861.92,-569.45 1854.97,-570.29"/>
</g>
<!-- components/forms/ProductFormConfig.tsx -->
<g id="node24" class="node">
<title>components/forms/ProductFormConfig.tsx</title>
<path fill="none" stroke="#c6c5fe" d="M1451.33,-156.16C1451.33,-156.16 1194.67,-156.16 1194.67,-156.16 1190.83,-156.16 1187,-152.33 1187,-148.5 1187,-148.5 1187,-140.83 1187,-140.83 1187,-137 1190.83,-133.16 1194.67,-133.16 1194.67,-133.16 1451.33,-133.16 1451.33,-133.16 1455.17,-133.16 1459,-137 1459,-140.83 1459,-140.83 1459,-148.5 1459,-148.5 1459,-152.33 1455.17,-156.16 1451.33,-156.16"/>
<text text-anchor="middle" x="1323" y="-140.96" font-family="Arial" font-size="14.00" fill="#c6c5fe">components/forms/ProductFormConfig.tsx</text>
</g>
<!-- components/forms/ProductForm.tsx&#45;&gt;components/forms/ProductFormConfig.tsx -->
<g id="edge21" class="edge">
<title>components/forms/ProductForm.tsx&#45;&gt;components/forms/ProductFormConfig.tsx</title>
<path fill="none" stroke="#757575" d="M1058.66,-209.12C1113.99,-195.58 1205.68,-173.13 1264.96,-158.62"/>
<polygon fill="#757575" stroke="#757575" points="1266.03,-161.97 1274.91,-156.19 1264.36,-155.17 1266.03,-161.97"/>
</g>
<!-- components/forms/ProductFormConfig.tsx&#45;&gt;types/dto.d.ts -->
<g id="edge25" class="edge">
<title>components/forms/ProductFormConfig.tsx&#45;&gt;types/dto.d.ts</title>
<path fill="none" stroke="#757575" d="M1431.56,-156.25C1441.33,-159.94 1450.67,-164.66 1459,-170.66 1485.48,-189.74 1473.87,-209.79 1495,-234.66 1524.64,-269.56 1567.64,-301.02 1595.33,-319.5"/>
<polygon fill="#757575" stroke="#757575" points="1593.47,-322.46 1603.75,-325.03 1597.31,-316.61 1593.47,-322.46"/>
</g>
<!-- components/forms/ProductFormConfig.tsx&#45;&gt;types/types.d.ts -->
<g id="edge26" class="edge">
<title>components/forms/ProductFormConfig.tsx&#45;&gt;types/types.d.ts</title>
<path fill="none" stroke="#757575" d="M1408.26,-156.24C1504.64,-173.87 1660.86,-216.58 1752,-315.66 1822.36,-392.15 1849.52,-519.49 1857.87,-570.03"/>
<polygon fill="#757575" stroke="#757575" points="1854.44,-570.79 1859.45,-580.13 1861.36,-569.7 1854.44,-570.79"/>
</g>
<!-- components/forms/ResetPasswordForm.tsx -->
<g id="node25" class="node">
<title>components/forms/ResetPasswordForm.tsx</title>
<path fill="none" stroke="#c6c5fe" d="M1143.33,-1290.16C1143.33,-1290.16 877.67,-1290.16 877.67,-1290.16 873.83,-1290.16 870,-1286.33 870,-1282.5 870,-1282.5 870,-1274.83 870,-1274.83 870,-1271 873.83,-1267.16 877.67,-1267.16 877.67,-1267.16 1143.33,-1267.16 1143.33,-1267.16 1147.17,-1267.16 1151,-1271 1151,-1274.83 1151,-1274.83 1151,-1282.5 1151,-1282.5 1151,-1286.33 1147.17,-1290.16 1143.33,-1290.16"/>
<text text-anchor="middle" x="1010.5" y="-1274.96" font-family="Arial" font-size="14.00" fill="#c6c5fe">components/forms/ResetPasswordForm.tsx</text>
</g>
<!-- components/forms/ResetPasswordForm.tsx&#45;&gt;components/Form.tsx -->
<g id="edge27" class="edge">
<title>components/forms/ResetPasswordForm.tsx&#45;&gt;components/Form.tsx</title>
<path fill="none" stroke="#757575" d="M1026.85,-1290.32C1056.1,-1311.71 1122.63,-1356.51 1187,-1372.66 1430.56,-1433.78 1507.5,-1429.91 1752,-1372.66 1782.27,-1365.57 1813.77,-1348.78 1835.08,-1335.79"/>
<polygon fill="#757575" stroke="#757575" points="1837.21,-1338.58 1843.83,-1330.31 1833.5,-1332.65 1837.21,-1338.58"/>
</g>
<!-- components/forms/ResetPasswordForm.tsx&#45;&gt;components/FormInputGroup.tsx -->
<g id="edge28" class="edge">
<title>components/forms/ResetPasswordForm.tsx&#45;&gt;components/FormInputGroup.tsx</title>
<path fill="none" stroke="#757575" d="M1100.89,-1267.15C1138.88,-1262.25 1183.33,-1256.53 1222.37,-1251.5"/>
<polygon fill="#757575" stroke="#757575" points="1223.23,-1254.92 1232.7,-1250.17 1222.34,-1247.97 1223.23,-1254.92"/>
</g>
<!-- components/lists/CatalogList.tsx -->
<g id="node26" class="node">
<title>components/lists/CatalogList.tsx</title>
<path fill="none" stroke="#c6c5fe" d="M790.83,-623.16C790.83,-623.16 596.17,-623.16 596.17,-623.16 592.33,-623.16 588.5,-619.33 588.5,-615.5 588.5,-615.5 588.5,-607.83 588.5,-607.83 588.5,-604 592.33,-600.16 596.17,-600.16 596.17,-600.16 790.83,-600.16 790.83,-600.16 794.67,-600.16 798.5,-604 798.5,-607.83 798.5,-607.83 798.5,-615.5 798.5,-615.5 798.5,-619.33 794.67,-623.16 790.83,-623.16"/>
<text text-anchor="middle" x="693.5" y="-607.96" font-family="Arial" font-size="14.00" fill="#c6c5fe">components/lists/CatalogList.tsx</text>
</g>
<!-- components/lists/CatalogList.tsx&#45;&gt;main/RoutePath.ts -->
<g id="edge30" class="edge">
<title>components/lists/CatalogList.tsx&#45;&gt;main/RoutePath.ts</title>
<path fill="none" stroke="#757575" d="M718.63,-623.23C748.07,-638.12 798.33,-666.11 834,-699.66 853.95,-718.42 849.52,-731.48 870,-749.66 1001.92,-866.77 1197.99,-951.52 1281.73,-984.49"/>
<polygon fill="#757575" stroke="#757575" points="1280.54,-987.79 1291.13,-988.16 1283.09,-981.27 1280.54,-987.79"/>
</g>
<!-- components/lists/CatalogList.tsx&#45;&gt;types/dto.d.ts -->
<g id="edge31" class="edge">
<title>components/lists/CatalogList.tsx&#45;&gt;types/dto.d.ts</title>
<path fill="none" stroke="#757575" d="M798.51,-604.35C810.91,-601.08 823.04,-596.65 834,-590.66 855.28,-579.04 848.63,-561.13 870,-549.66 986.31,-487.24 1337.89,-525.17 1459,-472.66 1521.55,-445.54 1578.92,-386.8 1606.05,-356.15"/>
<polygon fill="#757575" stroke="#757575" points="1608.96,-358.14 1612.88,-348.3 1603.67,-353.55 1608.96,-358.14"/>
</g>
<!-- components/modals/MakeCatalogModal.tsx -->
<g id="node27" class="node">
<title>components/modals/MakeCatalogModal.tsx</title>
<path fill="none" stroke="#c6c5fe" d="M1143.33,-582.16C1143.33,-582.16 877.67,-582.16 877.67,-582.16 873.83,-582.16 870,-578.33 870,-574.5 870,-574.5 870,-566.83 870,-566.83 870,-563 873.83,-559.16 877.67,-559.16 877.67,-559.16 1143.33,-559.16 1143.33,-559.16 1147.17,-559.16 1151,-563 1151,-566.83 1151,-566.83 1151,-574.5 1151,-574.5 1151,-578.33 1147.17,-582.16 1143.33,-582.16"/>
<text text-anchor="middle" x="1010.5" y="-566.96" font-family="Arial" font-size="14.00" fill="#c6c5fe">components/modals/MakeCatalogModal.tsx</text>
</g>
<!-- components/lists/CatalogList.tsx&#45;&gt;components/modals/MakeCatalogModal.tsx -->
<g id="edge29" class="edge">
<title>components/lists/CatalogList.tsx&#45;&gt;components/modals/MakeCatalogModal.tsx</title>
<path fill="none" stroke="#757575" d="M783.08,-600.13C822.93,-594.95 870.1,-588.81 911.04,-583.48"/>
<polygon fill="#757575" stroke="#757575" points="911.57,-586.94 921.04,-582.18 910.67,-580 911.57,-586.94"/>
</g>
<!-- components/modals/MakeCatalogModal.tsx&#45;&gt;components/forms/CatalogForm.tsx -->
<g id="edge39" class="edge">
<title>components/modals/MakeCatalogModal.tsx&#45;&gt;components/forms/CatalogForm.tsx</title>
<path fill="none" stroke="#757575" d="M1151.31,-570.66C1166.22,-570.66 1181.32,-570.66 1196.06,-570.66"/>
<polygon fill="#757575" stroke="#757575" points="1196.19,-574.16 1206.19,-570.66 1196.19,-567.16 1196.19,-574.16"/>
</g>
<!-- components/modals/MakeCatalogModal.tsx&#45;&gt;types/dto.d.ts -->
<g id="edge41" class="edge">
<title>components/modals/MakeCatalogModal.tsx&#45;&gt;types/dto.d.ts</title>
<path fill="none" stroke="#757575" d="M1102.77,-559.15C1229.03,-543 1443.31,-514.7 1459,-506.66 1528.59,-471.01 1585.32,-393.97 1609.67,-357.11"/>
<polygon fill="#757575" stroke="#757575" points="1612.91,-358.55 1615.41,-348.25 1607.03,-354.75 1612.91,-358.55"/>
</g>
<!-- components/modals/MakeCatalogModal.tsx&#45;&gt;types/types.d.ts -->
<g id="edge42" class="edge">
<title>components/modals/MakeCatalogModal.tsx&#45;&gt;types/types.d.ts</title>
<path fill="none" stroke="#757575" d="M1098.39,-582.2C1126.6,-585.51 1158.08,-588.74 1187,-590.66 1437.57,-607.34 1500.94,-602.42 1752,-596.66 1766.54,-596.33 1782.17,-595.75 1796.91,-595.09"/>
<polygon fill="#757575" stroke="#757575" points="1797.13,-598.59 1806.96,-594.63 1796.81,-591.59 1797.13,-598.59"/>
</g>
<!-- components/modals/Modal.tsx -->
<g id="node32" class="node">
<title>components/modals/Modal.tsx</title>
<path fill="none" stroke="#cfffac" d="M1415.83,-464.16C1415.83,-464.16 1230.17,-464.16 1230.17,-464.16 1226.33,-464.16 1222.5,-460.33 1222.5,-456.5 1222.5,-456.5 1222.5,-448.83 1222.5,-448.83 1222.5,-445 1226.33,-441.16 1230.17,-441.16 1230.17,-441.16 1415.83,-441.16 1415.83,-441.16 1419.67,-441.16 1423.5,-445 1423.5,-448.83 1423.5,-448.83 1423.5,-456.5 1423.5,-456.5 1423.5,-460.33 1419.67,-464.16 1415.83,-464.16"/>
<text text-anchor="middle" x="1323" y="-448.96" font-family="Arial" font-size="14.00" fill="#cfffac">components/modals/Modal.tsx</text>
</g>
<!-- components/modals/MakeCatalogModal.tsx&#45;&gt;components/modals/Modal.tsx -->
<g id="edge40" class="edge">
<title>components/modals/MakeCatalogModal.tsx&#45;&gt;components/modals/Modal.tsx</title>
<path fill="none" stroke="#757575" d="M1041.84,-559.13C1098.18,-537.72 1218.97,-491.82 1281.95,-467.88"/>
<polygon fill="#757575" stroke="#757575" points="1283.44,-471.06 1291.54,-464.24 1280.95,-464.52 1283.44,-471.06"/>
</g>
<!-- components/lists/ProductList.tsx -->
<g id="node28" class="node">
<title>components/lists/ProductList.tsx</title>
<path fill="none" stroke="#c6c5fe" d="M790.83,-331.16C790.83,-331.16 596.17,-331.16 596.17,-331.16 592.33,-331.16 588.5,-327.33 588.5,-323.5 588.5,-323.5 588.5,-315.83 588.5,-315.83 588.5,-312 592.33,-308.16 596.17,-308.16 596.17,-308.16 790.83,-308.16 790.83,-308.16 794.67,-308.16 798.5,-312 798.5,-315.83 798.5,-315.83 798.5,-323.5 798.5,-323.5 798.5,-327.33 794.67,-331.16 790.83,-331.16"/>
<text text-anchor="middle" x="693.5" y="-315.96" font-family="Arial" font-size="14.00" fill="#c6c5fe">components/lists/ProductList.tsx</text>
</g>
<!-- components/lists/ProductList.tsx&#45;&gt;utils/Array.ts -->
<g id="edge33" class="edge">
<title>components/lists/ProductList.tsx&#45;&gt;utils/Array.ts</title>
<path fill="none" stroke="#757575" d="M763.25,-331.18C786.6,-336.81 812.26,-344.98 834,-356.66 852.86,-366.79 852.07,-376.96 870,-388.66 900.97,-408.88 939.37,-425.99 968.03,-437.42"/>
<polygon fill="#757575" stroke="#757575" points="966.77,-440.68 977.36,-441.07 969.32,-434.16 966.77,-440.68"/>
</g>
<!-- components/lists/ProductList.tsx&#45;&gt;types/dto.d.ts -->
<g id="edge32" class="edge">
<title>components/lists/ProductList.tsx&#45;&gt;types/dto.d.ts</title>
<path fill="none" stroke="#757575" d="M798.75,-317.38C945.96,-314.78 1223.15,-312.12 1459,-322.66 1494.16,-324.23 1533.46,-327.55 1564.72,-330.56"/>
<polygon fill="#757575" stroke="#757575" points="1564.7,-334.07 1574.99,-331.56 1565.38,-327.11 1564.7,-334.07"/>
</g>
<!-- components/menus/DropdownMenu.tsx&#45;&gt;types/types.d.ts -->
<g id="edge34" class="edge">
<title>components/menus/DropdownMenu.tsx&#45;&gt;types/types.d.ts</title>
<path fill="none" stroke="#757575" d="M1645.64,-1106.06C1674.21,-1089.27 1724.71,-1055.46 1752,-1012.66 1837.76,-878.16 1856.21,-678.91 1860.03,-613.4"/>
<polygon fill="#757575" stroke="#757575" points="1863.53,-613.59 1860.56,-603.42 1856.54,-613.22 1863.53,-613.59"/>
</g>
<!-- main/MenuConfig.ts&#45;&gt;main/RoutePath.ts -->
<g id="edge89" class="edge">
<title>main/MenuConfig.ts&#45;&gt;main/RoutePath.ts</title>
<path fill="none" stroke="#757575" d="M1079.64,-970C1129.68,-976.13 1197.57,-984.43 1248.77,-990.7"/>
<polygon fill="#757575" stroke="#757575" points="1248.43,-994.18 1258.78,-991.92 1249.28,-987.24 1248.43,-994.18"/>
</g>
<!-- main/MenuConfig.ts&#45;&gt;types/types.d.ts -->
<g id="edge90" class="edge">
<title>main/MenuConfig.ts&#45;&gt;types/types.d.ts</title>
<path fill="none" stroke="#757575" d="M1079.8,-963.68C1252.99,-968.17 1699.31,-975.68 1752,-935.66 1856.5,-856.3 1862.97,-676.51 1861.86,-613.76"/>
<polygon fill="#757575" stroke="#757575" points="1865.35,-613.37 1861.59,-603.46 1858.36,-613.55 1865.35,-613.37"/>
</g>
<!-- components/menus/SubMenu.tsx -->
<g id="node31" class="node">
<title>components/menus/SubMenu.tsx</title>
<path fill="none" stroke="#c6c5fe" d="M795.33,-933.16C795.33,-933.16 591.67,-933.16 591.67,-933.16 587.83,-933.16 584,-929.33 584,-925.5 584,-925.5 584,-917.83 584,-917.83 584,-914 587.83,-910.16 591.67,-910.16 591.67,-910.16 795.33,-910.16 795.33,-910.16 799.17,-910.16 803,-914 803,-917.83 803,-917.83 803,-925.5 803,-925.5 803,-929.33 799.17,-933.16 795.33,-933.16"/>
<text text-anchor="middle" x="693.5" y="-917.96" font-family="Arial" font-size="14.00" fill="#c6c5fe">components/menus/SubMenu.tsx</text>
</g>
<!-- components/menus/SubMenu.tsx&#45;&gt;types/types.d.ts -->
<g id="edge38" class="edge">
<title>components/menus/SubMenu.tsx&#45;&gt;types/types.d.ts</title>
<path fill="none" stroke="#757575" d="M803.02,-928.22C952.03,-935.1 1227.85,-940.2 1459,-901.66 1593.63,-879.22 1648.11,-898.19 1752,-809.66 1815.1,-755.9 1845.45,-656.76 1856.23,-613.18"/>
<polygon fill="#757575" stroke="#757575" points="1859.66,-613.89 1858.56,-603.35 1852.85,-612.28 1859.66,-613.89"/>
</g>
<!-- components/modals/MakeProductModal.tsx -->
<g id="node33" class="node">
<title>components/modals/MakeProductModal.tsx</title>
<path fill="none" stroke="#c6c5fe" d="M826.33,-272.16C826.33,-272.16 560.67,-272.16 560.67,-272.16 556.83,-272.16 553,-268.33 553,-264.5 553,-264.5 553,-256.83 553,-256.83 553,-253 556.83,-249.16 560.67,-249.16 560.67,-249.16 826.33,-249.16 826.33,-249.16 830.17,-249.16 834,-253 834,-256.83 834,-256.83 834,-264.5 834,-264.5 834,-268.33 830.17,-272.16 826.33,-272.16"/>
<text text-anchor="middle" x="693.5" y="-256.96" font-family="Arial" font-size="14.00" fill="#c6c5fe">components/modals/MakeProductModal.tsx</text>
</g>
<!-- components/modals/MakeProductModal.tsx&#45;&gt;types/dto.d.ts -->
<g id="edge45" class="edge">
<title>components/modals/MakeProductModal.tsx&#45;&gt;types/dto.d.ts</title>
<path fill="none" stroke="#757575" d="M834.29,-266.9C987.79,-274.51 1241.41,-289.33 1459,-312.66 1494.11,-316.43 1533.26,-322.12 1564.44,-327.02"/>
<polygon fill="#757575" stroke="#757575" points="1564.27,-330.53 1574.69,-328.64 1565.36,-323.62 1564.27,-330.53"/>
</g>
<!-- components/modals/MakeProductModal.tsx&#45;&gt;types/types.d.ts -->
<g id="edge46" class="edge">
<title>components/modals/MakeProductModal.tsx&#45;&gt;types/types.d.ts</title>
<path fill="none" stroke="#757575" d="M712.52,-249.15C823.23,-180 1417.63,168.38 1752,-101.66 1826.86,-162.12 1853.67,-482.86 1859.63,-569.87"/>
<polygon fill="#757575" stroke="#757575" points="1856.14,-570.18 1860.3,-579.92 1863.13,-569.71 1856.14,-570.18"/>
</g>
<!-- components/modals/MakeProductModal.tsx&#45;&gt;components/forms/ProductForm.tsx -->
<g id="edge43" class="edge">
<title>components/modals/MakeProductModal.tsx&#45;&gt;components/forms/ProductForm.tsx</title>
<path fill="none" stroke="#757575" d="M785.19,-249.15C823.89,-244.23 869.21,-238.48 908.93,-233.43"/>
<polygon fill="#757575" stroke="#757575" points="909.43,-236.9 918.91,-232.17 908.55,-229.95 909.43,-236.9"/>
</g>
<!-- components/modals/MakeProductModal.tsx&#45;&gt;components/modals/Modal.tsx -->
<g id="edge44" class="edge">
<title>components/modals/MakeProductModal.tsx&#45;&gt;components/modals/Modal.tsx</title>
<path fill="none" stroke="#757575" d="M738.61,-272.2C766.12,-279.51 802.21,-289.32 834,-298.66 998.19,-346.91 1191.58,-409.74 1277.27,-437.89"/>
<polygon fill="#757575" stroke="#757575" points="1276.34,-441.27 1286.93,-441.07 1278.53,-434.62 1276.34,-441.27"/>
</g>
<!-- components/pages/AccountPage.tsx -->
<g id="node34" class="node">
<title>components/pages/AccountPage.tsx</title>
<path fill="none" stroke="#c6c5fe" d="M502.33,-851.16C502.33,-851.16 281.67,-851.16 281.67,-851.16 277.83,-851.16 274,-847.33 274,-843.5 274,-843.5 274,-835.83 274,-835.83 274,-832 277.83,-828.16 281.67,-828.16 281.67,-828.16 502.33,-828.16 502.33,-828.16 506.17,-828.16 510,-832 510,-835.83 510,-835.83 510,-843.5 510,-843.5 510,-847.33 506.17,-851.16 502.33,-851.16"/>
<text text-anchor="middle" x="392" y="-835.96" font-family="Arial" font-size="14.00" fill="#c6c5fe">components/pages/AccountPage.tsx</text>
</g>
<!-- components/pages/AccountPage.tsx&#45;&gt;main/MenuConfig.ts -->
<g id="edge49" class="edge">
<title>components/pages/AccountPage.tsx&#45;&gt;main/MenuConfig.ts</title>
<path fill="none" stroke="#757575" d="M476.74,-851.19C604.04,-868.73 831.84,-900.14 834,-900.66 882.88,-912.42 937.29,-932.47 972.38,-946.36"/>
<polygon fill="#757575" stroke="#757575" points="971.16,-949.64 981.74,-950.1 973.75,-943.14 971.16,-949.64"/>
</g>
<!-- components/pages/AccountPage.tsx&#45;&gt;components/menus/SubMenu.tsx -->
<g id="edge47" class="edge">
<title>components/pages/AccountPage.tsx&#45;&gt;components/menus/SubMenu.tsx</title>
<path fill="none" stroke="#757575" d="M496.45,-851.19C503.57,-853.54 510.5,-856.34 517,-859.66 537.15,-869.96 532.98,-885.12 553,-895.66 561.75,-900.27 571.18,-904.07 580.86,-907.21"/>
<polygon fill="#757575" stroke="#757575" points="580.04,-910.61 590.62,-910.12 582.04,-903.91 580.04,-910.61"/>
</g>
<!-- components/pages/Page.tsx -->
<g id="node35" class="node">
<title>components/pages/Page.tsx</title>
<path fill="none" stroke="#cfffac" d="M779.83,-853.16C779.83,-853.16 607.17,-853.16 607.17,-853.16 603.33,-853.16 599.5,-849.33 599.5,-845.5 599.5,-845.5 599.5,-837.83 599.5,-837.83 599.5,-834 603.33,-830.16 607.17,-830.16 607.17,-830.16 779.83,-830.16 779.83,-830.16 783.67,-830.16 787.5,-834 787.5,-837.83 787.5,-837.83 787.5,-845.5 787.5,-845.5 787.5,-849.33 783.67,-853.16 779.83,-853.16"/>
<text text-anchor="middle" x="693.5" y="-837.96" font-family="Arial" font-size="14.00" fill="#cfffac">components/pages/Page.tsx</text>
</g>
<!-- components/pages/AccountPage.tsx&#45;&gt;components/pages/Page.tsx -->
<g id="edge48" class="edge">
<title>components/pages/AccountPage.tsx&#45;&gt;components/pages/Page.tsx</title>
<path fill="none" stroke="#757575" d="M510.08,-840.44C536.15,-840.62 563.61,-840.8 589.09,-840.97"/>
<polygon fill="#757575" stroke="#757575" points="589.1,-844.47 599.12,-841.04 589.14,-837.47 589.1,-844.47"/>
</g>
<!-- components/pages/AuthPage.scss -->
<g id="node36" class="node">
<title>components/pages/AuthPage.scss</title>
<path fill="none" stroke="#cfffac" d="M1427.83,-1209.16C1427.83,-1209.16 1218.17,-1209.16 1218.17,-1209.16 1214.33,-1209.16 1210.5,-1205.33 1210.5,-1201.5 1210.5,-1201.5 1210.5,-1193.83 1210.5,-1193.83 1210.5,-1190 1214.33,-1186.16 1218.17,-1186.16 1218.17,-1186.16 1427.83,-1186.16 1427.83,-1186.16 1431.67,-1186.16 1435.5,-1190 1435.5,-1193.83 1435.5,-1193.83 1435.5,-1201.5 1435.5,-1201.5 1435.5,-1205.33 1431.67,-1209.16 1427.83,-1209.16"/>
<text text-anchor="middle" x="1323" y="-1193.96" font-family="Arial" font-size="14.00" fill="#cfffac">components/pages/AuthPage.scss</text>
</g>
<!-- components/pages/AuthPage.tsx -->
<g id="node37" class="node">
<title>components/pages/AuthPage.tsx</title>
<path fill="none" stroke="#c6c5fe" d="M1110.33,-1249.16C1110.33,-1249.16 910.67,-1249.16 910.67,-1249.16 906.83,-1249.16 903,-1245.33 903,-1241.5 903,-1241.5 903,-1233.83 903,-1233.83 903,-1230 906.83,-1226.16 910.67,-1226.16 910.67,-1226.16 1110.33,-1226.16 1110.33,-1226.16 1114.17,-1226.16 1118,-1230 1118,-1233.83 1118,-1233.83 1118,-1241.5 1118,-1241.5 1118,-1245.33 1114.17,-1249.16 1110.33,-1249.16"/>
<text text-anchor="middle" x="1010.5" y="-1233.96" font-family="Arial" font-size="14.00" fill="#c6c5fe">components/pages/AuthPage.tsx</text>
</g>
<!-- components/pages/AuthPage.tsx&#45;&gt;services/Firebase.ts -->
<g id="edge54" class="edge">
<title>components/pages/AuthPage.tsx&#45;&gt;services/Firebase.ts</title>
<path fill="none" stroke="#757575" d="M1027.9,-1225.94C1057,-1204.3 1117.72,-1155.18 1151,-1099.66 1179.85,-1051.54 1154.47,-1024.38 1187,-978.66 1213.01,-942.12 1257.19,-914.19 1287.9,-897.89"/>
<polygon fill="#757575" stroke="#757575" points="1289.69,-900.91 1296.96,-893.21 1286.47,-894.69 1289.69,-900.91"/>
</g>
<!-- components/pages/AuthPage.tsx&#45;&gt;components/AuthFrom.tsx -->
<g id="edge50" class="edge">
<title>components/pages/AuthPage.tsx&#45;&gt;components/AuthFrom.tsx</title>
<path fill="none" stroke="#757575" d="M1097.07,-1249.17C1125.62,-1252.67 1157.64,-1256.23 1187,-1258.66 1303.03,-1268.26 1436.85,-1273.54 1525.2,-1276.23"/>
<polygon fill="#757575" stroke="#757575" points="1525.11,-1279.73 1535.21,-1276.53 1525.32,-1272.73 1525.11,-1279.73"/>
</g>
<!-- components/pages/AuthPage.tsx&#45;&gt;components/Form.tsx -->
<g id="edge51" class="edge">
<title>components/pages/AuthPage.tsx&#45;&gt;components/Form.tsx</title>
<path fill="none" stroke="#757575" d="M1118.16,-1241.34C1129.98,-1245.02 1141.24,-1250.28 1151,-1257.66 1182.42,-1281.42 1153.97,-1317.19 1187,-1338.66 1283.17,-1401.16 1626.99,-1356.27 1783.01,-1331.76"/>
<polygon fill="#757575" stroke="#757575" points="1783.68,-1335.2 1793.01,-1330.18 1782.59,-1328.29 1783.68,-1335.2"/>
</g>
<!-- components/pages/AuthPage.tsx&#45;&gt;components/pages/AuthPage.scss -->
<g id="edge52" class="edge">
<title>components/pages/AuthPage.tsx&#45;&gt;components/pages/AuthPage.scss</title>
<path fill="none" stroke="#757575" d="M1100.89,-1226.15C1138.88,-1221.25 1183.33,-1215.53 1222.37,-1210.5"/>
<polygon fill="#757575" stroke="#757575" points="1223.23,-1213.92 1232.7,-1209.17 1222.34,-1206.97 1223.23,-1213.92"/>
</g>
<!-- containers/SignUpModal.tsx -->
<g id="node38" class="node">
<title>containers/SignUpModal.tsx</title>
<path fill="none" stroke="#c6c5fe" d="M1407.83,-1330.16C1407.83,-1330.16 1238.17,-1330.16 1238.17,-1330.16 1234.33,-1330.16 1230.5,-1326.33 1230.5,-1322.5 1230.5,-1322.5 1230.5,-1314.83 1230.5,-1314.83 1230.5,-1311 1234.33,-1307.16 1238.17,-1307.16 1238.17,-1307.16 1407.83,-1307.16 1407.83,-1307.16 1411.67,-1307.16 1415.5,-1311 1415.5,-1314.83 1415.5,-1314.83 1415.5,-1322.5 1415.5,-1322.5 1415.5,-1326.33 1411.67,-1330.16 1407.83,-1330.16"/>
<text text-anchor="middle" x="1323" y="-1314.96" font-family="Arial" font-size="14.00" fill="#c6c5fe">containers/SignUpModal.tsx</text>
</g>
<!-- components/pages/AuthPage.tsx&#45;&gt;containers/SignUpModal.tsx -->
<g id="edge53" class="edge">
<title>components/pages/AuthPage.tsx&#45;&gt;containers/SignUpModal.tsx</title>
<path fill="none" stroke="#757575" d="M1118.35,-1245.84C1129.69,-1248.79 1140.79,-1252.64 1151,-1257.66 1171.03,-1267.51 1167.21,-1282.34 1187,-1292.66 1197.42,-1298.1 1208.82,-1302.4 1220.44,-1305.81"/>
<polygon fill="#757575" stroke="#757575" points="1219.67,-1309.23 1230.24,-1308.47 1221.5,-1302.47 1219.67,-1309.23"/>
</g>
<!-- containers/SignUpModal.tsx&#45;&gt;components/AuthFrom.tsx -->
<g id="edge73" class="edge">
<title>containers/SignUpModal.tsx&#45;&gt;components/AuthFrom.tsx</title>
<path fill="none" stroke="#757575" d="M1409.94,-1307.15C1446.46,-1302.25 1489.19,-1296.53 1526.72,-1291.5"/>
<polygon fill="#757575" stroke="#757575" points="1527.21,-1294.96 1536.65,-1290.17 1526.28,-1288.03 1527.21,-1294.96"/>
</g>
<!-- containers/SignUpModal.tsx&#45;&gt;components/Form.tsx -->
<g id="edge74" class="edge">
<title>containers/SignUpModal.tsx&#45;&gt;components/Form.tsx</title>
<path fill="none" stroke="#757575" d="M1415.7,-1318.66C1517.25,-1318.66 1679.54,-1318.66 1777.62,-1318.66"/>
<polygon fill="#757575" stroke="#757575" points="1777.79,-1322.16 1787.79,-1318.66 1777.79,-1315.16 1777.79,-1322.16"/>
</g>
<!-- components/pages/HomePage.tsx -->
<g id="node39" class="node">
<title>components/pages/HomePage.tsx</title>
<path fill="none" stroke="#c6c5fe" d="M496.33,-769.16C496.33,-769.16 287.67,-769.16 287.67,-769.16 283.83,-769.16 280,-765.33 280,-761.5 280,-761.5 280,-753.83 280,-753.83 280,-750 283.83,-746.16 287.67,-746.16 287.67,-746.16 496.33,-746.16 496.33,-746.16 500.17,-746.16 504,-750 504,-753.83 504,-753.83 504,-761.5 504,-761.5 504,-765.33 500.17,-769.16 496.33,-769.16"/>
<text text-anchor="middle" x="392" y="-753.96" font-family="Arial" font-size="14.00" fill="#c6c5fe">components/pages/HomePage.tsx</text>
</g>
<!-- components/pages/HomePage.tsx&#45;&gt;components/pages/Page.tsx -->
<g id="edge55" class="edge">
<title>components/pages/HomePage.tsx&#45;&gt;components/pages/Page.tsx</title>
<path fill="none" stroke="#757575" d="M498.68,-769.23C505.05,-771.59 511.22,-774.38 517,-777.66 538.67,-789.98 531.27,-808.46 553,-820.66 564.23,-826.97 576.74,-831.57 589.52,-834.9"/>
<polygon fill="#757575" stroke="#757575" points="588.79,-838.33 599.33,-837.21 590.39,-831.51 588.79,-838.33"/>
</g>
<!-- components/pages/MessagesPage.tsx -->
<g id="node40" class="node">
<title>components/pages/MessagesPage.tsx</title>
<path fill="none" stroke="#c6c5fe" d="M509.33,-810.16C509.33,-810.16 274.67,-810.16 274.67,-810.16 270.83,-810.16 267,-806.33 267,-802.5 267,-802.5 267,-794.83 267,-794.83 267,-791 270.83,-787.16 274.67,-787.16 274.67,-787.16 509.33,-787.16 509.33,-787.16 513.17,-787.16 517,-791 517,-794.83 517,-794.83 517,-802.5 517,-802.5 517,-806.33 513.17,-810.16 509.33,-810.16"/>
<text text-anchor="middle" x="392" y="-794.96" font-family="Arial" font-size="14.00" fill="#c6c5fe">components/pages/MessagesPage.tsx</text>
</g>
<!-- components/pages/MessagesPage.tsx&#45;&gt;components/pages/Page.tsx -->
<g id="edge56" class="edge">
<title>components/pages/MessagesPage.tsx&#45;&gt;components/pages/Page.tsx</title>
<path fill="none" stroke="#757575" d="M473.26,-810.19C513.04,-815.9 561.22,-822.81 602.28,-828.71"/>
<polygon fill="#757575" stroke="#757575" points="601.88,-832.19 612.28,-830.14 602.88,-825.26 601.88,-832.19"/>
</g>
<!-- components/pages/NotFoundPage.tsx -->
<g id="node41" class="node">
<title>components/pages/NotFoundPage.tsx</title>
<path fill="none" stroke="#cfffac" d="M507.83,-542.16C507.83,-542.16 276.17,-542.16 276.17,-542.16 272.33,-542.16 268.5,-538.33 268.5,-534.5 268.5,-534.5 268.5,-526.83 268.5,-526.83 268.5,-523 272.33,-519.16 276.17,-519.16 276.17,-519.16 507.83,-519.16 507.83,-519.16 511.67,-519.16 515.5,-523 515.5,-526.83 515.5,-526.83 515.5,-534.5 515.5,-534.5 515.5,-538.33 511.67,-542.16 507.83,-542.16"/>
<text text-anchor="middle" x="392" y="-526.96" font-family="Arial" font-size="14.00" fill="#cfffac">components/pages/NotFoundPage.tsx</text>
</g>
<!-- components/pages/SellPage.tsx -->
<g id="node42" class="node">
<title>components/pages/SellPage.tsx</title>
<path fill="none" stroke="#c6c5fe" d="M489.33,-933.16C489.33,-933.16 294.67,-933.16 294.67,-933.16 290.83,-933.16 287,-929.33 287,-925.5 287,-925.5 287,-917.83 287,-917.83 287,-914 290.83,-910.16 294.67,-910.16 294.67,-910.16 489.33,-910.16 489.33,-910.16 493.17,-910.16 497,-914 497,-917.83 497,-917.83 497,-925.5 497,-925.5 497,-929.33 493.17,-933.16 489.33,-933.16"/>
<text text-anchor="middle" x="392" y="-917.96" font-family="Arial" font-size="14.00" fill="#c6c5fe">components/pages/SellPage.tsx</text>
</g>
<!-- components/pages/SellPage.tsx&#45;&gt;main/MenuConfig.ts -->
<g id="edge59" class="edge">
<title>components/pages/SellPage.tsx&#45;&gt;main/MenuConfig.ts</title>
<path fill="none" stroke="#757575" d="M475.09,-933.21C500.06,-936.38 527.62,-939.52 553,-941.66 685.44,-952.82 840.06,-957.94 931.09,-960.15"/>
<polygon fill="#757575" stroke="#757575" points="931.25,-963.65 941.33,-960.39 931.42,-956.65 931.25,-963.65"/>
</g>
<!-- components/pages/SellPage.tsx&#45;&gt;components/menus/SubMenu.tsx -->
<g id="edge57" class="edge">
<title>components/pages/SellPage.tsx&#45;&gt;components/menus/SubMenu.tsx</title>
<path fill="none" stroke="#757575" d="M497.33,-921.66C522.07,-921.66 548.64,-921.66 573.96,-921.66"/>
<polygon fill="#757575" stroke="#757575" points="573.97,-925.16 583.97,-921.66 573.97,-918.16 573.97,-925.16"/>
</g>
<!-- components/pages/SellPage.tsx&#45;&gt;components/pages/Page.tsx -->
<g id="edge58" class="edge">
<title>components/pages/SellPage.tsx&#45;&gt;components/pages/Page.tsx</title>
<path fill="none" stroke="#757575" d="M472.43,-910.11C487.33,-907.41 502.71,-904.25 517,-900.66 564.73,-888.68 618.14,-869.92 653.37,-856.78"/>
<polygon fill="#757575" stroke="#757575" points="654.67,-860.03 662.8,-853.24 652.21,-853.48 654.67,-860.03"/>
</g>
<!-- components/views/CatalogView.tsx -->
<g id="node43" class="node">
<title>components/views/CatalogView.tsx</title>
<path fill="none" stroke="#c6c5fe" d="M498.33,-331.16C498.33,-331.16 285.67,-331.16 285.67,-331.16 281.83,-331.16 278,-327.33 278,-323.5 278,-323.5 278,-315.83 278,-315.83 278,-312 281.83,-308.16 285.67,-308.16 285.67,-308.16 498.33,-308.16 498.33,-308.16 502.17,-308.16 506,-312 506,-315.83 506,-315.83 506,-323.5 506,-323.5 506,-327.33 502.17,-331.16 498.33,-331.16"/>
<text text-anchor="middle" x="392" y="-315.96" font-family="Arial" font-size="14.00" fill="#c6c5fe">components/views/CatalogView.tsx</text>
</g>
<!-- components/views/CatalogView.tsx&#45;&gt;types/dto.d.ts -->
<g id="edge63" class="edge">
<title>components/views/CatalogView.tsx&#45;&gt;types/dto.d.ts</title>
<path fill="none" stroke="#757575" d="M411.34,-307.88C440.22,-289.95 498.61,-256.16 553,-239.66 807.9,-162.32 884.66,-195.34 1151,-199.66 1287.94,-201.88 1338.43,-144.69 1459,-209.66 1483.42,-222.82 1474.64,-241.81 1495,-260.66 1522.57,-286.19 1560.1,-307.29 1587.29,-320.73"/>
<polygon fill="#757575" stroke="#757575" points="1585.92,-323.95 1596.45,-325.16 1588.97,-317.65 1585.92,-323.95"/>
</g>
<!-- components/views/CatalogView.tsx&#45;&gt;components/lists/ProductList.tsx -->
<g id="edge60" class="edge">
<title>components/views/CatalogView.tsx&#45;&gt;components/lists/ProductList.tsx</title>
<path fill="none" stroke="#757575" d="M506.23,-319.66C529.85,-319.66 554.77,-319.66 578.43,-319.66"/>
<polygon fill="#757575" stroke="#757575" points="578.48,-323.16 588.48,-319.66 578.48,-316.16 578.48,-323.16"/>
</g>
<!-- components/views/CatalogView.tsx&#45;&gt;components/modals/MakeProductModal.tsx -->
<g id="edge61" class="edge">
<title>components/views/CatalogView.tsx&#45;&gt;components/modals/MakeProductModal.tsx</title>
<path fill="none" stroke="#757575" d="M451.46,-308.15C500.96,-298.4 571.97,-284.41 624.1,-274.14"/>
<polygon fill="#757575" stroke="#757575" points="624.8,-277.57 633.93,-272.2 623.45,-270.7 624.8,-277.57"/>
</g>
<!-- services/CatalogService.ts -->
<g id="node44" class="node">
<title>services/CatalogService.ts</title>
<path fill="none" stroke="#c6c5fe" d="M773.83,-389.16C773.83,-389.16 613.17,-389.16 613.17,-389.16 609.33,-389.16 605.5,-385.33 605.5,-381.5 605.5,-381.5 605.5,-373.83 605.5,-373.83 605.5,-370 609.33,-366.16 613.17,-366.16 613.17,-366.16 773.83,-366.16 773.83,-366.16 777.67,-366.16 781.5,-370 781.5,-373.83 781.5,-373.83 781.5,-381.5 781.5,-381.5 781.5,-385.33 777.67,-389.16 773.83,-389.16"/>
<text text-anchor="middle" x="693.5" y="-373.96" font-family="Arial" font-size="14.00" fill="#c6c5fe">services/CatalogService.ts</text>
</g>
<!-- components/views/CatalogView.tsx&#45;&gt;services/CatalogService.ts -->
<g id="edge62" class="edge">
<title>components/views/CatalogView.tsx&#45;&gt;services/CatalogService.ts</title>
<path fill="none" stroke="#757575" d="M452.53,-331.19C501.63,-340.7 571.36,-354.2 623.01,-364.2"/>
<polygon fill="#757575" stroke="#757575" points="622.6,-367.69 633.08,-366.16 623.93,-360.82 622.6,-367.69"/>
</g>
<!-- services/CatalogService.ts&#45;&gt;types/dto.d.ts -->
<g id="edge92" class="edge">
<title>services/CatalogService.ts&#45;&gt;types/dto.d.ts</title>
<path fill="none" stroke="#757575" d="M781.8,-373.8C969.37,-365.52 1406.55,-346.2 1564.37,-339.23"/>
<polygon fill="#757575" stroke="#757575" points="1564.96,-342.71 1574.8,-338.77 1564.65,-335.71 1564.96,-342.71"/>
</g>
<!-- services/CatalogService.ts&#45;&gt;types/types.d.ts -->
<g id="edge93" class="edge">
<title>services/CatalogService.ts&#45;&gt;types/types.d.ts</title>
<path fill="none" stroke="#757575" d="M781.83,-380.45C954.19,-386.52 1332.37,-402.73 1459,-431.66 1603.48,-464.68 1764.03,-541.84 1830.07,-575.49"/>
<polygon fill="#757575" stroke="#757575" points="1828.62,-578.68 1839.11,-580.13 1831.81,-572.45 1828.62,-578.68"/>
</g>
<!-- components/views/CatalogsView.tsx -->
<g id="node45" class="node">
<title>components/views/CatalogsView.tsx</title>
<path fill="none" stroke="#c6c5fe" d="M501.83,-583.16C501.83,-583.16 282.17,-583.16 282.17,-583.16 278.33,-583.16 274.5,-579.33 274.5,-575.5 274.5,-575.5 274.5,-567.83 274.5,-567.83 274.5,-564 278.33,-560.16 282.17,-560.16 282.17,-560.16 501.83,-560.16 501.83,-560.16 505.67,-560.16 509.5,-564 509.5,-567.83 509.5,-567.83 509.5,-575.5 509.5,-575.5 509.5,-579.33 505.67,-583.16 501.83,-583.16"/>
<text text-anchor="middle" x="392" y="-567.96" font-family="Arial" font-size="14.00" fill="#c6c5fe">components/views/CatalogsView.tsx</text>
</g>
<!-- components/views/CatalogsView.tsx&#45;&gt;types/dto.d.ts -->
<g id="edge67" class="edge">
<title>components/views/CatalogsView.tsx&#45;&gt;types/dto.d.ts</title>
<path fill="none" stroke="#757575" d="M468.65,-560.13C484.68,-557.33 501.44,-554.13 517,-550.66 533.21,-547.05 536.7,-543.83 553,-540.66 569.41,-537.47 1136.18,-480.41 1151,-472.66 1172.49,-461.43 1166.11,-443.97 1187,-431.66 1250.72,-394.12 1462.06,-359.68 1565.06,-344.64"/>
<polygon fill="#757575" stroke="#757575" points="1565.59,-348.1 1574.98,-343.2 1564.58,-341.17 1565.59,-348.1"/>
</g>
<!-- components/views/CatalogsView.tsx&#45;&gt;components/lists/CatalogList.tsx -->
<g id="edge64" class="edge">
<title>components/views/CatalogsView.tsx&#45;&gt;components/lists/CatalogList.tsx</title>
<path fill="none" stroke="#757575" d="M479.23,-583.18C515.87,-588.07 558.74,-593.8 596.4,-598.83"/>
<polygon fill="#757575" stroke="#757575" points="595.99,-602.3 606.36,-600.16 596.92,-595.37 595.99,-602.3"/>
</g>
<!-- components/views/CatalogsView.tsx&#45;&gt;components/modals/MakeCatalogModal.tsx -->
<g id="edge65" class="edge">
<title>components/views/CatalogsView.tsx&#45;&gt;components/modals/MakeCatalogModal.tsx</title>
<path fill="none" stroke="#757575" d="M461.7,-560.12C489.9,-555.93 522.93,-551.72 553,-549.66 677.6,-541.14 709.33,-542.23 834,-549.66 862.1,-551.34 892.6,-554.51 920.16,-557.89"/>
<polygon fill="#757575" stroke="#757575" points="919.82,-561.37 930.18,-559.14 920.69,-554.43 919.82,-561.37"/>
</g>
<!-- components/views/CatalogsView.tsx&#45;&gt;services/CatalogService.ts -->
<g id="edge66" class="edge">
<title>components/views/CatalogsView.tsx&#45;&gt;services/CatalogService.ts</title>
<path fill="none" stroke="#757575" d="M500.88,-560.16C506.58,-557.5 512,-554.37 517,-550.66 545.75,-529.37 529.85,-505.94 553,-478.66 583.95,-442.2 630.69,-411.87 661.4,-394.25"/>
<polygon fill="#757575" stroke="#757575" points="663.38,-397.15 670.38,-389.19 659.95,-391.05 663.38,-397.15"/>
</g>
<!-- components/views/ProductView.tsx -->
<g id="node46" class="node">
<title>components/views/ProductView.tsx</title>
<path fill="none" stroke="#c6c5fe" d="M498.33,-728.16C498.33,-728.16 285.67,-728.16 285.67,-728.16 281.83,-728.16 278,-724.33 278,-720.5 278,-720.5 278,-712.83 278,-712.83 278,-709 281.83,-705.16 285.67,-705.16 285.67,-705.16 498.33,-705.16 498.33,-705.16 502.17,-705.16 506,-709 506,-712.83 506,-712.83 506,-720.5 506,-720.5 506,-724.33 502.17,-728.16 498.33,-728.16"/>
<text text-anchor="middle" x="392" y="-712.96" font-family="Arial" font-size="14.00" fill="#c6c5fe">components/views/ProductView.tsx</text>
</g>
<!-- components/views/ProductView.tsx&#45;&gt;components/AuthContainer.tsx -->
<g id="edge68" class="edge">
<title>components/views/ProductView.tsx&#45;&gt;components/AuthContainer.tsx</title>
<path fill="none" stroke="#757575" d="M497.18,-728.21C504.06,-730.56 510.73,-733.35 517,-736.66 537.57,-747.53 532.57,-763.54 553,-774.66 562.36,-779.76 572.54,-783.87 583,-787.19"/>
<polygon fill="#757575" stroke="#757575" points="582.08,-790.57 592.66,-790.02 584.05,-783.85 582.08,-790.57"/>
</g>
<!-- components/views/ProductView.tsx&#45;&gt;services/RestService.ts -->
<g id="edge71" class="edge">
<title>components/views/ProductView.tsx&#45;&gt;services/RestService.ts</title>
<path fill="none" stroke="#757575" d="M495.36,-705.14C514.5,-703.17 534.35,-701.25 553,-699.66 799.68,-678.71 1091.57,-662.44 1234.4,-655.04"/>
<polygon fill="#757575" stroke="#757575" points="1234.62,-658.53 1244.42,-654.52 1234.25,-651.54 1234.62,-658.53"/>
</g>
<!-- components/views/ProductView.tsx&#45;&gt;types/models.d.ts -->
<g id="edge72" class="edge">
<title>components/views/ProductView.tsx&#45;&gt;types/models.d.ts</title>
<path fill="none" stroke="#757575" d="M465.8,-728.19C493.11,-732.36 524.45,-736.95 553,-740.66 953.01,-792.73 1055.67,-800.83 1459,-794.66 1489.61,-794.19 1523.43,-793.23 1552.33,-792.28"/>
<polygon fill="#757575" stroke="#757575" points="1552.45,-795.78 1562.33,-791.94 1552.22,-788.78 1552.45,-795.78"/>
</g>
<!-- components/views/ProductView.tsx&#45;&gt;components/ProductFormModal.tsx -->
<g id="edge69" class="edge">
<title>components/views/ProductView.tsx&#45;&gt;components/ProductFormModal.tsx</title>
<path fill="none" stroke="#757575" d="M506.23,-718.17C526.07,-718.44 546.82,-718.72 566.97,-718.99"/>
<polygon fill="#757575" stroke="#757575" points="567.07,-722.49 577.12,-719.12 567.17,-715.49 567.07,-722.49"/>
</g>
<!-- components/views/ProductView.tsx&#45;&gt;components/ProductList.tsx -->
<g id="edge70" class="edge">
<title>components/views/ProductView.tsx&#45;&gt;components/ProductList.tsx</title>
<path fill="none" stroke="#757575" d="M403.65,-704.82C427.52,-679.14 488.32,-618.37 553,-590.66 565.1,-585.48 578.27,-581.59 591.53,-578.68"/>
<polygon fill="#757575" stroke="#757575" points="592.56,-582.05 601.67,-576.65 591.18,-575.19 592.56,-582.05"/>
</g>
<!-- components/views/ProfileView.tsx -->
<g id="node47" class="node">
<title>components/views/ProfileView.tsx</title>
<path fill="none" stroke="#cfffac" d="M494.33,-1054.16C494.33,-1054.16 289.67,-1054.16 289.67,-1054.16 285.83,-1054.16 282,-1050.33 282,-1046.5 282,-1046.5 282,-1038.83 282,-1038.83 282,-1035 285.83,-1031.16 289.67,-1031.16 289.67,-1031.16 494.33,-1031.16 494.33,-1031.16 498.17,-1031.16 502,-1035 502,-1038.83 502,-1038.83 502,-1046.5 502,-1046.5 502,-1050.33 498.17,-1054.16 494.33,-1054.16"/>
<text text-anchor="middle" x="392" y="-1038.96" font-family="Arial" font-size="14.00" fill="#cfffac">components/views/ProfileView.tsx</text>
</g>
<!-- index.css -->
<g id="node48" class="node">
<title>index.css</title>
<path fill="none" stroke="#cfffac" d="M420.83,-974.16C420.83,-974.16 363.17,-974.16 363.17,-974.16 359.33,-974.16 355.5,-970.33 355.5,-966.5 355.5,-966.5 355.5,-958.83 355.5,-958.83 355.5,-955 359.33,-951.16 363.17,-951.16 363.17,-951.16 420.83,-951.16 420.83,-951.16 424.67,-951.16 428.5,-955 428.5,-958.83 428.5,-958.83 428.5,-966.5 428.5,-966.5 428.5,-970.33 424.67,-974.16 420.83,-974.16"/>
<text text-anchor="middle" x="392" y="-958.96" font-family="Arial" font-size="14.00" fill="#cfffac">index.css</text>
</g>
<!-- index.tsx -->
<g id="node49" class="node">
<title>index.tsx</title>
<path fill="none" stroke="#c6c5fe" d="M142.83,-871.16C142.83,-871.16 88.17,-871.16 88.17,-871.16 84.33,-871.16 80.5,-867.33 80.5,-863.5 80.5,-863.5 80.5,-855.83 80.5,-855.83 80.5,-852 84.33,-848.16 88.17,-848.16 88.17,-848.16 142.83,-848.16 142.83,-848.16 146.67,-848.16 150.5,-852 150.5,-855.83 150.5,-855.83 150.5,-863.5 150.5,-863.5 150.5,-867.33 146.67,-871.16 142.83,-871.16"/>
<text text-anchor="middle" x="115.5" y="-855.96" font-family="Arial" font-size="14.00" fill="#c6c5fe">index.tsx</text>
</g>
<!-- index.tsx&#45;&gt;components/containers/App.tsx -->
<g id="edge75" class="edge">
<title>index.tsx&#45;&gt;components/containers/App.tsx</title>
<path fill="none" stroke="#757575" d="M121.28,-871.28C136.54,-906.73 187.72,-1014.02 267,-1062.66 270.93,-1065.07 275.05,-1067.23 279.31,-1069.15"/>
<polygon fill="#757575" stroke="#757575" points="278.24,-1072.5 288.83,-1073.01 280.87,-1066.01 278.24,-1072.5"/>
</g>
<!-- index.tsx&#45;&gt;main/RoutePath.ts -->
<g id="edge87" class="edge">
<title>index.tsx&#45;&gt;main/RoutePath.ts</title>
<path fill="none" stroke="#757575" d="M125.86,-871.42C147.41,-897.45 203.62,-959.48 267,-982.66 358.39,-1016.09 1024.89,-1005.74 1248.83,-1001.25"/>
<polygon fill="#757575" stroke="#757575" points="1248.92,-1004.75 1258.84,-1001.05 1248.77,-997.75 1248.92,-1004.75"/>
</g>
<!-- index.tsx&#45;&gt;components/pages/AccountPage.tsx -->
<g id="edge76" class="edge">
<title>index.tsx&#45;&gt;components/pages/AccountPage.tsx</title>
<path fill="none" stroke="#757575" d="M150.71,-857.17C179.32,-855.08 222.01,-851.97 263.51,-848.95"/>
<polygon fill="#757575" stroke="#757575" points="264.02,-852.42 273.74,-848.21 263.51,-845.44 264.02,-852.42"/>
</g>
<!-- index.tsx&#45;&gt;components/pages/AuthPage.tsx -->
<g id="edge77" class="edge">
<title>index.tsx&#45;&gt;components/pages/AuthPage.tsx</title>
<path fill="none" stroke="#757575" d="M122.9,-871.23C148.63,-917.58 244.28,-1088.17 267,-1103.66 457.37,-1233.43 736.65,-1248.14 892.8,-1244.63"/>
<polygon fill="#757575" stroke="#757575" points="893,-1248.13 902.9,-1244.38 892.82,-1241.13 893,-1248.13"/>
</g>
<!-- index.tsx&#45;&gt;components/pages/HomePage.tsx -->
<g id="edge78" class="edge">
<title>index.tsx&#45;&gt;components/pages/HomePage.tsx</title>
<path fill="none" stroke="#757575" d="M133.22,-848.05C160.11,-829.99 215.19,-795.37 267,-777.66 273.74,-775.36 280.78,-773.32 287.92,-771.51"/>
<polygon fill="#757575" stroke="#757575" points="288.8,-774.9 297.73,-769.18 287.19,-768.09 288.8,-774.9"/>
</g>
<!-- index.tsx&#45;&gt;components/pages/MessagesPage.tsx -->
<g id="edge79" class="edge">
<title>index.tsx&#45;&gt;components/pages/MessagesPage.tsx</title>
<path fill="none" stroke="#757575" d="M150.62,-849.26C180.95,-840.27 226.63,-827.39 267,-818.66 278.13,-816.26 289.87,-814 301.52,-811.93"/>
<polygon fill="#757575" stroke="#757575" points="302.46,-815.32 311.72,-810.16 301.27,-808.42 302.46,-815.32"/>
</g>
<!-- index.tsx&#45;&gt;components/pages/NotFoundPage.tsx -->
<g id="edge80" class="edge">
<title>index.tsx&#45;&gt;components/pages/NotFoundPage.tsx</title>
<path fill="none" stroke="#757575" d="M118.29,-848.01C126.05,-801.66 161.37,-629.1 267,-550.66 268.64,-549.44 270.33,-548.29 272.06,-547.19"/>
<polygon fill="#757575" stroke="#757575" points="273.99,-550.12 281.01,-542.19 270.57,-544.01 273.99,-550.12"/>
</g>
<!-- index.tsx&#45;&gt;components/pages/SellPage.tsx -->
<g id="edge81" class="edge">
<title>index.tsx&#45;&gt;components/pages/SellPage.tsx</title>
<path fill="none" stroke="#757575" d="M150.63,-869.99C180.98,-878.93 226.67,-891.78 267,-900.66 279.49,-903.41 292.75,-906.01 305.79,-908.37"/>
<polygon fill="#757575" stroke="#757575" points="305.23,-911.82 315.69,-910.13 306.46,-904.93 305.23,-911.82"/>
</g>
<!-- index.tsx&#45;&gt;components/views/CatalogView.tsx -->
<g id="edge82" class="edge">
<title>index.tsx&#45;&gt;components/views/CatalogView.tsx</title>
<path fill="none" stroke="#757575" d="M120.62,-848.15C136.79,-803.46 198.4,-637.62 267,-509.66 301.86,-444.65 352.07,-373.08 376.52,-339.34"/>
<polygon fill="#757575" stroke="#757575" points="379.37,-341.37 382.43,-331.23 373.71,-337.25 379.37,-341.37"/>
</g>
<!-- index.tsx&#45;&gt;components/views/CatalogsView.tsx -->
<g id="edge83" class="edge">
<title>index.tsx&#45;&gt;components/views/CatalogsView.tsx</title>
<path fill="none" stroke="#757575" d="M126.91,-847.97C151.13,-820.86 213.27,-751.75 267,-695.66 303.3,-657.77 346.92,-614.7 371.56,-590.59"/>
<polygon fill="#757575" stroke="#757575" points="374.15,-592.96 378.86,-583.46 369.26,-587.95 374.15,-592.96"/>
</g>
<!-- index.tsx&#45;&gt;components/views/ProductView.tsx -->
<g id="edge84" class="edge">
<title>index.tsx&#45;&gt;components/views/ProductView.tsx</title>
<path fill="none" stroke="#757575" d="M126.79,-847.8C149.36,-822.66 206.06,-764.06 267,-736.66 271.43,-734.67 276.02,-732.88 280.73,-731.26"/>
<polygon fill="#757575" stroke="#757575" points="282.02,-734.52 290.5,-728.17 279.91,-727.84 282.02,-734.52"/>
</g>
<!-- index.tsx&#45;&gt;components/views/ProfileView.tsx -->
<g id="edge85" class="edge">
<title>index.tsx&#45;&gt;components/views/ProfileView.tsx</title>
<path fill="none" stroke="#757575" d="M123.98,-871.4C143.53,-901.02 199.32,-979.1 267,-1016.66 275.21,-1021.22 284.13,-1024.98 293.29,-1028.08"/>
<polygon fill="#757575" stroke="#757575" points="292.32,-1031.44 302.9,-1031.08 294.4,-1024.76 292.32,-1031.44"/>
</g>
<!-- index.tsx&#45;&gt;index.css -->
<g id="edge86" class="edge">
<title>index.tsx&#45;&gt;index.css</title>
<path fill="none" stroke="#757575" d="M133.24,-871.22C160.15,-889.22 215.26,-923.75 267,-941.66 292.16,-950.37 321.49,-955.55 345.31,-958.58"/>
<polygon fill="#757575" stroke="#757575" points="345.14,-962.09 355.49,-959.79 345.97,-955.14 345.14,-962.09"/>
</g>
<!-- reportWebVitals.ts -->
<g id="node50" class="node">
<title>reportWebVitals.ts</title>
<path fill="none" stroke="#cfffac" d="M447.83,-892.16C447.83,-892.16 336.17,-892.16 336.17,-892.16 332.33,-892.16 328.5,-888.33 328.5,-884.5 328.5,-884.5 328.5,-876.83 328.5,-876.83 328.5,-873 332.33,-869.16 336.17,-869.16 336.17,-869.16 447.83,-869.16 447.83,-869.16 451.67,-869.16 455.5,-873 455.5,-876.83 455.5,-876.83 455.5,-884.5 455.5,-884.5 455.5,-888.33 451.67,-892.16 447.83,-892.16"/>
<text text-anchor="middle" x="392" y="-876.96" font-family="Arial" font-size="14.00" fill="#cfffac">reportWebVitals.ts</text>
</g>
<!-- index.tsx&#45;&gt;reportWebVitals.ts -->
<g id="edge88" class="edge">
<title>index.tsx&#45;&gt;reportWebVitals.ts</title>
<path fill="none" stroke="#757575" d="M150.71,-862.28C192.36,-865.47 263.85,-870.94 318.06,-875.08"/>
<polygon fill="#757575" stroke="#757575" points="318.07,-878.59 328.31,-875.87 318.6,-871.61 318.07,-878.59"/>
</g>
<!-- react&#45;app&#45;env.d.ts -->
<g id="node51" class="node">
<title>react&#45;app&#45;env.d.ts</title>
<path fill="none" stroke="#cfffac" d="M170.33,-1177.16C170.33,-1177.16 60.67,-1177.16 60.67,-1177.16 56.83,-1177.16 53,-1173.33 53,-1169.5 53,-1169.5 53,-1161.83 53,-1161.83 53,-1158 56.83,-1154.16 60.67,-1154.16 60.67,-1154.16 170.33,-1154.16 170.33,-1154.16 174.17,-1154.16 178,-1158 178,-1161.83 178,-1161.83 178,-1169.5 178,-1169.5 178,-1173.33 174.17,-1177.16 170.33,-1177.16"/>
<text text-anchor="middle" x="115.5" y="-1161.96" font-family="Arial" font-size="14.00" fill="#cfffac">react&#45;app&#45;env.d.ts</text>
</g>
<!-- services/AccountService.ts -->
<g id="node52" class="node">
<title>services/AccountService.ts</title>
<path fill="none" stroke="#cfffac" d="M196.83,-1218.16C196.83,-1218.16 34.17,-1218.16 34.17,-1218.16 30.33,-1218.16 26.5,-1214.33 26.5,-1210.5 26.5,-1210.5 26.5,-1202.83 26.5,-1202.83 26.5,-1199 30.33,-1195.16 34.17,-1195.16 34.17,-1195.16 196.83,-1195.16 196.83,-1195.16 200.67,-1195.16 204.5,-1199 204.5,-1202.83 204.5,-1202.83 204.5,-1210.5 204.5,-1210.5 204.5,-1214.33 200.67,-1218.16 196.83,-1218.16"/>
<text text-anchor="middle" x="115.5" y="-1202.96" font-family="Arial" font-size="14.00" fill="#cfffac">services/AccountService.ts</text>
</g>
<!-- services/LocalData.ts -->
<g id="node53" class="node">
<title>services/LocalData.ts</title>
<path fill="none" stroke="#cfffac" d="M180.33,-1259.16C180.33,-1259.16 50.67,-1259.16 50.67,-1259.16 46.83,-1259.16 43,-1255.33 43,-1251.5 43,-1251.5 43,-1243.83 43,-1243.83 43,-1240 46.83,-1236.16 50.67,-1236.16 50.67,-1236.16 180.33,-1236.16 180.33,-1236.16 184.17,-1236.16 188,-1240 188,-1243.83 188,-1243.83 188,-1251.5 188,-1251.5 188,-1255.33 184.17,-1259.16 180.33,-1259.16"/>
<text text-anchor="middle" x="115.5" y="-1243.96" font-family="Arial" font-size="14.00" fill="#cfffac">services/LocalData.ts</text>
</g>
<!-- services/ProductService.ts -->
<g id="node54" class="node">
<title>services/ProductService.ts</title>
<path fill="none" stroke="#cfffac" d="M195.83,-1300.16C195.83,-1300.16 35.17,-1300.16 35.17,-1300.16 31.33,-1300.16 27.5,-1296.33 27.5,-1292.5 27.5,-1292.5 27.5,-1284.83 27.5,-1284.83 27.5,-1281 31.33,-1277.16 35.17,-1277.16 35.17,-1277.16 195.83,-1277.16 195.83,-1277.16 199.67,-1277.16 203.5,-1281 203.5,-1284.83 203.5,-1284.83 203.5,-1292.5 203.5,-1292.5 203.5,-1296.33 199.67,-1300.16 195.83,-1300.16"/>
<text text-anchor="middle" x="115.5" y="-1284.96" font-family="Arial" font-size="14.00" fill="#cfffac">services/ProductService.ts</text>
</g>
<!-- setupTests.ts -->
<g id="node56" class="node">
<title>setupTests.ts</title>
<path fill="none" stroke="#cfffac" d="M155.33,-1341.16C155.33,-1341.16 75.67,-1341.16 75.67,-1341.16 71.83,-1341.16 68,-1337.33 68,-1333.5 68,-1333.5 68,-1325.83 68,-1325.83 68,-1322 71.83,-1318.16 75.67,-1318.16 75.67,-1318.16 155.33,-1318.16 155.33,-1318.16 159.17,-1318.16 163,-1322 163,-1325.83 163,-1325.83 163,-1333.5 163,-1333.5 163,-1337.33 159.17,-1341.16 155.33,-1341.16"/>
<text text-anchor="middle" x="115.5" y="-1325.96" font-family="Arial" font-size="14.00" fill="#cfffac">setupTests.ts</text>
</g>
</g>
</svg>
