<?xml version="1.0" encoding="UTF-8" standalone="no"?>
<!DOCTYPE svg PUBLIC "-//W3C//DTD SVG 1.1//EN"
 "http://www.w3.org/Graphics/SVG/1.1/DTD/svg11.dtd">
<!-- Generated by graphviz version 2.43.0 (0)
 -->
<!-- Title: G Pages: 1 -->
<svg width="2241pt" height="1505pt"
 viewBox="0.00 0.00 2241.20 1505.29" xmlns="http://www.w3.org/2000/svg" xmlns:xlink="http://www.w3.org/1999/xlink">
<g id="graph0" class="graph" transform="scale(1 1) rotate(0) translate(21.6 1483.69)">
<title>G</title>
<polygon fill="#111111" stroke="transparent" points="-21.6,21.6 -21.6,-1483.69 2219.6,-1483.69 2219.6,21.6 -21.6,21.6"/>
<!-- components/AuthContainer.tsx -->
<g id="node1" class="node">
<title>components/AuthContainer.tsx</title>
<path fill="none" stroke="#c6c5fe" d="M1367.33,-1383C1367.33,-1383 1181.67,-1383 1181.67,-1383 1177.83,-1383 1174,-1379.17 1174,-1375.33 1174,-1375.33 1174,-1367.67 1174,-1367.67 1174,-1363.83 1177.83,-1360 1181.67,-1360 1181.67,-1360 1367.33,-1360 1367.33,-1360 1371.17,-1360 1375,-1363.83 1375,-1367.67 1375,-1367.67 1375,-1375.33 1375,-1375.33 1375,-1379.17 1371.17,-1383 1367.33,-1383"/>
<text text-anchor="middle" x="1274.5" y="-1367.8" font-family="Arial" font-size="14.00" fill="#c6c5fe">components/AuthContainer.tsx</text>
</g>
<!-- services/Firebase.ts -->
<g id="node2" class="node">
<title>services/Firebase.ts</title>
<path fill="none" stroke="#c6c5fe" d="M1646.83,-1383C1646.83,-1383 1525.17,-1383 1525.17,-1383 1521.33,-1383 1517.5,-1379.17 1517.5,-1375.33 1517.5,-1375.33 1517.5,-1367.67 1517.5,-1367.67 1517.5,-1363.83 1521.33,-1360 1525.17,-1360 1525.17,-1360 1646.83,-1360 1646.83,-1360 1650.67,-1360 1654.5,-1363.83 1654.5,-1367.67 1654.5,-1367.67 1654.5,-1375.33 1654.5,-1375.33 1654.5,-1379.17 1650.67,-1383 1646.83,-1383"/>
<text text-anchor="middle" x="1586" y="-1367.8" font-family="Arial" font-size="14.00" fill="#c6c5fe">services/Firebase.ts</text>
</g>
<!-- components/AuthContainer.tsx&#45;&gt;services/Firebase.ts -->
<g id="edge1" class="edge">
<title>components/AuthContainer.tsx&#45;&gt;services/Firebase.ts</title>
<path fill="none" stroke="#757575" d="M1375.13,-1371.5C1417.89,-1371.5 1467.1,-1371.5 1507.11,-1371.5"/>
<polygon fill="#757575" stroke="#757575" points="1507.34,-1375 1517.34,-1371.5 1507.34,-1368 1507.34,-1375"/>
</g>
<!-- types/models.d.ts -->
<g id="node12" class="node">
<title>types/models.d.ts</title>
<path fill="none" stroke="#cfffac" d="M1938.83,-1364C1938.83,-1364 1832.17,-1364 1832.17,-1364 1828.33,-1364 1824.5,-1360.17 1824.5,-1356.33 1824.5,-1356.33 1824.5,-1348.67 1824.5,-1348.67 1824.5,-1344.83 1828.33,-1341 1832.17,-1341 1832.17,-1341 1938.83,-1341 1938.83,-1341 1942.67,-1341 1946.5,-1344.83 1946.5,-1348.67 1946.5,-1348.67 1946.5,-1356.33 1946.5,-1356.33 1946.5,-1360.17 1942.67,-1364 1938.83,-1364"/>
<text text-anchor="middle" x="1885.5" y="-1348.8" font-family="Arial" font-size="14.00" fill="#cfffac">types/models.d.ts</text>
</g>
<!-- services/Firebase.ts&#45;&gt;types/models.d.ts -->
<g id="edge98" class="edge">
<title>services/Firebase.ts&#45;&gt;types/models.d.ts</title>
<path fill="none" stroke="#757575" d="M1654.51,-1367.19C1702.2,-1364.14 1765.97,-1360.07 1814.27,-1356.99"/>
<polygon fill="#757575" stroke="#757575" points="1814.57,-1360.47 1824.32,-1356.34 1814.12,-1353.49 1814.57,-1360.47"/>
</g>
<!-- components/AuthFrom.tsx -->
<g id="node3" class="node">
<title>components/AuthFrom.tsx</title>
<path fill="none" stroke="#ff6c60" d="M1965.83,-1224C1965.83,-1224 1805.17,-1224 1805.17,-1224 1801.33,-1224 1797.5,-1220.17 1797.5,-1216.33 1797.5,-1216.33 1797.5,-1208.67 1797.5,-1208.67 1797.5,-1204.83 1801.33,-1201 1805.17,-1201 1805.17,-1201 1965.83,-1201 1965.83,-1201 1969.67,-1201 1973.5,-1204.83 1973.5,-1208.67 1973.5,-1208.67 1973.5,-1216.33 1973.5,-1216.33 1973.5,-1220.17 1969.67,-1224 1965.83,-1224"/>
<text text-anchor="middle" x="1885.5" y="-1208.8" font-family="Arial" font-size="14.00" fill="#ff6c60">components/AuthFrom.tsx</text>
</g>
<!-- components/Form.tsx -->
<g id="node4" class="node">
<title>components/Form.tsx</title>
<path fill="none" stroke="#cfffac" d="M2190.33,-1184C2190.33,-1184 2057.67,-1184 2057.67,-1184 2053.83,-1184 2050,-1180.17 2050,-1176.33 2050,-1176.33 2050,-1168.67 2050,-1168.67 2050,-1164.83 2053.83,-1161 2057.67,-1161 2057.67,-1161 2190.33,-1161 2190.33,-1161 2194.17,-1161 2198,-1164.83 2198,-1168.67 2198,-1168.67 2198,-1176.33 2198,-1176.33 2198,-1180.17 2194.17,-1184 2190.33,-1184"/>
<text text-anchor="middle" x="2124" y="-1168.8" font-family="Arial" font-size="14.00" fill="#cfffac">components/Form.tsx</text>
</g>
<!-- components/AuthFrom.tsx&#45;&gt;components/Form.tsx -->
<g id="edge2" class="edge">
<title>components/AuthFrom.tsx&#45;&gt;components/Form.tsx</title>
<path fill="none" stroke="#757575" d="M1954.59,-1200.98C1982.79,-1196.21 2015.65,-1190.66 2044.83,-1185.72"/>
<polygon fill="#757575" stroke="#757575" points="2045.71,-1189.12 2054.98,-1184 2044.54,-1182.22 2045.71,-1189.12"/>
</g>
<!-- components/FormInputGroup.tsx -->
<g id="node5" class="node">
<title>components/FormInputGroup.tsx</title>
<path fill="none" stroke="#ff6c60" d="M1686.33,-1265C1686.33,-1265 1485.67,-1265 1485.67,-1265 1481.83,-1265 1478,-1261.17 1478,-1257.33 1478,-1257.33 1478,-1249.67 1478,-1249.67 1478,-1245.83 1481.83,-1242 1485.67,-1242 1485.67,-1242 1686.33,-1242 1686.33,-1242 1690.17,-1242 1694,-1245.83 1694,-1249.67 1694,-1249.67 1694,-1257.33 1694,-1257.33 1694,-1261.17 1690.17,-1265 1686.33,-1265"/>
<text text-anchor="middle" x="1586" y="-1249.8" font-family="Arial" font-size="14.00" fill="#ff6c60">components/FormInputGroup.tsx</text>
</g>
<!-- components/AuthFrom.tsx&#45;&gt;components/FormInputGroup.tsx -->
<g id="edge3" class="edge">
<title>components/AuthFrom.tsx&#45;&gt;components/FormInputGroup.tsx</title>
<path fill="none" stroke="#757575" d="M1837.46,-1224.07C1801.75,-1230.41 1751.03,-1237.91 1704.56,-1243.92"/>
<polygon fill="#757575" stroke="#757575" points="1703.88,-1240.47 1694.4,-1245.21 1704.77,-1247.42 1703.88,-1240.47"/>
</g>
<!-- components/FormInputGroup.tsx&#45;&gt;components/AuthFrom.tsx -->
<g id="edge4" class="edge">
<title>components/FormInputGroup.tsx&#45;&gt;components/AuthFrom.tsx</title>
<path fill="none" stroke="#757575" d="M1633.81,-1241.97C1674.77,-1234.69 1735.6,-1225.87 1787.08,-1219.55"/>
<polygon fill="#757575" stroke="#757575" points="1787.73,-1222.99 1797.24,-1218.32 1786.89,-1216.04 1787.73,-1222.99"/>
</g>
<!-- components/FormInputGroup.scss -->
<g id="node6" class="node">
<title>components/FormInputGroup.scss</title>
<path fill="none" stroke="#cfffac" d="M1990.83,-1265C1990.83,-1265 1780.17,-1265 1780.17,-1265 1776.33,-1265 1772.5,-1261.17 1772.5,-1257.33 1772.5,-1257.33 1772.5,-1249.67 1772.5,-1249.67 1772.5,-1245.83 1776.33,-1242 1780.17,-1242 1780.17,-1242 1990.83,-1242 1990.83,-1242 1994.67,-1242 1998.5,-1245.83 1998.5,-1249.67 1998.5,-1249.67 1998.5,-1257.33 1998.5,-1257.33 1998.5,-1261.17 1994.67,-1265 1990.83,-1265"/>
<text text-anchor="middle" x="1885.5" y="-1249.8" font-family="Arial" font-size="14.00" fill="#cfffac">components/FormInputGroup.scss</text>
</g>
<!-- components/FormInputGroup.tsx&#45;&gt;components/FormInputGroup.scss -->
<g id="edge5" class="edge">
<title>components/FormInputGroup.tsx&#45;&gt;components/FormInputGroup.scss</title>
<path fill="none" stroke="#757575" d="M1694.4,-1253.5C1716.41,-1253.5 1739.74,-1253.5 1762.23,-1253.5"/>
<polygon fill="#757575" stroke="#757575" points="1762.49,-1257 1772.49,-1253.5 1762.49,-1250 1762.49,-1257"/>
</g>
<!-- components/Friends.tsx -->
<g id="node7" class="node">
<title>components/Friends.tsx</title>
<path fill="none" stroke="#cfffac" d="M188.33,-362C188.33,-362 42.67,-362 42.67,-362 38.83,-362 35,-358.17 35,-354.33 35,-354.33 35,-346.67 35,-346.67 35,-342.83 38.83,-339 42.67,-339 42.67,-339 188.33,-339 188.33,-339 192.17,-339 196,-342.83 196,-346.67 196,-346.67 196,-354.33 196,-354.33 196,-358.17 192.17,-362 188.33,-362"/>
<text text-anchor="middle" x="115.5" y="-346.8" font-family="Arial" font-size="14.00" fill="#cfffac">components/Friends.tsx</text>
</g>
<!-- components/ModalForm.scss -->
<g id="node8" class="node">
<title>components/ModalForm.scss</title>
<path fill="none" stroke="#cfffac" d="M1675.83,-1424C1675.83,-1424 1496.17,-1424 1496.17,-1424 1492.33,-1424 1488.5,-1420.17 1488.5,-1416.33 1488.5,-1416.33 1488.5,-1408.67 1488.5,-1408.67 1488.5,-1404.83 1492.33,-1401 1496.17,-1401 1496.17,-1401 1675.83,-1401 1675.83,-1401 1679.67,-1401 1683.5,-1404.83 1683.5,-1408.67 1683.5,-1408.67 1683.5,-1416.33 1683.5,-1416.33 1683.5,-1420.17 1679.67,-1424 1675.83,-1424"/>
<text text-anchor="middle" x="1586" y="-1408.8" font-family="Arial" font-size="14.00" fill="#cfffac">components/ModalForm.scss</text>
</g>
<!-- components/ModalForm.tsx -->
<g id="node9" class="node">
<title>components/ModalForm.tsx</title>
<path fill="none" stroke="#c6c5fe" d="M1359.33,-1424C1359.33,-1424 1189.67,-1424 1189.67,-1424 1185.83,-1424 1182,-1420.17 1182,-1416.33 1182,-1416.33 1182,-1408.67 1182,-1408.67 1182,-1404.83 1185.83,-1401 1189.67,-1401 1189.67,-1401 1359.33,-1401 1359.33,-1401 1363.17,-1401 1367,-1404.83 1367,-1408.67 1367,-1408.67 1367,-1416.33 1367,-1416.33 1367,-1420.17 1363.17,-1424 1359.33,-1424"/>
<text text-anchor="middle" x="1274.5" y="-1408.8" font-family="Arial" font-size="14.00" fill="#c6c5fe">components/ModalForm.tsx</text>
</g>
<!-- components/ModalForm.tsx&#45;&gt;components/ModalForm.scss -->
<g id="edge6" class="edge">
<title>components/ModalForm.tsx&#45;&gt;components/ModalForm.scss</title>
<path fill="none" stroke="#757575" d="M1367.1,-1412.5C1401.97,-1412.5 1442,-1412.5 1478.16,-1412.5"/>
<polygon fill="#757575" stroke="#757575" points="1478.25,-1416 1488.25,-1412.5 1478.25,-1409 1478.25,-1416"/>
</g>
<!-- components/ProductForm.tsx -->
<g id="node10" class="node">
<title>components/ProductForm.tsx</title>
<path fill="none" stroke="#c6c5fe" d="M1363.83,-1305C1363.83,-1305 1185.17,-1305 1185.17,-1305 1181.33,-1305 1177.5,-1301.17 1177.5,-1297.33 1177.5,-1297.33 1177.5,-1289.67 1177.5,-1289.67 1177.5,-1285.83 1181.33,-1282 1185.17,-1282 1185.17,-1282 1363.83,-1282 1363.83,-1282 1367.67,-1282 1371.5,-1285.83 1371.5,-1289.67 1371.5,-1289.67 1371.5,-1297.33 1371.5,-1297.33 1371.5,-1301.17 1367.67,-1305 1363.83,-1305"/>
<text text-anchor="middle" x="1274.5" y="-1289.8" font-family="Arial" font-size="14.00" fill="#c6c5fe">components/ProductForm.tsx</text>
</g>
<!-- components/ProductForm.tsx&#45;&gt;components/Form.tsx -->
<g id="edge7" class="edge">
<title>components/ProductForm.tsx&#45;&gt;components/Form.tsx</title>
<path fill="none" stroke="#757575" d="M1371.54,-1299.2C1544.38,-1308.09 1900.43,-1319.81 2014,-1273.5 2055.28,-1256.67 2090.49,-1216.55 2109.02,-1192.24"/>
<polygon fill="#757575" stroke="#757575" points="2111.93,-1194.2 2115.07,-1184.08 2106.31,-1190.03 2111.93,-1194.2"/>
</g>
<!-- components/ProductForm.tsx&#45;&gt;components/FormInputGroup.tsx -->
<g id="edge8" class="edge">
<title>components/ProductForm.tsx&#45;&gt;components/FormInputGroup.tsx</title>
<path fill="none" stroke="#757575" d="M1364.6,-1281.98C1402.47,-1277.09 1446.78,-1271.36 1485.69,-1266.33"/>
<polygon fill="#757575" stroke="#757575" points="1486.52,-1269.76 1495.99,-1265 1485.62,-1262.81 1486.52,-1269.76"/>
</g>
<!-- services/RestService.ts -->
<g id="node11" class="node">
<title>services/RestService.ts</title>
<path fill="none" stroke="#c6c5fe" d="M1656.83,-1103C1656.83,-1103 1515.17,-1103 1515.17,-1103 1511.33,-1103 1507.5,-1099.17 1507.5,-1095.33 1507.5,-1095.33 1507.5,-1087.67 1507.5,-1087.67 1507.5,-1083.83 1511.33,-1080 1515.17,-1080 1515.17,-1080 1656.83,-1080 1656.83,-1080 1660.67,-1080 1664.5,-1083.83 1664.5,-1087.67 1664.5,-1087.67 1664.5,-1095.33 1664.5,-1095.33 1664.5,-1099.17 1660.67,-1103 1656.83,-1103"/>
<text text-anchor="middle" x="1586" y="-1087.8" font-family="Arial" font-size="14.00" fill="#c6c5fe">services/RestService.ts</text>
</g>
<!-- components/ProductForm.tsx&#45;&gt;services/RestService.ts -->
<g id="edge9" class="edge">
<title>components/ProductForm.tsx&#45;&gt;services/RestService.ts</title>
<path fill="none" stroke="#757575" d="M1294.25,-1281.95C1323.12,-1263.43 1378.9,-1224.65 1415,-1180.5 1436.9,-1153.72 1422.83,-1131.57 1451,-1111.5 1464.48,-1101.89 1480.68,-1096.06 1497.09,-1092.64"/>
<polygon fill="#757575" stroke="#757575" points="1498.07,-1096.02 1507.3,-1090.82 1496.84,-1089.13 1498.07,-1096.02"/>
</g>
<!-- components/ProductForm.tsx&#45;&gt;types/models.d.ts -->
<g id="edge10" class="edge">
<title>components/ProductForm.tsx&#45;&gt;types/models.d.ts</title>
<path fill="none" stroke="#757575" d="M1371.66,-1302.82C1494.73,-1314.74 1705.01,-1335.11 1814.14,-1345.68"/>
<polygon fill="#757575" stroke="#757575" points="1814.09,-1349.19 1824.38,-1346.68 1814.76,-1342.23 1814.09,-1349.19"/>
</g>
<!-- services/RestService.ts&#45;&gt;types/models.d.ts -->
<g id="edge101" class="edge">
<title>services/RestService.ts&#45;&gt;types/models.d.ts</title>
<path fill="none" stroke="#757575" d="M1664.82,-1087.8C1685.29,-1090.62 1705.86,-1097.39 1721,-1111.5 1774.96,-1161.78 1714.3,-1213.36 1757,-1273.5 1778.13,-1303.26 1814.34,-1324.11 1842.78,-1336.89"/>
<polygon fill="#757575" stroke="#757575" points="1841.53,-1340.16 1852.1,-1340.92 1844.31,-1333.74 1841.53,-1340.16"/>
</g>
<!-- services/products.json.ts -->
<g id="node55" class="node">
<title>services/products.json.ts</title>
<path fill="none" stroke="#cfffac" d="M1959.83,-1103C1959.83,-1103 1811.17,-1103 1811.17,-1103 1807.33,-1103 1803.5,-1099.17 1803.5,-1095.33 1803.5,-1095.33 1803.5,-1087.67 1803.5,-1087.67 1803.5,-1083.83 1807.33,-1080 1811.17,-1080 1811.17,-1080 1959.83,-1080 1959.83,-1080 1963.67,-1080 1967.5,-1083.83 1967.5,-1087.67 1967.5,-1087.67 1967.5,-1095.33 1967.5,-1095.33 1967.5,-1099.17 1963.67,-1103 1959.83,-1103"/>
<text text-anchor="middle" x="1885.5" y="-1087.8" font-family="Arial" font-size="14.00" fill="#cfffac">services/products.json.ts</text>
</g>
<!-- services/RestService.ts&#45;&gt;services/products.json.ts -->
<g id="edge100" class="edge">
<title>services/RestService.ts&#45;&gt;services/products.json.ts</title>
<path fill="none" stroke="#757575" d="M1664.78,-1091.5C1704.14,-1091.5 1752.17,-1091.5 1793.27,-1091.5"/>
<polygon fill="#757575" stroke="#757575" points="1793.28,-1095 1803.28,-1091.5 1793.28,-1088 1793.28,-1095"/>
</g>
<!-- components/ProductFormModal.tsx -->
<g id="node13" class="node">
<title>components/ProductFormModal.tsx</title>
<path fill="none" stroke="#c6c5fe" d="M1065.83,-1424C1065.83,-1424 849.17,-1424 849.17,-1424 845.33,-1424 841.5,-1420.17 841.5,-1416.33 841.5,-1416.33 841.5,-1408.67 841.5,-1408.67 841.5,-1404.83 845.33,-1401 849.17,-1401 849.17,-1401 1065.83,-1401 1065.83,-1401 1069.67,-1401 1073.5,-1404.83 1073.5,-1408.67 1073.5,-1408.67 1073.5,-1416.33 1073.5,-1416.33 1073.5,-1420.17 1069.67,-1424 1065.83,-1424"/>
<text text-anchor="middle" x="957.5" y="-1408.8" font-family="Arial" font-size="14.00" fill="#c6c5fe">components/ProductFormModal.tsx</text>
</g>
<!-- components/ProductFormModal.tsx&#45;&gt;components/ModalForm.tsx -->
<g id="edge11" class="edge">
<title>components/ProductFormModal.tsx&#45;&gt;components/ModalForm.tsx</title>
<path fill="none" stroke="#757575" d="M1073.56,-1412.5C1105.75,-1412.5 1140.5,-1412.5 1171.86,-1412.5"/>
<polygon fill="#757575" stroke="#757575" points="1171.91,-1416 1181.91,-1412.5 1171.91,-1409 1171.91,-1416"/>
</g>
<!-- components/ProductFormModal.tsx&#45;&gt;components/ProductForm.tsx -->
<g id="edge12" class="edge">
<title>components/ProductFormModal.tsx&#45;&gt;components/ProductForm.tsx</title>
<path fill="none" stroke="#757575" d="M988.99,-1400.98C1046.15,-1379.39 1169.39,-1332.83 1233.27,-1308.7"/>
<polygon fill="#757575" stroke="#757575" points="1234.88,-1311.83 1242.99,-1305.02 1232.4,-1305.28 1234.88,-1311.83"/>
</g>
<!-- components/ProductFormModal.tsx&#45;&gt;types/models.d.ts -->
<g id="edge13" class="edge">
<title>components/ProductFormModal.tsx&#45;&gt;types/models.d.ts</title>
<path fill="none" stroke="#757575" d="M1017.86,-1424.05C1147.52,-1447.11 1464.91,-1491.79 1721,-1432.5 1773.12,-1420.43 1827.8,-1389.34 1858.87,-1369.66"/>
<polygon fill="#757575" stroke="#757575" points="1860.84,-1372.56 1867.36,-1364.2 1857.05,-1366.67 1860.84,-1372.56"/>
</g>
<!-- components/containers/App.test.tsx -->
<g id="node14" class="node">
<title>components/containers/App.test.tsx</title>
<path fill="none" stroke="#c6c5fe" d="M223.33,-57C223.33,-57 7.67,-57 7.67,-57 3.83,-57 0,-53.17 0,-49.33 0,-49.33 0,-41.67 0,-41.67 0,-37.83 3.83,-34 7.67,-34 7.67,-34 223.33,-34 223.33,-34 227.17,-34 231,-37.83 231,-41.67 231,-41.67 231,-49.33 231,-49.33 231,-53.17 227.17,-57 223.33,-57"/>
<text text-anchor="middle" x="115.5" y="-41.8" font-family="Arial" font-size="14.00" fill="#c6c5fe">components/containers/App.test.tsx</text>
</g>
<!-- components/containers/App.tsx -->
<g id="node15" class="node">
<title>components/containers/App.tsx</title>
<path fill="none" stroke="#c6c5fe" d="M487.33,-57C487.33,-57 296.67,-57 296.67,-57 292.83,-57 289,-53.17 289,-49.33 289,-49.33 289,-41.67 289,-41.67 289,-37.83 292.83,-34 296.67,-34 296.67,-34 487.33,-34 487.33,-34 491.17,-34 495,-37.83 495,-41.67 495,-41.67 495,-49.33 495,-49.33 495,-53.17 491.17,-57 487.33,-57"/>
<text text-anchor="middle" x="392" y="-41.8" font-family="Arial" font-size="14.00" fill="#c6c5fe">components/containers/App.tsx</text>
</g>
<!-- components/containers/App.test.tsx&#45;&gt;components/containers/App.tsx -->
<g id="edge14" class="edge">
<title>components/containers/App.test.tsx&#45;&gt;components/containers/App.tsx</title>
<path fill="none" stroke="#757575" d="M231.32,-45.5C246.99,-45.5 263.06,-45.5 278.68,-45.5"/>
<polygon fill="#757575" stroke="#757575" points="278.87,-49 288.87,-45.5 278.87,-42 278.87,-49"/>
</g>
<!-- components/menus/RootMenu.tsx -->
<g id="node16" class="node">
<title>components/menus/RootMenu.tsx</title>
<path fill="none" stroke="#c6c5fe" d="M771.33,-59C771.33,-59 562.67,-59 562.67,-59 558.83,-59 555,-55.17 555,-51.33 555,-51.33 555,-43.67 555,-43.67 555,-39.83 558.83,-36 562.67,-36 562.67,-36 771.33,-36 771.33,-36 775.17,-36 779,-39.83 779,-43.67 779,-43.67 779,-51.33 779,-51.33 779,-55.17 775.17,-59 771.33,-59"/>
<text text-anchor="middle" x="667" y="-43.8" font-family="Arial" font-size="14.00" fill="#c6c5fe">components/menus/RootMenu.tsx</text>
</g>
<!-- components/containers/App.tsx&#45;&gt;components/menus/RootMenu.tsx -->
<g id="edge15" class="edge">
<title>components/containers/App.tsx&#45;&gt;components/menus/RootMenu.tsx</title>
<path fill="none" stroke="#757575" d="M495.04,-46.25C511.22,-46.37 528.09,-46.49 544.66,-46.61"/>
<polygon fill="#757575" stroke="#757575" points="544.9,-50.11 554.93,-46.69 544.95,-43.11 544.9,-50.11"/>
</g>
<!-- main/RoutePath.ts -->
<g id="node17" class="node">
<title>main/RoutePath.ts</title>
<path fill="none" stroke="#c6c5fe" d="M1330.83,-141C1330.83,-141 1218.17,-141 1218.17,-141 1214.33,-141 1210.5,-137.17 1210.5,-133.33 1210.5,-133.33 1210.5,-125.67 1210.5,-125.67 1210.5,-121.83 1214.33,-118 1218.17,-118 1218.17,-118 1330.83,-118 1330.83,-118 1334.67,-118 1338.5,-121.83 1338.5,-125.67 1338.5,-125.67 1338.5,-133.33 1338.5,-133.33 1338.5,-137.17 1334.67,-141 1330.83,-141"/>
<text text-anchor="middle" x="1274.5" y="-125.8" font-family="Arial" font-size="14.00" fill="#c6c5fe">main/RoutePath.ts</text>
</g>
<!-- components/containers/App.tsx&#45;&gt;main/RoutePath.ts -->
<g id="edge16" class="edge">
<title>components/containers/App.tsx&#45;&gt;main/RoutePath.ts</title>
<path fill="none" stroke="#757575" d="M470.62,-57.01C496.75,-60.66 526.11,-64.52 553,-67.5 794.6,-94.29 855.85,-92.24 1098,-113.5 1131.55,-116.45 1168.7,-119.82 1200.15,-122.7"/>
<polygon fill="#757575" stroke="#757575" points="1199.87,-126.19 1210.15,-123.62 1200.51,-119.22 1199.87,-126.19"/>
</g>
<!-- types/types.d.ts -->
<g id="node21" class="node">
<title>types/types.d.ts</title>
<path fill="none" stroke="#cfffac" d="M2171.33,-333C2171.33,-333 2076.67,-333 2076.67,-333 2072.83,-333 2069,-329.17 2069,-325.33 2069,-325.33 2069,-317.67 2069,-317.67 2069,-313.83 2072.83,-310 2076.67,-310 2076.67,-310 2171.33,-310 2171.33,-310 2175.17,-310 2179,-313.83 2179,-317.67 2179,-317.67 2179,-325.33 2179,-325.33 2179,-329.17 2175.17,-333 2171.33,-333"/>
<text text-anchor="middle" x="2124" y="-317.8" font-family="Arial" font-size="14.00" fill="#cfffac">types/types.d.ts</text>
</g>
<!-- components/menus/RootMenu.tsx&#45;&gt;types/types.d.ts -->
<g id="edge41" class="edge">
<title>components/menus/RootMenu.tsx&#45;&gt;types/types.d.ts</title>
<path fill="none" stroke="#757575" d="M779.04,-48.67C900.48,-49.85 1100.83,-51.5 1273.5,-51.5 1273.5,-51.5 1273.5,-51.5 1587,-51.5 1682.09,-51.5 1935.87,-25.29 2014,-79.5 2089.87,-132.14 2113.75,-250.65 2120.54,-299.65"/>
<polygon fill="#757575" stroke="#757575" points="2117.1,-300.3 2121.84,-309.78 2124.04,-299.41 2117.1,-300.3"/>
</g>
<!-- components/menus/DropdownMenu.tsx -->
<g id="node30" class="node">
<title>components/menus/DropdownMenu.tsx</title>
<path fill="none" stroke="#c6c5fe" d="M2006.33,-23C2006.33,-23 1764.67,-23 1764.67,-23 1760.83,-23 1757,-19.17 1757,-15.33 1757,-15.33 1757,-7.67 1757,-7.67 1757,-3.83 1760.83,0 1764.67,0 1764.67,0 2006.33,0 2006.33,0 2010.17,0 2014,-3.83 2014,-7.67 2014,-7.67 2014,-15.33 2014,-15.33 2014,-19.17 2010.17,-23 2006.33,-23"/>
<text text-anchor="middle" x="1885.5" y="-7.8" font-family="Arial" font-size="14.00" fill="#c6c5fe">components/menus/DropdownMenu.tsx</text>
</g>
<!-- components/menus/RootMenu.tsx&#45;&gt;components/menus/DropdownMenu.tsx -->
<g id="edge39" class="edge">
<title>components/menus/RootMenu.tsx&#45;&gt;components/menus/DropdownMenu.tsx</title>
<path fill="none" stroke="#757575" d="M779.03,-39.52C791.83,-38.76 804.7,-38.06 817,-37.5 1150.5,-22.25 1543.05,-15.59 1746.54,-12.98"/>
<polygon fill="#757575" stroke="#757575" points="1746.72,-16.48 1756.68,-12.85 1746.64,-9.48 1746.72,-16.48"/>
</g>
<!-- main/MenuConfig.ts -->
<g id="node31" class="node">
<title>main/MenuConfig.ts</title>
<path fill="none" stroke="#c6c5fe" d="M1018.83,-179C1018.83,-179 896.17,-179 896.17,-179 892.33,-179 888.5,-175.17 888.5,-171.33 888.5,-171.33 888.5,-163.67 888.5,-163.67 888.5,-159.83 892.33,-156 896.17,-156 896.17,-156 1018.83,-156 1018.83,-156 1022.67,-156 1026.5,-159.83 1026.5,-163.67 1026.5,-163.67 1026.5,-171.33 1026.5,-171.33 1026.5,-175.17 1022.67,-179 1018.83,-179"/>
<text text-anchor="middle" x="957.5" y="-163.8" font-family="Arial" font-size="14.00" fill="#c6c5fe">main/MenuConfig.ts</text>
</g>
<!-- components/menus/RootMenu.tsx&#45;&gt;main/MenuConfig.ts -->
<g id="edge40" class="edge">
<title>components/menus/RootMenu.tsx&#45;&gt;main/MenuConfig.ts</title>
<path fill="none" stroke="#757575" d="M695.66,-59.01C747.77,-80.68 860.48,-127.56 919.21,-151.99"/>
<polygon fill="#757575" stroke="#757575" points="917.92,-155.24 928.5,-155.85 920.61,-148.78 917.92,-155.24"/>
</g>
<!-- main/RoutePath.ts&#45;&gt;types/types.d.ts -->
<g id="edge95" class="edge">
<title>main/RoutePath.ts&#45;&gt;types/types.d.ts</title>
<path fill="none" stroke="#757575" d="M1319.56,-118C1440.09,-89.11 1781.72,-24.81 2014,-155.5 2070.88,-187.5 2103.24,-262.95 2116.24,-300.09"/>
<polygon fill="#757575" stroke="#757575" points="2113.03,-301.52 2119.53,-309.89 2119.67,-299.3 2113.03,-301.52"/>
</g>
<!-- components/forms/CatalogForm.tsx -->
<g id="node18" class="node">
<title>components/forms/CatalogForm.tsx</title>
<path fill="none" stroke="#c6c5fe" d="M1383.33,-913C1383.33,-913 1165.67,-913 1165.67,-913 1161.83,-913 1158,-909.17 1158,-905.33 1158,-905.33 1158,-897.67 1158,-897.67 1158,-893.83 1161.83,-890 1165.67,-890 1165.67,-890 1383.33,-890 1383.33,-890 1387.17,-890 1391,-893.83 1391,-897.67 1391,-897.67 1391,-905.33 1391,-905.33 1391,-909.17 1387.17,-913 1383.33,-913"/>
<text text-anchor="middle" x="1274.5" y="-897.8" font-family="Arial" font-size="14.00" fill="#c6c5fe">components/forms/CatalogForm.tsx</text>
</g>
<!-- components/forms/catalogFormConfig.tsx -->
<g id="node19" class="node">
<title>components/forms/catalogFormConfig.tsx</title>
<path fill="none" stroke="#c6c5fe" d="M1712.83,-909C1712.83,-909 1459.17,-909 1459.17,-909 1455.33,-909 1451.5,-905.17 1451.5,-901.33 1451.5,-901.33 1451.5,-893.67 1451.5,-893.67 1451.5,-889.83 1455.33,-886 1459.17,-886 1459.17,-886 1712.83,-886 1712.83,-886 1716.67,-886 1720.5,-889.83 1720.5,-893.67 1720.5,-893.67 1720.5,-901.33 1720.5,-901.33 1720.5,-905.17 1716.67,-909 1712.83,-909"/>
<text text-anchor="middle" x="1586" y="-893.8" font-family="Arial" font-size="14.00" fill="#c6c5fe">components/forms/catalogFormConfig.tsx</text>
</g>
<!-- components/forms/CatalogForm.tsx&#45;&gt;components/forms/catalogFormConfig.tsx -->
<g id="edge17" class="edge">
<title>components/forms/CatalogForm.tsx&#45;&gt;components/forms/catalogFormConfig.tsx</title>
<path fill="none" stroke="#757575" d="M1391.19,-900C1407.47,-899.79 1424.36,-899.58 1441.09,-899.36"/>
<polygon fill="#757575" stroke="#757575" points="1441.52,-902.85 1451.48,-899.23 1441.43,-895.86 1441.52,-902.85"/>
</g>
<!-- types/dto.d.ts -->
<g id="node20" class="node">
<title>types/dto.d.ts</title>
<path fill="none" stroke="#c6c5fe" d="M1926.33,-622C1926.33,-622 1844.67,-622 1844.67,-622 1840.83,-622 1837,-618.17 1837,-614.33 1837,-614.33 1837,-606.67 1837,-606.67 1837,-602.83 1840.83,-599 1844.67,-599 1844.67,-599 1926.33,-599 1926.33,-599 1930.17,-599 1934,-602.83 1934,-606.67 1934,-606.67 1934,-614.33 1934,-614.33 1934,-618.17 1930.17,-622 1926.33,-622"/>
<text text-anchor="middle" x="1885.5" y="-606.8" font-family="Arial" font-size="14.00" fill="#c6c5fe">types/dto.d.ts</text>
</g>
<!-- components/forms/CatalogForm.tsx&#45;&gt;types/dto.d.ts -->
<g id="edge18" class="edge">
<title>components/forms/CatalogForm.tsx&#45;&gt;types/dto.d.ts</title>
<path fill="none" stroke="#757575" d="M1347.95,-889.93C1457.46,-871.5 1658.95,-833.66 1721,-795.5 1791.35,-752.24 1848.42,-669.3 1872.35,-630.92"/>
<polygon fill="#757575" stroke="#757575" points="1875.47,-632.53 1877.71,-622.17 1869.5,-628.87 1875.47,-632.53"/>
</g>
<!-- components/forms/CatalogForm.tsx&#45;&gt;types/types.d.ts -->
<g id="edge19" class="edge">
<title>components/forms/CatalogForm.tsx&#45;&gt;types/types.d.ts</title>
<path fill="none" stroke="#757575" d="M1346.24,-913.04C1511.45,-938.27 1916.05,-989.57 2014,-904.5 2100.93,-829 2119.16,-440.47 2122.38,-343.47"/>
<polygon fill="#757575" stroke="#757575" points="2125.88,-343.46 2122.7,-333.35 2118.89,-343.24 2125.88,-343.46"/>
</g>
<!-- components/forms/catalogFormConfig.tsx&#45;&gt;types/dto.d.ts -->
<g id="edge26" class="edge">
<title>components/forms/catalogFormConfig.tsx&#45;&gt;types/dto.d.ts</title>
<path fill="none" stroke="#757575" d="M1622.74,-885.94C1651.42,-875.43 1691.62,-857.84 1721,-833.5 1793.71,-773.26 1851.2,-673.96 1873.94,-631.17"/>
<polygon fill="#757575" stroke="#757575" points="1877.08,-632.73 1878.62,-622.24 1870.88,-629.48 1877.08,-632.73"/>
</g>
<!-- components/forms/catalogFormConfig.tsx&#45;&gt;types/types.d.ts -->
<g id="edge27" class="edge">
<title>components/forms/catalogFormConfig.tsx&#45;&gt;types/types.d.ts</title>
<path fill="none" stroke="#757575" d="M1720.65,-906.52C1829.39,-910.83 1971.56,-908.57 2014,-871.5 2095.64,-800.19 2117.73,-436.69 2122.09,-343.36"/>
<polygon fill="#757575" stroke="#757575" points="2125.6,-343.28 2122.55,-333.14 2118.61,-342.97 2125.6,-343.28"/>
</g>
<!-- types/dto.d.ts&#45;&gt;types/types.d.ts -->
<g id="edge102" class="edge">
<title>types/dto.d.ts&#45;&gt;types/types.d.ts</title>
<path fill="none" stroke="#757575" d="M1896.06,-598.81C1932.32,-554.51 2061.54,-396.6 2107.02,-341.02"/>
<polygon fill="#757575" stroke="#757575" points="2109.95,-342.97 2113.58,-333.02 2104.53,-338.54 2109.95,-342.97"/>
</g>
<!-- components/forms/ProductForm.tsx -->
<g id="node22" class="node">
<title>components/forms/ProductForm.tsx</title>
<path fill="none" stroke="#c6c5fe" d="M1383.33,-487C1383.33,-487 1165.67,-487 1165.67,-487 1161.83,-487 1158,-483.17 1158,-479.33 1158,-479.33 1158,-471.67 1158,-471.67 1158,-467.83 1161.83,-464 1165.67,-464 1165.67,-464 1383.33,-464 1383.33,-464 1387.17,-464 1391,-467.83 1391,-471.67 1391,-471.67 1391,-479.33 1391,-479.33 1391,-483.17 1387.17,-487 1383.33,-487"/>
<text text-anchor="middle" x="1274.5" y="-471.8" font-family="Arial" font-size="14.00" fill="#c6c5fe">components/forms/ProductForm.tsx</text>
</g>
<!-- components/forms/ProductForm.tsx&#45;&gt;services/RestService.ts -->
<g id="edge21" class="edge">
<title>components/forms/ProductForm.tsx&#45;&gt;services/RestService.ts</title>
<path fill="none" stroke="#757575" d="M1286.03,-487.29C1312.6,-517.75 1382.5,-602.55 1415,-686.5 1452.51,-783.4 1410.02,-822.02 1451,-917.5 1478.47,-981.5 1534.97,-1042.76 1565.08,-1072.61"/>
<polygon fill="#757575" stroke="#757575" points="1562.88,-1075.35 1572.48,-1079.83 1567.77,-1070.34 1562.88,-1075.35"/>
</g>
<!-- components/forms/ProductForm.tsx&#45;&gt;types/dto.d.ts -->
<g id="edge22" class="edge">
<title>components/forms/ProductForm.tsx&#45;&gt;types/dto.d.ts</title>
<path fill="none" stroke="#757575" d="M1391.22,-465.92C1483.03,-462.15 1613.37,-465.46 1721,-501.5 1778.71,-520.83 1835.38,-566.15 1864.44,-591.85"/>
<polygon fill="#757575" stroke="#757575" points="1862.44,-594.76 1872.21,-598.84 1867.12,-589.55 1862.44,-594.76"/>
</g>
<!-- components/forms/ProductForm.tsx&#45;&gt;types/types.d.ts -->
<g id="edge23" class="edge">
<title>components/forms/ProductForm.tsx&#45;&gt;types/types.d.ts</title>
<path fill="none" stroke="#757575" d="M1375.29,-463.97C1389.04,-460.37 1402.66,-455.66 1415,-449.5 1434.42,-439.8 1431.37,-425.77 1451,-416.5 1464.75,-410.01 1893.27,-352.22 2058.71,-330.08"/>
<polygon fill="#757575" stroke="#757575" points="2059.3,-333.53 2068.75,-328.73 2058.38,-326.59 2059.3,-333.53"/>
</g>
<!-- components/forms/productFormConfig.tsx -->
<g id="node23" class="node">
<title>components/forms/productFormConfig.tsx</title>
<path fill="none" stroke="#c6c5fe" d="M1713.33,-449C1713.33,-449 1458.67,-449 1458.67,-449 1454.83,-449 1451,-445.17 1451,-441.33 1451,-441.33 1451,-433.67 1451,-433.67 1451,-429.83 1454.83,-426 1458.67,-426 1458.67,-426 1713.33,-426 1713.33,-426 1717.17,-426 1721,-429.83 1721,-433.67 1721,-433.67 1721,-441.33 1721,-441.33 1721,-445.17 1717.17,-449 1713.33,-449"/>
<text text-anchor="middle" x="1586" y="-433.8" font-family="Arial" font-size="14.00" fill="#c6c5fe">components/forms/productFormConfig.tsx</text>
</g>
<!-- components/forms/ProductForm.tsx&#45;&gt;components/forms/productFormConfig.tsx -->
<g id="edge20" class="edge">
<title>components/forms/ProductForm.tsx&#45;&gt;components/forms/productFormConfig.tsx</title>
<path fill="none" stroke="#757575" d="M1369.2,-464C1404.49,-459.66 1444.83,-454.71 1481,-450.27"/>
<polygon fill="#757575" stroke="#757575" points="1481.59,-453.72 1491.08,-449.03 1480.73,-446.78 1481.59,-453.72"/>
</g>
<!-- components/forms/productFormConfig.tsx&#45;&gt;types/dto.d.ts -->
<g id="edge28" class="edge">
<title>components/forms/productFormConfig.tsx&#45;&gt;types/dto.d.ts</title>
<path fill="none" stroke="#757575" d="M1681.05,-449.01C1694.85,-452.61 1708.59,-457.32 1721,-463.5 1784.67,-495.2 1842.28,-558.64 1868.92,-590.82"/>
<polygon fill="#757575" stroke="#757575" points="1866.27,-593.11 1875.3,-598.65 1871.69,-588.68 1866.27,-593.11"/>
</g>
<!-- components/forms/productFormConfig.tsx&#45;&gt;types/types.d.ts -->
<g id="edge29" class="edge">
<title>components/forms/productFormConfig.tsx&#45;&gt;types/types.d.ts</title>
<path fill="none" stroke="#757575" d="M1695.82,-449.02C1784.57,-454.21 1911.57,-451.88 2014,-411.5 2052.26,-396.42 2087.14,-362.51 2106.67,-340.89"/>
<polygon fill="#757575" stroke="#757575" points="2109.4,-343.09 2113.38,-333.27 2104.14,-338.47 2109.4,-343.09"/>
</g>
<!-- components/forms/ResetPasswordForm.tsx -->
<g id="node24" class="node">
<title>components/forms/ResetPasswordForm.tsx</title>
<path fill="none" stroke="#c6c5fe" d="M1407.33,-1045C1407.33,-1045 1141.67,-1045 1141.67,-1045 1137.83,-1045 1134,-1041.17 1134,-1037.33 1134,-1037.33 1134,-1029.67 1134,-1029.67 1134,-1025.83 1137.83,-1022 1141.67,-1022 1141.67,-1022 1407.33,-1022 1407.33,-1022 1411.17,-1022 1415,-1025.83 1415,-1029.67 1415,-1029.67 1415,-1037.33 1415,-1037.33 1415,-1041.17 1411.17,-1045 1407.33,-1045"/>
<text text-anchor="middle" x="1274.5" y="-1029.8" font-family="Arial" font-size="14.00" fill="#c6c5fe">components/forms/ResetPasswordForm.tsx</text>
</g>
<!-- components/forms/ResetPasswordForm.tsx&#45;&gt;components/Form.tsx -->
<g id="edge24" class="edge">
<title>components/forms/ResetPasswordForm.tsx&#45;&gt;components/Form.tsx</title>
<path fill="none" stroke="#757575" d="M1397.09,-1021.98C1578.11,-1006.9 1908.52,-987.89 2014,-1038.5 2063.28,-1062.14 2097.64,-1120.05 2113.35,-1151.44"/>
<polygon fill="#757575" stroke="#757575" points="2110.28,-1153.15 2117.79,-1160.63 2116.59,-1150.1 2110.28,-1153.15"/>
</g>
<!-- components/forms/ResetPasswordForm.tsx&#45;&gt;components/FormInputGroup.tsx -->
<g id="edge25" class="edge">
<title>components/forms/ResetPasswordForm.tsx&#45;&gt;components/FormInputGroup.tsx</title>
<path fill="none" stroke="#757575" d="M1294.69,-1045.13C1323.17,-1063.01 1377.29,-1099.39 1415,-1139.5 1434.76,-1160.52 1428.97,-1174.88 1451,-1193.5 1475.27,-1214.02 1507.69,-1228.79 1534.56,-1238.53"/>
<polygon fill="#757575" stroke="#757575" points="1533.58,-1241.9 1544.18,-1241.9 1535.9,-1235.29 1533.58,-1241.9"/>
</g>
<!-- components/lists/CatalogList.tsx -->
<g id="node25" class="node">
<title>components/lists/CatalogList.tsx</title>
<path fill="none" stroke="#c6c5fe" d="M764.33,-639C764.33,-639 569.67,-639 569.67,-639 565.83,-639 562,-635.17 562,-631.33 562,-631.33 562,-623.67 562,-623.67 562,-619.83 565.83,-616 569.67,-616 569.67,-616 764.33,-616 764.33,-616 768.17,-616 772,-619.83 772,-623.67 772,-623.67 772,-631.33 772,-631.33 772,-635.17 768.17,-639 764.33,-639"/>
<text text-anchor="middle" x="667" y="-623.8" font-family="Arial" font-size="14.00" fill="#c6c5fe">components/lists/CatalogList.tsx</text>
</g>
<!-- components/lists/CatalogList.tsx&#45;&gt;main/RoutePath.ts -->
<g id="edge31" class="edge">
<title>components/lists/CatalogList.tsx&#45;&gt;main/RoutePath.ts</title>
<path fill="none" stroke="#757575" d="M767.99,-615.92C772.66,-613.27 777.04,-610.15 781,-606.5 826.01,-564.98 780.03,-522.32 817,-473.5 904.84,-357.5 983.3,-395.04 1098,-305.5 1162.28,-255.32 1227.3,-183.31 1256.93,-149.05"/>
<polygon fill="#757575" stroke="#757575" points="1259.82,-151.06 1263.68,-141.19 1254.51,-146.5 1259.82,-151.06"/>
</g>
<!-- components/lists/CatalogList.tsx&#45;&gt;types/dto.d.ts -->
<g id="edge32" class="edge">
<title>components/lists/CatalogList.tsx&#45;&gt;types/dto.d.ts</title>
<path fill="none" stroke="#757575" d="M772.24,-626.04C1019.46,-622.59 1634.86,-613.99 1826.55,-611.31"/>
<polygon fill="#757575" stroke="#757575" points="1826.75,-614.81 1836.7,-611.17 1826.65,-607.81 1826.75,-614.81"/>
</g>
<!-- components/modals/MakeCatalogModal.tsx -->
<g id="node26" class="node">
<title>components/modals/MakeCatalogModal.tsx</title>
<path fill="none" stroke="#c6c5fe" d="M1090.33,-750C1090.33,-750 824.67,-750 824.67,-750 820.83,-750 817,-746.17 817,-742.33 817,-742.33 817,-734.67 817,-734.67 817,-730.83 820.83,-727 824.67,-727 824.67,-727 1090.33,-727 1090.33,-727 1094.17,-727 1098,-730.83 1098,-734.67 1098,-734.67 1098,-742.33 1098,-742.33 1098,-746.17 1094.17,-750 1090.33,-750"/>
<text text-anchor="middle" x="957.5" y="-734.8" font-family="Arial" font-size="14.00" fill="#c6c5fe">components/modals/MakeCatalogModal.tsx</text>
</g>
<!-- components/lists/CatalogList.tsx&#45;&gt;components/modals/MakeCatalogModal.tsx -->
<g id="edge30" class="edge">
<title>components/lists/CatalogList.tsx&#45;&gt;components/modals/MakeCatalogModal.tsx</title>
<path fill="none" stroke="#757575" d="M698.06,-639.06C750.45,-659.22 858.46,-700.78 916.89,-723.26"/>
<polygon fill="#757575" stroke="#757575" points="915.92,-726.64 926.51,-726.96 918.43,-720.1 915.92,-726.64"/>
</g>
<!-- components/modals/MakeCatalogModal.tsx&#45;&gt;components/forms/CatalogForm.tsx -->
<g id="edge43" class="edge">
<title>components/modals/MakeCatalogModal.tsx&#45;&gt;components/forms/CatalogForm.tsx</title>
<path fill="none" stroke="#757575" d="M1047.1,-750.08C1065.18,-755.42 1083.19,-763.19 1098,-774.5 1123.63,-794.07 1110.2,-815.73 1134,-837.5 1158.97,-860.34 1193.51,-876.28 1221.97,-886.53"/>
<polygon fill="#757575" stroke="#757575" points="1221.16,-889.95 1231.76,-889.92 1223.45,-883.34 1221.16,-889.95"/>
</g>
<!-- components/modals/MakeCatalogModal.tsx&#45;&gt;types/dto.d.ts -->
<g id="edge45" class="edge">
<title>components/modals/MakeCatalogModal.tsx&#45;&gt;types/dto.d.ts</title>
<path fill="none" stroke="#757575" d="M1098.1,-739.65C1188.61,-739.29 1308.97,-736.71 1415,-727.5 1552.01,-715.6 1588.81,-719.43 1721,-681.5 1769.19,-667.67 1821.87,-642.91 1854.05,-626.59"/>
<polygon fill="#757575" stroke="#757575" points="1855.66,-629.7 1862.96,-622.03 1852.46,-623.47 1855.66,-629.7"/>
</g>
<!-- components/modals/MakeCatalogModal.tsx&#45;&gt;types/types.d.ts -->
<g id="edge46" class="edge">
<title>components/modals/MakeCatalogModal.tsx&#45;&gt;types/types.d.ts</title>
<path fill="none" stroke="#757575" d="M1000.76,-750.01C1158.98,-790.29 1722.14,-907.98 2014,-630.5 2098.66,-550.01 2117.64,-399.82 2121.83,-343.55"/>
<polygon fill="#757575" stroke="#757575" points="2125.34,-343.51 2122.5,-333.31 2118.35,-343.06 2125.34,-343.51"/>
</g>
<!-- components/modals/Modal.tsx -->
<g id="node33" class="node">
<title>components/modals/Modal.tsx</title>
<path fill="none" stroke="#cfffac" d="M1367.33,-719C1367.33,-719 1181.67,-719 1181.67,-719 1177.83,-719 1174,-715.17 1174,-711.33 1174,-711.33 1174,-703.67 1174,-703.67 1174,-699.83 1177.83,-696 1181.67,-696 1181.67,-696 1367.33,-696 1367.33,-696 1371.17,-696 1375,-699.83 1375,-703.67 1375,-703.67 1375,-711.33 1375,-711.33 1375,-715.17 1371.17,-719 1367.33,-719"/>
<text text-anchor="middle" x="1274.5" y="-703.8" font-family="Arial" font-size="14.00" fill="#cfffac">components/modals/Modal.tsx</text>
</g>
<!-- components/modals/MakeCatalogModal.tsx&#45;&gt;components/modals/Modal.tsx -->
<g id="edge44" class="edge">
<title>components/modals/MakeCatalogModal.tsx&#45;&gt;components/modals/Modal.tsx</title>
<path fill="none" stroke="#757575" d="M1075.79,-726.96C1104.66,-724.12 1135.46,-721.08 1163.95,-718.28"/>
<polygon fill="#757575" stroke="#757575" points="1164.31,-721.76 1173.92,-717.3 1163.63,-714.8 1164.31,-721.76"/>
</g>
<!-- components/lists/ProductList.tsx -->
<g id="node27" class="node">
<title>components/lists/ProductList.tsx</title>
<path fill="none" stroke="#c6c5fe" d="M764.33,-367C764.33,-367 569.67,-367 569.67,-367 565.83,-367 562,-363.17 562,-359.33 562,-359.33 562,-351.67 562,-351.67 562,-347.83 565.83,-344 569.67,-344 569.67,-344 764.33,-344 764.33,-344 768.17,-344 772,-347.83 772,-351.67 772,-351.67 772,-359.33 772,-359.33 772,-363.17 768.17,-367 764.33,-367"/>
<text text-anchor="middle" x="667" y="-351.8" font-family="Arial" font-size="14.00" fill="#c6c5fe">components/lists/ProductList.tsx</text>
</g>
<!-- components/lists/ProductList.tsx&#45;&gt;main/RoutePath.ts -->
<g id="edge34" class="edge">
<title>components/lists/ProductList.tsx&#45;&gt;main/RoutePath.ts</title>
<path fill="none" stroke="#757575" d="M725.54,-343.96C744.5,-338.21 764.84,-329.76 781,-317.5 803.68,-300.28 793.84,-281.06 817,-264.5 922.33,-189.18 974.04,-224.94 1098,-187.5 1143.63,-173.72 1195.39,-156.4 1230.81,-144.3"/>
<polygon fill="#757575" stroke="#757575" points="1232.02,-147.58 1240.34,-141.03 1229.75,-140.96 1232.02,-147.58"/>
</g>
<!-- components/lists/ProductList.tsx&#45;&gt;types/dto.d.ts -->
<g id="edge35" class="edge">
<title>components/lists/ProductList.tsx&#45;&gt;types/dto.d.ts</title>
<path fill="none" stroke="#757575" d="M772.3,-351.25C1004.6,-343.44 1556.95,-334.36 1721,-416.5 1798.14,-455.12 1852.94,-548.2 1874.44,-589.8"/>
<polygon fill="#757575" stroke="#757575" points="1871.44,-591.63 1879.07,-598.98 1877.69,-588.48 1871.44,-591.63"/>
</g>
<!-- components/lists/ProductList.tsx&#45;&gt;types/types.d.ts -->
<g id="edge36" class="edge">
<title>components/lists/ProductList.tsx&#45;&gt;types/types.d.ts</title>
<path fill="none" stroke="#757575" d="M767.34,-343.97C962.81,-321.38 1384.26,-273.15 1451,-269.5 1700.85,-255.82 1769.95,-214.27 2014,-269.5 2043.75,-276.23 2074.89,-292.1 2096.23,-304.56"/>
<polygon fill="#757575" stroke="#757575" points="2094.64,-307.69 2105.02,-309.82 2098.24,-301.68 2094.64,-307.69"/>
</g>
<!-- components/modals/MakeProductModal.tsx -->
<g id="node28" class="node">
<title>components/modals/MakeProductModal.tsx</title>
<path fill="none" stroke="#c6c5fe" d="M1090.33,-506C1090.33,-506 824.67,-506 824.67,-506 820.83,-506 817,-502.17 817,-498.33 817,-498.33 817,-490.67 817,-490.67 817,-486.83 820.83,-483 824.67,-483 824.67,-483 1090.33,-483 1090.33,-483 1094.17,-483 1098,-486.83 1098,-490.67 1098,-490.67 1098,-498.33 1098,-498.33 1098,-502.17 1094.17,-506 1090.33,-506"/>
<text text-anchor="middle" x="957.5" y="-490.8" font-family="Arial" font-size="14.00" fill="#c6c5fe">components/modals/MakeProductModal.tsx</text>
</g>
<!-- components/lists/ProductList.tsx&#45;&gt;components/modals/MakeProductModal.tsx -->
<g id="edge33" class="edge">
<title>components/lists/ProductList.tsx&#45;&gt;components/modals/MakeProductModal.tsx</title>
<path fill="none" stroke="#757575" d="M692.1,-367.11C743.54,-391.9 864.19,-450.02 923.03,-478.38"/>
<polygon fill="#757575" stroke="#757575" points="921.74,-481.64 932.26,-482.82 924.77,-475.33 921.74,-481.64"/>
</g>
<!-- utils/Array.ts -->
<g id="node29" class="node">
<title>utils/Array.ts</title>
<path fill="none" stroke="#cfffac" d="M994.83,-297C994.83,-297 920.17,-297 920.17,-297 916.33,-297 912.5,-293.17 912.5,-289.33 912.5,-289.33 912.5,-281.67 912.5,-281.67 912.5,-277.83 916.33,-274 920.17,-274 920.17,-274 994.83,-274 994.83,-274 998.67,-274 1002.5,-277.83 1002.5,-281.67 1002.5,-281.67 1002.5,-289.33 1002.5,-289.33 1002.5,-293.17 998.67,-297 994.83,-297"/>
<text text-anchor="middle" x="957.5" y="-281.8" font-family="Arial" font-size="14.00" fill="#cfffac">utils/Array.ts</text>
</g>
<!-- components/lists/ProductList.tsx&#45;&gt;utils/Array.ts -->
<g id="edge37" class="edge">
<title>components/lists/ProductList.tsx&#45;&gt;utils/Array.ts</title>
<path fill="none" stroke="#757575" d="M703.25,-343.98C733.27,-334.43 777.66,-320.95 817,-311.5 844.91,-304.8 876.32,-298.81 902.26,-294.27"/>
<polygon fill="#757575" stroke="#757575" points="903.01,-297.69 912.27,-292.55 901.83,-290.8 903.01,-297.69"/>
</g>
<!-- components/modals/MakeProductModal.tsx&#45;&gt;types/dto.d.ts -->
<g id="edge49" class="edge">
<title>components/modals/MakeProductModal.tsx&#45;&gt;types/dto.d.ts</title>
<path fill="none" stroke="#757575" d="M1098.12,-496.91C1285.13,-501.14 1606.69,-512.21 1721,-539.5 1770.31,-551.27 1823.47,-577.05 1855.36,-594.09"/>
<polygon fill="#757575" stroke="#757575" points="1853.69,-597.17 1864.15,-598.86 1857.03,-591.02 1853.69,-597.17"/>
</g>
<!-- components/modals/MakeProductModal.tsx&#45;&gt;types/types.d.ts -->
<g id="edge50" class="edge">
<title>components/modals/MakeProductModal.tsx&#45;&gt;types/types.d.ts</title>
<path fill="none" stroke="#757575" d="M1004.87,-482.97C1040.14,-474.43 1089.95,-462.88 1134,-454.5 1258.12,-430.89 1302.67,-469.33 1415,-411.5 1435.4,-401 1430.47,-384.75 1451,-374.5 1573.67,-313.27 1620.37,-346.8 1757,-335.5 1862.4,-326.78 1985.33,-323.48 2058.53,-322.24"/>
<polygon fill="#757575" stroke="#757575" points="2059.02,-325.73 2068.96,-322.07 2058.9,-318.74 2059.02,-325.73"/>
</g>
<!-- components/modals/MakeProductModal.tsx&#45;&gt;components/forms/ProductForm.tsx -->
<g id="edge47" class="edge">
<title>components/modals/MakeProductModal.tsx&#45;&gt;components/forms/ProductForm.tsx</title>
<path fill="none" stroke="#757575" d="M1098.04,-486.08C1114.53,-485.09 1131.28,-484.08 1147.57,-483.1"/>
<polygon fill="#757575" stroke="#757575" points="1147.87,-486.58 1157.64,-482.49 1147.45,-479.6 1147.87,-486.58"/>
</g>
<!-- components/modals/MakeProductModal.tsx&#45;&gt;components/modals/Modal.tsx -->
<g id="edge48" class="edge">
<title>components/modals/MakeProductModal.tsx&#45;&gt;components/modals/Modal.tsx</title>
<path fill="none" stroke="#757575" d="M975.88,-506.26C1028.38,-541.75 1185.47,-647.97 1247.7,-690.05"/>
<polygon fill="#757575" stroke="#757575" points="1245.92,-693.08 1256.17,-695.78 1249.85,-687.28 1245.92,-693.08"/>
</g>
<!-- components/menus/DropdownMenu.tsx&#45;&gt;types/types.d.ts -->
<g id="edge38" class="edge">
<title>components/menus/DropdownMenu.tsx&#45;&gt;types/types.d.ts</title>
<path fill="none" stroke="#757575" d="M1990.28,-23.05C1998.86,-26.78 2006.93,-31.51 2014,-37.5 2096.21,-107.13 2116.61,-246.12 2121.51,-299.72"/>
<polygon fill="#757575" stroke="#757575" points="2118.03,-300.12 2122.34,-309.8 2125.01,-299.55 2118.03,-300.12"/>
</g>
<!-- main/MenuConfig.ts&#45;&gt;main/RoutePath.ts -->
<g id="edge93" class="edge">
<title>main/MenuConfig.ts&#45;&gt;main/RoutePath.ts</title>
<path fill="none" stroke="#757575" d="M1026.85,-159.25C1078,-153.08 1147.84,-144.66 1200.15,-138.35"/>
<polygon fill="#757575" stroke="#757575" points="1200.86,-141.79 1210.37,-137.12 1200.02,-134.84 1200.86,-141.79"/>
</g>
<!-- main/MenuConfig.ts&#45;&gt;types/types.d.ts -->
<g id="edge94" class="edge">
<title>main/MenuConfig.ts&#45;&gt;types/types.d.ts</title>
<path fill="none" stroke="#757575" d="M1026.88,-165.97C1246.59,-161.49 1925.43,-151.26 2014,-193.5 2061.58,-216.19 2096.27,-270.56 2112.58,-300.63"/>
<polygon fill="#757575" stroke="#757575" points="2109.65,-302.58 2117.4,-309.81 2115.85,-299.33 2109.65,-302.58"/>
</g>
<!-- components/menus/SubMenu.tsx -->
<g id="node32" class="node">
<title>components/menus/SubMenu.tsx</title>
<path fill="none" stroke="#c6c5fe" d="M768.83,-219C768.83,-219 565.17,-219 565.17,-219 561.33,-219 557.5,-215.17 557.5,-211.33 557.5,-211.33 557.5,-203.67 557.5,-203.67 557.5,-199.83 561.33,-196 565.17,-196 565.17,-196 768.83,-196 768.83,-196 772.67,-196 776.5,-199.83 776.5,-203.67 776.5,-203.67 776.5,-211.33 776.5,-211.33 776.5,-215.17 772.67,-219 768.83,-219"/>
<text text-anchor="middle" x="667" y="-203.8" font-family="Arial" font-size="14.00" fill="#c6c5fe">components/menus/SubMenu.tsx</text>
</g>
<!-- components/menus/SubMenu.tsx&#45;&gt;types/types.d.ts -->
<g id="edge42" class="edge">
<title>components/menus/SubMenu.tsx&#45;&gt;types/types.d.ts</title>
<path fill="none" stroke="#757575" d="M776.56,-207.5C897.73,-207.5 1099.66,-207.5 1273.5,-207.5 1273.5,-207.5 1273.5,-207.5 1587,-207.5 1777.28,-207.5 1836.03,-171.18 2014,-238.5 2050.53,-252.32 2085.04,-282.56 2105.1,-302.47"/>
<polygon fill="#757575" stroke="#757575" points="2102.78,-305.11 2112.29,-309.79 2107.78,-300.2 2102.78,-305.11"/>
</g>
<!-- components/pages/AccountPage.tsx -->
<g id="node34" class="node">
<title>components/pages/AccountPage.tsx</title>
<path fill="none" stroke="#c6c5fe" d="M502.33,-260C502.33,-260 281.67,-260 281.67,-260 277.83,-260 274,-256.17 274,-252.33 274,-252.33 274,-244.67 274,-244.67 274,-240.83 277.83,-237 281.67,-237 281.67,-237 502.33,-237 502.33,-237 506.17,-237 510,-240.83 510,-244.67 510,-244.67 510,-252.33 510,-252.33 510,-256.17 506.17,-260 502.33,-260"/>
<text text-anchor="middle" x="392" y="-244.8" font-family="Arial" font-size="14.00" fill="#c6c5fe">components/pages/AccountPage.tsx</text>
</g>
<!-- components/pages/AccountPage.tsx&#45;&gt;main/MenuConfig.ts -->
<g id="edge53" class="edge">
<title>components/pages/AccountPage.tsx&#45;&gt;main/MenuConfig.ts</title>
<path fill="none" stroke="#757575" d="M510.32,-250.5C587.82,-249.78 691.27,-244.92 781,-227.5 830.84,-217.82 885.86,-197.31 920.78,-182.97"/>
<polygon fill="#757575" stroke="#757575" points="922.18,-186.18 930.07,-179.11 919.49,-179.72 922.18,-186.18"/>
</g>
<!-- components/pages/AccountPage.tsx&#45;&gt;components/menus/SubMenu.tsx -->
<g id="edge51" class="edge">
<title>components/pages/AccountPage.tsx&#45;&gt;components/menus/SubMenu.tsx</title>
<path fill="none" stroke="#757575" d="M469.77,-236.97C503.79,-231.86 543.98,-225.83 579.09,-220.55"/>
<polygon fill="#757575" stroke="#757575" points="579.96,-223.96 589.33,-219.01 578.92,-217.04 579.96,-223.96"/>
</g>
<!-- components/pages/Page.tsx -->
<g id="node35" class="node">
<title>components/pages/Page.tsx</title>
<path fill="none" stroke="#cfffac" d="M753.33,-309C753.33,-309 580.67,-309 580.67,-309 576.83,-309 573,-305.17 573,-301.33 573,-301.33 573,-293.67 573,-293.67 573,-289.83 576.83,-286 580.67,-286 580.67,-286 753.33,-286 753.33,-286 757.17,-286 761,-289.83 761,-293.67 761,-293.67 761,-301.33 761,-301.33 761,-305.17 757.17,-309 753.33,-309"/>
<text text-anchor="middle" x="667" y="-293.8" font-family="Arial" font-size="14.00" fill="#cfffac">components/pages/Page.tsx</text>
</g>
<!-- components/pages/AccountPage.tsx&#45;&gt;components/pages/Page.tsx -->
<g id="edge52" class="edge">
<title>components/pages/AccountPage.tsx&#45;&gt;components/pages/Page.tsx</title>
<path fill="none" stroke="#757575" d="M466.83,-260.01C483.36,-262.69 500.79,-265.62 517,-268.5 543.91,-273.29 573.48,-278.96 599.13,-284.01"/>
<polygon fill="#757575" stroke="#757575" points="598.63,-287.48 609.12,-285.98 599.99,-280.61 598.63,-287.48"/>
</g>
<!-- components/pages/AuthPage.scss -->
<g id="node36" class="node">
<title>components/pages/AuthPage.scss</title>
<path fill="none" stroke="#cfffac" d="M1690.83,-1144C1690.83,-1144 1481.17,-1144 1481.17,-1144 1477.33,-1144 1473.5,-1140.17 1473.5,-1136.33 1473.5,-1136.33 1473.5,-1128.67 1473.5,-1128.67 1473.5,-1124.83 1477.33,-1121 1481.17,-1121 1481.17,-1121 1690.83,-1121 1690.83,-1121 1694.67,-1121 1698.5,-1124.83 1698.5,-1128.67 1698.5,-1128.67 1698.5,-1136.33 1698.5,-1136.33 1698.5,-1140.17 1694.67,-1144 1690.83,-1144"/>
<text text-anchor="middle" x="1586" y="-1128.8" font-family="Arial" font-size="14.00" fill="#cfffac">components/pages/AuthPage.scss</text>
</g>
<!-- components/pages/AuthPage.tsx -->
<g id="node37" class="node">
<title>components/pages/AuthPage.tsx</title>
<path fill="none" stroke="#c6c5fe" d="M1374.33,-1172C1374.33,-1172 1174.67,-1172 1174.67,-1172 1170.83,-1172 1167,-1168.17 1167,-1164.33 1167,-1164.33 1167,-1156.67 1167,-1156.67 1167,-1152.83 1170.83,-1149 1174.67,-1149 1174.67,-1149 1374.33,-1149 1374.33,-1149 1378.17,-1149 1382,-1152.83 1382,-1156.67 1382,-1156.67 1382,-1164.33 1382,-1164.33 1382,-1168.17 1378.17,-1172 1374.33,-1172"/>
<text text-anchor="middle" x="1274.5" y="-1156.8" font-family="Arial" font-size="14.00" fill="#c6c5fe">components/pages/AuthPage.tsx</text>
</g>
<!-- components/pages/AuthPage.tsx&#45;&gt;services/Firebase.ts -->
<g id="edge58" class="edge">
<title>components/pages/AuthPage.tsx&#45;&gt;services/Firebase.ts</title>
<path fill="none" stroke="#757575" d="M1292.58,-1172.14C1344.16,-1207.31 1498.5,-1312.53 1559.65,-1354.22"/>
<polygon fill="#757575" stroke="#757575" points="1557.74,-1357.15 1567.97,-1359.89 1561.68,-1351.37 1557.74,-1357.15"/>
</g>
<!-- components/pages/AuthPage.tsx&#45;&gt;components/AuthFrom.tsx -->
<g id="edge54" class="edge">
<title>components/pages/AuthPage.tsx&#45;&gt;components/AuthFrom.tsx</title>
<path fill="none" stroke="#757575" d="M1326.28,-1172.03C1361.17,-1179.46 1408.65,-1188.62 1451,-1193.5 1566,-1206.76 1699.13,-1210.95 1787.2,-1212.18"/>
<polygon fill="#757575" stroke="#757575" points="1787.4,-1215.68 1797.44,-1212.31 1787.49,-1208.68 1787.4,-1215.68"/>
</g>
<!-- components/pages/AuthPage.tsx&#45;&gt;components/Form.tsx -->
<g id="edge55" class="edge">
<title>components/pages/AuthPage.tsx&#45;&gt;components/Form.tsx</title>
<path fill="none" stroke="#757575" d="M1291.87,-1148.68C1321.72,-1127.95 1387.76,-1085.77 1451,-1070.5 1572.62,-1041.13 1897.63,-1024.55 2014,-1070.5 2055.65,-1086.95 2090.73,-1127.66 2109.14,-1152.39"/>
<polygon fill="#757575" stroke="#757575" points="2106.45,-1154.64 2115.15,-1160.7 2112.12,-1150.54 2106.45,-1154.64"/>
</g>
<!-- components/pages/AuthPage.tsx&#45;&gt;components/pages/AuthPage.scss -->
<g id="edge56" class="edge">
<title>components/pages/AuthPage.tsx&#45;&gt;components/pages/AuthPage.scss</title>
<path fill="none" stroke="#757575" d="M1382.01,-1150.86C1408.14,-1148.5 1436.3,-1145.95 1463.09,-1143.53"/>
<polygon fill="#757575" stroke="#757575" points="1463.64,-1146.99 1473.28,-1142.61 1463.01,-1140.02 1463.64,-1146.99"/>
</g>
<!-- containers/SignUpModal.tsx -->
<g id="node38" class="node">
<title>containers/SignUpModal.tsx</title>
<path fill="none" stroke="#c6c5fe" d="M1670.83,-1185C1670.83,-1185 1501.17,-1185 1501.17,-1185 1497.33,-1185 1493.5,-1181.17 1493.5,-1177.33 1493.5,-1177.33 1493.5,-1169.67 1493.5,-1169.67 1493.5,-1165.83 1497.33,-1162 1501.17,-1162 1501.17,-1162 1670.83,-1162 1670.83,-1162 1674.67,-1162 1678.5,-1165.83 1678.5,-1169.67 1678.5,-1169.67 1678.5,-1177.33 1678.5,-1177.33 1678.5,-1181.17 1674.67,-1185 1670.83,-1185"/>
<text text-anchor="middle" x="1586" y="-1169.8" font-family="Arial" font-size="14.00" fill="#c6c5fe">containers/SignUpModal.tsx</text>
</g>
<!-- components/pages/AuthPage.tsx&#45;&gt;containers/SignUpModal.tsx -->
<g id="edge57" class="edge">
<title>components/pages/AuthPage.tsx&#45;&gt;containers/SignUpModal.tsx</title>
<path fill="none" stroke="#757575" d="M1382.01,-1164.97C1414.67,-1166.35 1450.52,-1167.85 1482.88,-1169.21"/>
<polygon fill="#757575" stroke="#757575" points="1483.12,-1172.72 1493.26,-1169.65 1483.41,-1165.73 1483.12,-1172.72"/>
</g>
<!-- containers/SignUpModal.tsx&#45;&gt;components/AuthFrom.tsx -->
<g id="edge77" class="edge">
<title>containers/SignUpModal.tsx&#45;&gt;components/AuthFrom.tsx</title>
<path fill="none" stroke="#757575" d="M1675.05,-1185.04C1710.37,-1189.67 1751.2,-1195.02 1787.37,-1199.77"/>
<polygon fill="#757575" stroke="#757575" points="1787.07,-1203.26 1797.44,-1201.09 1787.98,-1196.32 1787.07,-1203.26"/>
</g>
<!-- containers/SignUpModal.tsx&#45;&gt;components/Form.tsx -->
<g id="edge78" class="edge">
<title>containers/SignUpModal.tsx&#45;&gt;components/Form.tsx</title>
<path fill="none" stroke="#757575" d="M1678.53,-1173.33C1779.89,-1173.14 1941.88,-1172.84 2039.78,-1172.66"/>
<polygon fill="#757575" stroke="#757575" points="2039.93,-1176.16 2049.92,-1172.64 2039.92,-1169.16 2039.93,-1176.16"/>
</g>
<!-- components/pages/HomePage.tsx -->
<g id="node39" class="node">
<title>components/pages/HomePage.tsx</title>
<path fill="none" stroke="#c6c5fe" d="M496.33,-342C496.33,-342 287.67,-342 287.67,-342 283.83,-342 280,-338.17 280,-334.33 280,-334.33 280,-326.67 280,-326.67 280,-322.83 283.83,-319 287.67,-319 287.67,-319 496.33,-319 496.33,-319 500.17,-319 504,-322.83 504,-326.67 504,-326.67 504,-334.33 504,-334.33 504,-338.17 500.17,-342 496.33,-342"/>
<text text-anchor="middle" x="392" y="-326.8" font-family="Arial" font-size="14.00" fill="#c6c5fe">components/pages/HomePage.tsx</text>
</g>
<!-- components/pages/HomePage.tsx&#45;&gt;components/pages/Page.tsx -->
<g id="edge59" class="edge">
<title>components/pages/HomePage.tsx&#45;&gt;components/pages/Page.tsx</title>
<path fill="none" stroke="#757575" d="M488.48,-318.96C512.54,-316.05 538.47,-312.92 562.88,-309.97"/>
<polygon fill="#757575" stroke="#757575" points="563.36,-313.43 572.87,-308.76 562.52,-306.48 563.36,-313.43"/>
</g>
<!-- components/pages/MessagesPage.tsx -->
<g id="node40" class="node">
<title>components/pages/MessagesPage.tsx</title>
<path fill="none" stroke="#c6c5fe" d="M509.33,-383C509.33,-383 274.67,-383 274.67,-383 270.83,-383 267,-379.17 267,-375.33 267,-375.33 267,-367.67 267,-367.67 267,-363.83 270.83,-360 274.67,-360 274.67,-360 509.33,-360 509.33,-360 513.17,-360 517,-363.83 517,-367.67 517,-367.67 517,-375.33 517,-375.33 517,-379.17 513.17,-383 509.33,-383"/>
<text text-anchor="middle" x="392" y="-367.8" font-family="Arial" font-size="14.00" fill="#c6c5fe">components/pages/MessagesPage.tsx</text>
</g>
<!-- components/pages/MessagesPage.tsx&#45;&gt;components/pages/Page.tsx -->
<g id="edge60" class="edge">
<title>components/pages/MessagesPage.tsx&#45;&gt;components/pages/Page.tsx</title>
<path fill="none" stroke="#757575" d="M478.37,-359.94C491.43,-357.34 504.67,-354.22 517,-350.5 533.76,-345.44 536.66,-340.79 553,-334.5 574.03,-326.41 597.66,-318.49 617.86,-312.07"/>
<polygon fill="#757575" stroke="#757575" points="618.99,-315.39 627.48,-309.04 616.89,-308.71 618.99,-315.39"/>
</g>
<!-- components/pages/NotFoundPage.tsx -->
<g id="node41" class="node">
<title>components/pages/NotFoundPage.tsx</title>
<path fill="none" stroke="#cfffac" d="M507.83,-139C507.83,-139 276.17,-139 276.17,-139 272.33,-139 268.5,-135.17 268.5,-131.33 268.5,-131.33 268.5,-123.67 268.5,-123.67 268.5,-119.83 272.33,-116 276.17,-116 276.17,-116 507.83,-116 507.83,-116 511.67,-116 515.5,-119.83 515.5,-123.67 515.5,-123.67 515.5,-131.33 515.5,-131.33 515.5,-135.17 511.67,-139 507.83,-139"/>
<text text-anchor="middle" x="392" y="-123.8" font-family="Arial" font-size="14.00" fill="#cfffac">components/pages/NotFoundPage.tsx</text>
</g>
<!-- components/pages/SellPage.tsx -->
<g id="node42" class="node">
<title>components/pages/SellPage.tsx</title>
<path fill="none" stroke="#c6c5fe" d="M489.33,-219C489.33,-219 294.67,-219 294.67,-219 290.83,-219 287,-215.17 287,-211.33 287,-211.33 287,-203.67 287,-203.67 287,-199.83 290.83,-196 294.67,-196 294.67,-196 489.33,-196 489.33,-196 493.17,-196 497,-199.83 497,-203.67 497,-203.67 497,-211.33 497,-211.33 497,-215.17 493.17,-219 489.33,-219"/>
<text text-anchor="middle" x="392" y="-203.8" font-family="Arial" font-size="14.00" fill="#c6c5fe">components/pages/SellPage.tsx</text>
</g>
<!-- components/pages/SellPage.tsx&#45;&gt;main/MenuConfig.ts -->
<g id="edge63" class="edge">
<title>components/pages/SellPage.tsx&#45;&gt;main/MenuConfig.ts</title>
<path fill="none" stroke="#757575" d="M470.57,-195.99C496.71,-192.47 526.07,-188.9 553,-186.5 665.71,-176.47 796.63,-171.53 878.03,-169.26"/>
<polygon fill="#757575" stroke="#757575" points="878.3,-172.75 888.2,-168.98 878.11,-165.75 878.3,-172.75"/>
</g>
<!-- components/pages/SellPage.tsx&#45;&gt;components/menus/SubMenu.tsx -->
<g id="edge61" class="edge">
<title>components/pages/SellPage.tsx&#45;&gt;components/menus/SubMenu.tsx</title>
<path fill="none" stroke="#757575" d="M497.38,-207.5C513.58,-207.5 530.43,-207.5 546.93,-207.5"/>
<polygon fill="#757575" stroke="#757575" points="547.15,-211 557.15,-207.5 547.15,-204 547.15,-211"/>
</g>
<!-- components/pages/SellPage.tsx&#45;&gt;components/pages/Page.tsx -->
<g id="edge62" class="edge">
<title>components/pages/SellPage.tsx&#45;&gt;components/pages/Page.tsx</title>
<path fill="none" stroke="#757575" d="M483.42,-219.05C494.84,-221.4 506.27,-224.19 517,-227.5 560.61,-240.97 607.8,-264.88 637.13,-280.96"/>
<polygon fill="#757575" stroke="#757575" points="635.56,-284.09 646,-285.88 638.95,-277.97 635.56,-284.09"/>
</g>
<!-- components/views/CatalogView.tsx -->
<g id="node43" class="node">
<title>components/views/CatalogView.tsx</title>
<path fill="none" stroke="#c6c5fe" d="M498.33,-506C498.33,-506 285.67,-506 285.67,-506 281.83,-506 278,-502.17 278,-498.33 278,-498.33 278,-490.67 278,-490.67 278,-486.83 281.83,-483 285.67,-483 285.67,-483 498.33,-483 498.33,-483 502.17,-483 506,-486.83 506,-490.67 506,-490.67 506,-498.33 506,-498.33 506,-502.17 502.17,-506 498.33,-506"/>
<text text-anchor="middle" x="392" y="-490.8" font-family="Arial" font-size="14.00" fill="#c6c5fe">components/views/CatalogView.tsx</text>
</g>
<!-- components/views/CatalogView.tsx&#45;&gt;types/dto.d.ts -->
<g id="edge67" class="edge">
<title>components/views/CatalogView.tsx&#45;&gt;types/dto.d.ts</title>
<path fill="none" stroke="#757575" d="M506.18,-504.56C521.91,-505.91 537.85,-507.26 553,-508.5 806.61,-529.31 1604.31,-589.43 1826.53,-606.14"/>
<polygon fill="#757575" stroke="#757575" points="1826.44,-609.65 1836.67,-606.91 1826.96,-602.67 1826.44,-609.65"/>
</g>
<!-- components/views/CatalogView.tsx&#45;&gt;components/lists/ProductList.tsx -->
<g id="edge64" class="edge">
<title>components/views/CatalogView.tsx&#45;&gt;components/lists/ProductList.tsx</title>
<path fill="none" stroke="#757575" d="M416.36,-482.94C441.32,-470.55 482.03,-450.28 517,-432.5 557.75,-411.78 604.56,-387.51 634.67,-371.84"/>
<polygon fill="#757575" stroke="#757575" points="636.58,-374.8 643.83,-367.07 633.35,-368.59 636.58,-374.8"/>
</g>
<!-- components/views/CatalogView.tsx&#45;&gt;components/modals/MakeProductModal.tsx -->
<g id="edge65" class="edge">
<title>components/views/CatalogView.tsx&#45;&gt;components/modals/MakeProductModal.tsx</title>
<path fill="none" stroke="#757575" d="M506.02,-494.5C592.43,-494.5 712.36,-494.5 806.75,-494.5"/>
<polygon fill="#757575" stroke="#757575" points="806.96,-498 816.96,-494.5 806.96,-491 806.96,-498"/>
</g>
<!-- services/CatalogService.ts -->
<g id="node44" class="node">
<title>services/CatalogService.ts</title>
<path fill="none" stroke="#c6c5fe" d="M747.33,-598C747.33,-598 586.67,-598 586.67,-598 582.83,-598 579,-594.17 579,-590.33 579,-590.33 579,-582.67 579,-582.67 579,-578.83 582.83,-575 586.67,-575 586.67,-575 747.33,-575 747.33,-575 751.17,-575 755,-578.83 755,-582.67 755,-582.67 755,-590.33 755,-590.33 755,-594.17 751.17,-598 747.33,-598"/>
<text text-anchor="middle" x="667" y="-582.8" font-family="Arial" font-size="14.00" fill="#c6c5fe">services/CatalogService.ts</text>
</g>
<!-- components/views/CatalogView.tsx&#45;&gt;services/CatalogService.ts -->
<g id="edge66" class="edge">
<title>components/views/CatalogView.tsx&#45;&gt;services/CatalogService.ts</title>
<path fill="none" stroke="#757575" d="M417.47,-506.08C448.46,-520.4 503.76,-544.8 553,-560.5 567.18,-565.02 582.6,-569.1 597.35,-572.62"/>
<polygon fill="#757575" stroke="#757575" points="596.9,-576.1 607.44,-574.96 598.49,-569.29 596.9,-576.1"/>
</g>
<!-- services/CatalogService.ts&#45;&gt;types/dto.d.ts -->
<g id="edge96" class="edge">
<title>services/CatalogService.ts&#45;&gt;types/dto.d.ts</title>
<path fill="none" stroke="#757575" d="M755.49,-588.23C990.45,-592.86 1630.66,-605.49 1826.69,-609.36"/>
<polygon fill="#757575" stroke="#757575" points="1826.71,-612.86 1836.78,-609.56 1826.85,-605.86 1826.71,-612.86"/>
</g>
<!-- services/CatalogService.ts&#45;&gt;types/types.d.ts -->
<g id="edge97" class="edge">
<title>services/CatalogService.ts&#45;&gt;types/types.d.ts</title>
<path fill="none" stroke="#757575" d="M679.56,-574.84C703.17,-551.75 759.56,-500.11 817,-473.5 1201.13,-295.54 1333.75,-328.49 1757,-319.5 1862.51,-317.26 1985.16,-318.77 2058.31,-320.1"/>
<polygon fill="#757575" stroke="#757575" points="2058.67,-323.61 2068.73,-320.3 2058.8,-316.61 2058.67,-323.61"/>
</g>
<!-- components/views/CatalogsView.tsx -->
<g id="node45" class="node">
<title>components/views/CatalogsView.tsx</title>
<path fill="none" stroke="#c6c5fe" d="M501.83,-639C501.83,-639 282.17,-639 282.17,-639 278.33,-639 274.5,-635.17 274.5,-631.33 274.5,-631.33 274.5,-623.67 274.5,-623.67 274.5,-619.83 278.33,-616 282.17,-616 282.17,-616 501.83,-616 501.83,-616 505.67,-616 509.5,-619.83 509.5,-623.67 509.5,-623.67 509.5,-631.33 509.5,-631.33 509.5,-635.17 505.67,-639 501.83,-639"/>
<text text-anchor="middle" x="392" y="-623.8" font-family="Arial" font-size="14.00" fill="#c6c5fe">components/views/CatalogsView.tsx</text>
</g>
<!-- components/views/CatalogsView.tsx&#45;&gt;types/dto.d.ts -->
<g id="edge71" class="edge">
<title>components/views/CatalogsView.tsx&#45;&gt;types/dto.d.ts</title>
<path fill="none" stroke="#757575" d="M483.16,-639.05C515.27,-643.11 545.4,-646.84 553,-647.5 731.88,-663.09 776.95,-667.5 956.5,-667.5 956.5,-667.5 956.5,-667.5 1275.5,-667.5 1474.22,-667.5 1523.28,-649.42 1721,-629.5 1756.12,-625.96 1795.42,-621.41 1826.69,-617.65"/>
<polygon fill="#757575" stroke="#757575" points="1827.46,-621.09 1836.96,-616.41 1826.62,-614.14 1827.46,-621.09"/>
</g>
<!-- components/views/CatalogsView.tsx&#45;&gt;components/lists/CatalogList.tsx -->
<g id="edge68" class="edge">
<title>components/views/CatalogsView.tsx&#45;&gt;components/lists/CatalogList.tsx</title>
<path fill="none" stroke="#757575" d="M509.57,-627.5C523.56,-627.5 537.84,-627.5 551.8,-627.5"/>
<polygon fill="#757575" stroke="#757575" points="551.9,-631 561.9,-627.5 551.9,-624 551.9,-631"/>
</g>
<!-- components/views/CatalogsView.tsx&#45;&gt;components/modals/MakeCatalogModal.tsx -->
<g id="edge69" class="edge">
<title>components/views/CatalogsView.tsx&#45;&gt;components/modals/MakeCatalogModal.tsx</title>
<path fill="none" stroke="#757575" d="M422.01,-639.11C453.71,-651.36 506.22,-670.4 553,-681.5 641.62,-702.52 743.16,-716.82 822.21,-725.83"/>
<polygon fill="#757575" stroke="#757575" points="821.89,-729.32 832.22,-726.96 822.68,-722.36 821.89,-729.32"/>
</g>
<!-- components/views/CatalogsView.tsx&#45;&gt;services/CatalogService.ts -->
<g id="edge70" class="edge">
<title>components/views/CatalogsView.tsx&#45;&gt;services/CatalogService.ts</title>
<path fill="none" stroke="#757575" d="M469.77,-615.97C503.79,-610.86 543.98,-604.83 579.09,-599.55"/>
<polygon fill="#757575" stroke="#757575" points="579.96,-602.96 589.33,-598.01 578.92,-596.04 579.96,-602.96"/>
</g>
<!-- components/views/ProductView.tsx -->
<g id="node46" class="node">
<title>components/views/ProductView.tsx</title>
<path fill="none" stroke="#c6c5fe" d="M773.33,-840C773.33,-840 560.67,-840 560.67,-840 556.83,-840 553,-836.17 553,-832.33 553,-832.33 553,-824.67 553,-824.67 553,-820.83 556.83,-817 560.67,-817 560.67,-817 773.33,-817 773.33,-817 777.17,-817 781,-820.83 781,-824.67 781,-824.67 781,-832.33 781,-832.33 781,-836.17 777.17,-840 773.33,-840"/>
<text text-anchor="middle" x="667" y="-824.8" font-family="Arial" font-size="14.00" fill="#c6c5fe">components/views/ProductView.tsx</text>
</g>
<!-- components/views/ProductView.tsx&#45;&gt;services/RestService.ts -->
<g id="edge74" class="edge">
<title>components/views/ProductView.tsx&#45;&gt;services/RestService.ts</title>
<path fill="none" stroke="#757575" d="M675,-840.13C693.8,-870.24 748.59,-951.09 817,-989.5 1037.12,-1113.1 1347.29,-1110.29 1497.15,-1099.99"/>
<polygon fill="#757575" stroke="#757575" points="1497.5,-1103.48 1507.22,-1099.27 1497,-1096.49 1497.5,-1103.48"/>
</g>
<!-- components/views/ProductView.tsx&#45;&gt;types/dto.d.ts -->
<g id="edge75" class="edge">
<title>components/views/ProductView.tsx&#45;&gt;types/dto.d.ts</title>
<path fill="none" stroke="#757575" d="M781.23,-826.48C867.97,-824.59 990.6,-821.19 1098,-815.5 1167.46,-811.82 1657.53,-782.94 1721,-754.5 1785.64,-725.54 1843.2,-661.89 1869.45,-629.8"/>
<polygon fill="#757575" stroke="#757575" points="1872.18,-631.99 1875.72,-622.01 1866.73,-627.61 1872.18,-631.99"/>
</g>
<!-- components/views/ProductView.tsx&#45;&gt;types/types.d.ts -->
<g id="edge76" class="edge">
<title>components/views/ProductView.tsx&#45;&gt;types/types.d.ts</title>
<path fill="none" stroke="#757575" d="M695.19,-840.03C779.42,-874.69 1044.17,-975.5 1273.5,-975.5 1273.5,-975.5 1273.5,-975.5 1587,-975.5 1682.17,-975.5 1943.53,-1006.47 2014,-942.5 2105.11,-859.79 2120.26,-443.36 2122.6,-343.19"/>
<polygon fill="#757575" stroke="#757575" points="2126.1,-343.13 2122.81,-333.06 2119.1,-342.98 2126.1,-343.13"/>
</g>
<!-- components/views/ProductView.tsx&#45;&gt;components/modals/MakeProductModal.tsx -->
<g id="edge72" class="edge">
<title>components/views/ProductView.tsx&#45;&gt;components/modals/MakeProductModal.tsx</title>
<path fill="none" stroke="#757575" d="M678.27,-816.61C721.12,-767 885.96,-576.17 939.55,-514.12"/>
<polygon fill="#757575" stroke="#757575" points="942.47,-516.1 946.36,-506.24 937.17,-511.52 942.47,-516.1"/>
</g>
<!-- services/ProductService.ts -->
<g id="node47" class="node">
<title>services/ProductService.ts</title>
<path fill="none" stroke="#c6c5fe" d="M1037.83,-807C1037.83,-807 877.17,-807 877.17,-807 873.33,-807 869.5,-803.17 869.5,-799.33 869.5,-799.33 869.5,-791.67 869.5,-791.67 869.5,-787.83 873.33,-784 877.17,-784 877.17,-784 1037.83,-784 1037.83,-784 1041.67,-784 1045.5,-787.83 1045.5,-791.67 1045.5,-791.67 1045.5,-799.33 1045.5,-799.33 1045.5,-803.17 1041.67,-807 1037.83,-807"/>
<text text-anchor="middle" x="957.5" y="-791.8" font-family="Arial" font-size="14.00" fill="#c6c5fe">services/ProductService.ts</text>
</g>
<!-- components/views/ProductView.tsx&#45;&gt;services/ProductService.ts -->
<g id="edge73" class="edge">
<title>components/views/ProductView.tsx&#45;&gt;services/ProductService.ts</title>
<path fill="none" stroke="#757575" d="M768.9,-816.96C798.12,-813.62 829.95,-809.98 858.96,-806.66"/>
<polygon fill="#757575" stroke="#757575" points="859.55,-810.11 869.09,-805.5 858.76,-803.16 859.55,-810.11"/>
</g>
<!-- services/ProductService.ts&#45;&gt;types/dto.d.ts -->
<g id="edge99" class="edge">
<title>services/ProductService.ts&#45;&gt;types/dto.d.ts</title>
<path fill="none" stroke="#757575" d="M1045.59,-791.77C1218.37,-783.53 1598.4,-760.97 1721,-717.5 1777.75,-697.38 1834.4,-653.73 1863.81,-628.85"/>
<polygon fill="#757575" stroke="#757575" points="1866.39,-631.24 1871.69,-622.07 1861.83,-625.93 1866.39,-631.24"/>
</g>
<!-- components/views/ProfileView.tsx -->
<g id="node48" class="node">
<title>components/views/ProfileView.tsx</title>
<path fill="none" stroke="#cfffac" d="M494.33,-98C494.33,-98 289.67,-98 289.67,-98 285.83,-98 282,-94.17 282,-90.33 282,-90.33 282,-82.67 282,-82.67 282,-78.83 285.83,-75 289.67,-75 289.67,-75 494.33,-75 494.33,-75 498.17,-75 502,-78.83 502,-82.67 502,-82.67 502,-90.33 502,-90.33 502,-94.17 498.17,-98 494.33,-98"/>
<text text-anchor="middle" x="392" y="-82.8" font-family="Arial" font-size="14.00" fill="#cfffac">components/views/ProfileView.tsx</text>
</g>
<!-- index.css -->
<g id="node49" class="node">
<title>index.css</title>
<path fill="none" stroke="#cfffac" d="M420.83,-424C420.83,-424 363.17,-424 363.17,-424 359.33,-424 355.5,-420.17 355.5,-416.33 355.5,-416.33 355.5,-408.67 355.5,-408.67 355.5,-404.83 359.33,-401 363.17,-401 363.17,-401 420.83,-401 420.83,-401 424.67,-401 428.5,-404.83 428.5,-408.67 428.5,-408.67 428.5,-416.33 428.5,-416.33 428.5,-420.17 424.67,-424 420.83,-424"/>
<text text-anchor="middle" x="392" y="-408.8" font-family="Arial" font-size="14.00" fill="#cfffac">index.css</text>
</g>
<!-- index.tsx -->
<g id="node50" class="node">
<title>index.tsx</title>
<path fill="none" stroke="#c6c5fe" d="M142.83,-321C142.83,-321 88.17,-321 88.17,-321 84.33,-321 80.5,-317.17 80.5,-313.33 80.5,-313.33 80.5,-305.67 80.5,-305.67 80.5,-301.83 84.33,-298 88.17,-298 88.17,-298 142.83,-298 142.83,-298 146.67,-298 150.5,-301.83 150.5,-305.67 150.5,-305.67 150.5,-313.33 150.5,-313.33 150.5,-317.17 146.67,-321 142.83,-321"/>
<text text-anchor="middle" x="115.5" y="-305.8" font-family="Arial" font-size="14.00" fill="#c6c5fe">index.tsx</text>
</g>
<!-- index.tsx&#45;&gt;components/containers/App.tsx -->
<g id="edge79" class="edge">
<title>index.tsx&#45;&gt;components/containers/App.tsx</title>
<path fill="none" stroke="#757575" d="M119.83,-297.86C131.92,-257.87 177.61,-125.22 267,-65.5 270.88,-62.91 274.97,-60.61 279.22,-58.58"/>
<polygon fill="#757575" stroke="#757575" points="280.92,-61.66 288.75,-54.53 278.18,-55.22 280.92,-61.66"/>
</g>
<!-- index.tsx&#45;&gt;main/RoutePath.ts -->
<g id="edge91" class="edge">
<title>index.tsx&#45;&gt;main/RoutePath.ts</title>
<path fill="none" stroke="#757575" d="M126.28,-297.62C148.28,-271.89 204.61,-211.34 267,-186.5 352.94,-152.29 983.26,-135.71 1200.3,-130.97"/>
<polygon fill="#757575" stroke="#757575" points="1200.4,-134.47 1210.32,-130.76 1200.25,-127.47 1200.4,-134.47"/>
</g>
<!-- index.tsx&#45;&gt;components/pages/AccountPage.tsx -->
<g id="edge80" class="edge">
<title>index.tsx&#45;&gt;components/pages/AccountPage.tsx</title>
<path fill="none" stroke="#757575" d="M150.62,-299.09C180.95,-290.11 226.63,-277.23 267,-268.5 278.13,-266.09 289.87,-263.84 301.52,-261.77"/>
<polygon fill="#757575" stroke="#757575" points="302.46,-265.16 311.72,-260 301.27,-258.26 302.46,-265.16"/>
</g>
<!-- index.tsx&#45;&gt;components/pages/AuthPage.tsx -->
<g id="edge81" class="edge">
<title>index.tsx&#45;&gt;components/pages/AuthPage.tsx</title>
<path fill="none" stroke="#757575" d="M150.71,-305.39C176.63,-304.35 211.07,-307.8 231,-329.5 292.43,-396.36 217.94,-660.1 267,-736.5 464.76,-1044.49 936.55,-1129.08 1156.67,-1152.06"/>
<polygon fill="#757575" stroke="#757575" points="1156.34,-1155.55 1166.64,-1153.08 1157.05,-1148.58 1156.34,-1155.55"/>
</g>
<!-- index.tsx&#45;&gt;components/pages/HomePage.tsx -->
<g id="edge82" class="edge">
<title>index.tsx&#45;&gt;components/pages/HomePage.tsx</title>
<path fill="none" stroke="#757575" d="M150.71,-312.12C180.78,-314.42 226.39,-317.91 269.83,-321.23"/>
<polygon fill="#757575" stroke="#757575" points="269.69,-324.73 279.93,-322 270.23,-317.75 269.69,-324.73"/>
</g>
<!-- index.tsx&#45;&gt;components/pages/MessagesPage.tsx -->
<g id="edge83" class="edge">
<title>index.tsx&#45;&gt;components/pages/MessagesPage.tsx</title>
<path fill="none" stroke="#757575" d="M150.64,-312.26C173.84,-314.91 204.94,-319.97 231,-329.5 248.4,-335.86 249.59,-344.18 267,-350.5 274.44,-353.2 282.26,-355.55 290.21,-357.61"/>
<polygon fill="#757575" stroke="#757575" points="289.4,-361.02 299.94,-359.97 291.05,-354.21 289.4,-361.02"/>
</g>
<!-- index.tsx&#45;&gt;components/pages/NotFoundPage.tsx -->
<g id="edge84" class="edge">
<title>index.tsx&#45;&gt;components/pages/NotFoundPage.tsx</title>
<path fill="none" stroke="#757575" d="M124,-297.84C143.59,-268.41 199.48,-190.82 267,-153.5 275.29,-148.92 284.29,-145.14 293.54,-142.03"/>
<polygon fill="#757575" stroke="#757575" points="294.73,-145.33 303.25,-139.02 292.66,-138.64 294.73,-145.33"/>
</g>
<!-- index.tsx&#45;&gt;components/pages/SellPage.tsx -->
<g id="edge85" class="edge">
<title>index.tsx&#45;&gt;components/pages/SellPage.tsx</title>
<path fill="none" stroke="#757575" d="M133.22,-297.89C160.11,-279.82 215.19,-245.21 267,-227.5 273.74,-225.2 280.78,-223.16 287.92,-221.35"/>
<polygon fill="#757575" stroke="#757575" points="288.8,-224.74 297.73,-219.02 287.19,-217.92 288.8,-224.74"/>
</g>
<!-- index.tsx&#45;&gt;components/views/CatalogView.tsx -->
<g id="edge86" class="edge">
<title>index.tsx&#45;&gt;components/views/CatalogView.tsx</title>
<path fill="none" stroke="#757575" d="M150.61,-306.84C175.62,-306.75 208.92,-310.76 231,-329.5 267.97,-360.88 234.96,-396.1 267,-432.5 286.39,-454.53 315.43,-469.64 340.54,-479.42"/>
<polygon fill="#757575" stroke="#757575" points="339.35,-482.71 349.94,-482.91 341.79,-476.15 339.35,-482.71"/>
</g>
<!-- index.tsx&#45;&gt;components/views/CatalogsView.tsx -->
<g id="edge87" class="edge">
<title>index.tsx&#45;&gt;components/views/CatalogsView.tsx</title>
<path fill="none" stroke="#757575" d="M150.63,-305.96C176.15,-305.32 210.11,-309.01 231,-329.5 290.8,-388.16 225.96,-441.48 267,-514.5 290.41,-556.15 334.73,-590.82 363.55,-610.35"/>
<polygon fill="#757575" stroke="#757575" points="361.69,-613.32 371.96,-615.92 365.55,-607.48 361.69,-613.32"/>
</g>
<!-- index.tsx&#45;&gt;components/views/ProductView.tsx -->
<g id="edge88" class="edge">
<title>index.tsx&#45;&gt;components/views/ProductView.tsx</title>
<path fill="none" stroke="#757575" d="M150.57,-305.52C176.4,-304.56 210.8,-308.05 231,-329.5 328.5,-433.06 183.34,-532.47 267,-647.5 341.14,-749.44 486.48,-795.25 579.78,-814.88"/>
<polygon fill="#757575" stroke="#757575" points="579.27,-818.35 589.77,-816.92 580.67,-811.49 579.27,-818.35"/>
</g>
<!-- index.tsx&#45;&gt;components/views/ProfileView.tsx -->
<g id="edge89" class="edge">
<title>index.tsx&#45;&gt;components/views/ProfileView.tsx</title>
<path fill="none" stroke="#757575" d="M121.27,-297.85C136.47,-262.33 187.53,-154.83 267,-106.5 269.53,-104.96 272.15,-103.53 274.82,-102.19"/>
<polygon fill="#757575" stroke="#757575" points="276.45,-105.3 284.16,-98.04 273.6,-98.91 276.45,-105.3"/>
</g>
<!-- index.tsx&#45;&gt;index.css -->
<g id="edge90" class="edge">
<title>index.tsx&#45;&gt;index.css</title>
<path fill="none" stroke="#757575" d="M150.67,-308.12C175.07,-308.78 207.58,-313.17 231,-329.5 257.14,-347.72 240.81,-373.34 267,-391.5 289.71,-407.25 320.27,-412.56 345.37,-413.9"/>
<polygon fill="#757575" stroke="#757575" points="345.29,-417.4 355.4,-414.25 345.53,-410.4 345.29,-417.4"/>
</g>
<!-- reportWebVitals.ts -->
<g id="node51" class="node">
<title>reportWebVitals.ts</title>
<path fill="none" stroke="#cfffac" d="M447.83,-301C447.83,-301 336.17,-301 336.17,-301 332.33,-301 328.5,-297.17 328.5,-293.33 328.5,-293.33 328.5,-285.67 328.5,-285.67 328.5,-281.83 332.33,-278 336.17,-278 336.17,-278 447.83,-278 447.83,-278 451.67,-278 455.5,-281.83 455.5,-285.67 455.5,-285.67 455.5,-293.33 455.5,-293.33 455.5,-297.17 451.67,-301 447.83,-301"/>
<text text-anchor="middle" x="392" y="-285.8" font-family="Arial" font-size="14.00" fill="#cfffac">reportWebVitals.ts</text>
</g>
<!-- index.tsx&#45;&gt;reportWebVitals.ts -->
<g id="edge92" class="edge">
<title>index.tsx&#45;&gt;reportWebVitals.ts</title>
<path fill="none" stroke="#757575" d="M150.71,-307.01C192.36,-303.97 263.85,-298.76 318.06,-294.81"/>
<polygon fill="#757575" stroke="#757575" points="318.59,-298.29 328.31,-294.07 318.08,-291.3 318.59,-298.29"/>
</g>
<!-- react&#45;app&#45;env.d.ts -->
<g id="node52" class="node">
<title>react&#45;app&#45;env.d.ts</title>
<path fill="none" stroke="#cfffac" d="M170.33,-403C170.33,-403 60.67,-403 60.67,-403 56.83,-403 53,-399.17 53,-395.33 53,-395.33 53,-387.67 53,-387.67 53,-383.83 56.83,-380 60.67,-380 60.67,-380 170.33,-380 170.33,-380 174.17,-380 178,-383.83 178,-387.67 178,-387.67 178,-395.33 178,-395.33 178,-399.17 174.17,-403 170.33,-403"/>
<text text-anchor="middle" x="115.5" y="-387.8" font-family="Arial" font-size="14.00" fill="#cfffac">react&#45;app&#45;env.d.ts</text>
</g>
<!-- services/AccountService.ts -->
<g id="node53" class="node">
<title>services/AccountService.ts</title>
<path fill="none" stroke="#cfffac" d="M196.83,-444C196.83,-444 34.17,-444 34.17,-444 30.33,-444 26.5,-440.17 26.5,-436.33 26.5,-436.33 26.5,-428.67 26.5,-428.67 26.5,-424.83 30.33,-421 34.17,-421 34.17,-421 196.83,-421 196.83,-421 200.67,-421 204.5,-424.83 204.5,-428.67 204.5,-428.67 204.5,-436.33 204.5,-436.33 204.5,-440.17 200.67,-444 196.83,-444"/>
<text text-anchor="middle" x="115.5" y="-428.8" font-family="Arial" font-size="14.00" fill="#cfffac">services/AccountService.ts</text>
</g>
<!-- services/LocalData.ts -->
<g id="node54" class="node">
<title>services/LocalData.ts</title>
<path fill="none" stroke="#cfffac" d="M180.33,-485C180.33,-485 50.67,-485 50.67,-485 46.83,-485 43,-481.17 43,-477.33 43,-477.33 43,-469.67 43,-469.67 43,-465.83 46.83,-462 50.67,-462 50.67,-462 180.33,-462 180.33,-462 184.17,-462 188,-465.83 188,-469.67 188,-469.67 188,-477.33 188,-477.33 188,-481.17 184.17,-485 180.33,-485"/>
<text text-anchor="middle" x="115.5" y="-469.8" font-family="Arial" font-size="14.00" fill="#cfffac">services/LocalData.ts</text>
</g>
<!-- setupTests.ts -->
<g id="node56" class="node">
<title>setupTests.ts</title>
<path fill="none" stroke="#cfffac" d="M155.33,-526C155.33,-526 75.67,-526 75.67,-526 71.83,-526 68,-522.17 68,-518.33 68,-518.33 68,-510.67 68,-510.67 68,-506.83 71.83,-503 75.67,-503 75.67,-503 155.33,-503 155.33,-503 159.17,-503 163,-506.83 163,-510.67 163,-510.67 163,-518.33 163,-518.33 163,-522.17 159.17,-526 155.33,-526"/>
<text text-anchor="middle" x="115.5" y="-510.8" font-family="Arial" font-size="14.00" fill="#cfffac">setupTests.ts</text>
</g>
</g>
</svg>
