<?xml version="1.0" encoding="UTF-8" standalone="no"?>
<!DOCTYPE svg PUBLIC "-//W3C//DTD SVG 1.1//EN"
 "http://www.w3.org/Graphics/SVG/1.1/DTD/svg11.dtd">
<!-- Generated by graphviz version 2.43.0 (0)
 -->
<!-- Title: G Pages: 1 -->
<svg width="1852pt" height="955pt"
 viewBox="0.00 0.00 1852.20 954.73" xmlns="http://www.w3.org/2000/svg" xmlns:xlink="http://www.w3.org/1999/xlink">
<g id="graph0" class="graph" transform="scale(1 1) rotate(0) translate(21.6 933.13)">
<title>G</title>
<polygon fill="#111111" stroke="transparent" points="-21.6,21.6 -21.6,-933.13 1830.6,-933.13 1830.6,21.6 -21.6,21.6"/>
<!-- components/AuthContainer.tsx -->
<g id="node1" class="node">
<title>components/AuthContainer.tsx</title>
<path fill="none" stroke="#c6c5fe" d="M761.83,-292.53C761.83,-292.53 576.17,-292.53 576.17,-292.53 572.33,-292.53 568.5,-288.7 568.5,-284.87 568.5,-284.87 568.5,-277.2 568.5,-277.2 568.5,-273.37 572.33,-269.53 576.17,-269.53 576.17,-269.53 761.83,-269.53 761.83,-269.53 765.67,-269.53 769.5,-273.37 769.5,-277.2 769.5,-277.2 769.5,-284.87 769.5,-284.87 769.5,-288.7 765.67,-292.53 761.83,-292.53"/>
<text text-anchor="middle" x="669" y="-277.33" font-family="Arial" font-size="14.00" fill="#c6c5fe">components/AuthContainer.tsx</text>
</g>
<!-- services/Firebase.ts -->
<g id="node2" class="node">
<title>services/Firebase.ts</title>
<path fill="none" stroke="#c6c5fe" d="M1311.33,-323.53C1311.33,-323.53 1189.67,-323.53 1189.67,-323.53 1185.83,-323.53 1182,-319.7 1182,-315.87 1182,-315.87 1182,-308.2 1182,-308.2 1182,-304.37 1185.83,-300.53 1189.67,-300.53 1189.67,-300.53 1311.33,-300.53 1311.33,-300.53 1315.17,-300.53 1319,-304.37 1319,-308.2 1319,-308.2 1319,-315.87 1319,-315.87 1319,-319.7 1315.17,-323.53 1311.33,-323.53"/>
<text text-anchor="middle" x="1250.5" y="-308.33" font-family="Arial" font-size="14.00" fill="#c6c5fe">services/Firebase.ts</text>
</g>
<!-- components/AuthContainer.tsx&#45;&gt;services/Firebase.ts -->
<g id="edge1" class="edge">
<title>components/AuthContainer.tsx&#45;&gt;services/Firebase.ts</title>
<path fill="none" stroke="#757575" d="M769.87,-289.47C786.92,-290.76 804.46,-292.01 821,-293.03 943.49,-300.61 1085.85,-306.31 1171.74,-309.4"/>
<polygon fill="#757575" stroke="#757575" points="1171.81,-312.91 1181.92,-309.77 1172.06,-305.91 1171.81,-312.91"/>
</g>
<!-- types/models.d.ts -->
<g id="node12" class="node">
<title>types/models.d.ts</title>
<path fill="none" stroke="#cfffac" d="M1565.33,-165.53C1565.33,-165.53 1458.67,-165.53 1458.67,-165.53 1454.83,-165.53 1451,-161.7 1451,-157.87 1451,-157.87 1451,-150.2 1451,-150.2 1451,-146.37 1454.83,-142.53 1458.67,-142.53 1458.67,-142.53 1565.33,-142.53 1565.33,-142.53 1569.17,-142.53 1573,-146.37 1573,-150.2 1573,-150.2 1573,-157.87 1573,-157.87 1573,-161.7 1569.17,-165.53 1565.33,-165.53"/>
<text text-anchor="middle" x="1512" y="-150.33" font-family="Arial" font-size="14.00" fill="#cfffac">types/models.d.ts</text>
</g>
<!-- services/Firebase.ts&#45;&gt;types/models.d.ts -->
<g id="edge62" class="edge">
<title>services/Firebase.ts&#45;&gt;types/models.d.ts</title>
<path fill="none" stroke="#757575" d="M1272.21,-300.51C1294.72,-287.9 1331.67,-266.96 1363,-248.03 1406.21,-221.93 1455.55,-190.2 1484.94,-171.08"/>
<polygon fill="#757575" stroke="#757575" points="1486.92,-173.97 1493.39,-165.58 1483.1,-168.1 1486.92,-173.97"/>
</g>
<!-- components/AuthFrom.tsx -->
<g id="node3" class="node">
<title>components/AuthFrom.tsx</title>
<path fill="none" stroke="#ff6c60" d="M1592.33,-444.53C1592.33,-444.53 1431.67,-444.53 1431.67,-444.53 1427.83,-444.53 1424,-440.7 1424,-436.87 1424,-436.87 1424,-429.2 1424,-429.2 1424,-425.37 1427.83,-421.53 1431.67,-421.53 1431.67,-421.53 1592.33,-421.53 1592.33,-421.53 1596.17,-421.53 1600,-425.37 1600,-429.2 1600,-429.2 1600,-436.87 1600,-436.87 1600,-440.7 1596.17,-444.53 1592.33,-444.53"/>
<text text-anchor="middle" x="1512" y="-429.33" font-family="Arial" font-size="14.00" fill="#ff6c60">components/AuthFrom.tsx</text>
</g>
<!-- components/Form.tsx -->
<g id="node4" class="node">
<title>components/Form.tsx</title>
<path fill="none" stroke="#cfffac" d="M1801.33,-444.53C1801.33,-444.53 1668.67,-444.53 1668.67,-444.53 1664.83,-444.53 1661,-440.7 1661,-436.87 1661,-436.87 1661,-429.2 1661,-429.2 1661,-425.37 1664.83,-421.53 1668.67,-421.53 1668.67,-421.53 1801.33,-421.53 1801.33,-421.53 1805.17,-421.53 1809,-425.37 1809,-429.2 1809,-429.2 1809,-436.87 1809,-436.87 1809,-440.7 1805.17,-444.53 1801.33,-444.53"/>
<text text-anchor="middle" x="1735" y="-429.33" font-family="Arial" font-size="14.00" fill="#cfffac">components/Form.tsx</text>
</g>
<!-- components/AuthFrom.tsx&#45;&gt;components/Form.tsx -->
<g id="edge2" class="edge">
<title>components/AuthFrom.tsx&#45;&gt;components/Form.tsx</title>
<path fill="none" stroke="#757575" d="M1600.03,-433.03C1616.73,-433.03 1634.19,-433.03 1650.77,-433.03"/>
<polygon fill="#757575" stroke="#757575" points="1650.97,-436.53 1660.97,-433.03 1650.97,-429.53 1650.97,-436.53"/>
</g>
<!-- components/FormInputGroup.tsx -->
<g id="node5" class="node">
<title>components/FormInputGroup.tsx</title>
<path fill="none" stroke="#ff6c60" d="M1350.83,-403.53C1350.83,-403.53 1150.17,-403.53 1150.17,-403.53 1146.33,-403.53 1142.5,-399.7 1142.5,-395.87 1142.5,-395.87 1142.5,-388.2 1142.5,-388.2 1142.5,-384.37 1146.33,-380.53 1150.17,-380.53 1150.17,-380.53 1350.83,-380.53 1350.83,-380.53 1354.67,-380.53 1358.5,-384.37 1358.5,-388.2 1358.5,-388.2 1358.5,-395.87 1358.5,-395.87 1358.5,-399.7 1354.67,-403.53 1350.83,-403.53"/>
<text text-anchor="middle" x="1250.5" y="-388.33" font-family="Arial" font-size="14.00" fill="#ff6c60">components/FormInputGroup.tsx</text>
</g>
<!-- components/AuthFrom.tsx&#45;&gt;components/FormInputGroup.tsx -->
<g id="edge3" class="edge">
<title>components/AuthFrom.tsx&#45;&gt;components/FormInputGroup.tsx</title>
<path fill="none" stroke="#757575" d="M1423.97,-425.7C1383.5,-419.96 1336.8,-412.27 1302.2,-405.53"/>
<polygon fill="#757575" stroke="#757575" points="1302.82,-402.08 1292.33,-403.56 1301.46,-408.95 1302.82,-402.08"/>
</g>
<!-- components/FormInputGroup.tsx&#45;&gt;components/AuthFrom.tsx -->
<g id="edge4" class="edge">
<title>components/FormInputGroup.tsx&#45;&gt;components/AuthFrom.tsx</title>
<path fill="none" stroke="#757575" d="M1358.55,-402.29C1393.77,-407.56 1431.29,-413.88 1460.29,-419.54"/>
<polygon fill="#757575" stroke="#757575" points="1459.69,-422.99 1470.18,-421.51 1461.06,-416.12 1459.69,-422.99"/>
</g>
<!-- components/FormInputGroup.scss -->
<g id="node6" class="node">
<title>components/FormInputGroup.scss</title>
<path fill="none" stroke="#cfffac" d="M1617.33,-403.53C1617.33,-403.53 1406.67,-403.53 1406.67,-403.53 1402.83,-403.53 1399,-399.7 1399,-395.87 1399,-395.87 1399,-388.2 1399,-388.2 1399,-384.37 1402.83,-380.53 1406.67,-380.53 1406.67,-380.53 1617.33,-380.53 1617.33,-380.53 1621.17,-380.53 1625,-384.37 1625,-388.2 1625,-388.2 1625,-395.87 1625,-395.87 1625,-399.7 1621.17,-403.53 1617.33,-403.53"/>
<text text-anchor="middle" x="1512" y="-388.33" font-family="Arial" font-size="14.00" fill="#cfffac">components/FormInputGroup.scss</text>
</g>
<!-- components/FormInputGroup.tsx&#45;&gt;components/FormInputGroup.scss -->
<g id="edge5" class="edge">
<title>components/FormInputGroup.tsx&#45;&gt;components/FormInputGroup.scss</title>
<path fill="none" stroke="#757575" d="M1358.55,-392.03C1368.49,-392.03 1378.63,-392.03 1388.7,-392.03"/>
<polygon fill="#757575" stroke="#757575" points="1388.74,-395.53 1398.74,-392.03 1388.74,-388.53 1388.74,-395.53"/>
</g>
<!-- components/Friends.tsx -->
<g id="node7" class="node">
<title>components/Friends.tsx</title>
<path fill="none" stroke="#cfffac" d="M188.33,-788.53C188.33,-788.53 42.67,-788.53 42.67,-788.53 38.83,-788.53 35,-784.7 35,-780.87 35,-780.87 35,-773.2 35,-773.2 35,-769.37 38.83,-765.53 42.67,-765.53 42.67,-765.53 188.33,-765.53 188.33,-765.53 192.17,-765.53 196,-769.37 196,-773.2 196,-773.2 196,-780.87 196,-780.87 196,-784.7 192.17,-788.53 188.33,-788.53"/>
<text text-anchor="middle" x="115.5" y="-773.33" font-family="Arial" font-size="14.00" fill="#cfffac">components/Friends.tsx</text>
</g>
<!-- components/ModalForm.scss -->
<g id="node8" class="node">
<title>components/ModalForm.scss</title>
<path fill="none" stroke="#cfffac" d="M1340.33,-167.53C1340.33,-167.53 1160.67,-167.53 1160.67,-167.53 1156.83,-167.53 1153,-163.7 1153,-159.87 1153,-159.87 1153,-152.2 1153,-152.2 1153,-148.37 1156.83,-144.53 1160.67,-144.53 1160.67,-144.53 1340.33,-144.53 1340.33,-144.53 1344.17,-144.53 1348,-148.37 1348,-152.2 1348,-152.2 1348,-159.87 1348,-159.87 1348,-163.7 1344.17,-167.53 1340.33,-167.53"/>
<text text-anchor="middle" x="1250.5" y="-152.33" font-family="Arial" font-size="14.00" fill="#cfffac">components/ModalForm.scss</text>
</g>
<!-- components/ModalForm.tsx -->
<g id="node9" class="node">
<title>components/ModalForm.tsx</title>
<path fill="none" stroke="#c6c5fe" d="M1046.33,-203.53C1046.33,-203.53 876.67,-203.53 876.67,-203.53 872.83,-203.53 869,-199.7 869,-195.87 869,-195.87 869,-188.2 869,-188.2 869,-184.37 872.83,-180.53 876.67,-180.53 876.67,-180.53 1046.33,-180.53 1046.33,-180.53 1050.17,-180.53 1054,-184.37 1054,-188.2 1054,-188.2 1054,-195.87 1054,-195.87 1054,-199.7 1050.17,-203.53 1046.33,-203.53"/>
<text text-anchor="middle" x="961.5" y="-188.33" font-family="Arial" font-size="14.00" fill="#c6c5fe">components/ModalForm.tsx</text>
</g>
<!-- components/ModalForm.tsx&#45;&gt;components/ModalForm.scss -->
<g id="edge6" class="edge">
<title>components/ModalForm.tsx&#45;&gt;components/ModalForm.scss</title>
<path fill="none" stroke="#757575" d="M1054.1,-180.54C1083.87,-176.81 1117.09,-172.64 1147.57,-168.82"/>
<polygon fill="#757575" stroke="#757575" points="1148.3,-172.25 1157.79,-167.54 1147.43,-165.31 1148.3,-172.25"/>
</g>
<!-- components/ProductForm.tsx -->
<g id="node10" class="node">
<title>components/ProductForm.tsx</title>
<path fill="none" stroke="#c6c5fe" d="M1050.83,-283.53C1050.83,-283.53 872.17,-283.53 872.17,-283.53 868.33,-283.53 864.5,-279.7 864.5,-275.87 864.5,-275.87 864.5,-268.2 864.5,-268.2 864.5,-264.37 868.33,-260.53 872.17,-260.53 872.17,-260.53 1050.83,-260.53 1050.83,-260.53 1054.67,-260.53 1058.5,-264.37 1058.5,-268.2 1058.5,-268.2 1058.5,-275.87 1058.5,-275.87 1058.5,-279.7 1054.67,-283.53 1050.83,-283.53"/>
<text text-anchor="middle" x="961.5" y="-268.33" font-family="Arial" font-size="14.00" fill="#c6c5fe">components/ProductForm.tsx</text>
</g>
<!-- components/ProductForm.tsx&#45;&gt;components/Form.tsx -->
<g id="edge7" class="edge">
<title>components/ProductForm.tsx&#45;&gt;components/Form.tsx</title>
<path fill="none" stroke="#757575" d="M1058.67,-261.94C1192.6,-252.11 1439.71,-249.59 1625,-338.03 1663.17,-356.25 1698.31,-391.64 1717.87,-413.7"/>
<polygon fill="#757575" stroke="#757575" points="1715.39,-416.18 1724.58,-421.44 1720.68,-411.59 1715.39,-416.18"/>
</g>
<!-- components/ProductForm.tsx&#45;&gt;components/FormInputGroup.tsx -->
<g id="edge8" class="edge">
<title>components/ProductForm.tsx&#45;&gt;components/FormInputGroup.tsx</title>
<path fill="none" stroke="#757575" d="M990.02,-283.54C1041.85,-305.21 1153.98,-352.09 1212.4,-376.52"/>
<polygon fill="#757575" stroke="#757575" points="1211.07,-379.76 1221.64,-380.39 1213.77,-373.3 1211.07,-379.76"/>
</g>
<!-- services/RestService.ts -->
<g id="node11" class="node">
<title>services/RestService.ts</title>
<path fill="none" stroke="#c6c5fe" d="M1321.33,-44.53C1321.33,-44.53 1179.67,-44.53 1179.67,-44.53 1175.83,-44.53 1172,-40.7 1172,-36.87 1172,-36.87 1172,-29.2 1172,-29.2 1172,-25.37 1175.83,-21.53 1179.67,-21.53 1179.67,-21.53 1321.33,-21.53 1321.33,-21.53 1325.17,-21.53 1329,-25.37 1329,-29.2 1329,-29.2 1329,-36.87 1329,-36.87 1329,-40.7 1325.17,-44.53 1321.33,-44.53"/>
<text text-anchor="middle" x="1250.5" y="-29.33" font-family="Arial" font-size="14.00" fill="#c6c5fe">services/RestService.ts</text>
</g>
<!-- components/ProductForm.tsx&#45;&gt;services/RestService.ts -->
<g id="edge9" class="edge">
<title>components/ProductForm.tsx&#45;&gt;services/RestService.ts</title>
<path fill="none" stroke="#757575" d="M1012.77,-260.51C1041.85,-251.66 1077.44,-236.81 1102,-213.03 1129.43,-186.47 1115.47,-165.86 1138,-135.03 1162.93,-100.93 1200.61,-69.37 1225.14,-50.65"/>
<polygon fill="#757575" stroke="#757575" points="1227.33,-53.39 1233.22,-44.58 1223.12,-47.79 1227.33,-53.39"/>
</g>
<!-- components/ProductForm.tsx&#45;&gt;types/models.d.ts -->
<g id="edge10" class="edge">
<title>components/ProductForm.tsx&#45;&gt;types/models.d.ts</title>
<path fill="none" stroke="#757575" d="M1058.73,-262.82C1140.58,-253.65 1260.77,-236.97 1363,-210.03 1402.62,-199.59 1446.31,-182.31 1475.88,-169.7"/>
<polygon fill="#757575" stroke="#757575" points="1477.54,-172.8 1485.34,-165.62 1474.77,-166.37 1477.54,-172.8"/>
</g>
<!-- services/RestService.ts&#45;&gt;types/models.d.ts -->
<g id="edge64" class="edge">
<title>services/RestService.ts&#45;&gt;types/models.d.ts</title>
<path fill="none" stroke="#757575" d="M1317.84,-44.58C1332.99,-48.29 1348.81,-53.04 1363,-59.03 1410.92,-79.28 1460.61,-114.66 1488.49,-136.06"/>
<polygon fill="#757575" stroke="#757575" points="1486.37,-138.84 1496.41,-142.22 1490.66,-133.32 1486.37,-138.84"/>
</g>
<!-- services/products.json.ts -->
<g id="node42" class="node">
<title>services/products.json.ts</title>
<path fill="none" stroke="#cfffac" d="M1586.33,-44.53C1586.33,-44.53 1437.67,-44.53 1437.67,-44.53 1433.83,-44.53 1430,-40.7 1430,-36.87 1430,-36.87 1430,-29.2 1430,-29.2 1430,-25.37 1433.83,-21.53 1437.67,-21.53 1437.67,-21.53 1586.33,-21.53 1586.33,-21.53 1590.17,-21.53 1594,-25.37 1594,-29.2 1594,-29.2 1594,-36.87 1594,-36.87 1594,-40.7 1590.17,-44.53 1586.33,-44.53"/>
<text text-anchor="middle" x="1512" y="-29.33" font-family="Arial" font-size="14.00" fill="#cfffac">services/products.json.ts</text>
</g>
<!-- services/RestService.ts&#45;&gt;services/products.json.ts -->
<g id="edge63" class="edge">
<title>services/RestService.ts&#45;&gt;services/products.json.ts</title>
<path fill="none" stroke="#757575" d="M1329.01,-33.03C1357.46,-33.03 1389.94,-33.03 1419.51,-33.03"/>
<polygon fill="#757575" stroke="#757575" points="1419.84,-36.53 1429.84,-33.03 1419.84,-29.53 1419.84,-36.53"/>
</g>
<!-- components/ProductFormModal.tsx -->
<g id="node13" class="node">
<title>components/ProductFormModal.tsx</title>
<path fill="none" stroke="#c6c5fe" d="M777.33,-235.53C777.33,-235.53 560.67,-235.53 560.67,-235.53 556.83,-235.53 553,-231.7 553,-227.87 553,-227.87 553,-220.2 553,-220.2 553,-216.37 556.83,-212.53 560.67,-212.53 560.67,-212.53 777.33,-212.53 777.33,-212.53 781.17,-212.53 785,-216.37 785,-220.2 785,-220.2 785,-227.87 785,-227.87 785,-231.7 781.17,-235.53 777.33,-235.53"/>
<text text-anchor="middle" x="669" y="-220.33" font-family="Arial" font-size="14.00" fill="#c6c5fe">components/ProductFormModal.tsx</text>
</g>
<!-- components/ProductFormModal.tsx&#45;&gt;components/ModalForm.tsx -->
<g id="edge11" class="edge">
<title>components/ProductFormModal.tsx&#45;&gt;components/ModalForm.tsx</title>
<path fill="none" stroke="#757575" d="M774.47,-212.53C801.99,-209.49 831.64,-206.23 859.01,-203.21"/>
<polygon fill="#757575" stroke="#757575" points="859.42,-206.69 868.98,-202.11 858.66,-199.73 859.42,-206.69"/>
</g>
<!-- components/ProductFormModal.tsx&#45;&gt;components/ProductForm.tsx -->
<g id="edge12" class="edge">
<title>components/ProductFormModal.tsx&#45;&gt;components/ProductForm.tsx</title>
<path fill="none" stroke="#757575" d="M739.95,-235.59C782.32,-242.59 836.5,-251.54 880.55,-258.82"/>
<polygon fill="#757575" stroke="#757575" points="880.22,-262.32 890.65,-260.49 881.36,-255.41 880.22,-262.32"/>
</g>
<!-- components/ProductFormModal.tsx&#45;&gt;types/models.d.ts -->
<g id="edge13" class="edge">
<title>components/ProductFormModal.tsx&#45;&gt;types/models.d.ts</title>
<path fill="none" stroke="#757575" d="M785.25,-224.59C872.38,-224.16 994.88,-221.76 1102,-213.03 1218.71,-203.53 1247.14,-194.02 1363,-177.03 1388.44,-173.3 1416.31,-169.02 1440.93,-165.17"/>
<polygon fill="#757575" stroke="#757575" points="1441.57,-168.62 1450.91,-163.61 1440.49,-161.7 1441.57,-168.62"/>
</g>
<!-- components/ProductList.tsx -->
<g id="node14" class="node">
<title>components/ProductList.tsx</title>
<path fill="none" stroke="#c6c5fe" d="M752.83,-162.53C752.83,-162.53 585.17,-162.53 585.17,-162.53 581.33,-162.53 577.5,-158.7 577.5,-154.87 577.5,-154.87 577.5,-147.2 577.5,-147.2 577.5,-143.37 581.33,-139.53 585.17,-139.53 585.17,-139.53 752.83,-139.53 752.83,-139.53 756.67,-139.53 760.5,-143.37 760.5,-147.2 760.5,-147.2 760.5,-154.87 760.5,-154.87 760.5,-158.7 756.67,-162.53 752.83,-162.53"/>
<text text-anchor="middle" x="669" y="-147.33" font-family="Arial" font-size="14.00" fill="#c6c5fe">components/ProductList.tsx</text>
</g>
<!-- components/ProductList.tsx&#45;&gt;types/models.d.ts -->
<g id="edge14" class="edge">
<title>components/ProductList.tsx&#45;&gt;types/models.d.ts</title>
<path fill="none" stroke="#757575" d="M738.19,-139.51C764.05,-135.68 793.8,-131.92 821,-130.03 1061.32,-113.4 1122.75,-117.36 1363,-135.03 1388.43,-136.9 1416.19,-140.15 1440.72,-143.43"/>
<polygon fill="#757575" stroke="#757575" points="1440.28,-146.9 1450.66,-144.78 1441.23,-139.96 1440.28,-146.9"/>
</g>
<!-- utils/Array.ts -->
<g id="node15" class="node">
<title>utils/Array.ts</title>
<path fill="none" stroke="#cfffac" d="M998.83,-162.53C998.83,-162.53 924.17,-162.53 924.17,-162.53 920.33,-162.53 916.5,-158.7 916.5,-154.87 916.5,-154.87 916.5,-147.2 916.5,-147.2 916.5,-143.37 920.33,-139.53 924.17,-139.53 924.17,-139.53 998.83,-139.53 998.83,-139.53 1002.67,-139.53 1006.5,-143.37 1006.5,-147.2 1006.5,-147.2 1006.5,-154.87 1006.5,-154.87 1006.5,-158.7 1002.67,-162.53 998.83,-162.53"/>
<text text-anchor="middle" x="961.5" y="-147.33" font-family="Arial" font-size="14.00" fill="#cfffac">utils/Array.ts</text>
</g>
<!-- components/ProductList.tsx&#45;&gt;utils/Array.ts -->
<g id="edge15" class="edge">
<title>components/ProductList.tsx&#45;&gt;utils/Array.ts</title>
<path fill="none" stroke="#757575" d="M760.72,-151.03C808.45,-151.03 865.37,-151.03 906.22,-151.03"/>
<polygon fill="#757575" stroke="#757575" points="906.24,-154.53 916.24,-151.03 906.24,-147.53 906.24,-154.53"/>
</g>
<!-- components/containers/App.test.tsx -->
<g id="node16" class="node">
<title>components/containers/App.test.tsx</title>
<path fill="none" stroke="#c6c5fe" d="M223.33,-747.53C223.33,-747.53 7.67,-747.53 7.67,-747.53 3.83,-747.53 0,-743.7 0,-739.87 0,-739.87 0,-732.2 0,-732.2 0,-728.37 3.83,-724.53 7.67,-724.53 7.67,-724.53 223.33,-724.53 223.33,-724.53 227.17,-724.53 231,-728.37 231,-732.2 231,-732.2 231,-739.87 231,-739.87 231,-743.7 227.17,-747.53 223.33,-747.53"/>
<text text-anchor="middle" x="115.5" y="-732.33" font-family="Arial" font-size="14.00" fill="#c6c5fe">components/containers/App.test.tsx</text>
</g>
<!-- components/containers/App.tsx -->
<g id="node17" class="node">
<title>components/containers/App.tsx</title>
<path fill="none" stroke="#c6c5fe" d="M487.33,-747.53C487.33,-747.53 296.67,-747.53 296.67,-747.53 292.83,-747.53 289,-743.7 289,-739.87 289,-739.87 289,-732.2 289,-732.2 289,-728.37 292.83,-724.53 296.67,-724.53 296.67,-724.53 487.33,-724.53 487.33,-724.53 491.17,-724.53 495,-728.37 495,-732.2 495,-732.2 495,-739.87 495,-739.87 495,-743.7 491.17,-747.53 487.33,-747.53"/>
<text text-anchor="middle" x="392" y="-732.33" font-family="Arial" font-size="14.00" fill="#c6c5fe">components/containers/App.tsx</text>
</g>
<!-- components/containers/App.test.tsx&#45;&gt;components/containers/App.tsx -->
<g id="edge16" class="edge">
<title>components/containers/App.test.tsx&#45;&gt;components/containers/App.tsx</title>
<path fill="none" stroke="#757575" d="M231.32,-736.03C246.99,-736.03 263.06,-736.03 278.68,-736.03"/>
<polygon fill="#757575" stroke="#757575" points="278.87,-739.53 288.87,-736.03 278.87,-732.53 278.87,-739.53"/>
</g>
<!-- components/menus/RootMenu.tsx -->
<g id="node18" class="node">
<title>components/menus/RootMenu.tsx</title>
<path fill="none" stroke="#c6c5fe" d="M773.33,-785.53C773.33,-785.53 564.67,-785.53 564.67,-785.53 560.83,-785.53 557,-781.7 557,-777.87 557,-777.87 557,-770.2 557,-770.2 557,-766.37 560.83,-762.53 564.67,-762.53 564.67,-762.53 773.33,-762.53 773.33,-762.53 777.17,-762.53 781,-766.37 781,-770.2 781,-770.2 781,-777.87 781,-777.87 781,-781.7 777.17,-785.53 773.33,-785.53"/>
<text text-anchor="middle" x="669" y="-770.33" font-family="Arial" font-size="14.00" fill="#c6c5fe">components/menus/RootMenu.tsx</text>
</g>
<!-- components/containers/App.tsx&#45;&gt;components/menus/RootMenu.tsx -->
<g id="edge17" class="edge">
<title>components/containers/App.tsx&#45;&gt;components/menus/RootMenu.tsx</title>
<path fill="none" stroke="#757575" d="M476.26,-747.54C507.21,-751.82 542.53,-756.7 574.35,-761.09"/>
<polygon fill="#757575" stroke="#757575" points="574.17,-764.6 584.55,-762.5 575.13,-757.67 574.17,-764.6"/>
</g>
<!-- main/RoutePath.ts -->
<g id="node19" class="node">
<title>main/RoutePath.ts</title>
<path fill="none" stroke="#c6c5fe" d="M1306.83,-707.53C1306.83,-707.53 1194.17,-707.53 1194.17,-707.53 1190.33,-707.53 1186.5,-703.7 1186.5,-699.87 1186.5,-699.87 1186.5,-692.2 1186.5,-692.2 1186.5,-688.37 1190.33,-684.53 1194.17,-684.53 1194.17,-684.53 1306.83,-684.53 1306.83,-684.53 1310.67,-684.53 1314.5,-688.37 1314.5,-692.2 1314.5,-692.2 1314.5,-699.87 1314.5,-699.87 1314.5,-703.7 1310.67,-707.53 1306.83,-707.53"/>
<text text-anchor="middle" x="1250.5" y="-692.33" font-family="Arial" font-size="14.00" fill="#c6c5fe">main/RoutePath.ts</text>
</g>
<!-- components/containers/App.tsx&#45;&gt;main/RoutePath.ts -->
<g id="edge18" class="edge">
<title>components/containers/App.tsx&#45;&gt;main/RoutePath.ts</title>
<path fill="none" stroke="#757575" d="M495.24,-734.14C633.13,-731.17 886.3,-724.21 1102,-710.03 1126.26,-708.44 1152.7,-706.11 1176.42,-703.81"/>
<polygon fill="#757575" stroke="#757575" points="1176.79,-707.3 1186.4,-702.83 1176.11,-700.33 1176.79,-707.3"/>
</g>
<!-- components/menus/DropdownMenu.tsx -->
<g id="node21" class="node">
<title>components/menus/DropdownMenu.tsx</title>
<path fill="none" stroke="#c6c5fe" d="M1082.33,-785.53C1082.33,-785.53 840.67,-785.53 840.67,-785.53 836.83,-785.53 833,-781.7 833,-777.87 833,-777.87 833,-770.2 833,-770.2 833,-766.37 836.83,-762.53 840.67,-762.53 840.67,-762.53 1082.33,-762.53 1082.33,-762.53 1086.17,-762.53 1090,-766.37 1090,-770.2 1090,-770.2 1090,-777.87 1090,-777.87 1090,-781.7 1086.17,-785.53 1082.33,-785.53"/>
<text text-anchor="middle" x="961.5" y="-770.33" font-family="Arial" font-size="14.00" fill="#c6c5fe">components/menus/DropdownMenu.tsx</text>
</g>
<!-- components/menus/RootMenu.tsx&#45;&gt;components/menus/DropdownMenu.tsx -->
<g id="edge22" class="edge">
<title>components/menus/RootMenu.tsx&#45;&gt;components/menus/DropdownMenu.tsx</title>
<path fill="none" stroke="#757575" d="M781.07,-774.03C794.73,-774.03 808.82,-774.03 822.82,-774.03"/>
<polygon fill="#757575" stroke="#757575" points="822.99,-777.53 832.99,-774.03 822.99,-770.53 822.99,-777.53"/>
</g>
<!-- types/types.d.ts -->
<g id="node22" class="node">
<title>types/types.d.ts</title>
<path fill="none" stroke="#cfffac" d="M1559.33,-707.53C1559.33,-707.53 1464.67,-707.53 1464.67,-707.53 1460.83,-707.53 1457,-703.7 1457,-699.87 1457,-699.87 1457,-692.2 1457,-692.2 1457,-688.37 1460.83,-684.53 1464.67,-684.53 1464.67,-684.53 1559.33,-684.53 1559.33,-684.53 1563.17,-684.53 1567,-688.37 1567,-692.2 1567,-692.2 1567,-699.87 1567,-699.87 1567,-703.7 1563.17,-707.53 1559.33,-707.53"/>
<text text-anchor="middle" x="1512" y="-692.33" font-family="Arial" font-size="14.00" fill="#cfffac">types/types.d.ts</text>
</g>
<!-- components/menus/RootMenu.tsx&#45;&gt;types/types.d.ts -->
<g id="edge24" class="edge">
<title>components/menus/RootMenu.tsx&#45;&gt;types/types.d.ts</title>
<path fill="none" stroke="#757575" d="M738.19,-785.55C764.05,-789.38 793.8,-793.15 821,-795.03 1062.25,-811.73 1129.1,-808.47 1363,-747.03 1400.67,-737.14 1442.54,-722.34 1472.11,-711.23"/>
<polygon fill="#757575" stroke="#757575" points="1473.53,-714.43 1481.64,-707.62 1471.05,-707.89 1473.53,-714.43"/>
</g>
<!-- main/MenuConfig.ts -->
<g id="node23" class="node">
<title>main/MenuConfig.ts</title>
<path fill="none" stroke="#c6c5fe" d="M1022.83,-667.53C1022.83,-667.53 900.17,-667.53 900.17,-667.53 896.33,-667.53 892.5,-663.7 892.5,-659.87 892.5,-659.87 892.5,-652.2 892.5,-652.2 892.5,-648.37 896.33,-644.53 900.17,-644.53 900.17,-644.53 1022.83,-644.53 1022.83,-644.53 1026.67,-644.53 1030.5,-648.37 1030.5,-652.2 1030.5,-652.2 1030.5,-659.87 1030.5,-659.87 1030.5,-663.7 1026.67,-667.53 1022.83,-667.53"/>
<text text-anchor="middle" x="961.5" y="-652.33" font-family="Arial" font-size="14.00" fill="#c6c5fe">main/MenuConfig.ts</text>
</g>
<!-- components/menus/RootMenu.tsx&#45;&gt;main/MenuConfig.ts -->
<g id="edge23" class="edge">
<title>components/menus/RootMenu.tsx&#45;&gt;main/MenuConfig.ts</title>
<path fill="none" stroke="#757575" d="M698.38,-762.5C750.99,-741.13 863.64,-695.38 922.66,-671.4"/>
<polygon fill="#757575" stroke="#757575" points="924.05,-674.62 932,-667.61 921.42,-668.13 924.05,-674.62"/>
</g>
<!-- main/RoutePath.ts&#45;&gt;types/types.d.ts -->
<g id="edge61" class="edge">
<title>main/RoutePath.ts&#45;&gt;types/types.d.ts</title>
<path fill="none" stroke="#757575" d="M1314.65,-696.03C1354.67,-696.03 1406.3,-696.03 1446.56,-696.03"/>
<polygon fill="#757575" stroke="#757575" points="1446.81,-699.53 1456.81,-696.03 1446.81,-692.53 1446.81,-699.53"/>
</g>
<!-- components/forms/ResetPasswordForm.tsx -->
<g id="node20" class="node">
<title>components/forms/ResetPasswordForm.tsx</title>
<path fill="none" stroke="#c6c5fe" d="M1094.33,-393.53C1094.33,-393.53 828.67,-393.53 828.67,-393.53 824.83,-393.53 821,-389.7 821,-385.87 821,-385.87 821,-378.2 821,-378.2 821,-374.37 824.83,-370.53 828.67,-370.53 828.67,-370.53 1094.33,-370.53 1094.33,-370.53 1098.17,-370.53 1102,-374.37 1102,-378.2 1102,-378.2 1102,-385.87 1102,-385.87 1102,-389.7 1098.17,-393.53 1094.33,-393.53"/>
<text text-anchor="middle" x="961.5" y="-378.33" font-family="Arial" font-size="14.00" fill="#c6c5fe">components/forms/ResetPasswordForm.tsx</text>
</g>
<!-- components/forms/ResetPasswordForm.tsx&#45;&gt;components/Form.tsx -->
<g id="edge19" class="edge">
<title>components/forms/ResetPasswordForm.tsx&#45;&gt;components/Form.tsx</title>
<path fill="none" stroke="#757575" d="M1023.17,-370.49C1141.33,-350.32 1409.62,-315.87 1625,-372.03 1657.13,-380.41 1689.82,-400.59 1710.91,-415.46"/>
<polygon fill="#757575" stroke="#757575" points="1709.04,-418.43 1719.2,-421.45 1713.15,-412.76 1709.04,-418.43"/>
</g>
<!-- components/forms/ResetPasswordForm.tsx&#45;&gt;components/FormInputGroup.tsx -->
<g id="edge20" class="edge">
<title>components/forms/ResetPasswordForm.tsx&#45;&gt;components/FormInputGroup.tsx</title>
<path fill="none" stroke="#757575" d="M1102.22,-386.9C1112.27,-387.25 1122.34,-387.6 1132.25,-387.95"/>
<polygon fill="#757575" stroke="#757575" points="1132.38,-391.45 1142.5,-388.3 1132.63,-384.46 1132.38,-391.45"/>
</g>
<!-- components/menus/DropdownMenu.tsx&#45;&gt;types/types.d.ts -->
<g id="edge21" class="edge">
<title>components/menus/DropdownMenu.tsx&#45;&gt;types/types.d.ts</title>
<path fill="none" stroke="#757575" d="M1043.43,-762.52C1153.06,-746.94 1346.52,-719.42 1446.76,-705.17"/>
<polygon fill="#757575" stroke="#757575" points="1447.35,-708.62 1456.75,-703.75 1446.36,-701.69 1447.35,-708.62"/>
</g>
<!-- main/MenuConfig.ts&#45;&gt;main/RoutePath.ts -->
<g id="edge59" class="edge">
<title>main/MenuConfig.ts&#45;&gt;main/RoutePath.ts</title>
<path fill="none" stroke="#757575" d="M1030.51,-665.51C1074.44,-671.63 1131.54,-679.59 1176.43,-685.85"/>
<polygon fill="#757575" stroke="#757575" points="1176,-689.32 1186.39,-687.24 1176.97,-682.39 1176,-689.32"/>
</g>
<!-- main/MenuConfig.ts&#45;&gt;types/types.d.ts -->
<g id="edge60" class="edge">
<title>main/MenuConfig.ts&#45;&gt;types/types.d.ts</title>
<path fill="none" stroke="#757575" d="M1030.65,-657.68C1110.45,-660.02 1246.54,-665.28 1363,-676.03 1390.58,-678.58 1420.91,-682.48 1446.9,-686.17"/>
<polygon fill="#757575" stroke="#757575" points="1446.6,-689.66 1457,-687.62 1447.6,-682.73 1446.6,-689.66"/>
</g>
<!-- components/menus/SubMenu.tsx -->
<g id="node24" class="node">
<title>components/menus/SubMenu.tsx</title>
<path fill="none" stroke="#c6c5fe" d="M770.83,-544.53C770.83,-544.53 567.17,-544.53 567.17,-544.53 563.33,-544.53 559.5,-540.7 559.5,-536.87 559.5,-536.87 559.5,-529.2 559.5,-529.2 559.5,-525.37 563.33,-521.53 567.17,-521.53 567.17,-521.53 770.83,-521.53 770.83,-521.53 774.67,-521.53 778.5,-525.37 778.5,-529.2 778.5,-529.2 778.5,-536.87 778.5,-536.87 778.5,-540.7 774.67,-544.53 770.83,-544.53"/>
<text text-anchor="middle" x="669" y="-529.33" font-family="Arial" font-size="14.00" fill="#c6c5fe">components/menus/SubMenu.tsx</text>
</g>
<!-- components/menus/SubMenu.tsx&#45;&gt;types/types.d.ts -->
<g id="edge25" class="edge">
<title>components/menus/SubMenu.tsx&#45;&gt;types/types.d.ts</title>
<path fill="none" stroke="#757575" d="M750.48,-544.55C762.08,-546.32 773.85,-548.18 785,-550.03 1042.71,-592.92 1108.06,-599.93 1363,-657.03 1395.7,-664.36 1432.11,-673.93 1460.63,-681.76"/>
<polygon fill="#757575" stroke="#757575" points="1459.8,-685.16 1470.37,-684.45 1461.66,-678.42 1459.8,-685.16"/>
</g>
<!-- components/pages/AccountPage.tsx -->
<g id="node25" class="node">
<title>components/pages/AccountPage.tsx</title>
<path fill="none" stroke="#c6c5fe" d="M502.33,-503.53C502.33,-503.53 281.67,-503.53 281.67,-503.53 277.83,-503.53 274,-499.7 274,-495.87 274,-495.87 274,-488.2 274,-488.2 274,-484.37 277.83,-480.53 281.67,-480.53 281.67,-480.53 502.33,-480.53 502.33,-480.53 506.17,-480.53 510,-484.37 510,-488.2 510,-488.2 510,-495.87 510,-495.87 510,-499.7 506.17,-503.53 502.33,-503.53"/>
<text text-anchor="middle" x="392" y="-488.33" font-family="Arial" font-size="14.00" fill="#c6c5fe">components/pages/AccountPage.tsx</text>
</g>
<!-- components/pages/AccountPage.tsx&#45;&gt;main/MenuConfig.ts -->
<g id="edge28" class="edge">
<title>components/pages/AccountPage.tsx&#45;&gt;main/MenuConfig.ts</title>
<path fill="none" stroke="#757575" d="M495.76,-503.64C503.16,-506.21 510.33,-509.31 517,-513.03 538.18,-524.85 531.97,-541.96 553,-554.03 644.1,-606.31 684.45,-568.68 785,-599.03 801.59,-604.04 804.68,-608.19 821,-614.03 849.51,-624.23 881.86,-634.08 908.22,-641.67"/>
<polygon fill="#757575" stroke="#757575" points="907.44,-645.08 918.01,-644.46 909.36,-638.35 907.44,-645.08"/>
</g>
<!-- components/pages/AccountPage.tsx&#45;&gt;components/menus/SubMenu.tsx -->
<g id="edge26" class="edge">
<title>components/pages/AccountPage.tsx&#45;&gt;components/menus/SubMenu.tsx</title>
<path fill="none" stroke="#757575" d="M470.33,-503.56C504.6,-508.67 545.08,-514.71 580.45,-519.98"/>
<polygon fill="#757575" stroke="#757575" points="580.36,-523.51 590.77,-521.52 581.4,-516.58 580.36,-523.51"/>
</g>
<!-- components/pages/Page.tsx -->
<g id="node26" class="node">
<title>components/pages/Page.tsx</title>
<path fill="none" stroke="#cfffac" d="M755.33,-483.53C755.33,-483.53 582.67,-483.53 582.67,-483.53 578.83,-483.53 575,-479.7 575,-475.87 575,-475.87 575,-468.2 575,-468.2 575,-464.37 578.83,-460.53 582.67,-460.53 582.67,-460.53 755.33,-460.53 755.33,-460.53 759.17,-460.53 763,-464.37 763,-468.2 763,-468.2 763,-475.87 763,-475.87 763,-479.7 759.17,-483.53 755.33,-483.53"/>
<text text-anchor="middle" x="669" y="-468.33" font-family="Arial" font-size="14.00" fill="#cfffac">components/pages/Page.tsx</text>
</g>
<!-- components/pages/AccountPage.tsx&#45;&gt;components/pages/Page.tsx -->
<g id="edge27" class="edge">
<title>components/pages/AccountPage.tsx&#45;&gt;components/pages/Page.tsx</title>
<path fill="none" stroke="#757575" d="M510.02,-483.52C528.11,-482.21 546.68,-480.86 564.44,-479.56"/>
<polygon fill="#757575" stroke="#757575" points="565.08,-483.03 574.8,-478.81 564.57,-476.05 565.08,-483.03"/>
</g>
<!-- components/pages/AuthPage.scss -->
<g id="node27" class="node">
<title>components/pages/AuthPage.scss</title>
<path fill="none" stroke="#cfffac" d="M1355.33,-563.53C1355.33,-563.53 1145.67,-563.53 1145.67,-563.53 1141.83,-563.53 1138,-559.7 1138,-555.87 1138,-555.87 1138,-548.2 1138,-548.2 1138,-544.37 1141.83,-540.53 1145.67,-540.53 1145.67,-540.53 1355.33,-540.53 1355.33,-540.53 1359.17,-540.53 1363,-544.37 1363,-548.2 1363,-548.2 1363,-555.87 1363,-555.87 1363,-559.7 1359.17,-563.53 1355.33,-563.53"/>
<text text-anchor="middle" x="1250.5" y="-548.33" font-family="Arial" font-size="14.00" fill="#cfffac">components/pages/AuthPage.scss</text>
</g>
<!-- components/pages/AuthPage.tsx -->
<g id="node28" class="node">
<title>components/pages/AuthPage.tsx</title>
<path fill="none" stroke="#c6c5fe" d="M1061.33,-453.53C1061.33,-453.53 861.67,-453.53 861.67,-453.53 857.83,-453.53 854,-449.7 854,-445.87 854,-445.87 854,-438.2 854,-438.2 854,-434.37 857.83,-430.53 861.67,-430.53 861.67,-430.53 1061.33,-430.53 1061.33,-430.53 1065.17,-430.53 1069,-434.37 1069,-438.2 1069,-438.2 1069,-445.87 1069,-445.87 1069,-449.7 1065.17,-453.53 1061.33,-453.53"/>
<text text-anchor="middle" x="961.5" y="-438.33" font-family="Arial" font-size="14.00" fill="#c6c5fe">components/pages/AuthPage.tsx</text>
</g>
<!-- components/pages/AuthPage.tsx&#45;&gt;services/Firebase.ts -->
<g id="edge33" class="edge">
<title>components/pages/AuthPage.tsx&#45;&gt;services/Firebase.ts</title>
<path fill="none" stroke="#757575" d="M1025.85,-430.52C1050.55,-424.47 1078.5,-415.62 1102,-403.03 1120.61,-393.06 1120.6,-384 1138,-372.03 1162.57,-355.14 1192.4,-339.31 1215.02,-328.15"/>
<polygon fill="#757575" stroke="#757575" points="1216.78,-331.19 1224.24,-323.67 1213.72,-324.9 1216.78,-331.19"/>
</g>
<!-- components/pages/AuthPage.tsx&#45;&gt;components/AuthFrom.tsx -->
<g id="edge29" class="edge">
<title>components/pages/AuthPage.tsx&#45;&gt;components/AuthFrom.tsx</title>
<path fill="none" stroke="#757575" d="M1069.23,-440.28C1169.16,-438.64 1317.2,-436.21 1413.89,-434.63"/>
<polygon fill="#757575" stroke="#757575" points="1414.01,-438.13 1423.95,-434.46 1413.9,-431.13 1414.01,-438.13"/>
</g>
<!-- components/pages/AuthPage.tsx&#45;&gt;components/Form.tsx -->
<g id="edge30" class="edge">
<title>components/pages/AuthPage.tsx&#45;&gt;components/Form.tsx</title>
<path fill="none" stroke="#757575" d="M992.68,-453.65C1027.19,-466.25 1085.7,-485.59 1138,-493.03 1352.43,-523.56 1413.54,-521.92 1625,-475.03 1651.27,-469.21 1679.59,-458.14 1700.78,-448.83"/>
<polygon fill="#757575" stroke="#757575" points="1702.29,-451.99 1709.98,-444.7 1699.42,-445.6 1702.29,-451.99"/>
</g>
<!-- components/pages/AuthPage.tsx&#45;&gt;components/pages/AuthPage.scss -->
<g id="edge31" class="edge">
<title>components/pages/AuthPage.tsx&#45;&gt;components/pages/AuthPage.scss</title>
<path fill="none" stroke="#757575" d="M982.95,-453.63C1015.06,-471.43 1079.68,-505.55 1138,-526.03 1151.13,-530.64 1165.42,-534.68 1179.25,-538.1"/>
<polygon fill="#757575" stroke="#757575" points="1178.67,-541.57 1189.21,-540.49 1180.3,-534.76 1178.67,-541.57"/>
</g>
<!-- containers/SignUpModal.tsx -->
<g id="node29" class="node">
<title>containers/SignUpModal.tsx</title>
<path fill="none" stroke="#c6c5fe" d="M1335.33,-483.53C1335.33,-483.53 1165.67,-483.53 1165.67,-483.53 1161.83,-483.53 1158,-479.7 1158,-475.87 1158,-475.87 1158,-468.2 1158,-468.2 1158,-464.37 1161.83,-460.53 1165.67,-460.53 1165.67,-460.53 1335.33,-460.53 1335.33,-460.53 1339.17,-460.53 1343,-464.37 1343,-468.2 1343,-468.2 1343,-475.87 1343,-475.87 1343,-479.7 1339.17,-483.53 1335.33,-483.53"/>
<text text-anchor="middle" x="1250.5" y="-468.33" font-family="Arial" font-size="14.00" fill="#c6c5fe">containers/SignUpModal.tsx</text>
</g>
<!-- components/pages/AuthPage.tsx&#45;&gt;containers/SignUpModal.tsx -->
<g id="edge32" class="edge">
<title>components/pages/AuthPage.tsx&#45;&gt;containers/SignUpModal.tsx</title>
<path fill="none" stroke="#757575" d="M1069.37,-453.2C1094.97,-455.88 1122.25,-458.73 1147.62,-461.38"/>
<polygon fill="#757575" stroke="#757575" points="1147.31,-464.87 1157.62,-462.43 1148.04,-457.91 1147.31,-464.87"/>
</g>
<!-- containers/SignUpModal.tsx&#45;&gt;components/AuthFrom.tsx -->
<g id="edge44" class="edge">
<title>containers/SignUpModal.tsx&#45;&gt;components/AuthFrom.tsx</title>
<path fill="none" stroke="#757575" d="M1328.31,-460.49C1358.51,-455.95 1393.34,-450.72 1424.44,-446.04"/>
<polygon fill="#757575" stroke="#757575" points="1425.02,-449.49 1434.39,-444.55 1423.98,-442.57 1425.02,-449.49"/>
</g>
<!-- containers/SignUpModal.tsx&#45;&gt;components/Form.tsx -->
<g id="edge45" class="edge">
<title>containers/SignUpModal.tsx&#45;&gt;components/Form.tsx</title>
<path fill="none" stroke="#757575" d="M1343.13,-471.24C1418.93,-469.72 1529.28,-465.5 1625,-454.03 1640.46,-452.18 1657.02,-449.41 1672.45,-446.47"/>
<polygon fill="#757575" stroke="#757575" points="1673.25,-449.88 1682.4,-444.53 1671.91,-443.01 1673.25,-449.88"/>
</g>
<!-- components/pages/HomePage.tsx -->
<g id="node30" class="node">
<title>components/pages/HomePage.tsx</title>
<path fill="none" stroke="#c6c5fe" d="M496.33,-462.53C496.33,-462.53 287.67,-462.53 287.67,-462.53 283.83,-462.53 280,-458.7 280,-454.87 280,-454.87 280,-447.2 280,-447.2 280,-443.37 283.83,-439.53 287.67,-439.53 287.67,-439.53 496.33,-439.53 496.33,-439.53 500.17,-439.53 504,-443.37 504,-447.2 504,-447.2 504,-454.87 504,-454.87 504,-458.7 500.17,-462.53 496.33,-462.53"/>
<text text-anchor="middle" x="392" y="-447.33" font-family="Arial" font-size="14.00" fill="#c6c5fe">components/pages/HomePage.tsx</text>
</g>
<!-- components/pages/HomePage.tsx&#45;&gt;components/pages/Page.tsx -->
<g id="edge34" class="edge">
<title>components/pages/HomePage.tsx&#45;&gt;components/pages/Page.tsx</title>
<path fill="none" stroke="#757575" d="M504.06,-459.51C523.99,-461.04 544.69,-462.62 564.4,-464.12"/>
<polygon fill="#757575" stroke="#757575" points="564.37,-467.63 574.61,-464.9 564.9,-460.65 564.37,-467.63"/>
</g>
<!-- components/pages/MessagesPage.tsx -->
<g id="node31" class="node">
<title>components/pages/MessagesPage.tsx</title>
<path fill="none" stroke="#c6c5fe" d="M509.33,-421.53C509.33,-421.53 274.67,-421.53 274.67,-421.53 270.83,-421.53 267,-417.7 267,-413.87 267,-413.87 267,-406.2 267,-406.2 267,-402.37 270.83,-398.53 274.67,-398.53 274.67,-398.53 509.33,-398.53 509.33,-398.53 513.17,-398.53 517,-402.37 517,-406.2 517,-406.2 517,-413.87 517,-413.87 517,-417.7 513.17,-421.53 509.33,-421.53"/>
<text text-anchor="middle" x="392" y="-406.33" font-family="Arial" font-size="14.00" fill="#c6c5fe">components/pages/MessagesPage.tsx</text>
</g>
<!-- components/pages/MessagesPage.tsx&#45;&gt;components/pages/Page.tsx -->
<g id="edge35" class="edge">
<title>components/pages/MessagesPage.tsx&#45;&gt;components/pages/Page.tsx</title>
<path fill="none" stroke="#757575" d="M468.31,-421.58C484.43,-424.39 501.33,-427.59 517,-431.03 551.68,-438.66 590.32,-449.19 619.82,-457.67"/>
<polygon fill="#757575" stroke="#757575" points="618.88,-461.04 629.46,-460.46 620.83,-454.31 618.88,-461.04"/>
</g>
<!-- components/pages/NotFoundPage.tsx -->
<g id="node32" class="node">
<title>components/pages/NotFoundPage.tsx</title>
<path fill="none" stroke="#cfffac" d="M507.83,-380.53C507.83,-380.53 276.17,-380.53 276.17,-380.53 272.33,-380.53 268.5,-376.7 268.5,-372.87 268.5,-372.87 268.5,-365.2 268.5,-365.2 268.5,-361.37 272.33,-357.53 276.17,-357.53 276.17,-357.53 507.83,-357.53 507.83,-357.53 511.67,-357.53 515.5,-361.37 515.5,-365.2 515.5,-365.2 515.5,-372.87 515.5,-372.87 515.5,-376.7 511.67,-380.53 507.83,-380.53"/>
<text text-anchor="middle" x="392" y="-365.33" font-family="Arial" font-size="14.00" fill="#cfffac">components/pages/NotFoundPage.tsx</text>
</g>
<!-- components/pages/SellPage.tsx -->
<g id="node33" class="node">
<title>components/pages/SellPage.tsx</title>
<path fill="none" stroke="#c6c5fe" d="M489.33,-544.53C489.33,-544.53 294.67,-544.53 294.67,-544.53 290.83,-544.53 287,-540.7 287,-536.87 287,-536.87 287,-529.2 287,-529.2 287,-525.37 290.83,-521.53 294.67,-521.53 294.67,-521.53 489.33,-521.53 489.33,-521.53 493.17,-521.53 497,-525.37 497,-529.2 497,-529.2 497,-536.87 497,-536.87 497,-540.7 493.17,-544.53 489.33,-544.53"/>
<text text-anchor="middle" x="392" y="-529.33" font-family="Arial" font-size="14.00" fill="#c6c5fe">components/pages/SellPage.tsx</text>
</g>
<!-- components/pages/SellPage.tsx&#45;&gt;main/MenuConfig.ts -->
<g id="edge38" class="edge">
<title>components/pages/SellPage.tsx&#45;&gt;main/MenuConfig.ts</title>
<path fill="none" stroke="#757575" d="M496.9,-544.64C503.92,-547.23 510.7,-550.32 517,-554.03 539.07,-567.02 530.74,-586.36 553,-599.03 655.61,-657.44 795.58,-664.19 881.91,-661.64"/>
<polygon fill="#757575" stroke="#757575" points="882.29,-665.13 892.16,-661.28 882.04,-658.13 882.29,-665.13"/>
</g>
<!-- components/pages/SellPage.tsx&#45;&gt;components/menus/SubMenu.tsx -->
<g id="edge36" class="edge">
<title>components/pages/SellPage.tsx&#45;&gt;components/menus/SubMenu.tsx</title>
<path fill="none" stroke="#757575" d="M497.36,-533.03C514.25,-533.03 531.85,-533.03 549.06,-533.03"/>
<polygon fill="#757575" stroke="#757575" points="549.14,-536.53 559.14,-533.03 549.14,-529.53 549.14,-536.53"/>
</g>
<!-- components/pages/SellPage.tsx&#45;&gt;components/pages/Page.tsx -->
<g id="edge37" class="edge">
<title>components/pages/SellPage.tsx&#45;&gt;components/pages/Page.tsx</title>
<path fill="none" stroke="#757575" d="M472.28,-521.52C487.19,-519 502.61,-516.14 517,-513.03 551.83,-505.52 590.61,-494.94 620.15,-486.41"/>
<polygon fill="#757575" stroke="#757575" points="621.17,-489.76 629.79,-483.6 619.21,-483.04 621.17,-489.76"/>
</g>
<!-- components/views/CatalogsView.tsx -->
<g id="node34" class="node">
<title>components/views/CatalogsView.tsx</title>
<path fill="none" stroke="#cfffac" d="M501.83,-300.53C501.83,-300.53 282.17,-300.53 282.17,-300.53 278.33,-300.53 274.5,-296.7 274.5,-292.87 274.5,-292.87 274.5,-285.2 274.5,-285.2 274.5,-281.37 278.33,-277.53 282.17,-277.53 282.17,-277.53 501.83,-277.53 501.83,-277.53 505.67,-277.53 509.5,-281.37 509.5,-285.2 509.5,-285.2 509.5,-292.87 509.5,-292.87 509.5,-296.7 505.67,-300.53 501.83,-300.53"/>
<text text-anchor="middle" x="392" y="-285.33" font-family="Arial" font-size="14.00" fill="#cfffac">components/views/CatalogsView.tsx</text>
</g>
<!-- components/views/ProductView.tsx -->
<g id="node35" class="node">
<title>components/views/ProductView.tsx</title>
<path fill="none" stroke="#c6c5fe" d="M498.33,-211.53C498.33,-211.53 285.67,-211.53 285.67,-211.53 281.83,-211.53 278,-207.7 278,-203.87 278,-203.87 278,-196.2 278,-196.2 278,-192.37 281.83,-188.53 285.67,-188.53 285.67,-188.53 498.33,-188.53 498.33,-188.53 502.17,-188.53 506,-192.37 506,-196.2 506,-196.2 506,-203.87 506,-203.87 506,-207.7 502.17,-211.53 498.33,-211.53"/>
<text text-anchor="middle" x="392" y="-196.33" font-family="Arial" font-size="14.00" fill="#c6c5fe">components/views/ProductView.tsx</text>
</g>
<!-- components/views/ProductView.tsx&#45;&gt;components/AuthContainer.tsx -->
<g id="edge39" class="edge">
<title>components/views/ProductView.tsx&#45;&gt;components/AuthContainer.tsx</title>
<path fill="none" stroke="#757575" d="M432.11,-211.55C481.25,-226.03 565.59,-250.87 618.99,-266.6"/>
<polygon fill="#757575" stroke="#757575" points="618,-269.95 628.58,-269.42 619.98,-263.24 618,-269.95"/>
</g>
<!-- components/views/ProductView.tsx&#45;&gt;services/RestService.ts -->
<g id="edge42" class="edge">
<title>components/views/ProductView.tsx&#45;&gt;services/RestService.ts</title>
<path fill="none" stroke="#757575" d="M401.44,-188.41C422.9,-159.95 482.85,-87.04 553,-59.03 765.21,25.68 1043.31,-0.43 1174.64,-19.97"/>
<polygon fill="#757575" stroke="#757575" points="1174.19,-23.44 1184.6,-21.48 1175.24,-16.52 1174.19,-23.44"/>
</g>
<!-- components/views/ProductView.tsx&#45;&gt;types/models.d.ts -->
<g id="edge43" class="edge">
<title>components/views/ProductView.tsx&#45;&gt;types/models.d.ts</title>
<path fill="none" stroke="#757575" d="M412.89,-188.51C442.36,-172.1 499.89,-142.6 553,-130.03 903.37,-47.15 1005.69,-73.81 1363,-118.03 1397.39,-122.29 1435.36,-131.62 1464.22,-139.72"/>
<polygon fill="#757575" stroke="#757575" points="1463.46,-143.14 1474.03,-142.52 1465.38,-136.41 1463.46,-143.14"/>
</g>
<!-- components/views/ProductView.tsx&#45;&gt;components/ProductFormModal.tsx -->
<g id="edge40" class="edge">
<title>components/views/ProductView.tsx&#45;&gt;components/ProductFormModal.tsx</title>
<path fill="none" stroke="#757575" d="M506.04,-209.9C518.08,-210.95 530.37,-212.02 542.54,-213.08"/>
<polygon fill="#757575" stroke="#757575" points="542.46,-216.59 552.73,-213.97 543.07,-209.62 542.46,-216.59"/>
</g>
<!-- components/views/ProductView.tsx&#45;&gt;components/ProductList.tsx -->
<g id="edge41" class="edge">
<title>components/views/ProductView.tsx&#45;&gt;components/ProductList.tsx</title>
<path fill="none" stroke="#757575" d="M457.82,-188.48C498.4,-181.25 550.82,-171.91 593.16,-164.37"/>
<polygon fill="#757575" stroke="#757575" points="593.91,-167.79 603.14,-162.59 592.68,-160.9 593.91,-167.79"/>
</g>
<!-- components/views/ProfileView.tsx -->
<g id="node36" class="node">
<title>components/views/ProfileView.tsx</title>
<path fill="none" stroke="#cfffac" d="M494.33,-667.53C494.33,-667.53 289.67,-667.53 289.67,-667.53 285.83,-667.53 282,-663.7 282,-659.87 282,-659.87 282,-652.2 282,-652.2 282,-648.37 285.83,-644.53 289.67,-644.53 289.67,-644.53 494.33,-644.53 494.33,-644.53 498.17,-644.53 502,-648.37 502,-652.2 502,-652.2 502,-659.87 502,-659.87 502,-663.7 498.17,-667.53 494.33,-667.53"/>
<text text-anchor="middle" x="392" y="-652.33" font-family="Arial" font-size="14.00" fill="#cfffac">components/views/ProfileView.tsx</text>
</g>
<!-- index.css -->
<g id="node37" class="node">
<title>index.css</title>
<path fill="none" stroke="#cfffac" d="M420.83,-626.53C420.83,-626.53 363.17,-626.53 363.17,-626.53 359.33,-626.53 355.5,-622.7 355.5,-618.87 355.5,-618.87 355.5,-611.2 355.5,-611.2 355.5,-607.37 359.33,-603.53 363.17,-603.53 363.17,-603.53 420.83,-603.53 420.83,-603.53 424.67,-603.53 428.5,-607.37 428.5,-611.2 428.5,-611.2 428.5,-618.87 428.5,-618.87 428.5,-622.7 424.67,-626.53 420.83,-626.53"/>
<text text-anchor="middle" x="392" y="-611.33" font-family="Arial" font-size="14.00" fill="#cfffac">index.css</text>
</g>
<!-- index.tsx -->
<g id="node38" class="node">
<title>index.tsx</title>
<path fill="none" stroke="#c6c5fe" d="M142.83,-503.53C142.83,-503.53 88.17,-503.53 88.17,-503.53 84.33,-503.53 80.5,-499.7 80.5,-495.87 80.5,-495.87 80.5,-488.2 80.5,-488.2 80.5,-484.37 84.33,-480.53 88.17,-480.53 88.17,-480.53 142.83,-480.53 142.83,-480.53 146.67,-480.53 150.5,-484.37 150.5,-488.2 150.5,-488.2 150.5,-495.87 150.5,-495.87 150.5,-499.7 146.67,-503.53 142.83,-503.53"/>
<text text-anchor="middle" x="115.5" y="-488.33" font-family="Arial" font-size="14.00" fill="#c6c5fe">index.tsx</text>
</g>
<!-- index.tsx&#45;&gt;components/containers/App.tsx -->
<g id="edge46" class="edge">
<title>index.tsx&#45;&gt;components/containers/App.tsx</title>
<path fill="none" stroke="#757575" d="M120.81,-503.57C135.17,-540.36 185.23,-655.68 267,-710.03 273.44,-714.31 280.45,-717.91 287.75,-720.93"/>
<polygon fill="#757575" stroke="#757575" points="286.54,-724.21 297.14,-724.45 289,-717.66 286.54,-724.21"/>
</g>
<!-- index.tsx&#45;&gt;main/RoutePath.ts -->
<g id="edge57" class="edge">
<title>index.tsx&#45;&gt;main/RoutePath.ts</title>
<path fill="none" stroke="#757575" d="M121.54,-503.62C137.15,-537.9 188.47,-638.75 267,-677.03 347.82,-716.43 961.71,-703.83 1175.98,-698.15"/>
<polygon fill="#757575" stroke="#757575" points="1176.28,-701.64 1186.18,-697.88 1176.09,-694.65 1176.28,-701.64"/>
</g>
<!-- index.tsx&#45;&gt;components/pages/AccountPage.tsx -->
<g id="edge47" class="edge">
<title>index.tsx&#45;&gt;components/pages/AccountPage.tsx</title>
<path fill="none" stroke="#757575" d="M150.71,-492.03C179.32,-492.03 222.01,-492.03 263.51,-492.03"/>
<polygon fill="#757575" stroke="#757575" points="263.74,-495.53 273.74,-492.03 263.74,-488.53 263.74,-495.53"/>
</g>
<!-- index.tsx&#45;&gt;components/pages/AuthPage.tsx -->
<g id="edge48" class="edge">
<title>index.tsx&#45;&gt;components/pages/AuthPage.tsx</title>
<path fill="none" stroke="#757575" d="M123.87,-480.53C143.15,-451.65 198.38,-376.43 267,-349.03 383.78,-302.4 765.24,-392.02 906.9,-428.01"/>
<polygon fill="#757575" stroke="#757575" points="906.13,-431.42 916.68,-430.5 907.86,-424.64 906.13,-431.42"/>
</g>
<!-- index.tsx&#45;&gt;components/pages/HomePage.tsx -->
<g id="edge49" class="edge">
<title>index.tsx&#45;&gt;components/pages/HomePage.tsx</title>
<path fill="none" stroke="#757575" d="M150.71,-486.92C188.85,-481.23 252.02,-471.79 304.01,-464.03"/>
<polygon fill="#757575" stroke="#757575" points="304.54,-467.49 313.92,-462.55 303.51,-460.56 304.54,-467.49"/>
</g>
<!-- index.tsx&#45;&gt;components/pages/MessagesPage.tsx -->
<g id="edge50" class="edge">
<title>index.tsx&#45;&gt;components/pages/MessagesPage.tsx</title>
<path fill="none" stroke="#757575" d="M140.43,-480.43C169.65,-466.72 220.89,-444.11 267,-431.03 276.87,-428.23 287.29,-425.75 297.73,-423.57"/>
<polygon fill="#757575" stroke="#757575" points="298.62,-426.96 307.73,-421.57 297.24,-420.1 298.62,-426.96"/>
</g>
<!-- index.tsx&#45;&gt;components/pages/NotFoundPage.tsx -->
<g id="edge51" class="edge">
<title>index.tsx&#45;&gt;components/pages/NotFoundPage.tsx</title>
<path fill="none" stroke="#757575" d="M129.47,-480.33C154.22,-458.7 210.76,-412.61 267,-390.03 273.33,-387.49 279.96,-385.26 286.73,-383.3"/>
<polygon fill="#757575" stroke="#757575" points="287.97,-386.59 296.72,-380.61 286.15,-379.83 287.97,-386.59"/>
</g>
<!-- index.tsx&#45;&gt;components/pages/SellPage.tsx -->
<g id="edge52" class="edge">
<title>index.tsx&#45;&gt;components/pages/SellPage.tsx</title>
<path fill="none" stroke="#757575" d="M150.71,-497.14C188.85,-502.84 252.02,-512.27 304.01,-520.04"/>
<polygon fill="#757575" stroke="#757575" points="303.51,-523.5 313.92,-521.52 304.54,-516.58 303.51,-523.5"/>
</g>
<!-- index.tsx&#45;&gt;components/views/CatalogsView.tsx -->
<g id="edge53" class="edge">
<title>index.tsx&#45;&gt;components/views/CatalogsView.tsx</title>
<path fill="none" stroke="#757575" d="M122.78,-480.22C140.6,-447.96 194.89,-357.91 267,-315.03 274.49,-310.58 282.62,-306.89 291.03,-303.82"/>
<polygon fill="#757575" stroke="#757575" points="292.24,-307.1 300.62,-300.61 290.02,-300.46 292.24,-307.1"/>
</g>
<!-- index.tsx&#45;&gt;components/views/ProductView.tsx -->
<g id="edge54" class="edge">
<title>index.tsx&#45;&gt;components/views/ProductView.tsx</title>
<path fill="none" stroke="#757575" d="M121.84,-480.47C138.71,-444.98 194.04,-335.98 267,-269.03 292.14,-245.97 326.37,-227.66 352.5,-215.72"/>
<polygon fill="#757575" stroke="#757575" points="354.01,-218.88 361.72,-211.61 351.16,-212.48 354.01,-218.88"/>
</g>
<!-- index.tsx&#45;&gt;components/views/ProfileView.tsx -->
<g id="edge55" class="edge">
<title>index.tsx&#45;&gt;components/views/ProfileView.tsx</title>
<path fill="none" stroke="#757575" d="M124.73,-503.79C145.15,-531.95 201.27,-603.34 267,-636.03 270.63,-637.84 274.39,-639.49 278.23,-640.99"/>
<polygon fill="#757575" stroke="#757575" points="277.36,-644.4 287.96,-644.45 279.71,-637.8 277.36,-644.4"/>
</g>
<!-- index.tsx&#45;&gt;index.css -->
<g id="edge56" class="edge">
<title>index.tsx&#45;&gt;index.css</title>
<path fill="none" stroke="#757575" d="M129.05,-503.56C153.53,-525.33 210.25,-572.37 267,-595.03 291.78,-604.93 321.21,-609.94 345.18,-612.47"/>
<polygon fill="#757575" stroke="#757575" points="345.14,-615.98 355.43,-613.43 345.8,-609.01 345.14,-615.98"/>
</g>
<!-- reportWebVitals.ts -->
<g id="node39" class="node">
<title>reportWebVitals.ts</title>
<path fill="none" stroke="#cfffac" d="M447.83,-585.53C447.83,-585.53 336.17,-585.53 336.17,-585.53 332.33,-585.53 328.5,-581.7 328.5,-577.87 328.5,-577.87 328.5,-570.2 328.5,-570.2 328.5,-566.37 332.33,-562.53 336.17,-562.53 336.17,-562.53 447.83,-562.53 447.83,-562.53 451.67,-562.53 455.5,-566.37 455.5,-570.2 455.5,-570.2 455.5,-577.87 455.5,-577.87 455.5,-581.7 451.67,-585.53 447.83,-585.53"/>
<text text-anchor="middle" x="392" y="-570.33" font-family="Arial" font-size="14.00" fill="#cfffac">reportWebVitals.ts</text>
</g>
<!-- index.tsx&#45;&gt;reportWebVitals.ts -->
<g id="edge58" class="edge">
<title>index.tsx&#45;&gt;reportWebVitals.ts</title>
<path fill="none" stroke="#757575" d="M139.88,-503.65C168.97,-517.65 220.5,-540.9 267,-554.03 283.4,-558.67 301.35,-562.34 318.36,-565.2"/>
<polygon fill="#757575" stroke="#757575" points="317.83,-568.66 328.26,-566.79 318.94,-561.74 317.83,-568.66"/>
</g>
<!-- react&#45;app&#45;env.d.ts -->
<g id="node40" class="node">
<title>react&#45;app&#45;env.d.ts</title>
<path fill="none" stroke="#cfffac" d="M170.33,-829.53C170.33,-829.53 60.67,-829.53 60.67,-829.53 56.83,-829.53 53,-825.7 53,-821.87 53,-821.87 53,-814.2 53,-814.2 53,-810.37 56.83,-806.53 60.67,-806.53 60.67,-806.53 170.33,-806.53 170.33,-806.53 174.17,-806.53 178,-810.37 178,-814.2 178,-814.2 178,-821.87 178,-821.87 178,-825.7 174.17,-829.53 170.33,-829.53"/>
<text text-anchor="middle" x="115.5" y="-814.33" font-family="Arial" font-size="14.00" fill="#cfffac">react&#45;app&#45;env.d.ts</text>
</g>
<!-- services/LocalData.ts -->
<g id="node41" class="node">
<title>services/LocalData.ts</title>
<path fill="none" stroke="#cfffac" d="M180.33,-870.53C180.33,-870.53 50.67,-870.53 50.67,-870.53 46.83,-870.53 43,-866.7 43,-862.87 43,-862.87 43,-855.2 43,-855.2 43,-851.37 46.83,-847.53 50.67,-847.53 50.67,-847.53 180.33,-847.53 180.33,-847.53 184.17,-847.53 188,-851.37 188,-855.2 188,-855.2 188,-862.87 188,-862.87 188,-866.7 184.17,-870.53 180.33,-870.53"/>
<text text-anchor="middle" x="115.5" y="-855.33" font-family="Arial" font-size="14.00" fill="#cfffac">services/LocalData.ts</text>
</g>
<!-- setupTests.ts -->
<g id="node43" class="node">
<title>setupTests.ts</title>
<path fill="none" stroke="#cfffac" d="M155.33,-911.53C155.33,-911.53 75.67,-911.53 75.67,-911.53 71.83,-911.53 68,-907.7 68,-903.87 68,-903.87 68,-896.2 68,-896.2 68,-892.37 71.83,-888.53 75.67,-888.53 75.67,-888.53 155.33,-888.53 155.33,-888.53 159.17,-888.53 163,-892.37 163,-896.2 163,-896.2 163,-903.87 163,-903.87 163,-907.7 159.17,-911.53 155.33,-911.53"/>
<text text-anchor="middle" x="115.5" y="-896.33" font-family="Arial" font-size="14.00" fill="#cfffac">setupTests.ts</text>
</g>
</g>
</svg>
