<?xml version="1.0" encoding="UTF-8" standalone="no"?>
<!DOCTYPE svg PUBLIC "-//W3C//DTD SVG 1.1//EN"
 "http://www.w3.org/Graphics/SVG/1.1/DTD/svg11.dtd">
<!-- Generated by graphviz version 2.43.0 (0)
 -->
<!-- Title: G Pages: 1 -->
<svg width="2224pt" height="1522pt"
 viewBox="0.00 0.00 2224.20 1521.97" xmlns="http://www.w3.org/2000/svg" xmlns:xlink="http://www.w3.org/1999/xlink">
<g id="graph0" class="graph" transform="scale(1 1) rotate(0) translate(21.6 1500.37)">
<title>G</title>
<polygon fill="#111111" stroke="transparent" points="-21.6,21.6 -21.6,-1500.37 2202.6,-1500.37 2202.6,21.6 -21.6,21.6"/>
<!-- components/AuthContainer.tsx -->
<g id="node1" class="node">
<title>components/AuthContainer.tsx</title>
<path fill="none" stroke="#c6c5fe" d="M484.83,-947.77C484.83,-947.77 299.17,-947.77 299.17,-947.77 295.33,-947.77 291.5,-943.94 291.5,-940.1 291.5,-940.1 291.5,-932.44 291.5,-932.44 291.5,-928.6 295.33,-924.77 299.17,-924.77 299.17,-924.77 484.83,-924.77 484.83,-924.77 488.67,-924.77 492.5,-928.6 492.5,-932.44 492.5,-932.44 492.5,-940.1 492.5,-940.1 492.5,-943.94 488.67,-947.77 484.83,-947.77"/>
<text text-anchor="middle" x="392" y="-932.57" font-family="Arial" font-size="14.00" fill="#c6c5fe">components/AuthContainer.tsx</text>
</g>
<!-- services/Firebase.ts -->
<g id="node2" class="node">
<title>services/Firebase.ts</title>
<path fill="none" stroke="#c6c5fe" d="M727.83,-986.77C727.83,-986.77 606.17,-986.77 606.17,-986.77 602.33,-986.77 598.5,-982.94 598.5,-979.1 598.5,-979.1 598.5,-971.44 598.5,-971.44 598.5,-967.6 602.33,-963.77 606.17,-963.77 606.17,-963.77 727.83,-963.77 727.83,-963.77 731.67,-963.77 735.5,-967.6 735.5,-971.44 735.5,-971.44 735.5,-979.1 735.5,-979.1 735.5,-982.94 731.67,-986.77 727.83,-986.77"/>
<text text-anchor="middle" x="667" y="-971.57" font-family="Arial" font-size="14.00" fill="#c6c5fe">services/Firebase.ts</text>
</g>
<!-- components/AuthContainer.tsx&#45;&gt;services/Firebase.ts -->
<g id="edge1" class="edge">
<title>components/AuthContainer.tsx&#45;&gt;services/Firebase.ts</title>
<path fill="none" stroke="#757575" d="M473.8,-947.81C510.02,-952.99 552.55,-959.06 588.38,-964.18"/>
<polygon fill="#757575" stroke="#757575" points="587.91,-967.65 598.3,-965.6 588.9,-960.72 587.91,-967.65"/>
</g>
<!-- types/models.d.ts -->
<g id="node52" class="node">
<title>types/models.d.ts</title>
<path fill="none" stroke="#cfffac" d="M1959.83,-1028.77C1959.83,-1028.77 1853.17,-1028.77 1853.17,-1028.77 1849.33,-1028.77 1845.5,-1024.94 1845.5,-1021.1 1845.5,-1021.1 1845.5,-1013.44 1845.5,-1013.44 1845.5,-1009.6 1849.33,-1005.77 1853.17,-1005.77 1853.17,-1005.77 1959.83,-1005.77 1959.83,-1005.77 1963.67,-1005.77 1967.5,-1009.6 1967.5,-1013.44 1967.5,-1013.44 1967.5,-1021.1 1967.5,-1021.1 1967.5,-1024.94 1963.67,-1028.77 1959.83,-1028.77"/>
<text text-anchor="middle" x="1906.5" y="-1013.57" font-family="Arial" font-size="14.00" fill="#cfffac">types/models.d.ts</text>
</g>
<!-- services/Firebase.ts&#45;&gt;types/models.d.ts -->
<g id="edge94" class="edge">
<title>services/Firebase.ts&#45;&gt;types/models.d.ts</title>
<path fill="none" stroke="#757575" d="M735.85,-977.57C951.08,-984.88 1617.11,-1007.48 1835.42,-1014.89"/>
<polygon fill="#757575" stroke="#757575" points="1835.36,-1018.39 1845.47,-1015.23 1835.6,-1011.39 1835.36,-1018.39"/>
</g>
<!-- components/AuthFrom.tsx -->
<g id="node3" class="node">
<title>components/AuthFrom.tsx</title>
<path fill="none" stroke="#ff6c60" d="M1054.33,-835.77C1054.33,-835.77 893.67,-835.77 893.67,-835.77 889.83,-835.77 886,-831.94 886,-828.1 886,-828.1 886,-820.44 886,-820.44 886,-816.6 889.83,-812.77 893.67,-812.77 893.67,-812.77 1054.33,-812.77 1054.33,-812.77 1058.17,-812.77 1062,-816.6 1062,-820.44 1062,-820.44 1062,-828.1 1062,-828.1 1062,-831.94 1058.17,-835.77 1054.33,-835.77"/>
<text text-anchor="middle" x="974" y="-820.57" font-family="Arial" font-size="14.00" fill="#ff6c60">components/AuthFrom.tsx</text>
</g>
<!-- components/Form.tsx -->
<g id="node4" class="node">
<title>components/Form.tsx</title>
<path fill="none" stroke="#cfffac" d="M1366.83,-954.77C1366.83,-954.77 1234.17,-954.77 1234.17,-954.77 1230.33,-954.77 1226.5,-950.94 1226.5,-947.1 1226.5,-947.1 1226.5,-939.44 1226.5,-939.44 1226.5,-935.6 1230.33,-931.77 1234.17,-931.77 1234.17,-931.77 1366.83,-931.77 1366.83,-931.77 1370.67,-931.77 1374.5,-935.6 1374.5,-939.44 1374.5,-939.44 1374.5,-947.1 1374.5,-947.1 1374.5,-950.94 1370.67,-954.77 1366.83,-954.77"/>
<text text-anchor="middle" x="1300.5" y="-939.57" font-family="Arial" font-size="14.00" fill="#cfffac">components/Form.tsx</text>
</g>
<!-- components/AuthFrom.tsx&#45;&gt;components/Form.tsx -->
<g id="edge2" class="edge">
<title>components/AuthFrom.tsx&#45;&gt;components/Form.tsx</title>
<path fill="none" stroke="#757575" d="M1062.13,-820.3C1086.3,-823.02 1111.3,-829.81 1131,-844.27 1161.78,-866.85 1136.55,-899.23 1167,-922.27 1181.13,-932.96 1198.56,-939.15 1216.08,-942.57"/>
<polygon fill="#757575" stroke="#757575" points="1215.95,-946.1 1226.39,-944.28 1217.09,-939.19 1215.95,-946.1"/>
</g>
<!-- components/FormInputGroup.tsx -->
<g id="node5" class="node">
<title>components/FormInputGroup.tsx</title>
<path fill="none" stroke="#ff6c60" d="M1400.83,-913.77C1400.83,-913.77 1200.17,-913.77 1200.17,-913.77 1196.33,-913.77 1192.5,-909.94 1192.5,-906.1 1192.5,-906.1 1192.5,-898.44 1192.5,-898.44 1192.5,-894.6 1196.33,-890.77 1200.17,-890.77 1200.17,-890.77 1400.83,-890.77 1400.83,-890.77 1404.67,-890.77 1408.5,-894.6 1408.5,-898.44 1408.5,-898.44 1408.5,-906.1 1408.5,-906.1 1408.5,-909.94 1404.67,-913.77 1400.83,-913.77"/>
<text text-anchor="middle" x="1300.5" y="-898.57" font-family="Arial" font-size="14.00" fill="#ff6c60">components/FormInputGroup.tsx</text>
</g>
<!-- components/AuthFrom.tsx&#45;&gt;components/FormInputGroup.tsx -->
<g id="edge3" class="edge">
<title>components/AuthFrom.tsx&#45;&gt;components/FormInputGroup.tsx</title>
<path fill="none" stroke="#757575" d="M1062.14,-817.53C1085.29,-820.16 1109.75,-825.6 1131,-835.27 1150.48,-844.14 1147.82,-857.76 1167,-867.27 1189.33,-878.34 1215.96,-884.7 1239.48,-888.99"/>
<polygon fill="#757575" stroke="#757575" points="1238.89,-892.44 1249.34,-890.72 1240.09,-885.55 1238.89,-892.44"/>
</g>
<!-- components/FormInputGroup.tsx&#45;&gt;components/AuthFrom.tsx -->
<g id="edge4" class="edge">
<title>components/FormInputGroup.tsx&#45;&gt;components/AuthFrom.tsx</title>
<path fill="none" stroke="#757575" d="M1192.25,-895.4C1183.51,-892.58 1174.98,-889.23 1167,-885.27 1147.82,-875.76 1150.48,-862.14 1131,-853.27 1112.82,-845 1092.3,-839.82 1072.25,-836.43"/>
<polygon fill="#757575" stroke="#757575" points="1072.56,-832.94 1062.14,-834.86 1071.49,-839.86 1072.56,-832.94"/>
</g>
<!-- components/FormInputGroup.scss -->
<g id="node6" class="node">
<title>components/FormInputGroup.scss</title>
<path fill="none" stroke="#cfffac" d="M1711.33,-990.77C1711.33,-990.77 1500.67,-990.77 1500.67,-990.77 1496.83,-990.77 1493,-986.94 1493,-983.1 1493,-983.1 1493,-975.44 1493,-975.44 1493,-971.6 1496.83,-967.77 1500.67,-967.77 1500.67,-967.77 1711.33,-967.77 1711.33,-967.77 1715.17,-967.77 1719,-971.6 1719,-975.44 1719,-975.44 1719,-983.1 1719,-983.1 1719,-986.94 1715.17,-990.77 1711.33,-990.77"/>
<text text-anchor="middle" x="1606" y="-975.57" font-family="Arial" font-size="14.00" fill="#cfffac">components/FormInputGroup.scss</text>
</g>
<!-- components/FormInputGroup.tsx&#45;&gt;components/FormInputGroup.scss -->
<g id="edge5" class="edge">
<title>components/FormInputGroup.tsx&#45;&gt;components/FormInputGroup.scss</title>
<path fill="none" stroke="#757575" d="M1408.63,-913.05C1417.4,-915.55 1425.97,-918.58 1434,-922.27 1453.19,-931.08 1450.99,-944.07 1470,-953.27 1479.79,-958 1490.37,-961.88 1501.15,-965.05"/>
<polygon fill="#757575" stroke="#757575" points="1500.52,-968.5 1511.08,-967.76 1502.36,-961.75 1500.52,-968.5"/>
</g>
<!-- components/Friends.tsx -->
<g id="node7" class="node">
<title>components/Friends.tsx</title>
<path fill="none" stroke="#cfffac" d="M188.33,-1314.77C188.33,-1314.77 42.67,-1314.77 42.67,-1314.77 38.83,-1314.77 35,-1310.94 35,-1307.1 35,-1307.1 35,-1299.44 35,-1299.44 35,-1295.6 38.83,-1291.77 42.67,-1291.77 42.67,-1291.77 188.33,-1291.77 188.33,-1291.77 192.17,-1291.77 196,-1295.6 196,-1299.44 196,-1299.44 196,-1307.1 196,-1307.1 196,-1310.94 192.17,-1314.77 188.33,-1314.77"/>
<text text-anchor="middle" x="115.5" y="-1299.57" font-family="Arial" font-size="14.00" fill="#cfffac">components/Friends.tsx</text>
</g>
<!-- components/ModalForm.scss -->
<g id="node8" class="node">
<title>components/ModalForm.scss</title>
<path fill="none" stroke="#cfffac" d="M481.83,-1355.77C481.83,-1355.77 302.17,-1355.77 302.17,-1355.77 298.33,-1355.77 294.5,-1351.94 294.5,-1348.1 294.5,-1348.1 294.5,-1340.44 294.5,-1340.44 294.5,-1336.6 298.33,-1332.77 302.17,-1332.77 302.17,-1332.77 481.83,-1332.77 481.83,-1332.77 485.67,-1332.77 489.5,-1336.6 489.5,-1340.44 489.5,-1340.44 489.5,-1348.1 489.5,-1348.1 489.5,-1351.94 485.67,-1355.77 481.83,-1355.77"/>
<text text-anchor="middle" x="392" y="-1340.57" font-family="Arial" font-size="14.00" fill="#cfffac">components/ModalForm.scss</text>
</g>
<!-- components/ModalForm.tsx -->
<g id="node9" class="node">
<title>components/ModalForm.tsx</title>
<path fill="none" stroke="#c6c5fe" d="M200.33,-1355.77C200.33,-1355.77 30.67,-1355.77 30.67,-1355.77 26.83,-1355.77 23,-1351.94 23,-1348.1 23,-1348.1 23,-1340.44 23,-1340.44 23,-1336.6 26.83,-1332.77 30.67,-1332.77 30.67,-1332.77 200.33,-1332.77 200.33,-1332.77 204.17,-1332.77 208,-1336.6 208,-1340.44 208,-1340.44 208,-1348.1 208,-1348.1 208,-1351.94 204.17,-1355.77 200.33,-1355.77"/>
<text text-anchor="middle" x="115.5" y="-1340.57" font-family="Arial" font-size="14.00" fill="#c6c5fe">components/ModalForm.tsx</text>
</g>
<!-- components/ModalForm.tsx&#45;&gt;components/ModalForm.scss -->
<g id="edge6" class="edge">
<title>components/ModalForm.tsx&#45;&gt;components/ModalForm.scss</title>
<path fill="none" stroke="#757575" d="M208.29,-1344.27C232.53,-1344.27 258.91,-1344.27 283.89,-1344.27"/>
<polygon fill="#757575" stroke="#757575" points="284.13,-1347.77 294.13,-1344.27 284.13,-1340.77 284.13,-1347.77"/>
</g>
<!-- components/containers/App.test.tsx -->
<g id="node10" class="node">
<title>components/containers/App.test.tsx</title>
<path fill="none" stroke="#c6c5fe" d="M223.33,-1273.77C223.33,-1273.77 7.67,-1273.77 7.67,-1273.77 3.83,-1273.77 0,-1269.94 0,-1266.1 0,-1266.1 0,-1258.44 0,-1258.44 0,-1254.6 3.83,-1250.77 7.67,-1250.77 7.67,-1250.77 223.33,-1250.77 223.33,-1250.77 227.17,-1250.77 231,-1254.6 231,-1258.44 231,-1258.44 231,-1266.1 231,-1266.1 231,-1269.94 227.17,-1273.77 223.33,-1273.77"/>
<text text-anchor="middle" x="115.5" y="-1258.57" font-family="Arial" font-size="14.00" fill="#c6c5fe">components/containers/App.test.tsx</text>
</g>
<!-- components/containers/App.tsx -->
<g id="node11" class="node">
<title>components/containers/App.tsx</title>
<path fill="none" stroke="#c6c5fe" d="M487.33,-1273.77C487.33,-1273.77 296.67,-1273.77 296.67,-1273.77 292.83,-1273.77 289,-1269.94 289,-1266.1 289,-1266.1 289,-1258.44 289,-1258.44 289,-1254.6 292.83,-1250.77 296.67,-1250.77 296.67,-1250.77 487.33,-1250.77 487.33,-1250.77 491.17,-1250.77 495,-1254.6 495,-1258.44 495,-1258.44 495,-1266.1 495,-1266.1 495,-1269.94 491.17,-1273.77 487.33,-1273.77"/>
<text text-anchor="middle" x="392" y="-1258.57" font-family="Arial" font-size="14.00" fill="#c6c5fe">components/containers/App.tsx</text>
</g>
<!-- components/containers/App.test.tsx&#45;&gt;components/containers/App.tsx -->
<g id="edge7" class="edge">
<title>components/containers/App.test.tsx&#45;&gt;components/containers/App.tsx</title>
<path fill="none" stroke="#757575" d="M231.32,-1262.27C246.99,-1262.27 263.06,-1262.27 278.68,-1262.27"/>
<polygon fill="#757575" stroke="#757575" points="278.87,-1265.77 288.87,-1262.27 278.87,-1258.77 278.87,-1265.77"/>
</g>
<!-- components/menus/RootMenu.tsx -->
<g id="node12" class="node">
<title>components/menus/RootMenu.tsx</title>
<path fill="none" stroke="#c6c5fe" d="M771.33,-1273.77C771.33,-1273.77 562.67,-1273.77 562.67,-1273.77 558.83,-1273.77 555,-1269.94 555,-1266.1 555,-1266.1 555,-1258.44 555,-1258.44 555,-1254.6 558.83,-1250.77 562.67,-1250.77 562.67,-1250.77 771.33,-1250.77 771.33,-1250.77 775.17,-1250.77 779,-1254.6 779,-1258.44 779,-1258.44 779,-1266.1 779,-1266.1 779,-1269.94 775.17,-1273.77 771.33,-1273.77"/>
<text text-anchor="middle" x="667" y="-1258.57" font-family="Arial" font-size="14.00" fill="#c6c5fe">components/menus/RootMenu.tsx</text>
</g>
<!-- components/containers/App.tsx&#45;&gt;components/menus/RootMenu.tsx -->
<g id="edge8" class="edge">
<title>components/containers/App.tsx&#45;&gt;components/menus/RootMenu.tsx</title>
<path fill="none" stroke="#757575" d="M495.04,-1262.27C511.22,-1262.27 528.09,-1262.27 544.66,-1262.27"/>
<polygon fill="#757575" stroke="#757575" points="544.93,-1265.77 554.93,-1262.27 544.93,-1258.77 544.93,-1265.77"/>
</g>
<!-- main/RoutePath.ts -->
<g id="node13" class="node">
<title>main/RoutePath.ts</title>
<path fill="none" stroke="#c6c5fe" d="M1356.83,-1184.77C1356.83,-1184.77 1244.17,-1184.77 1244.17,-1184.77 1240.33,-1184.77 1236.5,-1180.94 1236.5,-1177.1 1236.5,-1177.1 1236.5,-1169.44 1236.5,-1169.44 1236.5,-1165.6 1240.33,-1161.77 1244.17,-1161.77 1244.17,-1161.77 1356.83,-1161.77 1356.83,-1161.77 1360.67,-1161.77 1364.5,-1165.6 1364.5,-1169.44 1364.5,-1169.44 1364.5,-1177.1 1364.5,-1177.1 1364.5,-1180.94 1360.67,-1184.77 1356.83,-1184.77"/>
<text text-anchor="middle" x="1300.5" y="-1169.57" font-family="Arial" font-size="14.00" fill="#c6c5fe">main/RoutePath.ts</text>
</g>
<!-- components/containers/App.tsx&#45;&gt;main/RoutePath.ts -->
<g id="edge9" class="edge">
<title>components/containers/App.tsx&#45;&gt;main/RoutePath.ts</title>
<path fill="none" stroke="#757575" d="M473.88,-1250.75C499.18,-1247.39 527.22,-1243.92 553,-1241.27 809.25,-1214.94 874.98,-1226.75 1131,-1198.27 1162.29,-1194.79 1196.69,-1189.88 1226.21,-1185.33"/>
<polygon fill="#757575" stroke="#757575" points="1227.09,-1188.74 1236.43,-1183.74 1226.01,-1181.82 1227.09,-1188.74"/>
</g>
<!-- types/types.d.ts -->
<g id="node17" class="node">
<title>types/types.d.ts</title>
<path fill="none" stroke="#cfffac" d="M2173.33,-813.77C2173.33,-813.77 2078.67,-813.77 2078.67,-813.77 2074.83,-813.77 2071,-809.94 2071,-806.1 2071,-806.1 2071,-798.44 2071,-798.44 2071,-794.6 2074.83,-790.77 2078.67,-790.77 2078.67,-790.77 2173.33,-790.77 2173.33,-790.77 2177.17,-790.77 2181,-794.6 2181,-798.44 2181,-798.44 2181,-806.1 2181,-806.1 2181,-809.94 2177.17,-813.77 2173.33,-813.77"/>
<text text-anchor="middle" x="2126" y="-798.57" font-family="Arial" font-size="14.00" fill="#cfffac">types/types.d.ts</text>
</g>
<!-- components/menus/RootMenu.tsx&#45;&gt;types/types.d.ts -->
<g id="edge34" class="edge">
<title>components/menus/RootMenu.tsx&#45;&gt;types/types.d.ts</title>
<path fill="none" stroke="#757575" d="M779.11,-1272.44C905.16,-1283.09 1116.94,-1298.27 1299.5,-1298.27 1299.5,-1298.27 1299.5,-1298.27 1607,-1298.27 1798.14,-1298.27 1893.4,-1384.65 2035,-1256.27 2100.24,-1197.12 2119.74,-906.43 2124,-824.06"/>
<polygon fill="#757575" stroke="#757575" points="2127.51,-824.03 2124.5,-813.87 2120.51,-823.68 2127.51,-824.03"/>
</g>
<!-- components/menus/DropdownMenu.tsx -->
<g id="node27" class="node">
<title>components/menus/DropdownMenu.tsx</title>
<path fill="none" stroke="#c6c5fe" d="M2027.33,-1247.77C2027.33,-1247.77 1785.67,-1247.77 1785.67,-1247.77 1781.83,-1247.77 1778,-1243.94 1778,-1240.1 1778,-1240.1 1778,-1232.44 1778,-1232.44 1778,-1228.6 1781.83,-1224.77 1785.67,-1224.77 1785.67,-1224.77 2027.33,-1224.77 2027.33,-1224.77 2031.17,-1224.77 2035,-1228.6 2035,-1232.44 2035,-1232.44 2035,-1240.1 2035,-1240.1 2035,-1243.94 2031.17,-1247.77 2027.33,-1247.77"/>
<text text-anchor="middle" x="1906.5" y="-1232.57" font-family="Arial" font-size="14.00" fill="#c6c5fe">components/menus/DropdownMenu.tsx</text>
</g>
<!-- components/menus/RootMenu.tsx&#45;&gt;components/menus/DropdownMenu.tsx -->
<g id="edge32" class="edge">
<title>components/menus/RootMenu.tsx&#45;&gt;components/menus/DropdownMenu.tsx</title>
<path fill="none" stroke="#757575" d="M779.18,-1259.93C1005.8,-1255.17 1520.53,-1244.36 1767.83,-1239.16"/>
<polygon fill="#757575" stroke="#757575" points="1768.04,-1242.66 1777.96,-1238.95 1767.89,-1235.66 1768.04,-1242.66"/>
</g>
<!-- main/MenuConfig.ts -->
<g id="node28" class="node">
<title>main/MenuConfig.ts</title>
<path fill="none" stroke="#c6c5fe" d="M1035.33,-1146.77C1035.33,-1146.77 912.67,-1146.77 912.67,-1146.77 908.83,-1146.77 905,-1142.94 905,-1139.1 905,-1139.1 905,-1131.44 905,-1131.44 905,-1127.6 908.83,-1123.77 912.67,-1123.77 912.67,-1123.77 1035.33,-1123.77 1035.33,-1123.77 1039.17,-1123.77 1043,-1127.6 1043,-1131.44 1043,-1131.44 1043,-1139.1 1043,-1139.1 1043,-1142.94 1039.17,-1146.77 1035.33,-1146.77"/>
<text text-anchor="middle" x="974" y="-1131.57" font-family="Arial" font-size="14.00" fill="#c6c5fe">main/MenuConfig.ts</text>
</g>
<!-- components/menus/RootMenu.tsx&#45;&gt;main/MenuConfig.ts -->
<g id="edge33" class="edge">
<title>components/menus/RootMenu.tsx&#45;&gt;main/MenuConfig.ts</title>
<path fill="none" stroke="#757575" d="M695.88,-1250.66C751.01,-1227.7 874.01,-1176.49 935.91,-1150.71"/>
<polygon fill="#757575" stroke="#757575" points="937.41,-1153.88 945.3,-1146.8 934.72,-1147.42 937.41,-1153.88"/>
</g>
<!-- main/RoutePath.ts&#45;&gt;types/types.d.ts -->
<g id="edge91" class="edge">
<title>main/RoutePath.ts&#45;&gt;types/types.d.ts</title>
<path fill="none" stroke="#757575" d="M1364.52,-1180.25C1523.03,-1196.4 1932.95,-1229.04 2035,-1147.27 2086.59,-1105.93 2114.75,-893.38 2122.66,-824.12"/>
<polygon fill="#757575" stroke="#757575" points="2126.16,-824.26 2123.79,-813.94 2119.21,-823.49 2126.16,-824.26"/>
</g>
<!-- components/forms/CatalogForm.tsx -->
<g id="node14" class="node">
<title>components/forms/CatalogForm.tsx</title>
<path fill="none" stroke="#c6c5fe" d="M1409.33,-151.77C1409.33,-151.77 1191.67,-151.77 1191.67,-151.77 1187.83,-151.77 1184,-147.94 1184,-144.1 1184,-144.1 1184,-136.44 1184,-136.44 1184,-132.6 1187.83,-128.77 1191.67,-128.77 1191.67,-128.77 1409.33,-128.77 1409.33,-128.77 1413.17,-128.77 1417,-132.6 1417,-136.44 1417,-136.44 1417,-144.1 1417,-144.1 1417,-147.94 1413.17,-151.77 1409.33,-151.77"/>
<text text-anchor="middle" x="1300.5" y="-136.57" font-family="Arial" font-size="14.00" fill="#c6c5fe">components/forms/CatalogForm.tsx</text>
</g>
<!-- components/forms/catalogFormConfig.tsx -->
<g id="node15" class="node">
<title>components/forms/catalogFormConfig.tsx</title>
<path fill="none" stroke="#c6c5fe" d="M1732.83,-131.77C1732.83,-131.77 1479.17,-131.77 1479.17,-131.77 1475.33,-131.77 1471.5,-127.94 1471.5,-124.1 1471.5,-124.1 1471.5,-116.44 1471.5,-116.44 1471.5,-112.6 1475.33,-108.77 1479.17,-108.77 1479.17,-108.77 1732.83,-108.77 1732.83,-108.77 1736.67,-108.77 1740.5,-112.6 1740.5,-116.44 1740.5,-116.44 1740.5,-124.1 1740.5,-124.1 1740.5,-127.94 1736.67,-131.77 1732.83,-131.77"/>
<text text-anchor="middle" x="1606" y="-116.57" font-family="Arial" font-size="14.00" fill="#c6c5fe">components/forms/catalogFormConfig.tsx</text>
</g>
<!-- components/forms/CatalogForm.tsx&#45;&gt;components/forms/catalogFormConfig.tsx -->
<g id="edge10" class="edge">
<title>components/forms/CatalogForm.tsx&#45;&gt;components/forms/catalogFormConfig.tsx</title>
<path fill="none" stroke="#757575" d="M1417.11,-132.65C1431.53,-131.7 1446.42,-130.72 1461.21,-129.74"/>
<polygon fill="#757575" stroke="#757575" points="1461.68,-133.22 1471.43,-129.07 1461.22,-126.24 1461.68,-133.22"/>
</g>
<!-- types/dto.d.ts -->
<g id="node16" class="node">
<title>types/dto.d.ts</title>
<path fill="none" stroke="#c6c5fe" d="M1947.33,-500.77C1947.33,-500.77 1865.67,-500.77 1865.67,-500.77 1861.83,-500.77 1858,-496.94 1858,-493.1 1858,-493.1 1858,-485.44 1858,-485.44 1858,-481.6 1861.83,-477.77 1865.67,-477.77 1865.67,-477.77 1947.33,-477.77 1947.33,-477.77 1951.17,-477.77 1955,-481.6 1955,-485.44 1955,-485.44 1955,-493.1 1955,-493.1 1955,-496.94 1951.17,-500.77 1947.33,-500.77"/>
<text text-anchor="middle" x="1906.5" y="-485.57" font-family="Arial" font-size="14.00" fill="#c6c5fe">types/dto.d.ts</text>
</g>
<!-- components/forms/CatalogForm.tsx&#45;&gt;types/dto.d.ts -->
<g id="edge11" class="edge">
<title>components/forms/CatalogForm.tsx&#45;&gt;types/dto.d.ts</title>
<path fill="none" stroke="#757575" d="M1417.15,-151.1C1529.48,-163.49 1690.41,-186.77 1742,-222.27 1832.92,-284.83 1882.47,-416.13 1899.08,-467.76"/>
<polygon fill="#757575" stroke="#757575" points="1895.8,-469.01 1902.13,-477.52 1902.49,-466.93 1895.8,-469.01"/>
</g>
<!-- components/forms/CatalogForm.tsx&#45;&gt;types/types.d.ts -->
<g id="edge12" class="edge">
<title>components/forms/CatalogForm.tsx&#45;&gt;types/types.d.ts</title>
<path fill="none" stroke="#757575" d="M1338.19,-128.73C1372.02,-118.71 1423.83,-104.96 1470,-99.27 1594.61,-83.92 1940.76,-14.3 2035,-97.27 2087.77,-143.73 2117.92,-666.3 2123.89,-780.36"/>
<polygon fill="#757575" stroke="#757575" points="2120.41,-780.83 2124.42,-790.64 2127.4,-780.47 2120.41,-780.83"/>
</g>
<!-- components/forms/catalogFormConfig.tsx&#45;&gt;types/dto.d.ts -->
<g id="edge19" class="edge">
<title>components/forms/catalogFormConfig.tsx&#45;&gt;types/dto.d.ts</title>
<path fill="none" stroke="#757575" d="M1716.34,-131.82C1725.53,-135.55 1734.26,-140.28 1742,-146.27 1851.07,-230.59 1891.02,-405.84 1902.02,-467.35"/>
<polygon fill="#757575" stroke="#757575" points="1898.61,-468.2 1903.75,-477.47 1905.51,-467.02 1898.61,-468.2"/>
</g>
<!-- components/forms/catalogFormConfig.tsx&#45;&gt;types/types.d.ts -->
<g id="edge20" class="edge">
<title>components/forms/catalogFormConfig.tsx&#45;&gt;types/types.d.ts</title>
<path fill="none" stroke="#757575" d="M1670.97,-108.72C1764.81,-95.83 1939.03,-87.93 2035,-184.27 2120.84,-270.44 2125.35,-680.22 2125.15,-780.22"/>
<polygon fill="#757575" stroke="#757575" points="2121.65,-780.35 2125.11,-790.37 2128.65,-780.38 2121.65,-780.35"/>
</g>
<!-- types/dto.d.ts&#45;&gt;types/types.d.ts -->
<g id="edge98" class="edge">
<title>types/dto.d.ts&#45;&gt;types/types.d.ts</title>
<path fill="none" stroke="#757575" d="M1955.12,-495.23C1981.78,-500.89 2013.82,-511.89 2035,-533.27 2104.92,-603.85 2120.53,-730.25 2124.01,-780.65"/>
<polygon fill="#757575" stroke="#757575" points="2120.52,-780.95 2124.61,-790.73 2127.51,-780.54 2120.52,-780.95"/>
</g>
<!-- components/forms/ProductForm.tsx -->
<g id="node18" class="node">
<title>components/forms/ProductForm.tsx</title>
<path fill="none" stroke="#c6c5fe" d="M1409.33,-719.77C1409.33,-719.77 1191.67,-719.77 1191.67,-719.77 1187.83,-719.77 1184,-715.94 1184,-712.1 1184,-712.1 1184,-704.44 1184,-704.44 1184,-700.6 1187.83,-696.77 1191.67,-696.77 1191.67,-696.77 1409.33,-696.77 1409.33,-696.77 1413.17,-696.77 1417,-700.6 1417,-704.44 1417,-704.44 1417,-712.1 1417,-712.1 1417,-715.94 1413.17,-719.77 1409.33,-719.77"/>
<text text-anchor="middle" x="1300.5" y="-704.57" font-family="Arial" font-size="14.00" fill="#c6c5fe">components/forms/ProductForm.tsx</text>
</g>
<!-- components/forms/ProductForm.tsx&#45;&gt;types/dto.d.ts -->
<g id="edge15" class="edge">
<title>components/forms/ProductForm.tsx&#45;&gt;types/dto.d.ts</title>
<path fill="none" stroke="#757575" d="M1417.21,-710.64C1528.29,-711.15 1687.06,-706.7 1742,-679.27 1817.9,-641.38 1873.01,-551.03 1894.98,-510.08"/>
<polygon fill="#757575" stroke="#757575" points="1898.19,-511.5 1899.74,-501.02 1891.99,-508.25 1898.19,-511.5"/>
</g>
<!-- components/forms/ProductForm.tsx&#45;&gt;types/types.d.ts -->
<g id="edge16" class="edge">
<title>components/forms/ProductForm.tsx&#45;&gt;types/types.d.ts</title>
<path fill="none" stroke="#757575" d="M1391.4,-719.77C1406.03,-723.37 1420.72,-728.08 1434,-734.27 1452.62,-742.94 1450.84,-755.86 1470,-763.27 1576.38,-804.38 1917.08,-805.04 2060.45,-803.38"/>
<polygon fill="#757575" stroke="#757575" points="2060.88,-806.87 2070.84,-803.25 2060.8,-799.87 2060.88,-806.87"/>
</g>
<!-- components/forms/productFormConfig.tsx -->
<g id="node19" class="node">
<title>components/forms/productFormConfig.tsx</title>
<path fill="none" stroke="#c6c5fe" d="M1733.33,-754.77C1733.33,-754.77 1478.67,-754.77 1478.67,-754.77 1474.83,-754.77 1471,-750.94 1471,-747.1 1471,-747.1 1471,-739.44 1471,-739.44 1471,-735.6 1474.83,-731.77 1478.67,-731.77 1478.67,-731.77 1733.33,-731.77 1733.33,-731.77 1737.17,-731.77 1741,-735.6 1741,-739.44 1741,-739.44 1741,-747.1 1741,-747.1 1741,-750.94 1737.17,-754.77 1733.33,-754.77"/>
<text text-anchor="middle" x="1606" y="-739.57" font-family="Arial" font-size="14.00" fill="#c6c5fe">components/forms/productFormConfig.tsx</text>
</g>
<!-- components/forms/ProductForm.tsx&#45;&gt;components/forms/productFormConfig.tsx -->
<g id="edge13" class="edge">
<title>components/forms/ProductForm.tsx&#45;&gt;components/forms/productFormConfig.tsx</title>
<path fill="none" stroke="#757575" d="M1401.3,-719.78C1431.26,-723.23 1464.29,-727.04 1494.87,-730.57"/>
<polygon fill="#757575" stroke="#757575" points="1494.81,-734.08 1505.14,-731.75 1495.61,-727.13 1494.81,-734.08"/>
</g>
<!-- services/RestService.ts -->
<g id="node20" class="node">
<title>services/RestService.ts</title>
<path fill="none" stroke="#c6c5fe" d="M1676.83,-910.77C1676.83,-910.77 1535.17,-910.77 1535.17,-910.77 1531.33,-910.77 1527.5,-906.94 1527.5,-903.1 1527.5,-903.1 1527.5,-895.44 1527.5,-895.44 1527.5,-891.6 1531.33,-887.77 1535.17,-887.77 1535.17,-887.77 1676.83,-887.77 1676.83,-887.77 1680.67,-887.77 1684.5,-891.6 1684.5,-895.44 1684.5,-895.44 1684.5,-903.1 1684.5,-903.1 1684.5,-906.94 1680.67,-910.77 1676.83,-910.77"/>
<text text-anchor="middle" x="1606" y="-895.57" font-family="Arial" font-size="14.00" fill="#c6c5fe">services/RestService.ts</text>
</g>
<!-- components/forms/ProductForm.tsx&#45;&gt;services/RestService.ts -->
<g id="edge14" class="edge">
<title>components/forms/ProductForm.tsx&#45;&gt;services/RestService.ts</title>
<path fill="none" stroke="#757575" d="M1320.03,-719.93C1371.69,-752.44 1517.5,-844.2 1578.08,-882.33"/>
<polygon fill="#757575" stroke="#757575" points="1576.39,-885.4 1586.71,-887.76 1580.11,-879.47 1576.39,-885.4"/>
</g>
<!-- components/forms/productFormConfig.tsx&#45;&gt;types/dto.d.ts -->
<g id="edge21" class="edge">
<title>components/forms/productFormConfig.tsx&#45;&gt;types/dto.d.ts</title>
<path fill="none" stroke="#757575" d="M1711.13,-731.67C1722.02,-728.02 1732.55,-723.32 1742,-717.27 1823.81,-664.9 1877.37,-555.77 1897.06,-510.08"/>
<polygon fill="#757575" stroke="#757575" points="1900.29,-511.44 1900.94,-500.86 1893.84,-508.72 1900.29,-511.44"/>
</g>
<!-- components/forms/productFormConfig.tsx&#45;&gt;types/types.d.ts -->
<g id="edge22" class="edge">
<title>components/forms/productFormConfig.tsx&#45;&gt;types/types.d.ts</title>
<path fill="none" stroke="#757575" d="M1741.35,-741.48C1826.35,-742.79 1938.09,-749.01 2035,-769.27 2053.62,-773.16 2073.55,-780.15 2089.91,-786.7"/>
<polygon fill="#757575" stroke="#757575" points="2089.01,-790.12 2099.59,-790.69 2091.68,-783.65 2089.01,-790.12"/>
</g>
<!-- services/RestService.ts&#45;&gt;types/models.d.ts -->
<g id="edge97" class="edge">
<title>services/RestService.ts&#45;&gt;types/models.d.ts</title>
<path fill="none" stroke="#757575" d="M1636.16,-910.8C1690.22,-932.17 1805.98,-977.93 1866.62,-1001.9"/>
<polygon fill="#757575" stroke="#757575" points="1865.63,-1005.27 1876.22,-1005.69 1868.2,-998.76 1865.63,-1005.27"/>
</g>
<!-- services/products.json.ts -->
<g id="node54" class="node">
<title>services/products.json.ts</title>
<path fill="none" stroke="#cfffac" d="M1980.83,-910.77C1980.83,-910.77 1832.17,-910.77 1832.17,-910.77 1828.33,-910.77 1824.5,-906.94 1824.5,-903.1 1824.5,-903.1 1824.5,-895.44 1824.5,-895.44 1824.5,-891.6 1828.33,-887.77 1832.17,-887.77 1832.17,-887.77 1980.83,-887.77 1980.83,-887.77 1984.67,-887.77 1988.5,-891.6 1988.5,-895.44 1988.5,-895.44 1988.5,-903.1 1988.5,-903.1 1988.5,-906.94 1984.67,-910.77 1980.83,-910.77"/>
<text text-anchor="middle" x="1906.5" y="-895.57" font-family="Arial" font-size="14.00" fill="#cfffac">services/products.json.ts</text>
</g>
<!-- services/RestService.ts&#45;&gt;services/products.json.ts -->
<g id="edge96" class="edge">
<title>services/RestService.ts&#45;&gt;services/products.json.ts</title>
<path fill="none" stroke="#757575" d="M1684.65,-899.27C1724.3,-899.27 1772.8,-899.27 1814.24,-899.27"/>
<polygon fill="#757575" stroke="#757575" points="1814.33,-902.77 1824.33,-899.27 1814.33,-895.77 1814.33,-902.77"/>
</g>
<!-- components/forms/ResetPasswordForm.tsx -->
<g id="node21" class="node">
<title>components/forms/ResetPasswordForm.tsx</title>
<path fill="none" stroke="#c6c5fe" d="M1106.83,-876.77C1106.83,-876.77 841.17,-876.77 841.17,-876.77 837.33,-876.77 833.5,-872.94 833.5,-869.1 833.5,-869.1 833.5,-861.44 833.5,-861.44 833.5,-857.6 837.33,-853.77 841.17,-853.77 841.17,-853.77 1106.83,-853.77 1106.83,-853.77 1110.67,-853.77 1114.5,-857.6 1114.5,-861.44 1114.5,-861.44 1114.5,-869.1 1114.5,-869.1 1114.5,-872.94 1110.67,-876.77 1106.83,-876.77"/>
<text text-anchor="middle" x="974" y="-861.57" font-family="Arial" font-size="14.00" fill="#c6c5fe">components/forms/ResetPasswordForm.tsx</text>
</g>
<!-- components/forms/ResetPasswordForm.tsx&#45;&gt;components/Form.tsx -->
<g id="edge17" class="edge">
<title>components/forms/ResetPasswordForm.tsx&#45;&gt;components/Form.tsx</title>
<path fill="none" stroke="#757575" d="M1089.26,-876.85C1103.69,-880.46 1117.95,-885.16 1131,-891.27 1150.12,-900.23 1147.84,-913.39 1167,-922.27 1182.28,-929.35 1199.5,-934.11 1216.34,-937.29"/>
<polygon fill="#757575" stroke="#757575" points="1215.75,-940.74 1226.2,-938.98 1216.94,-933.84 1215.75,-940.74"/>
</g>
<!-- components/forms/ResetPasswordForm.tsx&#45;&gt;components/FormInputGroup.tsx -->
<g id="edge18" class="edge">
<title>components/forms/ResetPasswordForm.tsx&#45;&gt;components/FormInputGroup.tsx</title>
<path fill="none" stroke="#757575" d="M1075.9,-876.77C1111.52,-880.84 1151.78,-885.43 1188.22,-889.58"/>
<polygon fill="#757575" stroke="#757575" points="1188.06,-893.08 1198.39,-890.74 1188.85,-886.13 1188.06,-893.08"/>
</g>
<!-- components/lists/CatalogList.tsx -->
<g id="node22" class="node">
<title>components/lists/CatalogList.tsx</title>
<path fill="none" stroke="#c6c5fe" d="M764.33,-285.77C764.33,-285.77 569.67,-285.77 569.67,-285.77 565.83,-285.77 562,-281.94 562,-278.1 562,-278.1 562,-270.44 562,-270.44 562,-266.6 565.83,-262.77 569.67,-262.77 569.67,-262.77 764.33,-262.77 764.33,-262.77 768.17,-262.77 772,-266.6 772,-270.44 772,-270.44 772,-278.1 772,-278.1 772,-281.94 768.17,-285.77 764.33,-285.77"/>
<text text-anchor="middle" x="667" y="-270.57" font-family="Arial" font-size="14.00" fill="#c6c5fe">components/lists/CatalogList.tsx</text>
</g>
<!-- components/lists/CatalogList.tsx&#45;&gt;main/RoutePath.ts -->
<g id="edge24" class="edge">
<title>components/lists/CatalogList.tsx&#45;&gt;main/RoutePath.ts</title>
<path fill="none" stroke="#757575" d="M674.67,-285.83C694.73,-321.2 754.72,-431.59 781,-531.27 801.16,-607.73 764.66,-826 817,-885.27 911.77,-992.59 1010.22,-880.39 1131,-957.27 1210.28,-1007.74 1267.57,-1108.99 1289.57,-1152.56"/>
<polygon fill="#757575" stroke="#757575" points="1286.5,-1154.23 1294.07,-1161.64 1292.77,-1151.12 1286.5,-1154.23"/>
</g>
<!-- components/lists/CatalogList.tsx&#45;&gt;types/dto.d.ts -->
<g id="edge25" class="edge">
<title>components/lists/CatalogList.tsx&#45;&gt;types/dto.d.ts</title>
<path fill="none" stroke="#757575" d="M772.3,-271.8C1025.08,-266.48 1656.05,-257.53 1742,-298.27 1819.07,-334.8 1873.74,-426.83 1895.31,-468.36"/>
<polygon fill="#757575" stroke="#757575" points="1892.32,-470.21 1899.96,-477.55 1898.56,-467.04 1892.32,-470.21"/>
</g>
<!-- components/modals/MakeModalFormCatalog.tsx -->
<g id="node23" class="node">
<title>components/modals/MakeModalFormCatalog.tsx</title>
<path fill="none" stroke="#c6c5fe" d="M1123.33,-245.77C1123.33,-245.77 824.67,-245.77 824.67,-245.77 820.83,-245.77 817,-241.94 817,-238.1 817,-238.1 817,-230.44 817,-230.44 817,-226.6 820.83,-222.77 824.67,-222.77 824.67,-222.77 1123.33,-222.77 1123.33,-222.77 1127.17,-222.77 1131,-226.6 1131,-230.44 1131,-230.44 1131,-238.1 1131,-238.1 1131,-241.94 1127.17,-245.77 1123.33,-245.77"/>
<text text-anchor="middle" x="974" y="-230.57" font-family="Arial" font-size="14.00" fill="#c6c5fe">components/modals/MakeModalFormCatalog.tsx</text>
</g>
<!-- components/lists/CatalogList.tsx&#45;&gt;components/modals/MakeModalFormCatalog.tsx -->
<g id="edge23" class="edge">
<title>components/lists/CatalogList.tsx&#45;&gt;components/modals/MakeModalFormCatalog.tsx</title>
<path fill="none" stroke="#757575" d="M755.81,-262.75C793.13,-257.86 836.79,-252.13 875.14,-247.1"/>
<polygon fill="#757575" stroke="#757575" points="875.82,-250.54 885.28,-245.77 874.91,-243.6 875.82,-250.54"/>
</g>
<!-- components/modals/MakeModalFormCatalog.tsx&#45;&gt;components/forms/CatalogForm.tsx -->
<g id="edge39" class="edge">
<title>components/modals/MakeModalFormCatalog.tsx&#45;&gt;components/forms/CatalogForm.tsx</title>
<path fill="none" stroke="#757575" d="M1014.79,-222.74C1073.99,-205.59 1185.18,-173.38 1249.7,-154.7"/>
<polygon fill="#757575" stroke="#757575" points="1251.01,-157.96 1259.64,-151.82 1249.06,-151.24 1251.01,-157.96"/>
</g>
<!-- components/modals/MakeModalFormCatalog.tsx&#45;&gt;types/dto.d.ts -->
<g id="edge41" class="edge">
<title>components/modals/MakeModalFormCatalog.tsx&#45;&gt;types/dto.d.ts</title>
<path fill="none" stroke="#757575" d="M1131.31,-223.59C1324.5,-213.1 1640.22,-205.68 1742,-260.27 1828.25,-306.53 1879.64,-420.64 1897.91,-468.07"/>
<polygon fill="#757575" stroke="#757575" points="1894.7,-469.49 1901.48,-477.62 1901.26,-467.03 1894.7,-469.49"/>
</g>
<!-- components/modals/MakeModalFormCatalog.tsx&#45;&gt;types/types.d.ts -->
<g id="edge42" class="edge">
<title>components/modals/MakeModalFormCatalog.tsx&#45;&gt;types/types.d.ts</title>
<path fill="none" stroke="#757575" d="M990.46,-222.41C1021.88,-198.92 1096.25,-146.38 1167,-119.27 1347.59,-50.06 1890.29,72.03 2035,-56.27 2090.79,-105.74 2118.72,-661.89 2124.05,-780.22"/>
<polygon fill="#757575" stroke="#757575" points="2120.57,-780.71 2124.51,-790.55 2127.56,-780.4 2120.57,-780.71"/>
</g>
<!-- components/modals/MakeModalForm.tsx -->
<g id="node30" class="node">
<title>components/modals/MakeModalForm.tsx</title>
<path fill="none" stroke="#c6c5fe" d="M1426.33,-363.77C1426.33,-363.77 1174.67,-363.77 1174.67,-363.77 1170.83,-363.77 1167,-359.94 1167,-356.1 1167,-356.1 1167,-348.44 1167,-348.44 1167,-344.6 1170.83,-340.77 1174.67,-340.77 1174.67,-340.77 1426.33,-340.77 1426.33,-340.77 1430.17,-340.77 1434,-344.6 1434,-348.44 1434,-348.44 1434,-356.1 1434,-356.1 1434,-359.94 1430.17,-363.77 1426.33,-363.77"/>
<text text-anchor="middle" x="1300.5" y="-348.57" font-family="Arial" font-size="14.00" fill="#c6c5fe">components/modals/MakeModalForm.tsx</text>
</g>
<!-- components/modals/MakeModalFormCatalog.tsx&#45;&gt;components/modals/MakeModalForm.tsx -->
<g id="edge40" class="edge">
<title>components/modals/MakeModalFormCatalog.tsx&#45;&gt;components/modals/MakeModalForm.tsx</title>
<path fill="none" stroke="#757575" d="M1006.71,-245.8C1065.71,-267.26 1192.35,-313.3 1258.05,-337.2"/>
<polygon fill="#757575" stroke="#757575" points="1257.07,-340.57 1267.67,-340.69 1259.46,-333.99 1257.07,-340.57"/>
</g>
<!-- components/lists/ProductList.tsx -->
<g id="node24" class="node">
<title>components/lists/ProductList.tsx</title>
<path fill="none" stroke="#c6c5fe" d="M764.33,-563.77C764.33,-563.77 569.67,-563.77 569.67,-563.77 565.83,-563.77 562,-559.94 562,-556.1 562,-556.1 562,-548.44 562,-548.44 562,-544.6 565.83,-540.77 569.67,-540.77 569.67,-540.77 764.33,-540.77 764.33,-540.77 768.17,-540.77 772,-544.6 772,-548.44 772,-548.44 772,-556.1 772,-556.1 772,-559.94 768.17,-563.77 764.33,-563.77"/>
<text text-anchor="middle" x="667" y="-548.57" font-family="Arial" font-size="14.00" fill="#c6c5fe">components/lists/ProductList.tsx</text>
</g>
<!-- components/lists/ProductList.tsx&#45;&gt;main/RoutePath.ts -->
<g id="edge27" class="edge">
<title>components/lists/ProductList.tsx&#45;&gt;main/RoutePath.ts</title>
<path fill="none" stroke="#757575" d="M680.03,-564.14C703.78,-588.39 756.55,-646.4 781,-706.27 823.61,-810.6 749.14,-867.29 817,-957.27 845.9,-995.59 1149.74,-1115.51 1259.9,-1158.09"/>
<polygon fill="#757575" stroke="#757575" points="1258.74,-1161.39 1269.33,-1161.73 1261.26,-1154.86 1258.74,-1161.39"/>
</g>
<!-- components/lists/ProductList.tsx&#45;&gt;types/dto.d.ts -->
<g id="edge28" class="edge">
<title>components/lists/ProductList.tsx&#45;&gt;types/dto.d.ts</title>
<path fill="none" stroke="#757575" d="M735.31,-540.74C760.82,-536.79 790.18,-532.75 817,-530.27 919.66,-520.79 1637.25,-497.71 1847.65,-491.08"/>
<polygon fill="#757575" stroke="#757575" points="1847.98,-494.57 1857.87,-490.76 1847.76,-487.57 1847.98,-494.57"/>
</g>
<!-- components/lists/ProductList.tsx&#45;&gt;types/types.d.ts -->
<g id="edge29" class="edge">
<title>components/lists/ProductList.tsx&#45;&gt;types/types.d.ts</title>
<path fill="none" stroke="#757575" d="M695.92,-563.79C725.78,-576.05 774.59,-595.9 817,-612.27 955.79,-665.84 1005.72,-648.03 1131,-728.27 1150.05,-740.47 1146.72,-754.23 1167,-764.27 1274.31,-817.4 1320.36,-762.54 1434,-800.27 1451.37,-806.04 1452.3,-815.59 1470,-820.27 1602.35,-855.25 1641.11,-822.6 1778,-823.27 1892.22,-823.83 1921.53,-836.33 2035,-823.27 2047.95,-821.78 2061.75,-819.12 2074.56,-816.18"/>
<polygon fill="#757575" stroke="#757575" points="2075.67,-819.51 2084.58,-813.78 2074.04,-812.71 2075.67,-819.51"/>
</g>
<!-- components/modals/MakeModalFormProduct.tsx -->
<g id="node25" class="node">
<title>components/modals/MakeModalFormProduct.tsx</title>
<path fill="none" stroke="#c6c5fe" d="M1123.33,-603.77C1123.33,-603.77 824.67,-603.77 824.67,-603.77 820.83,-603.77 817,-599.94 817,-596.1 817,-596.1 817,-588.44 817,-588.44 817,-584.6 820.83,-580.77 824.67,-580.77 824.67,-580.77 1123.33,-580.77 1123.33,-580.77 1127.17,-580.77 1131,-584.6 1131,-588.44 1131,-588.44 1131,-596.1 1131,-596.1 1131,-599.94 1127.17,-603.77 1123.33,-603.77"/>
<text text-anchor="middle" x="974" y="-588.57" font-family="Arial" font-size="14.00" fill="#c6c5fe">components/modals/MakeModalFormProduct.tsx</text>
</g>
<!-- components/lists/ProductList.tsx&#45;&gt;components/modals/MakeModalFormProduct.tsx -->
<g id="edge26" class="edge">
<title>components/lists/ProductList.tsx&#45;&gt;components/modals/MakeModalFormProduct.tsx</title>
<path fill="none" stroke="#757575" d="M755.81,-563.79C793.13,-568.68 836.79,-574.41 875.14,-579.43"/>
<polygon fill="#757575" stroke="#757575" points="874.91,-582.94 885.28,-580.77 875.82,-575.99 874.91,-582.94"/>
</g>
<!-- utils/Array.ts -->
<g id="node26" class="node">
<title>utils/Array.ts</title>
<path fill="none" stroke="#cfffac" d="M1011.33,-562.77C1011.33,-562.77 936.67,-562.77 936.67,-562.77 932.83,-562.77 929,-558.94 929,-555.1 929,-555.1 929,-547.44 929,-547.44 929,-543.6 932.83,-539.77 936.67,-539.77 936.67,-539.77 1011.33,-539.77 1011.33,-539.77 1015.17,-539.77 1019,-543.6 1019,-547.44 1019,-547.44 1019,-555.1 1019,-555.1 1019,-558.94 1015.17,-562.77 1011.33,-562.77"/>
<text text-anchor="middle" x="974" y="-547.57" font-family="Arial" font-size="14.00" fill="#cfffac">utils/Array.ts</text>
</g>
<!-- components/lists/ProductList.tsx&#45;&gt;utils/Array.ts -->
<g id="edge30" class="edge">
<title>components/lists/ProductList.tsx&#45;&gt;utils/Array.ts</title>
<path fill="none" stroke="#757575" d="M772.11,-551.93C821.32,-551.77 878.04,-551.58 918.63,-551.45"/>
<polygon fill="#757575" stroke="#757575" points="918.86,-554.95 928.85,-551.41 918.83,-547.95 918.86,-554.95"/>
</g>
<!-- components/modals/MakeModalFormProduct.tsx&#45;&gt;types/dto.d.ts -->
<g id="edge45" class="edge">
<title>components/modals/MakeModalFormProduct.tsx&#45;&gt;types/dto.d.ts</title>
<path fill="none" stroke="#757575" d="M1131.34,-583.5C1286.78,-573.54 1531.73,-554.48 1742,-523.27 1777.45,-518.01 1816.79,-509.9 1848,-502.92"/>
<polygon fill="#757575" stroke="#757575" points="1848.84,-506.32 1857.83,-500.7 1847.3,-499.49 1848.84,-506.32"/>
</g>
<!-- components/modals/MakeModalFormProduct.tsx&#45;&gt;types/types.d.ts -->
<g id="edge46" class="edge">
<title>components/modals/MakeModalFormProduct.tsx&#45;&gt;types/types.d.ts</title>
<path fill="none" stroke="#757575" d="M1027.93,-603.84C1060.86,-613.3 1102.25,-629.58 1131,-656.27 1157.22,-680.61 1138.2,-707.04 1167,-728.27 1263.81,-799.63 1321.7,-729.24 1434,-772.27 1451.73,-779.06 1451.88,-789.59 1470,-795.27 1600.72,-836.24 1641.03,-804.6 1778,-807.27 1892.2,-809.49 1920.82,-810.44 2035,-807.27 2043.32,-807.04 2052.07,-806.69 2060.71,-806.28"/>
<polygon fill="#757575" stroke="#757575" points="2060.95,-809.77 2070.77,-805.77 2060.6,-802.78 2060.95,-809.77"/>
</g>
<!-- components/modals/MakeModalFormProduct.tsx&#45;&gt;components/forms/ProductForm.tsx -->
<g id="edge43" class="edge">
<title>components/modals/MakeModalFormProduct.tsx&#45;&gt;components/forms/ProductForm.tsx</title>
<path fill="none" stroke="#757575" d="M1007.3,-603.82C1066.31,-624.91 1191.51,-669.66 1257.22,-693.15"/>
<polygon fill="#757575" stroke="#757575" points="1256.25,-696.53 1266.85,-696.6 1258.61,-689.94 1256.25,-696.53"/>
</g>
<!-- components/modals/MakeModalFormProduct.tsx&#45;&gt;components/modals/MakeModalForm.tsx -->
<g id="edge44" class="edge">
<title>components/modals/MakeModalFormProduct.tsx&#45;&gt;components/modals/MakeModalForm.tsx</title>
<path fill="none" stroke="#757575" d="M1117.7,-580.69C1122.39,-577.95 1126.85,-574.82 1131,-571.27 1173.63,-534.79 1134.79,-496.21 1167,-450.27 1192.68,-413.65 1236.41,-385.21 1266.56,-368.61"/>
<polygon fill="#757575" stroke="#757575" points="1268.29,-371.66 1275.45,-363.85 1264.98,-365.49 1268.29,-371.66"/>
</g>
<!-- components/menus/DropdownMenu.tsx&#45;&gt;types/types.d.ts -->
<g id="edge31" class="edge">
<title>components/menus/DropdownMenu.tsx&#45;&gt;types/types.d.ts</title>
<path fill="none" stroke="#757575" d="M1969.87,-1224.72C1993.34,-1217.39 2018.35,-1205.5 2035,-1186.27 2083.18,-1130.62 2113.91,-897.6 2122.52,-824.38"/>
<polygon fill="#757575" stroke="#757575" points="2126.04,-824.39 2123.71,-814.06 2119.09,-823.59 2126.04,-824.39"/>
</g>
<!-- main/MenuConfig.ts&#45;&gt;main/RoutePath.ts -->
<g id="edge89" class="edge">
<title>main/MenuConfig.ts&#45;&gt;main/RoutePath.ts</title>
<path fill="none" stroke="#757575" d="M1043.03,-1143.24C1096.65,-1149.51 1171.29,-1158.26 1226.23,-1164.69"/>
<polygon fill="#757575" stroke="#757575" points="1225.91,-1168.17 1236.24,-1165.86 1226.72,-1161.22 1225.91,-1168.17"/>
</g>
<!-- main/MenuConfig.ts&#45;&gt;types/types.d.ts -->
<g id="edge90" class="edge">
<title>main/MenuConfig.ts&#45;&gt;types/types.d.ts</title>
<path fill="none" stroke="#757575" d="M1043.37,-1138.18C1265.44,-1147.02 1956.72,-1169.41 2035,-1109.27 2081.43,-1073.6 2112.43,-888.44 2121.92,-824.23"/>
<polygon fill="#757575" stroke="#757575" points="2125.43,-824.43 2123.4,-814.03 2118.5,-823.42 2125.43,-824.43"/>
</g>
<!-- components/menus/SubMenu.tsx -->
<g id="node29" class="node">
<title>components/menus/SubMenu.tsx</title>
<path fill="none" stroke="#c6c5fe" d="M768.83,-1027.77C768.83,-1027.77 565.17,-1027.77 565.17,-1027.77 561.33,-1027.77 557.5,-1023.94 557.5,-1020.1 557.5,-1020.1 557.5,-1012.44 557.5,-1012.44 557.5,-1008.6 561.33,-1004.77 565.17,-1004.77 565.17,-1004.77 768.83,-1004.77 768.83,-1004.77 772.67,-1004.77 776.5,-1008.6 776.5,-1012.44 776.5,-1012.44 776.5,-1020.1 776.5,-1020.1 776.5,-1023.94 772.67,-1027.77 768.83,-1027.77"/>
<text text-anchor="middle" x="667" y="-1012.57" font-family="Arial" font-size="14.00" fill="#c6c5fe">components/menus/SubMenu.tsx</text>
</g>
<!-- components/menus/SubMenu.tsx&#45;&gt;types/types.d.ts -->
<g id="edge35" class="edge">
<title>components/menus/SubMenu.tsx&#45;&gt;types/types.d.ts</title>
<path fill="none" stroke="#757575" d="M750.83,-1027.8C909.59,-1049.73 1245.81,-1095.27 1299.5,-1095.27 1299.5,-1095.27 1299.5,-1095.27 1607,-1095.27 1702.98,-1095.27 1959.76,-1096.86 2035,-1037.27 2103.17,-983.28 2119.74,-871.18 2123.74,-823.97"/>
<polygon fill="#757575" stroke="#757575" points="2127.24,-824.16 2124.48,-813.93 2120.25,-823.65 2127.24,-824.16"/>
</g>
<!-- components/modals/MakeModalForm.tsx&#45;&gt;types/types.d.ts -->
<g id="edge38" class="edge">
<title>components/modals/MakeModalForm.tsx&#45;&gt;types/types.d.ts</title>
<path fill="none" stroke="#757575" d="M1353.97,-340.73C1491.54,-313.93 1863.83,-264.35 2035,-468.27 2114.82,-563.35 2124.41,-722.66 2125.15,-780.47"/>
<polygon fill="#757575" stroke="#757575" points="2121.65,-780.65 2125.2,-790.63 2128.65,-780.62 2121.65,-780.65"/>
</g>
<!-- components/modals/Modal.tsx -->
<g id="node31" class="node">
<title>components/modals/Modal.tsx</title>
<path fill="none" stroke="#cfffac" d="M1698.83,-363.77C1698.83,-363.77 1513.17,-363.77 1513.17,-363.77 1509.33,-363.77 1505.5,-359.94 1505.5,-356.1 1505.5,-356.1 1505.5,-348.44 1505.5,-348.44 1505.5,-344.6 1509.33,-340.77 1513.17,-340.77 1513.17,-340.77 1698.83,-340.77 1698.83,-340.77 1702.67,-340.77 1706.5,-344.6 1706.5,-348.44 1706.5,-348.44 1706.5,-356.1 1706.5,-356.1 1706.5,-359.94 1702.67,-363.77 1698.83,-363.77"/>
<text text-anchor="middle" x="1606" y="-348.57" font-family="Arial" font-size="14.00" fill="#cfffac">components/modals/Modal.tsx</text>
</g>
<!-- components/modals/MakeModalForm.tsx&#45;&gt;components/modals/Modal.tsx -->
<g id="edge36" class="edge">
<title>components/modals/MakeModalForm.tsx&#45;&gt;components/modals/Modal.tsx</title>
<path fill="none" stroke="#757575" d="M1434.18,-352.27C1454.55,-352.27 1475.39,-352.27 1495.2,-352.27"/>
<polygon fill="#757575" stroke="#757575" points="1495.45,-355.77 1505.45,-352.27 1495.45,-348.77 1495.45,-355.77"/>
</g>
<!-- components/modals/ModalFooterForm.tsx -->
<g id="node32" class="node">
<title>components/modals/ModalFooterForm.tsx</title>
<path fill="none" stroke="#cfffac" d="M1734.33,-404.77C1734.33,-404.77 1477.67,-404.77 1477.67,-404.77 1473.83,-404.77 1470,-400.94 1470,-397.1 1470,-397.1 1470,-389.44 1470,-389.44 1470,-385.6 1473.83,-381.77 1477.67,-381.77 1477.67,-381.77 1734.33,-381.77 1734.33,-381.77 1738.17,-381.77 1742,-385.6 1742,-389.44 1742,-389.44 1742,-397.1 1742,-397.1 1742,-400.94 1738.17,-404.77 1734.33,-404.77"/>
<text text-anchor="middle" x="1606" y="-389.57" font-family="Arial" font-size="14.00" fill="#cfffac">components/modals/ModalFooterForm.tsx</text>
</g>
<!-- components/modals/MakeModalForm.tsx&#45;&gt;components/modals/ModalFooterForm.tsx -->
<g id="edge37" class="edge">
<title>components/modals/MakeModalForm.tsx&#45;&gt;components/modals/ModalFooterForm.tsx</title>
<path fill="none" stroke="#757575" d="M1386.85,-363.8C1425.07,-368.96 1470.3,-375.07 1509.64,-380.39"/>
<polygon fill="#757575" stroke="#757575" points="1509.39,-383.88 1519.77,-381.75 1510.32,-376.95 1509.39,-383.88"/>
</g>
<!-- components/pages/AccountPage.tsx -->
<g id="node33" class="node">
<title>components/pages/AccountPage.tsx</title>
<path fill="none" stroke="#c6c5fe" d="M502.33,-988.77C502.33,-988.77 281.67,-988.77 281.67,-988.77 277.83,-988.77 274,-984.94 274,-981.1 274,-981.1 274,-973.44 274,-973.44 274,-969.6 277.83,-965.77 281.67,-965.77 281.67,-965.77 502.33,-965.77 502.33,-965.77 506.17,-965.77 510,-969.6 510,-973.44 510,-973.44 510,-981.1 510,-981.1 510,-984.94 506.17,-988.77 502.33,-988.77"/>
<text text-anchor="middle" x="392" y="-973.57" font-family="Arial" font-size="14.00" fill="#c6c5fe">components/pages/AccountPage.tsx</text>
</g>
<!-- components/pages/AccountPage.tsx&#45;&gt;main/MenuConfig.ts -->
<g id="edge49" class="edge">
<title>components/pages/AccountPage.tsx&#45;&gt;main/MenuConfig.ts</title>
<path fill="none" stroke="#757575" d="M497.55,-988.83C504.3,-991.18 510.85,-993.97 517,-997.27 537.78,-1008.43 532.15,-1025.24 553,-1036.27 643.56,-1084.19 690.44,-1022.35 781,-1070.27 801.85,-1081.3 796.25,-1098.06 817,-1109.27 840.57,-1122 868.82,-1128.8 894.78,-1132.35"/>
<polygon fill="#757575" stroke="#757575" points="894.62,-1135.85 904.97,-1133.59 895.47,-1128.91 894.62,-1135.85"/>
</g>
<!-- components/pages/AccountPage.tsx&#45;&gt;components/menus/SubMenu.tsx -->
<g id="edge47" class="edge">
<title>components/pages/AccountPage.tsx&#45;&gt;components/menus/SubMenu.tsx</title>
<path fill="none" stroke="#757575" d="M473.8,-988.81C505.72,-993.37 542.54,-998.63 575.36,-1003.32"/>
<polygon fill="#757575" stroke="#757575" points="575.01,-1006.81 585.41,-1004.76 576,-999.88 575.01,-1006.81"/>
</g>
<!-- components/pages/Page.tsx -->
<g id="node34" class="node">
<title>components/pages/Page.tsx</title>
<path fill="none" stroke="#cfffac" d="M753.33,-1145.77C753.33,-1145.77 580.67,-1145.77 580.67,-1145.77 576.83,-1145.77 573,-1141.94 573,-1138.1 573,-1138.1 573,-1130.44 573,-1130.44 573,-1126.6 576.83,-1122.77 580.67,-1122.77 580.67,-1122.77 753.33,-1122.77 753.33,-1122.77 757.17,-1122.77 761,-1126.6 761,-1130.44 761,-1130.44 761,-1138.1 761,-1138.1 761,-1141.94 757.17,-1145.77 753.33,-1145.77"/>
<text text-anchor="middle" x="667" y="-1130.57" font-family="Arial" font-size="14.00" fill="#cfffac">components/pages/Page.tsx</text>
</g>
<!-- components/pages/AccountPage.tsx&#45;&gt;components/pages/Page.tsx -->
<g id="edge48" class="edge">
<title>components/pages/AccountPage.tsx&#45;&gt;components/pages/Page.tsx</title>
<path fill="none" stroke="#757575" d="M502.97,-988.82C507.9,-991.23 512.62,-994.03 517,-997.27 546.1,-1018.76 528.16,-1043.97 553,-1070.27 573.14,-1091.59 601.98,-1107.77 625.49,-1118.52"/>
<polygon fill="#757575" stroke="#757575" points="624.31,-1121.83 634.87,-1122.66 627.13,-1115.42 624.31,-1121.83"/>
</g>
<!-- components/pages/AuthPage.scss -->
<g id="node35" class="node">
<title>components/pages/AuthPage.scss</title>
<path fill="none" stroke="#cfffac" d="M771.83,-865.77C771.83,-865.77 562.17,-865.77 562.17,-865.77 558.33,-865.77 554.5,-861.94 554.5,-858.1 554.5,-858.1 554.5,-850.44 554.5,-850.44 554.5,-846.6 558.33,-842.77 562.17,-842.77 562.17,-842.77 771.83,-842.77 771.83,-842.77 775.67,-842.77 779.5,-846.6 779.5,-850.44 779.5,-850.44 779.5,-858.1 779.5,-858.1 779.5,-861.94 775.67,-865.77 771.83,-865.77"/>
<text text-anchor="middle" x="667" y="-850.57" font-family="Arial" font-size="14.00" fill="#cfffac">components/pages/AuthPage.scss</text>
</g>
<!-- components/pages/AuthPage.tsx -->
<g id="node36" class="node">
<title>components/pages/AuthPage.tsx</title>
<path fill="none" stroke="#c6c5fe" d="M491.83,-865.77C491.83,-865.77 292.17,-865.77 292.17,-865.77 288.33,-865.77 284.5,-861.94 284.5,-858.1 284.5,-858.1 284.5,-850.44 284.5,-850.44 284.5,-846.6 288.33,-842.77 292.17,-842.77 292.17,-842.77 491.83,-842.77 491.83,-842.77 495.67,-842.77 499.5,-846.6 499.5,-850.44 499.5,-850.44 499.5,-858.1 499.5,-858.1 499.5,-861.94 495.67,-865.77 491.83,-865.77"/>
<text text-anchor="middle" x="392" y="-850.57" font-family="Arial" font-size="14.00" fill="#c6c5fe">components/pages/AuthPage.tsx</text>
</g>
<!-- components/pages/AuthPage.tsx&#45;&gt;services/Firebase.ts -->
<g id="edge54" class="edge">
<title>components/pages/AuthPage.tsx&#45;&gt;services/Firebase.ts</title>
<path fill="none" stroke="#757575" d="M499.74,-864.22C505.85,-866.97 511.67,-870.29 517,-874.27 546.62,-896.4 524.13,-926.17 553,-949.27 563.27,-957.49 575.66,-963.2 588.42,-967.16"/>
<polygon fill="#757575" stroke="#757575" points="587.65,-970.58 598.22,-969.85 589.51,-963.83 587.65,-970.58"/>
</g>
<!-- components/pages/AuthPage.tsx&#45;&gt;components/AuthFrom.tsx -->
<g id="edge50" class="edge">
<title>components/pages/AuthPage.tsx&#45;&gt;components/AuthFrom.tsx</title>
<path fill="none" stroke="#757575" d="M467.71,-842.75C494.54,-839.06 525.06,-835.4 553,-833.27 663.41,-824.87 790.59,-823.26 875.81,-823.35"/>
<polygon fill="#757575" stroke="#757575" points="875.99,-826.85 885.99,-823.37 876,-819.85 875.99,-826.85"/>
</g>
<!-- components/pages/AuthPage.tsx&#45;&gt;components/Form.tsx -->
<g id="edge51" class="edge">
<title>components/pages/AuthPage.tsx&#45;&gt;components/Form.tsx</title>
<path fill="none" stroke="#757575" d="M498.28,-865.88C504.78,-868.23 511.08,-871 517,-874.27 538.22,-886 531.26,-904.52 553,-915.27 667.29,-971.77 1046.34,-958 1216.06,-948.57"/>
<polygon fill="#757575" stroke="#757575" points="1216.41,-952.06 1226.2,-948 1216.01,-945.07 1216.41,-952.06"/>
</g>
<!-- components/pages/AuthPage.tsx&#45;&gt;components/pages/AuthPage.scss -->
<g id="edge52" class="edge">
<title>components/pages/AuthPage.tsx&#45;&gt;components/pages/AuthPage.scss</title>
<path fill="none" stroke="#757575" d="M499.72,-854.27C514.3,-854.27 529.36,-854.27 544.18,-854.27"/>
<polygon fill="#757575" stroke="#757575" points="544.4,-857.77 554.4,-854.27 544.4,-850.77 544.4,-857.77"/>
</g>
<!-- containers/SignUpModal.tsx -->
<g id="node37" class="node">
<title>containers/SignUpModal.tsx</title>
<path fill="none" stroke="#c6c5fe" d="M751.83,-906.77C751.83,-906.77 582.17,-906.77 582.17,-906.77 578.33,-906.77 574.5,-902.94 574.5,-899.1 574.5,-899.1 574.5,-891.44 574.5,-891.44 574.5,-887.6 578.33,-883.77 582.17,-883.77 582.17,-883.77 751.83,-883.77 751.83,-883.77 755.67,-883.77 759.5,-887.6 759.5,-891.44 759.5,-891.44 759.5,-899.1 759.5,-899.1 759.5,-902.94 755.67,-906.77 751.83,-906.77"/>
<text text-anchor="middle" x="667" y="-891.57" font-family="Arial" font-size="14.00" fill="#c6c5fe">containers/SignUpModal.tsx</text>
</g>
<!-- components/pages/AuthPage.tsx&#45;&gt;containers/SignUpModal.tsx -->
<g id="edge53" class="edge">
<title>components/pages/AuthPage.tsx&#45;&gt;containers/SignUpModal.tsx</title>
<path fill="none" stroke="#757575" d="M469.77,-865.8C503.79,-870.91 543.98,-876.94 579.09,-882.22"/>
<polygon fill="#757575" stroke="#757575" points="578.92,-885.73 589.33,-883.75 579.96,-878.81 578.92,-885.73"/>
</g>
<!-- containers/SignUpModal.tsx&#45;&gt;components/AuthFrom.tsx -->
<g id="edge73" class="edge">
<title>containers/SignUpModal.tsx&#45;&gt;components/AuthFrom.tsx</title>
<path fill="none" stroke="#757575" d="M755.49,-883.68C764.31,-881.14 772.96,-878.05 781,-874.27 799.85,-865.41 797.91,-852.59 817,-844.27 835.2,-836.33 855.65,-831.29 875.6,-828.14"/>
<polygon fill="#757575" stroke="#757575" points="876.25,-831.59 885.65,-826.7 875.26,-824.66 876.25,-831.59"/>
</g>
<!-- containers/SignUpModal.tsx&#45;&gt;components/Form.tsx -->
<g id="edge74" class="edge">
<title>containers/SignUpModal.tsx&#45;&gt;components/Form.tsx</title>
<path fill="none" stroke="#757575" d="M759.83,-902.25C882.48,-911.57 1098.01,-927.95 1216.18,-936.94"/>
<polygon fill="#757575" stroke="#757575" points="1216.02,-940.43 1226.26,-937.7 1216.55,-933.45 1216.02,-940.43"/>
</g>
<!-- components/pages/HomePage.tsx -->
<g id="node38" class="node">
<title>components/pages/HomePage.tsx</title>
<path fill="none" stroke="#c6c5fe" d="M496.33,-1111.77C496.33,-1111.77 287.67,-1111.77 287.67,-1111.77 283.83,-1111.77 280,-1107.94 280,-1104.1 280,-1104.1 280,-1096.44 280,-1096.44 280,-1092.6 283.83,-1088.77 287.67,-1088.77 287.67,-1088.77 496.33,-1088.77 496.33,-1088.77 500.17,-1088.77 504,-1092.6 504,-1096.44 504,-1096.44 504,-1104.1 504,-1104.1 504,-1107.94 500.17,-1111.77 496.33,-1111.77"/>
<text text-anchor="middle" x="392" y="-1096.57" font-family="Arial" font-size="14.00" fill="#c6c5fe">components/pages/HomePage.tsx</text>
</g>
<!-- components/pages/HomePage.tsx&#45;&gt;components/pages/Page.tsx -->
<g id="edge55" class="edge">
<title>components/pages/HomePage.tsx&#45;&gt;components/pages/Page.tsx</title>
<path fill="none" stroke="#757575" d="M485.43,-1111.78C510.42,-1114.89 537.61,-1118.28 563.14,-1121.46"/>
<polygon fill="#757575" stroke="#757575" points="562.85,-1124.95 573.21,-1122.71 563.71,-1118 562.85,-1124.95"/>
</g>
<!-- components/pages/MessagesPage.tsx -->
<g id="node39" class="node">
<title>components/pages/MessagesPage.tsx</title>
<path fill="none" stroke="#c6c5fe" d="M509.33,-1070.77C509.33,-1070.77 274.67,-1070.77 274.67,-1070.77 270.83,-1070.77 267,-1066.94 267,-1063.1 267,-1063.1 267,-1055.44 267,-1055.44 267,-1051.6 270.83,-1047.77 274.67,-1047.77 274.67,-1047.77 509.33,-1047.77 509.33,-1047.77 513.17,-1047.77 517,-1051.6 517,-1055.44 517,-1055.44 517,-1063.1 517,-1063.1 517,-1066.94 513.17,-1070.77 509.33,-1070.77"/>
<text text-anchor="middle" x="392" y="-1055.57" font-family="Arial" font-size="14.00" fill="#c6c5fe">components/pages/MessagesPage.tsx</text>
</g>
<!-- components/pages/MessagesPage.tsx&#45;&gt;components/pages/Page.tsx -->
<g id="edge56" class="edge">
<title>components/pages/MessagesPage.tsx&#45;&gt;components/pages/Page.tsx</title>
<path fill="none" stroke="#757575" d="M493.47,-1070.84C501.59,-1073.16 509.53,-1075.94 517,-1079.27 535.77,-1087.63 534.52,-1099.29 553,-1108.27 562.64,-1112.95 573.15,-1116.81 583.75,-1119.98"/>
<polygon fill="#757575" stroke="#757575" points="582.93,-1123.38 593.5,-1122.71 584.81,-1116.64 582.93,-1123.38"/>
</g>
<!-- components/pages/NotFoundPage.tsx -->
<g id="node40" class="node">
<title>components/pages/NotFoundPage.tsx</title>
<path fill="none" stroke="#cfffac" d="M507.83,-906.77C507.83,-906.77 276.17,-906.77 276.17,-906.77 272.33,-906.77 268.5,-902.94 268.5,-899.1 268.5,-899.1 268.5,-891.44 268.5,-891.44 268.5,-887.6 272.33,-883.77 276.17,-883.77 276.17,-883.77 507.83,-883.77 507.83,-883.77 511.67,-883.77 515.5,-887.6 515.5,-891.44 515.5,-891.44 515.5,-899.1 515.5,-899.1 515.5,-902.94 511.67,-906.77 507.83,-906.77"/>
<text text-anchor="middle" x="392" y="-891.57" font-family="Arial" font-size="14.00" fill="#cfffac">components/pages/NotFoundPage.tsx</text>
</g>
<!-- components/pages/SellPage.tsx -->
<g id="node41" class="node">
<title>components/pages/SellPage.tsx</title>
<path fill="none" stroke="#c6c5fe" d="M489.33,-1029.77C489.33,-1029.77 294.67,-1029.77 294.67,-1029.77 290.83,-1029.77 287,-1025.94 287,-1022.1 287,-1022.1 287,-1014.44 287,-1014.44 287,-1010.6 290.83,-1006.77 294.67,-1006.77 294.67,-1006.77 489.33,-1006.77 489.33,-1006.77 493.17,-1006.77 497,-1010.6 497,-1014.44 497,-1014.44 497,-1022.1 497,-1022.1 497,-1025.94 493.17,-1029.77 489.33,-1029.77"/>
<text text-anchor="middle" x="392" y="-1014.57" font-family="Arial" font-size="14.00" fill="#c6c5fe">components/pages/SellPage.tsx</text>
</g>
<!-- components/pages/SellPage.tsx&#45;&gt;main/MenuConfig.ts -->
<g id="edge59" class="edge">
<title>components/pages/SellPage.tsx&#45;&gt;main/MenuConfig.ts</title>
<path fill="none" stroke="#757575" d="M494.94,-1029.83C502.57,-1032.17 510.01,-1034.95 517,-1038.27 536.34,-1047.45 533.63,-1061.15 553,-1070.27 583.29,-1084.53 781.79,-1111.25 894.73,-1125.59"/>
<polygon fill="#757575" stroke="#757575" points="894.35,-1129.07 904.71,-1126.85 895.23,-1122.12 894.35,-1129.07"/>
</g>
<!-- components/pages/SellPage.tsx&#45;&gt;components/menus/SubMenu.tsx -->
<g id="edge57" class="edge">
<title>components/pages/SellPage.tsx&#45;&gt;components/menus/SubMenu.tsx</title>
<path fill="none" stroke="#757575" d="M497.38,-1017.5C513.58,-1017.39 530.43,-1017.26 546.93,-1017.14"/>
<polygon fill="#757575" stroke="#757575" points="547.17,-1020.64 557.15,-1017.07 547.12,-1013.64 547.17,-1020.64"/>
</g>
<!-- components/pages/SellPage.tsx&#45;&gt;components/pages/Page.tsx -->
<g id="edge58" class="edge">
<title>components/pages/SellPage.tsx&#45;&gt;components/pages/Page.tsx</title>
<path fill="none" stroke="#757575" d="M497.18,-1027.35C504.21,-1030.26 510.91,-1033.85 517,-1038.27 545.31,-1058.82 525.38,-1086.79 553,-1108.27 558.16,-1112.28 563.83,-1115.7 569.8,-1118.6"/>
<polygon fill="#757575" stroke="#757575" points="568.83,-1121.99 579.4,-1122.75 571.61,-1115.57 568.83,-1121.99"/>
</g>
<!-- components/views/CatalogView.tsx -->
<g id="node42" class="node">
<title>components/views/CatalogView.tsx</title>
<path fill="none" stroke="#c6c5fe" d="M498.33,-563.77C498.33,-563.77 285.67,-563.77 285.67,-563.77 281.83,-563.77 278,-559.94 278,-556.1 278,-556.1 278,-548.44 278,-548.44 278,-544.6 281.83,-540.77 285.67,-540.77 285.67,-540.77 498.33,-540.77 498.33,-540.77 502.17,-540.77 506,-544.6 506,-548.44 506,-548.44 506,-556.1 506,-556.1 506,-559.94 502.17,-563.77 498.33,-563.77"/>
<text text-anchor="middle" x="392" y="-548.57" font-family="Arial" font-size="14.00" fill="#c6c5fe">components/views/CatalogView.tsx</text>
</g>
<!-- components/views/CatalogView.tsx&#45;&gt;types/dto.d.ts -->
<g id="edge63" class="edge">
<title>components/views/CatalogView.tsx&#45;&gt;types/dto.d.ts</title>
<path fill="none" stroke="#757575" d="M419.89,-540.75C451.23,-527.87 504.87,-507.48 553,-497.27 668.21,-472.83 699.58,-483.41 817,-474.27 1090.6,-452.97 1159.76,-440.04 1434,-450.27 1571.17,-455.38 1605.24,-461.47 1742,-473.27 1777.1,-476.3 1816.4,-480.13 1847.67,-483.28"/>
<polygon fill="#757575" stroke="#757575" points="1847.65,-486.8 1857.95,-484.32 1848.35,-479.83 1847.65,-486.8"/>
</g>
<!-- components/views/CatalogView.tsx&#45;&gt;components/lists/ProductList.tsx -->
<g id="edge60" class="edge">
<title>components/views/CatalogView.tsx&#45;&gt;components/lists/ProductList.tsx</title>
<path fill="none" stroke="#757575" d="M506.01,-552.27C521.03,-552.27 536.44,-552.27 551.48,-552.27"/>
<polygon fill="#757575" stroke="#757575" points="551.82,-555.77 561.82,-552.27 551.82,-548.77 551.82,-555.77"/>
</g>
<!-- components/views/CatalogView.tsx&#45;&gt;components/modals/MakeModalFormProduct.tsx -->
<g id="edge61" class="edge">
<title>components/views/CatalogView.tsx&#45;&gt;components/modals/MakeModalFormProduct.tsx</title>
<path fill="none" stroke="#757575" d="M475.5,-563.81C500.37,-566.96 527.76,-570.09 553,-572.27 636.35,-579.45 729.25,-584.21 806.44,-587.28"/>
<polygon fill="#757575" stroke="#757575" points="806.61,-590.79 816.74,-587.68 806.88,-583.79 806.61,-590.79"/>
</g>
<!-- services/CatalogService.ts -->
<g id="node43" class="node">
<title>services/CatalogService.ts</title>
<path fill="none" stroke="#c6c5fe" d="M1380.83,-482.77C1380.83,-482.77 1220.17,-482.77 1220.17,-482.77 1216.33,-482.77 1212.5,-478.94 1212.5,-475.1 1212.5,-475.1 1212.5,-467.44 1212.5,-467.44 1212.5,-463.6 1216.33,-459.77 1220.17,-459.77 1220.17,-459.77 1380.83,-459.77 1380.83,-459.77 1384.67,-459.77 1388.5,-463.6 1388.5,-467.44 1388.5,-467.44 1388.5,-475.1 1388.5,-475.1 1388.5,-478.94 1384.67,-482.77 1380.83,-482.77"/>
<text text-anchor="middle" x="1300.5" y="-467.57" font-family="Arial" font-size="14.00" fill="#c6c5fe">services/CatalogService.ts</text>
</g>
<!-- components/views/CatalogView.tsx&#45;&gt;services/CatalogService.ts -->
<g id="edge62" class="edge">
<title>components/views/CatalogView.tsx&#45;&gt;services/CatalogService.ts</title>
<path fill="none" stroke="#757575" d="M480.6,-540.73C504.11,-537.65 529.52,-534.32 553,-531.27 670.31,-516.02 699.19,-508.02 817,-497.27 950.13,-485.13 1104.49,-478.03 1202.05,-474.4"/>
<polygon fill="#757575" stroke="#757575" points="1202.33,-477.89 1212.19,-474.02 1202.07,-470.89 1202.33,-477.89"/>
</g>
<!-- services/CatalogService.ts&#45;&gt;types/dto.d.ts -->
<g id="edge92" class="edge">
<title>services/CatalogService.ts&#45;&gt;types/dto.d.ts</title>
<path fill="none" stroke="#757575" d="M1388.68,-473.87C1513.88,-477.6 1741.21,-484.37 1847.64,-487.54"/>
<polygon fill="#757575" stroke="#757575" points="1847.76,-491.05 1857.86,-487.85 1847.97,-484.05 1847.76,-491.05"/>
</g>
<!-- services/CatalogService.ts&#45;&gt;types/types.d.ts -->
<g id="edge93" class="edge">
<title>services/CatalogService.ts&#45;&gt;types/types.d.ts</title>
<path fill="none" stroke="#757575" d="M1347.22,-482.83C1428.01,-503.75 1600.83,-550.73 1742,-604.27 1876.06,-655.11 1910.66,-667.87 2035,-739.27 2058.88,-752.98 2084.45,-771.26 2102.21,-784.6"/>
<polygon fill="#757575" stroke="#757575" points="2100.18,-787.45 2110.26,-790.71 2104.41,-781.88 2100.18,-787.45"/>
</g>
<!-- components/views/CatalogsView.tsx -->
<g id="node44" class="node">
<title>components/views/CatalogsView.tsx</title>
<path fill="none" stroke="#c6c5fe" d="M501.83,-348.77C501.83,-348.77 282.17,-348.77 282.17,-348.77 278.33,-348.77 274.5,-344.94 274.5,-341.1 274.5,-341.1 274.5,-333.44 274.5,-333.44 274.5,-329.6 278.33,-325.77 282.17,-325.77 282.17,-325.77 501.83,-325.77 501.83,-325.77 505.67,-325.77 509.5,-329.6 509.5,-333.44 509.5,-333.44 509.5,-341.1 509.5,-341.1 509.5,-344.94 505.67,-348.77 501.83,-348.77"/>
<text text-anchor="middle" x="392" y="-333.57" font-family="Arial" font-size="14.00" fill="#c6c5fe">components/views/CatalogsView.tsx</text>
</g>
<!-- components/views/CatalogsView.tsx&#45;&gt;types/dto.d.ts -->
<g id="edge67" class="edge">
<title>components/views/CatalogsView.tsx&#45;&gt;types/dto.d.ts</title>
<path fill="none" stroke="#757575" d="M509.72,-331.71C816.49,-317.82 1629.6,-285.83 1742,-331.27 1811.54,-359.38 1867.93,-432.81 1892.37,-468.79"/>
<polygon fill="#757575" stroke="#757575" points="1889.7,-471.09 1898.15,-477.49 1895.53,-467.22 1889.7,-471.09"/>
</g>
<!-- components/views/CatalogsView.tsx&#45;&gt;components/lists/CatalogList.tsx -->
<g id="edge64" class="edge">
<title>components/views/CatalogsView.tsx&#45;&gt;components/lists/CatalogList.tsx</title>
<path fill="none" stroke="#757575" d="M478.37,-325.71C491.43,-323.11 504.67,-319.99 517,-316.27 533.76,-311.21 536.39,-305.81 553,-300.27 566.81,-295.66 581.83,-291.58 596.28,-288.1"/>
<polygon fill="#757575" stroke="#757575" points="597.23,-291.47 606.17,-285.78 595.64,-284.65 597.23,-291.47"/>
</g>
<!-- components/views/CatalogsView.tsx&#45;&gt;components/modals/MakeModalFormCatalog.tsx -->
<g id="edge65" class="edge">
<title>components/views/CatalogsView.tsx&#45;&gt;components/modals/MakeModalFormCatalog.tsx</title>
<path fill="none" stroke="#757575" d="M500.04,-325.7C506.01,-323.07 511.72,-319.96 517,-316.27 543.44,-297.8 525.48,-270.08 553,-253.27 666.24,-184.09 830.46,-203.58 916.14,-220.7"/>
<polygon fill="#757575" stroke="#757575" points="915.44,-224.13 925.94,-222.71 916.85,-217.27 915.44,-224.13"/>
</g>
<!-- components/views/CatalogsView.tsx&#45;&gt;services/CatalogService.ts -->
<g id="edge66" class="edge">
<title>components/views/CatalogsView.tsx&#45;&gt;services/CatalogService.ts</title>
<path fill="none" stroke="#757575" d="M471.07,-348.81C639.27,-373.67 1034.88,-432.15 1211.58,-458.27"/>
<polygon fill="#757575" stroke="#757575" points="1211.21,-461.76 1221.62,-459.76 1212.24,-454.83 1211.21,-461.76"/>
</g>
<!-- components/views/ProductView.tsx -->
<g id="node45" class="node">
<title>components/views/ProductView.tsx</title>
<path fill="none" stroke="#c6c5fe" d="M773.33,-738.77C773.33,-738.77 560.67,-738.77 560.67,-738.77 556.83,-738.77 553,-734.94 553,-731.1 553,-731.1 553,-723.44 553,-723.44 553,-719.6 556.83,-715.77 560.67,-715.77 560.67,-715.77 773.33,-715.77 773.33,-715.77 777.17,-715.77 781,-719.6 781,-723.44 781,-723.44 781,-731.1 781,-731.1 781,-734.94 777.17,-738.77 773.33,-738.77"/>
<text text-anchor="middle" x="667" y="-723.57" font-family="Arial" font-size="14.00" fill="#c6c5fe">components/views/ProductView.tsx</text>
</g>
<!-- components/views/ProductView.tsx&#45;&gt;types/dto.d.ts -->
<g id="edge71" class="edge">
<title>components/views/ProductView.tsx&#45;&gt;types/dto.d.ts</title>
<path fill="none" stroke="#757575" d="M781.44,-717.95C882.57,-709.69 1034.63,-697.41 1167,-687.27 1230.87,-682.38 1683.44,-671.24 1742,-645.27 1809.82,-615.19 1866.66,-544.43 1891.73,-509.5"/>
<polygon fill="#757575" stroke="#757575" points="1894.79,-511.24 1897.68,-501.05 1889.06,-507.21 1894.79,-511.24"/>
</g>
<!-- components/views/ProductView.tsx&#45;&gt;types/types.d.ts -->
<g id="edge72" class="edge">
<title>components/views/ProductView.tsx&#45;&gt;types/types.d.ts</title>
<path fill="none" stroke="#757575" d="M707.53,-738.84C737.38,-747.21 779.48,-758.24 817,-765.27 955.17,-791.14 1004.17,-742.65 1131,-803.27 1151.13,-812.89 1147.06,-828.25 1167,-838.27 1274.41,-892.22 1327.72,-825.12 1434,-881.27 1454.57,-892.14 1448.63,-910.08 1470,-919.27 1527.67,-944.07 1978.68,-947 2035,-919.27 2075.54,-899.31 2102.94,-851.33 2116.06,-823.4"/>
<polygon fill="#757575" stroke="#757575" points="2119.33,-824.67 2120.24,-814.11 2112.94,-821.79 2119.33,-824.67"/>
</g>
<!-- components/views/ProductView.tsx&#45;&gt;services/RestService.ts -->
<g id="edge70" class="edge">
<title>components/views/ProductView.tsx&#45;&gt;services/RestService.ts</title>
<path fill="none" stroke="#757575" d="M781.26,-730.12C897.57,-734.4 1069.96,-744.92 1131,-770.27 1150.23,-778.26 1148.12,-791.47 1167,-800.27 1276.27,-851.22 1322.6,-802.16 1434,-848.27 1452,-855.72 1452.05,-865.71 1470,-873.27 1484.85,-879.52 1501.25,-884.29 1517.35,-887.91"/>
<polygon fill="#757575" stroke="#757575" points="1516.82,-891.37 1527.32,-890.02 1518.27,-884.53 1516.82,-891.37"/>
</g>
<!-- components/views/ProductView.tsx&#45;&gt;components/modals/MakeModalFormProduct.tsx -->
<g id="edge68" class="edge">
<title>components/views/ProductView.tsx&#45;&gt;components/modals/MakeModalFormProduct.tsx</title>
<path fill="none" stroke="#757575" d="M679.9,-715.43C703.67,-692.55 759.69,-642.39 817,-618.27 828.7,-613.35 841.25,-609.35 853.98,-606.12"/>
<polygon fill="#757575" stroke="#757575" points="854.82,-609.51 863.74,-603.78 853.2,-602.71 854.82,-609.51"/>
</g>
<!-- services/ProductService.ts -->
<g id="node46" class="node">
<title>services/ProductService.ts</title>
<path fill="none" stroke="#c6c5fe" d="M1686.33,-636.77C1686.33,-636.77 1525.67,-636.77 1525.67,-636.77 1521.83,-636.77 1518,-632.94 1518,-629.1 1518,-629.1 1518,-621.44 1518,-621.44 1518,-617.6 1521.83,-613.77 1525.67,-613.77 1525.67,-613.77 1686.33,-613.77 1686.33,-613.77 1690.17,-613.77 1694,-617.6 1694,-621.44 1694,-621.44 1694,-629.1 1694,-629.1 1694,-632.94 1690.17,-636.77 1686.33,-636.77"/>
<text text-anchor="middle" x="1606" y="-621.57" font-family="Arial" font-size="14.00" fill="#c6c5fe">services/ProductService.ts</text>
</g>
<!-- components/views/ProductView.tsx&#45;&gt;services/ProductService.ts -->
<g id="edge69" class="edge">
<title>components/views/ProductView.tsx&#45;&gt;services/ProductService.ts</title>
<path fill="none" stroke="#757575" d="M714.07,-715.77C743.39,-708.77 782.25,-700.09 817,-694.27 1063.76,-652.96 1358.4,-635.5 1507.79,-628.87"/>
<polygon fill="#757575" stroke="#757575" points="1508.02,-632.36 1517.86,-628.43 1507.72,-625.37 1508.02,-632.36"/>
</g>
<!-- services/ProductService.ts&#45;&gt;types/dto.d.ts -->
<g id="edge95" class="edge">
<title>services/ProductService.ts&#45;&gt;types/dto.d.ts</title>
<path fill="none" stroke="#757575" d="M1694.21,-613.81C1710.44,-610.19 1727,-605.46 1742,-599.27 1797.84,-576.23 1854.43,-532.64 1884.18,-507.81"/>
<polygon fill="#757575" stroke="#757575" points="1886.8,-510.18 1892.17,-501.05 1882.28,-504.84 1886.8,-510.18"/>
</g>
<!-- components/views/ProfileView.tsx -->
<g id="node47" class="node">
<title>components/views/ProfileView.tsx</title>
<path fill="none" stroke="#cfffac" d="M494.33,-307.77C494.33,-307.77 289.67,-307.77 289.67,-307.77 285.83,-307.77 282,-303.94 282,-300.1 282,-300.1 282,-292.44 282,-292.44 282,-288.6 285.83,-284.77 289.67,-284.77 289.67,-284.77 494.33,-284.77 494.33,-284.77 498.17,-284.77 502,-288.6 502,-292.44 502,-292.44 502,-300.1 502,-300.1 502,-303.94 498.17,-307.77 494.33,-307.77"/>
<text text-anchor="middle" x="392" y="-292.57" font-family="Arial" font-size="14.00" fill="#cfffac">components/views/ProfileView.tsx</text>
</g>
<!-- index.css -->
<g id="node48" class="node">
<title>index.css</title>
<path fill="none" stroke="#cfffac" d="M420.83,-1193.77C420.83,-1193.77 363.17,-1193.77 363.17,-1193.77 359.33,-1193.77 355.5,-1189.94 355.5,-1186.1 355.5,-1186.1 355.5,-1178.44 355.5,-1178.44 355.5,-1174.6 359.33,-1170.77 363.17,-1170.77 363.17,-1170.77 420.83,-1170.77 420.83,-1170.77 424.67,-1170.77 428.5,-1174.6 428.5,-1178.44 428.5,-1178.44 428.5,-1186.1 428.5,-1186.1 428.5,-1189.94 424.67,-1193.77 420.83,-1193.77"/>
<text text-anchor="middle" x="392" y="-1178.57" font-family="Arial" font-size="14.00" fill="#cfffac">index.css</text>
</g>
<!-- index.tsx -->
<g id="node49" class="node">
<title>index.tsx</title>
<path fill="none" stroke="#c6c5fe" d="M142.83,-1009.77C142.83,-1009.77 88.17,-1009.77 88.17,-1009.77 84.33,-1009.77 80.5,-1005.94 80.5,-1002.1 80.5,-1002.1 80.5,-994.44 80.5,-994.44 80.5,-990.6 84.33,-986.77 88.17,-986.77 88.17,-986.77 142.83,-986.77 142.83,-986.77 146.67,-986.77 150.5,-990.6 150.5,-994.44 150.5,-994.44 150.5,-1002.1 150.5,-1002.1 150.5,-1005.94 146.67,-1009.77 142.83,-1009.77"/>
<text text-anchor="middle" x="115.5" y="-994.57" font-family="Arial" font-size="14.00" fill="#c6c5fe">index.tsx</text>
</g>
<!-- index.tsx&#45;&gt;components/containers/App.tsx -->
<g id="edge75" class="edge">
<title>index.tsx&#45;&gt;components/containers/App.tsx</title>
<path fill="none" stroke="#757575" d="M120.2,-1010.02C133.19,-1049.2 180.66,-1176.33 267,-1236.27 273.02,-1240.45 279.58,-1243.99 286.44,-1246.97"/>
<polygon fill="#757575" stroke="#757575" points="285.35,-1250.3 295.94,-1250.71 287.91,-1243.79 285.35,-1250.3"/>
</g>
<!-- index.tsx&#45;&gt;main/RoutePath.ts -->
<g id="edge87" class="edge">
<title>index.tsx&#45;&gt;main/RoutePath.ts</title>
<path fill="none" stroke="#757575" d="M120.73,-1010.03C134.7,-1046.85 183.32,-1160.01 267,-1202.27 309.66,-1223.81 997.53,-1189.35 1226.22,-1177.23"/>
<polygon fill="#757575" stroke="#757575" points="1226.64,-1180.72 1236.44,-1176.69 1226.26,-1173.73 1226.64,-1180.72"/>
</g>
<!-- index.tsx&#45;&gt;components/pages/AccountPage.tsx -->
<g id="edge76" class="edge">
<title>index.tsx&#45;&gt;components/pages/AccountPage.tsx</title>
<path fill="none" stroke="#757575" d="M150.71,-995.65C179.32,-993.46 222.01,-990.2 263.51,-987.02"/>
<polygon fill="#757575" stroke="#757575" points="264.04,-990.49 273.74,-986.24 263.5,-983.51 264.04,-990.49"/>
</g>
<!-- index.tsx&#45;&gt;components/pages/AuthPage.tsx -->
<g id="edge77" class="edge">
<title>index.tsx&#45;&gt;components/pages/AuthPage.tsx</title>
<path fill="none" stroke="#757575" d="M126.43,-986.69C148.72,-961.56 205.61,-902.02 267,-874.27 271.37,-872.3 275.89,-870.51 280.53,-868.91"/>
<polygon fill="#757575" stroke="#757575" points="281.69,-872.21 290.16,-865.84 279.57,-865.54 281.69,-872.21"/>
</g>
<!-- index.tsx&#45;&gt;components/pages/HomePage.tsx -->
<g id="edge78" class="edge">
<title>index.tsx&#45;&gt;components/pages/HomePage.tsx</title>
<path fill="none" stroke="#757575" d="M133.71,-1009.97C160.8,-1027.82 215.64,-1061.63 267,-1079.27 274.94,-1082 283.29,-1084.38 291.76,-1086.46"/>
<polygon fill="#757575" stroke="#757575" points="291.19,-1089.92 301.72,-1088.76 292.77,-1083.1 291.19,-1089.92"/>
</g>
<!-- index.tsx&#45;&gt;components/pages/MessagesPage.tsx -->
<g id="edge79" class="edge">
<title>index.tsx&#45;&gt;components/pages/MessagesPage.tsx</title>
<path fill="none" stroke="#757575" d="M150.65,-1008.31C181.01,-1017 226.71,-1029.52 267,-1038.27 279.58,-1041 292.95,-1043.59 306.07,-1045.95"/>
<polygon fill="#757575" stroke="#757575" points="305.58,-1049.42 316.03,-1047.72 306.8,-1042.53 305.58,-1049.42"/>
</g>
<!-- index.tsx&#45;&gt;components/pages/NotFoundPage.tsx -->
<g id="edge80" class="edge">
<title>index.tsx&#45;&gt;components/pages/NotFoundPage.tsx</title>
<path fill="none" stroke="#757575" d="M133.2,-986.51C160.05,-968.21 215.09,-933.16 267,-915.27 273.51,-913.03 280.3,-911.03 287.2,-909.26"/>
<polygon fill="#757575" stroke="#757575" points="288.47,-912.55 297.38,-906.82 286.84,-905.75 288.47,-912.55"/>
</g>
<!-- index.tsx&#45;&gt;components/pages/SellPage.tsx -->
<g id="edge81" class="edge">
<title>index.tsx&#45;&gt;components/pages/SellPage.tsx</title>
<path fill="none" stroke="#757575" d="M150.71,-1000.76C182.38,-1003.07 231.29,-1006.63 276.74,-1009.94"/>
<polygon fill="#757575" stroke="#757575" points="276.76,-1013.45 286.98,-1010.69 277.26,-1006.47 276.76,-1013.45"/>
</g>
<!-- index.tsx&#45;&gt;components/views/CatalogView.tsx -->
<g id="edge82" class="edge">
<title>index.tsx&#45;&gt;components/views/CatalogView.tsx</title>
<path fill="none" stroke="#757575" d="M123.29,-986.7C144.33,-950.91 210.4,-838.92 267,-747.27 306.67,-683.03 355.02,-607.87 377.86,-572.55"/>
<polygon fill="#757575" stroke="#757575" points="380.85,-574.37 383.34,-564.07 374.97,-570.57 380.85,-574.37"/>
</g>
<!-- index.tsx&#45;&gt;components/views/CatalogsView.tsx -->
<g id="edge83" class="edge">
<title>index.tsx&#45;&gt;components/views/CatalogsView.tsx</title>
<path fill="none" stroke="#757575" d="M119.07,-986.66C131.2,-932.99 185.5,-704.27 267,-531.27 298.9,-463.55 350.48,-391.1 375.88,-357.07"/>
<polygon fill="#757575" stroke="#757575" points="378.81,-358.99 382.03,-348.9 373.22,-354.78 378.81,-358.99"/>
</g>
<!-- index.tsx&#45;&gt;components/views/ProductView.tsx -->
<g id="edge84" class="edge">
<title>index.tsx&#45;&gt;components/views/ProductView.tsx</title>
<path fill="none" stroke="#757575" d="M123.67,-986.59C142.88,-956.3 198.72,-874.71 267,-833.27 353.55,-780.74 466.07,-753.91 549.55,-740.41"/>
<polygon fill="#757575" stroke="#757575" points="550.25,-743.84 559.58,-738.82 549.16,-736.92 550.25,-743.84"/>
</g>
<!-- index.tsx&#45;&gt;components/views/ProfileView.tsx -->
<g id="edge85" class="edge">
<title>index.tsx&#45;&gt;components/views/ProfileView.tsx</title>
<path fill="none" stroke="#757575" d="M117.32,-986.71C123.36,-904.92 163.64,-413.88 267,-316.27 268.98,-314.4 271.06,-312.67 273.22,-311.06"/>
<polygon fill="#757575" stroke="#757575" points="275.43,-313.81 281.97,-305.47 271.66,-307.91 275.43,-313.81"/>
</g>
<!-- index.tsx&#45;&gt;index.css -->
<g id="edge86" class="edge">
<title>index.tsx&#45;&gt;index.css</title>
<path fill="none" stroke="#757575" d="M123.5,-1010.17C142.3,-1040.96 197.24,-1123.47 267,-1161.27 290.85,-1174.19 320.76,-1179.52 345.23,-1181.58"/>
<polygon fill="#757575" stroke="#757575" points="345.13,-1185.08 355.35,-1182.27 345.61,-1178.09 345.13,-1185.08"/>
</g>
<!-- reportWebVitals.ts -->
<g id="node50" class="node">
<title>reportWebVitals.ts</title>
<path fill="none" stroke="#cfffac" d="M447.83,-1152.77C447.83,-1152.77 336.17,-1152.77 336.17,-1152.77 332.33,-1152.77 328.5,-1148.94 328.5,-1145.1 328.5,-1145.1 328.5,-1137.44 328.5,-1137.44 328.5,-1133.6 332.33,-1129.77 336.17,-1129.77 336.17,-1129.77 447.83,-1129.77 447.83,-1129.77 451.67,-1129.77 455.5,-1133.6 455.5,-1137.44 455.5,-1137.44 455.5,-1145.1 455.5,-1145.1 455.5,-1148.94 451.67,-1152.77 447.83,-1152.77"/>
<text text-anchor="middle" x="392" y="-1137.57" font-family="Arial" font-size="14.00" fill="#cfffac">reportWebVitals.ts</text>
</g>
<!-- index.tsx&#45;&gt;reportWebVitals.ts -->
<g id="edge88" class="edge">
<title>index.tsx&#45;&gt;reportWebVitals.ts</title>
<path fill="none" stroke="#757575" d="M126.83,-1010C149.47,-1034.86 206.31,-1092.84 267,-1120.27 282.88,-1127.45 300.92,-1132.19 318.22,-1135.32"/>
<polygon fill="#757575" stroke="#757575" points="317.86,-1138.81 328.3,-1136.98 319,-1131.9 317.86,-1138.81"/>
</g>
<!-- react&#45;app&#45;env.d.ts -->
<g id="node51" class="node">
<title>react&#45;app&#45;env.d.ts</title>
<path fill="none" stroke="#cfffac" d="M170.33,-1396.77C170.33,-1396.77 60.67,-1396.77 60.67,-1396.77 56.83,-1396.77 53,-1392.94 53,-1389.1 53,-1389.1 53,-1381.44 53,-1381.44 53,-1377.6 56.83,-1373.77 60.67,-1373.77 60.67,-1373.77 170.33,-1373.77 170.33,-1373.77 174.17,-1373.77 178,-1377.6 178,-1381.44 178,-1381.44 178,-1389.1 178,-1389.1 178,-1392.94 174.17,-1396.77 170.33,-1396.77"/>
<text text-anchor="middle" x="115.5" y="-1381.57" font-family="Arial" font-size="14.00" fill="#cfffac">react&#45;app&#45;env.d.ts</text>
</g>
<!-- services/LocalData.ts -->
<g id="node53" class="node">
<title>services/LocalData.ts</title>
<path fill="none" stroke="#cfffac" d="M180.33,-1437.77C180.33,-1437.77 50.67,-1437.77 50.67,-1437.77 46.83,-1437.77 43,-1433.94 43,-1430.1 43,-1430.1 43,-1422.44 43,-1422.44 43,-1418.6 46.83,-1414.77 50.67,-1414.77 50.67,-1414.77 180.33,-1414.77 180.33,-1414.77 184.17,-1414.77 188,-1418.6 188,-1422.44 188,-1422.44 188,-1430.1 188,-1430.1 188,-1433.94 184.17,-1437.77 180.33,-1437.77"/>
<text text-anchor="middle" x="115.5" y="-1422.57" font-family="Arial" font-size="14.00" fill="#cfffac">services/LocalData.ts</text>
</g>
<!-- setupTests.ts -->
<g id="node55" class="node">
<title>setupTests.ts</title>
<path fill="none" stroke="#cfffac" d="M155.33,-1478.77C155.33,-1478.77 75.67,-1478.77 75.67,-1478.77 71.83,-1478.77 68,-1474.94 68,-1471.1 68,-1471.1 68,-1463.44 68,-1463.44 68,-1459.6 71.83,-1455.77 75.67,-1455.77 75.67,-1455.77 155.33,-1455.77 155.33,-1455.77 159.17,-1455.77 163,-1459.6 163,-1463.44 163,-1463.44 163,-1471.1 163,-1471.1 163,-1474.94 159.17,-1478.77 155.33,-1478.77"/>
<text text-anchor="middle" x="115.5" y="-1463.57" font-family="Arial" font-size="14.00" fill="#cfffac">setupTests.ts</text>
</g>
</g>
</svg>
