<?xml version="1.0" encoding="UTF-8" standalone="no"?>
<!DOCTYPE svg PUBLIC "-//W3C//DTD SVG 1.1//EN"
 "http://www.w3.org/Graphics/SVG/1.1/DTD/svg11.dtd">
<!-- Generated by graphviz version 2.43.0 (0)
 -->
<!-- Title: G Pages: 1 -->
<svg width="2323pt" height="1513pt"
 viewBox="0.00 0.00 2323.20 1513.36" xmlns="http://www.w3.org/2000/svg" xmlns:xlink="http://www.w3.org/1999/xlink">
<g id="graph0" class="graph" transform="scale(1 1) rotate(0) translate(21.6 1491.76)">
<title>G</title>
<polygon fill="#111111" stroke="transparent" points="-21.6,21.6 -21.6,-1491.76 2301.6,-1491.76 2301.6,21.6 -21.6,21.6"/>
<!-- components/AuthContainer.tsx -->
<g id="node1" class="node">
<title>components/AuthContainer.tsx</title>
<path fill="none" stroke="#c6c5fe" d="M1393.33,-1470.16C1393.33,-1470.16 1207.67,-1470.16 1207.67,-1470.16 1203.83,-1470.16 1200,-1466.33 1200,-1462.49 1200,-1462.49 1200,-1454.83 1200,-1454.83 1200,-1450.99 1203.83,-1447.16 1207.67,-1447.16 1207.67,-1447.16 1393.33,-1447.16 1393.33,-1447.16 1397.17,-1447.16 1401,-1450.99 1401,-1454.83 1401,-1454.83 1401,-1462.49 1401,-1462.49 1401,-1466.33 1397.17,-1470.16 1393.33,-1470.16"/>
<text text-anchor="middle" x="1300.5" y="-1454.96" font-family="Arial" font-size="14.00" fill="#c6c5fe">components/AuthContainer.tsx</text>
</g>
<!-- services/Firebase.ts -->
<g id="node2" class="node">
<title>services/Firebase.ts</title>
<path fill="none" stroke="#c6c5fe" d="M1666.83,-1470.16C1666.83,-1470.16 1545.17,-1470.16 1545.17,-1470.16 1541.33,-1470.16 1537.5,-1466.33 1537.5,-1462.49 1537.5,-1462.49 1537.5,-1454.83 1537.5,-1454.83 1537.5,-1450.99 1541.33,-1447.16 1545.17,-1447.16 1545.17,-1447.16 1666.83,-1447.16 1666.83,-1447.16 1670.67,-1447.16 1674.5,-1450.99 1674.5,-1454.83 1674.5,-1454.83 1674.5,-1462.49 1674.5,-1462.49 1674.5,-1466.33 1670.67,-1470.16 1666.83,-1470.16"/>
<text text-anchor="middle" x="1606" y="-1454.96" font-family="Arial" font-size="14.00" fill="#c6c5fe">services/Firebase.ts</text>
</g>
<!-- components/AuthContainer.tsx&#45;&gt;services/Firebase.ts -->
<g id="edge1" class="edge">
<title>components/AuthContainer.tsx&#45;&gt;services/Firebase.ts</title>
<path fill="none" stroke="#757575" d="M1401.3,-1458.66C1442.22,-1458.66 1488.87,-1458.66 1527.19,-1458.66"/>
<polygon fill="#757575" stroke="#757575" points="1527.25,-1462.16 1537.25,-1458.66 1527.25,-1455.16 1527.25,-1462.16"/>
</g>
<!-- types/models.d.ts -->
<g id="node53" class="node">
<title>types/models.d.ts</title>
<path fill="none" stroke="#cfffac" d="M2251.33,-1413.16C2251.33,-1413.16 2144.67,-1413.16 2144.67,-1413.16 2140.83,-1413.16 2137,-1409.33 2137,-1405.49 2137,-1405.49 2137,-1397.83 2137,-1397.83 2137,-1393.99 2140.83,-1390.16 2144.67,-1390.16 2144.67,-1390.16 2251.33,-1390.16 2251.33,-1390.16 2255.17,-1390.16 2259,-1393.99 2259,-1397.83 2259,-1397.83 2259,-1405.49 2259,-1405.49 2259,-1409.33 2255.17,-1413.16 2251.33,-1413.16"/>
<text text-anchor="middle" x="2198" y="-1397.96" font-family="Arial" font-size="14.00" fill="#cfffac">types/models.d.ts</text>
</g>
<!-- services/Firebase.ts&#45;&gt;types/models.d.ts -->
<g id="edge102" class="edge">
<title>services/Firebase.ts&#45;&gt;types/models.d.ts</title>
<path fill="none" stroke="#757575" d="M1674.82,-1459.26C1767.08,-1459.09 1937.03,-1455.29 2080,-1432.66 2103.83,-1428.89 2129.82,-1422.26 2151.24,-1416.1"/>
<polygon fill="#757575" stroke="#757575" points="2152.43,-1419.4 2161.04,-1413.23 2150.46,-1412.68 2152.43,-1419.4"/>
</g>
<!-- components/Friends.tsx -->
<g id="node3" class="node">
<title>components/Friends.tsx</title>
<path fill="none" stroke="#cfffac" d="M188.33,-1256.16C188.33,-1256.16 42.67,-1256.16 42.67,-1256.16 38.83,-1256.16 35,-1252.33 35,-1248.49 35,-1248.49 35,-1240.83 35,-1240.83 35,-1236.99 38.83,-1233.16 42.67,-1233.16 42.67,-1233.16 188.33,-1233.16 188.33,-1233.16 192.17,-1233.16 196,-1236.99 196,-1240.83 196,-1240.83 196,-1248.49 196,-1248.49 196,-1252.33 192.17,-1256.16 188.33,-1256.16"/>
<text text-anchor="middle" x="115.5" y="-1240.96" font-family="Arial" font-size="14.00" fill="#cfffac">components/Friends.tsx</text>
</g>
<!-- components/containers/App.test.tsx -->
<g id="node4" class="node">
<title>components/containers/App.test.tsx</title>
<path fill="none" stroke="#c6c5fe" d="M223.33,-1215.16C223.33,-1215.16 7.67,-1215.16 7.67,-1215.16 3.83,-1215.16 0,-1211.33 0,-1207.49 0,-1207.49 0,-1199.83 0,-1199.83 0,-1195.99 3.83,-1192.16 7.67,-1192.16 7.67,-1192.16 223.33,-1192.16 223.33,-1192.16 227.17,-1192.16 231,-1195.99 231,-1199.83 231,-1199.83 231,-1207.49 231,-1207.49 231,-1211.33 227.17,-1215.16 223.33,-1215.16"/>
<text text-anchor="middle" x="115.5" y="-1199.96" font-family="Arial" font-size="14.00" fill="#c6c5fe">components/containers/App.test.tsx</text>
</g>
<!-- components/containers/App.tsx -->
<g id="node5" class="node">
<title>components/containers/App.tsx</title>
<path fill="none" stroke="#c6c5fe" d="M487.33,-1215.16C487.33,-1215.16 296.67,-1215.16 296.67,-1215.16 292.83,-1215.16 289,-1211.33 289,-1207.49 289,-1207.49 289,-1199.83 289,-1199.83 289,-1195.99 292.83,-1192.16 296.67,-1192.16 296.67,-1192.16 487.33,-1192.16 487.33,-1192.16 491.17,-1192.16 495,-1195.99 495,-1199.83 495,-1199.83 495,-1207.49 495,-1207.49 495,-1211.33 491.17,-1215.16 487.33,-1215.16"/>
<text text-anchor="middle" x="392" y="-1199.96" font-family="Arial" font-size="14.00" fill="#c6c5fe">components/containers/App.tsx</text>
</g>
<!-- components/containers/App.test.tsx&#45;&gt;components/containers/App.tsx -->
<g id="edge2" class="edge">
<title>components/containers/App.test.tsx&#45;&gt;components/containers/App.tsx</title>
<path fill="none" stroke="#757575" d="M231.32,-1203.66C246.99,-1203.66 263.06,-1203.66 278.68,-1203.66"/>
<polygon fill="#757575" stroke="#757575" points="278.87,-1207.16 288.87,-1203.66 278.87,-1200.16 278.87,-1207.16"/>
</g>
<!-- components/menus/RootMenu.tsx -->
<g id="node6" class="node">
<title>components/menus/RootMenu.tsx</title>
<path fill="none" stroke="#c6c5fe" d="M771.33,-1318.16C771.33,-1318.16 562.67,-1318.16 562.67,-1318.16 558.83,-1318.16 555,-1314.33 555,-1310.49 555,-1310.49 555,-1302.83 555,-1302.83 555,-1298.99 558.83,-1295.16 562.67,-1295.16 562.67,-1295.16 771.33,-1295.16 771.33,-1295.16 775.17,-1295.16 779,-1298.99 779,-1302.83 779,-1302.83 779,-1310.49 779,-1310.49 779,-1314.33 775.17,-1318.16 771.33,-1318.16"/>
<text text-anchor="middle" x="667" y="-1302.96" font-family="Arial" font-size="14.00" fill="#c6c5fe">components/menus/RootMenu.tsx</text>
</g>
<!-- components/containers/App.tsx&#45;&gt;components/menus/RootMenu.tsx -->
<g id="edge3" class="edge">
<title>components/containers/App.tsx&#45;&gt;components/menus/RootMenu.tsx</title>
<path fill="none" stroke="#757575" d="M423.52,-1215.17C473.01,-1233.84 570.74,-1270.72 625.82,-1291.5"/>
<polygon fill="#757575" stroke="#757575" points="624.67,-1294.8 635.26,-1295.06 627.14,-1288.26 624.67,-1294.8"/>
</g>
<!-- main/RoutePath.ts -->
<g id="node7" class="node">
<title>main/RoutePath.ts</title>
<path fill="none" stroke="#c6c5fe" d="M1356.83,-1121.16C1356.83,-1121.16 1244.17,-1121.16 1244.17,-1121.16 1240.33,-1121.16 1236.5,-1117.33 1236.5,-1113.49 1236.5,-1113.49 1236.5,-1105.83 1236.5,-1105.83 1236.5,-1101.99 1240.33,-1098.16 1244.17,-1098.16 1244.17,-1098.16 1356.83,-1098.16 1356.83,-1098.16 1360.67,-1098.16 1364.5,-1101.99 1364.5,-1105.83 1364.5,-1105.83 1364.5,-1113.49 1364.5,-1113.49 1364.5,-1117.33 1360.67,-1121.16 1356.83,-1121.16"/>
<text text-anchor="middle" x="1300.5" y="-1105.96" font-family="Arial" font-size="14.00" fill="#c6c5fe">main/RoutePath.ts</text>
</g>
<!-- components/containers/App.tsx&#45;&gt;main/RoutePath.ts -->
<g id="edge4" class="edge">
<title>components/containers/App.tsx&#45;&gt;main/RoutePath.ts</title>
<path fill="none" stroke="#757575" d="M495.18,-1194.75C637.73,-1182.08 904.29,-1157.51 1131,-1131.66 1162.2,-1128.1 1196.59,-1123.7 1226.12,-1119.77"/>
<polygon fill="#757575" stroke="#757575" points="1226.9,-1123.19 1236.35,-1118.4 1225.97,-1116.26 1226.9,-1123.19"/>
</g>
<!-- types/types.d.ts -->
<g id="node11" class="node">
<title>types/types.d.ts</title>
<path fill="none" stroke="#cfffac" d="M2245.33,-924.16C2245.33,-924.16 2150.67,-924.16 2150.67,-924.16 2146.83,-924.16 2143,-920.33 2143,-916.49 2143,-916.49 2143,-908.83 2143,-908.83 2143,-904.99 2146.83,-901.16 2150.67,-901.16 2150.67,-901.16 2245.33,-901.16 2245.33,-901.16 2249.17,-901.16 2253,-904.99 2253,-908.83 2253,-908.83 2253,-916.49 2253,-916.49 2253,-920.33 2249.17,-924.16 2245.33,-924.16"/>
<text text-anchor="middle" x="2198" y="-908.96" font-family="Arial" font-size="14.00" fill="#cfffac">types/types.d.ts</text>
</g>
<!-- components/menus/RootMenu.tsx&#45;&gt;types/types.d.ts -->
<g id="edge42" class="edge">
<title>components/menus/RootMenu.tsx&#45;&gt;types/types.d.ts</title>
<path fill="none" stroke="#757575" d="M706.03,-1318.22C803.6,-1346.84 1071.24,-1418.66 1299.5,-1418.66 1299.5,-1418.66 1299.5,-1418.66 1607,-1418.66 1712.42,-1418.66 1999.47,-1450.68 2080,-1382.66 2097.84,-1367.59 2172.88,-1024.5 2192.36,-934.25"/>
<polygon fill="#757575" stroke="#757575" points="2195.82,-934.83 2194.5,-924.32 2188.97,-933.36 2195.82,-934.83"/>
</g>
<!-- components/menus/DropdownMenu.tsx -->
<g id="node27" class="node">
<title>components/menus/DropdownMenu.tsx</title>
<path fill="none" stroke="#c6c5fe" d="M2049.83,-1374.16C2049.83,-1374.16 1808.17,-1374.16 1808.17,-1374.16 1804.33,-1374.16 1800.5,-1370.33 1800.5,-1366.49 1800.5,-1366.49 1800.5,-1358.83 1800.5,-1358.83 1800.5,-1354.99 1804.33,-1351.16 1808.17,-1351.16 1808.17,-1351.16 2049.83,-1351.16 2049.83,-1351.16 2053.67,-1351.16 2057.5,-1354.99 2057.5,-1358.83 2057.5,-1358.83 2057.5,-1366.49 2057.5,-1366.49 2057.5,-1370.33 2053.67,-1374.16 2049.83,-1374.16"/>
<text text-anchor="middle" x="1929" y="-1358.96" font-family="Arial" font-size="14.00" fill="#c6c5fe">components/menus/DropdownMenu.tsx</text>
</g>
<!-- components/menus/RootMenu.tsx&#45;&gt;components/menus/DropdownMenu.tsx -->
<g id="edge40" class="edge">
<title>components/menus/RootMenu.tsx&#45;&gt;components/menus/DropdownMenu.tsx</title>
<path fill="none" stroke="#757575" d="M779.16,-1315.32C933.91,-1326.99 1223.07,-1347.35 1470,-1356.66 1577.42,-1360.71 1699.1,-1362.15 1790.03,-1362.62"/>
<polygon fill="#757575" stroke="#757575" points="1790.11,-1366.12 1800.13,-1362.67 1790.14,-1359.12 1790.11,-1366.12"/>
</g>
<!-- main/MenuConfig.ts -->
<g id="node28" class="node">
<title>main/MenuConfig.ts</title>
<path fill="none" stroke="#c6c5fe" d="M1035.33,-1245.16C1035.33,-1245.16 912.67,-1245.16 912.67,-1245.16 908.83,-1245.16 905,-1241.33 905,-1237.49 905,-1237.49 905,-1229.83 905,-1229.83 905,-1225.99 908.83,-1222.16 912.67,-1222.16 912.67,-1222.16 1035.33,-1222.16 1035.33,-1222.16 1039.17,-1222.16 1043,-1225.99 1043,-1229.83 1043,-1229.83 1043,-1237.49 1043,-1237.49 1043,-1241.33 1039.17,-1245.16 1035.33,-1245.16"/>
<text text-anchor="middle" x="974" y="-1229.96" font-family="Arial" font-size="14.00" fill="#c6c5fe">main/MenuConfig.ts</text>
</g>
<!-- components/menus/RootMenu.tsx&#45;&gt;main/MenuConfig.ts -->
<g id="edge41" class="edge">
<title>components/menus/RootMenu.tsx&#45;&gt;main/MenuConfig.ts</title>
<path fill="none" stroke="#757575" d="M716.33,-1295.09C770.2,-1282.2 857.31,-1261.35 914.86,-1247.57"/>
<polygon fill="#757575" stroke="#757575" points="915.99,-1250.9 924.9,-1245.17 914.36,-1244.1 915.99,-1250.9"/>
</g>
<!-- main/RoutePath.ts&#45;&gt;types/types.d.ts -->
<g id="edge97" class="edge">
<title>main/RoutePath.ts&#45;&gt;types/types.d.ts</title>
<path fill="none" stroke="#757575" d="M1364.76,-1115.48C1527.83,-1129.33 1958.18,-1158.3 2080,-1090.66 2142.19,-1056.13 2176.98,-972.99 2190.43,-933.79"/>
<polygon fill="#757575" stroke="#757575" points="2193.79,-934.78 2193.6,-924.18 2187.15,-932.58 2193.79,-934.78"/>
</g>
<!-- components/forms/AuthForm.tsx -->
<g id="node8" class="node">
<title>components/forms/AuthForm.tsx</title>
<path fill="none" stroke="#c6c5fe" d="M1705.33,-968.16C1705.33,-968.16 1506.67,-968.16 1506.67,-968.16 1502.83,-968.16 1499,-964.33 1499,-960.49 1499,-960.49 1499,-952.83 1499,-952.83 1499,-948.99 1502.83,-945.16 1506.67,-945.16 1506.67,-945.16 1705.33,-945.16 1705.33,-945.16 1709.17,-945.16 1713,-948.99 1713,-952.83 1713,-952.83 1713,-960.49 1713,-960.49 1713,-964.33 1709.17,-968.16 1705.33,-968.16"/>
<text text-anchor="middle" x="1606" y="-952.96" font-family="Arial" font-size="14.00" fill="#c6c5fe">components/forms/AuthForm.tsx</text>
</g>
<!-- components/forms/AuthFormConfig.tsx -->
<g id="node9" class="node">
<title>components/forms/AuthFormConfig.tsx</title>
<path fill="none" stroke="#c6c5fe" d="M2047.83,-964.16C2047.83,-964.16 1810.17,-964.16 1810.17,-964.16 1806.33,-964.16 1802.5,-960.33 1802.5,-956.49 1802.5,-956.49 1802.5,-948.83 1802.5,-948.83 1802.5,-944.99 1806.33,-941.16 1810.17,-941.16 1810.17,-941.16 2047.83,-941.16 2047.83,-941.16 2051.67,-941.16 2055.5,-944.99 2055.5,-948.83 2055.5,-948.83 2055.5,-956.49 2055.5,-956.49 2055.5,-960.33 2051.67,-964.16 2047.83,-964.16"/>
<text text-anchor="middle" x="1929" y="-948.96" font-family="Arial" font-size="14.00" fill="#c6c5fe">components/forms/AuthFormConfig.tsx</text>
</g>
<!-- components/forms/AuthForm.tsx&#45;&gt;components/forms/AuthFormConfig.tsx -->
<g id="edge5" class="edge">
<title>components/forms/AuthForm.tsx&#45;&gt;components/forms/AuthFormConfig.tsx</title>
<path fill="none" stroke="#757575" d="M1713.44,-955.33C1738.69,-955.02 1765.95,-954.68 1792.3,-954.35"/>
<polygon fill="#757575" stroke="#757575" points="1792.4,-957.85 1802.35,-954.22 1792.31,-950.85 1792.4,-957.85"/>
</g>
<!-- components/forms/FormResponseMessage.tsx -->
<g id="node10" class="node">
<title>components/forms/FormResponseMessage.tsx</title>
<path fill="none" stroke="#c6c5fe" d="M2072.33,-1082.16C2072.33,-1082.16 1785.67,-1082.16 1785.67,-1082.16 1781.83,-1082.16 1778,-1078.33 1778,-1074.49 1778,-1074.49 1778,-1066.83 1778,-1066.83 1778,-1062.99 1781.83,-1059.16 1785.67,-1059.16 1785.67,-1059.16 2072.33,-1059.16 2072.33,-1059.16 2076.17,-1059.16 2080,-1062.99 2080,-1066.83 2080,-1066.83 2080,-1074.49 2080,-1074.49 2080,-1078.33 2076.17,-1082.16 2072.33,-1082.16"/>
<text text-anchor="middle" x="1929" y="-1066.96" font-family="Arial" font-size="14.00" fill="#c6c5fe">components/forms/FormResponseMessage.tsx</text>
</g>
<!-- components/forms/AuthForm.tsx&#45;&gt;components/forms/FormResponseMessage.tsx -->
<g id="edge6" class="edge">
<title>components/forms/AuthForm.tsx&#45;&gt;components/forms/FormResponseMessage.tsx</title>
<path fill="none" stroke="#757575" d="M1639.55,-968.22C1698.07,-989 1820.99,-1032.65 1885.85,-1055.69"/>
<polygon fill="#757575" stroke="#757575" points="1884.77,-1059.02 1895.37,-1059.07 1887.12,-1052.43 1884.77,-1059.02"/>
</g>
<!-- components/forms/AuthForm.tsx&#45;&gt;types/types.d.ts -->
<g id="edge7" class="edge">
<title>components/forms/AuthForm.tsx&#45;&gt;types/types.d.ts</title>
<path fill="none" stroke="#757575" d="M1663.32,-968.16C1752.98,-984.35 1933.04,-1008.14 2080,-972.66 2114.09,-964.43 2149.39,-944.47 2172.18,-929.83"/>
<polygon fill="#757575" stroke="#757575" points="2174.13,-932.73 2180.56,-924.31 2170.28,-926.88 2174.13,-932.73"/>
</g>
<!-- components/forms/AuthFormConfig.tsx&#45;&gt;types/types.d.ts -->
<g id="edge8" class="edge">
<title>components/forms/AuthFormConfig.tsx&#45;&gt;types/types.d.ts</title>
<path fill="none" stroke="#757575" d="M2006.87,-941.14C2046.75,-935.17 2094.91,-927.95 2132.78,-922.28"/>
<polygon fill="#757575" stroke="#757575" points="2133.3,-925.74 2142.67,-920.8 2132.26,-918.82 2133.3,-925.74"/>
</g>
<!-- components/forms/FormResponseMessage.tsx&#45;&gt;types/types.d.ts -->
<g id="edge21" class="edge">
<title>components/forms/FormResponseMessage.tsx&#45;&gt;types/types.d.ts</title>
<path fill="none" stroke="#757575" d="M2044.99,-1059.06C2057.23,-1055.41 2069.15,-1050.71 2080,-1044.66 2128.51,-1017.61 2167.01,-962.63 2185.34,-932.88"/>
<polygon fill="#757575" stroke="#757575" points="2188.42,-934.54 2190.56,-924.17 2182.42,-930.94 2188.42,-934.54"/>
</g>
<!-- components/forms/AuthFormSignIn.tsx -->
<g id="node12" class="node">
<title>components/forms/AuthFormSignIn.tsx</title>
<path fill="none" stroke="#c6c5fe" d="M1092.33,-933.16C1092.33,-933.16 855.67,-933.16 855.67,-933.16 851.83,-933.16 848,-929.33 848,-925.49 848,-925.49 848,-917.83 848,-917.83 848,-913.99 851.83,-910.16 855.67,-910.16 855.67,-910.16 1092.33,-910.16 1092.33,-910.16 1096.17,-910.16 1100,-913.99 1100,-917.83 1100,-917.83 1100,-925.49 1100,-925.49 1100,-929.33 1096.17,-933.16 1092.33,-933.16"/>
<text text-anchor="middle" x="974" y="-917.96" font-family="Arial" font-size="14.00" fill="#c6c5fe">components/forms/AuthFormSignIn.tsx</text>
</g>
<!-- components/forms/AuthFormSignIn.tsx&#45;&gt;main/RoutePath.ts -->
<g id="edge11" class="edge">
<title>components/forms/AuthFormSignIn.tsx&#45;&gt;main/RoutePath.ts</title>
<path fill="none" stroke="#757575" d="M1100.38,-928.89C1111.6,-933.42 1122.07,-939.53 1131,-947.66 1177.23,-989.75 1121.37,-1040.91 1167,-1083.66 1182.95,-1098.6 1204.86,-1106.11 1226.26,-1109.62"/>
<polygon fill="#757575" stroke="#757575" points="1225.99,-1113.11 1236.37,-1110.99 1226.94,-1106.18 1225.99,-1113.11"/>
</g>
<!-- components/forms/AuthFormSignIn.tsx&#45;&gt;components/forms/AuthForm.tsx -->
<g id="edge9" class="edge">
<title>components/forms/AuthFormSignIn.tsx&#45;&gt;components/forms/AuthForm.tsx</title>
<path fill="none" stroke="#757575" d="M1100.22,-928.88C1122.47,-930.15 1145.42,-931.45 1167,-932.66 1276.09,-938.77 1400.47,-945.57 1488.75,-950.37"/>
<polygon fill="#757575" stroke="#757575" points="1488.61,-953.87 1498.79,-950.91 1488.99,-946.88 1488.61,-953.87"/>
</g>
<!-- components/forms/AuthFormSignIn.tsx&#45;&gt;components/forms/FormResponseMessage.tsx -->
<g id="edge10" class="edge">
<title>components/forms/AuthFormSignIn.tsx&#45;&gt;components/forms/FormResponseMessage.tsx</title>
<path fill="none" stroke="#757575" d="M1100.31,-922.53C1111.27,-926.08 1121.71,-930.99 1131,-937.66 1162.34,-960.16 1135.62,-994.21 1167,-1016.66 1259.91,-1083.12 1573.14,-1084.54 1767.59,-1078.39"/>
<polygon fill="#757575" stroke="#757575" points="1767.74,-1081.88 1777.62,-1078.06 1767.51,-1074.89 1767.74,-1081.88"/>
</g>
<!-- components/forms/AuthFormSignIn.tsx&#45;&gt;types/types.d.ts -->
<g id="edge13" class="edge">
<title>components/forms/AuthFormSignIn.tsx&#45;&gt;types/types.d.ts</title>
<path fill="none" stroke="#757575" d="M1100.03,-920.74C1357.45,-918.84 1938.72,-914.56 2132.65,-913.13"/>
<polygon fill="#757575" stroke="#757575" points="2132.71,-916.63 2142.69,-913.06 2132.66,-909.63 2132.71,-916.63"/>
</g>
<!-- services/AuthService.ts -->
<g id="node13" class="node">
<title>services/AuthService.ts</title>
<path fill="none" stroke="#c6c5fe" d="M1371.33,-1239.16C1371.33,-1239.16 1229.67,-1239.16 1229.67,-1239.16 1225.83,-1239.16 1222,-1235.33 1222,-1231.49 1222,-1231.49 1222,-1223.83 1222,-1223.83 1222,-1219.99 1225.83,-1216.16 1229.67,-1216.16 1229.67,-1216.16 1371.33,-1216.16 1371.33,-1216.16 1375.17,-1216.16 1379,-1219.99 1379,-1223.83 1379,-1223.83 1379,-1231.49 1379,-1231.49 1379,-1235.33 1375.17,-1239.16 1371.33,-1239.16"/>
<text text-anchor="middle" x="1300.5" y="-1223.96" font-family="Arial" font-size="14.00" fill="#c6c5fe">services/AuthService.ts</text>
</g>
<!-- components/forms/AuthFormSignIn.tsx&#45;&gt;services/AuthService.ts -->
<g id="edge12" class="edge">
<title>components/forms/AuthFormSignIn.tsx&#45;&gt;services/AuthService.ts</title>
<path fill="none" stroke="#757575" d="M1003.35,-933.19C1038.2,-948.75 1096.89,-979.68 1131,-1023.66 1161.49,-1062.98 1137.66,-1089.48 1167,-1129.66 1193.45,-1165.89 1237.2,-1194.5 1267.14,-1211.23"/>
<polygon fill="#757575" stroke="#757575" points="1265.5,-1214.32 1275.95,-1216.04 1268.85,-1208.18 1265.5,-1214.32"/>
</g>
<!-- services/AuthService.ts&#45;&gt;services/Firebase.ts -->
<g id="edge98" class="edge">
<title>services/AuthService.ts&#45;&gt;services/Firebase.ts</title>
<path fill="none" stroke="#757575" d="M1316.97,-1239.43C1366.59,-1277.2 1522,-1395.49 1581.5,-1440.78"/>
<polygon fill="#757575" stroke="#757575" points="1579.49,-1443.64 1589.56,-1446.91 1583.73,-1438.07 1579.49,-1443.64"/>
</g>
<!-- services/api/SignInServiceRest.ts -->
<g id="node52" class="node">
<title>services/api/SignInServiceRest.ts</title>
<path fill="none" stroke="#c6c5fe" d="M1706.83,-1238.16C1706.83,-1238.16 1505.17,-1238.16 1505.17,-1238.16 1501.33,-1238.16 1497.5,-1234.33 1497.5,-1230.49 1497.5,-1230.49 1497.5,-1222.83 1497.5,-1222.83 1497.5,-1218.99 1501.33,-1215.16 1505.17,-1215.16 1505.17,-1215.16 1706.83,-1215.16 1706.83,-1215.16 1710.67,-1215.16 1714.5,-1218.99 1714.5,-1222.83 1714.5,-1222.83 1714.5,-1230.49 1714.5,-1230.49 1714.5,-1234.33 1710.67,-1238.16 1706.83,-1238.16"/>
<text text-anchor="middle" x="1606" y="-1222.96" font-family="Arial" font-size="14.00" fill="#c6c5fe">services/api/SignInServiceRest.ts</text>
</g>
<!-- services/AuthService.ts&#45;&gt;services/api/SignInServiceRest.ts -->
<g id="edge99" class="edge">
<title>services/AuthService.ts&#45;&gt;services/api/SignInServiceRest.ts</title>
<path fill="none" stroke="#757575" d="M1379.26,-1227.4C1412.09,-1227.29 1451.04,-1227.17 1487.26,-1227.05"/>
<polygon fill="#757575" stroke="#757575" points="1487.41,-1230.55 1497.4,-1227.01 1487.39,-1223.55 1487.41,-1230.55"/>
</g>
<!-- components/forms/AuthFormSignUp.tsx -->
<g id="node14" class="node">
<title>components/forms/AuthFormSignUp.tsx</title>
<path fill="none" stroke="#c6c5fe" d="M1421.83,-1008.16C1421.83,-1008.16 1179.17,-1008.16 1179.17,-1008.16 1175.33,-1008.16 1171.5,-1004.33 1171.5,-1000.49 1171.5,-1000.49 1171.5,-992.83 1171.5,-992.83 1171.5,-988.99 1175.33,-985.16 1179.17,-985.16 1179.17,-985.16 1421.83,-985.16 1421.83,-985.16 1425.67,-985.16 1429.5,-988.99 1429.5,-992.83 1429.5,-992.83 1429.5,-1000.49 1429.5,-1000.49 1429.5,-1004.33 1425.67,-1008.16 1421.83,-1008.16"/>
<text text-anchor="middle" x="1300.5" y="-992.96" font-family="Arial" font-size="14.00" fill="#c6c5fe">components/forms/AuthFormSignUp.tsx</text>
</g>
<!-- components/forms/AuthFormSignUp.tsx&#45;&gt;components/forms/AuthForm.tsx -->
<g id="edge14" class="edge">
<title>components/forms/AuthFormSignUp.tsx&#45;&gt;components/forms/AuthForm.tsx</title>
<path fill="none" stroke="#757575" d="M1388.88,-985.14C1426.01,-980.25 1469.46,-974.52 1507.62,-969.49"/>
<polygon fill="#757575" stroke="#757575" points="1508.26,-972.94 1517.71,-968.16 1507.34,-966 1508.26,-972.94"/>
</g>
<!-- components/forms/AuthFormSignUp.tsx&#45;&gt;components/forms/FormResponseMessage.tsx -->
<g id="edge15" class="edge">
<title>components/forms/AuthFormSignUp.tsx&#45;&gt;components/forms/FormResponseMessage.tsx</title>
<path fill="none" stroke="#757575" d="M1399.05,-1008.18C1513.25,-1021.67 1701.82,-1043.94 1820.25,-1057.93"/>
<polygon fill="#757575" stroke="#757575" points="1820.08,-1061.44 1830.42,-1059.13 1820.9,-1054.49 1820.08,-1061.44"/>
</g>
<!-- components/forms/AuthFormSignUp.tsx&#45;&gt;types/types.d.ts -->
<g id="edge17" class="edge">
<title>components/forms/AuthFormSignUp.tsx&#45;&gt;types/types.d.ts</title>
<path fill="none" stroke="#757575" d="M1429.63,-1000.94C1634.77,-1007.15 2020.05,-1015.95 2080,-996.66 2119.68,-983.89 2157.3,-952.13 2178.71,-931.53"/>
<polygon fill="#757575" stroke="#757575" points="2181.43,-933.76 2186.09,-924.24 2176.52,-928.78 2181.43,-933.76"/>
</g>
<!-- services/RestService.ts -->
<g id="node15" class="node">
<title>services/RestService.ts</title>
<path fill="none" stroke="#c6c5fe" d="M1999.83,-1317.16C1999.83,-1317.16 1858.17,-1317.16 1858.17,-1317.16 1854.33,-1317.16 1850.5,-1313.33 1850.5,-1309.49 1850.5,-1309.49 1850.5,-1301.83 1850.5,-1301.83 1850.5,-1297.99 1854.33,-1294.16 1858.17,-1294.16 1858.17,-1294.16 1999.83,-1294.16 1999.83,-1294.16 2003.67,-1294.16 2007.5,-1297.99 2007.5,-1301.83 2007.5,-1301.83 2007.5,-1309.49 2007.5,-1309.49 2007.5,-1313.33 2003.67,-1317.16 1999.83,-1317.16"/>
<text text-anchor="middle" x="1929" y="-1301.96" font-family="Arial" font-size="14.00" fill="#c6c5fe">services/RestService.ts</text>
</g>
<!-- components/forms/AuthFormSignUp.tsx&#45;&gt;services/RestService.ts -->
<g id="edge16" class="edge">
<title>components/forms/AuthFormSignUp.tsx&#45;&gt;services/RestService.ts</title>
<path fill="none" stroke="#757575" d="M1329.47,-1008.18C1360.23,-1022.38 1408.66,-1049.52 1434,-1088.66 1481.19,-1161.54 1404.73,-1223.41 1470,-1280.66 1523.16,-1327.28 1722.94,-1321.25 1840.35,-1313.18"/>
<polygon fill="#757575" stroke="#757575" points="1840.67,-1316.67 1850.4,-1312.47 1840.18,-1309.69 1840.67,-1316.67"/>
</g>
<!-- services/RestService.ts&#45;&gt;types/types.d.ts -->
<g id="edge106" class="edge">
<title>services/RestService.ts&#45;&gt;types/types.d.ts</title>
<path fill="none" stroke="#757575" d="M2007.63,-1310.63C2033.2,-1308.43 2060.13,-1301.48 2080,-1284.66 2188.94,-1192.42 2197.8,-999.78 2197.53,-934.69"/>
<polygon fill="#757575" stroke="#757575" points="2201.03,-934.35 2197.41,-924.4 2194.03,-934.44 2201.03,-934.35"/>
</g>
<!-- services/RestService.ts&#45;&gt;types/models.d.ts -->
<g id="edge105" class="edge">
<title>services/RestService.ts&#45;&gt;types/models.d.ts</title>
<path fill="none" stroke="#757575" d="M1992.66,-1317.21C2019.93,-1323.12 2052,-1331.29 2080,-1341.66 2111.61,-1353.37 2145.68,-1371.53 2168.85,-1384.81"/>
<polygon fill="#757575" stroke="#757575" points="2167.37,-1387.99 2177.78,-1389.99 2170.89,-1381.94 2167.37,-1387.99"/>
</g>
<!-- services/products.json.ts -->
<g id="node55" class="node">
<title>services/products.json.ts</title>
<path fill="none" stroke="#cfffac" d="M2272.33,-1317.16C2272.33,-1317.16 2123.67,-1317.16 2123.67,-1317.16 2119.83,-1317.16 2116,-1313.33 2116,-1309.49 2116,-1309.49 2116,-1301.83 2116,-1301.83 2116,-1297.99 2119.83,-1294.16 2123.67,-1294.16 2123.67,-1294.16 2272.33,-1294.16 2272.33,-1294.16 2276.17,-1294.16 2280,-1297.99 2280,-1301.83 2280,-1301.83 2280,-1309.49 2280,-1309.49 2280,-1313.33 2276.17,-1317.16 2272.33,-1317.16"/>
<text text-anchor="middle" x="2198" y="-1301.96" font-family="Arial" font-size="14.00" fill="#cfffac">services/products.json.ts</text>
</g>
<!-- services/RestService.ts&#45;&gt;services/products.json.ts -->
<g id="edge104" class="edge">
<title>services/RestService.ts&#45;&gt;services/products.json.ts</title>
<path fill="none" stroke="#757575" d="M2007.59,-1305.66C2038.29,-1305.66 2073.81,-1305.66 2105.74,-1305.66"/>
<polygon fill="#757575" stroke="#757575" points="2105.97,-1309.16 2115.97,-1305.66 2105.97,-1302.16 2105.97,-1309.16"/>
</g>
<!-- components/forms/CatalogForm.tsx -->
<g id="node16" class="node">
<title>components/forms/CatalogForm.tsx</title>
<path fill="none" stroke="#c6c5fe" d="M1409.33,-76.16C1409.33,-76.16 1191.67,-76.16 1191.67,-76.16 1187.83,-76.16 1184,-72.33 1184,-68.49 1184,-68.49 1184,-60.83 1184,-60.83 1184,-56.99 1187.83,-53.16 1191.67,-53.16 1191.67,-53.16 1409.33,-53.16 1409.33,-53.16 1413.17,-53.16 1417,-56.99 1417,-60.83 1417,-60.83 1417,-68.49 1417,-68.49 1417,-72.33 1413.17,-76.16 1409.33,-76.16"/>
<text text-anchor="middle" x="1300.5" y="-60.96" font-family="Arial" font-size="14.00" fill="#c6c5fe">components/forms/CatalogForm.tsx</text>
</g>
<!-- components/forms/CatalogForm.tsx&#45;&gt;types/types.d.ts -->
<g id="edge20" class="edge">
<title>components/forms/CatalogForm.tsx&#45;&gt;types/types.d.ts</title>
<path fill="none" stroke="#757575" d="M1362.52,-53.14C1527.06,-23.59 1974.61,46.28 2080,-46.66 2145.65,-104.55 2188.02,-761.87 2195.73,-890.79"/>
<polygon fill="#757575" stroke="#757575" points="2192.25,-891.22 2196.33,-900.99 2199.24,-890.8 2192.25,-891.22"/>
</g>
<!-- components/forms/catalogFormConfig.tsx -->
<g id="node17" class="node">
<title>components/forms/catalogFormConfig.tsx</title>
<path fill="none" stroke="#c6c5fe" d="M1732.83,-76.16C1732.83,-76.16 1479.17,-76.16 1479.17,-76.16 1475.33,-76.16 1471.5,-72.33 1471.5,-68.49 1471.5,-68.49 1471.5,-60.83 1471.5,-60.83 1471.5,-56.99 1475.33,-53.16 1479.17,-53.16 1479.17,-53.16 1732.83,-53.16 1732.83,-53.16 1736.67,-53.16 1740.5,-56.99 1740.5,-60.83 1740.5,-60.83 1740.5,-68.49 1740.5,-68.49 1740.5,-72.33 1736.67,-76.16 1732.83,-76.16"/>
<text text-anchor="middle" x="1606" y="-60.96" font-family="Arial" font-size="14.00" fill="#c6c5fe">components/forms/catalogFormConfig.tsx</text>
</g>
<!-- components/forms/CatalogForm.tsx&#45;&gt;components/forms/catalogFormConfig.tsx -->
<g id="edge18" class="edge">
<title>components/forms/CatalogForm.tsx&#45;&gt;components/forms/catalogFormConfig.tsx</title>
<path fill="none" stroke="#757575" d="M1417.11,-64.66C1431.53,-64.66 1446.42,-64.66 1461.21,-64.66"/>
<polygon fill="#757575" stroke="#757575" points="1461.43,-68.16 1471.43,-64.66 1461.43,-61.16 1461.43,-68.16"/>
</g>
<!-- types/dto.d.ts -->
<g id="node18" class="node">
<title>types/dto.d.ts</title>
<path fill="none" stroke="#c6c5fe" d="M1969.83,-362.16C1969.83,-362.16 1888.17,-362.16 1888.17,-362.16 1884.33,-362.16 1880.5,-358.33 1880.5,-354.49 1880.5,-354.49 1880.5,-346.83 1880.5,-346.83 1880.5,-342.99 1884.33,-339.16 1888.17,-339.16 1888.17,-339.16 1969.83,-339.16 1969.83,-339.16 1973.67,-339.16 1977.5,-342.99 1977.5,-346.83 1977.5,-346.83 1977.5,-354.49 1977.5,-354.49 1977.5,-358.33 1973.67,-362.16 1969.83,-362.16"/>
<text text-anchor="middle" x="1929" y="-346.96" font-family="Arial" font-size="14.00" fill="#c6c5fe">types/dto.d.ts</text>
</g>
<!-- components/forms/CatalogForm.tsx&#45;&gt;types/dto.d.ts -->
<g id="edge19" class="edge">
<title>components/forms/CatalogForm.tsx&#45;&gt;types/dto.d.ts</title>
<path fill="none" stroke="#757575" d="M1372.3,-76.2C1479.95,-94.56 1678.92,-131.89 1742,-166.66 1818.97,-209.08 1885.84,-292.49 1913.91,-330.69"/>
<polygon fill="#757575" stroke="#757575" points="1911.2,-332.92 1919.9,-338.96 1916.87,-328.81 1911.2,-332.92"/>
</g>
<!-- components/forms/catalogFormConfig.tsx&#45;&gt;types/types.d.ts -->
<g id="edge28" class="edge">
<title>components/forms/catalogFormConfig.tsx&#45;&gt;types/types.d.ts</title>
<path fill="none" stroke="#757575" d="M1740.54,-53.88C1862.9,-47.14 2032.08,-46.71 2080,-90.66 2201.7,-202.27 2199.28,-772.49 2197.43,-891.05"/>
<polygon fill="#757575" stroke="#757575" points="2193.93,-891.02 2197.25,-901.08 2200.93,-891.14 2193.93,-891.02"/>
</g>
<!-- components/forms/catalogFormConfig.tsx&#45;&gt;types/dto.d.ts -->
<g id="edge27" class="edge">
<title>components/forms/catalogFormConfig.tsx&#45;&gt;types/dto.d.ts</title>
<path fill="none" stroke="#757575" d="M1641.44,-76.25C1670.16,-86.98 1711.22,-104.86 1742,-128.66 1820.41,-189.27 1888.33,-288.14 1915.44,-330.43"/>
<polygon fill="#757575" stroke="#757575" points="1912.57,-332.44 1920.88,-339.02 1918.48,-328.7 1912.57,-332.44"/>
</g>
<!-- types/dto.d.ts&#45;&gt;types/types.d.ts -->
<g id="edge110" class="edge">
<title>types/dto.d.ts&#45;&gt;types/types.d.ts</title>
<path fill="none" stroke="#757575" d="M1977.76,-352.43C2010.97,-356.25 2053.81,-366.76 2080,-394.66 2149.89,-469.11 2186.43,-802.59 2195.01,-891.06"/>
<polygon fill="#757575" stroke="#757575" points="2191.53,-891.4 2195.96,-901.03 2198.49,-890.74 2191.53,-891.4"/>
</g>
<!-- components/forms/ProductForm.tsx -->
<g id="node19" class="node">
<title>components/forms/ProductForm.tsx</title>
<path fill="none" stroke="#c6c5fe" d="M1409.33,-698.16C1409.33,-698.16 1191.67,-698.16 1191.67,-698.16 1187.83,-698.16 1184,-694.33 1184,-690.49 1184,-690.49 1184,-682.83 1184,-682.83 1184,-678.99 1187.83,-675.16 1191.67,-675.16 1191.67,-675.16 1409.33,-675.16 1409.33,-675.16 1413.17,-675.16 1417,-678.99 1417,-682.83 1417,-682.83 1417,-690.49 1417,-690.49 1417,-694.33 1413.17,-698.16 1409.33,-698.16"/>
<text text-anchor="middle" x="1300.5" y="-682.96" font-family="Arial" font-size="14.00" fill="#c6c5fe">components/forms/ProductForm.tsx</text>
</g>
<!-- components/forms/ProductForm.tsx&#45;&gt;types/types.d.ts -->
<g id="edge25" class="edge">
<title>components/forms/ProductForm.tsx&#45;&gt;types/types.d.ts</title>
<path fill="none" stroke="#757575" d="M1390.16,-698.18C1415.88,-701.25 1444.03,-704.35 1470,-706.66 1537.63,-712.66 2020.86,-709.31 2080,-742.66 2139.33,-776.12 2175.07,-853.65 2189.53,-891.33"/>
<polygon fill="#757575" stroke="#757575" points="2186.3,-892.67 2193.05,-900.83 2192.86,-890.24 2186.3,-892.67"/>
</g>
<!-- components/forms/ProductForm.tsx&#45;&gt;services/RestService.ts -->
<g id="edge23" class="edge">
<title>components/forms/ProductForm.tsx&#45;&gt;services/RestService.ts</title>
<path fill="none" stroke="#757575" d="M1308.38,-698.28C1330.66,-736.47 1401.25,-862.17 1434,-975.66 1450.85,-1034.03 1426.88,-1203.87 1470,-1246.66 1513.24,-1289.57 1681.59,-1272.82 1742,-1280.66 1774.07,-1284.82 1809.23,-1289.51 1840.27,-1293.7"/>
<polygon fill="#757575" stroke="#757575" points="1839.81,-1297.17 1850.19,-1295.04 1840.75,-1290.23 1839.81,-1297.17"/>
</g>
<!-- components/forms/ProductForm.tsx&#45;&gt;types/dto.d.ts -->
<g id="edge24" class="edge">
<title>components/forms/ProductForm.tsx&#45;&gt;types/dto.d.ts</title>
<path fill="none" stroke="#757575" d="M1393.88,-675.16C1518.69,-659.34 1727.36,-631.79 1742,-622.66 1841.23,-560.77 1900.58,-424.29 1920.47,-371.8"/>
<polygon fill="#757575" stroke="#757575" points="1923.84,-372.79 1924.02,-362.2 1917.27,-370.37 1923.84,-372.79"/>
</g>
<!-- components/forms/productFormConfig.tsx -->
<g id="node20" class="node">
<title>components/forms/productFormConfig.tsx</title>
<path fill="none" stroke="#c6c5fe" d="M1733.33,-698.16C1733.33,-698.16 1478.67,-698.16 1478.67,-698.16 1474.83,-698.16 1471,-694.33 1471,-690.49 1471,-690.49 1471,-682.83 1471,-682.83 1471,-678.99 1474.83,-675.16 1478.67,-675.16 1478.67,-675.16 1733.33,-675.16 1733.33,-675.16 1737.17,-675.16 1741,-678.99 1741,-682.83 1741,-682.83 1741,-690.49 1741,-690.49 1741,-694.33 1737.17,-698.16 1733.33,-698.16"/>
<text text-anchor="middle" x="1606" y="-682.96" font-family="Arial" font-size="14.00" fill="#c6c5fe">components/forms/productFormConfig.tsx</text>
</g>
<!-- components/forms/ProductForm.tsx&#45;&gt;components/forms/productFormConfig.tsx -->
<g id="edge22" class="edge">
<title>components/forms/ProductForm.tsx&#45;&gt;components/forms/productFormConfig.tsx</title>
<path fill="none" stroke="#757575" d="M1417.11,-686.66C1431.4,-686.66 1446.14,-686.66 1460.79,-686.66"/>
<polygon fill="#757575" stroke="#757575" points="1460.92,-690.16 1470.92,-686.66 1460.92,-683.16 1460.92,-690.16"/>
</g>
<!-- components/forms/productFormConfig.tsx&#45;&gt;types/types.d.ts -->
<g id="edge30" class="edge">
<title>components/forms/productFormConfig.tsx&#45;&gt;types/types.d.ts</title>
<path fill="none" stroke="#757575" d="M1741.23,-677.5C1860.83,-671.88 2025.16,-671.17 2080,-704.66 2149.43,-747.06 2181.19,-846.79 2192.21,-890.96"/>
<polygon fill="#757575" stroke="#757575" points="2188.86,-892 2194.58,-900.92 2195.67,-890.38 2188.86,-892"/>
</g>
<!-- components/forms/productFormConfig.tsx&#45;&gt;types/dto.d.ts -->
<g id="edge29" class="edge">
<title>components/forms/productFormConfig.tsx&#45;&gt;types/dto.d.ts</title>
<path fill="none" stroke="#757575" d="M1713.7,-675.08C1723.76,-671.4 1733.39,-666.68 1742,-660.66 1848.54,-586.14 1904.45,-429.24 1921.9,-372.08"/>
<polygon fill="#757575" stroke="#757575" points="1925.31,-372.9 1924.8,-362.31 1918.6,-370.9 1925.31,-372.9"/>
</g>
<!-- components/forms/ResetPasswordForm.tsx -->
<g id="node21" class="node">
<title>components/forms/ResetPasswordForm.tsx</title>
<path fill="none" stroke="#c6c5fe" d="M2061.83,-846.16C2061.83,-846.16 1796.17,-846.16 1796.17,-846.16 1792.33,-846.16 1788.5,-842.33 1788.5,-838.49 1788.5,-838.49 1788.5,-830.83 1788.5,-830.83 1788.5,-826.99 1792.33,-823.16 1796.17,-823.16 1796.17,-823.16 2061.83,-823.16 2061.83,-823.16 2065.67,-823.16 2069.5,-826.99 2069.5,-830.83 2069.5,-830.83 2069.5,-838.49 2069.5,-838.49 2069.5,-842.33 2065.67,-846.16 2061.83,-846.16"/>
<text text-anchor="middle" x="1929" y="-830.96" font-family="Arial" font-size="14.00" fill="#c6c5fe">components/forms/ResetPasswordForm.tsx</text>
</g>
<!-- components/forms/ResetPasswordForm.tsx&#45;&gt;types/types.d.ts -->
<g id="edge26" class="edge">
<title>components/forms/ResetPasswordForm.tsx&#45;&gt;types/types.d.ts</title>
<path fill="none" stroke="#757575" d="M2018.1,-846.2C2038.64,-849.91 2060.27,-854.67 2080,-860.66 2110.28,-869.86 2143.07,-884.91 2166.21,-896.46"/>
<polygon fill="#757575" stroke="#757575" points="2164.69,-899.61 2175.2,-901.01 2167.86,-893.37 2164.69,-899.61"/>
</g>
<!-- components/lists/CatalogList.tsx -->
<g id="node22" class="node">
<title>components/lists/CatalogList.tsx</title>
<path fill="none" stroke="#c6c5fe" d="M764.33,-266.16C764.33,-266.16 569.67,-266.16 569.67,-266.16 565.83,-266.16 562,-262.33 562,-258.49 562,-258.49 562,-250.83 562,-250.83 562,-246.99 565.83,-243.16 569.67,-243.16 569.67,-243.16 764.33,-243.16 764.33,-243.16 768.17,-243.16 772,-246.99 772,-250.83 772,-250.83 772,-258.49 772,-258.49 772,-262.33 768.17,-266.16 764.33,-266.16"/>
<text text-anchor="middle" x="667" y="-250.96" font-family="Arial" font-size="14.00" fill="#c6c5fe">components/lists/CatalogList.tsx</text>
</g>
<!-- components/lists/CatalogList.tsx&#45;&gt;main/RoutePath.ts -->
<g id="edge32" class="edge">
<title>components/lists/CatalogList.tsx&#45;&gt;main/RoutePath.ts</title>
<path fill="none" stroke="#757575" d="M676.5,-266.51C698.45,-297.83 756.99,-386.18 781,-469.66 810.07,-570.76 743.81,-866.11 817,-941.66 865.84,-992.07 1076.36,-931.61 1131,-975.66 1170.39,-1007.41 1129.01,-1050.24 1167,-1083.66 1183.26,-1097.96 1205.04,-1105.33 1226.23,-1108.9"/>
<polygon fill="#757575" stroke="#757575" points="1225.84,-1112.38 1236.23,-1110.32 1226.83,-1105.45 1225.84,-1112.38"/>
</g>
<!-- components/lists/CatalogList.tsx&#45;&gt;types/dto.d.ts -->
<g id="edge33" class="edge">
<title>components/lists/CatalogList.tsx&#45;&gt;types/dto.d.ts</title>
<path fill="none" stroke="#757575" d="M772.1,-252.76C1004.31,-249.23 1558.57,-244.99 1742,-280.66 1798.12,-291.57 1859.51,-317.68 1895.84,-334.75"/>
<polygon fill="#757575" stroke="#757575" points="1894.43,-337.95 1904.96,-339.09 1897.44,-331.63 1894.43,-337.95"/>
</g>
<!-- components/modals/MakeModalFormCatalog.tsx -->
<g id="node23" class="node">
<title>components/modals/MakeModalFormCatalog.tsx</title>
<path fill="none" stroke="#c6c5fe" d="M1123.33,-228.16C1123.33,-228.16 824.67,-228.16 824.67,-228.16 820.83,-228.16 817,-224.33 817,-220.49 817,-220.49 817,-212.83 817,-212.83 817,-208.99 820.83,-205.16 824.67,-205.16 824.67,-205.16 1123.33,-205.16 1123.33,-205.16 1127.17,-205.16 1131,-208.99 1131,-212.83 1131,-212.83 1131,-220.49 1131,-220.49 1131,-224.33 1127.17,-228.16 1123.33,-228.16"/>
<text text-anchor="middle" x="974" y="-212.96" font-family="Arial" font-size="14.00" fill="#c6c5fe">components/modals/MakeModalFormCatalog.tsx</text>
</g>
<!-- components/lists/CatalogList.tsx&#45;&gt;components/modals/MakeModalFormCatalog.tsx -->
<g id="edge31" class="edge">
<title>components/lists/CatalogList.tsx&#45;&gt;components/modals/MakeModalFormCatalog.tsx</title>
<path fill="none" stroke="#757575" d="M760.34,-243.15C795.11,-238.82 834.86,-233.87 870.51,-229.43"/>
<polygon fill="#757575" stroke="#757575" points="870.96,-232.9 880.45,-228.19 870.09,-225.95 870.96,-232.9"/>
</g>
<!-- components/modals/MakeModalFormCatalog.tsx&#45;&gt;types/types.d.ts -->
<g id="edge49" class="edge">
<title>components/modals/MakeModalFormCatalog.tsx&#45;&gt;types/types.d.ts</title>
<path fill="none" stroke="#757575" d="M1012.44,-205.1C1172.7,-158.19 1805.26,0.23 2080,-329.66 2153.8,-418.27 2187.9,-796.26 2195.38,-891.04"/>
<polygon fill="#757575" stroke="#757575" points="2191.9,-891.45 2196.16,-901.15 2198.88,-890.91 2191.9,-891.45"/>
</g>
<!-- components/modals/MakeModalFormCatalog.tsx&#45;&gt;components/forms/CatalogForm.tsx -->
<g id="edge46" class="edge">
<title>components/modals/MakeModalFormCatalog.tsx&#45;&gt;components/forms/CatalogForm.tsx</title>
<path fill="none" stroke="#757575" d="M988.39,-205.16C1018.27,-180.14 1093.53,-120.62 1167,-90.66 1178.94,-85.79 1191.86,-81.82 1204.79,-78.57"/>
<polygon fill="#757575" stroke="#757575" points="1205.74,-81.94 1214.66,-76.23 1204.13,-75.13 1205.74,-81.94"/>
</g>
<!-- components/modals/MakeModalFormCatalog.tsx&#45;&gt;types/dto.d.ts -->
<g id="edge48" class="edge">
<title>components/modals/MakeModalFormCatalog.tsx&#45;&gt;types/dto.d.ts</title>
<path fill="none" stroke="#757575" d="M1071.49,-205.15C1219.21,-190.8 1508.79,-175.61 1742,-242.66 1806.57,-261.22 1872.25,-307.04 1905.59,-332.63"/>
<polygon fill="#757575" stroke="#757575" points="1903.69,-335.59 1913.73,-338.98 1907.99,-330.07 1903.69,-335.59"/>
</g>
<!-- components/modals/MakeModalForm.tsx -->
<g id="node30" class="node">
<title>components/modals/MakeModalForm.tsx</title>
<path fill="none" stroke="#c6c5fe" d="M1426.33,-539.16C1426.33,-539.16 1174.67,-539.16 1174.67,-539.16 1170.83,-539.16 1167,-535.33 1167,-531.49 1167,-531.49 1167,-523.83 1167,-523.83 1167,-519.99 1170.83,-516.16 1174.67,-516.16 1174.67,-516.16 1426.33,-516.16 1426.33,-516.16 1430.17,-516.16 1434,-519.99 1434,-523.83 1434,-523.83 1434,-531.49 1434,-531.49 1434,-535.33 1430.17,-539.16 1426.33,-539.16"/>
<text text-anchor="middle" x="1300.5" y="-523.96" font-family="Arial" font-size="14.00" fill="#c6c5fe">components/modals/MakeModalForm.tsx</text>
</g>
<!-- components/modals/MakeModalFormCatalog.tsx&#45;&gt;components/modals/MakeModalForm.tsx -->
<g id="edge47" class="edge">
<title>components/modals/MakeModalFormCatalog.tsx&#45;&gt;components/modals/MakeModalForm.tsx</title>
<path fill="none" stroke="#757575" d="M987.32,-228.47C1036.52,-275.62 1219.08,-450.58 1279.75,-508.73"/>
<polygon fill="#757575" stroke="#757575" points="1277.52,-511.44 1287.16,-515.84 1282.37,-506.39 1277.52,-511.44"/>
</g>
<!-- components/lists/ProductList.tsx -->
<g id="node24" class="node">
<title>components/lists/ProductList.tsx</title>
<path fill="none" stroke="#c6c5fe" d="M764.33,-502.16C764.33,-502.16 569.67,-502.16 569.67,-502.16 565.83,-502.16 562,-498.33 562,-494.49 562,-494.49 562,-486.83 562,-486.83 562,-482.99 565.83,-479.16 569.67,-479.16 569.67,-479.16 764.33,-479.16 764.33,-479.16 768.17,-479.16 772,-482.99 772,-486.83 772,-486.83 772,-494.49 772,-494.49 772,-498.33 768.17,-502.16 764.33,-502.16"/>
<text text-anchor="middle" x="667" y="-486.96" font-family="Arial" font-size="14.00" fill="#c6c5fe">components/lists/ProductList.tsx</text>
</g>
<!-- components/lists/ProductList.tsx&#45;&gt;main/RoutePath.ts -->
<g id="edge35" class="edge">
<title>components/lists/ProductList.tsx&#45;&gt;main/RoutePath.ts</title>
<path fill="none" stroke="#757575" d="M675.25,-502.19C695.61,-535.15 753.57,-633.13 781,-722.66 797.64,-776.96 777.05,-935.3 817,-975.66 916.31,-1076 1013.77,-944.99 1131,-1023.66 1156.82,-1040.99 1141.55,-1065.79 1167,-1083.66 1184.23,-1095.75 1205.68,-1102.56 1226.26,-1106.31"/>
<polygon fill="#757575" stroke="#757575" points="1225.85,-1109.79 1236.28,-1107.91 1226.95,-1102.87 1225.85,-1109.79"/>
</g>
<!-- components/lists/ProductList.tsx&#45;&gt;types/types.d.ts -->
<g id="edge37" class="edge">
<title>components/lists/ProductList.tsx&#45;&gt;types/types.d.ts</title>
<path fill="none" stroke="#757575" d="M685.6,-502.31C748.02,-542.93 965.81,-678.86 1167,-734.66 1265.12,-761.87 1985.99,-774.54 2080,-813.66 2122.19,-831.21 2160.43,-869.77 2181.03,-893.25"/>
<polygon fill="#757575" stroke="#757575" points="2178.4,-895.56 2187.56,-900.87 2183.71,-891 2178.4,-895.56"/>
</g>
<!-- components/lists/ProductList.tsx&#45;&gt;types/dto.d.ts -->
<g id="edge36" class="edge">
<title>components/lists/ProductList.tsx&#45;&gt;types/dto.d.ts</title>
<path fill="none" stroke="#757575" d="M743.75,-479.11C767.21,-475.63 793.16,-471.88 817,-468.66 1106.76,-429.52 1179.14,-418.53 1470,-388.66 1613.77,-373.89 1783.38,-361 1870.29,-354.72"/>
<polygon fill="#757575" stroke="#757575" points="1870.75,-358.2 1880.47,-353.99 1870.25,-351.21 1870.75,-358.2"/>
</g>
<!-- components/modals/MakeModalFormProduct.tsx -->
<g id="node25" class="node">
<title>components/modals/MakeModalFormProduct.tsx</title>
<path fill="none" stroke="#c6c5fe" d="M1123.33,-542.16C1123.33,-542.16 824.67,-542.16 824.67,-542.16 820.83,-542.16 817,-538.33 817,-534.49 817,-534.49 817,-526.83 817,-526.83 817,-522.99 820.83,-519.16 824.67,-519.16 824.67,-519.16 1123.33,-519.16 1123.33,-519.16 1127.17,-519.16 1131,-522.99 1131,-526.83 1131,-526.83 1131,-534.49 1131,-534.49 1131,-538.33 1127.17,-542.16 1123.33,-542.16"/>
<text text-anchor="middle" x="974" y="-526.96" font-family="Arial" font-size="14.00" fill="#c6c5fe">components/modals/MakeModalFormProduct.tsx</text>
</g>
<!-- components/lists/ProductList.tsx&#45;&gt;components/modals/MakeModalFormProduct.tsx -->
<g id="edge34" class="edge">
<title>components/lists/ProductList.tsx&#45;&gt;components/modals/MakeModalFormProduct.tsx</title>
<path fill="none" stroke="#757575" d="M755.81,-502.18C793.13,-507.07 836.79,-512.8 875.14,-517.82"/>
<polygon fill="#757575" stroke="#757575" points="874.91,-521.33 885.28,-519.16 875.82,-514.38 874.91,-521.33"/>
</g>
<!-- utils/Array.ts -->
<g id="node26" class="node">
<title>utils/Array.ts</title>
<path fill="none" stroke="#cfffac" d="M1011.33,-501.16C1011.33,-501.16 936.67,-501.16 936.67,-501.16 932.83,-501.16 929,-497.33 929,-493.49 929,-493.49 929,-485.83 929,-485.83 929,-481.99 932.83,-478.16 936.67,-478.16 936.67,-478.16 1011.33,-478.16 1011.33,-478.16 1015.17,-478.16 1019,-481.99 1019,-485.83 1019,-485.83 1019,-493.49 1019,-493.49 1019,-497.33 1015.17,-501.16 1011.33,-501.16"/>
<text text-anchor="middle" x="974" y="-485.96" font-family="Arial" font-size="14.00" fill="#cfffac">utils/Array.ts</text>
</g>
<!-- components/lists/ProductList.tsx&#45;&gt;utils/Array.ts -->
<g id="edge38" class="edge">
<title>components/lists/ProductList.tsx&#45;&gt;utils/Array.ts</title>
<path fill="none" stroke="#757575" d="M772.11,-490.32C821.32,-490.16 878.04,-489.97 918.63,-489.84"/>
<polygon fill="#757575" stroke="#757575" points="918.86,-493.34 928.85,-489.8 918.83,-486.34 918.86,-493.34"/>
</g>
<!-- components/modals/MakeModalFormProduct.tsx&#45;&gt;types/types.d.ts -->
<g id="edge53" class="edge">
<title>components/modals/MakeModalFormProduct.tsx&#45;&gt;types/types.d.ts</title>
<path fill="none" stroke="#757575" d="M983.28,-542.46C1007.22,-575.47 1080.38,-668.87 1167,-706.66 1260.28,-747.36 1988.95,-735.18 2080,-780.66 2129.69,-805.48 2167.7,-861.39 2185.64,-891.87"/>
<polygon fill="#757575" stroke="#757575" points="2182.74,-893.86 2190.74,-900.81 2188.82,-890.39 2182.74,-893.86"/>
</g>
<!-- components/modals/MakeModalFormProduct.tsx&#45;&gt;types/dto.d.ts -->
<g id="edge52" class="edge">
<title>components/modals/MakeModalFormProduct.tsx&#45;&gt;types/dto.d.ts</title>
<path fill="none" stroke="#757575" d="M1067.95,-519.13C1088.73,-516.28 1110.65,-513.06 1131,-509.66 1409.39,-463.2 1739.35,-392.26 1870.3,-363.47"/>
<polygon fill="#757575" stroke="#757575" points="1871.12,-366.88 1880.13,-361.31 1869.61,-360.04 1871.12,-366.88"/>
</g>
<!-- components/modals/MakeModalFormProduct.tsx&#45;&gt;components/forms/ProductForm.tsx -->
<g id="edge50" class="edge">
<title>components/modals/MakeModalFormProduct.tsx&#45;&gt;components/forms/ProductForm.tsx</title>
<path fill="none" stroke="#757575" d="M999.13,-542.26C1056.38,-569.78 1200.58,-639.1 1266.13,-670.62"/>
<polygon fill="#757575" stroke="#757575" points="1264.69,-673.81 1275.22,-674.98 1267.72,-667.5 1264.69,-673.81"/>
</g>
<!-- components/modals/MakeModalFormProduct.tsx&#45;&gt;components/modals/MakeModalForm.tsx -->
<g id="edge51" class="edge">
<title>components/modals/MakeModalFormProduct.tsx&#45;&gt;components/modals/MakeModalForm.tsx</title>
<path fill="none" stroke="#757575" d="M1131.07,-529.22C1139.71,-529.14 1148.37,-529.06 1156.95,-528.98"/>
<polygon fill="#757575" stroke="#757575" points="1157.02,-532.48 1166.99,-528.88 1156.96,-525.48 1157.02,-532.48"/>
</g>
<!-- components/menus/DropdownMenu.tsx&#45;&gt;types/types.d.ts -->
<g id="edge39" class="edge">
<title>components/menus/DropdownMenu.tsx&#45;&gt;types/types.d.ts</title>
<path fill="none" stroke="#757575" d="M2037.26,-1351.03C2053.08,-1345.34 2068.04,-1337.22 2080,-1325.66 2138.23,-1269.39 2181.91,-1011.05 2193.78,-934.25"/>
<polygon fill="#757575" stroke="#757575" points="2197.25,-934.69 2195.3,-924.28 2190.33,-933.64 2197.25,-934.69"/>
</g>
<!-- main/MenuConfig.ts&#45;&gt;main/RoutePath.ts -->
<g id="edge95" class="edge">
<title>main/MenuConfig.ts&#45;&gt;main/RoutePath.ts</title>
<path fill="none" stroke="#757575" d="M1005.24,-1222.1C1064.05,-1199.63 1193.84,-1150.03 1259.62,-1124.9"/>
<polygon fill="#757575" stroke="#757575" points="1261.13,-1128.07 1269.22,-1121.23 1258.63,-1121.53 1261.13,-1128.07"/>
</g>
<!-- main/MenuConfig.ts&#45;&gt;types/types.d.ts -->
<g id="edge96" class="edge">
<title>main/MenuConfig.ts&#45;&gt;types/types.d.ts</title>
<path fill="none" stroke="#757575" d="M1043.24,-1222.51C1079.85,-1216.93 1125.78,-1210.54 1167,-1206.66 1268.11,-1197.13 1995.64,-1219.22 2080,-1162.66 2160.3,-1108.82 2186.7,-984.58 2194.28,-934.33"/>
<polygon fill="#757575" stroke="#757575" points="2197.77,-934.66 2195.69,-924.27 2190.84,-933.68 2197.77,-934.66"/>
</g>
<!-- components/menus/SubMenu.tsx -->
<g id="node29" class="node">
<title>components/menus/SubMenu.tsx</title>
<path fill="none" stroke="#c6c5fe" d="M768.83,-1048.16C768.83,-1048.16 565.17,-1048.16 565.17,-1048.16 561.33,-1048.16 557.5,-1044.33 557.5,-1040.49 557.5,-1040.49 557.5,-1032.83 557.5,-1032.83 557.5,-1028.99 561.33,-1025.16 565.17,-1025.16 565.17,-1025.16 768.83,-1025.16 768.83,-1025.16 772.67,-1025.16 776.5,-1028.99 776.5,-1032.83 776.5,-1032.83 776.5,-1040.49 776.5,-1040.49 776.5,-1044.33 772.67,-1048.16 768.83,-1048.16"/>
<text text-anchor="middle" x="667" y="-1032.96" font-family="Arial" font-size="14.00" fill="#c6c5fe">components/menus/SubMenu.tsx</text>
</g>
<!-- components/menus/SubMenu.tsx&#45;&gt;types/types.d.ts -->
<g id="edge43" class="edge">
<title>components/menus/SubMenu.tsx&#45;&gt;types/types.d.ts</title>
<path fill="none" stroke="#757575" d="M768.77,-1048.17C773.06,-1050.33 777.17,-1052.81 781,-1055.66 810.02,-1077.25 786.37,-1109.42 817,-1128.66 876.41,-1165.99 2020.07,-1163.16 2080,-1126.66 2151.49,-1083.11 2182.34,-979.2 2192.68,-934.13"/>
<polygon fill="#757575" stroke="#757575" points="2196.13,-934.76 2194.83,-924.24 2189.29,-933.27 2196.13,-934.76"/>
</g>
<!-- components/modals/Modal.tsx -->
<g id="node31" class="node">
<title>components/modals/Modal.tsx</title>
<path fill="none" stroke="#cfffac" d="M1698.83,-498.16C1698.83,-498.16 1513.17,-498.16 1513.17,-498.16 1509.33,-498.16 1505.5,-494.33 1505.5,-490.49 1505.5,-490.49 1505.5,-482.83 1505.5,-482.83 1505.5,-478.99 1509.33,-475.16 1513.17,-475.16 1513.17,-475.16 1698.83,-475.16 1698.83,-475.16 1702.67,-475.16 1706.5,-478.99 1706.5,-482.83 1706.5,-482.83 1706.5,-490.49 1706.5,-490.49 1706.5,-494.33 1702.67,-498.16 1698.83,-498.16"/>
<text text-anchor="middle" x="1606" y="-482.96" font-family="Arial" font-size="14.00" fill="#cfffac">components/modals/Modal.tsx</text>
</g>
<!-- components/modals/MakeModalForm.tsx&#45;&gt;components/modals/Modal.tsx -->
<g id="edge44" class="edge">
<title>components/modals/MakeModalForm.tsx&#45;&gt;components/modals/Modal.tsx</title>
<path fill="none" stroke="#757575" d="M1386.85,-516.13C1425.07,-510.97 1470.3,-504.86 1509.64,-499.54"/>
<polygon fill="#757575" stroke="#757575" points="1510.32,-502.98 1519.77,-498.17 1509.39,-496.04 1510.32,-502.98"/>
</g>
<!-- components/modals/ModalFooterForm.tsx -->
<g id="node32" class="node">
<title>components/modals/ModalFooterForm.tsx</title>
<path fill="none" stroke="#cfffac" d="M1734.33,-539.16C1734.33,-539.16 1477.67,-539.16 1477.67,-539.16 1473.83,-539.16 1470,-535.33 1470,-531.49 1470,-531.49 1470,-523.83 1470,-523.83 1470,-519.99 1473.83,-516.16 1477.67,-516.16 1477.67,-516.16 1734.33,-516.16 1734.33,-516.16 1738.17,-516.16 1742,-519.99 1742,-523.83 1742,-523.83 1742,-531.49 1742,-531.49 1742,-535.33 1738.17,-539.16 1734.33,-539.16"/>
<text text-anchor="middle" x="1606" y="-523.96" font-family="Arial" font-size="14.00" fill="#cfffac">components/modals/ModalFooterForm.tsx</text>
</g>
<!-- components/modals/MakeModalForm.tsx&#45;&gt;components/modals/ModalFooterForm.tsx -->
<g id="edge45" class="edge">
<title>components/modals/MakeModalForm.tsx&#45;&gt;components/modals/ModalFooterForm.tsx</title>
<path fill="none" stroke="#757575" d="M1434.18,-527.66C1442.66,-527.66 1451.23,-527.66 1459.76,-527.66"/>
<polygon fill="#757575" stroke="#757575" points="1459.77,-531.16 1469.77,-527.66 1459.77,-524.16 1459.77,-531.16"/>
</g>
<!-- components/modals/MakeModalFormSignUp.tsx -->
<g id="node33" class="node">
<title>components/modals/MakeModalFormSignUp.tsx</title>
<path fill="none" stroke="#c6c5fe" d="M1121.83,-892.16C1121.83,-892.16 826.17,-892.16 826.17,-892.16 822.33,-892.16 818.5,-888.33 818.5,-884.49 818.5,-884.49 818.5,-876.83 818.5,-876.83 818.5,-872.99 822.33,-869.16 826.17,-869.16 826.17,-869.16 1121.83,-869.16 1121.83,-869.16 1125.67,-869.16 1129.5,-872.99 1129.5,-876.83 1129.5,-876.83 1129.5,-884.49 1129.5,-884.49 1129.5,-888.33 1125.67,-892.16 1121.83,-892.16"/>
<text text-anchor="middle" x="974" y="-876.96" font-family="Arial" font-size="14.00" fill="#c6c5fe">components/modals/MakeModalFormSignUp.tsx</text>
</g>
<!-- components/modals/MakeModalFormSignUp.tsx&#45;&gt;components/forms/AuthFormConfig.tsx -->
<g id="edge54" class="edge">
<title>components/modals/MakeModalFormSignUp.tsx&#45;&gt;components/forms/AuthFormConfig.tsx</title>
<path fill="none" stroke="#757575" d="M1129.69,-890.86C1284.64,-901.29 1529.94,-918.37 1742,-935.66 1759.16,-937.06 1777.19,-938.61 1795.01,-940.19"/>
<polygon fill="#757575" stroke="#757575" points="1795.2,-943.72 1805.47,-941.12 1795.82,-936.74 1795.2,-943.72"/>
</g>
<!-- components/modals/MakeModalFormSignUp.tsx&#45;&gt;components/forms/AuthFormSignUp.tsx -->
<g id="edge55" class="edge">
<title>components/modals/MakeModalFormSignUp.tsx&#45;&gt;components/forms/AuthFormSignUp.tsx</title>
<path fill="none" stroke="#757575" d="M1099.89,-892.22C1110.53,-894.54 1121.03,-897.33 1131,-900.66 1186.45,-919.2 1244.22,-956.77 1275.63,-979.01"/>
<polygon fill="#757575" stroke="#757575" points="1273.61,-981.87 1283.77,-984.85 1277.69,-976.18 1273.61,-981.87"/>
</g>
<!-- components/modals/MakeModalFormSignUp.tsx&#45;&gt;components/modals/MakeModalForm.tsx -->
<g id="edge56" class="edge">
<title>components/modals/MakeModalFormSignUp.tsx&#45;&gt;components/modals/MakeModalForm.tsx</title>
<path fill="none" stroke="#757575" d="M985.26,-868.87C1013.73,-836.23 1096.28,-742.03 1167,-665.66 1206.88,-622.59 1254.84,-573.22 1280.72,-546.78"/>
<polygon fill="#757575" stroke="#757575" points="1283.51,-548.93 1288.01,-539.34 1278.51,-544.03 1283.51,-548.93"/>
</g>
<!-- components/pages/AccountPage.tsx -->
<g id="node34" class="node">
<title>components/pages/AccountPage.tsx</title>
<path fill="none" stroke="#c6c5fe" d="M502.33,-1010.16C502.33,-1010.16 281.67,-1010.16 281.67,-1010.16 277.83,-1010.16 274,-1006.33 274,-1002.49 274,-1002.49 274,-994.83 274,-994.83 274,-990.99 277.83,-987.16 281.67,-987.16 281.67,-987.16 502.33,-987.16 502.33,-987.16 506.17,-987.16 510,-990.99 510,-994.83 510,-994.83 510,-1002.49 510,-1002.49 510,-1006.33 506.17,-1010.16 502.33,-1010.16"/>
<text text-anchor="middle" x="392" y="-994.96" font-family="Arial" font-size="14.00" fill="#c6c5fe">components/pages/AccountPage.tsx</text>
</g>
<!-- components/pages/AccountPage.tsx&#45;&gt;main/MenuConfig.ts -->
<g id="edge59" class="edge">
<title>components/pages/AccountPage.tsx&#45;&gt;main/MenuConfig.ts</title>
<path fill="none" stroke="#757575" d="M510.08,-989.46C608.68,-984.24 740.02,-984.06 781,-1015.66 823.75,-1048.62 784.49,-1088.57 817,-1131.66 847.55,-1172.15 899.18,-1201.3 934.62,-1217.82"/>
<polygon fill="#757575" stroke="#757575" points="933.6,-1221.2 944.16,-1222.14 936.49,-1214.82 933.6,-1221.2"/>
</g>
<!-- components/pages/AccountPage.tsx&#45;&gt;components/menus/SubMenu.tsx -->
<g id="edge57" class="edge">
<title>components/pages/AccountPage.tsx&#45;&gt;components/menus/SubMenu.tsx</title>
<path fill="none" stroke="#757575" d="M475.65,-1010.16C506.38,-1014.44 541.44,-1019.32 573.04,-1023.72"/>
<polygon fill="#757575" stroke="#757575" points="572.77,-1027.22 583.16,-1025.13 573.74,-1020.28 572.77,-1027.22"/>
</g>
<!-- components/pages/Page.tsx -->
<g id="node35" class="node">
<title>components/pages/Page.tsx</title>
<path fill="none" stroke="#cfffac" d="M753.33,-1128.16C753.33,-1128.16 580.67,-1128.16 580.67,-1128.16 576.83,-1128.16 573,-1124.33 573,-1120.49 573,-1120.49 573,-1112.83 573,-1112.83 573,-1108.99 576.83,-1105.16 580.67,-1105.16 580.67,-1105.16 753.33,-1105.16 753.33,-1105.16 757.17,-1105.16 761,-1108.99 761,-1112.83 761,-1112.83 761,-1120.49 761,-1120.49 761,-1124.33 757.17,-1128.16 753.33,-1128.16"/>
<text text-anchor="middle" x="667" y="-1112.96" font-family="Arial" font-size="14.00" fill="#cfffac">components/pages/Page.tsx</text>
</g>
<!-- components/pages/AccountPage.tsx&#45;&gt;components/pages/Page.tsx -->
<g id="edge58" class="edge">
<title>components/pages/AccountPage.tsx&#45;&gt;components/pages/Page.tsx</title>
<path fill="none" stroke="#757575" d="M497.18,-1010.2C504.06,-1012.55 510.73,-1015.35 517,-1018.66 537.57,-1029.53 534.48,-1042.57 553,-1056.66 576.62,-1074.62 606.36,-1090.18 629.4,-1100.95"/>
<polygon fill="#757575" stroke="#757575" points="627.96,-1104.14 638.51,-1105.12 630.87,-1097.77 627.96,-1104.14"/>
</g>
<!-- components/pages/AuthPage.scss -->
<g id="node36" class="node">
<title>components/pages/AuthPage.scss</title>
<path fill="none" stroke="#cfffac" d="M1078.83,-1089.16C1078.83,-1089.16 869.17,-1089.16 869.17,-1089.16 865.33,-1089.16 861.5,-1085.33 861.5,-1081.49 861.5,-1081.49 861.5,-1073.83 861.5,-1073.83 861.5,-1069.99 865.33,-1066.16 869.17,-1066.16 869.17,-1066.16 1078.83,-1066.16 1078.83,-1066.16 1082.67,-1066.16 1086.5,-1069.99 1086.5,-1073.83 1086.5,-1073.83 1086.5,-1081.49 1086.5,-1081.49 1086.5,-1085.33 1082.67,-1089.16 1078.83,-1089.16"/>
<text text-anchor="middle" x="974" y="-1073.96" font-family="Arial" font-size="14.00" fill="#cfffac">components/pages/AuthPage.scss</text>
</g>
<!-- components/pages/AuthPage.tsx -->
<g id="node37" class="node">
<title>components/pages/AuthPage.tsx</title>
<path fill="none" stroke="#c6c5fe" d="M766.83,-911.16C766.83,-911.16 567.17,-911.16 567.17,-911.16 563.33,-911.16 559.5,-907.33 559.5,-903.49 559.5,-903.49 559.5,-895.83 559.5,-895.83 559.5,-891.99 563.33,-888.16 567.17,-888.16 567.17,-888.16 766.83,-888.16 766.83,-888.16 770.67,-888.16 774.5,-891.99 774.5,-895.83 774.5,-895.83 774.5,-903.49 774.5,-903.49 774.5,-907.33 770.67,-911.16 766.83,-911.16"/>
<text text-anchor="middle" x="667" y="-895.96" font-family="Arial" font-size="14.00" fill="#c6c5fe">components/pages/AuthPage.tsx</text>
</g>
<!-- components/pages/AuthPage.tsx&#45;&gt;components/forms/AuthFormSignIn.tsx -->
<g id="edge60" class="edge">
<title>components/pages/AuthPage.tsx&#45;&gt;components/forms/AuthFormSignIn.tsx</title>
<path fill="none" stroke="#757575" d="M774.67,-907.35C795.07,-908.82 816.66,-910.38 837.81,-911.91"/>
<polygon fill="#757575" stroke="#757575" points="837.59,-915.4 847.81,-912.63 838.09,-908.42 837.59,-915.4"/>
</g>
<!-- components/pages/AuthPage.tsx&#45;&gt;components/modals/MakeModalFormSignUp.tsx -->
<g id="edge61" class="edge">
<title>components/pages/AuthPage.tsx&#45;&gt;components/modals/MakeModalFormSignUp.tsx</title>
<path fill="none" stroke="#757575" d="M774.67,-893.01C785.64,-892.33 796.94,-891.63 808.35,-890.92"/>
<polygon fill="#757575" stroke="#757575" points="808.62,-894.41 818.38,-890.29 808.18,-887.42 808.62,-894.41"/>
</g>
<!-- components/pages/AuthPage.tsx&#45;&gt;components/pages/AuthPage.scss -->
<g id="edge62" class="edge">
<title>components/pages/AuthPage.tsx&#45;&gt;components/pages/AuthPage.scss</title>
<path fill="none" stroke="#757575" d="M723.07,-911.16C743.59,-917.9 765.61,-928.41 781,-944.66 815.5,-981.09 778.81,-1019.12 817,-1051.66 827.08,-1060.24 838.89,-1066.52 851.43,-1071.05"/>
<polygon fill="#757575" stroke="#757575" points="850.55,-1074.44 861.14,-1074.18 852.7,-1067.78 850.55,-1074.44"/>
</g>
<!-- components/pages/HomePage.tsx -->
<g id="node38" class="node">
<title>components/pages/HomePage.tsx</title>
<path fill="none" stroke="#c6c5fe" d="M496.33,-1092.16C496.33,-1092.16 287.67,-1092.16 287.67,-1092.16 283.83,-1092.16 280,-1088.33 280,-1084.49 280,-1084.49 280,-1076.83 280,-1076.83 280,-1072.99 283.83,-1069.16 287.67,-1069.16 287.67,-1069.16 496.33,-1069.16 496.33,-1069.16 500.17,-1069.16 504,-1072.99 504,-1076.83 504,-1076.83 504,-1084.49 504,-1084.49 504,-1088.33 500.17,-1092.16 496.33,-1092.16"/>
<text text-anchor="middle" x="392" y="-1076.96" font-family="Arial" font-size="14.00" fill="#c6c5fe">components/pages/HomePage.tsx</text>
</g>
<!-- components/pages/HomePage.tsx&#45;&gt;components/pages/Page.tsx -->
<g id="edge63" class="edge">
<title>components/pages/HomePage.tsx&#45;&gt;components/pages/Page.tsx</title>
<path fill="none" stroke="#757575" d="M480.51,-1092.2C508.55,-1095.9 539.77,-1100.01 568.48,-1103.8"/>
<polygon fill="#757575" stroke="#757575" points="568.15,-1107.29 578.52,-1105.12 569.07,-1100.35 568.15,-1107.29"/>
</g>
<!-- components/pages/MessagesPage.tsx -->
<g id="node39" class="node">
<title>components/pages/MessagesPage.tsx</title>
<path fill="none" stroke="#c6c5fe" d="M509.33,-1174.16C509.33,-1174.16 274.67,-1174.16 274.67,-1174.16 270.83,-1174.16 267,-1170.33 267,-1166.49 267,-1166.49 267,-1158.83 267,-1158.83 267,-1154.99 270.83,-1151.16 274.67,-1151.16 274.67,-1151.16 509.33,-1151.16 509.33,-1151.16 513.17,-1151.16 517,-1154.99 517,-1158.83 517,-1158.83 517,-1166.49 517,-1166.49 517,-1170.33 513.17,-1174.16 509.33,-1174.16"/>
<text text-anchor="middle" x="392" y="-1158.96" font-family="Arial" font-size="14.00" fill="#c6c5fe">components/pages/MessagesPage.tsx</text>
</g>
<!-- components/pages/MessagesPage.tsx&#45;&gt;components/pages/Page.tsx -->
<g id="edge64" class="edge">
<title>components/pages/MessagesPage.tsx&#45;&gt;components/pages/Page.tsx</title>
<path fill="none" stroke="#757575" d="M461.54,-1151.11C499.83,-1144.66 547.71,-1136.59 587.5,-1129.89"/>
<polygon fill="#757575" stroke="#757575" points="588.16,-1133.33 597.43,-1128.21 586.99,-1126.42 588.16,-1133.33"/>
</g>
<!-- components/pages/NotFoundPage.tsx -->
<g id="node40" class="node">
<title>components/pages/NotFoundPage.tsx</title>
<path fill="none" stroke="#cfffac" d="M507.83,-930.16C507.83,-930.16 276.17,-930.16 276.17,-930.16 272.33,-930.16 268.5,-926.33 268.5,-922.49 268.5,-922.49 268.5,-914.83 268.5,-914.83 268.5,-910.99 272.33,-907.16 276.17,-907.16 276.17,-907.16 507.83,-907.16 507.83,-907.16 511.67,-907.16 515.5,-910.99 515.5,-914.83 515.5,-914.83 515.5,-922.49 515.5,-922.49 515.5,-926.33 511.67,-930.16 507.83,-930.16"/>
<text text-anchor="middle" x="392" y="-914.96" font-family="Arial" font-size="14.00" fill="#cfffac">components/pages/NotFoundPage.tsx</text>
</g>
<!-- components/pages/SellPage.tsx -->
<g id="node41" class="node">
<title>components/pages/SellPage.tsx</title>
<path fill="none" stroke="#c6c5fe" d="M489.33,-1051.16C489.33,-1051.16 294.67,-1051.16 294.67,-1051.16 290.83,-1051.16 287,-1047.33 287,-1043.49 287,-1043.49 287,-1035.83 287,-1035.83 287,-1031.99 290.83,-1028.16 294.67,-1028.16 294.67,-1028.16 489.33,-1028.16 489.33,-1028.16 493.17,-1028.16 497,-1031.99 497,-1035.83 497,-1035.83 497,-1043.49 497,-1043.49 497,-1047.33 493.17,-1051.16 489.33,-1051.16"/>
<text text-anchor="middle" x="392" y="-1035.96" font-family="Arial" font-size="14.00" fill="#c6c5fe">components/pages/SellPage.tsx</text>
</g>
<!-- components/pages/SellPage.tsx&#45;&gt;main/MenuConfig.ts -->
<g id="edge67" class="edge">
<title>components/pages/SellPage.tsx&#45;&gt;main/MenuConfig.ts</title>
<path fill="none" stroke="#757575" d="M491.2,-1051.21C602.48,-1064.69 769.95,-1086.32 781,-1095.66 820.94,-1129.41 777.43,-1173.48 817,-1207.66 838.28,-1226.04 867.5,-1233.88 894.91,-1236.66"/>
<polygon fill="#757575" stroke="#757575" points="894.65,-1240.15 904.9,-1237.47 895.22,-1233.18 894.65,-1240.15"/>
</g>
<!-- components/pages/SellPage.tsx&#45;&gt;components/menus/SubMenu.tsx -->
<g id="edge65" class="edge">
<title>components/pages/SellPage.tsx&#45;&gt;components/menus/SubMenu.tsx</title>
<path fill="none" stroke="#757575" d="M497.38,-1038.51C513.58,-1038.33 530.43,-1038.15 546.93,-1037.97"/>
<polygon fill="#757575" stroke="#757575" points="547.19,-1041.47 557.15,-1037.86 547.11,-1034.47 547.19,-1041.47"/>
</g>
<!-- components/pages/SellPage.tsx&#45;&gt;components/pages/Page.tsx -->
<g id="edge66" class="edge">
<title>components/pages/SellPage.tsx&#45;&gt;components/pages/Page.tsx</title>
<path fill="none" stroke="#757575" d="M494.56,-1051.25C502.31,-1053.57 509.88,-1056.35 517,-1059.66 536.14,-1068.56 534.16,-1081.12 553,-1090.66 562.19,-1095.31 572.22,-1099.14 582.38,-1102.29"/>
<polygon fill="#757575" stroke="#757575" points="581.57,-1105.7 592.15,-1105.11 583.51,-1098.97 581.57,-1105.7"/>
</g>
<!-- components/views/CatalogView.tsx -->
<g id="node42" class="node">
<title>components/views/CatalogView.tsx</title>
<path fill="none" stroke="#c6c5fe" d="M498.33,-502.16C498.33,-502.16 285.67,-502.16 285.67,-502.16 281.83,-502.16 278,-498.33 278,-494.49 278,-494.49 278,-486.83 278,-486.83 278,-482.99 281.83,-479.16 285.67,-479.16 285.67,-479.16 498.33,-479.16 498.33,-479.16 502.17,-479.16 506,-482.99 506,-486.83 506,-486.83 506,-494.49 506,-494.49 506,-498.33 502.17,-502.16 498.33,-502.16"/>
<text text-anchor="middle" x="392" y="-486.96" font-family="Arial" font-size="14.00" fill="#c6c5fe">components/views/CatalogView.tsx</text>
</g>
<!-- components/views/CatalogView.tsx&#45;&gt;types/dto.d.ts -->
<g id="edge71" class="edge">
<title>components/views/CatalogView.tsx&#45;&gt;types/dto.d.ts</title>
<path fill="none" stroke="#757575" d="M408.35,-478.96C435.75,-458.74 495.61,-417.5 553,-397.66 664.98,-358.94 699.18,-373.11 817,-360.66 1089.93,-331.82 1159.58,-331.49 1434,-335.66 1591.78,-338.05 1777.82,-344.75 1870.08,-348.33"/>
<polygon fill="#757575" stroke="#757575" points="1870.19,-351.84 1880.32,-348.73 1870.47,-344.84 1870.19,-351.84"/>
</g>
<!-- components/views/CatalogView.tsx&#45;&gt;components/lists/ProductList.tsx -->
<g id="edge68" class="edge">
<title>components/views/CatalogView.tsx&#45;&gt;components/lists/ProductList.tsx</title>
<path fill="none" stroke="#757575" d="M506.01,-490.66C521.03,-490.66 536.44,-490.66 551.48,-490.66"/>
<polygon fill="#757575" stroke="#757575" points="551.82,-494.16 561.82,-490.66 551.82,-487.16 551.82,-494.16"/>
</g>
<!-- components/views/CatalogView.tsx&#45;&gt;components/modals/MakeModalFormProduct.tsx -->
<g id="edge69" class="edge">
<title>components/views/CatalogView.tsx&#45;&gt;components/modals/MakeModalFormProduct.tsx</title>
<path fill="none" stroke="#757575" d="M475.5,-502.2C500.37,-505.35 527.76,-508.48 553,-510.66 636.35,-517.84 729.25,-522.6 806.44,-525.67"/>
<polygon fill="#757575" stroke="#757575" points="806.61,-529.18 816.74,-526.07 806.88,-522.18 806.61,-529.18"/>
</g>
<!-- services/CatalogService.ts -->
<g id="node43" class="node">
<title>services/CatalogService.ts</title>
<path fill="none" stroke="#c6c5fe" d="M1380.83,-368.16C1380.83,-368.16 1220.17,-368.16 1220.17,-368.16 1216.33,-368.16 1212.5,-364.33 1212.5,-360.49 1212.5,-360.49 1212.5,-352.83 1212.5,-352.83 1212.5,-348.99 1216.33,-345.16 1220.17,-345.16 1220.17,-345.16 1380.83,-345.16 1380.83,-345.16 1384.67,-345.16 1388.5,-348.99 1388.5,-352.83 1388.5,-352.83 1388.5,-360.49 1388.5,-360.49 1388.5,-364.33 1384.67,-368.16 1380.83,-368.16"/>
<text text-anchor="middle" x="1300.5" y="-352.96" font-family="Arial" font-size="14.00" fill="#c6c5fe">services/CatalogService.ts</text>
</g>
<!-- components/views/CatalogView.tsx&#45;&gt;services/CatalogService.ts -->
<g id="edge70" class="edge">
<title>components/views/CatalogView.tsx&#45;&gt;services/CatalogService.ts</title>
<path fill="none" stroke="#757575" d="M434.74,-479.1C510.34,-458.64 675.22,-416.18 817,-394.66 949.59,-374.54 1104.39,-364.73 1202.18,-360.21"/>
<polygon fill="#757575" stroke="#757575" points="1202.51,-363.69 1212.34,-359.74 1202.19,-356.7 1202.51,-363.69"/>
</g>
<!-- services/CatalogService.ts&#45;&gt;types/types.d.ts -->
<g id="edge101" class="edge">
<title>services/CatalogService.ts&#45;&gt;types/types.d.ts</title>
<path fill="none" stroke="#757575" d="M1388.78,-367.05C1549.31,-390.81 1892.11,-464.05 2080,-670.66 2142.06,-738.9 2178.03,-846.03 2191.21,-891.31"/>
<polygon fill="#757575" stroke="#757575" points="2187.85,-892.29 2193.94,-900.96 2194.58,-890.38 2187.85,-892.29"/>
</g>
<!-- services/CatalogService.ts&#45;&gt;types/dto.d.ts -->
<g id="edge100" class="edge">
<title>services/CatalogService.ts&#45;&gt;types/dto.d.ts</title>
<path fill="none" stroke="#757575" d="M1388.61,-355.82C1518.57,-354.58 1759.73,-352.27 1870.11,-351.21"/>
<polygon fill="#757575" stroke="#757575" points="1870.41,-354.71 1880.38,-351.12 1870.35,-347.71 1870.41,-354.71"/>
</g>
<!-- components/views/CatalogsView.tsx -->
<g id="node44" class="node">
<title>components/views/CatalogsView.tsx</title>
<path fill="none" stroke="#c6c5fe" d="M501.83,-306.16C501.83,-306.16 282.17,-306.16 282.17,-306.16 278.33,-306.16 274.5,-302.33 274.5,-298.49 274.5,-298.49 274.5,-290.83 274.5,-290.83 274.5,-286.99 278.33,-283.16 282.17,-283.16 282.17,-283.16 501.83,-283.16 501.83,-283.16 505.67,-283.16 509.5,-286.99 509.5,-290.83 509.5,-290.83 509.5,-298.49 509.5,-298.49 509.5,-302.33 505.67,-306.16 501.83,-306.16"/>
<text text-anchor="middle" x="392" y="-290.96" font-family="Arial" font-size="14.00" fill="#c6c5fe">components/views/CatalogsView.tsx</text>
</g>
<!-- components/views/CatalogsView.tsx&#45;&gt;types/dto.d.ts -->
<g id="edge75" class="edge">
<title>components/views/CatalogsView.tsx&#45;&gt;types/dto.d.ts</title>
<path fill="none" stroke="#757575" d="M502.01,-283.04C507.32,-280.4 512.36,-277.3 517,-273.66 548.65,-248.86 519.38,-212.72 553,-190.66 663.45,-118.17 1627.72,-128.37 1742,-194.66 1769.56,-210.65 1755.85,-233.75 1778,-256.66 1811.34,-291.15 1859.79,-318.52 1892.53,-334.64"/>
<polygon fill="#757575" stroke="#757575" points="1891.21,-337.89 1901.73,-339.08 1894.25,-331.58 1891.21,-337.89"/>
</g>
<!-- components/views/CatalogsView.tsx&#45;&gt;components/lists/CatalogList.tsx -->
<g id="edge72" class="edge">
<title>components/views/CatalogsView.tsx&#45;&gt;components/lists/CatalogList.tsx</title>
<path fill="none" stroke="#757575" d="M471.6,-283.14C504.71,-278.29 543.41,-272.62 577.53,-267.62"/>
<polygon fill="#757575" stroke="#757575" points="578.1,-271.08 587.49,-266.16 577.08,-264.15 578.1,-271.08"/>
</g>
<!-- components/views/CatalogsView.tsx&#45;&gt;components/modals/MakeModalFormCatalog.tsx -->
<g id="edge73" class="edge">
<title>components/views/CatalogsView.tsx&#45;&gt;components/modals/MakeModalFormCatalog.tsx</title>
<path fill="none" stroke="#757575" d="M495.39,-283.07C502.92,-280.5 510.21,-277.39 517,-273.66 537.96,-262.13 531.35,-243.83 553,-233.66 666.25,-180.45 816.21,-190.89 902.9,-203.59"/>
<polygon fill="#757575" stroke="#757575" points="902.48,-207.07 912.89,-205.1 903.53,-200.14 902.48,-207.07"/>
</g>
<!-- components/views/CatalogsView.tsx&#45;&gt;services/CatalogService.ts -->
<g id="edge74" class="edge">
<title>components/views/CatalogsView.tsx&#45;&gt;services/CatalogService.ts</title>
<path fill="none" stroke="#757575" d="M509.65,-302.64C690.3,-314.99 1034.38,-338.53 1202.37,-350.02"/>
<polygon fill="#757575" stroke="#757575" points="1202.22,-353.51 1212.44,-350.7 1202.7,-346.53 1202.22,-353.51"/>
</g>
<!-- components/views/ProductView.tsx -->
<g id="node45" class="node">
<title>components/views/ProductView.tsx</title>
<path fill="none" stroke="#c6c5fe" d="M773.33,-755.16C773.33,-755.16 560.67,-755.16 560.67,-755.16 556.83,-755.16 553,-751.33 553,-747.49 553,-747.49 553,-739.83 553,-739.83 553,-735.99 556.83,-732.16 560.67,-732.16 560.67,-732.16 773.33,-732.16 773.33,-732.16 777.17,-732.16 781,-735.99 781,-739.83 781,-739.83 781,-747.49 781,-747.49 781,-751.33 777.17,-755.16 773.33,-755.16"/>
<text text-anchor="middle" x="667" y="-739.96" font-family="Arial" font-size="14.00" fill="#c6c5fe">components/views/ProductView.tsx</text>
</g>
<!-- components/views/ProductView.tsx&#45;&gt;types/types.d.ts -->
<g id="edge80" class="edge">
<title>components/views/ProductView.tsx&#45;&gt;types/types.d.ts</title>
<path fill="none" stroke="#757575" d="M685.91,-755.3C713.01,-772.24 766.65,-803.13 817,-816.66 944.96,-851.04 1877.88,-897.49 2132.79,-909.65"/>
<polygon fill="#757575" stroke="#757575" points="2132.84,-913.15 2142.99,-910.13 2133.17,-906.16 2132.84,-913.15"/>
</g>
<!-- components/views/ProductView.tsx&#45;&gt;services/RestService.ts -->
<g id="edge78" class="edge">
<title>components/views/ProductView.tsx&#45;&gt;services/RestService.ts</title>
<path fill="none" stroke="#757575" d="M680.95,-755.33C704.44,-777.2 754.11,-826.84 781,-878.66 809.61,-933.77 770.44,-972.57 817,-1013.66 922.61,-1106.87 1028.93,-959.59 1131,-1056.66 1193.6,-1116.19 1106.88,-1185.63 1167,-1247.66 1257.85,-1341.4 1659.72,-1325.2 1839.98,-1312.76"/>
<polygon fill="#757575" stroke="#757575" points="1840.49,-1316.23 1850.22,-1312.04 1840,-1309.25 1840.49,-1316.23"/>
</g>
<!-- components/views/ProductView.tsx&#45;&gt;types/dto.d.ts -->
<g id="edge79" class="edge">
<title>components/views/ProductView.tsx&#45;&gt;types/dto.d.ts</title>
<path fill="none" stroke="#757575" d="M739.84,-732.1C836.76,-716.59 1014.8,-688.35 1167,-665.66 1301.53,-645.6 1335.18,-640.65 1470,-622.66 1590.76,-606.54 1636.03,-648.76 1742,-588.66 1833.79,-536.6 1896.21,-419.32 1918.71,-371.53"/>
<polygon fill="#757575" stroke="#757575" points="1922.01,-372.73 1923.01,-362.18 1915.65,-369.8 1922.01,-372.73"/>
</g>
<!-- components/views/ProductView.tsx&#45;&gt;components/modals/MakeModalFormProduct.tsx -->
<g id="edge76" class="edge">
<title>components/views/ProductView.tsx&#45;&gt;components/modals/MakeModalFormProduct.tsx</title>
<path fill="none" stroke="#757575" d="M673.43,-732C689.73,-698.37 741.86,-600.85 817,-556.66 824.31,-552.36 832.14,-548.72 840.24,-545.64"/>
<polygon fill="#757575" stroke="#757575" points="841.58,-548.88 849.86,-542.28 839.27,-542.27 841.58,-548.88"/>
</g>
<!-- services/ProductService.ts -->
<g id="node46" class="node">
<title>services/ProductService.ts</title>
<path fill="none" stroke="#c6c5fe" d="M1686.33,-580.16C1686.33,-580.16 1525.67,-580.16 1525.67,-580.16 1521.83,-580.16 1518,-576.33 1518,-572.49 1518,-572.49 1518,-564.83 1518,-564.83 1518,-560.99 1521.83,-557.16 1525.67,-557.16 1525.67,-557.16 1686.33,-557.16 1686.33,-557.16 1690.17,-557.16 1694,-560.99 1694,-564.83 1694,-564.83 1694,-572.49 1694,-572.49 1694,-576.33 1690.17,-580.16 1686.33,-580.16"/>
<text text-anchor="middle" x="1606" y="-564.96" font-family="Arial" font-size="14.00" fill="#c6c5fe">services/ProductService.ts</text>
</g>
<!-- components/views/ProductView.tsx&#45;&gt;services/ProductService.ts -->
<g id="edge77" class="edge">
<title>components/views/ProductView.tsx&#45;&gt;services/ProductService.ts</title>
<path fill="none" stroke="#757575" d="M675.19,-731.83C694.04,-702.09 748.2,-624.5 817,-594.66 938.25,-542.08 1324.92,-554.03 1507.62,-563.07"/>
<polygon fill="#757575" stroke="#757575" points="1507.6,-566.58 1517.76,-563.58 1507.95,-559.59 1507.6,-566.58"/>
</g>
<!-- services/ProductService.ts&#45;&gt;types/dto.d.ts -->
<g id="edge103" class="edge">
<title>services/ProductService.ts&#45;&gt;types/dto.d.ts</title>
<path fill="none" stroke="#757575" d="M1694.32,-563.68C1710.79,-560.39 1727.41,-555.33 1742,-547.66 1823.68,-504.69 1889.42,-411.86 1915.67,-370.84"/>
<polygon fill="#757575" stroke="#757575" points="1918.71,-372.58 1921.07,-362.25 1912.79,-368.85 1918.71,-372.58"/>
</g>
<!-- components/views/ProfileView.tsx -->
<g id="node47" class="node">
<title>components/views/ProfileView.tsx</title>
<path fill="none" stroke="#cfffac" d="M494.33,-265.16C494.33,-265.16 289.67,-265.16 289.67,-265.16 285.83,-265.16 282,-261.33 282,-257.49 282,-257.49 282,-249.83 282,-249.83 282,-245.99 285.83,-242.16 289.67,-242.16 289.67,-242.16 494.33,-242.16 494.33,-242.16 498.17,-242.16 502,-245.99 502,-249.83 502,-249.83 502,-257.49 502,-257.49 502,-261.33 498.17,-265.16 494.33,-265.16"/>
<text text-anchor="middle" x="392" y="-249.96" font-family="Arial" font-size="14.00" fill="#cfffac">components/views/ProfileView.tsx</text>
</g>
<!-- index.css -->
<g id="node48" class="node">
<title>index.css</title>
<path fill="none" stroke="#cfffac" d="M420.83,-224.16C420.83,-224.16 363.17,-224.16 363.17,-224.16 359.33,-224.16 355.5,-220.33 355.5,-216.49 355.5,-216.49 355.5,-208.83 355.5,-208.83 355.5,-204.99 359.33,-201.16 363.17,-201.16 363.17,-201.16 420.83,-201.16 420.83,-201.16 424.67,-201.16 428.5,-204.99 428.5,-208.83 428.5,-208.83 428.5,-216.49 428.5,-216.49 428.5,-220.33 424.67,-224.16 420.83,-224.16"/>
<text text-anchor="middle" x="392" y="-208.96" font-family="Arial" font-size="14.00" fill="#cfffac">index.css</text>
</g>
<!-- index.tsx -->
<g id="node49" class="node">
<title>index.tsx</title>
<path fill="none" stroke="#c6c5fe" d="M142.83,-950.16C142.83,-950.16 88.17,-950.16 88.17,-950.16 84.33,-950.16 80.5,-946.33 80.5,-942.49 80.5,-942.49 80.5,-934.83 80.5,-934.83 80.5,-930.99 84.33,-927.16 88.17,-927.16 88.17,-927.16 142.83,-927.16 142.83,-927.16 146.67,-927.16 150.5,-930.99 150.5,-934.83 150.5,-934.83 150.5,-942.49 150.5,-942.49 150.5,-946.33 146.67,-950.16 142.83,-950.16"/>
<text text-anchor="middle" x="115.5" y="-934.96" font-family="Arial" font-size="14.00" fill="#c6c5fe">index.tsx</text>
</g>
<!-- index.tsx&#45;&gt;components/containers/App.tsx -->
<g id="edge81" class="edge">
<title>index.tsx&#45;&gt;components/containers/App.tsx</title>
<path fill="none" stroke="#757575" d="M119.84,-950.27C132,-990.18 177.85,-1122.59 267,-1182.66 270.87,-1185.27 274.96,-1187.59 279.21,-1189.65"/>
<polygon fill="#757575" stroke="#757575" points="278.16,-1193.01 288.73,-1193.76 280.94,-1186.58 278.16,-1193.01"/>
</g>
<!-- index.tsx&#45;&gt;main/RoutePath.ts -->
<g id="edge93" class="edge">
<title>index.tsx&#45;&gt;main/RoutePath.ts</title>
<path fill="none" stroke="#757575" d="M150.57,-938.75C279.29,-939.41 731.18,-944.49 781,-983.66 822.77,-1016.5 774.54,-1065.72 817,-1097.66 879.47,-1144.64 1107.14,-1129.52 1226.05,-1117.86"/>
<polygon fill="#757575" stroke="#757575" points="1226.56,-1121.33 1236.16,-1116.85 1225.86,-1114.36 1226.56,-1121.33"/>
</g>
<!-- index.tsx&#45;&gt;components/pages/AccountPage.tsx -->
<g id="edge82" class="edge">
<title>index.tsx&#45;&gt;components/pages/AccountPage.tsx</title>
<path fill="none" stroke="#757575" d="M150.54,-946.51C181.02,-953.5 226.95,-963.94 267,-972.66 285.86,-976.77 306.35,-981.11 325.15,-985.05"/>
<polygon fill="#757575" stroke="#757575" points="324.59,-988.51 335.1,-987.13 326.03,-981.66 324.59,-988.51"/>
</g>
<!-- index.tsx&#45;&gt;components/pages/AuthPage.tsx -->
<g id="edge83" class="edge">
<title>index.tsx&#45;&gt;components/pages/AuthPage.tsx</title>
<path fill="none" stroke="#757575" d="M148.87,-927.15C179,-917.08 225.4,-903.22 267,-897.66 361.32,-885.04 469.31,-886.54 549.14,-890.64"/>
<polygon fill="#757575" stroke="#757575" points="549.05,-894.14 559.22,-891.18 549.42,-887.15 549.05,-894.14"/>
</g>
<!-- index.tsx&#45;&gt;components/pages/HomePage.tsx -->
<g id="edge84" class="edge">
<title>index.tsx&#45;&gt;components/pages/HomePage.tsx</title>
<path fill="none" stroke="#757575" d="M126.85,-950.29C149.54,-974.94 206.45,-1032.44 267,-1059.66 272.42,-1062.1 278.09,-1064.25 283.9,-1066.16"/>
<polygon fill="#757575" stroke="#757575" points="283.19,-1069.6 293.78,-1069.14 285.22,-1062.9 283.19,-1069.6"/>
</g>
<!-- index.tsx&#45;&gt;components/pages/MessagesPage.tsx -->
<g id="edge85" class="edge">
<title>index.tsx&#45;&gt;components/pages/MessagesPage.tsx</title>
<path fill="none" stroke="#757575" d="M121.28,-950.28C136.54,-985.72 187.72,-1093.02 267,-1141.66 270.21,-1143.63 273.56,-1145.43 277,-1147.08"/>
<polygon fill="#757575" stroke="#757575" points="275.75,-1150.35 286.32,-1151.07 278.51,-1143.92 275.75,-1150.35"/>
</g>
<!-- index.tsx&#45;&gt;components/pages/NotFoundPage.tsx -->
<g id="edge86" class="edge">
<title>index.tsx&#45;&gt;components/pages/NotFoundPage.tsx</title>
<path fill="none" stroke="#757575" d="M150.71,-936.17C178.14,-934.17 218.5,-931.23 258.34,-928.32"/>
<polygon fill="#757575" stroke="#757575" points="258.73,-931.81 268.45,-927.59 258.23,-924.82 258.73,-931.81"/>
</g>
<!-- index.tsx&#45;&gt;components/pages/SellPage.tsx -->
<g id="edge87" class="edge">
<title>index.tsx&#45;&gt;components/pages/SellPage.tsx</title>
<path fill="none" stroke="#757575" d="M133.73,-950.21C160.86,-967.83 215.74,-1001.21 267,-1018.66 274.95,-1021.37 283.31,-1023.73 291.77,-1025.8"/>
<polygon fill="#757575" stroke="#757575" points="291.21,-1029.26 301.74,-1028.09 292.78,-1022.44 291.21,-1029.26"/>
</g>
<!-- index.tsx&#45;&gt;components/views/CatalogView.tsx -->
<g id="edge88" class="edge">
<title>index.tsx&#45;&gt;components/views/CatalogView.tsx</title>
<path fill="none" stroke="#757575" d="M123.56,-927.13C160.34,-867.11 330.1,-590.05 378.24,-511.48"/>
<polygon fill="#757575" stroke="#757575" points="381.49,-512.88 383.73,-502.52 375.52,-509.22 381.49,-512.88"/>
</g>
<!-- index.tsx&#45;&gt;components/views/CatalogsView.tsx -->
<g id="edge89" class="edge">
<title>index.tsx&#45;&gt;components/views/CatalogsView.tsx</title>
<path fill="none" stroke="#757575" d="M118.88,-926.9C130.14,-872.6 181.17,-641.38 267,-469.66 297.43,-408.77 347.64,-345.6 373.85,-314.46"/>
<polygon fill="#757575" stroke="#757575" points="376.76,-316.44 380.57,-306.55 371.43,-311.91 376.76,-316.44"/>
</g>
<!-- index.tsx&#45;&gt;components/views/ProductView.tsx -->
<g id="edge90" class="edge">
<title>index.tsx&#45;&gt;components/views/ProductView.tsx</title>
<path fill="none" stroke="#757575" d="M148.49,-927.13C178.94,-916.17 226.07,-899.23 267,-884.66 396.73,-838.46 550.38,-784.33 623.38,-758.64"/>
<polygon fill="#757575" stroke="#757575" points="624.87,-761.83 633.14,-755.21 622.54,-755.23 624.87,-761.83"/>
</g>
<!-- index.tsx&#45;&gt;components/views/ProfileView.tsx -->
<g id="edge91" class="edge">
<title>index.tsx&#45;&gt;components/views/ProfileView.tsx</title>
<path fill="none" stroke="#757575" d="M117.39,-927.13C123.82,-846.59 165.94,-368.58 267,-273.66 268.95,-271.83 270.99,-270.13 273.12,-268.55"/>
<polygon fill="#757575" stroke="#757575" points="275.18,-271.39 281.72,-263.05 271.41,-265.49 275.18,-271.39"/>
</g>
<!-- index.tsx&#45;&gt;index.css -->
<g id="edge92" class="edge">
<title>index.tsx&#45;&gt;index.css</title>
<path fill="none" stroke="#757575" d="M117.24,-926.97C122.75,-843.15 160.41,-334.03 267,-232.66 287.51,-213.16 319.09,-208.29 345.24,-208.23"/>
<polygon fill="#757575" stroke="#757575" points="345.27,-211.73 355.34,-208.43 345.41,-204.73 345.27,-211.73"/>
</g>
<!-- reportWebVitals.ts -->
<g id="node50" class="node">
<title>reportWebVitals.ts</title>
<path fill="none" stroke="#cfffac" d="M447.83,-1133.16C447.83,-1133.16 336.17,-1133.16 336.17,-1133.16 332.33,-1133.16 328.5,-1129.33 328.5,-1125.49 328.5,-1125.49 328.5,-1117.83 328.5,-1117.83 328.5,-1113.99 332.33,-1110.16 336.17,-1110.16 336.17,-1110.16 447.83,-1110.16 447.83,-1110.16 451.67,-1110.16 455.5,-1113.99 455.5,-1117.83 455.5,-1117.83 455.5,-1125.49 455.5,-1125.49 455.5,-1129.33 451.67,-1133.16 447.83,-1133.16"/>
<text text-anchor="middle" x="392" y="-1117.96" font-family="Arial" font-size="14.00" fill="#cfffac">reportWebVitals.ts</text>
</g>
<!-- index.tsx&#45;&gt;reportWebVitals.ts -->
<g id="edge94" class="edge">
<title>index.tsx&#45;&gt;reportWebVitals.ts</title>
<path fill="none" stroke="#757575" d="M123.52,-950.49C142.36,-981.09 197.41,-1063.09 267,-1100.66 282.58,-1109.07 300.73,-1114.26 318.26,-1117.42"/>
<polygon fill="#757575" stroke="#757575" points="318.06,-1120.94 328.49,-1119.06 319.17,-1114.02 318.06,-1120.94"/>
</g>
<!-- react&#45;app&#45;env.d.ts -->
<g id="node51" class="node">
<title>react&#45;app&#45;env.d.ts</title>
<path fill="none" stroke="#cfffac" d="M170.33,-1297.16C170.33,-1297.16 60.67,-1297.16 60.67,-1297.16 56.83,-1297.16 53,-1293.33 53,-1289.49 53,-1289.49 53,-1281.83 53,-1281.83 53,-1277.99 56.83,-1274.16 60.67,-1274.16 60.67,-1274.16 170.33,-1274.16 170.33,-1274.16 174.17,-1274.16 178,-1277.99 178,-1281.83 178,-1281.83 178,-1289.49 178,-1289.49 178,-1293.33 174.17,-1297.16 170.33,-1297.16"/>
<text text-anchor="middle" x="115.5" y="-1281.96" font-family="Arial" font-size="14.00" fill="#cfffac">react&#45;app&#45;env.d.ts</text>
</g>
<!-- services/api/SignInServiceRest.ts&#45;&gt;types/types.d.ts -->
<g id="edge109" class="edge">
<title>services/api/SignInServiceRest.ts&#45;&gt;types/types.d.ts</title>
<path fill="none" stroke="#757575" d="M1714.7,-1233.71C1835.97,-1239.44 2023.52,-1240.97 2080,-1200.66 2170.2,-1136.27 2190.98,-989.87 2195.67,-934.46"/>
<polygon fill="#757575" stroke="#757575" points="2199.17,-934.59 2196.42,-924.36 2192.18,-934.07 2199.17,-934.59"/>
</g>
<!-- services/api/SignInServiceRest.ts&#45;&gt;services/RestService.ts -->
<g id="edge108" class="edge">
<title>services/api/SignInServiceRest.ts&#45;&gt;services/RestService.ts</title>
<path fill="none" stroke="#757575" d="M1701.72,-1238.17C1715.63,-1241.77 1729.48,-1246.48 1742,-1252.66 1761.2,-1262.13 1758.57,-1275.68 1778,-1284.66 1797.27,-1293.56 1819.3,-1298.94 1840.43,-1302.13"/>
<polygon fill="#757575" stroke="#757575" points="1840.01,-1305.6 1850.39,-1303.48 1840.95,-1298.67 1840.01,-1305.6"/>
</g>
<!-- services/LocalData.ts -->
<g id="node54" class="node">
<title>services/LocalData.ts</title>
<path fill="none" stroke="#cfffac" d="M1993.83,-1276.16C1993.83,-1276.16 1864.17,-1276.16 1864.17,-1276.16 1860.33,-1276.16 1856.5,-1272.33 1856.5,-1268.49 1856.5,-1268.49 1856.5,-1260.83 1856.5,-1260.83 1856.5,-1256.99 1860.33,-1253.16 1864.17,-1253.16 1864.17,-1253.16 1993.83,-1253.16 1993.83,-1253.16 1997.67,-1253.16 2001.5,-1256.99 2001.5,-1260.83 2001.5,-1260.83 2001.5,-1268.49 2001.5,-1268.49 2001.5,-1272.33 1997.67,-1276.16 1993.83,-1276.16"/>
<text text-anchor="middle" x="1929" y="-1260.96" font-family="Arial" font-size="14.00" fill="#cfffac">services/LocalData.ts</text>
</g>
<!-- services/api/SignInServiceRest.ts&#45;&gt;services/LocalData.ts -->
<g id="edge107" class="edge">
<title>services/api/SignInServiceRest.ts&#45;&gt;services/LocalData.ts</title>
<path fill="none" stroke="#757575" d="M1704.18,-1238.16C1749.54,-1243.53 1802.93,-1249.85 1846.19,-1254.97"/>
<polygon fill="#757575" stroke="#757575" points="1846.04,-1258.48 1856.39,-1256.18 1846.87,-1251.53 1846.04,-1258.48"/>
</g>
<!-- setupTests.ts -->
<g id="node56" class="node">
<title>setupTests.ts</title>
<path fill="none" stroke="#cfffac" d="M155.33,-1338.16C155.33,-1338.16 75.67,-1338.16 75.67,-1338.16 71.83,-1338.16 68,-1334.33 68,-1330.49 68,-1330.49 68,-1322.83 68,-1322.83 68,-1318.99 71.83,-1315.16 75.67,-1315.16 75.67,-1315.16 155.33,-1315.16 155.33,-1315.16 159.17,-1315.16 163,-1318.99 163,-1322.83 163,-1322.83 163,-1330.49 163,-1330.49 163,-1334.33 159.17,-1338.16 155.33,-1338.16"/>
<text text-anchor="middle" x="115.5" y="-1322.96" font-family="Arial" font-size="14.00" fill="#cfffac">setupTests.ts</text>
</g>
</g>
</svg>
