<?xml version="1.0" encoding="UTF-8" standalone="no"?>
<!DOCTYPE svg PUBLIC "-//W3C//DTD SVG 1.1//EN"
 "http://www.w3.org/Graphics/SVG/1.1/DTD/svg11.dtd">
<!-- Generated by graphviz version 2.43.0 (0)
 -->
<!-- Title: G Pages: 1 -->
<svg width="2241pt" height="1471pt"
 viewBox="0.00 0.00 2241.20 1471.32" xmlns="http://www.w3.org/2000/svg" xmlns:xlink="http://www.w3.org/1999/xlink">
<g id="graph0" class="graph" transform="scale(1 1) rotate(0) translate(21.6 1449.72)">
<title>G</title>
<polygon fill="#111111" stroke="transparent" points="-21.6,21.6 -21.6,-1449.72 2219.6,-1449.72 2219.6,21.6 -21.6,21.6"/>
<!-- components/AuthContainer.tsx -->
<g id="node1" class="node">
<title>components/AuthContainer.tsx</title>
<path fill="none" stroke="#c6c5fe" d="M1367.33,-1070C1367.33,-1070 1181.67,-1070 1181.67,-1070 1177.83,-1070 1174,-1066.17 1174,-1062.33 1174,-1062.33 1174,-1054.67 1174,-1054.67 1174,-1050.83 1177.83,-1047 1181.67,-1047 1181.67,-1047 1367.33,-1047 1367.33,-1047 1371.17,-1047 1375,-1050.83 1375,-1054.67 1375,-1054.67 1375,-1062.33 1375,-1062.33 1375,-1066.17 1371.17,-1070 1367.33,-1070"/>
<text text-anchor="middle" x="1274.5" y="-1054.8" font-family="Arial" font-size="14.00" fill="#c6c5fe">components/AuthContainer.tsx</text>
</g>
<!-- services/Firebase.ts -->
<g id="node2" class="node">
<title>services/Firebase.ts</title>
<path fill="none" stroke="#c6c5fe" d="M1646.83,-1070C1646.83,-1070 1525.17,-1070 1525.17,-1070 1521.33,-1070 1517.5,-1066.17 1517.5,-1062.33 1517.5,-1062.33 1517.5,-1054.67 1517.5,-1054.67 1517.5,-1050.83 1521.33,-1047 1525.17,-1047 1525.17,-1047 1646.83,-1047 1646.83,-1047 1650.67,-1047 1654.5,-1050.83 1654.5,-1054.67 1654.5,-1054.67 1654.5,-1062.33 1654.5,-1062.33 1654.5,-1066.17 1650.67,-1070 1646.83,-1070"/>
<text text-anchor="middle" x="1586" y="-1054.8" font-family="Arial" font-size="14.00" fill="#c6c5fe">services/Firebase.ts</text>
</g>
<!-- components/AuthContainer.tsx&#45;&gt;services/Firebase.ts -->
<g id="edge1" class="edge">
<title>components/AuthContainer.tsx&#45;&gt;services/Firebase.ts</title>
<path fill="none" stroke="#757575" d="M1375.13,-1058.5C1417.89,-1058.5 1467.1,-1058.5 1507.11,-1058.5"/>
<polygon fill="#757575" stroke="#757575" points="1507.34,-1062 1517.34,-1058.5 1507.34,-1055 1507.34,-1062"/>
</g>
<!-- types/models.d.ts -->
<g id="node12" class="node">
<title>types/models.d.ts</title>
<path fill="none" stroke="#cfffac" d="M1938.83,-1011C1938.83,-1011 1832.17,-1011 1832.17,-1011 1828.33,-1011 1824.5,-1007.17 1824.5,-1003.33 1824.5,-1003.33 1824.5,-995.67 1824.5,-995.67 1824.5,-991.83 1828.33,-988 1832.17,-988 1832.17,-988 1938.83,-988 1938.83,-988 1942.67,-988 1946.5,-991.83 1946.5,-995.67 1946.5,-995.67 1946.5,-1003.33 1946.5,-1003.33 1946.5,-1007.17 1942.67,-1011 1938.83,-1011"/>
<text text-anchor="middle" x="1885.5" y="-995.8" font-family="Arial" font-size="14.00" fill="#cfffac">types/models.d.ts</text>
</g>
<!-- services/Firebase.ts&#45;&gt;types/models.d.ts -->
<g id="edge96" class="edge">
<title>services/Firebase.ts&#45;&gt;types/models.d.ts</title>
<path fill="none" stroke="#757575" d="M1647.05,-1046.95C1670.18,-1042.47 1696.82,-1037.29 1721,-1032.5 1752.9,-1026.19 1788.28,-1019.06 1817.94,-1013.05"/>
<polygon fill="#757575" stroke="#757575" points="1818.67,-1016.48 1827.77,-1011.06 1817.27,-1009.62 1818.67,-1016.48"/>
</g>
<!-- components/AuthFrom.tsx -->
<g id="node3" class="node">
<title>components/AuthFrom.tsx</title>
<path fill="none" stroke="#ff6c60" d="M1965.83,-1328C1965.83,-1328 1805.17,-1328 1805.17,-1328 1801.33,-1328 1797.5,-1324.17 1797.5,-1320.33 1797.5,-1320.33 1797.5,-1312.67 1797.5,-1312.67 1797.5,-1308.83 1801.33,-1305 1805.17,-1305 1805.17,-1305 1965.83,-1305 1965.83,-1305 1969.67,-1305 1973.5,-1308.83 1973.5,-1312.67 1973.5,-1312.67 1973.5,-1320.33 1973.5,-1320.33 1973.5,-1324.17 1969.67,-1328 1965.83,-1328"/>
<text text-anchor="middle" x="1885.5" y="-1312.8" font-family="Arial" font-size="14.00" fill="#ff6c60">components/AuthFrom.tsx</text>
</g>
<!-- components/Form.tsx -->
<g id="node4" class="node">
<title>components/Form.tsx</title>
<path fill="none" stroke="#cfffac" d="M2190.33,-1328C2190.33,-1328 2057.67,-1328 2057.67,-1328 2053.83,-1328 2050,-1324.17 2050,-1320.33 2050,-1320.33 2050,-1312.67 2050,-1312.67 2050,-1308.83 2053.83,-1305 2057.67,-1305 2057.67,-1305 2190.33,-1305 2190.33,-1305 2194.17,-1305 2198,-1308.83 2198,-1312.67 2198,-1312.67 2198,-1320.33 2198,-1320.33 2198,-1324.17 2194.17,-1328 2190.33,-1328"/>
<text text-anchor="middle" x="2124" y="-1312.8" font-family="Arial" font-size="14.00" fill="#cfffac">components/Form.tsx</text>
</g>
<!-- components/AuthFrom.tsx&#45;&gt;components/Form.tsx -->
<g id="edge2" class="edge">
<title>components/AuthFrom.tsx&#45;&gt;components/Form.tsx</title>
<path fill="none" stroke="#757575" d="M1973.56,-1316.5C1995.16,-1316.5 2018.26,-1316.5 2039.68,-1316.5"/>
<polygon fill="#757575" stroke="#757575" points="2039.72,-1320 2049.72,-1316.5 2039.72,-1313 2039.72,-1320"/>
</g>
<!-- components/FormInputGroup.tsx -->
<g id="node5" class="node">
<title>components/FormInputGroup.tsx</title>
<path fill="none" stroke="#ff6c60" d="M1686.33,-1267C1686.33,-1267 1485.67,-1267 1485.67,-1267 1481.83,-1267 1478,-1263.17 1478,-1259.33 1478,-1259.33 1478,-1251.67 1478,-1251.67 1478,-1247.83 1481.83,-1244 1485.67,-1244 1485.67,-1244 1686.33,-1244 1686.33,-1244 1690.17,-1244 1694,-1247.83 1694,-1251.67 1694,-1251.67 1694,-1259.33 1694,-1259.33 1694,-1263.17 1690.17,-1267 1686.33,-1267"/>
<text text-anchor="middle" x="1586" y="-1251.8" font-family="Arial" font-size="14.00" fill="#ff6c60">components/FormInputGroup.tsx</text>
</g>
<!-- components/AuthFrom.tsx&#45;&gt;components/FormInputGroup.tsx -->
<g id="edge3" class="edge">
<title>components/AuthFrom.tsx&#45;&gt;components/FormInputGroup.tsx</title>
<path fill="none" stroke="#757575" d="M1811.59,-1305C1783.43,-1298.34 1750.85,-1290.45 1721,-1284.5 1691.27,-1278.57 1657.51,-1273.54 1631.31,-1268.86"/>
<polygon fill="#757575" stroke="#757575" points="1631.78,-1265.39 1621.31,-1267.01 1630.51,-1272.27 1631.78,-1265.39"/>
</g>
<!-- components/FormInputGroup.tsx&#45;&gt;components/AuthFrom.tsx -->
<g id="edge4" class="edge">
<title>components/FormInputGroup.tsx&#45;&gt;components/AuthFrom.tsx</title>
<path fill="none" stroke="#757575" d="M1694.31,-1261.59C1703.36,-1263.12 1712.35,-1264.77 1721,-1266.5 1768.2,-1275.92 1822.25,-1290.16 1854.85,-1301.53"/>
<polygon fill="#757575" stroke="#757575" points="1853.66,-1304.82 1864.25,-1304.95 1856.06,-1298.24 1853.66,-1304.82"/>
</g>
<!-- components/FormInputGroup.scss -->
<g id="node6" class="node">
<title>components/FormInputGroup.scss</title>
<path fill="none" stroke="#cfffac" d="M1990.83,-1267C1990.83,-1267 1780.17,-1267 1780.17,-1267 1776.33,-1267 1772.5,-1263.17 1772.5,-1259.33 1772.5,-1259.33 1772.5,-1251.67 1772.5,-1251.67 1772.5,-1247.83 1776.33,-1244 1780.17,-1244 1780.17,-1244 1990.83,-1244 1990.83,-1244 1994.67,-1244 1998.5,-1247.83 1998.5,-1251.67 1998.5,-1251.67 1998.5,-1259.33 1998.5,-1259.33 1998.5,-1263.17 1994.67,-1267 1990.83,-1267"/>
<text text-anchor="middle" x="1885.5" y="-1251.8" font-family="Arial" font-size="14.00" fill="#cfffac">components/FormInputGroup.scss</text>
</g>
<!-- components/FormInputGroup.tsx&#45;&gt;components/FormInputGroup.scss -->
<g id="edge5" class="edge">
<title>components/FormInputGroup.tsx&#45;&gt;components/FormInputGroup.scss</title>
<path fill="none" stroke="#757575" d="M1694.4,-1255.5C1716.41,-1255.5 1739.74,-1255.5 1762.23,-1255.5"/>
<polygon fill="#757575" stroke="#757575" points="1762.49,-1259 1772.49,-1255.5 1762.49,-1252 1762.49,-1259"/>
</g>
<!-- components/Friends.tsx -->
<g id="node7" class="node">
<title>components/Friends.tsx</title>
<path fill="none" stroke="#cfffac" d="M188.33,-400C188.33,-400 42.67,-400 42.67,-400 38.83,-400 35,-396.17 35,-392.33 35,-392.33 35,-384.67 35,-384.67 35,-380.83 38.83,-377 42.67,-377 42.67,-377 188.33,-377 188.33,-377 192.17,-377 196,-380.83 196,-384.67 196,-384.67 196,-392.33 196,-392.33 196,-396.17 192.17,-400 188.33,-400"/>
<text text-anchor="middle" x="115.5" y="-384.8" font-family="Arial" font-size="14.00" fill="#cfffac">components/Friends.tsx</text>
</g>
<!-- components/ModalForm.scss -->
<g id="node8" class="node">
<title>components/ModalForm.scss</title>
<path fill="none" stroke="#cfffac" d="M1675.83,-1111C1675.83,-1111 1496.17,-1111 1496.17,-1111 1492.33,-1111 1488.5,-1107.17 1488.5,-1103.33 1488.5,-1103.33 1488.5,-1095.67 1488.5,-1095.67 1488.5,-1091.83 1492.33,-1088 1496.17,-1088 1496.17,-1088 1675.83,-1088 1675.83,-1088 1679.67,-1088 1683.5,-1091.83 1683.5,-1095.67 1683.5,-1095.67 1683.5,-1103.33 1683.5,-1103.33 1683.5,-1107.17 1679.67,-1111 1675.83,-1111"/>
<text text-anchor="middle" x="1586" y="-1095.8" font-family="Arial" font-size="14.00" fill="#cfffac">components/ModalForm.scss</text>
</g>
<!-- components/ModalForm.tsx -->
<g id="node9" class="node">
<title>components/ModalForm.tsx</title>
<path fill="none" stroke="#c6c5fe" d="M1359.33,-1111C1359.33,-1111 1189.67,-1111 1189.67,-1111 1185.83,-1111 1182,-1107.17 1182,-1103.33 1182,-1103.33 1182,-1095.67 1182,-1095.67 1182,-1091.83 1185.83,-1088 1189.67,-1088 1189.67,-1088 1359.33,-1088 1359.33,-1088 1363.17,-1088 1367,-1091.83 1367,-1095.67 1367,-1095.67 1367,-1103.33 1367,-1103.33 1367,-1107.17 1363.17,-1111 1359.33,-1111"/>
<text text-anchor="middle" x="1274.5" y="-1095.8" font-family="Arial" font-size="14.00" fill="#c6c5fe">components/ModalForm.tsx</text>
</g>
<!-- components/ModalForm.tsx&#45;&gt;components/ModalForm.scss -->
<g id="edge6" class="edge">
<title>components/ModalForm.tsx&#45;&gt;components/ModalForm.scss</title>
<path fill="none" stroke="#757575" d="M1367.1,-1099.5C1401.97,-1099.5 1442,-1099.5 1478.16,-1099.5"/>
<polygon fill="#757575" stroke="#757575" points="1478.25,-1103 1488.25,-1099.5 1478.25,-1096 1478.25,-1103"/>
</g>
<!-- components/ProductForm.tsx -->
<g id="node10" class="node">
<title>components/ProductForm.tsx</title>
<path fill="none" stroke="#c6c5fe" d="M1363.83,-1152C1363.83,-1152 1185.17,-1152 1185.17,-1152 1181.33,-1152 1177.5,-1148.17 1177.5,-1144.33 1177.5,-1144.33 1177.5,-1136.67 1177.5,-1136.67 1177.5,-1132.83 1181.33,-1129 1185.17,-1129 1185.17,-1129 1363.83,-1129 1363.83,-1129 1367.67,-1129 1371.5,-1132.83 1371.5,-1136.67 1371.5,-1136.67 1371.5,-1144.33 1371.5,-1144.33 1371.5,-1148.17 1367.67,-1152 1363.83,-1152"/>
<text text-anchor="middle" x="1274.5" y="-1136.8" font-family="Arial" font-size="14.00" fill="#c6c5fe">components/ProductForm.tsx</text>
</g>
<!-- components/ProductForm.tsx&#45;&gt;components/Form.tsx -->
<g id="edge7" class="edge">
<title>components/ProductForm.tsx&#45;&gt;components/Form.tsx</title>
<path fill="none" stroke="#757575" d="M1371.62,-1147.62C1565.04,-1162.18 1985.32,-1195.13 2014,-1208.5 2055.93,-1228.05 2091.14,-1270.78 2109.44,-1296.24"/>
<polygon fill="#757575" stroke="#757575" points="2106.8,-1298.58 2115.4,-1304.77 2112.54,-1294.56 2106.8,-1298.58"/>
</g>
<!-- components/ProductForm.tsx&#45;&gt;components/FormInputGroup.tsx -->
<g id="edge8" class="edge">
<title>components/ProductForm.tsx&#45;&gt;components/FormInputGroup.tsx</title>
<path fill="none" stroke="#757575" d="M1306.59,-1152.05C1362.9,-1172.98 1481.73,-1217.13 1544.37,-1240.4"/>
<polygon fill="#757575" stroke="#757575" points="1543.33,-1243.75 1553.93,-1243.95 1545.77,-1237.19 1543.33,-1243.75"/>
</g>
<!-- services/RestService.ts -->
<g id="node11" class="node">
<title>services/RestService.ts</title>
<path fill="none" stroke="#c6c5fe" d="M1656.83,-873C1656.83,-873 1515.17,-873 1515.17,-873 1511.33,-873 1507.5,-869.17 1507.5,-865.33 1507.5,-865.33 1507.5,-857.67 1507.5,-857.67 1507.5,-853.83 1511.33,-850 1515.17,-850 1515.17,-850 1656.83,-850 1656.83,-850 1660.67,-850 1664.5,-853.83 1664.5,-857.67 1664.5,-857.67 1664.5,-865.33 1664.5,-865.33 1664.5,-869.17 1660.67,-873 1656.83,-873"/>
<text text-anchor="middle" x="1586" y="-857.8" font-family="Arial" font-size="14.00" fill="#c6c5fe">services/RestService.ts</text>
</g>
<!-- components/ProductForm.tsx&#45;&gt;services/RestService.ts -->
<g id="edge9" class="edge">
<title>components/ProductForm.tsx&#45;&gt;services/RestService.ts</title>
<path fill="none" stroke="#757575" d="M1371.64,-1142.2C1387.85,-1138.27 1403.22,-1131.27 1415,-1119.5 1490.67,-1043.88 1375.28,-957.07 1451,-881.5 1463.39,-869.14 1479.89,-862.27 1497.07,-858.75"/>
<polygon fill="#757575" stroke="#757575" points="1497.96,-862.15 1507.24,-857.05 1496.8,-855.25 1497.96,-862.15"/>
</g>
<!-- components/ProductForm.tsx&#45;&gt;types/models.d.ts -->
<g id="edge10" class="edge">
<title>components/ProductForm.tsx&#45;&gt;types/models.d.ts</title>
<path fill="none" stroke="#757575" d="M1371.55,-1151.63C1463.9,-1158.76 1606.03,-1160.18 1721,-1119.5 1781.38,-1098.13 1838.5,-1046.55 1866.51,-1018.47"/>
<polygon fill="#757575" stroke="#757575" points="1869.12,-1020.81 1873.62,-1011.22 1864.12,-1015.91 1869.12,-1020.81"/>
</g>
<!-- services/RestService.ts&#45;&gt;types/models.d.ts -->
<g id="edge98" class="edge">
<title>services/RestService.ts&#45;&gt;types/models.d.ts</title>
<path fill="none" stroke="#757575" d="M1664.51,-866.69C1683.46,-869.68 1703.35,-874.32 1721,-881.5 1779.38,-905.27 1836.53,-953.98 1865.29,-980.79"/>
<polygon fill="#757575" stroke="#757575" points="1862.96,-983.4 1872.63,-987.73 1867.77,-978.32 1862.96,-983.4"/>
</g>
<!-- services/products.json.ts -->
<g id="node56" class="node">
<title>services/products.json.ts</title>
<path fill="none" stroke="#cfffac" d="M1959.83,-873C1959.83,-873 1811.17,-873 1811.17,-873 1807.33,-873 1803.5,-869.17 1803.5,-865.33 1803.5,-865.33 1803.5,-857.67 1803.5,-857.67 1803.5,-853.83 1807.33,-850 1811.17,-850 1811.17,-850 1959.83,-850 1959.83,-850 1963.67,-850 1967.5,-853.83 1967.5,-857.67 1967.5,-857.67 1967.5,-865.33 1967.5,-865.33 1967.5,-869.17 1963.67,-873 1959.83,-873"/>
<text text-anchor="middle" x="1885.5" y="-857.8" font-family="Arial" font-size="14.00" fill="#cfffac">services/products.json.ts</text>
</g>
<!-- services/RestService.ts&#45;&gt;services/products.json.ts -->
<g id="edge97" class="edge">
<title>services/RestService.ts&#45;&gt;services/products.json.ts</title>
<path fill="none" stroke="#757575" d="M1664.78,-861.5C1704.14,-861.5 1752.17,-861.5 1793.27,-861.5"/>
<polygon fill="#757575" stroke="#757575" points="1793.28,-865 1803.28,-861.5 1793.28,-858 1793.28,-865"/>
</g>
<!-- components/ProductFormModal.tsx -->
<g id="node13" class="node">
<title>components/ProductFormModal.tsx</title>
<path fill="none" stroke="#c6c5fe" d="M1065.83,-1111C1065.83,-1111 849.17,-1111 849.17,-1111 845.33,-1111 841.5,-1107.17 841.5,-1103.33 841.5,-1103.33 841.5,-1095.67 841.5,-1095.67 841.5,-1091.83 845.33,-1088 849.17,-1088 849.17,-1088 1065.83,-1088 1065.83,-1088 1069.67,-1088 1073.5,-1091.83 1073.5,-1095.67 1073.5,-1095.67 1073.5,-1103.33 1073.5,-1103.33 1073.5,-1107.17 1069.67,-1111 1065.83,-1111"/>
<text text-anchor="middle" x="957.5" y="-1095.8" font-family="Arial" font-size="14.00" fill="#c6c5fe">components/ProductFormModal.tsx</text>
</g>
<!-- components/ProductFormModal.tsx&#45;&gt;components/ModalForm.tsx -->
<g id="edge11" class="edge">
<title>components/ProductFormModal.tsx&#45;&gt;components/ModalForm.tsx</title>
<path fill="none" stroke="#757575" d="M1073.56,-1099.5C1105.75,-1099.5 1140.5,-1099.5 1171.86,-1099.5"/>
<polygon fill="#757575" stroke="#757575" points="1171.91,-1103 1181.91,-1099.5 1171.91,-1096 1171.91,-1103"/>
</g>
<!-- components/ProductFormModal.tsx&#45;&gt;components/ProductForm.tsx -->
<g id="edge12" class="edge">
<title>components/ProductFormModal.tsx&#45;&gt;components/ProductForm.tsx</title>
<path fill="none" stroke="#757575" d="M1047.08,-1111.03C1086.93,-1116.22 1134.1,-1122.36 1175.04,-1127.68"/>
<polygon fill="#757575" stroke="#757575" points="1174.67,-1131.17 1185.04,-1128.99 1175.57,-1124.22 1174.67,-1131.17"/>
</g>
<!-- components/ProductFormModal.tsx&#45;&gt;types/models.d.ts -->
<g id="edge13" class="edge">
<title>components/ProductFormModal.tsx&#45;&gt;types/models.d.ts</title>
<path fill="none" stroke="#757575" d="M983.72,-1087.97C1017.23,-1073.27 1078.68,-1048.43 1134,-1037.5 1380.36,-988.82 1680.54,-991.86 1814.32,-996.37"/>
<polygon fill="#757575" stroke="#757575" points="1814.32,-999.87 1824.44,-996.72 1814.57,-992.87 1814.32,-999.87"/>
</g>
<!-- components/ProductList.tsx -->
<g id="node14" class="node">
<title>components/ProductList.tsx</title>
<path fill="none" stroke="#c6c5fe" d="M1358.33,-933C1358.33,-933 1190.67,-933 1190.67,-933 1186.83,-933 1183,-929.17 1183,-925.33 1183,-925.33 1183,-917.67 1183,-917.67 1183,-913.83 1186.83,-910 1190.67,-910 1190.67,-910 1358.33,-910 1358.33,-910 1362.17,-910 1366,-913.83 1366,-917.67 1366,-917.67 1366,-925.33 1366,-925.33 1366,-929.17 1362.17,-933 1358.33,-933"/>
<text text-anchor="middle" x="1274.5" y="-917.8" font-family="Arial" font-size="14.00" fill="#c6c5fe">components/ProductList.tsx</text>
</g>
<!-- components/ProductList.tsx&#45;&gt;types/models.d.ts -->
<g id="edge14" class="edge">
<title>components/ProductList.tsx&#45;&gt;types/models.d.ts</title>
<path fill="none" stroke="#757575" d="M1366.27,-928.03C1456.53,-935.15 1598.78,-948.04 1721,-966.5 1755.21,-971.67 1793.11,-979.2 1823.8,-985.77"/>
<polygon fill="#757575" stroke="#757575" points="1823.4,-989.26 1833.91,-987.95 1824.88,-982.42 1823.4,-989.26"/>
</g>
<!-- utils/Array.ts -->
<g id="node15" class="node">
<title>utils/Array.ts</title>
<path fill="none" stroke="#cfffac" d="M1623.33,-914C1623.33,-914 1548.67,-914 1548.67,-914 1544.83,-914 1541,-910.17 1541,-906.33 1541,-906.33 1541,-898.67 1541,-898.67 1541,-894.83 1544.83,-891 1548.67,-891 1548.67,-891 1623.33,-891 1623.33,-891 1627.17,-891 1631,-894.83 1631,-898.67 1631,-898.67 1631,-906.33 1631,-906.33 1631,-910.17 1627.17,-914 1623.33,-914"/>
<text text-anchor="middle" x="1586" y="-898.8" font-family="Arial" font-size="14.00" fill="#cfffac">utils/Array.ts</text>
</g>
<!-- components/ProductList.tsx&#45;&gt;utils/Array.ts -->
<g id="edge15" class="edge">
<title>components/ProductList.tsx&#45;&gt;utils/Array.ts</title>
<path fill="none" stroke="#757575" d="M1366.27,-915.93C1419.55,-912.66 1485.12,-908.63 1530.5,-905.85"/>
<polygon fill="#757575" stroke="#757575" points="1530.95,-909.32 1540.72,-905.22 1530.52,-902.34 1530.95,-909.32"/>
</g>
<!-- components/containers/App.test.tsx -->
<g id="node16" class="node">
<title>components/containers/App.test.tsx</title>
<path fill="none" stroke="#c6c5fe" d="M223.33,-61C223.33,-61 7.67,-61 7.67,-61 3.83,-61 0,-57.17 0,-53.33 0,-53.33 0,-45.67 0,-45.67 0,-41.83 3.83,-38 7.67,-38 7.67,-38 223.33,-38 223.33,-38 227.17,-38 231,-41.83 231,-45.67 231,-45.67 231,-53.33 231,-53.33 231,-57.17 227.17,-61 223.33,-61"/>
<text text-anchor="middle" x="115.5" y="-45.8" font-family="Arial" font-size="14.00" fill="#c6c5fe">components/containers/App.test.tsx</text>
</g>
<!-- components/containers/App.tsx -->
<g id="node17" class="node">
<title>components/containers/App.tsx</title>
<path fill="none" stroke="#c6c5fe" d="M487.33,-61C487.33,-61 296.67,-61 296.67,-61 292.83,-61 289,-57.17 289,-53.33 289,-53.33 289,-45.67 289,-45.67 289,-41.83 292.83,-38 296.67,-38 296.67,-38 487.33,-38 487.33,-38 491.17,-38 495,-41.83 495,-45.67 495,-45.67 495,-53.33 495,-53.33 495,-57.17 491.17,-61 487.33,-61"/>
<text text-anchor="middle" x="392" y="-45.8" font-family="Arial" font-size="14.00" fill="#c6c5fe">components/containers/App.tsx</text>
</g>
<!-- components/containers/App.test.tsx&#45;&gt;components/containers/App.tsx -->
<g id="edge16" class="edge">
<title>components/containers/App.test.tsx&#45;&gt;components/containers/App.tsx</title>
<path fill="none" stroke="#757575" d="M231.32,-49.5C246.99,-49.5 263.06,-49.5 278.68,-49.5"/>
<polygon fill="#757575" stroke="#757575" points="278.87,-53 288.87,-49.5 278.87,-46 278.87,-53"/>
</g>
<!-- components/menus/RootMenu.tsx -->
<g id="node18" class="node">
<title>components/menus/RootMenu.tsx</title>
<path fill="none" stroke="#c6c5fe" d="M771.33,-61C771.33,-61 562.67,-61 562.67,-61 558.83,-61 555,-57.17 555,-53.33 555,-53.33 555,-45.67 555,-45.67 555,-41.83 558.83,-38 562.67,-38 562.67,-38 771.33,-38 771.33,-38 775.17,-38 779,-41.83 779,-45.67 779,-45.67 779,-53.33 779,-53.33 779,-57.17 775.17,-61 771.33,-61"/>
<text text-anchor="middle" x="667" y="-45.8" font-family="Arial" font-size="14.00" fill="#c6c5fe">components/menus/RootMenu.tsx</text>
</g>
<!-- components/containers/App.tsx&#45;&gt;components/menus/RootMenu.tsx -->
<g id="edge17" class="edge">
<title>components/containers/App.tsx&#45;&gt;components/menus/RootMenu.tsx</title>
<path fill="none" stroke="#757575" d="M495.04,-49.5C511.22,-49.5 528.09,-49.5 544.66,-49.5"/>
<polygon fill="#757575" stroke="#757575" points="544.93,-53 554.93,-49.5 544.93,-46 544.93,-53"/>
</g>
<!-- main/RoutePath.ts -->
<g id="node19" class="node">
<title>main/RoutePath.ts</title>
<path fill="none" stroke="#c6c5fe" d="M1330.83,-139C1330.83,-139 1218.17,-139 1218.17,-139 1214.33,-139 1210.5,-135.17 1210.5,-131.33 1210.5,-131.33 1210.5,-123.67 1210.5,-123.67 1210.5,-119.83 1214.33,-116 1218.17,-116 1218.17,-116 1330.83,-116 1330.83,-116 1334.67,-116 1338.5,-119.83 1338.5,-123.67 1338.5,-123.67 1338.5,-131.33 1338.5,-131.33 1338.5,-135.17 1334.67,-139 1330.83,-139"/>
<text text-anchor="middle" x="1274.5" y="-123.8" font-family="Arial" font-size="14.00" fill="#c6c5fe">main/RoutePath.ts</text>
</g>
<!-- components/containers/App.tsx&#45;&gt;main/RoutePath.ts -->
<g id="edge18" class="edge">
<title>components/containers/App.tsx&#45;&gt;main/RoutePath.ts</title>
<path fill="none" stroke="#757575" d="M479.7,-61.04C503.44,-64.01 529.19,-67.05 553,-69.5 568.97,-71.14 1019.86,-107.22 1200.1,-121.63"/>
<polygon fill="#757575" stroke="#757575" points="1200.03,-125.14 1210.28,-122.45 1200.59,-118.16 1200.03,-125.14"/>
</g>
<!-- types/types.d.ts -->
<g id="node23" class="node">
<title>types/types.d.ts</title>
<path fill="none" stroke="#cfffac" d="M2171.33,-293C2171.33,-293 2076.67,-293 2076.67,-293 2072.83,-293 2069,-289.17 2069,-285.33 2069,-285.33 2069,-277.67 2069,-277.67 2069,-273.83 2072.83,-270 2076.67,-270 2076.67,-270 2171.33,-270 2171.33,-270 2175.17,-270 2179,-273.83 2179,-277.67 2179,-277.67 2179,-285.33 2179,-285.33 2179,-289.17 2175.17,-293 2171.33,-293"/>
<text text-anchor="middle" x="2124" y="-277.8" font-family="Arial" font-size="14.00" fill="#cfffac">types/types.d.ts</text>
</g>
<!-- components/menus/RootMenu.tsx&#45;&gt;types/types.d.ts -->
<g id="edge40" class="edge">
<title>components/menus/RootMenu.tsx&#45;&gt;types/types.d.ts</title>
<path fill="none" stroke="#757575" d="M779.04,-50.09C900.48,-50.68 1100.84,-51.5 1273.5,-51.5 1273.5,-51.5 1273.5,-51.5 1587,-51.5 1682.17,-51.5 1933.94,-33.04 2014,-84.5 2077.97,-125.62 2107.67,-218.03 2118.23,-260.01"/>
<polygon fill="#757575" stroke="#757575" points="2114.84,-260.85 2120.57,-269.76 2121.64,-259.22 2114.84,-260.85"/>
</g>
<!-- components/menus/DropdownMenu.tsx -->
<g id="node30" class="node">
<title>components/menus/DropdownMenu.tsx</title>
<path fill="none" stroke="#c6c5fe" d="M2006.33,-23C2006.33,-23 1764.67,-23 1764.67,-23 1760.83,-23 1757,-19.17 1757,-15.33 1757,-15.33 1757,-7.67 1757,-7.67 1757,-3.83 1760.83,0 1764.67,0 1764.67,0 2006.33,0 2006.33,0 2010.17,0 2014,-3.83 2014,-7.67 2014,-7.67 2014,-15.33 2014,-15.33 2014,-19.17 2010.17,-23 2006.33,-23"/>
<text text-anchor="middle" x="1885.5" y="-7.8" font-family="Arial" font-size="14.00" fill="#c6c5fe">components/menus/DropdownMenu.tsx</text>
</g>
<!-- components/menus/RootMenu.tsx&#45;&gt;components/menus/DropdownMenu.tsx -->
<g id="edge38" class="edge">
<title>components/menus/RootMenu.tsx&#45;&gt;components/menus/DropdownMenu.tsx</title>
<path fill="none" stroke="#757575" d="M779.02,-39.87C791.82,-38.96 804.69,-38.15 817,-37.5 1150.39,-20.03 1542.98,-14.27 1746.51,-12.39"/>
<polygon fill="#757575" stroke="#757575" points="1746.68,-15.89 1756.65,-12.3 1746.62,-8.89 1746.68,-15.89"/>
</g>
<!-- main/MenuConfig.ts -->
<g id="node31" class="node">
<title>main/MenuConfig.ts</title>
<path fill="none" stroke="#c6c5fe" d="M1018.83,-179C1018.83,-179 896.17,-179 896.17,-179 892.33,-179 888.5,-175.17 888.5,-171.33 888.5,-171.33 888.5,-163.67 888.5,-163.67 888.5,-159.83 892.33,-156 896.17,-156 896.17,-156 1018.83,-156 1018.83,-156 1022.67,-156 1026.5,-159.83 1026.5,-163.67 1026.5,-163.67 1026.5,-171.33 1026.5,-171.33 1026.5,-175.17 1022.67,-179 1018.83,-179"/>
<text text-anchor="middle" x="957.5" y="-163.8" font-family="Arial" font-size="14.00" fill="#c6c5fe">main/MenuConfig.ts</text>
</g>
<!-- components/menus/RootMenu.tsx&#45;&gt;main/MenuConfig.ts -->
<g id="edge39" class="edge">
<title>components/menus/RootMenu.tsx&#45;&gt;main/MenuConfig.ts</title>
<path fill="none" stroke="#757575" d="M696.19,-61.03C748.43,-82.4 860.31,-128.16 918.92,-152.13"/>
<polygon fill="#757575" stroke="#757575" points="917.62,-155.38 928.2,-155.92 920.27,-148.9 917.62,-155.38"/>
</g>
<!-- main/RoutePath.ts&#45;&gt;types/types.d.ts -->
<g id="edge93" class="edge">
<title>main/RoutePath.ts&#45;&gt;types/types.d.ts</title>
<path fill="none" stroke="#757575" d="M1326.28,-116C1450.93,-90.47 1778.95,-39.87 2014,-153.5 2061.46,-176.44 2096.2,-230.71 2112.55,-260.69"/>
<polygon fill="#757575" stroke="#757575" points="2109.62,-262.64 2117.38,-269.85 2115.81,-259.37 2109.62,-262.64"/>
</g>
<!-- components/forms/CatalogForm.tsx -->
<g id="node20" class="node">
<title>components/forms/CatalogForm.tsx</title>
<path fill="none" stroke="#c6c5fe" d="M1383.33,-329C1383.33,-329 1165.67,-329 1165.67,-329 1161.83,-329 1158,-325.17 1158,-321.33 1158,-321.33 1158,-313.67 1158,-313.67 1158,-309.83 1161.83,-306 1165.67,-306 1165.67,-306 1383.33,-306 1383.33,-306 1387.17,-306 1391,-309.83 1391,-313.67 1391,-313.67 1391,-321.33 1391,-321.33 1391,-325.17 1387.17,-329 1383.33,-329"/>
<text text-anchor="middle" x="1274.5" y="-313.8" font-family="Arial" font-size="14.00" fill="#c6c5fe">components/forms/CatalogForm.tsx</text>
</g>
<!-- components/forms/catalogFormConfig.tsx -->
<g id="node21" class="node">
<title>components/forms/catalogFormConfig.tsx</title>
<path fill="none" stroke="#c6c5fe" d="M1712.83,-333C1712.83,-333 1459.17,-333 1459.17,-333 1455.33,-333 1451.5,-329.17 1451.5,-325.33 1451.5,-325.33 1451.5,-317.67 1451.5,-317.67 1451.5,-313.83 1455.33,-310 1459.17,-310 1459.17,-310 1712.83,-310 1712.83,-310 1716.67,-310 1720.5,-313.83 1720.5,-317.67 1720.5,-317.67 1720.5,-325.33 1720.5,-325.33 1720.5,-329.17 1716.67,-333 1712.83,-333"/>
<text text-anchor="middle" x="1586" y="-317.8" font-family="Arial" font-size="14.00" fill="#c6c5fe">components/forms/catalogFormConfig.tsx</text>
</g>
<!-- components/forms/CatalogForm.tsx&#45;&gt;components/forms/catalogFormConfig.tsx -->
<g id="edge19" class="edge">
<title>components/forms/CatalogForm.tsx&#45;&gt;components/forms/catalogFormConfig.tsx</title>
<path fill="none" stroke="#757575" d="M1391.19,-319C1407.47,-319.21 1424.36,-319.42 1441.09,-319.64"/>
<polygon fill="#757575" stroke="#757575" points="1441.43,-323.14 1451.48,-319.77 1441.52,-316.15 1441.43,-323.14"/>
</g>
<!-- types/dto.d.ts -->
<g id="node22" class="node">
<title>types/dto.d.ts</title>
<path fill="none" stroke="#c6c5fe" d="M1926.33,-544C1926.33,-544 1844.67,-544 1844.67,-544 1840.83,-544 1837,-540.17 1837,-536.33 1837,-536.33 1837,-528.67 1837,-528.67 1837,-524.83 1840.83,-521 1844.67,-521 1844.67,-521 1926.33,-521 1926.33,-521 1930.17,-521 1934,-524.83 1934,-528.67 1934,-528.67 1934,-536.33 1934,-536.33 1934,-540.17 1930.17,-544 1926.33,-544"/>
<text text-anchor="middle" x="1885.5" y="-528.8" font-family="Arial" font-size="14.00" fill="#c6c5fe">types/dto.d.ts</text>
</g>
<!-- components/forms/CatalogForm.tsx&#45;&gt;types/dto.d.ts -->
<g id="edge20" class="edge">
<title>components/forms/CatalogForm.tsx&#45;&gt;types/dto.d.ts</title>
<path fill="none" stroke="#757575" d="M1367.07,-329C1459.48,-342.94 1604.77,-371.33 1721,-423.5 1775.67,-448.04 1832.3,-490.22 1862.45,-514.28"/>
<polygon fill="#757575" stroke="#757575" points="1860.6,-517.29 1870.58,-520.84 1865,-511.84 1860.6,-517.29"/>
</g>
<!-- components/forms/CatalogForm.tsx&#45;&gt;types/types.d.ts -->
<g id="edge21" class="edge">
<title>components/forms/CatalogForm.tsx&#45;&gt;types/types.d.ts</title>
<path fill="none" stroke="#757575" d="M1382.14,-306C1404.84,-303.88 1428.7,-301.89 1451,-300.5 1673.98,-286.56 1939.22,-282.85 2058.85,-281.86"/>
<polygon fill="#757575" stroke="#757575" points="2058.97,-285.36 2068.94,-281.78 2058.91,-278.36 2058.97,-285.36"/>
</g>
<!-- components/forms/catalogFormConfig.tsx&#45;&gt;types/dto.d.ts -->
<g id="edge28" class="edge">
<title>components/forms/catalogFormConfig.tsx&#45;&gt;types/dto.d.ts</title>
<path fill="none" stroke="#757575" d="M1686.28,-333.07C1698.42,-336.68 1710.3,-341.38 1721,-347.5 1792.7,-388.49 1849.09,-472.57 1872.6,-511.66"/>
<polygon fill="#757575" stroke="#757575" points="1869.76,-513.74 1877.85,-520.58 1875.79,-510.19 1869.76,-513.74"/>
</g>
<!-- components/forms/catalogFormConfig.tsx&#45;&gt;types/types.d.ts -->
<g id="edge29" class="edge">
<title>components/forms/catalogFormConfig.tsx&#45;&gt;types/types.d.ts</title>
<path fill="none" stroke="#757575" d="M1720.84,-315.65C1805.09,-311.4 1916.03,-304.76 2014,-295.5 2028.51,-294.13 2044.06,-292.33 2058.74,-290.48"/>
<polygon fill="#757575" stroke="#757575" points="2059.27,-293.94 2068.75,-289.2 2058.38,-287 2059.27,-293.94"/>
</g>
<!-- types/dto.d.ts&#45;&gt;types/types.d.ts -->
<g id="edge99" class="edge">
<title>types/dto.d.ts&#45;&gt;types/types.d.ts</title>
<path fill="none" stroke="#757575" d="M1900.07,-520.88C1923.98,-500.18 1974.78,-455.17 2014,-413.5 2049.68,-375.58 2087.58,-327.74 2107.94,-301.32"/>
<polygon fill="#757575" stroke="#757575" points="2110.84,-303.29 2114.15,-293.22 2105.29,-299.03 2110.84,-303.29"/>
</g>
<!-- components/forms/ProductForm.tsx -->
<g id="node24" class="node">
<title>components/forms/ProductForm.tsx</title>
<path fill="none" stroke="#c6c5fe" d="M1383.33,-774C1383.33,-774 1165.67,-774 1165.67,-774 1161.83,-774 1158,-770.17 1158,-766.33 1158,-766.33 1158,-758.67 1158,-758.67 1158,-754.83 1161.83,-751 1165.67,-751 1165.67,-751 1383.33,-751 1383.33,-751 1387.17,-751 1391,-754.83 1391,-758.67 1391,-758.67 1391,-766.33 1391,-766.33 1391,-770.17 1387.17,-774 1383.33,-774"/>
<text text-anchor="middle" x="1274.5" y="-758.8" font-family="Arial" font-size="14.00" fill="#c6c5fe">components/forms/ProductForm.tsx</text>
</g>
<!-- components/forms/ProductForm.tsx&#45;&gt;services/RestService.ts -->
<g id="edge23" class="edge">
<title>components/forms/ProductForm.tsx&#45;&gt;services/RestService.ts</title>
<path fill="none" stroke="#757575" d="M1391.3,-771.21C1399.63,-774.19 1407.63,-777.9 1415,-782.5 1439.15,-797.58 1427.23,-819.83 1451,-835.5 1464.76,-844.57 1480.94,-850.64 1497.2,-854.65"/>
<polygon fill="#757575" stroke="#757575" points="1496.8,-858.15 1507.32,-856.9 1498.32,-851.32 1496.8,-858.15"/>
</g>
<!-- components/forms/ProductForm.tsx&#45;&gt;types/dto.d.ts -->
<g id="edge24" class="edge">
<title>components/forms/ProductForm.tsx&#45;&gt;types/dto.d.ts</title>
<path fill="none" stroke="#757575" d="M1298.75,-750.9C1331.8,-734.86 1394.63,-706.02 1451,-689.5 1567.96,-655.22 1607.9,-686.93 1721,-641.5 1776.9,-619.05 1833.47,-575.71 1863.19,-550.98"/>
<polygon fill="#757575" stroke="#757575" points="1865.79,-553.37 1871.18,-544.24 1861.28,-548.02 1865.79,-553.37"/>
</g>
<!-- components/forms/ProductForm.tsx&#45;&gt;types/types.d.ts -->
<g id="edge25" class="edge">
<title>components/forms/ProductForm.tsx&#45;&gt;types/types.d.ts</title>
<path fill="none" stroke="#757575" d="M1382.62,-774.01C1393.67,-776.34 1404.64,-779.14 1415,-782.5 1432.21,-788.09 1433.44,-797.15 1451,-801.5 1572.47,-831.59 1918.42,-869.28 2014,-788.5 2090.09,-724.19 2116.08,-392.2 2121.73,-303.38"/>
<polygon fill="#757575" stroke="#757575" points="2125.24,-303.34 2122.36,-293.14 2118.25,-302.91 2125.24,-303.34"/>
</g>
<!-- components/forms/productFormConfig.tsx -->
<g id="node25" class="node">
<title>components/forms/productFormConfig.tsx</title>
<path fill="none" stroke="#c6c5fe" d="M1713.33,-793C1713.33,-793 1458.67,-793 1458.67,-793 1454.83,-793 1451,-789.17 1451,-785.33 1451,-785.33 1451,-777.67 1451,-777.67 1451,-773.83 1454.83,-770 1458.67,-770 1458.67,-770 1713.33,-770 1713.33,-770 1717.17,-770 1721,-773.83 1721,-777.67 1721,-777.67 1721,-785.33 1721,-785.33 1721,-789.17 1717.17,-793 1713.33,-793"/>
<text text-anchor="middle" x="1586" y="-777.8" font-family="Arial" font-size="14.00" fill="#c6c5fe">components/forms/productFormConfig.tsx</text>
</g>
<!-- components/forms/ProductForm.tsx&#45;&gt;components/forms/productFormConfig.tsx -->
<g id="edge22" class="edge">
<title>components/forms/ProductForm.tsx&#45;&gt;components/forms/productFormConfig.tsx</title>
<path fill="none" stroke="#757575" d="M1391.19,-769.6C1407.32,-770.59 1424.07,-771.62 1440.65,-772.64"/>
<polygon fill="#757575" stroke="#757575" points="1440.76,-776.15 1450.95,-773.27 1441.19,-769.16 1440.76,-776.15"/>
</g>
<!-- components/forms/productFormConfig.tsx&#45;&gt;types/dto.d.ts -->
<g id="edge30" class="edge">
<title>components/forms/productFormConfig.tsx&#45;&gt;types/dto.d.ts</title>
<path fill="none" stroke="#757575" d="M1620.17,-769.97C1648.61,-759.12 1689.82,-741.02 1721,-717.5 1786.3,-668.24 1845.1,-589.62 1870.8,-552.79"/>
<polygon fill="#757575" stroke="#757575" points="1873.81,-554.59 1876.61,-544.37 1868.05,-550.61 1873.81,-554.59"/>
</g>
<!-- components/forms/productFormConfig.tsx&#45;&gt;types/types.d.ts -->
<g id="edge31" class="edge">
<title>components/forms/productFormConfig.tsx&#45;&gt;types/types.d.ts</title>
<path fill="none" stroke="#757575" d="M1721.17,-790.23C1829.64,-794.29 1971.11,-791.83 2014,-755.5 2084.91,-695.43 2114.46,-388.23 2121.36,-303.29"/>
<polygon fill="#757575" stroke="#757575" points="2124.85,-303.48 2122.15,-293.23 2117.87,-302.93 2124.85,-303.48"/>
</g>
<!-- components/forms/ResetPasswordForm.tsx -->
<g id="node26" class="node">
<title>components/forms/ResetPasswordForm.tsx</title>
<path fill="none" stroke="#c6c5fe" d="M1407.33,-1247C1407.33,-1247 1141.67,-1247 1141.67,-1247 1137.83,-1247 1134,-1243.17 1134,-1239.33 1134,-1239.33 1134,-1231.67 1134,-1231.67 1134,-1227.83 1137.83,-1224 1141.67,-1224 1141.67,-1224 1407.33,-1224 1407.33,-1224 1411.17,-1224 1415,-1227.83 1415,-1231.67 1415,-1231.67 1415,-1239.33 1415,-1239.33 1415,-1243.17 1411.17,-1247 1407.33,-1247"/>
<text text-anchor="middle" x="1274.5" y="-1231.8" font-family="Arial" font-size="14.00" fill="#c6c5fe">components/forms/ResetPasswordForm.tsx</text>
</g>
<!-- components/forms/ResetPasswordForm.tsx&#45;&gt;components/Form.tsx -->
<g id="edge26" class="edge">
<title>components/forms/ResetPasswordForm.tsx&#45;&gt;components/Form.tsx</title>
<path fill="none" stroke="#757575" d="M1415.04,-1224.82C1597.62,-1212.64 1906.91,-1198.72 2014,-1234.5 2051.08,-1246.89 2085.66,-1277.4 2105.55,-1297.51"/>
<polygon fill="#757575" stroke="#757575" points="2103.21,-1300.12 2112.67,-1304.9 2108.25,-1295.27 2103.21,-1300.12"/>
</g>
<!-- components/forms/ResetPasswordForm.tsx&#45;&gt;components/FormInputGroup.tsx -->
<g id="edge27" class="edge">
<title>components/forms/ResetPasswordForm.tsx&#45;&gt;components/FormInputGroup.tsx</title>
<path fill="none" stroke="#757575" d="M1415.31,-1244.53C1432.85,-1245.67 1450.65,-1246.82 1467.8,-1247.93"/>
<polygon fill="#757575" stroke="#757575" points="1467.61,-1251.42 1477.81,-1248.57 1468.06,-1244.44 1467.61,-1251.42"/>
</g>
<!-- components/lists/CatalogList.tsx -->
<g id="node27" class="node">
<title>components/lists/CatalogList.tsx</title>
<path fill="none" stroke="#c6c5fe" d="M764.33,-383C764.33,-383 569.67,-383 569.67,-383 565.83,-383 562,-379.17 562,-375.33 562,-375.33 562,-367.67 562,-367.67 562,-363.83 565.83,-360 569.67,-360 569.67,-360 764.33,-360 764.33,-360 768.17,-360 772,-363.83 772,-367.67 772,-367.67 772,-375.33 772,-375.33 772,-379.17 768.17,-383 764.33,-383"/>
<text text-anchor="middle" x="667" y="-367.8" font-family="Arial" font-size="14.00" fill="#c6c5fe">components/lists/CatalogList.tsx</text>
</g>
<!-- components/lists/CatalogList.tsx&#45;&gt;main/RoutePath.ts -->
<g id="edge33" class="edge">
<title>components/lists/CatalogList.tsx&#45;&gt;main/RoutePath.ts</title>
<path fill="none" stroke="#757575" d="M696.8,-359.9C795.92,-319.95 1123.08,-188.11 1235.32,-142.89"/>
<polygon fill="#757575" stroke="#757575" points="1236.91,-146.02 1244.88,-139.03 1234.3,-139.52 1236.91,-146.02"/>
</g>
<!-- components/lists/CatalogList.tsx&#45;&gt;types/dto.d.ts -->
<g id="edge34" class="edge">
<title>components/lists/CatalogList.tsx&#45;&gt;types/dto.d.ts</title>
<path fill="none" stroke="#757575" d="M772.25,-381.44C961.77,-400.12 1375.12,-443.66 1721,-499.5 1756.34,-505.21 1795.68,-513.1 1826.91,-519.73"/>
<polygon fill="#757575" stroke="#757575" points="1826.24,-523.17 1836.75,-521.84 1827.7,-516.32 1826.24,-523.17"/>
</g>
<!-- components/modals/MakeCatalogModal.tsx -->
<g id="node28" class="node">
<title>components/modals/MakeCatalogModal.tsx</title>
<path fill="none" stroke="#c6c5fe" d="M1090.33,-376C1090.33,-376 824.67,-376 824.67,-376 820.83,-376 817,-372.17 817,-368.33 817,-368.33 817,-360.67 817,-360.67 817,-356.83 820.83,-353 824.67,-353 824.67,-353 1090.33,-353 1090.33,-353 1094.17,-353 1098,-356.83 1098,-360.67 1098,-360.67 1098,-368.33 1098,-368.33 1098,-372.17 1094.17,-376 1090.33,-376"/>
<text text-anchor="middle" x="957.5" y="-360.8" font-family="Arial" font-size="14.00" fill="#c6c5fe">components/modals/MakeCatalogModal.tsx</text>
</g>
<!-- components/lists/CatalogList.tsx&#45;&gt;components/modals/MakeCatalogModal.tsx -->
<g id="edge32" class="edge">
<title>components/lists/CatalogList.tsx&#45;&gt;components/modals/MakeCatalogModal.tsx</title>
<path fill="none" stroke="#757575" d="M772.16,-368.97C783.39,-368.7 794.98,-368.42 806.61,-368.14"/>
<polygon fill="#757575" stroke="#757575" points="806.93,-371.63 816.85,-367.89 806.76,-364.63 806.93,-371.63"/>
</g>
<!-- components/modals/MakeCatalogModal.tsx&#45;&gt;components/forms/CatalogForm.tsx -->
<g id="edge42" class="edge">
<title>components/modals/MakeCatalogModal.tsx&#45;&gt;components/forms/CatalogForm.tsx</title>
<path fill="none" stroke="#757575" d="M1035.96,-352.94C1081.54,-346.14 1139.3,-337.52 1186.45,-330.49"/>
<polygon fill="#757575" stroke="#757575" points="1186.96,-333.95 1196.34,-329.01 1185.93,-327.03 1186.96,-333.95"/>
</g>
<!-- components/modals/MakeCatalogModal.tsx&#45;&gt;types/dto.d.ts -->
<g id="edge44" class="edge">
<title>components/modals/MakeCatalogModal.tsx&#45;&gt;types/dto.d.ts</title>
<path fill="none" stroke="#757575" d="M1053.39,-352.97C1147.29,-344.79 1294.11,-340.77 1415,-376.5 1432.98,-381.82 1433.65,-391.39 1451,-398.5 1565.02,-445.22 1604.01,-422.8 1721,-461.5 1767.93,-477.02 1819.95,-500.82 1852.44,-516.52"/>
<polygon fill="#757575" stroke="#757575" points="1850.94,-519.68 1861.46,-520.91 1854.01,-513.39 1850.94,-519.68"/>
</g>
<!-- components/modals/MakeCatalogModal.tsx&#45;&gt;types/types.d.ts -->
<g id="edge45" class="edge">
<title>components/modals/MakeCatalogModal.tsx&#45;&gt;types/types.d.ts</title>
<path fill="none" stroke="#757575" d="M981.03,-352.93C1013.73,-336.81 1076.7,-308.24 1134,-296.5 1476.59,-226.28 1900,-258.29 2058.83,-274.32"/>
<polygon fill="#757575" stroke="#757575" points="2058.6,-277.81 2068.91,-275.35 2059.31,-270.85 2058.6,-277.81"/>
</g>
<!-- components/modals/Modal.tsx -->
<g id="node33" class="node">
<title>components/modals/Modal.tsx</title>
<path fill="none" stroke="#cfffac" d="M1367.33,-409C1367.33,-409 1181.67,-409 1181.67,-409 1177.83,-409 1174,-405.17 1174,-401.33 1174,-401.33 1174,-393.67 1174,-393.67 1174,-389.83 1177.83,-386 1181.67,-386 1181.67,-386 1367.33,-386 1367.33,-386 1371.17,-386 1375,-389.83 1375,-393.67 1375,-393.67 1375,-401.33 1375,-401.33 1375,-405.17 1371.17,-409 1367.33,-409"/>
<text text-anchor="middle" x="1274.5" y="-393.8" font-family="Arial" font-size="14.00" fill="#cfffac">components/modals/Modal.tsx</text>
</g>
<!-- components/modals/MakeCatalogModal.tsx&#45;&gt;components/modals/Modal.tsx -->
<g id="edge43" class="edge">
<title>components/modals/MakeCatalogModal.tsx&#45;&gt;components/modals/Modal.tsx</title>
<path fill="none" stroke="#757575" d="M1068.67,-376.04C1099.44,-379.26 1132.85,-382.77 1163.6,-385.99"/>
<polygon fill="#757575" stroke="#757575" points="1163.61,-389.51 1173.92,-387.07 1164.34,-382.54 1163.61,-389.51"/>
</g>
<!-- components/lists/ProductList.tsx -->
<g id="node29" class="node">
<title>components/lists/ProductList.tsx</title>
<path fill="none" stroke="#c6c5fe" d="M1371.83,-815C1371.83,-815 1177.17,-815 1177.17,-815 1173.33,-815 1169.5,-811.17 1169.5,-807.33 1169.5,-807.33 1169.5,-799.67 1169.5,-799.67 1169.5,-795.83 1173.33,-792 1177.17,-792 1177.17,-792 1371.83,-792 1371.83,-792 1375.67,-792 1379.5,-795.83 1379.5,-799.67 1379.5,-799.67 1379.5,-807.33 1379.5,-807.33 1379.5,-811.17 1375.67,-815 1371.83,-815"/>
<text text-anchor="middle" x="1274.5" y="-799.8" font-family="Arial" font-size="14.00" fill="#c6c5fe">components/lists/ProductList.tsx</text>
</g>
<!-- components/lists/ProductList.tsx&#45;&gt;utils/Array.ts -->
<g id="edge36" class="edge">
<title>components/lists/ProductList.tsx&#45;&gt;utils/Array.ts</title>
<path fill="none" stroke="#757575" d="M1296.69,-815.12C1329,-832.33 1392.96,-864.38 1451,-881.5 1476.69,-889.08 1506.01,-894.07 1530.66,-897.27"/>
<polygon fill="#757575" stroke="#757575" points="1530.55,-900.79 1540.91,-898.54 1531.41,-893.84 1530.55,-900.79"/>
</g>
<!-- components/lists/ProductList.tsx&#45;&gt;types/dto.d.ts -->
<g id="edge35" class="edge">
<title>components/lists/ProductList.tsx&#45;&gt;types/dto.d.ts</title>
<path fill="none" stroke="#757575" d="M1379.5,-792.56C1391.65,-789.91 1403.72,-786.6 1415,-782.5 1432.62,-776.09 1433.88,-768.15 1451,-760.5 1565.39,-709.41 1611.77,-740.87 1721,-679.5 1782.71,-644.83 1840.8,-583.26 1868.14,-551.95"/>
<polygon fill="#757575" stroke="#757575" points="1870.84,-554.18 1874.72,-544.32 1865.54,-549.61 1870.84,-554.18"/>
</g>
<!-- components/menus/DropdownMenu.tsx&#45;&gt;types/types.d.ts -->
<g id="edge37" class="edge">
<title>components/menus/DropdownMenu.tsx&#45;&gt;types/types.d.ts</title>
<path fill="none" stroke="#757575" d="M1989,-23.05C1997.99,-26.76 2006.51,-31.49 2014,-37.5 2086.36,-95.53 2112.18,-211.74 2120.02,-259.86"/>
<polygon fill="#757575" stroke="#757575" points="2116.57,-260.45 2121.54,-269.81 2123.49,-259.39 2116.57,-260.45"/>
</g>
<!-- main/MenuConfig.ts&#45;&gt;main/RoutePath.ts -->
<g id="edge91" class="edge">
<title>main/MenuConfig.ts&#45;&gt;main/RoutePath.ts</title>
<path fill="none" stroke="#757575" d="M1026.85,-158.82C1078,-152.33 1147.84,-143.46 1200.15,-136.81"/>
<polygon fill="#757575" stroke="#757575" points="1200.89,-140.25 1210.37,-135.52 1200.01,-133.3 1200.89,-140.25"/>
</g>
<!-- main/MenuConfig.ts&#45;&gt;types/types.d.ts -->
<g id="edge92" class="edge">
<title>main/MenuConfig.ts&#45;&gt;types/types.d.ts</title>
<path fill="none" stroke="#757575" d="M1026.63,-163.29C1230.41,-151.6 1832.35,-123.86 2014,-191.5 2052.75,-205.93 2087.7,-240.35 2107.08,-262.19"/>
<polygon fill="#757575" stroke="#757575" points="2104.53,-264.6 2113.71,-269.88 2109.83,-260.03 2104.53,-264.6"/>
</g>
<!-- components/menus/SubMenu.tsx -->
<g id="node32" class="node">
<title>components/menus/SubMenu.tsx</title>
<path fill="none" stroke="#c6c5fe" d="M768.83,-257C768.83,-257 565.17,-257 565.17,-257 561.33,-257 557.5,-253.17 557.5,-249.33 557.5,-249.33 557.5,-241.67 557.5,-241.67 557.5,-237.83 561.33,-234 565.17,-234 565.17,-234 768.83,-234 768.83,-234 772.67,-234 776.5,-237.83 776.5,-241.67 776.5,-241.67 776.5,-249.33 776.5,-249.33 776.5,-253.17 772.67,-257 768.83,-257"/>
<text text-anchor="middle" x="667" y="-241.8" font-family="Arial" font-size="14.00" fill="#c6c5fe">components/menus/SubMenu.tsx</text>
</g>
<!-- components/menus/SubMenu.tsx&#45;&gt;types/types.d.ts -->
<g id="edge41" class="edge">
<title>components/menus/SubMenu.tsx&#45;&gt;types/types.d.ts</title>
<path fill="none" stroke="#757575" d="M776.76,-245.8C967.82,-246.36 1376.17,-247.67 1721,-249.5 1851.22,-250.19 1885.01,-233.62 2014,-251.5 2036.12,-254.57 2060.11,-260.83 2079.94,-266.85"/>
<polygon fill="#757575" stroke="#757575" points="2079.01,-270.23 2089.6,-269.86 2081.09,-263.54 2079.01,-270.23"/>
</g>
<!-- components/modals/MakeProductModal.tsx -->
<g id="node34" class="node">
<title>components/modals/MakeProductModal.tsx</title>
<path fill="none" stroke="#c6c5fe" d="M1090.33,-622C1090.33,-622 824.67,-622 824.67,-622 820.83,-622 817,-618.17 817,-614.33 817,-614.33 817,-606.67 817,-606.67 817,-602.83 820.83,-599 824.67,-599 824.67,-599 1090.33,-599 1090.33,-599 1094.17,-599 1098,-602.83 1098,-606.67 1098,-606.67 1098,-614.33 1098,-614.33 1098,-618.17 1094.17,-622 1090.33,-622"/>
<text text-anchor="middle" x="957.5" y="-606.8" font-family="Arial" font-size="14.00" fill="#c6c5fe">components/modals/MakeProductModal.tsx</text>
</g>
<!-- components/modals/MakeProductModal.tsx&#45;&gt;types/dto.d.ts -->
<g id="edge48" class="edge">
<title>components/modals/MakeProductModal.tsx&#45;&gt;types/dto.d.ts</title>
<path fill="none" stroke="#757575" d="M1098.18,-602.29C1251.24,-592.78 1503.91,-575.54 1721,-553.5 1756.17,-549.93 1795.47,-544.91 1826.73,-540.68"/>
<polygon fill="#757575" stroke="#757575" points="1827.57,-544.1 1837,-539.28 1826.62,-537.16 1827.57,-544.1"/>
</g>
<!-- components/modals/MakeProductModal.tsx&#45;&gt;types/types.d.ts -->
<g id="edge49" class="edge">
<title>components/modals/MakeProductModal.tsx&#45;&gt;types/types.d.ts</title>
<path fill="none" stroke="#757575" d="M997.3,-622.04C1146.52,-663.9 1691.11,-792.98 2014,-552.5 2096.6,-490.98 2116.74,-356.51 2121.54,-303.55"/>
<polygon fill="#757575" stroke="#757575" points="2125.06,-303.52 2122.37,-293.28 2118.08,-302.96 2125.06,-303.52"/>
</g>
<!-- components/modals/MakeProductModal.tsx&#45;&gt;components/forms/ProductForm.tsx -->
<g id="edge46" class="edge">
<title>components/modals/MakeProductModal.tsx&#45;&gt;components/forms/ProductForm.tsx</title>
<path fill="none" stroke="#757575" d="M982.43,-622.05C1038.15,-648.94 1176.63,-715.75 1240.39,-746.52"/>
<polygon fill="#757575" stroke="#757575" points="1239.07,-749.77 1249.6,-750.97 1242.12,-743.47 1239.07,-749.77"/>
</g>
<!-- components/modals/MakeProductModal.tsx&#45;&gt;components/modals/Modal.tsx -->
<g id="edge47" class="edge">
<title>components/modals/MakeProductModal.tsx&#45;&gt;components/modals/Modal.tsx</title>
<path fill="none" stroke="#757575" d="M1030.88,-598.94C1053.37,-593.38 1077.6,-585.27 1098,-573.5 1169.68,-532.17 1232.44,-454.01 1259.43,-417.38"/>
<polygon fill="#757575" stroke="#757575" points="1262.46,-419.16 1265.5,-409.01 1256.8,-415.05 1262.46,-419.16"/>
</g>
<!-- components/pages/AccountPage.tsx -->
<g id="node35" class="node">
<title>components/pages/AccountPage.tsx</title>
<path fill="none" stroke="#c6c5fe" d="M502.33,-216C502.33,-216 281.67,-216 281.67,-216 277.83,-216 274,-212.17 274,-208.33 274,-208.33 274,-200.67 274,-200.67 274,-196.83 277.83,-193 281.67,-193 281.67,-193 502.33,-193 502.33,-193 506.17,-193 510,-196.83 510,-200.67 510,-200.67 510,-208.33 510,-208.33 510,-212.17 506.17,-216 502.33,-216"/>
<text text-anchor="middle" x="392" y="-200.8" font-family="Arial" font-size="14.00" fill="#c6c5fe">components/pages/AccountPage.tsx</text>
</g>
<!-- components/pages/AccountPage.tsx&#45;&gt;main/MenuConfig.ts -->
<g id="edge52" class="edge">
<title>components/pages/AccountPage.tsx&#45;&gt;main/MenuConfig.ts</title>
<path fill="none" stroke="#757575" d="M510.07,-194.69C524.53,-193.57 539.1,-192.48 553,-191.5 665.95,-183.55 796.81,-176.09 878.13,-171.66"/>
<polygon fill="#757575" stroke="#757575" points="878.49,-175.14 888.29,-171.11 878.11,-168.15 878.49,-175.14"/>
</g>
<!-- components/pages/AccountPage.tsx&#45;&gt;components/menus/SubMenu.tsx -->
<g id="edge50" class="edge">
<title>components/pages/AccountPage.tsx&#45;&gt;components/menus/SubMenu.tsx</title>
<path fill="none" stroke="#757575" d="M469.77,-216.03C503.79,-221.14 543.98,-227.17 579.09,-232.45"/>
<polygon fill="#757575" stroke="#757575" points="578.92,-235.96 589.33,-233.99 579.96,-229.04 578.92,-235.96"/>
</g>
<!-- components/pages/Page.tsx -->
<g id="node36" class="node">
<title>components/pages/Page.tsx</title>
<path fill="none" stroke="#cfffac" d="M753.33,-298C753.33,-298 580.67,-298 580.67,-298 576.83,-298 573,-294.17 573,-290.33 573,-290.33 573,-282.67 573,-282.67 573,-278.83 576.83,-275 580.67,-275 580.67,-275 753.33,-275 753.33,-275 757.17,-275 761,-278.83 761,-282.67 761,-282.67 761,-290.33 761,-290.33 761,-294.17 757.17,-298 753.33,-298"/>
<text text-anchor="middle" x="667" y="-282.8" font-family="Arial" font-size="14.00" fill="#cfffac">components/pages/Page.tsx</text>
</g>
<!-- components/pages/AccountPage.tsx&#45;&gt;components/pages/Page.tsx -->
<g id="edge51" class="edge">
<title>components/pages/AccountPage.tsx&#45;&gt;components/pages/Page.tsx</title>
<path fill="none" stroke="#757575" d="M498.28,-216.11C504.78,-218.46 511.08,-221.23 517,-224.5 538.22,-236.23 531.92,-253.51 553,-265.5 556.71,-267.61 560.58,-269.51 564.58,-271.23"/>
<polygon fill="#757575" stroke="#757575" points="563.48,-274.56 574.07,-274.9 566.01,-268.03 563.48,-274.56"/>
</g>
<!-- components/pages/AuthPage.scss -->
<g id="node37" class="node">
<title>components/pages/AuthPage.scss</title>
<path fill="none" stroke="#cfffac" d="M1690.83,-1308C1690.83,-1308 1481.17,-1308 1481.17,-1308 1477.33,-1308 1473.5,-1304.17 1473.5,-1300.33 1473.5,-1300.33 1473.5,-1292.67 1473.5,-1292.67 1473.5,-1288.83 1477.33,-1285 1481.17,-1285 1481.17,-1285 1690.83,-1285 1690.83,-1285 1694.67,-1285 1698.5,-1288.83 1698.5,-1292.67 1698.5,-1292.67 1698.5,-1300.33 1698.5,-1300.33 1698.5,-1304.17 1694.67,-1308 1690.83,-1308"/>
<text text-anchor="middle" x="1586" y="-1292.8" font-family="Arial" font-size="14.00" fill="#cfffac">components/pages/AuthPage.scss</text>
</g>
<!-- components/pages/AuthPage.tsx -->
<g id="node38" class="node">
<title>components/pages/AuthPage.tsx</title>
<path fill="none" stroke="#c6c5fe" d="M1374.33,-1328C1374.33,-1328 1174.67,-1328 1174.67,-1328 1170.83,-1328 1167,-1324.17 1167,-1320.33 1167,-1320.33 1167,-1312.67 1167,-1312.67 1167,-1308.83 1170.83,-1305 1174.67,-1305 1174.67,-1305 1374.33,-1305 1374.33,-1305 1378.17,-1305 1382,-1308.83 1382,-1312.67 1382,-1312.67 1382,-1320.33 1382,-1320.33 1382,-1324.17 1378.17,-1328 1374.33,-1328"/>
<text text-anchor="middle" x="1274.5" y="-1312.8" font-family="Arial" font-size="14.00" fill="#c6c5fe">components/pages/AuthPage.tsx</text>
</g>
<!-- components/pages/AuthPage.tsx&#45;&gt;services/Firebase.ts -->
<g id="edge57" class="edge">
<title>components/pages/AuthPage.tsx&#45;&gt;services/Firebase.ts</title>
<path fill="none" stroke="#757575" d="M1332.09,-1304.91C1361.03,-1296.1 1394.4,-1280.99 1415,-1255.5 1465.45,-1193.06 1392.77,-1133.76 1451,-1078.5 1466.1,-1064.17 1486.78,-1057.36 1507.38,-1054.58"/>
<polygon fill="#757575" stroke="#757575" points="1507.87,-1058.05 1517.45,-1053.52 1507.14,-1051.08 1507.87,-1058.05"/>
</g>
<!-- components/pages/AuthPage.tsx&#45;&gt;components/AuthFrom.tsx -->
<g id="edge53" class="edge">
<title>components/pages/AuthPage.tsx&#45;&gt;components/AuthFrom.tsx</title>
<path fill="none" stroke="#757575" d="M1382.23,-1317.21C1404.93,-1317.33 1428.76,-1317.44 1451,-1317.5 1571,-1317.84 1601,-1317.87 1721,-1317.5 1742.32,-1317.43 1765.2,-1317.32 1786.9,-1317.19"/>
<polygon fill="#757575" stroke="#757575" points="1787.12,-1320.69 1797.1,-1317.13 1787.08,-1313.69 1787.12,-1320.69"/>
</g>
<!-- components/pages/AuthPage.tsx&#45;&gt;components/Form.tsx -->
<g id="edge54" class="edge">
<title>components/pages/AuthPage.tsx&#45;&gt;components/Form.tsx</title>
<path fill="none" stroke="#757575" d="M1293.52,-1328.05C1324.32,-1347.02 1389.71,-1384.04 1451,-1397.5 1695.82,-1451.27 1772,-1429.78 2014,-1364.5 2041.82,-1356.99 2071.66,-1343.43 2093.07,-1332.64"/>
<polygon fill="#757575" stroke="#757575" points="2094.69,-1335.74 2101.99,-1328.05 2091.49,-1329.51 2094.69,-1335.74"/>
</g>
<!-- components/pages/AuthPage.tsx&#45;&gt;components/pages/AuthPage.scss -->
<g id="edge55" class="edge">
<title>components/pages/AuthPage.tsx&#45;&gt;components/pages/AuthPage.scss</title>
<path fill="none" stroke="#757575" d="M1382.01,-1309.62C1408.14,-1307.93 1436.3,-1306.11 1463.09,-1304.38"/>
<polygon fill="#757575" stroke="#757575" points="1463.53,-1307.86 1473.28,-1303.72 1463.08,-1300.87 1463.53,-1307.86"/>
</g>
<!-- containers/SignUpModal.tsx -->
<g id="node39" class="node">
<title>containers/SignUpModal.tsx</title>
<path fill="none" stroke="#c6c5fe" d="M1670.83,-1388C1670.83,-1388 1501.17,-1388 1501.17,-1388 1497.33,-1388 1493.5,-1384.17 1493.5,-1380.33 1493.5,-1380.33 1493.5,-1372.67 1493.5,-1372.67 1493.5,-1368.83 1497.33,-1365 1501.17,-1365 1501.17,-1365 1670.83,-1365 1670.83,-1365 1674.67,-1365 1678.5,-1368.83 1678.5,-1372.67 1678.5,-1372.67 1678.5,-1380.33 1678.5,-1380.33 1678.5,-1384.17 1674.67,-1388 1670.83,-1388"/>
<text text-anchor="middle" x="1586" y="-1372.8" font-family="Arial" font-size="14.00" fill="#c6c5fe">containers/SignUpModal.tsx</text>
</g>
<!-- components/pages/AuthPage.tsx&#45;&gt;containers/SignUpModal.tsx -->
<g id="edge56" class="edge">
<title>components/pages/AuthPage.tsx&#45;&gt;containers/SignUpModal.tsx</title>
<path fill="none" stroke="#757575" d="M1335.17,-1328.07C1386.77,-1338.07 1461.38,-1352.54 1515.63,-1363.05"/>
<polygon fill="#757575" stroke="#757575" points="1515.03,-1366.5 1525.51,-1364.97 1516.36,-1359.63 1515.03,-1366.5"/>
</g>
<!-- containers/SignUpModal.tsx&#45;&gt;components/AuthFrom.tsx -->
<g id="edge75" class="edge">
<title>containers/SignUpModal.tsx&#45;&gt;components/AuthFrom.tsx</title>
<path fill="none" stroke="#757575" d="M1647.4,-1364.96C1670.45,-1360.51 1696.95,-1355.33 1721,-1350.5 1753.69,-1343.93 1790,-1336.4 1820.09,-1330.1"/>
<polygon fill="#757575" stroke="#757575" points="1820.97,-1333.49 1830.04,-1328.02 1819.53,-1326.64 1820.97,-1333.49"/>
</g>
<!-- containers/SignUpModal.tsx&#45;&gt;components/Form.tsx -->
<g id="edge76" class="edge">
<title>containers/SignUpModal.tsx&#45;&gt;components/Form.tsx</title>
<path fill="none" stroke="#757575" d="M1678.51,-1370.78C1765.18,-1364.74 1898.84,-1353.81 2014,-1337.5 2028.57,-1335.44 2044.15,-1332.73 2058.84,-1329.96"/>
<polygon fill="#757575" stroke="#757575" points="2059.69,-1333.36 2068.84,-1328.03 2058.36,-1326.49 2059.69,-1333.36"/>
</g>
<!-- components/pages/HomePage.tsx -->
<g id="node40" class="node">
<title>components/pages/HomePage.tsx</title>
<path fill="none" stroke="#c6c5fe" d="M496.33,-298C496.33,-298 287.67,-298 287.67,-298 283.83,-298 280,-294.17 280,-290.33 280,-290.33 280,-282.67 280,-282.67 280,-278.83 283.83,-275 287.67,-275 287.67,-275 496.33,-275 496.33,-275 500.17,-275 504,-278.83 504,-282.67 504,-282.67 504,-290.33 504,-290.33 504,-294.17 500.17,-298 496.33,-298"/>
<text text-anchor="middle" x="392" y="-282.8" font-family="Arial" font-size="14.00" fill="#c6c5fe">components/pages/HomePage.tsx</text>
</g>
<!-- components/pages/HomePage.tsx&#45;&gt;components/pages/Page.tsx -->
<g id="edge58" class="edge">
<title>components/pages/HomePage.tsx&#45;&gt;components/pages/Page.tsx</title>
<path fill="none" stroke="#757575" d="M504.04,-286.5C523.43,-286.5 543.54,-286.5 562.72,-286.5"/>
<polygon fill="#757575" stroke="#757575" points="562.96,-290 572.96,-286.5 562.96,-283 562.96,-290"/>
</g>
<!-- components/pages/MessagesPage.tsx -->
<g id="node41" class="node">
<title>components/pages/MessagesPage.tsx</title>
<path fill="none" stroke="#c6c5fe" d="M509.33,-380C509.33,-380 274.67,-380 274.67,-380 270.83,-380 267,-376.17 267,-372.33 267,-372.33 267,-364.67 267,-364.67 267,-360.83 270.83,-357 274.67,-357 274.67,-357 509.33,-357 509.33,-357 513.17,-357 517,-360.83 517,-364.67 517,-364.67 517,-372.33 517,-372.33 517,-376.17 513.17,-380 509.33,-380"/>
<text text-anchor="middle" x="392" y="-364.8" font-family="Arial" font-size="14.00" fill="#c6c5fe">components/pages/MessagesPage.tsx</text>
</g>
<!-- components/pages/MessagesPage.tsx&#45;&gt;components/pages/Page.tsx -->
<g id="edge59" class="edge">
<title>components/pages/MessagesPage.tsx&#45;&gt;components/pages/Page.tsx</title>
<path fill="none" stroke="#757575" d="M476.61,-356.94C490.22,-354.31 504.09,-351.19 517,-347.5 558.23,-335.73 603.55,-316.16 633.25,-302.37"/>
<polygon fill="#757575" stroke="#757575" points="634.76,-305.53 642.32,-298.11 631.78,-299.19 634.76,-305.53"/>
</g>
<!-- components/pages/NotFoundPage.tsx -->
<g id="node42" class="node">
<title>components/pages/NotFoundPage.tsx</title>
<path fill="none" stroke="#cfffac" d="M507.83,-102C507.83,-102 276.17,-102 276.17,-102 272.33,-102 268.5,-98.17 268.5,-94.33 268.5,-94.33 268.5,-86.67 268.5,-86.67 268.5,-82.83 272.33,-79 276.17,-79 276.17,-79 507.83,-79 507.83,-79 511.67,-79 515.5,-82.83 515.5,-86.67 515.5,-86.67 515.5,-94.33 515.5,-94.33 515.5,-98.17 511.67,-102 507.83,-102"/>
<text text-anchor="middle" x="392" y="-86.8" font-family="Arial" font-size="14.00" fill="#cfffac">components/pages/NotFoundPage.tsx</text>
</g>
<!-- components/pages/SellPage.tsx -->
<g id="node43" class="node">
<title>components/pages/SellPage.tsx</title>
<path fill="none" stroke="#c6c5fe" d="M489.33,-257C489.33,-257 294.67,-257 294.67,-257 290.83,-257 287,-253.17 287,-249.33 287,-249.33 287,-241.67 287,-241.67 287,-237.83 290.83,-234 294.67,-234 294.67,-234 489.33,-234 489.33,-234 493.17,-234 497,-237.83 497,-241.67 497,-241.67 497,-249.33 497,-249.33 497,-253.17 493.17,-257 489.33,-257"/>
<text text-anchor="middle" x="392" y="-241.8" font-family="Arial" font-size="14.00" fill="#c6c5fe">components/pages/SellPage.tsx</text>
</g>
<!-- components/pages/SellPage.tsx&#45;&gt;main/MenuConfig.ts -->
<g id="edge62" class="edge">
<title>components/pages/SellPage.tsx&#45;&gt;main/MenuConfig.ts</title>
<path fill="none" stroke="#757575" d="M476.15,-233.99C584.4,-219.01 772.23,-193.01 878.1,-178.35"/>
<polygon fill="#757575" stroke="#757575" points="878.66,-181.81 888.08,-176.97 877.7,-174.87 878.66,-181.81"/>
</g>
<!-- components/pages/SellPage.tsx&#45;&gt;components/menus/SubMenu.tsx -->
<g id="edge60" class="edge">
<title>components/pages/SellPage.tsx&#45;&gt;components/menus/SubMenu.tsx</title>
<path fill="none" stroke="#757575" d="M497.38,-245.5C513.58,-245.5 530.43,-245.5 546.93,-245.5"/>
<polygon fill="#757575" stroke="#757575" points="547.15,-249 557.15,-245.5 547.15,-242 547.15,-249"/>
</g>
<!-- components/pages/SellPage.tsx&#45;&gt;components/pages/Page.tsx -->
<g id="edge61" class="edge">
<title>components/pages/SellPage.tsx&#45;&gt;components/pages/Page.tsx</title>
<path fill="none" stroke="#757575" d="M469.77,-257.03C503.79,-262.14 543.98,-268.17 579.09,-273.45"/>
<polygon fill="#757575" stroke="#757575" points="578.92,-276.96 589.33,-274.99 579.96,-270.04 578.92,-276.96"/>
</g>
<!-- components/views/CatalogView.tsx -->
<g id="node44" class="node">
<title>components/views/CatalogView.tsx</title>
<path fill="none" stroke="#c6c5fe" d="M773.33,-622C773.33,-622 560.67,-622 560.67,-622 556.83,-622 553,-618.17 553,-614.33 553,-614.33 553,-606.67 553,-606.67 553,-602.83 556.83,-599 560.67,-599 560.67,-599 773.33,-599 773.33,-599 777.17,-599 781,-602.83 781,-606.67 781,-606.67 781,-614.33 781,-614.33 781,-618.17 777.17,-622 773.33,-622"/>
<text text-anchor="middle" x="667" y="-606.8" font-family="Arial" font-size="14.00" fill="#c6c5fe">components/views/CatalogView.tsx</text>
</g>
<!-- components/views/CatalogView.tsx&#45;&gt;types/dto.d.ts -->
<g id="edge66" class="edge">
<title>components/views/CatalogView.tsx&#45;&gt;types/dto.d.ts</title>
<path fill="none" stroke="#757575" d="M739.05,-622C763.66,-625.46 791.48,-628.79 817,-630.5 1218.52,-657.33 1325.14,-651.86 1721,-579.5 1762.73,-571.87 1809.11,-558.01 1841.78,-547.31"/>
<polygon fill="#757575" stroke="#757575" points="1843.07,-550.57 1851.46,-544.1 1840.86,-543.92 1843.07,-550.57"/>
</g>
<!-- components/views/CatalogView.tsx&#45;&gt;components/lists/ProductList.tsx -->
<g id="edge63" class="edge">
<title>components/views/CatalogView.tsx&#45;&gt;components/lists/ProductList.tsx</title>
<path fill="none" stroke="#757575" d="M690.86,-622.13C719.78,-636.6 771.36,-661.59 817,-679.5 954.9,-733.61 989.82,-748.47 1134,-782.5 1146.35,-785.41 1159.41,-788.01 1172.39,-790.29"/>
<polygon fill="#757575" stroke="#757575" points="1171.84,-793.75 1182.29,-791.98 1173.02,-786.85 1171.84,-793.75"/>
</g>
<!-- components/views/CatalogView.tsx&#45;&gt;components/modals/MakeProductModal.tsx -->
<g id="edge64" class="edge">
<title>components/views/CatalogView.tsx&#45;&gt;components/modals/MakeProductModal.tsx</title>
<path fill="none" stroke="#757575" d="M781.19,-610.5C789.59,-610.5 798.13,-610.5 806.7,-610.5"/>
<polygon fill="#757575" stroke="#757575" points="806.77,-614 816.77,-610.5 806.77,-607 806.77,-614"/>
</g>
<!-- services/CatalogService.ts -->
<g id="node45" class="node">
<title>services/CatalogService.ts</title>
<path fill="none" stroke="#c6c5fe" d="M1037.83,-565C1037.83,-565 877.17,-565 877.17,-565 873.33,-565 869.5,-561.17 869.5,-557.33 869.5,-557.33 869.5,-549.67 869.5,-549.67 869.5,-545.83 873.33,-542 877.17,-542 877.17,-542 1037.83,-542 1037.83,-542 1041.67,-542 1045.5,-545.83 1045.5,-549.67 1045.5,-549.67 1045.5,-557.33 1045.5,-557.33 1045.5,-561.17 1041.67,-565 1037.83,-565"/>
<text text-anchor="middle" x="957.5" y="-549.8" font-family="Arial" font-size="14.00" fill="#c6c5fe">services/CatalogService.ts</text>
</g>
<!-- components/views/CatalogView.tsx&#45;&gt;services/CatalogService.ts -->
<g id="edge65" class="edge">
<title>components/views/CatalogView.tsx&#45;&gt;services/CatalogService.ts</title>
<path fill="none" stroke="#757575" d="M726.38,-598.97C773.21,-589.71 839.02,-576.71 888.27,-566.98"/>
<polygon fill="#757575" stroke="#757575" points="889.07,-570.39 898.2,-565.02 887.72,-563.52 889.07,-570.39"/>
</g>
<!-- services/CatalogService.ts&#45;&gt;types/dto.d.ts -->
<g id="edge94" class="edge">
<title>services/CatalogService.ts&#45;&gt;types/dto.d.ts</title>
<path fill="none" stroke="#757575" d="M1045.62,-551.52C1232.77,-547.28 1669.01,-537.39 1826.49,-533.82"/>
<polygon fill="#757575" stroke="#757575" points="1826.98,-537.31 1836.9,-533.58 1826.83,-530.31 1826.98,-537.31"/>
</g>
<!-- services/CatalogService.ts&#45;&gt;types/types.d.ts -->
<g id="edge95" class="edge">
<title>services/CatalogService.ts&#45;&gt;types/types.d.ts</title>
<path fill="none" stroke="#757575" d="M1022.81,-541.97C1188.58,-511.66 1643.42,-424.78 2014,-319.5 2037.19,-312.91 2062.66,-304.12 2083.14,-296.66"/>
<polygon fill="#757575" stroke="#757575" points="2084.59,-299.85 2092.77,-293.11 2082.17,-293.28 2084.59,-299.85"/>
</g>
<!-- components/views/CatalogsView.tsx -->
<g id="node46" class="node">
<title>components/views/CatalogsView.tsx</title>
<path fill="none" stroke="#c6c5fe" d="M501.83,-462C501.83,-462 282.17,-462 282.17,-462 278.33,-462 274.5,-458.17 274.5,-454.33 274.5,-454.33 274.5,-446.67 274.5,-446.67 274.5,-442.83 278.33,-439 282.17,-439 282.17,-439 501.83,-439 501.83,-439 505.67,-439 509.5,-442.83 509.5,-446.67 509.5,-446.67 509.5,-454.33 509.5,-454.33 509.5,-458.17 505.67,-462 501.83,-462"/>
<text text-anchor="middle" x="392" y="-446.8" font-family="Arial" font-size="14.00" fill="#c6c5fe">components/views/CatalogsView.tsx</text>
</g>
<!-- components/views/CatalogsView.tsx&#45;&gt;types/dto.d.ts -->
<g id="edge70" class="edge">
<title>components/views/CatalogsView.tsx&#45;&gt;types/dto.d.ts</title>
<path fill="none" stroke="#757575" d="M485.79,-462.02C633.63,-480.2 910.69,-513.5 956.5,-513.5 956.5,-513.5 956.5,-513.5 1275.5,-513.5 1478.14,-513.5 1718.53,-524.14 1826.7,-529.5"/>
<polygon fill="#757575" stroke="#757575" points="1826.59,-532.99 1836.75,-530 1826.93,-526 1826.59,-532.99"/>
</g>
<!-- components/views/CatalogsView.tsx&#45;&gt;components/lists/CatalogList.tsx -->
<g id="edge67" class="edge">
<title>components/views/CatalogsView.tsx&#45;&gt;components/lists/CatalogList.tsx</title>
<path fill="none" stroke="#757575" d="M481.92,-438.98C493.86,-436.41 505.83,-433.28 517,-429.5 534.13,-423.69 536.4,-417.69 553,-410.5 573.95,-401.42 597.76,-392.94 618.1,-386.23"/>
<polygon fill="#757575" stroke="#757575" points="619.35,-389.5 627.78,-383.08 617.19,-382.84 619.35,-389.5"/>
</g>
<!-- components/views/CatalogsView.tsx&#45;&gt;components/modals/MakeCatalogModal.tsx -->
<g id="edge68" class="edge">
<title>components/views/CatalogsView.tsx&#45;&gt;components/modals/MakeCatalogModal.tsx</title>
<path fill="none" stroke="#757575" d="M469.2,-438.95C547.45,-427.09 672.73,-408.06 781,-391.5 810.58,-386.98 842.95,-382 871.75,-377.57"/>
<polygon fill="#757575" stroke="#757575" points="872.43,-381.01 881.78,-376.02 871.36,-374.09 872.43,-381.01"/>
</g>
<!-- components/views/CatalogsView.tsx&#45;&gt;services/CatalogService.ts -->
<g id="edge69" class="edge">
<title>components/views/CatalogsView.tsx&#45;&gt;services/CatalogService.ts</title>
<path fill="none" stroke="#757575" d="M486.48,-462.07C497.27,-465.69 507.72,-470.4 517,-476.5 540.19,-491.74 528.79,-513.95 553,-527.5 656.89,-585.65 800.23,-578.16 885.15,-566.48"/>
<polygon fill="#757575" stroke="#757575" points="885.81,-569.92 895.21,-565.04 884.81,-562.99 885.81,-569.92"/>
</g>
<!-- components/views/ProductView.tsx -->
<g id="node47" class="node">
<title>components/views/ProductView.tsx</title>
<path fill="none" stroke="#c6c5fe" d="M1063.83,-933C1063.83,-933 851.17,-933 851.17,-933 847.33,-933 843.5,-929.17 843.5,-925.33 843.5,-925.33 843.5,-917.67 843.5,-917.67 843.5,-913.83 847.33,-910 851.17,-910 851.17,-910 1063.83,-910 1063.83,-910 1067.67,-910 1071.5,-913.83 1071.5,-917.67 1071.5,-917.67 1071.5,-925.33 1071.5,-925.33 1071.5,-929.17 1067.67,-933 1063.83,-933"/>
<text text-anchor="middle" x="957.5" y="-917.8" font-family="Arial" font-size="14.00" fill="#c6c5fe">components/views/ProductView.tsx</text>
</g>
<!-- components/views/ProductView.tsx&#45;&gt;components/AuthContainer.tsx -->
<g id="edge71" class="edge">
<title>components/views/ProductView.tsx&#45;&gt;components/AuthContainer.tsx</title>
<path fill="none" stroke="#757575" d="M985.09,-933.06C1041.52,-957.61 1173.34,-1014.94 1237.35,-1042.78"/>
<polygon fill="#757575" stroke="#757575" points="1236.09,-1046.04 1246.65,-1046.82 1238.88,-1039.63 1236.09,-1046.04"/>
</g>
<!-- components/views/ProductView.tsx&#45;&gt;services/RestService.ts -->
<g id="edge73" class="edge">
<title>components/views/ProductView.tsx&#45;&gt;services/RestService.ts</title>
<path fill="none" stroke="#757575" d="M1049.98,-909.98C1077.01,-906.73 1106.68,-903.31 1134,-900.5 1260.03,-887.51 1406.17,-875.42 1497.12,-868.24"/>
<polygon fill="#757575" stroke="#757575" points="1497.42,-871.73 1507.11,-867.45 1496.87,-864.75 1497.42,-871.73"/>
</g>
<!-- components/views/ProductView.tsx&#45;&gt;types/models.d.ts -->
<g id="edge74" class="edge">
<title>components/views/ProductView.tsx&#45;&gt;types/models.d.ts</title>
<path fill="none" stroke="#757575" d="M1054.07,-933.03C1079.99,-935.98 1108.05,-939.02 1134,-941.5 1383.77,-965.38 1681.04,-986.06 1814.06,-994.91"/>
<polygon fill="#757575" stroke="#757575" points="1813.91,-998.41 1824.12,-995.58 1814.38,-991.43 1813.91,-998.41"/>
</g>
<!-- components/views/ProductView.tsx&#45;&gt;components/ProductList.tsx -->
<g id="edge72" class="edge">
<title>components/views/ProductView.tsx&#45;&gt;components/ProductList.tsx</title>
<path fill="none" stroke="#757575" d="M1071.78,-921.5C1104.72,-921.5 1140.48,-921.5 1172.61,-921.5"/>
<polygon fill="#757575" stroke="#757575" points="1172.9,-925 1182.9,-921.5 1172.9,-918 1172.9,-925"/>
</g>
<!-- components/views/ProfileView.tsx -->
<g id="node48" class="node">
<title>components/views/ProfileView.tsx</title>
<path fill="none" stroke="#cfffac" d="M494.33,-542C494.33,-542 289.67,-542 289.67,-542 285.83,-542 282,-538.17 282,-534.33 282,-534.33 282,-526.67 282,-526.67 282,-522.83 285.83,-519 289.67,-519 289.67,-519 494.33,-519 494.33,-519 498.17,-519 502,-522.83 502,-526.67 502,-526.67 502,-534.33 502,-534.33 502,-538.17 498.17,-542 494.33,-542"/>
<text text-anchor="middle" x="392" y="-526.8" font-family="Arial" font-size="14.00" fill="#cfffac">components/views/ProfileView.tsx</text>
</g>
<!-- index.css -->
<g id="node49" class="node">
<title>index.css</title>
<path fill="none" stroke="#cfffac" d="M420.83,-421C420.83,-421 363.17,-421 363.17,-421 359.33,-421 355.5,-417.17 355.5,-413.33 355.5,-413.33 355.5,-405.67 355.5,-405.67 355.5,-401.83 359.33,-398 363.17,-398 363.17,-398 420.83,-398 420.83,-398 424.67,-398 428.5,-401.83 428.5,-405.67 428.5,-405.67 428.5,-413.33 428.5,-413.33 428.5,-417.17 424.67,-421 420.83,-421"/>
<text text-anchor="middle" x="392" y="-405.8" font-family="Arial" font-size="14.00" fill="#cfffac">index.css</text>
</g>
<!-- index.tsx -->
<g id="node50" class="node">
<title>index.tsx</title>
<path fill="none" stroke="#c6c5fe" d="M142.83,-359C142.83,-359 88.17,-359 88.17,-359 84.33,-359 80.5,-355.17 80.5,-351.33 80.5,-351.33 80.5,-343.67 80.5,-343.67 80.5,-339.83 84.33,-336 88.17,-336 88.17,-336 142.83,-336 142.83,-336 146.67,-336 150.5,-339.83 150.5,-343.67 150.5,-343.67 150.5,-351.33 150.5,-351.33 150.5,-355.17 146.67,-359 142.83,-359"/>
<text text-anchor="middle" x="115.5" y="-343.8" font-family="Arial" font-size="14.00" fill="#c6c5fe">index.tsx</text>
</g>
<!-- index.tsx&#45;&gt;components/containers/App.tsx -->
<g id="edge77" class="edge">
<title>index.tsx&#45;&gt;components/containers/App.tsx</title>
<path fill="none" stroke="#757575" d="M118.95,-335.82C128.71,-292.35 169.21,-138.91 267,-69.5 270.96,-66.69 275.17,-64.22 279.55,-62.04"/>
<polygon fill="#757575" stroke="#757575" points="281.03,-65.22 288.78,-57.99 278.21,-58.81 281.03,-65.22"/>
</g>
<!-- index.tsx&#45;&gt;main/RoutePath.ts -->
<g id="edge89" class="edge">
<title>index.tsx&#45;&gt;main/RoutePath.ts</title>
<path fill="none" stroke="#757575" d="M123.01,-335.58C141,-303.98 194.89,-218.13 267,-183.5 431.66,-104.42 997.01,-117.07 1200.11,-124.44"/>
<polygon fill="#757575" stroke="#757575" points="1200.25,-127.94 1210.37,-124.82 1200.51,-120.95 1200.25,-127.94"/>
</g>
<!-- index.tsx&#45;&gt;components/pages/AccountPage.tsx -->
<g id="edge78" class="edge">
<title>index.tsx&#45;&gt;components/pages/AccountPage.tsx</title>
<path fill="none" stroke="#757575" d="M126.79,-335.64C149.36,-310.49 206.06,-251.9 267,-224.5 271.43,-222.51 276.02,-220.71 280.73,-219.09"/>
<polygon fill="#757575" stroke="#757575" points="282.02,-222.36 290.5,-216.01 279.91,-215.68 282.02,-222.36"/>
</g>
<!-- index.tsx&#45;&gt;components/pages/AuthPage.tsx -->
<g id="edge79" class="edge">
<title>index.tsx&#45;&gt;components/pages/AuthPage.tsx</title>
<path fill="none" stroke="#757575" d="M150.52,-343.56C176.34,-342.62 210.73,-346.12 231,-367.5 277.05,-416.06 234.87,-607.79 267,-666.5 419.05,-944.29 546.72,-954.46 817,-1119.5 958.2,-1205.72 1143.85,-1273.26 1228.25,-1301.76"/>
<polygon fill="#757575" stroke="#757575" points="1227.19,-1305.1 1237.79,-1304.96 1229.42,-1298.46 1227.19,-1305.1"/>
</g>
<!-- index.tsx&#45;&gt;components/pages/HomePage.tsx -->
<g id="edge80" class="edge">
<title>index.tsx&#45;&gt;components/pages/HomePage.tsx</title>
<path fill="none" stroke="#757575" d="M150.62,-337.09C180.95,-328.11 226.63,-315.23 267,-306.5 278.13,-304.09 289.87,-301.84 301.52,-299.77"/>
<polygon fill="#757575" stroke="#757575" points="302.46,-303.16 311.72,-298 301.27,-296.26 302.46,-303.16"/>
</g>
<!-- index.tsx&#45;&gt;components/pages/MessagesPage.tsx -->
<g id="edge81" class="edge">
<title>index.tsx&#45;&gt;components/pages/MessagesPage.tsx</title>
<path fill="none" stroke="#757575" d="M150.71,-350.12C177.81,-352.19 217.52,-355.23 256.9,-358.24"/>
<polygon fill="#757575" stroke="#757575" points="256.66,-361.73 266.89,-359.01 257.19,-354.75 256.66,-361.73"/>
</g>
<!-- index.tsx&#45;&gt;components/pages/NotFoundPage.tsx -->
<g id="edge82" class="edge">
<title>index.tsx&#45;&gt;components/pages/NotFoundPage.tsx</title>
<path fill="none" stroke="#757575" d="M120.4,-335.83C133.87,-297.47 182.26,-174.47 267,-116.5 273.12,-112.32 279.77,-108.78 286.71,-105.8"/>
<polygon fill="#757575" stroke="#757575" points="288.28,-108.95 296.34,-102.07 285.75,-102.42 288.28,-108.95"/>
</g>
<!-- index.tsx&#45;&gt;components/pages/SellPage.tsx -->
<g id="edge83" class="edge">
<title>index.tsx&#45;&gt;components/pages/SellPage.tsx</title>
<path fill="none" stroke="#757575" d="M133.22,-335.89C160.11,-317.82 215.19,-283.21 267,-265.5 273.74,-263.2 280.78,-261.16 287.92,-259.35"/>
<polygon fill="#757575" stroke="#757575" points="288.8,-262.74 297.73,-257.02 287.19,-255.92 288.8,-262.74"/>
</g>
<!-- index.tsx&#45;&gt;components/views/CatalogView.tsx -->
<g id="edge84" class="edge">
<title>index.tsx&#45;&gt;components/views/CatalogView.tsx</title>
<path fill="none" stroke="#757575" d="M150.61,-344.84C175.62,-344.75 208.92,-348.76 231,-367.5 267.97,-398.88 229.74,-439.46 267,-470.5 353.4,-542.48 422.76,-448.14 517,-509.5 541.8,-525.64 530.17,-546.68 553,-565.5 569.24,-578.88 589.96,-588.67 609.22,-595.62"/>
<polygon fill="#757575" stroke="#757575" points="608.22,-598.98 618.82,-598.91 610.49,-592.36 608.22,-598.98"/>
</g>
<!-- index.tsx&#45;&gt;components/views/CatalogsView.tsx -->
<g id="edge85" class="edge">
<title>index.tsx&#45;&gt;components/views/CatalogsView.tsx</title>
<path fill="none" stroke="#757575" d="M150.67,-346.12C175.07,-346.78 207.58,-351.17 231,-367.5 257.14,-385.72 240.81,-411.34 267,-429.5 269.56,-431.28 272.23,-432.92 274.97,-434.44"/>
<polygon fill="#757575" stroke="#757575" points="273.47,-437.61 283.99,-438.89 276.57,-431.33 273.47,-437.61"/>
</g>
<!-- index.tsx&#45;&gt;components/views/ProductView.tsx -->
<g id="edge86" class="edge">
<title>index.tsx&#45;&gt;components/views/ProductView.tsx</title>
<path fill="none" stroke="#757575" d="M150.62,-343.98C176.13,-343.33 210.09,-347.03 231,-367.5 290.23,-425.49 217.78,-483.8 267,-550.5 428.41,-769.25 758.44,-872.64 895.12,-907.41"/>
<polygon fill="#757575" stroke="#757575" points="894.46,-910.85 905.01,-909.89 896.16,-904.06 894.46,-910.85"/>
</g>
<!-- index.tsx&#45;&gt;components/views/ProfileView.tsx -->
<g id="edge87" class="edge">
<title>index.tsx&#45;&gt;components/views/ProfileView.tsx</title>
<path fill="none" stroke="#757575" d="M150.52,-344.35C175.82,-343.94 209.53,-347.77 231,-367.5 277.35,-410.11 221.38,-461.12 267,-504.5 270.79,-508.1 274.94,-511.26 279.36,-514.02"/>
<polygon fill="#757575" stroke="#757575" points="277.71,-517.11 288.16,-518.87 281.09,-510.98 277.71,-517.11"/>
</g>
<!-- index.tsx&#45;&gt;index.css -->
<g id="edge88" class="edge">
<title>index.tsx&#45;&gt;index.css</title>
<path fill="none" stroke="#757575" d="M150.64,-350.26C173.84,-352.91 204.94,-357.97 231,-367.5 248.4,-373.86 249.59,-382.18 267,-388.5 292.03,-397.58 321.35,-402.77 345.2,-405.72"/>
<polygon fill="#757575" stroke="#757575" points="345.06,-409.23 355.39,-406.89 345.86,-402.28 345.06,-409.23"/>
</g>
<!-- reportWebVitals.ts -->
<g id="node51" class="node">
<title>reportWebVitals.ts</title>
<path fill="none" stroke="#cfffac" d="M447.83,-339C447.83,-339 336.17,-339 336.17,-339 332.33,-339 328.5,-335.17 328.5,-331.33 328.5,-331.33 328.5,-323.67 328.5,-323.67 328.5,-319.83 332.33,-316 336.17,-316 336.17,-316 447.83,-316 447.83,-316 451.67,-316 455.5,-319.83 455.5,-323.67 455.5,-323.67 455.5,-331.33 455.5,-331.33 455.5,-335.17 451.67,-339 447.83,-339"/>
<text text-anchor="middle" x="392" y="-323.8" font-family="Arial" font-size="14.00" fill="#cfffac">reportWebVitals.ts</text>
</g>
<!-- index.tsx&#45;&gt;reportWebVitals.ts -->
<g id="edge90" class="edge">
<title>index.tsx&#45;&gt;reportWebVitals.ts</title>
<path fill="none" stroke="#757575" d="M150.71,-345.01C192.36,-341.97 263.85,-336.76 318.06,-332.81"/>
<polygon fill="#757575" stroke="#757575" points="318.59,-336.29 328.31,-332.07 318.08,-329.3 318.59,-336.29"/>
</g>
<!-- react&#45;app&#45;env.d.ts -->
<g id="node52" class="node">
<title>react&#45;app&#45;env.d.ts</title>
<path fill="none" stroke="#cfffac" d="M170.33,-441C170.33,-441 60.67,-441 60.67,-441 56.83,-441 53,-437.17 53,-433.33 53,-433.33 53,-425.67 53,-425.67 53,-421.83 56.83,-418 60.67,-418 60.67,-418 170.33,-418 170.33,-418 174.17,-418 178,-421.83 178,-425.67 178,-425.67 178,-433.33 178,-433.33 178,-437.17 174.17,-441 170.33,-441"/>
<text text-anchor="middle" x="115.5" y="-425.8" font-family="Arial" font-size="14.00" fill="#cfffac">react&#45;app&#45;env.d.ts</text>
</g>
<!-- services/AccountService.ts -->
<g id="node53" class="node">
<title>services/AccountService.ts</title>
<path fill="none" stroke="#cfffac" d="M196.83,-482C196.83,-482 34.17,-482 34.17,-482 30.33,-482 26.5,-478.17 26.5,-474.33 26.5,-474.33 26.5,-466.67 26.5,-466.67 26.5,-462.83 30.33,-459 34.17,-459 34.17,-459 196.83,-459 196.83,-459 200.67,-459 204.5,-462.83 204.5,-466.67 204.5,-466.67 204.5,-474.33 204.5,-474.33 204.5,-478.17 200.67,-482 196.83,-482"/>
<text text-anchor="middle" x="115.5" y="-466.8" font-family="Arial" font-size="14.00" fill="#cfffac">services/AccountService.ts</text>
</g>
<!-- services/LocalData.ts -->
<g id="node54" class="node">
<title>services/LocalData.ts</title>
<path fill="none" stroke="#cfffac" d="M180.33,-523C180.33,-523 50.67,-523 50.67,-523 46.83,-523 43,-519.17 43,-515.33 43,-515.33 43,-507.67 43,-507.67 43,-503.83 46.83,-500 50.67,-500 50.67,-500 180.33,-500 180.33,-500 184.17,-500 188,-503.83 188,-507.67 188,-507.67 188,-515.33 188,-515.33 188,-519.17 184.17,-523 180.33,-523"/>
<text text-anchor="middle" x="115.5" y="-507.8" font-family="Arial" font-size="14.00" fill="#cfffac">services/LocalData.ts</text>
</g>
<!-- services/ProductService.ts -->
<g id="node55" class="node">
<title>services/ProductService.ts</title>
<path fill="none" stroke="#cfffac" d="M195.83,-564C195.83,-564 35.17,-564 35.17,-564 31.33,-564 27.5,-560.17 27.5,-556.33 27.5,-556.33 27.5,-548.67 27.5,-548.67 27.5,-544.83 31.33,-541 35.17,-541 35.17,-541 195.83,-541 195.83,-541 199.67,-541 203.5,-544.83 203.5,-548.67 203.5,-548.67 203.5,-556.33 203.5,-556.33 203.5,-560.17 199.67,-564 195.83,-564"/>
<text text-anchor="middle" x="115.5" y="-548.8" font-family="Arial" font-size="14.00" fill="#cfffac">services/ProductService.ts</text>
</g>
<!-- setupTests.ts -->
<g id="node57" class="node">
<title>setupTests.ts</title>
<path fill="none" stroke="#cfffac" d="M155.33,-605C155.33,-605 75.67,-605 75.67,-605 71.83,-605 68,-601.17 68,-597.33 68,-597.33 68,-589.67 68,-589.67 68,-585.83 71.83,-582 75.67,-582 75.67,-582 155.33,-582 155.33,-582 159.17,-582 163,-585.83 163,-589.67 163,-589.67 163,-597.33 163,-597.33 163,-601.17 159.17,-605 155.33,-605"/>
<text text-anchor="middle" x="115.5" y="-589.8" font-family="Arial" font-size="14.00" fill="#cfffac">setupTests.ts</text>
</g>
</g>
</svg>
