<?xml version="1.0" encoding="UTF-8" standalone="no"?>
<!DOCTYPE svg PUBLIC "-//W3C//DTD SVG 1.1//EN"
 "http://www.w3.org/Graphics/SVG/1.1/DTD/svg11.dtd">
<!-- Generated by graphviz version 2.43.0 (0)
 -->
<!-- Title: G Pages: 1 -->
<svg width="2274pt" height="998pt"
 viewBox="0.00 0.00 2274.20 998.47" xmlns="http://www.w3.org/2000/svg" xmlns:xlink="http://www.w3.org/1999/xlink">
<g id="graph0" class="graph" transform="scale(1 1) rotate(0) translate(21.6 976.87)">
<title>G</title>
<polygon fill="#111111" stroke="transparent" points="-21.6,21.6 -21.6,-976.87 2252.6,-976.87 2252.6,21.6 -21.6,21.6"/>
<!-- components/AuthContainer.tsx -->
<g id="node1" class="node">
<title>components/AuthContainer.tsx</title>
<path fill="none" stroke="#c6c5fe" d="M424.83,-291.27C424.83,-291.27 239.17,-291.27 239.17,-291.27 235.33,-291.27 231.5,-287.44 231.5,-283.6 231.5,-283.6 231.5,-275.94 231.5,-275.94 231.5,-272.1 235.33,-268.27 239.17,-268.27 239.17,-268.27 424.83,-268.27 424.83,-268.27 428.67,-268.27 432.5,-272.1 432.5,-275.94 432.5,-275.94 432.5,-283.6 432.5,-283.6 432.5,-287.44 428.67,-291.27 424.83,-291.27"/>
<text text-anchor="middle" x="332" y="-276.07" font-family="Arial" font-size="14.00" fill="#c6c5fe">components/AuthContainer.tsx</text>
</g>
<!-- services/Firebase.ts -->
<g id="node2" class="node">
<title>services/Firebase.ts</title>
<path fill="none" stroke="#c6c5fe" d="M946.33,-347.27C946.33,-347.27 824.67,-347.27 824.67,-347.27 820.83,-347.27 817,-343.44 817,-339.6 817,-339.6 817,-331.94 817,-331.94 817,-328.1 820.83,-324.27 824.67,-324.27 824.67,-324.27 946.33,-324.27 946.33,-324.27 950.17,-324.27 954,-328.1 954,-331.94 954,-331.94 954,-339.6 954,-339.6 954,-343.44 950.17,-347.27 946.33,-347.27"/>
<text text-anchor="middle" x="885.5" y="-332.07" font-family="Arial" font-size="14.00" fill="#c6c5fe">services/Firebase.ts</text>
</g>
<!-- components/AuthContainer.tsx&#45;&gt;services/Firebase.ts -->
<g id="edge1" class="edge">
<title>components/AuthContainer.tsx&#45;&gt;services/Firebase.ts</title>
<path fill="none" stroke="#757575" d="M432.55,-289.88C539.98,-300.79 708.8,-317.93 806.85,-327.89"/>
<polygon fill="#757575" stroke="#757575" points="806.68,-331.39 816.98,-328.92 807.39,-324.42 806.68,-331.39"/>
</g>
<!-- types/models.d.ts -->
<g id="node23" class="node">
<title>types/models.d.ts</title>
<path fill="none" stroke="#cfffac" d="M1211.33,-191.27C1211.33,-191.27 1104.67,-191.27 1104.67,-191.27 1100.83,-191.27 1097,-187.44 1097,-183.6 1097,-183.6 1097,-175.94 1097,-175.94 1097,-172.1 1100.83,-168.27 1104.67,-168.27 1104.67,-168.27 1211.33,-168.27 1211.33,-168.27 1215.17,-168.27 1219,-172.1 1219,-175.94 1219,-175.94 1219,-183.6 1219,-183.6 1219,-187.44 1215.17,-191.27 1211.33,-191.27"/>
<text text-anchor="middle" x="1158" y="-176.07" font-family="Arial" font-size="14.00" fill="#cfffac">types/models.d.ts</text>
</g>
<!-- services/Firebase.ts&#45;&gt;types/models.d.ts -->
<g id="edge53" class="edge">
<title>services/Firebase.ts&#45;&gt;types/models.d.ts</title>
<path fill="none" stroke="#757575" d="M909.81,-324.25C934.66,-311.81 975.03,-291.16 1009,-271.77 1052.33,-247.03 1101.26,-215.98 1130.59,-197.02"/>
<polygon fill="#757575" stroke="#757575" points="1132.55,-199.92 1139.04,-191.55 1128.74,-194.05 1132.55,-199.92"/>
</g>
<!-- components/AuthFrom.tsx -->
<g id="node3" class="node">
<title>components/AuthFrom.tsx</title>
<path fill="none" stroke="#ff6c60" d="M1238.33,-468.27C1238.33,-468.27 1077.67,-468.27 1077.67,-468.27 1073.83,-468.27 1070,-464.44 1070,-460.6 1070,-460.6 1070,-452.94 1070,-452.94 1070,-449.1 1073.83,-445.27 1077.67,-445.27 1077.67,-445.27 1238.33,-445.27 1238.33,-445.27 1242.17,-445.27 1246,-449.1 1246,-452.94 1246,-452.94 1246,-460.6 1246,-460.6 1246,-464.44 1242.17,-468.27 1238.33,-468.27"/>
<text text-anchor="middle" x="1158" y="-453.07" font-family="Arial" font-size="14.00" fill="#ff6c60">components/AuthFrom.tsx</text>
</g>
<!-- components/Form.tsx -->
<g id="node4" class="node">
<title>components/Form.tsx</title>
<path fill="none" stroke="#cfffac" d="M1572.33,-468.27C1572.33,-468.27 1439.67,-468.27 1439.67,-468.27 1435.83,-468.27 1432,-464.44 1432,-460.6 1432,-460.6 1432,-452.94 1432,-452.94 1432,-449.1 1435.83,-445.27 1439.67,-445.27 1439.67,-445.27 1572.33,-445.27 1572.33,-445.27 1576.17,-445.27 1580,-449.1 1580,-452.94 1580,-452.94 1580,-460.6 1580,-460.6 1580,-464.44 1576.17,-468.27 1572.33,-468.27"/>
<text text-anchor="middle" x="1506" y="-453.07" font-family="Arial" font-size="14.00" fill="#cfffac">components/Form.tsx</text>
</g>
<!-- components/AuthFrom.tsx&#45;&gt;components/Form.tsx -->
<g id="edge2" class="edge">
<title>components/AuthFrom.tsx&#45;&gt;components/Form.tsx</title>
<path fill="none" stroke="#757575" d="M1246.31,-456.77C1300.1,-456.77 1368.67,-456.77 1421.7,-456.77"/>
<polygon fill="#757575" stroke="#757575" points="1421.75,-460.27 1431.75,-456.77 1421.75,-453.27 1421.75,-460.27"/>
</g>
<!-- components/FormInputGroup.tsx -->
<g id="node5" class="node">
<title>components/FormInputGroup.tsx</title>
<path fill="none" stroke="#ff6c60" d="M985.83,-427.27C985.83,-427.27 785.17,-427.27 785.17,-427.27 781.33,-427.27 777.5,-423.44 777.5,-419.6 777.5,-419.6 777.5,-411.94 777.5,-411.94 777.5,-408.1 781.33,-404.27 785.17,-404.27 785.17,-404.27 985.83,-404.27 985.83,-404.27 989.67,-404.27 993.5,-408.1 993.5,-411.94 993.5,-411.94 993.5,-419.6 993.5,-419.6 993.5,-423.44 989.67,-427.27 985.83,-427.27"/>
<text text-anchor="middle" x="885.5" y="-412.07" font-family="Arial" font-size="14.00" fill="#ff6c60">components/FormInputGroup.tsx</text>
</g>
<!-- components/AuthFrom.tsx&#45;&gt;components/FormInputGroup.tsx -->
<g id="edge3" class="edge">
<title>components/AuthFrom.tsx&#45;&gt;components/FormInputGroup.tsx</title>
<path fill="none" stroke="#757575" d="M1069.93,-449.93C1026.85,-444.14 976.28,-436.18 939.16,-429.23"/>
<polygon fill="#757575" stroke="#757575" points="939.54,-425.74 929.06,-427.3 938.23,-432.61 939.54,-425.74"/>
</g>
<!-- components/FormInputGroup.tsx&#45;&gt;components/AuthFrom.tsx -->
<g id="edge4" class="edge">
<title>components/FormInputGroup.tsx&#45;&gt;components/AuthFrom.tsx</title>
<path fill="none" stroke="#757575" d="M993.8,-425.41C1031.86,-430.83 1073.02,-437.45 1104.48,-443.34"/>
<polygon fill="#757575" stroke="#757575" points="1103.86,-446.78 1114.34,-445.22 1105.17,-439.91 1103.86,-446.78"/>
</g>
<!-- components/FormInputGroup.scss -->
<g id="node7" class="node">
<title>components/FormInputGroup.scss</title>
<path fill="none" stroke="#cfffac" d="M1263.33,-427.27C1263.33,-427.27 1052.67,-427.27 1052.67,-427.27 1048.83,-427.27 1045,-423.44 1045,-419.6 1045,-419.6 1045,-411.94 1045,-411.94 1045,-408.1 1048.83,-404.27 1052.67,-404.27 1052.67,-404.27 1263.33,-404.27 1263.33,-404.27 1267.17,-404.27 1271,-408.1 1271,-411.94 1271,-411.94 1271,-419.6 1271,-419.6 1271,-423.44 1267.17,-427.27 1263.33,-427.27"/>
<text text-anchor="middle" x="1158" y="-412.07" font-family="Arial" font-size="14.00" fill="#cfffac">components/FormInputGroup.scss</text>
</g>
<!-- components/FormInputGroup.tsx&#45;&gt;components/FormInputGroup.scss -->
<g id="edge5" class="edge">
<title>components/FormInputGroup.tsx&#45;&gt;components/FormInputGroup.scss</title>
<path fill="none" stroke="#757575" d="M993.8,-415.77C1007.2,-415.77 1020.98,-415.77 1034.59,-415.77"/>
<polygon fill="#757575" stroke="#757575" points="1034.95,-419.27 1044.95,-415.77 1034.95,-412.27 1034.95,-419.27"/>
</g>
<!-- components/Footer.tsx -->
<g id="node6" class="node">
<title>components/Footer.tsx</title>
<path fill="none" stroke="#cfffac" d="M159.33,-249.27C159.33,-249.27 20.67,-249.27 20.67,-249.27 16.83,-249.27 13,-245.44 13,-241.6 13,-241.6 13,-233.94 13,-233.94 13,-230.1 16.83,-226.27 20.67,-226.27 20.67,-226.27 159.33,-226.27 159.33,-226.27 163.17,-226.27 167,-230.1 167,-233.94 167,-233.94 167,-241.6 167,-241.6 167,-245.44 163.17,-249.27 159.33,-249.27"/>
<text text-anchor="middle" x="90" y="-234.07" font-family="Arial" font-size="14.00" fill="#cfffac">components/Footer.tsx</text>
</g>
<!-- components/Friends.tsx -->
<g id="node8" class="node">
<title>components/Friends.tsx</title>
<path fill="none" stroke="#cfffac" d="M162.83,-403.27C162.83,-403.27 17.17,-403.27 17.17,-403.27 13.33,-403.27 9.5,-399.44 9.5,-395.6 9.5,-395.6 9.5,-387.94 9.5,-387.94 9.5,-384.1 13.33,-380.27 17.17,-380.27 17.17,-380.27 162.83,-380.27 162.83,-380.27 166.67,-380.27 170.5,-384.1 170.5,-387.94 170.5,-387.94 170.5,-395.6 170.5,-395.6 170.5,-399.44 166.67,-403.27 162.83,-403.27"/>
<text text-anchor="middle" x="90" y="-388.07" font-family="Arial" font-size="14.00" fill="#cfffac">components/Friends.tsx</text>
</g>
<!-- components/MainMenu.tsx -->
<g id="node9" class="node">
<title>components/MainMenu.tsx</title>
<path fill="none" stroke="#c6c5fe" d="M172.33,-500.27C172.33,-500.27 7.67,-500.27 7.67,-500.27 3.83,-500.27 0,-496.44 0,-492.6 0,-492.6 0,-484.94 0,-484.94 0,-481.1 3.83,-477.27 7.67,-477.27 7.67,-477.27 172.33,-477.27 172.33,-477.27 176.17,-477.27 180,-481.1 180,-484.94 180,-484.94 180,-492.6 180,-492.6 180,-496.44 176.17,-500.27 172.33,-500.27"/>
<text text-anchor="middle" x="90" y="-485.07" font-family="Arial" font-size="14.00" fill="#c6c5fe">components/MainMenu.tsx</text>
</g>
<!-- services/LocalData.ts -->
<g id="node10" class="node">
<title>services/LocalData.ts</title>
<path fill="none" stroke="#cfffac" d="M396.83,-500.27C396.83,-500.27 267.17,-500.27 267.17,-500.27 263.33,-500.27 259.5,-496.44 259.5,-492.6 259.5,-492.6 259.5,-484.94 259.5,-484.94 259.5,-481.1 263.33,-477.27 267.17,-477.27 267.17,-477.27 396.83,-477.27 396.83,-477.27 400.67,-477.27 404.5,-481.1 404.5,-484.94 404.5,-484.94 404.5,-492.6 404.5,-492.6 404.5,-496.44 400.67,-500.27 396.83,-500.27"/>
<text text-anchor="middle" x="332" y="-485.07" font-family="Arial" font-size="14.00" fill="#cfffac">services/LocalData.ts</text>
</g>
<!-- components/MainMenu.tsx&#45;&gt;services/LocalData.ts -->
<g id="edge6" class="edge">
<title>components/MainMenu.tsx&#45;&gt;services/LocalData.ts</title>
<path fill="none" stroke="#757575" d="M180.03,-488.77C202.7,-488.77 226.96,-488.77 249.25,-488.77"/>
<polygon fill="#757575" stroke="#757575" points="249.34,-492.27 259.34,-488.77 249.34,-485.27 249.34,-492.27"/>
</g>
<!-- components/Menu/AccountMenu.tsx -->
<g id="node11" class="node">
<title>components/Menu/AccountMenu.tsx</title>
<path fill="none" stroke="#c6c5fe" d="M1616.83,-769.27C1616.83,-769.27 1395.17,-769.27 1395.17,-769.27 1391.33,-769.27 1387.5,-765.44 1387.5,-761.6 1387.5,-761.6 1387.5,-753.94 1387.5,-753.94 1387.5,-750.1 1391.33,-746.27 1395.17,-746.27 1395.17,-746.27 1616.83,-746.27 1616.83,-746.27 1620.67,-746.27 1624.5,-750.1 1624.5,-753.94 1624.5,-753.94 1624.5,-761.6 1624.5,-761.6 1624.5,-765.44 1620.67,-769.27 1616.83,-769.27"/>
<text text-anchor="middle" x="1506" y="-754.07" font-family="Arial" font-size="14.00" fill="#c6c5fe">components/Menu/AccountMenu.tsx</text>
</g>
<!-- types/RouteTemplate.d.ts -->
<g id="node12" class="node">
<title>types/RouteTemplate.d.ts</title>
<path fill="none" stroke="#c6c5fe" d="M1993.33,-690.27C1993.33,-690.27 1838.67,-690.27 1838.67,-690.27 1834.83,-690.27 1831,-686.44 1831,-682.6 1831,-682.6 1831,-674.94 1831,-674.94 1831,-671.1 1834.83,-667.27 1838.67,-667.27 1838.67,-667.27 1993.33,-667.27 1993.33,-667.27 1997.17,-667.27 2001,-671.1 2001,-674.94 2001,-674.94 2001,-682.6 2001,-682.6 2001,-686.44 1997.17,-690.27 1993.33,-690.27"/>
<text text-anchor="middle" x="1916" y="-675.07" font-family="Arial" font-size="14.00" fill="#c6c5fe">types/RouteTemplate.d.ts</text>
</g>
<!-- components/Menu/AccountMenu.tsx&#45;&gt;types/RouteTemplate.d.ts -->
<g id="edge7" class="edge">
<title>components/Menu/AccountMenu.tsx&#45;&gt;types/RouteTemplate.d.ts</title>
<path fill="none" stroke="#757575" d="M1566.76,-746.2C1640.8,-731.86 1766.72,-707.48 1845.14,-692.3"/>
<polygon fill="#757575" stroke="#757575" points="1846.26,-695.65 1855.41,-690.31 1844.93,-688.78 1846.26,-695.65"/>
</g>
<!-- types/type.d.ts -->
<g id="node43" class="node">
<title>types/type.d.ts</title>
<path fill="none" stroke="#cfffac" d="M2223.33,-729.27C2223.33,-729.27 2134.67,-729.27 2134.67,-729.27 2130.83,-729.27 2127,-725.44 2127,-721.6 2127,-721.6 2127,-713.94 2127,-713.94 2127,-710.1 2130.83,-706.27 2134.67,-706.27 2134.67,-706.27 2223.33,-706.27 2223.33,-706.27 2227.17,-706.27 2231,-710.1 2231,-713.94 2231,-713.94 2231,-721.6 2231,-721.6 2231,-725.44 2227.17,-729.27 2223.33,-729.27"/>
<text text-anchor="middle" x="2179" y="-714.07" font-family="Arial" font-size="14.00" fill="#cfffac">types/type.d.ts</text>
</g>
<!-- types/RouteTemplate.d.ts&#45;&gt;types/type.d.ts -->
<g id="edge56" class="edge">
<title>types/RouteTemplate.d.ts&#45;&gt;types/type.d.ts</title>
<path fill="none" stroke="#757575" d="M1994.25,-690.31C2033.41,-696.17 2080.29,-703.17 2116.9,-708.64"/>
<polygon fill="#757575" stroke="#757575" points="2116.53,-712.12 2126.93,-710.14 2117.56,-705.2 2116.53,-712.12"/>
</g>
<!-- components/Menu/DropdownMenu/AccountDropdownMenu.tsx -->
<g id="node13" class="node">
<title>components/Menu/DropdownMenu/AccountDropdownMenu.tsx</title>
<path fill="none" stroke="#c6c5fe" d="M1697.33,-552.27C1697.33,-552.27 1314.67,-552.27 1314.67,-552.27 1310.83,-552.27 1307,-548.44 1307,-544.6 1307,-544.6 1307,-536.94 1307,-536.94 1307,-533.1 1310.83,-529.27 1314.67,-529.27 1314.67,-529.27 1697.33,-529.27 1697.33,-529.27 1701.17,-529.27 1705,-533.1 1705,-536.94 1705,-536.94 1705,-544.6 1705,-544.6 1705,-548.44 1701.17,-552.27 1697.33,-552.27"/>
<text text-anchor="middle" x="1506" y="-537.07" font-family="Arial" font-size="14.00" fill="#c6c5fe">components/Menu/DropdownMenu/AccountDropdownMenu.tsx</text>
</g>
<!-- components/Menu/DropdownMenu/AccountDropdownMenu.tsx&#45;&gt;types/RouteTemplate.d.ts -->
<g id="edge9" class="edge">
<title>components/Menu/DropdownMenu/AccountDropdownMenu.tsx&#45;&gt;types/RouteTemplate.d.ts</title>
<path fill="none" stroke="#757575" d="M1673.39,-552.29C1684.19,-554.66 1694.81,-557.46 1705,-560.77 1722.62,-566.5 1724.91,-572.59 1741,-581.77 1791.25,-610.43 1850.12,-643.05 1884.89,-662.22"/>
<polygon fill="#757575" stroke="#757575" points="1883.59,-665.5 1894.03,-667.26 1886.96,-659.37 1883.59,-665.5"/>
</g>
<!-- components/Menu/DropdownMenu/DropdownMenu.tsx -->
<g id="node14" class="node">
<title>components/Menu/DropdownMenu/DropdownMenu.tsx</title>
<path fill="none" stroke="#cfffac" d="M2083.33,-573.27C2083.33,-573.27 1748.67,-573.27 1748.67,-573.27 1744.83,-573.27 1741,-569.44 1741,-565.6 1741,-565.6 1741,-557.94 1741,-557.94 1741,-554.1 1744.83,-550.27 1748.67,-550.27 1748.67,-550.27 2083.33,-550.27 2083.33,-550.27 2087.17,-550.27 2091,-554.1 2091,-557.94 2091,-557.94 2091,-565.6 2091,-565.6 2091,-569.44 2087.17,-573.27 2083.33,-573.27"/>
<text text-anchor="middle" x="1916" y="-558.07" font-family="Arial" font-size="14.00" fill="#cfffac">components/Menu/DropdownMenu/DropdownMenu.tsx</text>
</g>
<!-- components/Menu/DropdownMenu/AccountDropdownMenu.tsx&#45;&gt;components/Menu/DropdownMenu/DropdownMenu.tsx -->
<g id="edge8" class="edge">
<title>components/Menu/DropdownMenu/AccountDropdownMenu.tsx&#45;&gt;components/Menu/DropdownMenu/DropdownMenu.tsx</title>
<path fill="none" stroke="#757575" d="M1705.02,-550.96C1713.63,-551.41 1722.26,-551.85 1730.83,-552.29"/>
<polygon fill="#757575" stroke="#757575" points="1730.71,-555.79 1740.88,-552.81 1731.07,-548.8 1730.71,-555.79"/>
</g>
<!-- components/Menu/DropdownMenu/SellDropdownMenu.tsx -->
<g id="node15" class="node">
<title>components/Menu/DropdownMenu/SellDropdownMenu.tsx</title>
<path fill="none" stroke="#c6c5fe" d="M1684.33,-593.27C1684.33,-593.27 1327.67,-593.27 1327.67,-593.27 1323.83,-593.27 1320,-589.44 1320,-585.6 1320,-585.6 1320,-577.94 1320,-577.94 1320,-574.1 1323.83,-570.27 1327.67,-570.27 1327.67,-570.27 1684.33,-570.27 1684.33,-570.27 1688.17,-570.27 1692,-574.1 1692,-577.94 1692,-577.94 1692,-585.6 1692,-585.6 1692,-589.44 1688.17,-593.27 1684.33,-593.27"/>
<text text-anchor="middle" x="1506" y="-578.07" font-family="Arial" font-size="14.00" fill="#c6c5fe">components/Menu/DropdownMenu/SellDropdownMenu.tsx</text>
</g>
<!-- components/Menu/DropdownMenu/SellDropdownMenu.tsx&#45;&gt;types/RouteTemplate.d.ts -->
<g id="edge11" class="edge">
<title>components/Menu/DropdownMenu/SellDropdownMenu.tsx&#45;&gt;types/RouteTemplate.d.ts</title>
<path fill="none" stroke="#757575" d="M1624.16,-593.3C1650.91,-597 1679.08,-601.75 1705,-607.77 1766.6,-622.08 1835.65,-647.28 1877.2,-663.48"/>
<polygon fill="#757575" stroke="#757575" points="1876.05,-666.8 1886.64,-667.2 1878.62,-660.28 1876.05,-666.8"/>
</g>
<!-- components/Menu/DropdownMenu/SellDropdownMenu.tsx&#45;&gt;components/Menu/DropdownMenu/DropdownMenu.tsx -->
<g id="edge10" class="edge">
<title>components/Menu/DropdownMenu/SellDropdownMenu.tsx&#45;&gt;components/Menu/DropdownMenu/DropdownMenu.tsx</title>
<path fill="none" stroke="#757575" d="M1692.2,-572.69C1705,-572.07 1717.9,-571.43 1730.69,-570.81"/>
<polygon fill="#757575" stroke="#757575" points="1731.11,-574.29 1740.93,-570.3 1730.77,-567.3 1731.11,-574.29"/>
</g>
<!-- components/Menu/HomeMenu.tsx -->
<g id="node16" class="node">
<title>components/Menu/HomeMenu.tsx</title>
<path fill="none" stroke="#c6c5fe" d="M1262.83,-630.27C1262.83,-630.27 1053.17,-630.27 1053.17,-630.27 1049.33,-630.27 1045.5,-626.44 1045.5,-622.6 1045.5,-622.6 1045.5,-614.94 1045.5,-614.94 1045.5,-611.1 1049.33,-607.27 1053.17,-607.27 1053.17,-607.27 1262.83,-607.27 1262.83,-607.27 1266.67,-607.27 1270.5,-611.1 1270.5,-614.94 1270.5,-614.94 1270.5,-622.6 1270.5,-622.6 1270.5,-626.44 1266.67,-630.27 1262.83,-630.27"/>
<text text-anchor="middle" x="1158" y="-615.07" font-family="Arial" font-size="14.00" fill="#c6c5fe">components/Menu/HomeMenu.tsx</text>
</g>
<!-- components/Menu/HomeMenu.tsx&#45;&gt;types/RouteTemplate.d.ts -->
<g id="edge14" class="edge">
<title>components/Menu/HomeMenu.tsx&#45;&gt;types/RouteTemplate.d.ts</title>
<path fill="none" stroke="#757575" d="M1270.63,-620.82C1381.17,-623.66 1555.13,-630.33 1705,-645.77 1751.03,-650.51 1802.34,-658.52 1842.72,-665.47"/>
<polygon fill="#757575" stroke="#757575" points="1842.29,-668.94 1852.74,-667.21 1843.49,-662.05 1842.29,-668.94"/>
</g>
<!-- components/Menu/HomeMenu.tsx&#45;&gt;components/Menu/DropdownMenu/AccountDropdownMenu.tsx -->
<g id="edge12" class="edge">
<title>components/Menu/HomeMenu.tsx&#45;&gt;components/Menu/DropdownMenu/AccountDropdownMenu.tsx</title>
<path fill="none" stroke="#757575" d="M1225.93,-607.25C1241.22,-603.21 1257.06,-597.85 1271,-590.77 1289.57,-581.34 1287.8,-568.84 1307,-560.77 1311.71,-558.79 1316.53,-556.98 1321.44,-555.31"/>
<polygon fill="#757575" stroke="#757575" points="1322.51,-558.65 1330.98,-552.29 1320.39,-551.97 1322.51,-558.65"/>
</g>
<!-- components/Menu/HomeMenu.tsx&#45;&gt;components/Menu/DropdownMenu/SellDropdownMenu.tsx -->
<g id="edge13" class="edge">
<title>components/Menu/HomeMenu.tsx&#45;&gt;components/Menu/DropdownMenu/SellDropdownMenu.tsx</title>
<path fill="none" stroke="#757575" d="M1266.58,-607.27C1304.73,-603.19 1347.86,-598.58 1386.84,-594.41"/>
<polygon fill="#757575" stroke="#757575" points="1387.62,-597.84 1397.19,-593.3 1386.87,-590.88 1387.62,-597.84"/>
</g>
<!-- components/ModalForm.scss -->
<g id="node17" class="node">
<title>components/ModalForm.scss</title>
<path fill="none" stroke="#cfffac" d="M975.33,-191.27C975.33,-191.27 795.67,-191.27 795.67,-191.27 791.83,-191.27 788,-187.44 788,-183.6 788,-183.6 788,-175.94 788,-175.94 788,-172.1 791.83,-168.27 795.67,-168.27 795.67,-168.27 975.33,-168.27 975.33,-168.27 979.17,-168.27 983,-172.1 983,-175.94 983,-175.94 983,-183.6 983,-183.6 983,-187.44 979.17,-191.27 975.33,-191.27"/>
<text text-anchor="middle" x="885.5" y="-176.07" font-family="Arial" font-size="14.00" fill="#cfffac">components/ModalForm.scss</text>
</g>
<!-- components/ModalForm.tsx -->
<g id="node18" class="node">
<title>components/ModalForm.tsx</title>
<path fill="none" stroke="#c6c5fe" d="M689.83,-191.27C689.83,-191.27 520.17,-191.27 520.17,-191.27 516.33,-191.27 512.5,-187.44 512.5,-183.6 512.5,-183.6 512.5,-175.94 512.5,-175.94 512.5,-172.1 516.33,-168.27 520.17,-168.27 520.17,-168.27 689.83,-168.27 689.83,-168.27 693.67,-168.27 697.5,-172.1 697.5,-175.94 697.5,-175.94 697.5,-183.6 697.5,-183.6 697.5,-187.44 693.67,-191.27 689.83,-191.27"/>
<text text-anchor="middle" x="605" y="-176.07" font-family="Arial" font-size="14.00" fill="#c6c5fe">components/ModalForm.tsx</text>
</g>
<!-- components/ModalForm.tsx&#45;&gt;components/ModalForm.scss -->
<g id="edge15" class="edge">
<title>components/ModalForm.tsx&#45;&gt;components/ModalForm.scss</title>
<path fill="none" stroke="#757575" d="M697.58,-179.77C723.16,-179.77 751.19,-179.77 777.58,-179.77"/>
<polygon fill="#757575" stroke="#757575" points="777.6,-183.27 787.6,-179.77 777.6,-176.27 777.6,-183.27"/>
</g>
<!-- components/Navbar.tsx -->
<g id="node19" class="node">
<title>components/Navbar.tsx</title>
<path fill="none" stroke="#cfffac" d="M161.33,-791.27C161.33,-791.27 18.67,-791.27 18.67,-791.27 14.83,-791.27 11,-787.44 11,-783.6 11,-783.6 11,-775.94 11,-775.94 11,-772.1 14.83,-768.27 18.67,-768.27 18.67,-768.27 161.33,-768.27 161.33,-768.27 165.17,-768.27 169,-772.1 169,-775.94 169,-775.94 169,-783.6 169,-783.6 169,-787.44 165.17,-791.27 161.33,-791.27"/>
<text text-anchor="middle" x="90" y="-776.07" font-family="Arial" font-size="14.00" fill="#cfffac">components/Navbar.tsx</text>
</g>
<!-- components/Page.tsx -->
<g id="node20" class="node">
<title>components/Page.tsx</title>
<path fill="none" stroke="#cfffac" d="M1223.83,-749.27C1223.83,-749.27 1092.17,-749.27 1092.17,-749.27 1088.33,-749.27 1084.5,-745.44 1084.5,-741.6 1084.5,-741.6 1084.5,-733.94 1084.5,-733.94 1084.5,-730.1 1088.33,-726.27 1092.17,-726.27 1092.17,-726.27 1223.83,-726.27 1223.83,-726.27 1227.67,-726.27 1231.5,-730.1 1231.5,-733.94 1231.5,-733.94 1231.5,-741.6 1231.5,-741.6 1231.5,-745.44 1227.67,-749.27 1223.83,-749.27"/>
<text text-anchor="middle" x="1158" y="-734.07" font-family="Arial" font-size="14.00" fill="#cfffac">components/Page.tsx</text>
</g>
<!-- components/ProductForm.tsx -->
<g id="node21" class="node">
<title>components/ProductForm.tsx</title>
<path fill="none" stroke="#c6c5fe" d="M694.33,-271.27C694.33,-271.27 515.67,-271.27 515.67,-271.27 511.83,-271.27 508,-267.44 508,-263.6 508,-263.6 508,-255.94 508,-255.94 508,-252.1 511.83,-248.27 515.67,-248.27 515.67,-248.27 694.33,-248.27 694.33,-248.27 698.17,-248.27 702,-252.1 702,-255.94 702,-255.94 702,-263.6 702,-263.6 702,-267.44 698.17,-271.27 694.33,-271.27"/>
<text text-anchor="middle" x="605" y="-256.07" font-family="Arial" font-size="14.00" fill="#c6c5fe">components/ProductForm.tsx</text>
</g>
<!-- components/ProductForm.tsx&#45;&gt;components/Form.tsx -->
<g id="edge16" class="edge">
<title>components/ProductForm.tsx&#45;&gt;components/Form.tsx</title>
<path fill="none" stroke="#757575" d="M702.08,-270.33C783.98,-279.94 904.66,-295.55 1009,-314.77 1126.58,-336.43 1156.13,-342.62 1271,-375.77 1340.26,-395.76 1419.19,-424.32 1465.41,-441.64"/>
<polygon fill="#757575" stroke="#757575" points="1464.44,-445.02 1475.03,-445.27 1466.91,-438.47 1464.44,-445.02"/>
</g>
<!-- components/ProductForm.tsx&#45;&gt;components/FormInputGroup.tsx -->
<g id="edge17" class="edge">
<title>components/ProductForm.tsx&#45;&gt;components/FormInputGroup.tsx</title>
<path fill="none" stroke="#757575" d="M623.45,-271.28C651.95,-289.89 710.47,-327.38 762,-355.77 790.93,-371.71 824.7,-388.09 849.45,-399.7"/>
<polygon fill="#757575" stroke="#757575" points="848.25,-403.01 858.8,-404.06 851.21,-396.66 848.25,-403.01"/>
</g>
<!-- services/RestService.ts -->
<g id="node22" class="node">
<title>services/RestService.ts</title>
<path fill="none" stroke="#c6c5fe" d="M956.33,-32.27C956.33,-32.27 814.67,-32.27 814.67,-32.27 810.83,-32.27 807,-28.44 807,-24.6 807,-24.6 807,-16.94 807,-16.94 807,-13.1 810.83,-9.27 814.67,-9.27 814.67,-9.27 956.33,-9.27 956.33,-9.27 960.17,-9.27 964,-13.1 964,-16.94 964,-16.94 964,-24.6 964,-24.6 964,-28.44 960.17,-32.27 956.33,-32.27"/>
<text text-anchor="middle" x="885.5" y="-17.07" font-family="Arial" font-size="14.00" fill="#c6c5fe">services/RestService.ts</text>
</g>
<!-- components/ProductForm.tsx&#45;&gt;services/RestService.ts -->
<g id="edge18" class="edge">
<title>components/ProductForm.tsx&#45;&gt;services/RestService.ts</title>
<path fill="none" stroke="#757575" d="M636.96,-248.2C662.38,-237.81 698.52,-220.97 726,-199.77 745.2,-184.96 745.95,-176.95 762,-158.77 799.47,-116.33 843.58,-66.72 867.31,-40.07"/>
<polygon fill="#757575" stroke="#757575" points="869.96,-42.36 873.99,-32.57 864.73,-37.71 869.96,-42.36"/>
</g>
<!-- components/ProductForm.tsx&#45;&gt;types/models.d.ts -->
<g id="edge19" class="edge">
<title>components/ProductForm.tsx&#45;&gt;types/models.d.ts</title>
<path fill="none" stroke="#757575" d="M702.31,-261.22C784.61,-260.64 905.74,-255.47 1009,-233.77 1049.28,-225.31 1093.35,-208.13 1122.83,-195.42"/>
<polygon fill="#757575" stroke="#757575" points="1124.49,-198.51 1132.24,-191.29 1121.68,-192.1 1124.49,-198.51"/>
</g>
<!-- services/RestService.ts&#45;&gt;types/models.d.ts -->
<g id="edge55" class="edge">
<title>services/RestService.ts&#45;&gt;types/models.d.ts</title>
<path fill="none" stroke="#757575" d="M964.08,-30.84C979.47,-34.58 995.14,-39.72 1009,-46.77 1065.05,-75.28 1116.22,-130.49 1141.11,-160.02"/>
<polygon fill="#757575" stroke="#757575" points="1138.62,-162.49 1147.69,-167.96 1144.01,-158.03 1138.62,-162.49"/>
</g>
<!-- services/products.json.ts -->
<g id="node45" class="node">
<title>services/products.json.ts</title>
<path fill="none" stroke="#cfffac" d="M1232.33,-32.27C1232.33,-32.27 1083.67,-32.27 1083.67,-32.27 1079.83,-32.27 1076,-28.44 1076,-24.6 1076,-24.6 1076,-16.94 1076,-16.94 1076,-13.1 1079.83,-9.27 1083.67,-9.27 1083.67,-9.27 1232.33,-9.27 1232.33,-9.27 1236.17,-9.27 1240,-13.1 1240,-16.94 1240,-16.94 1240,-24.6 1240,-24.6 1240,-28.44 1236.17,-32.27 1232.33,-32.27"/>
<text text-anchor="middle" x="1158" y="-17.07" font-family="Arial" font-size="14.00" fill="#cfffac">services/products.json.ts</text>
</g>
<!-- services/RestService.ts&#45;&gt;services/products.json.ts -->
<g id="edge54" class="edge">
<title>services/RestService.ts&#45;&gt;services/products.json.ts</title>
<path fill="none" stroke="#757575" d="M964.01,-20.77C995.71,-20.77 1032.6,-20.77 1065.6,-20.77"/>
<polygon fill="#757575" stroke="#757575" points="1065.7,-24.27 1075.7,-20.77 1065.7,-17.27 1065.7,-24.27"/>
</g>
<!-- components/ProductFormModal.tsx -->
<g id="node24" class="node">
<title>components/ProductFormModal.tsx</title>
<path fill="none" stroke="#c6c5fe" d="M440.33,-212.27C440.33,-212.27 223.67,-212.27 223.67,-212.27 219.83,-212.27 216,-208.44 216,-204.6 216,-204.6 216,-196.94 216,-196.94 216,-193.1 219.83,-189.27 223.67,-189.27 223.67,-189.27 440.33,-189.27 440.33,-189.27 444.17,-189.27 448,-193.1 448,-196.94 448,-196.94 448,-204.6 448,-204.6 448,-208.44 444.17,-212.27 440.33,-212.27"/>
<text text-anchor="middle" x="332" y="-197.07" font-family="Arial" font-size="14.00" fill="#c6c5fe">components/ProductFormModal.tsx</text>
</g>
<!-- components/ProductFormModal.tsx&#45;&gt;components/ModalForm.tsx -->
<g id="edge20" class="edge">
<title>components/ProductFormModal.tsx&#45;&gt;components/ModalForm.tsx</title>
<path fill="none" stroke="#757575" d="M448.32,-191.84C466.14,-190.45 484.44,-189.04 501.95,-187.68"/>
<polygon fill="#757575" stroke="#757575" points="502.45,-191.15 512.15,-186.89 501.91,-184.17 502.45,-191.15"/>
</g>
<!-- components/ProductFormModal.tsx&#45;&gt;components/ProductForm.tsx -->
<g id="edge21" class="edge">
<title>components/ProductFormModal.tsx&#45;&gt;components/ProductForm.tsx</title>
<path fill="none" stroke="#757575" d="M385.76,-212.33C414.75,-218.67 451.36,-226.67 484,-233.77 502.37,-237.77 522.32,-242.1 540.58,-246.05"/>
<polygon fill="#757575" stroke="#757575" points="540.02,-249.51 550.53,-248.21 541.5,-242.67 540.02,-249.51"/>
</g>
<!-- components/ProductFormModal.tsx&#45;&gt;types/models.d.ts -->
<g id="edge22" class="edge">
<title>components/ProductFormModal.tsx&#45;&gt;types/models.d.ts</title>
<path fill="none" stroke="#757575" d="M448.29,-205.25C582.97,-209.4 812.43,-213.14 1009,-199.77 1034.46,-198.04 1062.23,-194.68 1086.76,-191.21"/>
<polygon fill="#757575" stroke="#757575" points="1087.3,-194.66 1096.7,-189.77 1086.3,-187.74 1087.3,-194.66"/>
</g>
<!-- components/ProductList.tsx -->
<g id="node25" class="node">
<title>components/ProductList.tsx</title>
<path fill="none" stroke="#c6c5fe" d="M415.83,-131.27C415.83,-131.27 248.17,-131.27 248.17,-131.27 244.33,-131.27 240.5,-127.44 240.5,-123.6 240.5,-123.6 240.5,-115.94 240.5,-115.94 240.5,-112.1 244.33,-108.27 248.17,-108.27 248.17,-108.27 415.83,-108.27 415.83,-108.27 419.67,-108.27 423.5,-112.1 423.5,-115.94 423.5,-115.94 423.5,-123.6 423.5,-123.6 423.5,-127.44 419.67,-131.27 415.83,-131.27"/>
<text text-anchor="middle" x="332" y="-116.07" font-family="Arial" font-size="14.00" fill="#c6c5fe">components/ProductList.tsx</text>
</g>
<!-- components/ProductList.tsx&#45;&gt;types/models.d.ts -->
<g id="edge23" class="edge">
<title>components/ProductList.tsx&#45;&gt;types/models.d.ts</title>
<path fill="none" stroke="#757575" d="M423.67,-122.6C553.57,-127.2 800.05,-137.96 1009,-158.77 1034.42,-161.3 1062.17,-164.99 1086.71,-168.58"/>
<polygon fill="#757575" stroke="#757575" points="1086.25,-172.05 1096.65,-170.05 1087.27,-165.12 1086.25,-172.05"/>
</g>
<!-- utils/Array.ts -->
<g id="node26" class="node">
<title>utils/Array.ts</title>
<path fill="none" stroke="#cfffac" d="M642.33,-111.27C642.33,-111.27 567.67,-111.27 567.67,-111.27 563.83,-111.27 560,-107.44 560,-103.6 560,-103.6 560,-95.94 560,-95.94 560,-92.1 563.83,-88.27 567.67,-88.27 567.67,-88.27 642.33,-88.27 642.33,-88.27 646.17,-88.27 650,-92.1 650,-95.94 650,-95.94 650,-103.6 650,-103.6 650,-107.44 646.17,-111.27 642.33,-111.27"/>
<text text-anchor="middle" x="605" y="-96.07" font-family="Arial" font-size="14.00" fill="#cfffac">utils/Array.ts</text>
</g>
<!-- components/ProductList.tsx&#45;&gt;utils/Array.ts -->
<g id="edge24" class="edge">
<title>components/ProductList.tsx&#45;&gt;utils/Array.ts</title>
<path fill="none" stroke="#757575" d="M423.62,-113.08C465.35,-110 513.49,-106.45 549.53,-103.79"/>
<polygon fill="#757575" stroke="#757575" points="550.12,-107.26 559.84,-103.03 549.61,-100.28 550.12,-107.26"/>
</g>
<!-- components/ResetPasswordPage.tsx -->
<g id="node27" class="node">
<title>components/ResetPasswordPage.tsx</title>
<path fill="none" stroke="#c6c5fe" d="M718.33,-407.27C718.33,-407.27 491.67,-407.27 491.67,-407.27 487.83,-407.27 484,-403.44 484,-399.6 484,-399.6 484,-391.94 484,-391.94 484,-388.1 487.83,-384.27 491.67,-384.27 491.67,-384.27 718.33,-384.27 718.33,-384.27 722.17,-384.27 726,-388.1 726,-391.94 726,-391.94 726,-399.6 726,-399.6 726,-403.44 722.17,-407.27 718.33,-407.27"/>
<text text-anchor="middle" x="605" y="-392.07" font-family="Arial" font-size="14.00" fill="#c6c5fe">components/ResetPasswordPage.tsx</text>
</g>
<!-- components/ResetPasswordPage.tsx&#45;&gt;components/Form.tsx -->
<g id="edge25" class="edge">
<title>components/ResetPasswordPage.tsx&#45;&gt;components/Form.tsx</title>
<path fill="none" stroke="#757575" d="M726.13,-386.2C859.78,-377.72 1081.81,-370.13 1271,-394.77 1339.33,-403.67 1416.13,-426.61 1462.51,-441.94"/>
<polygon fill="#757575" stroke="#757575" points="1461.62,-445.34 1472.22,-445.19 1463.84,-438.7 1461.62,-445.34"/>
</g>
<!-- components/ResetPasswordPage.tsx&#45;&gt;components/FormInputGroup.tsx -->
<g id="edge26" class="edge">
<title>components/ResetPasswordPage.tsx&#45;&gt;components/FormInputGroup.tsx</title>
<path fill="none" stroke="#757575" d="M726.13,-404.4C739.74,-405.38 753.6,-406.37 767.17,-407.35"/>
<polygon fill="#757575" stroke="#757575" points="767.26,-410.86 777.48,-408.09 767.76,-403.88 767.26,-410.86"/>
</g>
<!-- components/pages/AccountPage.tsx -->
<g id="node28" class="node">
<title>components/pages/AccountPage.tsx</title>
<path fill="none" stroke="#c6c5fe" d="M995.83,-789.27C995.83,-789.27 775.17,-789.27 775.17,-789.27 771.33,-789.27 767.5,-785.44 767.5,-781.6 767.5,-781.6 767.5,-773.94 767.5,-773.94 767.5,-770.1 771.33,-766.27 775.17,-766.27 775.17,-766.27 995.83,-766.27 995.83,-766.27 999.67,-766.27 1003.5,-770.1 1003.5,-773.94 1003.5,-773.94 1003.5,-781.6 1003.5,-781.6 1003.5,-785.44 999.67,-789.27 995.83,-789.27"/>
<text text-anchor="middle" x="885.5" y="-774.07" font-family="Arial" font-size="14.00" fill="#c6c5fe">components/pages/AccountPage.tsx</text>
</g>
<!-- components/pages/AccountPage.tsx&#45;&gt;components/Menu/AccountMenu.tsx -->
<g id="edge27" class="edge">
<title>components/pages/AccountPage.tsx&#45;&gt;components/Menu/AccountMenu.tsx</title>
<path fill="none" stroke="#757575" d="M1003.56,-773.99C1110.2,-770.54 1267.35,-765.46 1377.22,-761.9"/>
<polygon fill="#757575" stroke="#757575" points="1377.48,-765.4 1387.37,-761.58 1377.26,-758.4 1377.48,-765.4"/>
</g>
<!-- components/pages/AccountPage.tsx&#45;&gt;components/Page.tsx -->
<g id="edge28" class="edge">
<title>components/pages/AccountPage.tsx&#45;&gt;components/Page.tsx</title>
<path fill="none" stroke="#757575" d="M964.38,-766.26C998.75,-761.17 1039.2,-755.19 1074.13,-750.03"/>
<polygon fill="#757575" stroke="#757575" points="1074.93,-753.45 1084.31,-748.52 1073.9,-746.52 1074.93,-753.45"/>
</g>
<!-- main/RoutePath.ts -->
<g id="node29" class="node">
<title>main/RoutePath.ts</title>
<path fill="none" stroke="#c6c5fe" d="M1562.33,-839.27C1562.33,-839.27 1449.67,-839.27 1449.67,-839.27 1445.83,-839.27 1442,-835.44 1442,-831.6 1442,-831.6 1442,-823.94 1442,-823.94 1442,-820.1 1445.83,-816.27 1449.67,-816.27 1449.67,-816.27 1562.33,-816.27 1562.33,-816.27 1566.17,-816.27 1570,-820.1 1570,-823.94 1570,-823.94 1570,-831.6 1570,-831.6 1570,-835.44 1566.17,-839.27 1562.33,-839.27"/>
<text text-anchor="middle" x="1506" y="-824.07" font-family="Arial" font-size="14.00" fill="#c6c5fe">main/RoutePath.ts</text>
</g>
<!-- components/pages/AccountPage.tsx&#45;&gt;main/RoutePath.ts -->
<g id="edge29" class="edge">
<title>components/pages/AccountPage.tsx&#45;&gt;main/RoutePath.ts</title>
<path fill="none" stroke="#757575" d="M908.83,-789.4C938.83,-804.3 994.27,-829.35 1045,-838.77 1179.75,-863.81 1340.49,-850.34 1431.87,-838.74"/>
<polygon fill="#757575" stroke="#757575" points="1432.38,-842.2 1441.85,-837.45 1431.48,-835.26 1432.38,-842.2"/>
</g>
<!-- views/AccountView.tsx -->
<g id="node30" class="node">
<title>views/AccountView.tsx</title>
<path fill="none" stroke="#cfffac" d="M1226.33,-829.27C1226.33,-829.27 1089.67,-829.27 1089.67,-829.27 1085.83,-829.27 1082,-825.44 1082,-821.6 1082,-821.6 1082,-813.94 1082,-813.94 1082,-810.1 1085.83,-806.27 1089.67,-806.27 1089.67,-806.27 1226.33,-806.27 1226.33,-806.27 1230.17,-806.27 1234,-810.1 1234,-813.94 1234,-813.94 1234,-821.6 1234,-821.6 1234,-825.44 1230.17,-829.27 1226.33,-829.27"/>
<text text-anchor="middle" x="1158" y="-814.07" font-family="Arial" font-size="14.00" fill="#cfffac">views/AccountView.tsx</text>
</g>
<!-- components/pages/AccountPage.tsx&#45;&gt;views/AccountView.tsx -->
<g id="edge30" class="edge">
<title>components/pages/AccountPage.tsx&#45;&gt;views/AccountView.tsx</title>
<path fill="none" stroke="#757575" d="M964.38,-789.29C998.04,-794.27 1037.53,-800.11 1071.96,-805.2"/>
<polygon fill="#757575" stroke="#757575" points="1071.59,-808.68 1082,-806.68 1072.62,-801.76 1071.59,-808.68"/>
</g>
<!-- main/RoutePath.ts&#45;&gt;types/RouteTemplate.d.ts -->
<g id="edge46" class="edge">
<title>main/RoutePath.ts&#45;&gt;types/RouteTemplate.d.ts</title>
<path fill="none" stroke="#757575" d="M1570.33,-820.76C1610.82,-814.25 1663.36,-801.9 1705,-778.77 1724.51,-767.94 1722.15,-755.71 1741,-743.77 1777.61,-720.59 1823.72,-703.84 1859.28,-693.15"/>
<polygon fill="#757575" stroke="#757575" points="1860.4,-696.47 1869.01,-690.3 1858.43,-689.75 1860.4,-696.47"/>
</g>
<!-- main/RoutePath.ts&#45;&gt;types/type.d.ts -->
<g id="edge47" class="edge">
<title>main/RoutePath.ts&#45;&gt;types/type.d.ts</title>
<path fill="none" stroke="#757575" d="M1570.13,-817.42C1698.77,-796.33 1989.82,-748.62 2116.81,-727.8"/>
<polygon fill="#757575" stroke="#757575" points="2117.46,-731.24 2126.76,-726.17 2116.33,-724.34 2117.46,-731.24"/>
</g>
<!-- components/pages/AuthPage.scss -->
<g id="node31" class="node">
<title>components/pages/AuthPage.scss</title>
<path fill="none" stroke="#cfffac" d="M990.33,-507.27C990.33,-507.27 780.67,-507.27 780.67,-507.27 776.83,-507.27 773,-503.44 773,-499.6 773,-499.6 773,-491.94 773,-491.94 773,-488.1 776.83,-484.27 780.67,-484.27 780.67,-484.27 990.33,-484.27 990.33,-484.27 994.17,-484.27 998,-488.1 998,-491.94 998,-491.94 998,-499.6 998,-499.6 998,-503.44 994.17,-507.27 990.33,-507.27"/>
<text text-anchor="middle" x="885.5" y="-492.07" font-family="Arial" font-size="14.00" fill="#cfffac">components/pages/AuthPage.scss</text>
</g>
<!-- components/pages/AuthPage.tsx -->
<g id="node32" class="node">
<title>components/pages/AuthPage.tsx</title>
<path fill="none" stroke="#c6c5fe" d="M704.83,-507.27C704.83,-507.27 505.17,-507.27 505.17,-507.27 501.33,-507.27 497.5,-503.44 497.5,-499.6 497.5,-499.6 497.5,-491.94 497.5,-491.94 497.5,-488.1 501.33,-484.27 505.17,-484.27 505.17,-484.27 704.83,-484.27 704.83,-484.27 708.67,-484.27 712.5,-488.1 712.5,-491.94 712.5,-491.94 712.5,-499.6 712.5,-499.6 712.5,-503.44 708.67,-507.27 704.83,-507.27"/>
<text text-anchor="middle" x="605" y="-492.07" font-family="Arial" font-size="14.00" fill="#c6c5fe">components/pages/AuthPage.tsx</text>
</g>
<!-- components/pages/AuthPage.tsx&#45;&gt;services/Firebase.ts -->
<g id="edge35" class="edge">
<title>components/pages/AuthPage.tsx&#45;&gt;services/Firebase.ts</title>
<path fill="none" stroke="#757575" d="M622.42,-484.15C650.4,-464.59 709.39,-424.32 762,-394.77 790.53,-378.75 824.07,-362.78 848.84,-351.51"/>
<polygon fill="#757575" stroke="#757575" points="850.53,-354.58 858.21,-347.28 847.65,-348.2 850.53,-354.58"/>
</g>
<!-- components/pages/AuthPage.tsx&#45;&gt;components/AuthFrom.tsx -->
<g id="edge31" class="edge">
<title>components/pages/AuthPage.tsx&#45;&gt;components/AuthFrom.tsx</title>
<path fill="none" stroke="#757575" d="M681.62,-484.22C707.1,-480.7 735.73,-477.13 762,-474.77 863.3,-465.66 979.66,-461.07 1059.71,-458.81"/>
<polygon fill="#757575" stroke="#757575" points="1059.87,-462.31 1069.77,-458.54 1059.68,-455.31 1059.87,-462.31"/>
</g>
<!-- components/pages/AuthPage.tsx&#45;&gt;components/Form.tsx -->
<g id="edge32" class="edge">
<title>components/pages/AuthPage.tsx&#45;&gt;components/Form.tsx</title>
<path fill="none" stroke="#757575" d="M627.95,-507.4C657.45,-522.3 711.99,-547.34 762,-556.77 1027.07,-606.75 1349.91,-510.27 1463.26,-471.71"/>
<polygon fill="#757575" stroke="#757575" points="1464.62,-474.94 1472.94,-468.38 1462.35,-468.32 1464.62,-474.94"/>
</g>
<!-- components/pages/AuthPage.tsx&#45;&gt;components/pages/AuthPage.scss -->
<g id="edge33" class="edge">
<title>components/pages/AuthPage.tsx&#45;&gt;components/pages/AuthPage.scss</title>
<path fill="none" stroke="#757575" d="M712.88,-495.77C729.14,-495.77 746.02,-495.77 762.57,-495.77"/>
<polygon fill="#757575" stroke="#757575" points="762.83,-499.27 772.83,-495.77 762.83,-492.27 762.83,-499.27"/>
</g>
<!-- containers/SignUpModal.tsx -->
<g id="node33" class="node">
<title>containers/SignUpModal.tsx</title>
<path fill="none" stroke="#c6c5fe" d="M970.33,-548.27C970.33,-548.27 800.67,-548.27 800.67,-548.27 796.83,-548.27 793,-544.44 793,-540.6 793,-540.6 793,-532.94 793,-532.94 793,-529.1 796.83,-525.27 800.67,-525.27 800.67,-525.27 970.33,-525.27 970.33,-525.27 974.17,-525.27 978,-529.1 978,-532.94 978,-532.94 978,-540.6 978,-540.6 978,-544.44 974.17,-548.27 970.33,-548.27"/>
<text text-anchor="middle" x="885.5" y="-533.07" font-family="Arial" font-size="14.00" fill="#c6c5fe">containers/SignUpModal.tsx</text>
</g>
<!-- components/pages/AuthPage.tsx&#45;&gt;containers/SignUpModal.tsx -->
<g id="edge34" class="edge">
<title>components/pages/AuthPage.tsx&#45;&gt;containers/SignUpModal.tsx</title>
<path fill="none" stroke="#757575" d="M684.32,-507.3C719.17,-512.43 760.37,-518.5 796.3,-523.79"/>
<polygon fill="#757575" stroke="#757575" points="795.88,-527.26 806.29,-525.26 796.9,-520.34 795.88,-527.26"/>
</g>
<!-- containers/SignUpModal.tsx&#45;&gt;components/AuthFrom.tsx -->
<g id="edge39" class="edge">
<title>containers/SignUpModal.tsx&#45;&gt;components/AuthFrom.tsx</title>
<path fill="none" stroke="#757575" d="M968.08,-525.25C981.85,-522.6 995.92,-519.46 1009,-515.77 1020.07,-512.65 1079.2,-488.69 1119.29,-472.28"/>
<polygon fill="#757575" stroke="#757575" points="1120.86,-475.42 1128.78,-468.39 1118.2,-468.95 1120.86,-475.42"/>
</g>
<!-- containers/SignUpModal.tsx&#45;&gt;components/Form.tsx -->
<g id="edge40" class="edge">
<title>containers/SignUpModal.tsx&#45;&gt;components/Form.tsx</title>
<path fill="none" stroke="#757575" d="M975.45,-525.27C1094.81,-509.83 1305.27,-482.61 1421.69,-467.55"/>
<polygon fill="#757575" stroke="#757575" points="1422.16,-471.02 1431.62,-466.26 1421.26,-464.07 1422.16,-471.02"/>
</g>
<!-- components/pages/HomePage.tsx -->
<g id="node34" class="node">
<title>components/pages/HomePage.tsx</title>
<path fill="none" stroke="#c6c5fe" d="M989.83,-669.27C989.83,-669.27 781.17,-669.27 781.17,-669.27 777.33,-669.27 773.5,-665.44 773.5,-661.6 773.5,-661.6 773.5,-653.94 773.5,-653.94 773.5,-650.1 777.33,-646.27 781.17,-646.27 781.17,-646.27 989.83,-646.27 989.83,-646.27 993.67,-646.27 997.5,-650.1 997.5,-653.94 997.5,-653.94 997.5,-661.6 997.5,-661.6 997.5,-665.44 993.67,-669.27 989.83,-669.27"/>
<text text-anchor="middle" x="885.5" y="-654.07" font-family="Arial" font-size="14.00" fill="#c6c5fe">components/pages/HomePage.tsx</text>
</g>
<!-- components/pages/HomePage.tsx&#45;&gt;types/RouteTemplate.d.ts -->
<g id="edge38" class="edge">
<title>components/pages/HomePage.tsx&#45;&gt;types/RouteTemplate.d.ts</title>
<path fill="none" stroke="#757575" d="M997.54,-660.04C1201.05,-664.19 1630.33,-672.96 1820.68,-676.85"/>
<polygon fill="#757575" stroke="#757575" points="1820.87,-680.35 1830.94,-677.06 1821.02,-673.35 1820.87,-680.35"/>
</g>
<!-- components/pages/HomePage.tsx&#45;&gt;components/Menu/HomeMenu.tsx -->
<g id="edge36" class="edge">
<title>components/pages/HomePage.tsx&#45;&gt;components/Menu/HomeMenu.tsx</title>
<path fill="none" stroke="#757575" d="M966.56,-646.23C998.19,-641.67 1034.67,-636.41 1067.19,-631.72"/>
<polygon fill="#757575" stroke="#757575" points="1067.75,-635.18 1077.14,-630.28 1066.75,-628.25 1067.75,-635.18"/>
</g>
<!-- components/pages/HomePage.tsx&#45;&gt;components/Page.tsx -->
<g id="edge37" class="edge">
<title>components/pages/HomePage.tsx&#45;&gt;components/Page.tsx</title>
<path fill="none" stroke="#757575" d="M925.54,-669.32C973.79,-683.59 1055.9,-707.87 1108.24,-723.35"/>
<polygon fill="#757575" stroke="#757575" points="1107.39,-726.75 1117.97,-726.23 1109.37,-720.04 1107.39,-726.75"/>
</g>
<!-- components/pages/NotFoundPage.tsx -->
<g id="node35" class="node">
<title>components/pages/NotFoundPage.tsx</title>
<path fill="none" stroke="#cfffac" d="M1001.33,-628.27C1001.33,-628.27 769.67,-628.27 769.67,-628.27 765.83,-628.27 762,-624.44 762,-620.6 762,-620.6 762,-612.94 762,-612.94 762,-609.1 765.83,-605.27 769.67,-605.27 769.67,-605.27 1001.33,-605.27 1001.33,-605.27 1005.17,-605.27 1009,-609.1 1009,-612.94 1009,-612.94 1009,-620.6 1009,-620.6 1009,-624.44 1005.17,-628.27 1001.33,-628.27"/>
<text text-anchor="middle" x="885.5" y="-613.07" font-family="Arial" font-size="14.00" fill="#cfffac">components/pages/NotFoundPage.tsx</text>
</g>
<!-- containers/Router.tsx -->
<g id="node36" class="node">
<title>containers/Router.tsx</title>
<path fill="none" stroke="#cfffac" d="M153.83,-832.27C153.83,-832.27 26.17,-832.27 26.17,-832.27 22.33,-832.27 18.5,-828.44 18.5,-824.6 18.5,-824.6 18.5,-816.94 18.5,-816.94 18.5,-813.1 22.33,-809.27 26.17,-809.27 26.17,-809.27 153.83,-809.27 153.83,-809.27 157.67,-809.27 161.5,-813.1 161.5,-816.94 161.5,-816.94 161.5,-824.6 161.5,-824.6 161.5,-828.44 157.67,-832.27 153.83,-832.27"/>
<text text-anchor="middle" x="90" y="-817.07" font-family="Arial" font-size="14.00" fill="#cfffac">containers/Router.tsx</text>
</g>
<!-- index.css -->
<g id="node37" class="node">
<title>index.css</title>
<path fill="none" stroke="#cfffac" d="M360.83,-750.27C360.83,-750.27 303.17,-750.27 303.17,-750.27 299.33,-750.27 295.5,-746.44 295.5,-742.6 295.5,-742.6 295.5,-734.94 295.5,-734.94 295.5,-731.1 299.33,-727.27 303.17,-727.27 303.17,-727.27 360.83,-727.27 360.83,-727.27 364.67,-727.27 368.5,-731.1 368.5,-734.94 368.5,-734.94 368.5,-742.6 368.5,-742.6 368.5,-746.44 364.67,-750.27 360.83,-750.27"/>
<text text-anchor="middle" x="332" y="-735.07" font-family="Arial" font-size="14.00" fill="#cfffac">index.css</text>
</g>
<!-- index.tsx -->
<g id="node38" class="node">
<title>index.tsx</title>
<path fill="none" stroke="#c6c5fe" d="M117.33,-750.27C117.33,-750.27 62.67,-750.27 62.67,-750.27 58.83,-750.27 55,-746.44 55,-742.6 55,-742.6 55,-734.94 55,-734.94 55,-731.1 58.83,-727.27 62.67,-727.27 62.67,-727.27 117.33,-727.27 117.33,-727.27 121.17,-727.27 125,-731.1 125,-734.94 125,-734.94 125,-742.6 125,-742.6 125,-746.44 121.17,-750.27 117.33,-750.27"/>
<text text-anchor="middle" x="90" y="-735.07" font-family="Arial" font-size="14.00" fill="#c6c5fe">index.tsx</text>
</g>
<!-- index.tsx&#45;&gt;index.css -->
<g id="edge41" class="edge">
<title>index.tsx&#45;&gt;index.css</title>
<path fill="none" stroke="#757575" d="M125.13,-738.77C167.12,-738.77 238.57,-738.77 285.27,-738.77"/>
<polygon fill="#757575" stroke="#757575" points="285.42,-742.27 295.42,-738.77 285.42,-735.27 285.42,-742.27"/>
</g>
<!-- main/App.tsx -->
<g id="node39" class="node">
<title>main/App.tsx</title>
<path fill="none" stroke="#c6c5fe" d="M371.83,-709.27C371.83,-709.27 292.17,-709.27 292.17,-709.27 288.33,-709.27 284.5,-705.44 284.5,-701.6 284.5,-701.6 284.5,-693.94 284.5,-693.94 284.5,-690.1 288.33,-686.27 292.17,-686.27 292.17,-686.27 371.83,-686.27 371.83,-686.27 375.67,-686.27 379.5,-690.1 379.5,-693.94 379.5,-693.94 379.5,-701.6 379.5,-701.6 379.5,-705.44 375.67,-709.27 371.83,-709.27"/>
<text text-anchor="middle" x="332" y="-694.07" font-family="Arial" font-size="14.00" fill="#c6c5fe">main/App.tsx</text>
</g>
<!-- index.tsx&#45;&gt;main/App.tsx -->
<g id="edge42" class="edge">
<title>index.tsx&#45;&gt;main/App.tsx</title>
<path fill="none" stroke="#757575" d="M125.13,-732.94C163.95,-726.31 227.96,-715.37 274.31,-707.46"/>
<polygon fill="#757575" stroke="#757575" points="274.94,-710.9 284.21,-705.77 273.76,-704 274.94,-710.9"/>
</g>
<!-- reportWebVitals.ts -->
<g id="node40" class="node">
<title>reportWebVitals.ts</title>
<path fill="none" stroke="#cfffac" d="M387.83,-791.27C387.83,-791.27 276.17,-791.27 276.17,-791.27 272.33,-791.27 268.5,-787.44 268.5,-783.6 268.5,-783.6 268.5,-775.94 268.5,-775.94 268.5,-772.1 272.33,-768.27 276.17,-768.27 276.17,-768.27 387.83,-768.27 387.83,-768.27 391.67,-768.27 395.5,-772.1 395.5,-775.94 395.5,-775.94 395.5,-783.6 395.5,-783.6 395.5,-787.44 391.67,-791.27 387.83,-791.27"/>
<text text-anchor="middle" x="332" y="-776.07" font-family="Arial" font-size="14.00" fill="#cfffac">reportWebVitals.ts</text>
</g>
<!-- index.tsx&#45;&gt;reportWebVitals.ts -->
<g id="edge43" class="edge">
<title>index.tsx&#45;&gt;reportWebVitals.ts</title>
<path fill="none" stroke="#757575" d="M125.13,-744.6C159.59,-750.49 213.88,-759.76 258.06,-767.31"/>
<polygon fill="#757575" stroke="#757575" points="257.74,-770.81 268.19,-769.04 258.92,-763.91 257.74,-770.81"/>
</g>
<!-- main/RoutesConfig.tsx -->
<g id="node42" class="node">
<title>main/RoutesConfig.tsx</title>
<path fill="none" stroke="#c6c5fe" d="M673.83,-709.27C673.83,-709.27 536.17,-709.27 536.17,-709.27 532.33,-709.27 528.5,-705.44 528.5,-701.6 528.5,-701.6 528.5,-693.94 528.5,-693.94 528.5,-690.1 532.33,-686.27 536.17,-686.27 536.17,-686.27 673.83,-686.27 673.83,-686.27 677.67,-686.27 681.5,-690.1 681.5,-693.94 681.5,-693.94 681.5,-701.6 681.5,-701.6 681.5,-705.44 677.67,-709.27 673.83,-709.27"/>
<text text-anchor="middle" x="605" y="-694.07" font-family="Arial" font-size="14.00" fill="#c6c5fe">main/RoutesConfig.tsx</text>
</g>
<!-- main/App.tsx&#45;&gt;main/RoutesConfig.tsx -->
<g id="edge45" class="edge">
<title>main/App.tsx&#45;&gt;main/RoutesConfig.tsx</title>
<path fill="none" stroke="#757575" d="M379.59,-697.77C417.57,-697.77 472.25,-697.77 518.13,-697.77"/>
<polygon fill="#757575" stroke="#757575" points="518.37,-701.27 528.37,-697.77 518.37,-694.27 518.37,-701.27"/>
</g>
<!-- main/App.test.tsx -->
<g id="node41" class="node">
<title>main/App.test.tsx</title>
<path fill="none" stroke="#c6c5fe" d="M142.83,-709.27C142.83,-709.27 37.17,-709.27 37.17,-709.27 33.33,-709.27 29.5,-705.44 29.5,-701.6 29.5,-701.6 29.5,-693.94 29.5,-693.94 29.5,-690.1 33.33,-686.27 37.17,-686.27 37.17,-686.27 142.83,-686.27 142.83,-686.27 146.67,-686.27 150.5,-690.1 150.5,-693.94 150.5,-693.94 150.5,-701.6 150.5,-701.6 150.5,-705.44 146.67,-709.27 142.83,-709.27"/>
<text text-anchor="middle" x="90" y="-694.07" font-family="Arial" font-size="14.00" fill="#c6c5fe">main/App.test.tsx</text>
</g>
<!-- main/App.test.tsx&#45;&gt;main/App.tsx -->
<g id="edge44" class="edge">
<title>main/App.test.tsx&#45;&gt;main/App.tsx</title>
<path fill="none" stroke="#757575" d="M150.63,-697.77C188.45,-697.77 237.08,-697.77 274.31,-697.77"/>
<polygon fill="#757575" stroke="#757575" points="274.49,-701.27 284.49,-697.77 274.49,-694.27 274.49,-701.27"/>
</g>
<!-- main/RoutesConfig.tsx&#45;&gt;types/RouteTemplate.d.ts -->
<g id="edge52" class="edge">
<title>main/RoutesConfig.tsx&#45;&gt;types/RouteTemplate.d.ts</title>
<path fill="none" stroke="#757575" d="M681.62,-697.1C859.87,-695.44 1320.34,-690.8 1705,-683.77 1742.91,-683.08 1784.67,-682.12 1820.89,-681.23"/>
<polygon fill="#757575" stroke="#757575" points="1821.05,-684.73 1830.96,-680.99 1820.87,-677.73 1821.05,-684.73"/>
</g>
<!-- main/RoutesConfig.tsx&#45;&gt;components/pages/AccountPage.tsx -->
<g id="edge48" class="edge">
<title>main/RoutesConfig.tsx&#45;&gt;components/pages/AccountPage.tsx</title>
<path fill="none" stroke="#757575" d="M646.2,-709.32C695.97,-723.62 780.76,-747.97 834.63,-763.45"/>
<polygon fill="#757575" stroke="#757575" points="833.74,-766.83 844.31,-766.23 835.67,-760.1 833.74,-766.83"/>
</g>
<!-- main/RoutesConfig.tsx&#45;&gt;main/RoutePath.ts -->
<g id="edge51" class="edge">
<title>main/RoutesConfig.tsx&#45;&gt;main/RoutePath.ts</title>
<path fill="none" stroke="#757575" d="M620.06,-709.43C646.26,-730.55 705.08,-775.15 762,-798.77 972.43,-886.12 1043.68,-875.24 1271,-859.77 1325.12,-856.09 1385.79,-847.67 1431.8,-840.39"/>
<polygon fill="#757575" stroke="#757575" points="1432.36,-843.84 1441.68,-838.81 1431.25,-836.93 1432.36,-843.84"/>
</g>
<!-- main/RoutesConfig.tsx&#45;&gt;components/pages/HomePage.tsx -->
<g id="edge49" class="edge">
<title>main/RoutesConfig.tsx&#45;&gt;components/pages/HomePage.tsx</title>
<path fill="none" stroke="#757575" d="M681.73,-686.89C716.48,-681.9 757.94,-675.95 794.29,-670.73"/>
<polygon fill="#757575" stroke="#757575" points="795,-674.16 804.4,-669.28 794,-667.23 795,-674.16"/>
</g>
<!-- main/RoutesConfig.tsx&#45;&gt;components/pages/NotFoundPage.tsx -->
<g id="edge50" class="edge">
<title>main/RoutesConfig.tsx&#45;&gt;components/pages/NotFoundPage.tsx</title>
<path fill="none" stroke="#757575" d="M630.84,-686.17C661.17,-672.44 714.32,-649.83 762,-636.77 770.78,-634.37 779.99,-632.21 789.26,-630.29"/>
<polygon fill="#757575" stroke="#757575" points="790.19,-633.67 799.32,-628.3 788.83,-626.81 790.19,-633.67"/>
</g>
<!-- react&#45;app&#45;env.d.ts -->
<g id="node44" class="node">
<title>react&#45;app&#45;env.d.ts</title>
<path fill="none" stroke="#cfffac" d="M144.83,-873.27C144.83,-873.27 35.17,-873.27 35.17,-873.27 31.33,-873.27 27.5,-869.44 27.5,-865.6 27.5,-865.6 27.5,-857.94 27.5,-857.94 27.5,-854.1 31.33,-850.27 35.17,-850.27 35.17,-850.27 144.83,-850.27 144.83,-850.27 148.67,-850.27 152.5,-854.1 152.5,-857.94 152.5,-857.94 152.5,-865.6 152.5,-865.6 152.5,-869.44 148.67,-873.27 144.83,-873.27"/>
<text text-anchor="middle" x="90" y="-858.07" font-family="Arial" font-size="14.00" fill="#cfffac">react&#45;app&#45;env.d.ts</text>
</g>
<!-- setupTests.ts -->
<g id="node46" class="node">
<title>setupTests.ts</title>
<path fill="none" stroke="#cfffac" d="M129.83,-914.27C129.83,-914.27 50.17,-914.27 50.17,-914.27 46.33,-914.27 42.5,-910.44 42.5,-906.6 42.5,-906.6 42.5,-898.94 42.5,-898.94 42.5,-895.1 46.33,-891.27 50.17,-891.27 50.17,-891.27 129.83,-891.27 129.83,-891.27 133.67,-891.27 137.5,-895.1 137.5,-898.94 137.5,-898.94 137.5,-906.6 137.5,-906.6 137.5,-910.44 133.67,-914.27 129.83,-914.27"/>
<text text-anchor="middle" x="90" y="-899.07" font-family="Arial" font-size="14.00" fill="#cfffac">setupTests.ts</text>
</g>
<!-- views/CatalogsView.tsx -->
<g id="node47" class="node">
<title>views/CatalogsView.tsx</title>
<path fill="none" stroke="#cfffac" d="M160.83,-955.27C160.83,-955.27 19.17,-955.27 19.17,-955.27 15.33,-955.27 11.5,-951.44 11.5,-947.6 11.5,-947.6 11.5,-939.94 11.5,-939.94 11.5,-936.1 15.33,-932.27 19.17,-932.27 19.17,-932.27 160.83,-932.27 160.83,-932.27 164.67,-932.27 168.5,-936.1 168.5,-939.94 168.5,-939.94 168.5,-947.6 168.5,-947.6 168.5,-951.44 164.67,-955.27 160.83,-955.27"/>
<text text-anchor="middle" x="90" y="-940.07" font-family="Arial" font-size="14.00" fill="#cfffac">views/CatalogsView.tsx</text>
</g>
<!-- views/ProductView.tsx -->
<g id="node48" class="node">
<title>views/ProductView.tsx</title>
<path fill="none" stroke="#c6c5fe" d="M157.33,-131.27C157.33,-131.27 22.67,-131.27 22.67,-131.27 18.83,-131.27 15,-127.44 15,-123.6 15,-123.6 15,-115.94 15,-115.94 15,-112.1 18.83,-108.27 22.67,-108.27 22.67,-108.27 157.33,-108.27 157.33,-108.27 161.17,-108.27 165,-112.1 165,-115.94 165,-115.94 165,-123.6 165,-123.6 165,-127.44 161.17,-131.27 157.33,-131.27"/>
<text text-anchor="middle" x="90" y="-116.07" font-family="Arial" font-size="14.00" fill="#c6c5fe">views/ProductView.tsx</text>
</g>
<!-- views/ProductView.tsx&#45;&gt;components/AuthContainer.tsx -->
<g id="edge57" class="edge">
<title>views/ProductView.tsx&#45;&gt;components/AuthContainer.tsx</title>
<path fill="none" stroke="#757575" d="M103.47,-131.31C125.23,-151.11 172.03,-192.17 216,-220.77 241.46,-237.34 272.14,-252.88 295.41,-263.85"/>
<polygon fill="#757575" stroke="#757575" points="294.03,-267.06 304.57,-268.11 296.98,-260.72 294.03,-267.06"/>
</g>
<!-- views/ProductView.tsx&#45;&gt;services/RestService.ts -->
<g id="edge60" class="edge">
<title>views/ProductView.tsx&#45;&gt;services/RestService.ts</title>
<path fill="none" stroke="#757575" d="M105.26,-108.04C127.36,-90.66 171.97,-58.72 216,-45.77 416.97,13.31 666.59,1.55 796.55,-10.56"/>
<polygon fill="#757575" stroke="#757575" points="796.55,-14.07 806.84,-11.54 797.22,-7.1 796.55,-14.07"/>
</g>
<!-- views/ProductView.tsx&#45;&gt;types/models.d.ts -->
<g id="edge61" class="edge">
<title>views/ProductView.tsx&#45;&gt;types/models.d.ts</title>
<path fill="none" stroke="#757575" d="M152.83,-108.23C172.92,-104.79 195.36,-101.27 216,-98.77 566.27,-56.37 666.61,-50.58 1009,-135.77 1043.67,-144.4 1082.36,-155.97 1111.48,-165.08"/>
<polygon fill="#757575" stroke="#757575" points="1110.77,-168.53 1121.36,-168.19 1112.87,-161.85 1110.77,-168.53"/>
</g>
<!-- views/ProductView.tsx&#45;&gt;components/ProductFormModal.tsx -->
<g id="edge58" class="edge">
<title>views/ProductView.tsx&#45;&gt;components/ProductFormModal.tsx</title>
<path fill="none" stroke="#757575" d="M125.13,-131.29C167.66,-145.64 240.41,-170.2 287.06,-185.94"/>
<polygon fill="#757575" stroke="#757575" points="286,-189.28 296.6,-189.16 288.24,-182.65 286,-189.28"/>
</g>
<!-- views/ProductView.tsx&#45;&gt;components/ProductList.tsx -->
<g id="edge59" class="edge">
<title>views/ProductView.tsx&#45;&gt;components/ProductList.tsx</title>
<path fill="none" stroke="#757575" d="M165.29,-119.77C185.74,-119.77 208.26,-119.77 229.93,-119.77"/>
<polygon fill="#757575" stroke="#757575" points="230.16,-123.27 240.16,-119.77 230.16,-116.27 230.16,-123.27"/>
</g>
</g>
</svg>
