<?xml version="1.0" encoding="UTF-8" standalone="no"?>
<!DOCTYPE svg PUBLIC "-//W3C//DTD SVG 1.1//EN"
 "http://www.w3.org/Graphics/SVG/1.1/DTD/svg11.dtd">
<!-- Generated by graphviz version 2.43.0 (0)
 -->
<!-- Title: G Pages: 1 -->
<svg width="2155pt" height="1539pt"
 viewBox="0.00 0.00 2155.20 1538.82" xmlns="http://www.w3.org/2000/svg" xmlns:xlink="http://www.w3.org/1999/xlink">
<g id="graph0" class="graph" transform="scale(1 1) rotate(0) translate(21.6 1517.22)">
<title>G</title>
<polygon fill="#111111" stroke="transparent" points="-21.6,21.6 -21.6,-1517.22 2133.6,-1517.22 2133.6,21.6 -21.6,21.6"/>
<!-- components/AuthContainer.tsx -->
<g id="node1" class="node">
<title>components/AuthContainer.tsx</title>
<path fill="none" stroke="#c6c5fe" d="M484.83,-923.62C484.83,-923.62 299.17,-923.62 299.17,-923.62 295.33,-923.62 291.5,-919.79 291.5,-915.96 291.5,-915.96 291.5,-908.29 291.5,-908.29 291.5,-904.46 295.33,-900.62 299.17,-900.62 299.17,-900.62 484.83,-900.62 484.83,-900.62 488.67,-900.62 492.5,-904.46 492.5,-908.29 492.5,-908.29 492.5,-915.96 492.5,-915.96 492.5,-919.79 488.67,-923.62 484.83,-923.62"/>
<text text-anchor="middle" x="392" y="-908.42" font-family="Arial" font-size="14.00" fill="#c6c5fe">components/AuthContainer.tsx</text>
</g>
<!-- services/Firebase.ts -->
<g id="node2" class="node">
<title>services/Firebase.ts</title>
<path fill="none" stroke="#c6c5fe" d="M727.83,-923.62C727.83,-923.62 606.17,-923.62 606.17,-923.62 602.33,-923.62 598.5,-919.79 598.5,-915.96 598.5,-915.96 598.5,-908.29 598.5,-908.29 598.5,-904.46 602.33,-900.62 606.17,-900.62 606.17,-900.62 727.83,-900.62 727.83,-900.62 731.67,-900.62 735.5,-904.46 735.5,-908.29 735.5,-908.29 735.5,-915.96 735.5,-915.96 735.5,-919.79 731.67,-923.62 727.83,-923.62"/>
<text text-anchor="middle" x="667" y="-908.42" font-family="Arial" font-size="14.00" fill="#c6c5fe">services/Firebase.ts</text>
</g>
<!-- components/AuthContainer.tsx&#45;&gt;services/Firebase.ts -->
<g id="edge1" class="edge">
<title>components/AuthContainer.tsx&#45;&gt;services/Firebase.ts</title>
<path fill="none" stroke="#757575" d="M492.72,-912.12C524.06,-912.12 558.19,-912.12 587.81,-912.12"/>
<polygon fill="#757575" stroke="#757575" points="588.09,-915.62 598.09,-912.12 588.09,-908.62 588.09,-915.62"/>
</g>
<!-- types/models.d.ts -->
<g id="node51" class="node">
<title>types/models.d.ts</title>
<path fill="none" stroke="#cfffac" d="M1890.83,-785.62C1890.83,-785.62 1784.17,-785.62 1784.17,-785.62 1780.33,-785.62 1776.5,-781.79 1776.5,-777.96 1776.5,-777.96 1776.5,-770.29 1776.5,-770.29 1776.5,-766.46 1780.33,-762.62 1784.17,-762.62 1784.17,-762.62 1890.83,-762.62 1890.83,-762.62 1894.67,-762.62 1898.5,-766.46 1898.5,-770.29 1898.5,-770.29 1898.5,-777.96 1898.5,-777.96 1898.5,-781.79 1894.67,-785.62 1890.83,-785.62"/>
<text text-anchor="middle" x="1837.5" y="-770.42" font-family="Arial" font-size="14.00" fill="#cfffac">types/models.d.ts</text>
</g>
<!-- services/Firebase.ts&#45;&gt;types/models.d.ts -->
<g id="edge91" class="edge">
<title>services/Firebase.ts&#45;&gt;types/models.d.ts</title>
<path fill="none" stroke="#757575" d="M735.55,-922.67C902.14,-945.71 1343.03,-988.37 1673,-855.12 1692.58,-847.22 1690.92,-835.02 1709,-824.12 1733.54,-809.34 1763.23,-797.39 1787.78,-788.89"/>
<polygon fill="#757575" stroke="#757575" points="1788.91,-792.2 1797.26,-785.69 1786.67,-785.57 1788.91,-792.2"/>
</g>
<!-- components/AuthFrom.tsx -->
<g id="node3" class="node">
<title>components/AuthFrom.tsx</title>
<path fill="none" stroke="#ff6c60" d="M1037.83,-763.62C1037.83,-763.62 877.17,-763.62 877.17,-763.62 873.33,-763.62 869.5,-759.79 869.5,-755.96 869.5,-755.96 869.5,-748.29 869.5,-748.29 869.5,-744.46 873.33,-740.62 877.17,-740.62 877.17,-740.62 1037.83,-740.62 1037.83,-740.62 1041.67,-740.62 1045.5,-744.46 1045.5,-748.29 1045.5,-748.29 1045.5,-755.96 1045.5,-755.96 1045.5,-759.79 1041.67,-763.62 1037.83,-763.62"/>
<text text-anchor="middle" x="957.5" y="-748.42" font-family="Arial" font-size="14.00" fill="#ff6c60">components/AuthFrom.tsx</text>
</g>
<!-- components/Form.tsx -->
<g id="node4" class="node">
<title>components/Form.tsx</title>
<path fill="none" stroke="#cfffac" d="M1316.83,-844.62C1316.83,-844.62 1184.17,-844.62 1184.17,-844.62 1180.33,-844.62 1176.5,-840.79 1176.5,-836.96 1176.5,-836.96 1176.5,-829.29 1176.5,-829.29 1176.5,-825.46 1180.33,-821.62 1184.17,-821.62 1184.17,-821.62 1316.83,-821.62 1316.83,-821.62 1320.67,-821.62 1324.5,-825.46 1324.5,-829.29 1324.5,-829.29 1324.5,-836.96 1324.5,-836.96 1324.5,-840.79 1320.67,-844.62 1316.83,-844.62"/>
<text text-anchor="middle" x="1250.5" y="-829.42" font-family="Arial" font-size="14.00" fill="#cfffac">components/Form.tsx</text>
</g>
<!-- components/AuthFrom.tsx&#45;&gt;components/Form.tsx -->
<g id="edge2" class="edge">
<title>components/AuthFrom.tsx&#45;&gt;components/Form.tsx</title>
<path fill="none" stroke="#757575" d="M1045.55,-755.15C1063.63,-758.33 1082.03,-763.6 1098,-772.12 1119.1,-783.38 1113.11,-800.47 1134,-812.12 1143.98,-817.69 1155.13,-821.83 1166.46,-824.89"/>
<polygon fill="#757575" stroke="#757575" points="1165.89,-828.36 1176.43,-827.32 1167.54,-821.55 1165.89,-828.36"/>
</g>
<!-- components/FormInputGroup.tsx -->
<g id="node5" class="node">
<title>components/FormInputGroup.tsx</title>
<path fill="none" stroke="#ff6c60" d="M1350.83,-803.62C1350.83,-803.62 1150.17,-803.62 1150.17,-803.62 1146.33,-803.62 1142.5,-799.79 1142.5,-795.96 1142.5,-795.96 1142.5,-788.29 1142.5,-788.29 1142.5,-784.46 1146.33,-780.62 1150.17,-780.62 1150.17,-780.62 1350.83,-780.62 1350.83,-780.62 1354.67,-780.62 1358.5,-784.46 1358.5,-788.29 1358.5,-788.29 1358.5,-795.96 1358.5,-795.96 1358.5,-799.79 1354.67,-803.62 1350.83,-803.62"/>
<text text-anchor="middle" x="1250.5" y="-788.42" font-family="Arial" font-size="14.00" fill="#ff6c60">components/FormInputGroup.tsx</text>
</g>
<!-- components/AuthFrom.tsx&#45;&gt;components/FormInputGroup.tsx -->
<g id="edge3" class="edge">
<title>components/AuthFrom.tsx&#45;&gt;components/FormInputGroup.tsx</title>
<path fill="none" stroke="#757575" d="M1045.81,-757.88C1093.45,-763.56 1151.04,-771.73 1192.82,-778.85"/>
<polygon fill="#757575" stroke="#757575" points="1192.36,-782.33 1202.82,-780.59 1193.56,-775.43 1192.36,-782.33"/>
</g>
<!-- components/FormInputGroup.tsx&#45;&gt;components/AuthFrom.tsx -->
<g id="edge4" class="edge">
<title>components/FormInputGroup.tsx&#45;&gt;components/AuthFrom.tsx</title>
<path fill="none" stroke="#757575" d="M1142.47,-783.95C1099.31,-778.5 1051.28,-771.55 1015.12,-765.38"/>
<polygon fill="#757575" stroke="#757575" points="1015.71,-761.93 1005.25,-763.66 1014.51,-768.83 1015.71,-761.93"/>
</g>
<!-- components/FormInputGroup.scss -->
<g id="node6" class="node">
<title>components/FormInputGroup.scss</title>
<path fill="none" stroke="#cfffac" d="M1643.33,-846.62C1643.33,-846.62 1432.67,-846.62 1432.67,-846.62 1428.83,-846.62 1425,-842.79 1425,-838.96 1425,-838.96 1425,-831.29 1425,-831.29 1425,-827.46 1428.83,-823.62 1432.67,-823.62 1432.67,-823.62 1643.33,-823.62 1643.33,-823.62 1647.17,-823.62 1651,-827.46 1651,-831.29 1651,-831.29 1651,-838.96 1651,-838.96 1651,-842.79 1647.17,-846.62 1643.33,-846.62"/>
<text text-anchor="middle" x="1538" y="-831.42" font-family="Arial" font-size="14.00" fill="#cfffac">components/FormInputGroup.scss</text>
</g>
<!-- components/FormInputGroup.tsx&#45;&gt;components/FormInputGroup.scss -->
<g id="edge5" class="edge">
<title>components/FormInputGroup.tsx&#45;&gt;components/FormInputGroup.scss</title>
<path fill="none" stroke="#757575" d="M1328.01,-803.65C1365.61,-809.31 1411.09,-816.16 1450.01,-822.02"/>
<polygon fill="#757575" stroke="#757575" points="1449.87,-825.54 1460.28,-823.57 1450.91,-818.62 1449.87,-825.54"/>
</g>
<!-- components/Friends.tsx -->
<g id="node7" class="node">
<title>components/Friends.tsx</title>
<path fill="none" stroke="#cfffac" d="M188.33,-1290.62C188.33,-1290.62 42.67,-1290.62 42.67,-1290.62 38.83,-1290.62 35,-1286.79 35,-1282.96 35,-1282.96 35,-1275.29 35,-1275.29 35,-1271.46 38.83,-1267.62 42.67,-1267.62 42.67,-1267.62 188.33,-1267.62 188.33,-1267.62 192.17,-1267.62 196,-1271.46 196,-1275.29 196,-1275.29 196,-1282.96 196,-1282.96 196,-1286.79 192.17,-1290.62 188.33,-1290.62"/>
<text text-anchor="middle" x="115.5" y="-1275.42" font-family="Arial" font-size="14.00" fill="#cfffac">components/Friends.tsx</text>
</g>
<!-- components/ModalForm.scss -->
<g id="node8" class="node">
<title>components/ModalForm.scss</title>
<path fill="none" stroke="#cfffac" d="M481.83,-1331.62C481.83,-1331.62 302.17,-1331.62 302.17,-1331.62 298.33,-1331.62 294.5,-1327.79 294.5,-1323.96 294.5,-1323.96 294.5,-1316.29 294.5,-1316.29 294.5,-1312.46 298.33,-1308.62 302.17,-1308.62 302.17,-1308.62 481.83,-1308.62 481.83,-1308.62 485.67,-1308.62 489.5,-1312.46 489.5,-1316.29 489.5,-1316.29 489.5,-1323.96 489.5,-1323.96 489.5,-1327.79 485.67,-1331.62 481.83,-1331.62"/>
<text text-anchor="middle" x="392" y="-1316.42" font-family="Arial" font-size="14.00" fill="#cfffac">components/ModalForm.scss</text>
</g>
<!-- components/ModalForm.tsx -->
<g id="node9" class="node">
<title>components/ModalForm.tsx</title>
<path fill="none" stroke="#c6c5fe" d="M200.33,-1331.62C200.33,-1331.62 30.67,-1331.62 30.67,-1331.62 26.83,-1331.62 23,-1327.79 23,-1323.96 23,-1323.96 23,-1316.29 23,-1316.29 23,-1312.46 26.83,-1308.62 30.67,-1308.62 30.67,-1308.62 200.33,-1308.62 200.33,-1308.62 204.17,-1308.62 208,-1312.46 208,-1316.29 208,-1316.29 208,-1323.96 208,-1323.96 208,-1327.79 204.17,-1331.62 200.33,-1331.62"/>
<text text-anchor="middle" x="115.5" y="-1316.42" font-family="Arial" font-size="14.00" fill="#c6c5fe">components/ModalForm.tsx</text>
</g>
<!-- components/ModalForm.tsx&#45;&gt;components/ModalForm.scss -->
<g id="edge6" class="edge">
<title>components/ModalForm.tsx&#45;&gt;components/ModalForm.scss</title>
<path fill="none" stroke="#757575" d="M208.29,-1320.12C232.53,-1320.12 258.91,-1320.12 283.89,-1320.12"/>
<polygon fill="#757575" stroke="#757575" points="284.13,-1323.62 294.13,-1320.12 284.13,-1316.62 284.13,-1323.62"/>
</g>
<!-- components/containers/App.test.tsx -->
<g id="node10" class="node">
<title>components/containers/App.test.tsx</title>
<path fill="none" stroke="#c6c5fe" d="M223.33,-1249.62C223.33,-1249.62 7.67,-1249.62 7.67,-1249.62 3.83,-1249.62 0,-1245.79 0,-1241.96 0,-1241.96 0,-1234.29 0,-1234.29 0,-1230.46 3.83,-1226.62 7.67,-1226.62 7.67,-1226.62 223.33,-1226.62 223.33,-1226.62 227.17,-1226.62 231,-1230.46 231,-1234.29 231,-1234.29 231,-1241.96 231,-1241.96 231,-1245.79 227.17,-1249.62 223.33,-1249.62"/>
<text text-anchor="middle" x="115.5" y="-1234.42" font-family="Arial" font-size="14.00" fill="#c6c5fe">components/containers/App.test.tsx</text>
</g>
<!-- components/containers/App.tsx -->
<g id="node11" class="node">
<title>components/containers/App.tsx</title>
<path fill="none" stroke="#c6c5fe" d="M487.33,-1249.62C487.33,-1249.62 296.67,-1249.62 296.67,-1249.62 292.83,-1249.62 289,-1245.79 289,-1241.96 289,-1241.96 289,-1234.29 289,-1234.29 289,-1230.46 292.83,-1226.62 296.67,-1226.62 296.67,-1226.62 487.33,-1226.62 487.33,-1226.62 491.17,-1226.62 495,-1230.46 495,-1234.29 495,-1234.29 495,-1241.96 495,-1241.96 495,-1245.79 491.17,-1249.62 487.33,-1249.62"/>
<text text-anchor="middle" x="392" y="-1234.42" font-family="Arial" font-size="14.00" fill="#c6c5fe">components/containers/App.tsx</text>
</g>
<!-- components/containers/App.test.tsx&#45;&gt;components/containers/App.tsx -->
<g id="edge7" class="edge">
<title>components/containers/App.test.tsx&#45;&gt;components/containers/App.tsx</title>
<path fill="none" stroke="#757575" d="M231.32,-1238.12C246.99,-1238.12 263.06,-1238.12 278.68,-1238.12"/>
<polygon fill="#757575" stroke="#757575" points="278.87,-1241.62 288.87,-1238.12 278.87,-1234.62 278.87,-1241.62"/>
</g>
<!-- components/menus/RootMenu.tsx -->
<g id="node12" class="node">
<title>components/menus/RootMenu.tsx</title>
<path fill="none" stroke="#c6c5fe" d="M771.33,-1219.62C771.33,-1219.62 562.67,-1219.62 562.67,-1219.62 558.83,-1219.62 555,-1215.79 555,-1211.96 555,-1211.96 555,-1204.29 555,-1204.29 555,-1200.46 558.83,-1196.62 562.67,-1196.62 562.67,-1196.62 771.33,-1196.62 771.33,-1196.62 775.17,-1196.62 779,-1200.46 779,-1204.29 779,-1204.29 779,-1211.96 779,-1211.96 779,-1215.79 775.17,-1219.62 771.33,-1219.62"/>
<text text-anchor="middle" x="667" y="-1204.42" font-family="Arial" font-size="14.00" fill="#c6c5fe">components/menus/RootMenu.tsx</text>
</g>
<!-- components/containers/App.tsx&#45;&gt;components/menus/RootMenu.tsx -->
<g id="edge8" class="edge">
<title>components/containers/App.tsx&#45;&gt;components/menus/RootMenu.tsx</title>
<path fill="none" stroke="#757575" d="M495.04,-1226.91C513.4,-1224.89 532.65,-1222.78 551.34,-1220.72"/>
<polygon fill="#757575" stroke="#757575" points="551.79,-1224.19 561.35,-1219.62 551.03,-1217.24 551.79,-1224.19"/>
</g>
<!-- main/RoutePath.ts -->
<g id="node13" class="node">
<title>main/RoutePath.ts</title>
<path fill="none" stroke="#c6c5fe" d="M1306.83,-1032.62C1306.83,-1032.62 1194.17,-1032.62 1194.17,-1032.62 1190.33,-1032.62 1186.5,-1028.79 1186.5,-1024.96 1186.5,-1024.96 1186.5,-1017.29 1186.5,-1017.29 1186.5,-1013.46 1190.33,-1009.62 1194.17,-1009.62 1194.17,-1009.62 1306.83,-1009.62 1306.83,-1009.62 1310.67,-1009.62 1314.5,-1013.46 1314.5,-1017.29 1314.5,-1017.29 1314.5,-1024.96 1314.5,-1024.96 1314.5,-1028.79 1310.67,-1032.62 1306.83,-1032.62"/>
<text text-anchor="middle" x="1250.5" y="-1017.42" font-family="Arial" font-size="14.00" fill="#c6c5fe">main/RoutePath.ts</text>
</g>
<!-- components/containers/App.tsx&#45;&gt;main/RoutePath.ts -->
<g id="edge9" class="edge">
<title>components/containers/App.tsx&#45;&gt;main/RoutePath.ts</title>
<path fill="none" stroke="#757575" d="M490.94,-1226.58C499.95,-1224.02 508.77,-1220.91 517,-1217.12 535.92,-1208.42 533.88,-1195.38 553,-1187.12 777,-1090.4 868.97,-1205.24 1098,-1121.12 1149.47,-1102.22 1200.97,-1062.81 1228.67,-1039.51"/>
<polygon fill="#757575" stroke="#757575" points="1231.15,-1042 1236.48,-1032.84 1226.6,-1036.67 1231.15,-1042"/>
</g>
<!-- types/types.d.ts -->
<g id="node17" class="node">
<title>types/types.d.ts</title>
<path fill="none" stroke="#cfffac" d="M2104.33,-666.62C2104.33,-666.62 2009.67,-666.62 2009.67,-666.62 2005.83,-666.62 2002,-662.79 2002,-658.96 2002,-658.96 2002,-651.29 2002,-651.29 2002,-647.46 2005.83,-643.62 2009.67,-643.62 2009.67,-643.62 2104.33,-643.62 2104.33,-643.62 2108.17,-643.62 2112,-647.46 2112,-651.29 2112,-651.29 2112,-658.96 2112,-658.96 2112,-662.79 2108.17,-666.62 2104.33,-666.62"/>
<text text-anchor="middle" x="2057" y="-651.42" font-family="Arial" font-size="14.00" fill="#cfffac">types/types.d.ts</text>
</g>
<!-- components/menus/RootMenu.tsx&#45;&gt;types/types.d.ts -->
<g id="edge34" class="edge">
<title>components/menus/RootMenu.tsx&#45;&gt;types/types.d.ts</title>
<path fill="none" stroke="#757575" d="M779.17,-1213.61C896.18,-1218.9 1085.75,-1226.12 1249.5,-1226.12 1249.5,-1226.12 1249.5,-1226.12 1539,-1226.12 1729.78,-1226.12 1826.69,-1312.47 1966,-1182.12 2041.23,-1111.73 2053.67,-767.1 2055.64,-676.81"/>
<polygon fill="#757575" stroke="#757575" points="2059.14,-676.73 2055.84,-666.66 2052.14,-676.59 2059.14,-676.73"/>
</g>
<!-- components/menus/DropdownMenu.tsx -->
<g id="node27" class="node">
<title>components/menus/DropdownMenu.tsx</title>
<path fill="none" stroke="#c6c5fe" d="M1958.33,-1173.62C1958.33,-1173.62 1716.67,-1173.62 1716.67,-1173.62 1712.83,-1173.62 1709,-1169.79 1709,-1165.96 1709,-1165.96 1709,-1158.29 1709,-1158.29 1709,-1154.46 1712.83,-1150.62 1716.67,-1150.62 1716.67,-1150.62 1958.33,-1150.62 1958.33,-1150.62 1962.17,-1150.62 1966,-1154.46 1966,-1158.29 1966,-1158.29 1966,-1165.96 1966,-1165.96 1966,-1169.79 1962.17,-1173.62 1958.33,-1173.62"/>
<text text-anchor="middle" x="1837.5" y="-1158.42" font-family="Arial" font-size="14.00" fill="#c6c5fe">components/menus/DropdownMenu.tsx</text>
</g>
<!-- components/menus/RootMenu.tsx&#45;&gt;components/menus/DropdownMenu.tsx -->
<g id="edge32" class="edge">
<title>components/menus/RootMenu.tsx&#45;&gt;components/menus/DropdownMenu.tsx</title>
<path fill="none" stroke="#757575" d="M779.25,-1203.74C993.82,-1195.3 1464.31,-1176.77 1698.47,-1167.56"/>
<polygon fill="#757575" stroke="#757575" points="1698.9,-1171.04 1708.75,-1167.15 1698.62,-1164.05 1698.9,-1171.04"/>
</g>
<!-- main/MenuConfig.ts -->
<g id="node28" class="node">
<title>main/MenuConfig.ts</title>
<path fill="none" stroke="#c6c5fe" d="M1018.83,-1112.62C1018.83,-1112.62 896.17,-1112.62 896.17,-1112.62 892.33,-1112.62 888.5,-1108.79 888.5,-1104.96 888.5,-1104.96 888.5,-1097.29 888.5,-1097.29 888.5,-1093.46 892.33,-1089.62 896.17,-1089.62 896.17,-1089.62 1018.83,-1089.62 1018.83,-1089.62 1022.67,-1089.62 1026.5,-1093.46 1026.5,-1097.29 1026.5,-1097.29 1026.5,-1104.96 1026.5,-1104.96 1026.5,-1108.79 1022.67,-1112.62 1018.83,-1112.62"/>
<text text-anchor="middle" x="957.5" y="-1097.42" font-family="Arial" font-size="14.00" fill="#c6c5fe">main/MenuConfig.ts</text>
</g>
<!-- components/menus/RootMenu.tsx&#45;&gt;main/MenuConfig.ts -->
<g id="edge33" class="edge">
<title>components/menus/RootMenu.tsx&#45;&gt;main/MenuConfig.ts</title>
<path fill="none" stroke="#757575" d="M699.15,-1196.57C751.63,-1177.11 857.62,-1137.8 915.87,-1116.19"/>
<polygon fill="#757575" stroke="#757575" points="917.32,-1119.39 925.48,-1112.63 914.89,-1112.82 917.32,-1119.39"/>
</g>
<!-- main/RoutePath.ts&#45;&gt;types/types.d.ts -->
<g id="edge88" class="edge">
<title>main/RoutePath.ts&#45;&gt;types/types.d.ts</title>
<path fill="none" stroke="#757575" d="M1314.82,-1025.99C1398.66,-1030.48 1550.22,-1031.74 1673,-995.12 1816.64,-952.29 1862.06,-936.12 1966,-828.12 2009.61,-782.8 2037.33,-712.15 2049.25,-676.8"/>
<polygon fill="#757575" stroke="#757575" points="2052.66,-677.62 2052.44,-667.03 2046,-675.45 2052.66,-677.62"/>
</g>
<!-- components/forms/CatalogForm.tsx -->
<g id="node14" class="node">
<title>components/forms/CatalogForm.tsx</title>
<path fill="none" stroke="#c6c5fe" d="M1359.33,-182.62C1359.33,-182.62 1141.67,-182.62 1141.67,-182.62 1137.83,-182.62 1134,-178.79 1134,-174.96 1134,-174.96 1134,-167.29 1134,-167.29 1134,-163.46 1137.83,-159.62 1141.67,-159.62 1141.67,-159.62 1359.33,-159.62 1359.33,-159.62 1363.17,-159.62 1367,-163.46 1367,-167.29 1367,-167.29 1367,-174.96 1367,-174.96 1367,-178.79 1363.17,-182.62 1359.33,-182.62"/>
<text text-anchor="middle" x="1250.5" y="-167.42" font-family="Arial" font-size="14.00" fill="#c6c5fe">components/forms/CatalogForm.tsx</text>
</g>
<!-- components/forms/catalogFormConfig.tsx -->
<g id="node15" class="node">
<title>components/forms/catalogFormConfig.tsx</title>
<path fill="none" stroke="#c6c5fe" d="M1664.83,-106.62C1664.83,-106.62 1411.17,-106.62 1411.17,-106.62 1407.33,-106.62 1403.5,-102.79 1403.5,-98.96 1403.5,-98.96 1403.5,-91.29 1403.5,-91.29 1403.5,-87.46 1407.33,-83.62 1411.17,-83.62 1411.17,-83.62 1664.83,-83.62 1664.83,-83.62 1668.67,-83.62 1672.5,-87.46 1672.5,-91.29 1672.5,-91.29 1672.5,-98.96 1672.5,-98.96 1672.5,-102.79 1668.67,-106.62 1664.83,-106.62"/>
<text text-anchor="middle" x="1538" y="-91.42" font-family="Arial" font-size="14.00" fill="#c6c5fe">components/forms/catalogFormConfig.tsx</text>
</g>
<!-- components/forms/CatalogForm.tsx&#45;&gt;components/forms/catalogFormConfig.tsx -->
<g id="edge10" class="edge">
<title>components/forms/CatalogForm.tsx&#45;&gt;components/forms/catalogFormConfig.tsx</title>
<path fill="none" stroke="#757575" d="M1306.02,-159.61C1325.35,-155.33 1347.2,-150.26 1367,-145.12 1409.15,-134.19 1456.65,-120.07 1490.71,-109.62"/>
<polygon fill="#757575" stroke="#757575" points="1491.85,-112.93 1500.38,-106.64 1489.79,-106.24 1491.85,-112.93"/>
</g>
<!-- types/dto.d.ts -->
<g id="node16" class="node">
<title>types/dto.d.ts</title>
<path fill="none" stroke="#c6c5fe" d="M1878.33,-386.62C1878.33,-386.62 1796.67,-386.62 1796.67,-386.62 1792.83,-386.62 1789,-382.79 1789,-378.96 1789,-378.96 1789,-371.29 1789,-371.29 1789,-367.46 1792.83,-363.62 1796.67,-363.62 1796.67,-363.62 1878.33,-363.62 1878.33,-363.62 1882.17,-363.62 1886,-367.46 1886,-371.29 1886,-371.29 1886,-378.96 1886,-378.96 1886,-382.79 1882.17,-386.62 1878.33,-386.62"/>
<text text-anchor="middle" x="1837.5" y="-371.42" font-family="Arial" font-size="14.00" fill="#c6c5fe">types/dto.d.ts</text>
</g>
<!-- components/forms/CatalogForm.tsx&#45;&gt;types/dto.d.ts -->
<g id="edge11" class="edge">
<title>components/forms/CatalogForm.tsx&#45;&gt;types/dto.d.ts</title>
<path fill="none" stroke="#757575" d="M1325.7,-159.62C1413.28,-149.56 1561.15,-143.82 1673,-197.12 1746.33,-232.07 1802.25,-315.96 1825.16,-354.78"/>
<polygon fill="#757575" stroke="#757575" points="1822.24,-356.71 1830.27,-363.62 1828.3,-353.21 1822.24,-356.71"/>
</g>
<!-- components/forms/CatalogForm.tsx&#45;&gt;types/types.d.ts -->
<g id="edge12" class="edge">
<title>components/forms/CatalogForm.tsx&#45;&gt;types/types.d.ts</title>
<path fill="none" stroke="#757575" d="M1340.92,-159.52C1350.29,-155.89 1359.21,-151.18 1367,-145.12 1394.92,-123.39 1372.85,-92.64 1403,-74.12 1510.28,-8.24 1878.77,-46.35 1966,-137.12 2036.05,-210.02 2052.26,-544.64 2055.35,-633.44"/>
<polygon fill="#757575" stroke="#757575" points="2051.86,-633.56 2055.68,-643.44 2058.85,-633.33 2051.86,-633.56"/>
</g>
<!-- components/forms/catalogFormConfig.tsx&#45;&gt;types/dto.d.ts -->
<g id="edge19" class="edge">
<title>components/forms/catalogFormConfig.tsx&#45;&gt;types/dto.d.ts</title>
<path fill="none" stroke="#757575" d="M1649.38,-106.66C1657.91,-110.42 1665.93,-115.17 1673,-121.12 1707.53,-150.21 1686.6,-176.92 1709,-216.12 1740.61,-271.45 1790.83,-327.61 1817.85,-356.06"/>
<polygon fill="#757575" stroke="#757575" points="1815.37,-358.53 1824.81,-363.32 1820.42,-353.68 1815.37,-358.53"/>
</g>
<!-- components/forms/catalogFormConfig.tsx&#45;&gt;types/types.d.ts -->
<g id="edge20" class="edge">
<title>components/forms/catalogFormConfig.tsx&#45;&gt;types/types.d.ts</title>
<path fill="none" stroke="#757575" d="M1630.24,-106.69C1644.92,-110.28 1659.66,-114.97 1673,-121.12 1824.11,-190.74 1872.78,-216.31 1966,-354.12 2027.93,-445.67 2048.21,-580.87 2053.97,-633.27"/>
<polygon fill="#757575" stroke="#757575" points="2050.51,-633.83 2055.02,-643.41 2057.47,-633.11 2050.51,-633.83"/>
</g>
<!-- types/dto.d.ts&#45;&gt;types/types.d.ts -->
<g id="edge95" class="edge">
<title>types/dto.d.ts&#45;&gt;types/types.d.ts</title>
<path fill="none" stroke="#757575" d="M1860.45,-386.63C1888.1,-402.04 1935.66,-431.71 1966,-468.12 2009.45,-520.28 2037.69,-596.95 2049.58,-633.8"/>
<polygon fill="#757575" stroke="#757575" points="2046.28,-635 2052.62,-643.49 2052.96,-632.9 2046.28,-635"/>
</g>
<!-- components/forms/ProductForm.tsx -->
<g id="node18" class="node">
<title>components/forms/ProductForm.tsx</title>
<path fill="none" stroke="#c6c5fe" d="M1359.33,-684.62C1359.33,-684.62 1141.67,-684.62 1141.67,-684.62 1137.83,-684.62 1134,-680.79 1134,-676.96 1134,-676.96 1134,-669.29 1134,-669.29 1134,-665.46 1137.83,-661.62 1141.67,-661.62 1141.67,-661.62 1359.33,-661.62 1359.33,-661.62 1363.17,-661.62 1367,-665.46 1367,-669.29 1367,-669.29 1367,-676.96 1367,-676.96 1367,-680.79 1363.17,-684.62 1359.33,-684.62"/>
<text text-anchor="middle" x="1250.5" y="-669.42" font-family="Arial" font-size="14.00" fill="#c6c5fe">components/forms/ProductForm.tsx</text>
</g>
<!-- components/forms/ProductForm.tsx&#45;&gt;types/dto.d.ts -->
<g id="edge15" class="edge">
<title>components/forms/ProductForm.tsx&#45;&gt;types/dto.d.ts</title>
<path fill="none" stroke="#757575" d="M1324.39,-661.59C1428.95,-644.09 1615.3,-609.04 1673,-573.12 1746.78,-527.2 1803,-436.42 1825.62,-395.71"/>
<polygon fill="#757575" stroke="#757575" points="1828.81,-397.17 1830.52,-386.72 1822.66,-393.82 1828.81,-397.17"/>
</g>
<!-- components/forms/ProductForm.tsx&#45;&gt;types/types.d.ts -->
<g id="edge16" class="edge">
<title>components/forms/ProductForm.tsx&#45;&gt;types/types.d.ts</title>
<path fill="none" stroke="#757575" d="M1316.53,-684.67C1343.22,-688.86 1374.5,-693.06 1403,-695.12 1652.69,-713.16 1718.63,-716.54 1966,-678.12 1979.59,-676.01 1994.11,-672.76 2007.43,-669.35"/>
<polygon fill="#757575" stroke="#757575" points="2008.58,-672.67 2017.35,-666.74 2006.79,-665.9 2008.58,-672.67"/>
</g>
<!-- components/forms/productFormConfig.tsx -->
<g id="node19" class="node">
<title>components/forms/productFormConfig.tsx</title>
<path fill="none" stroke="#c6c5fe" d="M1665.33,-686.62C1665.33,-686.62 1410.67,-686.62 1410.67,-686.62 1406.83,-686.62 1403,-682.79 1403,-678.96 1403,-678.96 1403,-671.29 1403,-671.29 1403,-667.46 1406.83,-663.62 1410.67,-663.62 1410.67,-663.62 1665.33,-663.62 1665.33,-663.62 1669.17,-663.62 1673,-667.46 1673,-671.29 1673,-671.29 1673,-678.96 1673,-678.96 1673,-682.79 1669.17,-686.62 1665.33,-686.62"/>
<text text-anchor="middle" x="1538" y="-671.42" font-family="Arial" font-size="14.00" fill="#c6c5fe">components/forms/productFormConfig.tsx</text>
</g>
<!-- components/forms/ProductForm.tsx&#45;&gt;components/forms/productFormConfig.tsx -->
<g id="edge13" class="edge">
<title>components/forms/ProductForm.tsx&#45;&gt;components/forms/productFormConfig.tsx</title>
<path fill="none" stroke="#757575" d="M1367.21,-673.93C1375.66,-673.99 1384.23,-674.05 1392.81,-674.11"/>
<polygon fill="#757575" stroke="#757575" points="1392.86,-677.61 1402.88,-674.18 1392.91,-670.61 1392.86,-677.61"/>
</g>
<!-- services/RestService.ts -->
<g id="node20" class="node">
<title>services/RestService.ts</title>
<path fill="none" stroke="#c6c5fe" d="M1608.83,-766.62C1608.83,-766.62 1467.17,-766.62 1467.17,-766.62 1463.33,-766.62 1459.5,-762.79 1459.5,-758.96 1459.5,-758.96 1459.5,-751.29 1459.5,-751.29 1459.5,-747.46 1463.33,-743.62 1467.17,-743.62 1467.17,-743.62 1608.83,-743.62 1608.83,-743.62 1612.67,-743.62 1616.5,-747.46 1616.5,-751.29 1616.5,-751.29 1616.5,-758.96 1616.5,-758.96 1616.5,-762.79 1612.67,-766.62 1608.83,-766.62"/>
<text text-anchor="middle" x="1538" y="-751.42" font-family="Arial" font-size="14.00" fill="#c6c5fe">services/RestService.ts</text>
</g>
<!-- components/forms/ProductForm.tsx&#45;&gt;services/RestService.ts -->
<g id="edge14" class="edge">
<title>components/forms/ProductForm.tsx&#45;&gt;services/RestService.ts</title>
<path fill="none" stroke="#757575" d="M1326.9,-684.67C1340.65,-688.28 1354.56,-692.99 1367,-699.12 1385.68,-708.33 1384.18,-720.19 1403,-729.12 1417.45,-735.98 1433.59,-741.03 1449.53,-744.75"/>
<polygon fill="#757575" stroke="#757575" points="1448.9,-748.19 1459.42,-746.9 1450.39,-741.35 1448.9,-748.19"/>
</g>
<!-- components/forms/productFormConfig.tsx&#45;&gt;types/dto.d.ts -->
<g id="edge21" class="edge">
<title>components/forms/productFormConfig.tsx&#45;&gt;types/dto.d.ts</title>
<path fill="none" stroke="#757575" d="M1644.59,-663.62C1654.69,-659.92 1664.37,-655.18 1673,-649.12 1765.46,-584.2 1814.37,-448.81 1830.44,-396.45"/>
<polygon fill="#757575" stroke="#757575" points="1833.79,-397.44 1833.29,-386.86 1827.09,-395.44 1833.79,-397.44"/>
</g>
<!-- components/forms/productFormConfig.tsx&#45;&gt;types/types.d.ts -->
<g id="edge22" class="edge">
<title>components/forms/productFormConfig.tsx&#45;&gt;types/types.d.ts</title>
<path fill="none" stroke="#757575" d="M1673.15,-669.93C1775.66,-665.97 1912.41,-660.68 1991.68,-657.61"/>
<polygon fill="#757575" stroke="#757575" points="1992.14,-661.1 2002,-657.21 1991.87,-654.1 1992.14,-661.1"/>
</g>
<!-- services/RestService.ts&#45;&gt;types/models.d.ts -->
<g id="edge94" class="edge">
<title>services/RestService.ts&#45;&gt;types/models.d.ts</title>
<path fill="none" stroke="#757575" d="M1616.78,-760.09C1662.94,-763.04 1721,-766.75 1765.85,-769.61"/>
<polygon fill="#757575" stroke="#757575" points="1765.88,-773.12 1776.08,-770.26 1766.32,-766.13 1765.88,-773.12"/>
</g>
<!-- services/products.json.ts -->
<g id="node53" class="node">
<title>services/products.json.ts</title>
<path fill="none" stroke="#cfffac" d="M1911.83,-744.62C1911.83,-744.62 1763.17,-744.62 1763.17,-744.62 1759.33,-744.62 1755.5,-740.79 1755.5,-736.96 1755.5,-736.96 1755.5,-729.29 1755.5,-729.29 1755.5,-725.46 1759.33,-721.62 1763.17,-721.62 1763.17,-721.62 1911.83,-721.62 1911.83,-721.62 1915.67,-721.62 1919.5,-725.46 1919.5,-729.29 1919.5,-729.29 1919.5,-736.96 1919.5,-736.96 1919.5,-740.79 1915.67,-744.62 1911.83,-744.62"/>
<text text-anchor="middle" x="1837.5" y="-729.42" font-family="Arial" font-size="14.00" fill="#cfffac">services/products.json.ts</text>
</g>
<!-- services/RestService.ts&#45;&gt;services/products.json.ts -->
<g id="edge93" class="edge">
<title>services/RestService.ts&#45;&gt;services/products.json.ts</title>
<path fill="none" stroke="#757575" d="M1616.78,-749.37C1656.14,-746.46 1704.17,-742.91 1745.27,-739.87"/>
<polygon fill="#757575" stroke="#757575" points="1745.57,-743.36 1755.28,-739.13 1745.05,-736.38 1745.57,-743.36"/>
</g>
<!-- components/forms/ResetPasswordForm.tsx -->
<g id="node21" class="node">
<title>components/forms/ResetPasswordForm.tsx</title>
<path fill="none" stroke="#c6c5fe" d="M1090.33,-804.62C1090.33,-804.62 824.67,-804.62 824.67,-804.62 820.83,-804.62 817,-800.79 817,-796.96 817,-796.96 817,-789.29 817,-789.29 817,-785.46 820.83,-781.62 824.67,-781.62 824.67,-781.62 1090.33,-781.62 1090.33,-781.62 1094.17,-781.62 1098,-785.46 1098,-789.29 1098,-789.29 1098,-796.96 1098,-796.96 1098,-800.79 1094.17,-804.62 1090.33,-804.62"/>
<text text-anchor="middle" x="957.5" y="-789.42" font-family="Arial" font-size="14.00" fill="#c6c5fe">components/forms/ResetPasswordForm.tsx</text>
</g>
<!-- components/forms/ResetPasswordForm.tsx&#45;&gt;components/Form.tsx -->
<g id="edge17" class="edge">
<title>components/forms/ResetPasswordForm.tsx&#45;&gt;components/Form.tsx</title>
<path fill="none" stroke="#757575" d="M1042.28,-804.64C1081.12,-809.98 1127.16,-816.31 1165.97,-821.64"/>
<polygon fill="#757575" stroke="#757575" points="1165.81,-825.15 1176.19,-823.05 1166.76,-818.22 1165.81,-825.15"/>
</g>
<!-- components/forms/ResetPasswordForm.tsx&#45;&gt;components/FormInputGroup.tsx -->
<g id="edge18" class="edge">
<title>components/forms/ResetPasswordForm.tsx&#45;&gt;components/FormInputGroup.tsx</title>
<path fill="none" stroke="#757575" d="M1098.03,-792.64C1109.42,-792.6 1120.86,-792.57 1132.07,-792.53"/>
<polygon fill="#757575" stroke="#757575" points="1132.31,-796.03 1142.29,-792.49 1132.28,-789.03 1132.31,-796.03"/>
</g>
<!-- components/lists/CatalogList.tsx -->
<g id="node22" class="node">
<title>components/lists/CatalogList.tsx</title>
<path fill="none" stroke="#c6c5fe" d="M764.33,-260.62C764.33,-260.62 569.67,-260.62 569.67,-260.62 565.83,-260.62 562,-256.79 562,-252.96 562,-252.96 562,-245.29 562,-245.29 562,-241.46 565.83,-237.62 569.67,-237.62 569.67,-237.62 764.33,-237.62 764.33,-237.62 768.17,-237.62 772,-241.46 772,-245.29 772,-245.29 772,-252.96 772,-252.96 772,-256.79 768.17,-260.62 764.33,-260.62"/>
<text text-anchor="middle" x="667" y="-245.42" font-family="Arial" font-size="14.00" fill="#c6c5fe">components/lists/CatalogList.tsx</text>
</g>
<!-- components/lists/CatalogList.tsx&#45;&gt;main/RoutePath.ts -->
<g id="edge24" class="edge">
<title>components/lists/CatalogList.tsx&#45;&gt;main/RoutePath.ts</title>
<path fill="none" stroke="#757575" d="M676.71,-261.01C698.64,-291.67 756.17,-376.62 781,-457.12 804.44,-533.1 768.93,-749.79 817,-813.12 898.08,-919.95 978.65,-861.95 1098,-923.12 1145.24,-947.34 1196.33,-982.44 1225.47,-1003.4"/>
<polygon fill="#757575" stroke="#757575" points="1223.63,-1006.39 1233.78,-1009.43 1227.73,-1000.72 1223.63,-1006.39"/>
</g>
<!-- components/lists/CatalogList.tsx&#45;&gt;types/dto.d.ts -->
<g id="edge25" class="edge">
<title>components/lists/CatalogList.tsx&#45;&gt;types/dto.d.ts</title>
<path fill="none" stroke="#757575" d="M772.21,-244.69C994.22,-236.38 1507.05,-223.45 1673,-273.12 1729.59,-290.06 1785.9,-332.16 1815.39,-356.65"/>
<polygon fill="#757575" stroke="#757575" points="1813.42,-359.57 1823.32,-363.35 1817.94,-354.22 1813.42,-359.57"/>
</g>
<!-- components/modals/MakeCatalogModal.tsx -->
<g id="node23" class="node">
<title>components/modals/MakeCatalogModal.tsx</title>
<path fill="none" stroke="#c6c5fe" d="M1090.33,-220.62C1090.33,-220.62 824.67,-220.62 824.67,-220.62 820.83,-220.62 817,-216.79 817,-212.96 817,-212.96 817,-205.29 817,-205.29 817,-201.46 820.83,-197.62 824.67,-197.62 824.67,-197.62 1090.33,-197.62 1090.33,-197.62 1094.17,-197.62 1098,-201.46 1098,-205.29 1098,-205.29 1098,-212.96 1098,-212.96 1098,-216.79 1094.17,-220.62 1090.33,-220.62"/>
<text text-anchor="middle" x="957.5" y="-205.42" font-family="Arial" font-size="14.00" fill="#c6c5fe">components/modals/MakeCatalogModal.tsx</text>
</g>
<!-- components/lists/CatalogList.tsx&#45;&gt;components/modals/MakeCatalogModal.tsx -->
<g id="edge23" class="edge">
<title>components/lists/CatalogList.tsx&#45;&gt;components/modals/MakeCatalogModal.tsx</title>
<path fill="none" stroke="#757575" d="M751.06,-237.61C786.21,-232.73 827.31,-227.04 863.47,-222.02"/>
<polygon fill="#757575" stroke="#757575" points="864.1,-225.47 873.53,-220.63 863.14,-218.53 864.1,-225.47"/>
</g>
<!-- components/modals/MakeCatalogModal.tsx&#45;&gt;components/forms/CatalogForm.tsx -->
<g id="edge36" class="edge">
<title>components/modals/MakeCatalogModal.tsx&#45;&gt;components/forms/CatalogForm.tsx</title>
<path fill="none" stroke="#757575" d="M1046.6,-197.62C1079.64,-193.3 1117.38,-188.38 1151.28,-183.95"/>
<polygon fill="#757575" stroke="#757575" points="1151.74,-187.42 1161.2,-182.65 1150.83,-180.48 1151.74,-187.42"/>
</g>
<!-- components/modals/MakeCatalogModal.tsx&#45;&gt;types/dto.d.ts -->
<g id="edge38" class="edge">
<title>components/modals/MakeCatalogModal.tsx&#45;&gt;types/dto.d.ts</title>
<path fill="none" stroke="#757575" d="M1098.2,-203.4C1275.94,-197.97 1571.97,-195.68 1673,-235.12 1681.57,-238.47 1773.66,-319.47 1815.74,-356.7"/>
<polygon fill="#757575" stroke="#757575" points="1813.64,-359.52 1823.45,-363.53 1818.28,-354.28 1813.64,-359.52"/>
</g>
<!-- components/modals/MakeCatalogModal.tsx&#45;&gt;types/types.d.ts -->
<g id="edge39" class="edge">
<title>components/modals/MakeCatalogModal.tsx&#45;&gt;types/types.d.ts</title>
<path fill="none" stroke="#757575" d="M979.85,-197.55C1042.5,-164.33 1232.19,-69.02 1403,-37.12 1526,-14.16 1872.54,37.08 1966,-46.12 2055.55,-125.84 2057.26,-533.57 2056.32,-633.16"/>
<polygon fill="#757575" stroke="#757575" points="2052.82,-633.22 2056.2,-643.26 2059.82,-633.3 2052.82,-633.22"/>
</g>
<!-- components/modals/Modal.tsx -->
<g id="node30" class="node">
<title>components/modals/Modal.tsx</title>
<path fill="none" stroke="#cfffac" d="M1343.33,-376.62C1343.33,-376.62 1157.67,-376.62 1157.67,-376.62 1153.83,-376.62 1150,-372.79 1150,-368.96 1150,-368.96 1150,-361.29 1150,-361.29 1150,-357.46 1153.83,-353.62 1157.67,-353.62 1157.67,-353.62 1343.33,-353.62 1343.33,-353.62 1347.17,-353.62 1351,-357.46 1351,-361.29 1351,-361.29 1351,-368.96 1351,-368.96 1351,-372.79 1347.17,-376.62 1343.33,-376.62"/>
<text text-anchor="middle" x="1250.5" y="-361.42" font-family="Arial" font-size="14.00" fill="#cfffac">components/modals/Modal.tsx</text>
</g>
<!-- components/modals/MakeCatalogModal.tsx&#45;&gt;components/modals/Modal.tsx -->
<g id="edge37" class="edge">
<title>components/modals/MakeCatalogModal.tsx&#45;&gt;components/modals/Modal.tsx</title>
<path fill="none" stroke="#757575" d="M984.83,-220.69C1013.15,-233.33 1059.33,-254.55 1098,-275.12 1142.55,-298.82 1192.58,-329.34 1222.54,-348.06"/>
<polygon fill="#757575" stroke="#757575" points="1220.83,-351.12 1231.16,-353.47 1224.55,-345.19 1220.83,-351.12"/>
</g>
<!-- components/lists/ProductList.tsx -->
<g id="node24" class="node">
<title>components/lists/ProductList.tsx</title>
<path fill="none" stroke="#c6c5fe" d="M764.33,-663.62C764.33,-663.62 569.67,-663.62 569.67,-663.62 565.83,-663.62 562,-659.79 562,-655.96 562,-655.96 562,-648.29 562,-648.29 562,-644.46 565.83,-640.62 569.67,-640.62 569.67,-640.62 764.33,-640.62 764.33,-640.62 768.17,-640.62 772,-644.46 772,-648.29 772,-648.29 772,-655.96 772,-655.96 772,-659.79 768.17,-663.62 764.33,-663.62"/>
<text text-anchor="middle" x="667" y="-648.42" font-family="Arial" font-size="14.00" fill="#c6c5fe">components/lists/ProductList.tsx</text>
</g>
<!-- components/lists/ProductList.tsx&#45;&gt;main/RoutePath.ts -->
<g id="edge27" class="edge">
<title>components/lists/ProductList.tsx&#45;&gt;main/RoutePath.ts</title>
<path fill="none" stroke="#757575" d="M683.89,-663.85C708.64,-683.01 756.14,-723.49 781,-769.12 814.63,-830.85 767.13,-873.59 817,-923.12 866.99,-972.78 1066.59,-1001.52 1176.31,-1013.88"/>
<polygon fill="#757575" stroke="#757575" points="1175.99,-1017.36 1186.31,-1014.99 1176.76,-1010.41 1175.99,-1017.36"/>
</g>
<!-- components/lists/ProductList.tsx&#45;&gt;types/dto.d.ts -->
<g id="edge28" class="edge">
<title>components/lists/ProductList.tsx&#45;&gt;types/dto.d.ts</title>
<path fill="none" stroke="#757575" d="M772.1,-643.16C995.1,-622.88 1511.7,-569.86 1673,-501.12 1732.97,-475.57 1790.26,-422.71 1818.41,-394.26"/>
<polygon fill="#757575" stroke="#757575" points="1821.08,-396.53 1825.55,-386.92 1816.07,-391.65 1821.08,-396.53"/>
</g>
<!-- components/lists/ProductList.tsx&#45;&gt;types/types.d.ts -->
<g id="edge29" class="edge">
<title>components/lists/ProductList.tsx&#45;&gt;types/types.d.ts</title>
<path fill="none" stroke="#757575" d="M772.01,-641.32C862.64,-636.43 995.27,-640.46 1098,-690.12 1118.95,-700.25 1113.5,-717.12 1134,-728.12 1160.73,-742.47 1372.87,-771.57 1403,-775.12 1538.32,-791.1 1572.8,-789.9 1709,-794.12 1823.17,-797.66 1865.66,-848.69 1966,-794.12 2012.06,-769.07 2038.17,-709.16 2049.38,-676.78"/>
<polygon fill="#757575" stroke="#757575" points="2052.82,-677.54 2052.62,-666.94 2046.17,-675.35 2052.82,-677.54"/>
</g>
<!-- components/modals/MakeProductModal.tsx -->
<g id="node25" class="node">
<title>components/modals/MakeProductModal.tsx</title>
<path fill="none" stroke="#c6c5fe" d="M1090.33,-528.62C1090.33,-528.62 824.67,-528.62 824.67,-528.62 820.83,-528.62 817,-524.79 817,-520.96 817,-520.96 817,-513.29 817,-513.29 817,-509.46 820.83,-505.62 824.67,-505.62 824.67,-505.62 1090.33,-505.62 1090.33,-505.62 1094.17,-505.62 1098,-509.46 1098,-513.29 1098,-513.29 1098,-520.96 1098,-520.96 1098,-524.79 1094.17,-528.62 1090.33,-528.62"/>
<text text-anchor="middle" x="957.5" y="-513.42" font-family="Arial" font-size="14.00" fill="#c6c5fe">components/modals/MakeProductModal.tsx</text>
</g>
<!-- components/lists/ProductList.tsx&#45;&gt;components/modals/MakeProductModal.tsx -->
<g id="edge26" class="edge">
<title>components/lists/ProductList.tsx&#45;&gt;components/modals/MakeProductModal.tsx</title>
<path fill="none" stroke="#757575" d="M692.6,-640.61C744.1,-616.51 863.38,-560.7 922.3,-533.13"/>
<polygon fill="#757575" stroke="#757575" points="923.98,-536.2 931.56,-528.8 921.01,-529.86 923.98,-536.2"/>
</g>
<!-- utils/Array.ts -->
<g id="node26" class="node">
<title>utils/Array.ts</title>
<path fill="none" stroke="#cfffac" d="M994.83,-722.62C994.83,-722.62 920.17,-722.62 920.17,-722.62 916.33,-722.62 912.5,-718.79 912.5,-714.96 912.5,-714.96 912.5,-707.29 912.5,-707.29 912.5,-703.46 916.33,-699.62 920.17,-699.62 920.17,-699.62 994.83,-699.62 994.83,-699.62 998.67,-699.62 1002.5,-703.46 1002.5,-707.29 1002.5,-707.29 1002.5,-714.96 1002.5,-714.96 1002.5,-718.79 998.67,-722.62 994.83,-722.62"/>
<text text-anchor="middle" x="957.5" y="-707.42" font-family="Arial" font-size="14.00" fill="#cfffac">utils/Array.ts</text>
</g>
<!-- components/lists/ProductList.tsx&#45;&gt;utils/Array.ts -->
<g id="edge30" class="edge">
<title>components/lists/ProductList.tsx&#45;&gt;utils/Array.ts</title>
<path fill="none" stroke="#757575" d="M718.26,-663.7C747.1,-670.23 784.03,-678.4 817,-685.12 845.13,-690.86 876.56,-696.76 902.45,-701.49"/>
<polygon fill="#757575" stroke="#757575" points="901.98,-704.96 912.45,-703.3 903.23,-698.07 901.98,-704.96"/>
</g>
<!-- components/modals/MakeProductModal.tsx&#45;&gt;types/dto.d.ts -->
<g id="edge42" class="edge">
<title>components/modals/MakeProductModal.tsx&#45;&gt;types/dto.d.ts</title>
<path fill="none" stroke="#757575" d="M1050.28,-505.59C1215.24,-484.63 1555.58,-440.35 1673,-417.12 1711.69,-409.47 1754.89,-398.26 1787.16,-389.34"/>
<polygon fill="#757575" stroke="#757575" points="1788.11,-392.71 1796.81,-386.65 1786.23,-385.97 1788.11,-392.71"/>
</g>
<!-- components/modals/MakeProductModal.tsx&#45;&gt;types/types.d.ts -->
<g id="edge43" class="edge">
<title>components/modals/MakeProductModal.tsx&#45;&gt;types/types.d.ts</title>
<path fill="none" stroke="#757575" d="M1050.18,-528.65C1266.72,-555.88 1805.55,-623.63 1991.61,-647.03"/>
<polygon fill="#757575" stroke="#757575" points="1991.42,-650.53 2001.78,-648.31 1992.29,-643.58 1991.42,-650.53"/>
</g>
<!-- components/modals/MakeProductModal.tsx&#45;&gt;components/forms/ProductForm.tsx -->
<g id="edge40" class="edge">
<title>components/modals/MakeProductModal.tsx&#45;&gt;components/forms/ProductForm.tsx</title>
<path fill="none" stroke="#757575" d="M1000.71,-528.64C1030.72,-538.56 1070.43,-555.4 1098,-581.12 1122.43,-603.92 1107.33,-627 1134,-647.12 1139.4,-651.2 1145.32,-654.66 1151.54,-657.59"/>
<polygon fill="#757575" stroke="#757575" points="1150.27,-660.85 1160.84,-661.52 1152.99,-654.4 1150.27,-660.85"/>
</g>
<!-- components/modals/MakeProductModal.tsx&#45;&gt;components/modals/Modal.tsx -->
<g id="edge41" class="edge">
<title>components/modals/MakeProductModal.tsx&#45;&gt;components/modals/Modal.tsx</title>
<path fill="none" stroke="#757575" d="M980.85,-505.45C1032.29,-478.58 1159.15,-412.32 1218.25,-381.44"/>
<polygon fill="#757575" stroke="#757575" points="1220.23,-384.36 1227.47,-376.63 1216.99,-378.16 1220.23,-384.36"/>
</g>
<!-- components/menus/DropdownMenu.tsx&#45;&gt;types/types.d.ts -->
<g id="edge31" class="edge">
<title>components/menus/DropdownMenu.tsx&#45;&gt;types/types.d.ts</title>
<path fill="none" stroke="#757575" d="M1905.48,-1150.59C1927.7,-1143.57 1950.65,-1132.27 1966,-1114.12 2023.36,-1046.33 2048.4,-759.35 2054.48,-677.18"/>
<polygon fill="#757575" stroke="#757575" points="2057.99,-677.22 2055.21,-666.99 2051,-676.72 2057.99,-677.22"/>
</g>
<!-- main/MenuConfig.ts&#45;&gt;main/RoutePath.ts -->
<g id="edge86" class="edge">
<title>main/MenuConfig.ts&#45;&gt;main/RoutePath.ts</title>
<path fill="none" stroke="#757575" d="M1000.5,-1089.58C1052.62,-1075.25 1141.47,-1050.82 1197.74,-1035.35"/>
<polygon fill="#757575" stroke="#757575" points="1198.8,-1038.69 1207.51,-1032.67 1196.94,-1031.94 1198.8,-1038.69"/>
</g>
<!-- main/MenuConfig.ts&#45;&gt;types/types.d.ts -->
<g id="edge87" class="edge">
<title>main/MenuConfig.ts&#45;&gt;types/types.d.ts</title>
<path fill="none" stroke="#757575" d="M1026.64,-1104.14C1241.39,-1113.01 1894.14,-1134.77 1966,-1075.12 2028.49,-1023.26 2049.79,-755.66 2054.76,-676.93"/>
<polygon fill="#757575" stroke="#757575" points="2058.27,-676.93 2055.38,-666.74 2051.28,-676.51 2058.27,-676.93"/>
</g>
<!-- components/menus/SubMenu.tsx -->
<g id="node29" class="node">
<title>components/menus/SubMenu.tsx</title>
<path fill="none" stroke="#c6c5fe" d="M768.83,-1041.62C768.83,-1041.62 565.17,-1041.62 565.17,-1041.62 561.33,-1041.62 557.5,-1037.79 557.5,-1033.96 557.5,-1033.96 557.5,-1026.29 557.5,-1026.29 557.5,-1022.46 561.33,-1018.62 565.17,-1018.62 565.17,-1018.62 768.83,-1018.62 768.83,-1018.62 772.67,-1018.62 776.5,-1022.46 776.5,-1026.29 776.5,-1026.29 776.5,-1033.96 776.5,-1033.96 776.5,-1037.79 772.67,-1041.62 768.83,-1041.62"/>
<text text-anchor="middle" x="667" y="-1026.42" font-family="Arial" font-size="14.00" fill="#c6c5fe">components/menus/SubMenu.tsx</text>
</g>
<!-- components/menus/SubMenu.tsx&#45;&gt;types/types.d.ts -->
<g id="edge35" class="edge">
<title>components/menus/SubMenu.tsx&#45;&gt;types/types.d.ts</title>
<path fill="none" stroke="#757575" d="M776.69,-1039.38C893.44,-1048.52 1084.46,-1061.12 1249.5,-1061.12 1249.5,-1061.12 1249.5,-1061.12 1539,-1061.12 1642.93,-1061.12 1944.97,-941.57 1966,-920.12 2034.32,-850.44 2050.84,-726.97 2054.78,-677.01"/>
<polygon fill="#757575" stroke="#757575" points="2058.29,-676.96 2055.49,-666.74 2051.31,-676.47 2058.29,-676.96"/>
</g>
<!-- components/pages/AccountPage.tsx -->
<g id="node31" class="node">
<title>components/pages/AccountPage.tsx</title>
<path fill="none" stroke="#c6c5fe" d="M502.33,-1003.62C502.33,-1003.62 281.67,-1003.62 281.67,-1003.62 277.83,-1003.62 274,-999.79 274,-995.96 274,-995.96 274,-988.29 274,-988.29 274,-984.46 277.83,-980.62 281.67,-980.62 281.67,-980.62 502.33,-980.62 502.33,-980.62 506.17,-980.62 510,-984.46 510,-988.29 510,-988.29 510,-995.96 510,-995.96 510,-999.79 506.17,-1003.62 502.33,-1003.62"/>
<text text-anchor="middle" x="392" y="-988.42" font-family="Arial" font-size="14.00" fill="#c6c5fe">components/pages/AccountPage.tsx</text>
</g>
<!-- components/pages/AccountPage.tsx&#45;&gt;main/MenuConfig.ts -->
<g id="edge46" class="edge">
<title>components/pages/AccountPage.tsx&#45;&gt;main/MenuConfig.ts</title>
<path fill="none" stroke="#757575" d="M487.05,-980.62C567.62,-974.38 685.44,-973.98 781,-1009.12 800.02,-1016.12 799.67,-1026.6 817,-1037.12 849.13,-1056.63 888.2,-1074.07 916.82,-1085.8"/>
<polygon fill="#757575" stroke="#757575" points="915.51,-1089.05 926.09,-1089.55 918.14,-1082.56 915.51,-1089.05"/>
</g>
<!-- components/pages/AccountPage.tsx&#45;&gt;components/menus/SubMenu.tsx -->
<g id="edge44" class="edge">
<title>components/pages/AccountPage.tsx&#45;&gt;components/menus/SubMenu.tsx</title>
<path fill="none" stroke="#757575" d="M475.65,-1003.63C506.38,-1007.9 541.44,-1012.79 573.04,-1017.18"/>
<polygon fill="#757575" stroke="#757575" points="572.77,-1020.68 583.16,-1018.59 573.74,-1013.75 572.77,-1020.68"/>
</g>
<!-- components/pages/Page.tsx -->
<g id="node32" class="node">
<title>components/pages/Page.tsx</title>
<path fill="none" stroke="#cfffac" d="M753.33,-1121.62C753.33,-1121.62 580.67,-1121.62 580.67,-1121.62 576.83,-1121.62 573,-1117.79 573,-1113.96 573,-1113.96 573,-1106.29 573,-1106.29 573,-1102.46 576.83,-1098.62 580.67,-1098.62 580.67,-1098.62 753.33,-1098.62 753.33,-1098.62 757.17,-1098.62 761,-1102.46 761,-1106.29 761,-1106.29 761,-1113.96 761,-1113.96 761,-1117.79 757.17,-1121.62 753.33,-1121.62"/>
<text text-anchor="middle" x="667" y="-1106.42" font-family="Arial" font-size="14.00" fill="#cfffac">components/pages/Page.tsx</text>
</g>
<!-- components/pages/AccountPage.tsx&#45;&gt;components/pages/Page.tsx -->
<g id="edge45" class="edge">
<title>components/pages/AccountPage.tsx&#45;&gt;components/pages/Page.tsx</title>
<path fill="none" stroke="#757575" d="M497.18,-1003.67C504.06,-1006.02 510.73,-1008.81 517,-1012.12 537.57,-1022.99 534.48,-1036.04 553,-1050.12 576.62,-1068.09 606.36,-1083.64 629.4,-1094.41"/>
<polygon fill="#757575" stroke="#757575" points="627.96,-1097.6 638.51,-1098.58 630.87,-1091.24 627.96,-1097.6"/>
</g>
<!-- components/pages/AuthPage.scss -->
<g id="node33" class="node">
<title>components/pages/AuthPage.scss</title>
<path fill="none" stroke="#cfffac" d="M771.83,-801.62C771.83,-801.62 562.17,-801.62 562.17,-801.62 558.33,-801.62 554.5,-797.79 554.5,-793.96 554.5,-793.96 554.5,-786.29 554.5,-786.29 554.5,-782.46 558.33,-778.62 562.17,-778.62 562.17,-778.62 771.83,-778.62 771.83,-778.62 775.67,-778.62 779.5,-782.46 779.5,-786.29 779.5,-786.29 779.5,-793.96 779.5,-793.96 779.5,-797.79 775.67,-801.62 771.83,-801.62"/>
<text text-anchor="middle" x="667" y="-786.42" font-family="Arial" font-size="14.00" fill="#cfffac">components/pages/AuthPage.scss</text>
</g>
<!-- components/pages/AuthPage.tsx -->
<g id="node34" class="node">
<title>components/pages/AuthPage.tsx</title>
<path fill="none" stroke="#c6c5fe" d="M491.83,-841.62C491.83,-841.62 292.17,-841.62 292.17,-841.62 288.33,-841.62 284.5,-837.79 284.5,-833.96 284.5,-833.96 284.5,-826.29 284.5,-826.29 284.5,-822.46 288.33,-818.62 292.17,-818.62 292.17,-818.62 491.83,-818.62 491.83,-818.62 495.67,-818.62 499.5,-822.46 499.5,-826.29 499.5,-826.29 499.5,-833.96 499.5,-833.96 499.5,-837.79 495.67,-841.62 491.83,-841.62"/>
<text text-anchor="middle" x="392" y="-826.42" font-family="Arial" font-size="14.00" fill="#c6c5fe">components/pages/AuthPage.tsx</text>
</g>
<!-- components/pages/AuthPage.tsx&#45;&gt;services/Firebase.ts -->
<g id="edge51" class="edge">
<title>components/pages/AuthPage.tsx&#45;&gt;services/Firebase.ts</title>
<path fill="none" stroke="#757575" d="M496.07,-841.65C503.32,-844 510.38,-846.79 517,-850.12 536.94,-860.14 533.45,-874.37 553,-885.12 563.95,-891.14 576.21,-895.83 588.52,-899.48"/>
<polygon fill="#757575" stroke="#757575" points="587.8,-902.91 598.37,-902.19 589.65,-896.16 587.8,-902.91"/>
</g>
<!-- components/pages/AuthPage.tsx&#45;&gt;components/AuthFrom.tsx -->
<g id="edge47" class="edge">
<title>components/pages/AuthPage.tsx&#45;&gt;components/AuthFrom.tsx</title>
<path fill="none" stroke="#757575" d="M416.14,-818.57C446.63,-803.99 502.34,-779.56 553,-769.12 656,-747.9 776.82,-745.71 859.22,-747.54"/>
<polygon fill="#757575" stroke="#757575" points="859.25,-751.04 869.33,-747.79 859.42,-744.04 859.25,-751.04"/>
</g>
<!-- components/pages/AuthPage.tsx&#45;&gt;components/Form.tsx -->
<g id="edge48" class="edge">
<title>components/pages/AuthPage.tsx&#45;&gt;components/Form.tsx</title>
<path fill="none" stroke="#757575" d="M465.28,-841.64C492.68,-845.47 524.2,-849.24 553,-851.12 794.72,-866.92 856.08,-858.4 1098,-846.12 1120.18,-845 1144.14,-843.21 1166.31,-841.31"/>
<polygon fill="#757575" stroke="#757575" points="1166.71,-844.79 1176.37,-840.44 1166.1,-837.82 1166.71,-844.79"/>
</g>
<!-- components/pages/AuthPage.tsx&#45;&gt;components/pages/AuthPage.scss -->
<g id="edge49" class="edge">
<title>components/pages/AuthPage.tsx&#45;&gt;components/pages/AuthPage.scss</title>
<path fill="none" stroke="#757575" d="M471.6,-818.61C504.71,-813.75 543.41,-808.08 577.53,-803.09"/>
<polygon fill="#757575" stroke="#757575" points="578.1,-806.54 587.49,-801.63 577.08,-799.61 578.1,-806.54"/>
</g>
<!-- containers/SignUpModal.tsx -->
<g id="node35" class="node">
<title>containers/SignUpModal.tsx</title>
<path fill="none" stroke="#c6c5fe" d="M751.83,-842.62C751.83,-842.62 582.17,-842.62 582.17,-842.62 578.33,-842.62 574.5,-838.79 574.5,-834.96 574.5,-834.96 574.5,-827.29 574.5,-827.29 574.5,-823.46 578.33,-819.62 582.17,-819.62 582.17,-819.62 751.83,-819.62 751.83,-819.62 755.67,-819.62 759.5,-823.46 759.5,-827.29 759.5,-827.29 759.5,-834.96 759.5,-834.96 759.5,-838.79 755.67,-842.62 751.83,-842.62"/>
<text text-anchor="middle" x="667" y="-827.42" font-family="Arial" font-size="14.00" fill="#c6c5fe">containers/SignUpModal.tsx</text>
</g>
<!-- components/pages/AuthPage.tsx&#45;&gt;containers/SignUpModal.tsx -->
<g id="edge50" class="edge">
<title>components/pages/AuthPage.tsx&#45;&gt;containers/SignUpModal.tsx</title>
<path fill="none" stroke="#757575" d="M499.72,-830.51C520.93,-830.59 543.14,-830.67 564.18,-830.75"/>
<polygon fill="#757575" stroke="#757575" points="564.39,-834.25 574.4,-830.79 564.41,-827.25 564.39,-834.25"/>
</g>
<!-- containers/SignUpModal.tsx&#45;&gt;components/AuthFrom.tsx -->
<g id="edge70" class="edge">
<title>containers/SignUpModal.tsx&#45;&gt;components/AuthFrom.tsx</title>
<path fill="none" stroke="#757575" d="M758.9,-819.55C766.6,-816.99 774.08,-813.89 781,-810.12 801.44,-799.01 796.34,-782.81 817,-772.12 829.98,-765.41 844.49,-760.74 859.12,-757.53"/>
<polygon fill="#757575" stroke="#757575" points="860.11,-760.9 869.25,-755.53 858.76,-754.03 860.11,-760.9"/>
</g>
<!-- containers/SignUpModal.tsx&#45;&gt;components/Form.tsx -->
<g id="edge71" class="edge">
<title>containers/SignUpModal.tsx&#45;&gt;components/Form.tsx</title>
<path fill="none" stroke="#757575" d="M759.82,-831.44C871.44,-831.82 1058.19,-832.47 1165.94,-832.84"/>
<polygon fill="#757575" stroke="#757575" points="1166.1,-836.34 1176.12,-832.87 1166.13,-829.34 1166.1,-836.34"/>
</g>
<!-- components/pages/HomePage.tsx -->
<g id="node36" class="node">
<title>components/pages/HomePage.tsx</title>
<path fill="none" stroke="#c6c5fe" d="M496.33,-1208.62C496.33,-1208.62 287.67,-1208.62 287.67,-1208.62 283.83,-1208.62 280,-1204.79 280,-1200.96 280,-1200.96 280,-1193.29 280,-1193.29 280,-1189.46 283.83,-1185.62 287.67,-1185.62 287.67,-1185.62 496.33,-1185.62 496.33,-1185.62 500.17,-1185.62 504,-1189.46 504,-1193.29 504,-1193.29 504,-1200.96 504,-1200.96 504,-1204.79 500.17,-1208.62 496.33,-1208.62"/>
<text text-anchor="middle" x="392" y="-1193.42" font-family="Arial" font-size="14.00" fill="#c6c5fe">components/pages/HomePage.tsx</text>
</g>
<!-- components/pages/HomePage.tsx&#45;&gt;components/pages/Page.tsx -->
<g id="edge52" class="edge">
<title>components/pages/HomePage.tsx&#45;&gt;components/pages/Page.tsx</title>
<path fill="none" stroke="#757575" d="M495.39,-1185.54C502.92,-1182.96 510.21,-1179.86 517,-1176.12 537.96,-1164.6 532.39,-1148.26 553,-1136.12 560.63,-1131.63 568.96,-1127.92 577.55,-1124.85"/>
<polygon fill="#757575" stroke="#757575" points="578.9,-1128.09 587.31,-1121.64 576.72,-1121.43 578.9,-1128.09"/>
</g>
<!-- components/pages/MessagesPage.tsx -->
<g id="node37" class="node">
<title>components/pages/MessagesPage.tsx</title>
<path fill="none" stroke="#c6c5fe" d="M509.33,-1085.62C509.33,-1085.62 274.67,-1085.62 274.67,-1085.62 270.83,-1085.62 267,-1081.79 267,-1077.96 267,-1077.96 267,-1070.29 267,-1070.29 267,-1066.46 270.83,-1062.62 274.67,-1062.62 274.67,-1062.62 509.33,-1062.62 509.33,-1062.62 513.17,-1062.62 517,-1066.46 517,-1070.29 517,-1070.29 517,-1077.96 517,-1077.96 517,-1081.79 513.17,-1085.62 509.33,-1085.62"/>
<text text-anchor="middle" x="392" y="-1070.42" font-family="Arial" font-size="14.00" fill="#c6c5fe">components/pages/MessagesPage.tsx</text>
</g>
<!-- components/pages/MessagesPage.tsx&#45;&gt;components/pages/Page.tsx -->
<g id="edge53" class="edge">
<title>components/pages/MessagesPage.tsx&#45;&gt;components/pages/Page.tsx</title>
<path fill="none" stroke="#757575" d="M480.51,-1085.66C508.55,-1089.36 539.77,-1093.48 568.48,-1097.26"/>
<polygon fill="#757575" stroke="#757575" points="568.15,-1100.75 578.52,-1098.59 569.07,-1093.81 568.15,-1100.75"/>
</g>
<!-- components/pages/NotFoundPage.tsx -->
<g id="node38" class="node">
<title>components/pages/NotFoundPage.tsx</title>
<path fill="none" stroke="#cfffac" d="M507.83,-882.62C507.83,-882.62 276.17,-882.62 276.17,-882.62 272.33,-882.62 268.5,-878.79 268.5,-874.96 268.5,-874.96 268.5,-867.29 268.5,-867.29 268.5,-863.46 272.33,-859.62 276.17,-859.62 276.17,-859.62 507.83,-859.62 507.83,-859.62 511.67,-859.62 515.5,-863.46 515.5,-867.29 515.5,-867.29 515.5,-874.96 515.5,-874.96 515.5,-878.79 511.67,-882.62 507.83,-882.62"/>
<text text-anchor="middle" x="392" y="-867.42" font-family="Arial" font-size="14.00" fill="#cfffac">components/pages/NotFoundPage.tsx</text>
</g>
<!-- components/pages/SellPage.tsx -->
<g id="node39" class="node">
<title>components/pages/SellPage.tsx</title>
<path fill="none" stroke="#c6c5fe" d="M489.33,-1044.62C489.33,-1044.62 294.67,-1044.62 294.67,-1044.62 290.83,-1044.62 287,-1040.79 287,-1036.96 287,-1036.96 287,-1029.29 287,-1029.29 287,-1025.46 290.83,-1021.62 294.67,-1021.62 294.67,-1021.62 489.33,-1021.62 489.33,-1021.62 493.17,-1021.62 497,-1025.46 497,-1029.29 497,-1029.29 497,-1036.96 497,-1036.96 497,-1040.79 493.17,-1044.62 489.33,-1044.62"/>
<text text-anchor="middle" x="392" y="-1029.42" font-family="Arial" font-size="14.00" fill="#c6c5fe">components/pages/SellPage.tsx</text>
</g>
<!-- components/pages/SellPage.tsx&#45;&gt;main/MenuConfig.ts -->
<g id="edge56" class="edge">
<title>components/pages/SellPage.tsx&#45;&gt;main/MenuConfig.ts</title>
<path fill="none" stroke="#757575" d="M488.59,-1044.66C598.33,-1057.9 776.28,-1079.37 878.18,-1091.67"/>
<polygon fill="#757575" stroke="#757575" points="878.06,-1095.18 888.4,-1092.91 878.9,-1088.23 878.06,-1095.18"/>
</g>
<!-- components/pages/SellPage.tsx&#45;&gt;components/menus/SubMenu.tsx -->
<g id="edge54" class="edge">
<title>components/pages/SellPage.tsx&#45;&gt;components/menus/SubMenu.tsx</title>
<path fill="none" stroke="#757575" d="M497.38,-1031.98C513.58,-1031.8 530.43,-1031.61 546.93,-1031.43"/>
<polygon fill="#757575" stroke="#757575" points="547.19,-1034.93 557.15,-1031.32 547.11,-1027.93 547.19,-1034.93"/>
</g>
<!-- components/pages/SellPage.tsx&#45;&gt;components/pages/Page.tsx -->
<g id="edge55" class="edge">
<title>components/pages/SellPage.tsx&#45;&gt;components/pages/Page.tsx</title>
<path fill="none" stroke="#757575" d="M494.56,-1044.71C502.31,-1047.04 509.88,-1049.81 517,-1053.12 536.14,-1062.03 534.16,-1074.59 553,-1084.12 562.19,-1088.77 572.22,-1092.6 582.38,-1095.75"/>
<polygon fill="#757575" stroke="#757575" points="581.57,-1099.16 592.15,-1098.57 583.51,-1092.44 581.57,-1099.16"/>
</g>
<!-- components/views/CatalogView.tsx -->
<g id="node40" class="node">
<title>components/views/CatalogView.tsx</title>
<path fill="none" stroke="#c6c5fe" d="M498.33,-568.62C498.33,-568.62 285.67,-568.62 285.67,-568.62 281.83,-568.62 278,-564.79 278,-560.96 278,-560.96 278,-553.29 278,-553.29 278,-549.46 281.83,-545.62 285.67,-545.62 285.67,-545.62 498.33,-545.62 498.33,-545.62 502.17,-545.62 506,-549.46 506,-553.29 506,-553.29 506,-560.96 506,-560.96 506,-564.79 502.17,-568.62 498.33,-568.62"/>
<text text-anchor="middle" x="392" y="-553.42" font-family="Arial" font-size="14.00" fill="#c6c5fe">components/views/CatalogView.tsx</text>
</g>
<!-- components/views/CatalogView.tsx&#45;&gt;types/dto.d.ts -->
<g id="edge60" class="edge">
<title>components/views/CatalogView.tsx&#45;&gt;types/dto.d.ts</title>
<path fill="none" stroke="#757575" d="M408.83,-545.38C462.51,-506.41 643.96,-381.67 817,-343.12 1188.43,-260.39 1296.65,-268.86 1673,-325.12 1717.03,-331.71 1765.59,-347.74 1798.26,-359.89"/>
<polygon fill="#757575" stroke="#757575" points="1797.27,-363.26 1807.86,-363.52 1799.75,-356.71 1797.27,-363.26"/>
</g>
<!-- components/views/CatalogView.tsx&#45;&gt;components/lists/ProductList.tsx -->
<g id="edge57" class="edge">
<title>components/views/CatalogView.tsx&#45;&gt;components/lists/ProductList.tsx</title>
<path fill="none" stroke="#757575" d="M426.2,-568.68C475.56,-585.85 568.33,-618.14 622.88,-637.12"/>
<polygon fill="#757575" stroke="#757575" points="622.01,-640.52 632.6,-640.5 624.31,-633.91 622.01,-640.52"/>
</g>
<!-- components/views/CatalogView.tsx&#45;&gt;components/modals/MakeProductModal.tsx -->
<g id="edge58" class="edge">
<title>components/views/CatalogView.tsx&#45;&gt;components/modals/MakeProductModal.tsx</title>
<path fill="none" stroke="#757575" d="M506.17,-546.9C521.89,-545.57 537.85,-544.27 553,-543.12 636.9,-536.75 730.7,-530.64 806.73,-525.95"/>
<polygon fill="#757575" stroke="#757575" points="807.09,-529.44 816.86,-525.33 806.66,-522.45 807.09,-529.44"/>
</g>
<!-- services/CatalogService.ts -->
<g id="node41" class="node">
<title>services/CatalogService.ts</title>
<path fill="none" stroke="#c6c5fe" d="M1618.33,-492.62C1618.33,-492.62 1457.67,-492.62 1457.67,-492.62 1453.83,-492.62 1450,-488.79 1450,-484.96 1450,-484.96 1450,-477.29 1450,-477.29 1450,-473.46 1453.83,-469.62 1457.67,-469.62 1457.67,-469.62 1618.33,-469.62 1618.33,-469.62 1622.17,-469.62 1626,-473.46 1626,-477.29 1626,-477.29 1626,-484.96 1626,-484.96 1626,-488.79 1622.17,-492.62 1618.33,-492.62"/>
<text text-anchor="middle" x="1538" y="-477.42" font-family="Arial" font-size="14.00" fill="#c6c5fe">services/CatalogService.ts</text>
</g>
<!-- components/views/CatalogView.tsx&#45;&gt;services/CatalogService.ts -->
<g id="edge59" class="edge">
<title>components/views/CatalogView.tsx&#45;&gt;services/CatalogService.ts</title>
<path fill="none" stroke="#757575" d="M506.13,-557.34C645.53,-556.82 889.55,-553.33 1098,-537.12 1222.65,-527.43 1366.22,-507.43 1454.28,-494.15"/>
<polygon fill="#757575" stroke="#757575" points="1454.85,-497.6 1464.21,-492.64 1453.8,-490.68 1454.85,-497.6"/>
</g>
<!-- services/CatalogService.ts&#45;&gt;types/dto.d.ts -->
<g id="edge89" class="edge">
<title>services/CatalogService.ts&#45;&gt;types/dto.d.ts</title>
<path fill="none" stroke="#757575" d="M1617.14,-469.55C1635.69,-465.82 1655.25,-461.07 1673,-455.12 1722.63,-438.49 1776.49,-409.89 1808.33,-391.77"/>
<polygon fill="#757575" stroke="#757575" points="1810.16,-394.75 1817.08,-386.73 1806.67,-388.68 1810.16,-394.75"/>
</g>
<!-- services/CatalogService.ts&#45;&gt;types/types.d.ts -->
<g id="edge90" class="edge">
<title>services/CatalogService.ts&#45;&gt;types/types.d.ts</title>
<path fill="none" stroke="#757575" d="M1592.51,-469.58C1678.2,-454.14 1848.5,-436.27 1966,-507.12 2013.4,-535.71 2039.17,-599.71 2049.91,-633.41"/>
<polygon fill="#757575" stroke="#757575" points="2046.62,-634.65 2052.87,-643.21 2053.32,-632.62 2046.62,-634.65"/>
</g>
<!-- components/views/CatalogsView.tsx -->
<g id="node42" class="node">
<title>components/views/CatalogsView.tsx</title>
<path fill="none" stroke="#c6c5fe" d="M501.83,-280.62C501.83,-280.62 282.17,-280.62 282.17,-280.62 278.33,-280.62 274.5,-276.79 274.5,-272.96 274.5,-272.96 274.5,-265.29 274.5,-265.29 274.5,-261.46 278.33,-257.62 282.17,-257.62 282.17,-257.62 501.83,-257.62 501.83,-257.62 505.67,-257.62 509.5,-261.46 509.5,-265.29 509.5,-265.29 509.5,-272.96 509.5,-272.96 509.5,-276.79 505.67,-280.62 501.83,-280.62"/>
<text text-anchor="middle" x="392" y="-265.42" font-family="Arial" font-size="14.00" fill="#c6c5fe">components/views/CatalogsView.tsx</text>
</g>
<!-- components/views/CatalogsView.tsx&#45;&gt;types/dto.d.ts -->
<g id="edge64" class="edge">
<title>components/views/CatalogsView.tsx&#45;&gt;types/dto.d.ts</title>
<path fill="none" stroke="#757575" d="M498.44,-257.51C504.94,-254.92 511.2,-251.81 517,-248.12 540.72,-233.04 528.64,-210.14 553,-196.12 606.98,-165.06 1622.72,-112.37 1673,-149.12 1715.55,-180.23 1680.25,-217.95 1709,-262.12 1735.61,-303.01 1780.86,-338.12 1809.68,-357.92"/>
<polygon fill="#757575" stroke="#757575" points="1807.81,-360.88 1818.06,-363.57 1811.72,-355.08 1807.81,-360.88"/>
</g>
<!-- components/views/CatalogsView.tsx&#45;&gt;components/lists/CatalogList.tsx -->
<g id="edge61" class="edge">
<title>components/views/CatalogsView.tsx&#45;&gt;components/lists/CatalogList.tsx</title>
<path fill="none" stroke="#757575" d="M509.57,-260.58C523.56,-259.56 537.84,-258.51 551.8,-257.49"/>
<polygon fill="#757575" stroke="#757575" points="552.18,-260.97 561.9,-256.75 551.67,-253.99 552.18,-260.97"/>
</g>
<!-- components/views/CatalogsView.tsx&#45;&gt;components/modals/MakeCatalogModal.tsx -->
<g id="edge62" class="edge">
<title>components/views/CatalogsView.tsx&#45;&gt;components/modals/MakeCatalogModal.tsx</title>
<path fill="none" stroke="#757575" d="M482.99,-257.6C494.59,-255.04 506.18,-251.92 517,-248.12 534.27,-242.06 535.39,-233.13 553,-228.12 634.66,-204.9 729.33,-199.39 806.43,-200.04"/>
<polygon fill="#757575" stroke="#757575" points="806.67,-203.54 816.71,-200.16 806.75,-196.54 806.67,-203.54"/>
</g>
<!-- components/views/CatalogsView.tsx&#45;&gt;services/CatalogService.ts -->
<g id="edge63" class="edge">
<title>components/views/CatalogsView.tsx&#45;&gt;services/CatalogService.ts</title>
<path fill="none" stroke="#757575" d="M455.32,-280.67C651.43,-317.01 1255.33,-428.93 1464.66,-467.72"/>
<polygon fill="#757575" stroke="#757575" points="1464.15,-471.18 1474.62,-469.56 1465.43,-464.3 1464.15,-471.18"/>
</g>
<!-- components/views/ProductView.tsx -->
<g id="node43" class="node">
<title>components/views/ProductView.tsx</title>
<path fill="none" stroke="#c6c5fe" d="M773.33,-489.62C773.33,-489.62 560.67,-489.62 560.67,-489.62 556.83,-489.62 553,-485.79 553,-481.96 553,-481.96 553,-474.29 553,-474.29 553,-470.46 556.83,-466.62 560.67,-466.62 560.67,-466.62 773.33,-466.62 773.33,-466.62 777.17,-466.62 781,-470.46 781,-474.29 781,-474.29 781,-481.96 781,-481.96 781,-485.79 777.17,-489.62 773.33,-489.62"/>
<text text-anchor="middle" x="667" y="-474.42" font-family="Arial" font-size="14.00" fill="#c6c5fe">components/views/ProductView.tsx</text>
</g>
<!-- components/views/ProductView.tsx&#45;&gt;types/dto.d.ts -->
<g id="edge68" class="edge">
<title>components/views/ProductView.tsx&#45;&gt;types/dto.d.ts</title>
<path fill="none" stroke="#757575" d="M780.66,-466.61C792.92,-465.41 805.22,-464.22 817,-463.12 1182.92,-428.91 1623.19,-392.53 1778.7,-379.82"/>
<polygon fill="#757575" stroke="#757575" points="1779.28,-383.29 1788.96,-378.98 1778.71,-376.31 1779.28,-383.29"/>
</g>
<!-- components/views/ProductView.tsx&#45;&gt;types/types.d.ts -->
<g id="edge69" class="edge">
<title>components/views/ProductView.tsx&#45;&gt;types/types.d.ts</title>
<path fill="none" stroke="#757575" d="M781.34,-480.16C868.15,-482.37 990.8,-486.92 1098,-496.12 1485.61,-529.4 1594.45,-493.79 1966,-609.12 1988.2,-616.01 2011.52,-628.09 2028.86,-638.14"/>
<polygon fill="#757575" stroke="#757575" points="2027.45,-641.37 2037.84,-643.47 2031.03,-635.35 2027.45,-641.37"/>
</g>
<!-- components/views/ProductView.tsx&#45;&gt;services/RestService.ts -->
<g id="edge67" class="edge">
<title>components/views/ProductView.tsx&#45;&gt;services/RestService.ts</title>
<path fill="none" stroke="#757575" d="M696.49,-489.63C789.6,-527.27 1079.96,-645.05 1098,-657.12 1116.8,-669.71 1113.82,-682.9 1134,-693.12 1161.55,-707.09 1338.89,-730.83 1448.94,-744.53"/>
<polygon fill="#757575" stroke="#757575" points="1448.69,-748.02 1459.05,-745.78 1449.55,-741.08 1448.69,-748.02"/>
</g>
<!-- components/views/ProductView.tsx&#45;&gt;components/modals/MakeProductModal.tsx -->
<g id="edge65" class="edge">
<title>components/views/ProductView.tsx&#45;&gt;components/modals/MakeProductModal.tsx</title>
<path fill="none" stroke="#757575" d="M753.39,-489.67C787.26,-494.25 826.37,-499.53 861.16,-504.23"/>
<polygon fill="#757575" stroke="#757575" points="860.95,-507.74 871.33,-505.61 861.89,-500.8 860.95,-507.74"/>
</g>
<!-- services/ProductService.ts -->
<g id="node44" class="node">
<title>services/ProductService.ts</title>
<path fill="none" stroke="#c6c5fe" d="M1618.33,-357.62C1618.33,-357.62 1457.67,-357.62 1457.67,-357.62 1453.83,-357.62 1450,-353.79 1450,-349.96 1450,-349.96 1450,-342.29 1450,-342.29 1450,-338.46 1453.83,-334.62 1457.67,-334.62 1457.67,-334.62 1618.33,-334.62 1618.33,-334.62 1622.17,-334.62 1626,-338.46 1626,-342.29 1626,-342.29 1626,-349.96 1626,-349.96 1626,-353.79 1622.17,-357.62 1618.33,-357.62"/>
<text text-anchor="middle" x="1538" y="-342.42" font-family="Arial" font-size="14.00" fill="#c6c5fe">services/ProductService.ts</text>
</g>
<!-- components/views/ProductView.tsx&#45;&gt;services/ProductService.ts -->
<g id="edge66" class="edge">
<title>components/views/ProductView.tsx&#45;&gt;services/ProductService.ts</title>
<path fill="none" stroke="#757575" d="M683.12,-466.62C709.01,-447.55 764.15,-409.69 817,-391.12 951.38,-343.91 991.96,-354.6 1134,-344.12 1237.28,-336.51 1263.45,-343.51 1367,-344.12 1390.5,-344.26 1415.83,-344.51 1439.57,-344.78"/>
<polygon fill="#757575" stroke="#757575" points="1439.6,-348.28 1449.64,-344.9 1439.69,-341.28 1439.6,-348.28"/>
</g>
<!-- services/ProductService.ts&#45;&gt;types/dto.d.ts -->
<g id="edge92" class="edge">
<title>services/ProductService.ts&#45;&gt;types/dto.d.ts</title>
<path fill="none" stroke="#757575" d="M1626.25,-354.63C1675.46,-359.42 1735.56,-365.28 1778.88,-369.51"/>
<polygon fill="#757575" stroke="#757575" points="1778.67,-373 1788.96,-370.49 1779.35,-366.04 1778.67,-373"/>
</g>
<!-- components/views/ProfileView.tsx -->
<g id="node45" class="node">
<title>components/views/ProfileView.tsx</title>
<path fill="none" stroke="#cfffac" d="M494.33,-239.62C494.33,-239.62 289.67,-239.62 289.67,-239.62 285.83,-239.62 282,-235.79 282,-231.96 282,-231.96 282,-224.29 282,-224.29 282,-220.46 285.83,-216.62 289.67,-216.62 289.67,-216.62 494.33,-216.62 494.33,-216.62 498.17,-216.62 502,-220.46 502,-224.29 502,-224.29 502,-231.96 502,-231.96 502,-235.79 498.17,-239.62 494.33,-239.62"/>
<text text-anchor="middle" x="392" y="-224.42" font-family="Arial" font-size="14.00" fill="#cfffac">components/views/ProfileView.tsx</text>
</g>
<!-- index.css -->
<g id="node46" class="node">
<title>index.css</title>
<path fill="none" stroke="#cfffac" d="M420.83,-1167.62C420.83,-1167.62 363.17,-1167.62 363.17,-1167.62 359.33,-1167.62 355.5,-1163.79 355.5,-1159.96 355.5,-1159.96 355.5,-1152.29 355.5,-1152.29 355.5,-1148.46 359.33,-1144.62 363.17,-1144.62 363.17,-1144.62 420.83,-1144.62 420.83,-1144.62 424.67,-1144.62 428.5,-1148.46 428.5,-1152.29 428.5,-1152.29 428.5,-1159.96 428.5,-1159.96 428.5,-1163.79 424.67,-1167.62 420.83,-1167.62"/>
<text text-anchor="middle" x="392" y="-1152.42" font-family="Arial" font-size="14.00" fill="#cfffac">index.css</text>
</g>
<!-- index.tsx -->
<g id="node47" class="node">
<title>index.tsx</title>
<path fill="none" stroke="#c6c5fe" d="M142.83,-983.62C142.83,-983.62 88.17,-983.62 88.17,-983.62 84.33,-983.62 80.5,-979.79 80.5,-975.96 80.5,-975.96 80.5,-968.29 80.5,-968.29 80.5,-964.46 84.33,-960.62 88.17,-960.62 88.17,-960.62 142.83,-960.62 142.83,-960.62 146.67,-960.62 150.5,-964.46 150.5,-968.29 150.5,-968.29 150.5,-975.96 150.5,-975.96 150.5,-979.79 146.67,-983.62 142.83,-983.62"/>
<text text-anchor="middle" x="115.5" y="-968.42" font-family="Arial" font-size="14.00" fill="#c6c5fe">index.tsx</text>
</g>
<!-- index.tsx&#45;&gt;components/containers/App.tsx -->
<g id="edge72" class="edge">
<title>index.tsx&#45;&gt;components/containers/App.tsx</title>
<path fill="none" stroke="#757575" d="M119.83,-983.78C131.93,-1023.85 177.64,-1156.79 267,-1217.12 270.87,-1219.74 274.96,-1222.06 279.21,-1224.12"/>
<polygon fill="#757575" stroke="#757575" points="278.15,-1227.48 288.72,-1228.24 280.93,-1221.06 278.15,-1227.48"/>
</g>
<!-- index.tsx&#45;&gt;main/RoutePath.ts -->
<g id="edge84" class="edge">
<title>index.tsx&#45;&gt;main/RoutePath.ts</title>
<path fill="none" stroke="#757575" d="M150.57,-971.83C181.07,-971.59 227.02,-971.26 267,-971.12 495.45,-970.36 563.38,-904.61 781,-974.12 799.56,-980.05 798.56,-992.83 817,-999.12 937.63,-1040.3 1088.17,-1036.58 1176.1,-1029.38"/>
<polygon fill="#757575" stroke="#757575" points="1176.58,-1032.85 1186.24,-1028.51 1175.98,-1025.88 1176.58,-1032.85"/>
</g>
<!-- index.tsx&#45;&gt;components/pages/AccountPage.tsx -->
<g id="edge73" class="edge">
<title>index.tsx&#45;&gt;components/pages/AccountPage.tsx</title>
<path fill="none" stroke="#757575" d="M150.71,-974.62C179.32,-976.7 222.01,-979.81 263.51,-982.83"/>
<polygon fill="#757575" stroke="#757575" points="263.51,-986.34 273.74,-983.58 264.02,-979.36 263.51,-986.34"/>
</g>
<!-- index.tsx&#45;&gt;components/pages/AuthPage.tsx -->
<g id="edge74" class="edge">
<title>index.tsx&#45;&gt;components/pages/AuthPage.tsx</title>
<path fill="none" stroke="#757575" d="M126.81,-960.36C149.42,-935.42 206.21,-877.31 267,-850.12 271.43,-848.14 276.03,-846.35 280.74,-844.74"/>
<polygon fill="#757575" stroke="#757575" points="282.03,-848 290.52,-841.67 279.93,-841.32 282.03,-848"/>
</g>
<!-- index.tsx&#45;&gt;components/pages/HomePage.tsx -->
<g id="edge75" class="edge">
<title>index.tsx&#45;&gt;components/pages/HomePage.tsx</title>
<path fill="none" stroke="#757575" d="M121.27,-983.8C136.47,-1019.42 187.53,-1127.24 267,-1176.12 270.21,-1178.1 273.55,-1179.9 276.99,-1181.55"/>
<polygon fill="#757575" stroke="#757575" points="275.74,-1184.82 286.31,-1185.55 278.5,-1178.39 275.74,-1184.82"/>
</g>
<!-- index.tsx&#45;&gt;components/pages/MessagesPage.tsx -->
<g id="edge76" class="edge">
<title>index.tsx&#45;&gt;components/pages/MessagesPage.tsx</title>
<path fill="none" stroke="#757575" d="M133.71,-983.82C160.8,-1001.67 215.64,-1035.49 267,-1053.12 274.94,-1055.85 283.29,-1058.23 291.76,-1060.31"/>
<polygon fill="#757575" stroke="#757575" points="291.19,-1063.77 301.72,-1062.61 292.77,-1056.95 291.19,-1063.77"/>
</g>
<!-- index.tsx&#45;&gt;components/pages/NotFoundPage.tsx -->
<g id="edge77" class="edge">
<title>index.tsx&#45;&gt;components/pages/NotFoundPage.tsx</title>
<path fill="none" stroke="#757575" d="M133.69,-960.37C160.77,-942.46 215.57,-908.56 267,-891.12 273.74,-888.84 280.79,-886.81 287.94,-885.01"/>
<polygon fill="#757575" stroke="#757575" points="288.82,-888.4 297.74,-882.7 287.21,-881.59 288.82,-888.4"/>
</g>
<!-- index.tsx&#45;&gt;components/pages/SellPage.tsx -->
<g id="edge78" class="edge">
<title>index.tsx&#45;&gt;components/pages/SellPage.tsx</title>
<path fill="none" stroke="#757575" d="M150.65,-982.16C181.01,-990.86 226.71,-1003.38 267,-1012.12 279.58,-1014.85 292.95,-1017.44 306.07,-1019.81"/>
<polygon fill="#757575" stroke="#757575" points="305.58,-1023.27 316.03,-1021.57 306.8,-1016.38 305.58,-1023.27"/>
</g>
<!-- index.tsx&#45;&gt;components/views/CatalogView.tsx -->
<g id="edge79" class="edge">
<title>index.tsx&#45;&gt;components/views/CatalogView.tsx</title>
<path fill="none" stroke="#757575" d="M124.13,-960.59C161.91,-903.47 329.12,-650.68 377.71,-577.21"/>
<polygon fill="#757575" stroke="#757575" points="380.68,-579.07 383.28,-568.8 374.84,-575.21 380.68,-579.07"/>
</g>
<!-- index.tsx&#45;&gt;components/views/CatalogsView.tsx -->
<g id="edge80" class="edge">
<title>index.tsx&#45;&gt;components/views/CatalogsView.tsx</title>
<path fill="none" stroke="#757575" d="M119.08,-960.43C131.43,-905.38 187.27,-666.98 267,-484.12 299.86,-408.75 352.63,-326.28 377.37,-289.18"/>
<polygon fill="#757575" stroke="#757575" points="380.36,-291 383.03,-280.75 374.55,-287.1 380.36,-291"/>
</g>
<!-- index.tsx&#45;&gt;components/views/ProductView.tsx -->
<g id="edge81" class="edge">
<title>index.tsx&#45;&gt;components/views/ProductView.tsx</title>
<path fill="none" stroke="#757575" d="M116.47,-960.32C117.03,-902.97 127.58,-651.51 267,-536.12 351.12,-466.5 480.86,-460.19 569.4,-465.89"/>
<polygon fill="#757575" stroke="#757575" points="569.23,-469.38 579.45,-466.59 569.72,-462.4 569.23,-469.38"/>
</g>
<!-- index.tsx&#45;&gt;components/views/ProfileView.tsx -->
<g id="edge82" class="edge">
<title>index.tsx&#45;&gt;components/views/ProfileView.tsx</title>
<path fill="none" stroke="#757575" d="M117.17,-960.41C122.29,-875.31 157.96,-352.36 267,-248.12 268.97,-246.24 271.03,-244.5 273.19,-242.88"/>
<polygon fill="#757575" stroke="#757575" points="275.4,-245.62 281.91,-237.26 271.61,-239.74 275.4,-245.62"/>
</g>
<!-- index.tsx&#45;&gt;index.css -->
<g id="edge83" class="edge">
<title>index.tsx&#45;&gt;index.css</title>
<path fill="none" stroke="#757575" d="M123.5,-984.02C142.3,-1014.81 197.24,-1097.33 267,-1135.12 290.85,-1148.05 320.76,-1153.37 345.23,-1155.43"/>
<polygon fill="#757575" stroke="#757575" points="345.13,-1158.93 355.35,-1156.13 345.61,-1151.95 345.13,-1158.93"/>
</g>
<!-- reportWebVitals.ts -->
<g id="node48" class="node">
<title>reportWebVitals.ts</title>
<path fill="none" stroke="#cfffac" d="M447.83,-1126.62C447.83,-1126.62 336.17,-1126.62 336.17,-1126.62 332.33,-1126.62 328.5,-1122.79 328.5,-1118.96 328.5,-1118.96 328.5,-1111.29 328.5,-1111.29 328.5,-1107.46 332.33,-1103.62 336.17,-1103.62 336.17,-1103.62 447.83,-1103.62 447.83,-1103.62 451.67,-1103.62 455.5,-1107.46 455.5,-1111.29 455.5,-1111.29 455.5,-1118.96 455.5,-1118.96 455.5,-1122.79 451.67,-1126.62 447.83,-1126.62"/>
<text text-anchor="middle" x="392" y="-1111.42" font-family="Arial" font-size="14.00" fill="#cfffac">reportWebVitals.ts</text>
</g>
<!-- index.tsx&#45;&gt;reportWebVitals.ts -->
<g id="edge85" class="edge">
<title>index.tsx&#45;&gt;reportWebVitals.ts</title>
<path fill="none" stroke="#757575" d="M126.83,-983.85C149.47,-1008.71 206.31,-1066.7 267,-1094.12 282.88,-1101.3 300.92,-1106.05 318.22,-1109.17"/>
<polygon fill="#757575" stroke="#757575" points="317.86,-1112.66 328.3,-1110.84 319,-1105.76 317.86,-1112.66"/>
</g>
<!-- react&#45;app&#45;env.d.ts -->
<g id="node49" class="node">
<title>react&#45;app&#45;env.d.ts</title>
<path fill="none" stroke="#cfffac" d="M170.33,-1372.62C170.33,-1372.62 60.67,-1372.62 60.67,-1372.62 56.83,-1372.62 53,-1368.79 53,-1364.96 53,-1364.96 53,-1357.29 53,-1357.29 53,-1353.46 56.83,-1349.62 60.67,-1349.62 60.67,-1349.62 170.33,-1349.62 170.33,-1349.62 174.17,-1349.62 178,-1353.46 178,-1357.29 178,-1357.29 178,-1364.96 178,-1364.96 178,-1368.79 174.17,-1372.62 170.33,-1372.62"/>
<text text-anchor="middle" x="115.5" y="-1357.42" font-family="Arial" font-size="14.00" fill="#cfffac">react&#45;app&#45;env.d.ts</text>
</g>
<!-- services/AccountService.ts -->
<g id="node50" class="node">
<title>services/AccountService.ts</title>
<path fill="none" stroke="#cfffac" d="M196.83,-1413.62C196.83,-1413.62 34.17,-1413.62 34.17,-1413.62 30.33,-1413.62 26.5,-1409.79 26.5,-1405.96 26.5,-1405.96 26.5,-1398.29 26.5,-1398.29 26.5,-1394.46 30.33,-1390.62 34.17,-1390.62 34.17,-1390.62 196.83,-1390.62 196.83,-1390.62 200.67,-1390.62 204.5,-1394.46 204.5,-1398.29 204.5,-1398.29 204.5,-1405.96 204.5,-1405.96 204.5,-1409.79 200.67,-1413.62 196.83,-1413.62"/>
<text text-anchor="middle" x="115.5" y="-1398.42" font-family="Arial" font-size="14.00" fill="#cfffac">services/AccountService.ts</text>
</g>
<!-- services/LocalData.ts -->
<g id="node52" class="node">
<title>services/LocalData.ts</title>
<path fill="none" stroke="#cfffac" d="M180.33,-1454.62C180.33,-1454.62 50.67,-1454.62 50.67,-1454.62 46.83,-1454.62 43,-1450.79 43,-1446.96 43,-1446.96 43,-1439.29 43,-1439.29 43,-1435.46 46.83,-1431.62 50.67,-1431.62 50.67,-1431.62 180.33,-1431.62 180.33,-1431.62 184.17,-1431.62 188,-1435.46 188,-1439.29 188,-1439.29 188,-1446.96 188,-1446.96 188,-1450.79 184.17,-1454.62 180.33,-1454.62"/>
<text text-anchor="middle" x="115.5" y="-1439.42" font-family="Arial" font-size="14.00" fill="#cfffac">services/LocalData.ts</text>
</g>
<!-- setupTests.ts -->
<g id="node54" class="node">
<title>setupTests.ts</title>
<path fill="none" stroke="#cfffac" d="M155.33,-1495.62C155.33,-1495.62 75.67,-1495.62 75.67,-1495.62 71.83,-1495.62 68,-1491.79 68,-1487.96 68,-1487.96 68,-1480.29 68,-1480.29 68,-1476.46 71.83,-1472.62 75.67,-1472.62 75.67,-1472.62 155.33,-1472.62 155.33,-1472.62 159.17,-1472.62 163,-1476.46 163,-1480.29 163,-1480.29 163,-1487.96 163,-1487.96 163,-1491.79 159.17,-1495.62 155.33,-1495.62"/>
<text text-anchor="middle" x="115.5" y="-1480.42" font-family="Arial" font-size="14.00" fill="#cfffac">setupTests.ts</text>
</g>
</g>
</svg>
