<?xml version="1.0" encoding="UTF-8" standalone="no"?>
<!DOCTYPE svg PUBLIC "-//W3C//DTD SVG 1.1//EN"
 "http://www.w3.org/Graphics/SVG/1.1/DTD/svg11.dtd">
<!-- Generated by graphviz version 2.43.0 (0)
 -->
<!-- Title: G Pages: 1 -->
<svg width="1927pt" height="927pt"
 viewBox="0.00 0.00 1927.20 926.92" xmlns="http://www.w3.org/2000/svg" xmlns:xlink="http://www.w3.org/1999/xlink">
<g id="graph0" class="graph" transform="scale(1 1) rotate(0) translate(21.6 905.32)">
<title>G</title>
<polygon fill="#111111" stroke="transparent" points="-21.6,21.6 -21.6,-905.32 1905.6,-905.32 1905.6,21.6 -21.6,21.6"/>
<!-- components/AuthContainer.tsx -->
<g id="node1" class="node">
<title>components/AuthContainer.tsx</title>
<path fill="none" stroke="#c6c5fe" d="M783.33,-313.72C783.33,-313.72 597.67,-313.72 597.67,-313.72 593.83,-313.72 590,-309.89 590,-306.05 590,-306.05 590,-298.39 590,-298.39 590,-294.55 593.83,-290.72 597.67,-290.72 597.67,-290.72 783.33,-290.72 783.33,-290.72 787.17,-290.72 791,-294.55 791,-298.39 791,-298.39 791,-306.05 791,-306.05 791,-309.89 787.17,-313.72 783.33,-313.72"/>
<text text-anchor="middle" x="690.5" y="-298.52" font-family="Arial" font-size="14.00" fill="#c6c5fe">components/AuthContainer.tsx</text>
</g>
<!-- services/Firebase.ts -->
<g id="node2" class="node">
<title>services/Firebase.ts</title>
<path fill="none" stroke="#c6c5fe" d="M1370.33,-321.72C1370.33,-321.72 1248.67,-321.72 1248.67,-321.72 1244.83,-321.72 1241,-317.89 1241,-314.05 1241,-314.05 1241,-306.39 1241,-306.39 1241,-302.55 1244.83,-298.72 1248.67,-298.72 1248.67,-298.72 1370.33,-298.72 1370.33,-298.72 1374.17,-298.72 1378,-302.55 1378,-306.39 1378,-306.39 1378,-314.05 1378,-314.05 1378,-317.89 1374.17,-321.72 1370.33,-321.72"/>
<text text-anchor="middle" x="1309.5" y="-306.52" font-family="Arial" font-size="14.00" fill="#c6c5fe">services/Firebase.ts</text>
</g>
<!-- components/AuthContainer.tsx&#45;&gt;services/Firebase.ts -->
<g id="edge1" class="edge">
<title>components/AuthContainer.tsx&#45;&gt;services/Firebase.ts</title>
<path fill="none" stroke="#757575" d="M791.32,-303.51C913.86,-305.1 1119.09,-307.76 1230.62,-309.21"/>
<polygon fill="#757575" stroke="#757575" points="1230.74,-312.71 1240.78,-309.34 1230.83,-305.71 1230.74,-312.71"/>
</g>
<!-- types/models.d.ts -->
<g id="node12" class="node">
<title>types/models.d.ts</title>
<path fill="none" stroke="#cfffac" d="M1640.33,-161.72C1640.33,-161.72 1533.67,-161.72 1533.67,-161.72 1529.83,-161.72 1526,-157.89 1526,-154.05 1526,-154.05 1526,-146.39 1526,-146.39 1526,-142.55 1529.83,-138.72 1533.67,-138.72 1533.67,-138.72 1640.33,-138.72 1640.33,-138.72 1644.17,-138.72 1648,-142.55 1648,-146.39 1648,-146.39 1648,-154.05 1648,-154.05 1648,-157.89 1644.17,-161.72 1640.33,-161.72"/>
<text text-anchor="middle" x="1587" y="-146.52" font-family="Arial" font-size="14.00" fill="#cfffac">types/models.d.ts</text>
</g>
<!-- services/Firebase.ts&#45;&gt;types/models.d.ts -->
<g id="edge65" class="edge">
<title>services/Firebase.ts&#45;&gt;types/models.d.ts</title>
<path fill="none" stroke="#757575" d="M1378.2,-308.35C1398.39,-305.53 1419.94,-300.16 1438,-290.22 1459.25,-278.53 1456.88,-266.4 1474,-249.22 1503.7,-219.43 1540.69,-187.67 1563.83,-168.38"/>
<polygon fill="#757575" stroke="#757575" points="1566.23,-170.94 1571.69,-161.87 1561.76,-165.55 1566.23,-170.94"/>
</g>
<!-- components/AuthFrom.tsx -->
<g id="node3" class="node">
<title>components/AuthFrom.tsx</title>
<path fill="none" stroke="#ff6c60" d="M1667.33,-442.72C1667.33,-442.72 1506.67,-442.72 1506.67,-442.72 1502.83,-442.72 1499,-438.89 1499,-435.05 1499,-435.05 1499,-427.39 1499,-427.39 1499,-423.55 1502.83,-419.72 1506.67,-419.72 1506.67,-419.72 1667.33,-419.72 1667.33,-419.72 1671.17,-419.72 1675,-423.55 1675,-427.39 1675,-427.39 1675,-435.05 1675,-435.05 1675,-438.89 1671.17,-442.72 1667.33,-442.72"/>
<text text-anchor="middle" x="1587" y="-427.52" font-family="Arial" font-size="14.00" fill="#ff6c60">components/AuthFrom.tsx</text>
</g>
<!-- components/Form.tsx -->
<g id="node4" class="node">
<title>components/Form.tsx</title>
<path fill="none" stroke="#cfffac" d="M1876.33,-442.72C1876.33,-442.72 1743.67,-442.72 1743.67,-442.72 1739.83,-442.72 1736,-438.89 1736,-435.05 1736,-435.05 1736,-427.39 1736,-427.39 1736,-423.55 1739.83,-419.72 1743.67,-419.72 1743.67,-419.72 1876.33,-419.72 1876.33,-419.72 1880.17,-419.72 1884,-423.55 1884,-427.39 1884,-427.39 1884,-435.05 1884,-435.05 1884,-438.89 1880.17,-442.72 1876.33,-442.72"/>
<text text-anchor="middle" x="1810" y="-427.52" font-family="Arial" font-size="14.00" fill="#cfffac">components/Form.tsx</text>
</g>
<!-- components/AuthFrom.tsx&#45;&gt;components/Form.tsx -->
<g id="edge2" class="edge">
<title>components/AuthFrom.tsx&#45;&gt;components/Form.tsx</title>
<path fill="none" stroke="#757575" d="M1675.03,-431.22C1691.73,-431.22 1709.19,-431.22 1725.77,-431.22"/>
<polygon fill="#757575" stroke="#757575" points="1725.97,-434.72 1735.97,-431.22 1725.97,-427.72 1725.97,-434.72"/>
</g>
<!-- components/FormInputGroup.tsx -->
<g id="node5" class="node">
<title>components/FormInputGroup.tsx</title>
<path fill="none" stroke="#ff6c60" d="M1409.83,-401.72C1409.83,-401.72 1209.17,-401.72 1209.17,-401.72 1205.33,-401.72 1201.5,-397.89 1201.5,-394.05 1201.5,-394.05 1201.5,-386.39 1201.5,-386.39 1201.5,-382.55 1205.33,-378.72 1209.17,-378.72 1209.17,-378.72 1409.83,-378.72 1409.83,-378.72 1413.67,-378.72 1417.5,-382.55 1417.5,-386.39 1417.5,-386.39 1417.5,-394.05 1417.5,-394.05 1417.5,-397.89 1413.67,-401.72 1409.83,-401.72"/>
<text text-anchor="middle" x="1309.5" y="-386.52" font-family="Arial" font-size="14.00" fill="#ff6c60">components/FormInputGroup.tsx</text>
</g>
<!-- components/AuthFrom.tsx&#45;&gt;components/FormInputGroup.tsx -->
<g id="edge3" class="edge">
<title>components/AuthFrom.tsx&#45;&gt;components/FormInputGroup.tsx</title>
<path fill="none" stroke="#757575" d="M1498.74,-424.56C1454.41,-418.74 1402,-410.65 1363.75,-403.61"/>
<polygon fill="#757575" stroke="#757575" points="1364.32,-400.15 1353.85,-401.75 1363.03,-407.03 1364.32,-400.15"/>
</g>
<!-- components/FormInputGroup.tsx&#45;&gt;components/AuthFrom.tsx -->
<g id="edge4" class="edge">
<title>components/FormInputGroup.tsx&#45;&gt;components/AuthFrom.tsx</title>
<path fill="none" stroke="#757575" d="M1417.8,-399.59C1457.07,-405.04 1499.8,-411.78 1532.37,-417.76"/>
<polygon fill="#757575" stroke="#757575" points="1532.1,-421.27 1542.57,-419.68 1533.39,-414.39 1532.1,-421.27"/>
</g>
<!-- components/FormInputGroup.scss -->
<g id="node6" class="node">
<title>components/FormInputGroup.scss</title>
<path fill="none" stroke="#cfffac" d="M1692.33,-401.72C1692.33,-401.72 1481.67,-401.72 1481.67,-401.72 1477.83,-401.72 1474,-397.89 1474,-394.05 1474,-394.05 1474,-386.39 1474,-386.39 1474,-382.55 1477.83,-378.72 1481.67,-378.72 1481.67,-378.72 1692.33,-378.72 1692.33,-378.72 1696.17,-378.72 1700,-382.55 1700,-386.39 1700,-386.39 1700,-394.05 1700,-394.05 1700,-397.89 1696.17,-401.72 1692.33,-401.72"/>
<text text-anchor="middle" x="1587" y="-386.52" font-family="Arial" font-size="14.00" fill="#cfffac">components/FormInputGroup.scss</text>
</g>
<!-- components/FormInputGroup.tsx&#45;&gt;components/FormInputGroup.scss -->
<g id="edge5" class="edge">
<title>components/FormInputGroup.tsx&#45;&gt;components/FormInputGroup.scss</title>
<path fill="none" stroke="#757575" d="M1417.8,-390.22C1432.92,-390.22 1448.56,-390.22 1463.93,-390.22"/>
<polygon fill="#757575" stroke="#757575" points="1463.99,-393.72 1473.99,-390.22 1463.99,-386.72 1463.99,-393.72"/>
</g>
<!-- components/Friends.tsx -->
<g id="node7" class="node">
<title>components/Friends.tsx</title>
<path fill="none" stroke="#cfffac" d="M188.33,-760.72C188.33,-760.72 42.67,-760.72 42.67,-760.72 38.83,-760.72 35,-756.89 35,-753.05 35,-753.05 35,-745.39 35,-745.39 35,-741.55 38.83,-737.72 42.67,-737.72 42.67,-737.72 188.33,-737.72 188.33,-737.72 192.17,-737.72 196,-741.55 196,-745.39 196,-745.39 196,-753.05 196,-753.05 196,-756.89 192.17,-760.72 188.33,-760.72"/>
<text text-anchor="middle" x="115.5" y="-745.52" font-family="Arial" font-size="14.00" fill="#cfffac">components/Friends.tsx</text>
</g>
<!-- components/ModalForm.scss -->
<g id="node8" class="node">
<title>components/ModalForm.scss</title>
<path fill="none" stroke="#cfffac" d="M1399.33,-162.72C1399.33,-162.72 1219.67,-162.72 1219.67,-162.72 1215.83,-162.72 1212,-158.89 1212,-155.05 1212,-155.05 1212,-147.39 1212,-147.39 1212,-143.55 1215.83,-139.72 1219.67,-139.72 1219.67,-139.72 1399.33,-139.72 1399.33,-139.72 1403.17,-139.72 1407,-143.55 1407,-147.39 1407,-147.39 1407,-155.05 1407,-155.05 1407,-158.89 1403.17,-162.72 1399.33,-162.72"/>
<text text-anchor="middle" x="1309.5" y="-147.52" font-family="Arial" font-size="14.00" fill="#cfffac">components/ModalForm.scss</text>
</g>
<!-- components/ModalForm.tsx -->
<g id="node9" class="node">
<title>components/ModalForm.tsx</title>
<path fill="none" stroke="#c6c5fe" d="M1089.33,-177.72C1089.33,-177.72 919.67,-177.72 919.67,-177.72 915.83,-177.72 912,-173.89 912,-170.05 912,-170.05 912,-162.39 912,-162.39 912,-158.55 915.83,-154.72 919.67,-154.72 919.67,-154.72 1089.33,-154.72 1089.33,-154.72 1093.17,-154.72 1097,-158.55 1097,-162.39 1097,-162.39 1097,-170.05 1097,-170.05 1097,-173.89 1093.17,-177.72 1089.33,-177.72"/>
<text text-anchor="middle" x="1004.5" y="-162.52" font-family="Arial" font-size="14.00" fill="#c6c5fe">components/ModalForm.tsx</text>
</g>
<!-- components/ModalForm.tsx&#45;&gt;components/ModalForm.scss -->
<g id="edge6" class="edge">
<title>components/ModalForm.tsx&#45;&gt;components/ModalForm.scss</title>
<path fill="none" stroke="#757575" d="M1097.23,-161.68C1130.21,-160.05 1167.68,-158.19 1201.82,-156.5"/>
<polygon fill="#757575" stroke="#757575" points="1202.01,-160 1211.82,-156.01 1201.66,-153 1202.01,-160"/>
</g>
<!-- components/ProductForm.tsx -->
<g id="node10" class="node">
<title>components/ProductForm.tsx</title>
<path fill="none" stroke="#c6c5fe" d="M1093.83,-233.72C1093.83,-233.72 915.17,-233.72 915.17,-233.72 911.33,-233.72 907.5,-229.89 907.5,-226.05 907.5,-226.05 907.5,-218.39 907.5,-218.39 907.5,-214.55 911.33,-210.72 915.17,-210.72 915.17,-210.72 1093.83,-210.72 1093.83,-210.72 1097.67,-210.72 1101.5,-214.55 1101.5,-218.39 1101.5,-218.39 1101.5,-226.05 1101.5,-226.05 1101.5,-229.89 1097.67,-233.72 1093.83,-233.72"/>
<text text-anchor="middle" x="1004.5" y="-218.52" font-family="Arial" font-size="14.00" fill="#c6c5fe">components/ProductForm.tsx</text>
</g>
<!-- components/ProductForm.tsx&#45;&gt;components/Form.tsx -->
<g id="edge7" class="edge">
<title>components/ProductForm.tsx&#45;&gt;components/Form.tsx</title>
<path fill="none" stroke="#757575" d="M1101.5,-214.96C1267.91,-204.16 1601.58,-190.89 1700,-249.22 1760.95,-285.34 1791.85,-369.94 1803.44,-409.77"/>
<polygon fill="#757575" stroke="#757575" points="1800.1,-410.82 1806.15,-419.52 1806.85,-408.95 1800.1,-410.82"/>
</g>
<!-- components/ProductForm.tsx&#45;&gt;components/FormInputGroup.tsx -->
<g id="edge8" class="edge">
<title>components/ProductForm.tsx&#45;&gt;components/FormInputGroup.tsx</title>
<path fill="none" stroke="#757575" d="M1022.52,-233.77C1053.4,-254.5 1121.02,-298.87 1181,-331.22 1210.7,-347.23 1245.53,-363.17 1271.27,-374.43"/>
<polygon fill="#757575" stroke="#757575" points="1270.1,-377.74 1280.66,-378.51 1272.89,-371.32 1270.1,-377.74"/>
</g>
<!-- services/RestService.ts -->
<g id="node11" class="node">
<title>services/RestService.ts</title>
<path fill="none" stroke="#c6c5fe" d="M1380.33,-280.72C1380.33,-280.72 1238.67,-280.72 1238.67,-280.72 1234.83,-280.72 1231,-276.89 1231,-273.05 1231,-273.05 1231,-265.39 1231,-265.39 1231,-261.55 1234.83,-257.72 1238.67,-257.72 1238.67,-257.72 1380.33,-257.72 1380.33,-257.72 1384.17,-257.72 1388,-261.55 1388,-265.39 1388,-265.39 1388,-273.05 1388,-273.05 1388,-276.89 1384.17,-280.72 1380.33,-280.72"/>
<text text-anchor="middle" x="1309.5" y="-265.52" font-family="Arial" font-size="14.00" fill="#c6c5fe">services/RestService.ts</text>
</g>
<!-- components/ProductForm.tsx&#45;&gt;services/RestService.ts -->
<g id="edge9" class="edge">
<title>components/ProductForm.tsx&#45;&gt;services/RestService.ts</title>
<path fill="none" stroke="#757575" d="M1080.01,-233.78C1123.67,-240.55 1178.94,-249.12 1224.19,-256.14"/>
<polygon fill="#757575" stroke="#757575" points="1223.86,-259.63 1234.28,-257.71 1224.93,-252.72 1223.86,-259.63"/>
</g>
<!-- components/ProductForm.tsx&#45;&gt;types/models.d.ts -->
<g id="edge10" class="edge">
<title>components/ProductForm.tsx&#45;&gt;types/models.d.ts</title>
<path fill="none" stroke="#757575" d="M1101.81,-211.99C1189.53,-202.46 1322.6,-187.46 1438,-172.22 1463.46,-168.86 1491.34,-164.81 1515.96,-161.11"/>
<polygon fill="#757575" stroke="#757575" points="1516.57,-164.56 1525.93,-159.6 1515.52,-157.63 1516.57,-164.56"/>
</g>
<!-- services/RestService.ts&#45;&gt;types/models.d.ts -->
<g id="edge67" class="edge">
<title>services/RestService.ts&#45;&gt;types/models.d.ts</title>
<path fill="none" stroke="#757575" d="M1337.17,-257.7C1386.95,-236.2 1494.06,-189.93 1550.12,-165.72"/>
<polygon fill="#757575" stroke="#757575" points="1551.53,-168.92 1559.32,-161.74 1548.75,-162.5 1551.53,-168.92"/>
</g>
<!-- services/products.json.ts -->
<g id="node45" class="node">
<title>services/products.json.ts</title>
<path fill="none" stroke="#cfffac" d="M1661.33,-280.72C1661.33,-280.72 1512.67,-280.72 1512.67,-280.72 1508.83,-280.72 1505,-276.89 1505,-273.05 1505,-273.05 1505,-265.39 1505,-265.39 1505,-261.55 1508.83,-257.72 1512.67,-257.72 1512.67,-257.72 1661.33,-257.72 1661.33,-257.72 1665.17,-257.72 1669,-261.55 1669,-265.39 1669,-265.39 1669,-273.05 1669,-273.05 1669,-276.89 1665.17,-280.72 1661.33,-280.72"/>
<text text-anchor="middle" x="1587" y="-265.52" font-family="Arial" font-size="14.00" fill="#cfffac">services/products.json.ts</text>
</g>
<!-- services/RestService.ts&#45;&gt;services/products.json.ts -->
<g id="edge66" class="edge">
<title>services/RestService.ts&#45;&gt;services/products.json.ts</title>
<path fill="none" stroke="#757575" d="M1388.34,-269.22C1421.51,-269.22 1460.42,-269.22 1494.92,-269.22"/>
<polygon fill="#757575" stroke="#757575" points="1494.99,-272.72 1504.99,-269.22 1494.99,-265.72 1494.99,-272.72"/>
</g>
<!-- components/ProductFormModal.tsx -->
<g id="node13" class="node">
<title>components/ProductFormModal.tsx</title>
<path fill="none" stroke="#c6c5fe" d="M798.83,-205.72C798.83,-205.72 582.17,-205.72 582.17,-205.72 578.33,-205.72 574.5,-201.89 574.5,-198.05 574.5,-198.05 574.5,-190.39 574.5,-190.39 574.5,-186.55 578.33,-182.72 582.17,-182.72 582.17,-182.72 798.83,-182.72 798.83,-182.72 802.67,-182.72 806.5,-186.55 806.5,-190.39 806.5,-190.39 806.5,-198.05 806.5,-198.05 806.5,-201.89 802.67,-205.72 798.83,-205.72"/>
<text text-anchor="middle" x="690.5" y="-190.52" font-family="Arial" font-size="14.00" fill="#c6c5fe">components/ProductFormModal.tsx</text>
</g>
<!-- components/ProductFormModal.tsx&#45;&gt;components/ModalForm.tsx -->
<g id="edge11" class="edge">
<title>components/ProductFormModal.tsx&#45;&gt;components/ModalForm.tsx</title>
<path fill="none" stroke="#757575" d="M806.79,-183.87C837.83,-181.09 871.17,-178.1 901.43,-175.38"/>
<polygon fill="#757575" stroke="#757575" points="901.92,-178.85 911.57,-174.47 901.3,-171.88 901.92,-178.85"/>
</g>
<!-- components/ProductFormModal.tsx&#45;&gt;components/ProductForm.tsx -->
<g id="edge12" class="edge">
<title>components/ProductFormModal.tsx&#45;&gt;components/ProductForm.tsx</title>
<path fill="none" stroke="#757575" d="M806.79,-204.57C836.37,-207.22 868.05,-210.06 897.16,-212.68"/>
<polygon fill="#757575" stroke="#757575" points="897.07,-216.18 907.34,-213.59 897.69,-209.21 897.07,-216.18"/>
</g>
<!-- components/ProductFormModal.tsx&#45;&gt;types/models.d.ts -->
<g id="edge13" class="edge">
<title>components/ProductFormModal.tsx&#45;&gt;types/models.d.ts</title>
<path fill="none" stroke="#757575" d="M724.4,-182.68C758.75,-171.2 814.43,-154.19 864,-146.22 1115.97,-105.73 1183.32,-114.94 1438,-131.22 1463.45,-132.85 1491.21,-136.03 1515.74,-139.34"/>
<polygon fill="#757575" stroke="#757575" points="1515.3,-142.81 1525.68,-140.71 1516.25,-135.87 1515.3,-142.81"/>
</g>
<!-- components/ProductList.tsx -->
<g id="node14" class="node">
<title>components/ProductList.tsx</title>
<path fill="none" stroke="#c6c5fe" d="M774.33,-44.72C774.33,-44.72 606.67,-44.72 606.67,-44.72 602.83,-44.72 599,-40.89 599,-37.05 599,-37.05 599,-29.39 599,-29.39 599,-25.55 602.83,-21.72 606.67,-21.72 606.67,-21.72 774.33,-21.72 774.33,-21.72 778.17,-21.72 782,-25.55 782,-29.39 782,-29.39 782,-37.05 782,-37.05 782,-40.89 778.17,-44.72 774.33,-44.72"/>
<text text-anchor="middle" x="690.5" y="-29.52" font-family="Arial" font-size="14.00" fill="#c6c5fe">components/ProductList.tsx</text>
</g>
<!-- components/ProductList.tsx&#45;&gt;types/models.d.ts -->
<g id="edge14" class="edge">
<title>components/ProductList.tsx&#45;&gt;types/models.d.ts</title>
<path fill="none" stroke="#757575" d="M759.88,-21.7C894.65,-1.95 1201.97,28.32 1438,-59.22 1485.98,-77.01 1535.36,-111.18 1563.21,-132.21"/>
<polygon fill="#757575" stroke="#757575" points="1561.41,-135.24 1571.47,-138.54 1565.67,-129.68 1561.41,-135.24"/>
</g>
<!-- utils/Array.ts -->
<g id="node15" class="node">
<title>utils/Array.ts</title>
<path fill="none" stroke="#cfffac" d="M1041.83,-44.72C1041.83,-44.72 967.17,-44.72 967.17,-44.72 963.33,-44.72 959.5,-40.89 959.5,-37.05 959.5,-37.05 959.5,-29.39 959.5,-29.39 959.5,-25.55 963.33,-21.72 967.17,-21.72 967.17,-21.72 1041.83,-21.72 1041.83,-21.72 1045.67,-21.72 1049.5,-25.55 1049.5,-29.39 1049.5,-29.39 1049.5,-37.05 1049.5,-37.05 1049.5,-40.89 1045.67,-44.72 1041.83,-44.72"/>
<text text-anchor="middle" x="1004.5" y="-29.52" font-family="Arial" font-size="14.00" fill="#cfffac">utils/Array.ts</text>
</g>
<!-- components/ProductList.tsx&#45;&gt;utils/Array.ts -->
<g id="edge15" class="edge">
<title>components/ProductList.tsx&#45;&gt;utils/Array.ts</title>
<path fill="none" stroke="#757575" d="M782.16,-33.22C836.36,-33.22 903.39,-33.22 949.4,-33.22"/>
<polygon fill="#757575" stroke="#757575" points="949.47,-36.72 959.47,-33.22 949.47,-29.72 949.47,-36.72"/>
</g>
<!-- components/containers/App.test.tsx -->
<g id="node16" class="node">
<title>components/containers/App.test.tsx</title>
<path fill="none" stroke="#c6c5fe" d="M223.33,-719.72C223.33,-719.72 7.67,-719.72 7.67,-719.72 3.83,-719.72 0,-715.89 0,-712.05 0,-712.05 0,-704.39 0,-704.39 0,-700.55 3.83,-696.72 7.67,-696.72 7.67,-696.72 223.33,-696.72 223.33,-696.72 227.17,-696.72 231,-700.55 231,-704.39 231,-704.39 231,-712.05 231,-712.05 231,-715.89 227.17,-719.72 223.33,-719.72"/>
<text text-anchor="middle" x="115.5" y="-704.52" font-family="Arial" font-size="14.00" fill="#c6c5fe">components/containers/App.test.tsx</text>
</g>
<!-- components/containers/App.tsx -->
<g id="node17" class="node">
<title>components/containers/App.tsx</title>
<path fill="none" stroke="#c6c5fe" d="M487.33,-719.72C487.33,-719.72 296.67,-719.72 296.67,-719.72 292.83,-719.72 289,-715.89 289,-712.05 289,-712.05 289,-704.39 289,-704.39 289,-700.55 292.83,-696.72 296.67,-696.72 296.67,-696.72 487.33,-696.72 487.33,-696.72 491.17,-696.72 495,-700.55 495,-704.39 495,-704.39 495,-712.05 495,-712.05 495,-715.89 491.17,-719.72 487.33,-719.72"/>
<text text-anchor="middle" x="392" y="-704.52" font-family="Arial" font-size="14.00" fill="#c6c5fe">components/containers/App.tsx</text>
</g>
<!-- components/containers/App.test.tsx&#45;&gt;components/containers/App.tsx -->
<g id="edge16" class="edge">
<title>components/containers/App.test.tsx&#45;&gt;components/containers/App.tsx</title>
<path fill="none" stroke="#757575" d="M231.32,-708.22C246.99,-708.22 263.06,-708.22 278.68,-708.22"/>
<polygon fill="#757575" stroke="#757575" points="278.87,-711.72 288.87,-708.22 278.87,-704.72 278.87,-711.72"/>
</g>
<!-- components/menus/RootMenu.tsx -->
<g id="node18" class="node">
<title>components/menus/RootMenu.tsx</title>
<path fill="none" stroke="#c6c5fe" d="M794.83,-757.72C794.83,-757.72 586.17,-757.72 586.17,-757.72 582.33,-757.72 578.5,-753.89 578.5,-750.05 578.5,-750.05 578.5,-742.39 578.5,-742.39 578.5,-738.55 582.33,-734.72 586.17,-734.72 586.17,-734.72 794.83,-734.72 794.83,-734.72 798.67,-734.72 802.5,-738.55 802.5,-742.39 802.5,-742.39 802.5,-750.05 802.5,-750.05 802.5,-753.89 798.67,-757.72 794.83,-757.72"/>
<text text-anchor="middle" x="690.5" y="-742.52" font-family="Arial" font-size="14.00" fill="#c6c5fe">components/menus/RootMenu.tsx</text>
</g>
<!-- components/containers/App.tsx&#45;&gt;components/menus/RootMenu.tsx -->
<g id="edge17" class="edge">
<title>components/containers/App.tsx&#45;&gt;components/menus/RootMenu.tsx</title>
<path fill="none" stroke="#757575" d="M482.76,-719.72C516.43,-724.04 554.88,-728.97 589.42,-733.39"/>
<polygon fill="#757575" stroke="#757575" points="589.17,-736.89 599.53,-734.69 590.06,-729.95 589.17,-736.89"/>
</g>
<!-- main/RoutePath.ts -->
<g id="node19" class="node">
<title>main/RoutePath.ts</title>
<path fill="none" stroke="#c6c5fe" d="M1365.83,-679.72C1365.83,-679.72 1253.17,-679.72 1253.17,-679.72 1249.33,-679.72 1245.5,-675.89 1245.5,-672.05 1245.5,-672.05 1245.5,-664.39 1245.5,-664.39 1245.5,-660.55 1249.33,-656.72 1253.17,-656.72 1253.17,-656.72 1365.83,-656.72 1365.83,-656.72 1369.67,-656.72 1373.5,-660.55 1373.5,-664.39 1373.5,-664.39 1373.5,-672.05 1373.5,-672.05 1373.5,-675.89 1369.67,-679.72 1365.83,-679.72"/>
<text text-anchor="middle" x="1309.5" y="-664.52" font-family="Arial" font-size="14.00" fill="#c6c5fe">main/RoutePath.ts</text>
</g>
<!-- components/containers/App.tsx&#45;&gt;main/RoutePath.ts -->
<g id="edge18" class="edge">
<title>components/containers/App.tsx&#45;&gt;main/RoutePath.ts</title>
<path fill="none" stroke="#757575" d="M495.25,-706.33C640,-703.29 912.89,-696.16 1145,-682.22 1174.51,-680.45 1206.95,-677.81 1235.11,-675.3"/>
<polygon fill="#757575" stroke="#757575" points="1235.63,-678.77 1245.28,-674.39 1235,-671.8 1235.63,-678.77"/>
</g>
<!-- components/menus/DropdownMenu.tsx -->
<g id="node22" class="node">
<title>components/menus/DropdownMenu.tsx</title>
<path fill="none" stroke="#c6c5fe" d="M1430.33,-795.72C1430.33,-795.72 1188.67,-795.72 1188.67,-795.72 1184.83,-795.72 1181,-791.89 1181,-788.05 1181,-788.05 1181,-780.39 1181,-780.39 1181,-776.55 1184.83,-772.72 1188.67,-772.72 1188.67,-772.72 1430.33,-772.72 1430.33,-772.72 1434.17,-772.72 1438,-776.55 1438,-780.39 1438,-780.39 1438,-788.05 1438,-788.05 1438,-791.89 1434.17,-795.72 1430.33,-795.72"/>
<text text-anchor="middle" x="1309.5" y="-780.52" font-family="Arial" font-size="14.00" fill="#c6c5fe">components/menus/DropdownMenu.tsx</text>
</g>
<!-- components/menus/RootMenu.tsx&#45;&gt;components/menus/DropdownMenu.tsx -->
<g id="edge22" class="edge">
<title>components/menus/RootMenu.tsx&#45;&gt;components/menus/DropdownMenu.tsx</title>
<path fill="none" stroke="#757575" d="M802.84,-754.15C823.18,-755.54 844.23,-756.95 864,-758.22 966.69,-764.8 1082.78,-771.56 1170.56,-776.54"/>
<polygon fill="#757575" stroke="#757575" points="1170.4,-780.04 1180.58,-777.11 1170.79,-773.05 1170.4,-780.04"/>
</g>
<!-- types/types.d.ts -->
<g id="node23" class="node">
<title>types/types.d.ts</title>
<path fill="none" stroke="#cfffac" d="M1634.33,-679.72C1634.33,-679.72 1539.67,-679.72 1539.67,-679.72 1535.83,-679.72 1532,-675.89 1532,-672.05 1532,-672.05 1532,-664.39 1532,-664.39 1532,-660.55 1535.83,-656.72 1539.67,-656.72 1539.67,-656.72 1634.33,-656.72 1634.33,-656.72 1638.17,-656.72 1642,-660.55 1642,-664.39 1642,-664.39 1642,-672.05 1642,-672.05 1642,-675.89 1638.17,-679.72 1634.33,-679.72"/>
<text text-anchor="middle" x="1587" y="-664.52" font-family="Arial" font-size="14.00" fill="#cfffac">types/types.d.ts</text>
</g>
<!-- components/menus/RootMenu.tsx&#45;&gt;types/types.d.ts -->
<g id="edge24" class="edge">
<title>components/menus/RootMenu.tsx&#45;&gt;types/types.d.ts</title>
<path fill="none" stroke="#757575" d="M802.69,-739.98C948.72,-731.28 1213.01,-713.75 1438,-689.22 1465.56,-686.22 1495.89,-682.06 1521.88,-678.24"/>
<polygon fill="#757575" stroke="#757575" points="1522.6,-681.67 1531.98,-676.74 1521.57,-674.75 1522.6,-681.67"/>
</g>
<!-- main/MenuConfig.ts -->
<g id="node24" class="node">
<title>main/MenuConfig.ts</title>
<path fill="none" stroke="#c6c5fe" d="M1065.83,-639.72C1065.83,-639.72 943.17,-639.72 943.17,-639.72 939.33,-639.72 935.5,-635.89 935.5,-632.05 935.5,-632.05 935.5,-624.39 935.5,-624.39 935.5,-620.55 939.33,-616.72 943.17,-616.72 943.17,-616.72 1065.83,-616.72 1065.83,-616.72 1069.67,-616.72 1073.5,-620.55 1073.5,-624.39 1073.5,-624.39 1073.5,-632.05 1073.5,-632.05 1073.5,-635.89 1069.67,-639.72 1065.83,-639.72"/>
<text text-anchor="middle" x="1004.5" y="-624.52" font-family="Arial" font-size="14.00" fill="#c6c5fe">main/MenuConfig.ts</text>
</g>
<!-- components/menus/RootMenu.tsx&#45;&gt;main/MenuConfig.ts -->
<g id="edge23" class="edge">
<title>components/menus/RootMenu.tsx&#45;&gt;main/MenuConfig.ts</title>
<path fill="none" stroke="#757575" d="M721.98,-734.69C778.6,-713.28 899.97,-667.37 963.25,-643.44"/>
<polygon fill="#757575" stroke="#757575" points="964.78,-646.61 972.89,-639.8 962.3,-640.06 964.78,-646.61"/>
</g>
<!-- main/RoutePath.ts&#45;&gt;types/types.d.ts -->
<g id="edge64" class="edge">
<title>main/RoutePath.ts&#45;&gt;types/types.d.ts</title>
<path fill="none" stroke="#757575" d="M1373.71,-668.22C1418.07,-668.22 1477.19,-668.22 1521.77,-668.22"/>
<polygon fill="#757575" stroke="#757575" points="1521.92,-671.72 1531.92,-668.22 1521.92,-664.72 1521.92,-671.72"/>
</g>
<!-- components/forms/NewCatalogForm.tsx -->
<g id="node20" class="node">
<title>components/forms/NewCatalogForm.tsx</title>
<path fill="none" stroke="#cfffac" d="M1126.83,-393.72C1126.83,-393.72 882.17,-393.72 882.17,-393.72 878.33,-393.72 874.5,-389.89 874.5,-386.05 874.5,-386.05 874.5,-378.39 874.5,-378.39 874.5,-374.55 878.33,-370.72 882.17,-370.72 882.17,-370.72 1126.83,-370.72 1126.83,-370.72 1130.67,-370.72 1134.5,-374.55 1134.5,-378.39 1134.5,-378.39 1134.5,-386.05 1134.5,-386.05 1134.5,-389.89 1130.67,-393.72 1126.83,-393.72"/>
<text text-anchor="middle" x="1004.5" y="-378.52" font-family="Arial" font-size="14.00" fill="#cfffac">components/forms/NewCatalogForm.tsx</text>
</g>
<!-- components/forms/ResetPasswordForm.tsx -->
<g id="node21" class="node">
<title>components/forms/ResetPasswordForm.tsx</title>
<path fill="none" stroke="#c6c5fe" d="M1137.33,-434.72C1137.33,-434.72 871.67,-434.72 871.67,-434.72 867.83,-434.72 864,-430.89 864,-427.05 864,-427.05 864,-419.39 864,-419.39 864,-415.55 867.83,-411.72 871.67,-411.72 871.67,-411.72 1137.33,-411.72 1137.33,-411.72 1141.17,-411.72 1145,-415.55 1145,-419.39 1145,-419.39 1145,-427.05 1145,-427.05 1145,-430.89 1141.17,-434.72 1137.33,-434.72"/>
<text text-anchor="middle" x="1004.5" y="-419.52" font-family="Arial" font-size="14.00" fill="#c6c5fe">components/forms/ResetPasswordForm.tsx</text>
</g>
<!-- components/forms/ResetPasswordForm.tsx&#45;&gt;components/Form.tsx -->
<g id="edge19" class="edge">
<title>components/forms/ResetPasswordForm.tsx&#45;&gt;components/Form.tsx</title>
<path fill="none" stroke="#757575" d="M1123.11,-411.66C1130.67,-409.31 1138.03,-406.52 1145,-403.22 1164.62,-393.93 1160.77,-378.09 1181,-370.22 1288.49,-328.41 1588.4,-341.12 1700,-370.22 1732.13,-378.6 1764.82,-398.78 1785.91,-413.64"/>
<polygon fill="#757575" stroke="#757575" points="1784.04,-416.62 1794.2,-419.64 1788.15,-410.94 1784.04,-416.62"/>
</g>
<!-- components/forms/ResetPasswordForm.tsx&#45;&gt;components/FormInputGroup.tsx -->
<g id="edge20" class="edge">
<title>components/forms/ResetPasswordForm.tsx&#45;&gt;components/FormInputGroup.tsx</title>
<path fill="none" stroke="#757575" d="M1111.47,-411.68C1137.73,-408.82 1166,-405.74 1192.69,-402.83"/>
<polygon fill="#757575" stroke="#757575" points="1193.28,-406.29 1202.84,-401.73 1192.52,-399.33 1193.28,-406.29"/>
</g>
<!-- components/menus/DropdownMenu.tsx&#45;&gt;types/types.d.ts -->
<g id="edge21" class="edge">
<title>components/menus/DropdownMenu.tsx&#45;&gt;types/types.d.ts</title>
<path fill="none" stroke="#757575" d="M1388.94,-772.66C1405.45,-769.01 1422.54,-764.28 1438,-758.22 1485.24,-739.69 1534.5,-706.49 1562.6,-686"/>
<polygon fill="#757575" stroke="#757575" points="1564.99,-688.59 1570.95,-679.84 1560.83,-682.96 1564.99,-688.59"/>
</g>
<!-- main/MenuConfig.ts&#45;&gt;main/RoutePath.ts -->
<g id="edge62" class="edge">
<title>main/MenuConfig.ts&#45;&gt;main/RoutePath.ts</title>
<path fill="none" stroke="#757575" d="M1073.88,-637.25C1121.97,-643.6 1186.24,-652.08 1235.36,-658.56"/>
<polygon fill="#757575" stroke="#757575" points="1234.91,-662.04 1245.28,-659.87 1235.83,-655.1 1234.91,-662.04"/>
</g>
<!-- main/MenuConfig.ts&#45;&gt;types/types.d.ts -->
<g id="edge63" class="edge">
<title>main/MenuConfig.ts&#45;&gt;types/types.d.ts</title>
<path fill="none" stroke="#757575" d="M1073.79,-629.52C1159.14,-631.57 1309.61,-636.6 1438,-648.22 1465.47,-650.71 1495.67,-654.58 1521.58,-658.26"/>
<polygon fill="#757575" stroke="#757575" points="1521.26,-661.75 1531.66,-659.71 1522.26,-654.82 1521.26,-661.75"/>
</g>
<!-- components/menus/SubMenu.tsx -->
<g id="node25" class="node">
<title>components/menus/SubMenu.tsx</title>
<path fill="none" stroke="#c6c5fe" d="M792.33,-598.72C792.33,-598.72 588.67,-598.72 588.67,-598.72 584.83,-598.72 581,-594.89 581,-591.05 581,-591.05 581,-583.39 581,-583.39 581,-579.55 584.83,-575.72 588.67,-575.72 588.67,-575.72 792.33,-575.72 792.33,-575.72 796.17,-575.72 800,-579.55 800,-583.39 800,-583.39 800,-591.05 800,-591.05 800,-594.89 796.17,-598.72 792.33,-598.72"/>
<text text-anchor="middle" x="690.5" y="-583.52" font-family="Arial" font-size="14.00" fill="#c6c5fe">components/menus/SubMenu.tsx</text>
</g>
<!-- components/menus/SubMenu.tsx&#45;&gt;types/types.d.ts -->
<g id="edge25" class="edge">
<title>components/menus/SubMenu.tsx&#45;&gt;types/types.d.ts</title>
<path fill="none" stroke="#757575" d="M800.19,-585.66C946.26,-585.28 1213.5,-590.59 1438,-628.22 1473.22,-634.12 1512.18,-644.83 1541.28,-653.68"/>
<polygon fill="#757575" stroke="#757575" points="1540.56,-657.12 1551.14,-656.72 1542.62,-650.43 1540.56,-657.12"/>
</g>
<!-- components/modals/Modal.tsx -->
<g id="node26" class="node">
<title>components/modals/Modal.tsx</title>
<path fill="none" stroke="#cfffac" d="M1097.33,-352.72C1097.33,-352.72 911.67,-352.72 911.67,-352.72 907.83,-352.72 904,-348.89 904,-345.05 904,-345.05 904,-337.39 904,-337.39 904,-333.55 907.83,-329.72 911.67,-329.72 911.67,-329.72 1097.33,-329.72 1097.33,-329.72 1101.17,-329.72 1105,-333.55 1105,-337.39 1105,-337.39 1105,-345.05 1105,-345.05 1105,-348.89 1101.17,-352.72 1097.33,-352.72"/>
<text text-anchor="middle" x="1004.5" y="-337.52" font-family="Arial" font-size="14.00" fill="#cfffac">components/modals/Modal.tsx</text>
</g>
<!-- components/modals/NewCatalogModal.tsx -->
<g id="node27" class="node">
<title>components/modals/NewCatalogModal.tsx</title>
<path fill="none" stroke="#c6c5fe" d="M820.33,-354.72C820.33,-354.72 560.67,-354.72 560.67,-354.72 556.83,-354.72 553,-350.89 553,-347.05 553,-347.05 553,-339.39 553,-339.39 553,-335.55 556.83,-331.72 560.67,-331.72 560.67,-331.72 820.33,-331.72 820.33,-331.72 824.17,-331.72 828,-335.55 828,-339.39 828,-339.39 828,-347.05 828,-347.05 828,-350.89 824.17,-354.72 820.33,-354.72"/>
<text text-anchor="middle" x="690.5" y="-339.52" font-family="Arial" font-size="14.00" fill="#c6c5fe">components/modals/NewCatalogModal.tsx</text>
</g>
<!-- components/modals/NewCatalogModal.tsx&#45;&gt;components/forms/NewCatalogForm.tsx -->
<g id="edge26" class="edge">
<title>components/modals/NewCatalogModal.tsx&#45;&gt;components/forms/NewCatalogForm.tsx</title>
<path fill="none" stroke="#757575" d="M783.84,-354.76C820.79,-359.38 863.49,-364.72 901.36,-369.45"/>
<polygon fill="#757575" stroke="#757575" points="901.04,-372.94 911.39,-370.71 901.9,-365.99 901.04,-372.94"/>
</g>
<!-- components/modals/NewCatalogModal.tsx&#45;&gt;components/modals/Modal.tsx -->
<g id="edge27" class="edge">
<title>components/modals/NewCatalogModal.tsx&#45;&gt;components/modals/Modal.tsx</title>
<path fill="none" stroke="#757575" d="M828.35,-342.34C850.16,-342.2 872.47,-342.06 893.56,-341.92"/>
<polygon fill="#757575" stroke="#757575" points="893.82,-345.42 903.8,-341.86 893.78,-338.42 893.82,-345.42"/>
</g>
<!-- components/pages/AccountPage.tsx -->
<g id="node28" class="node">
<title>components/pages/AccountPage.tsx</title>
<path fill="none" stroke="#c6c5fe" d="M502.33,-598.72C502.33,-598.72 281.67,-598.72 281.67,-598.72 277.83,-598.72 274,-594.89 274,-591.05 274,-591.05 274,-583.39 274,-583.39 274,-579.55 277.83,-575.72 281.67,-575.72 281.67,-575.72 502.33,-575.72 502.33,-575.72 506.17,-575.72 510,-579.55 510,-583.39 510,-583.39 510,-591.05 510,-591.05 510,-594.89 506.17,-598.72 502.33,-598.72"/>
<text text-anchor="middle" x="392" y="-583.52" font-family="Arial" font-size="14.00" fill="#c6c5fe">components/pages/AccountPage.tsx</text>
</g>
<!-- components/pages/AccountPage.tsx&#45;&gt;main/MenuConfig.ts -->
<g id="edge30" class="edge">
<title>components/pages/AccountPage.tsx&#45;&gt;main/MenuConfig.ts</title>
<path fill="none" stroke="#757575" d="M470.57,-598.77C496.7,-602.29 526.07,-605.86 553,-608.22 683.29,-619.64 835.38,-624.67 925.34,-626.79"/>
<polygon fill="#757575" stroke="#757575" points="925.38,-630.29 935.45,-627.02 925.54,-623.29 925.38,-630.29"/>
</g>
<!-- components/pages/AccountPage.tsx&#45;&gt;components/menus/SubMenu.tsx -->
<g id="edge28" class="edge">
<title>components/pages/AccountPage.tsx&#45;&gt;components/menus/SubMenu.tsx</title>
<path fill="none" stroke="#757575" d="M510.18,-587.22C530.12,-587.22 550.85,-587.22 570.83,-587.22"/>
<polygon fill="#757575" stroke="#757575" points="570.88,-590.72 580.88,-587.22 570.88,-583.72 570.88,-590.72"/>
</g>
<!-- components/pages/Page.tsx -->
<g id="node29" class="node">
<title>components/pages/Page.tsx</title>
<path fill="none" stroke="#cfffac" d="M776.83,-517.72C776.83,-517.72 604.17,-517.72 604.17,-517.72 600.33,-517.72 596.5,-513.89 596.5,-510.05 596.5,-510.05 596.5,-502.39 596.5,-502.39 596.5,-498.55 600.33,-494.72 604.17,-494.72 604.17,-494.72 776.83,-494.72 776.83,-494.72 780.67,-494.72 784.5,-498.55 784.5,-502.39 784.5,-502.39 784.5,-510.05 784.5,-510.05 784.5,-513.89 780.67,-517.72 776.83,-517.72"/>
<text text-anchor="middle" x="690.5" y="-502.52" font-family="Arial" font-size="14.00" fill="#cfffac">components/pages/Page.tsx</text>
</g>
<!-- components/pages/AccountPage.tsx&#45;&gt;components/pages/Page.tsx -->
<g id="edge29" class="edge">
<title>components/pages/AccountPage.tsx&#45;&gt;components/pages/Page.tsx</title>
<path fill="none" stroke="#757575" d="M477.46,-575.69C490.78,-573.27 504.32,-570.46 517,-567.22 564.62,-555.06 617.69,-535.32 652.23,-521.6"/>
<polygon fill="#757575" stroke="#757575" points="653.91,-524.7 661.89,-517.73 651.31,-518.2 653.91,-524.7"/>
</g>
<!-- components/pages/AuthPage.scss -->
<g id="node30" class="node">
<title>components/pages/AuthPage.scss</title>
<path fill="none" stroke="#cfffac" d="M1414.33,-483.72C1414.33,-483.72 1204.67,-483.72 1204.67,-483.72 1200.83,-483.72 1197,-479.89 1197,-476.05 1197,-476.05 1197,-468.39 1197,-468.39 1197,-464.55 1200.83,-460.72 1204.67,-460.72 1204.67,-460.72 1414.33,-460.72 1414.33,-460.72 1418.17,-460.72 1422,-464.55 1422,-468.39 1422,-468.39 1422,-476.05 1422,-476.05 1422,-479.89 1418.17,-483.72 1414.33,-483.72"/>
<text text-anchor="middle" x="1309.5" y="-468.52" font-family="Arial" font-size="14.00" fill="#cfffac">components/pages/AuthPage.scss</text>
</g>
<!-- components/pages/AuthPage.tsx -->
<g id="node31" class="node">
<title>components/pages/AuthPage.tsx</title>
<path fill="none" stroke="#c6c5fe" d="M1104.33,-479.72C1104.33,-479.72 904.67,-479.72 904.67,-479.72 900.83,-479.72 897,-475.89 897,-472.05 897,-472.05 897,-464.39 897,-464.39 897,-460.55 900.83,-456.72 904.67,-456.72 904.67,-456.72 1104.33,-456.72 1104.33,-456.72 1108.17,-456.72 1112,-460.55 1112,-464.39 1112,-464.39 1112,-472.05 1112,-472.05 1112,-475.89 1108.17,-479.72 1104.33,-479.72"/>
<text text-anchor="middle" x="1004.5" y="-464.52" font-family="Arial" font-size="14.00" fill="#c6c5fe">components/pages/AuthPage.tsx</text>
</g>
<!-- components/pages/AuthPage.tsx&#45;&gt;services/Firebase.ts -->
<g id="edge35" class="edge">
<title>components/pages/AuthPage.tsx&#45;&gt;services/Firebase.ts</title>
<path fill="none" stroke="#757575" d="M1112.03,-460.94C1123.87,-457.01 1135.18,-451.6 1145,-444.22 1174.24,-422.26 1154.97,-395.91 1181,-370.22 1202.15,-349.34 1231.94,-334.77 1257.4,-325.22"/>
<polygon fill="#757575" stroke="#757575" points="1258.69,-328.47 1266.92,-321.8 1256.33,-321.88 1258.69,-328.47"/>
</g>
<!-- components/pages/AuthPage.tsx&#45;&gt;components/AuthFrom.tsx -->
<g id="edge31" class="edge">
<title>components/pages/AuthPage.tsx&#45;&gt;components/AuthFrom.tsx</title>
<path fill="none" stroke="#757575" d="M1058.03,-479.78C1140.03,-495.91 1303.06,-520.34 1438,-493.22 1481.19,-484.54 1527.49,-462.93 1556.58,-447.67"/>
<polygon fill="#757575" stroke="#757575" points="1558.59,-450.57 1565.76,-442.77 1555.29,-444.39 1558.59,-450.57"/>
</g>
<!-- components/pages/AuthPage.tsx&#45;&gt;components/Form.tsx -->
<g id="edge32" class="edge">
<title>components/pages/AuthPage.tsx&#45;&gt;components/Form.tsx</title>
<path fill="none" stroke="#757575" d="M1039.96,-479.8C1075,-490.92 1131.07,-506.92 1181,-513.22 1410.67,-542.2 1475.76,-526.7 1700,-469.22 1723.97,-463.08 1750.16,-454.02 1770.87,-446.29"/>
<polygon fill="#757575" stroke="#757575" points="1772.15,-449.55 1780.26,-442.74 1769.67,-443 1772.15,-449.55"/>
</g>
<!-- components/pages/AuthPage.tsx&#45;&gt;components/pages/AuthPage.scss -->
<g id="edge33" class="edge">
<title>components/pages/AuthPage.tsx&#45;&gt;components/pages/AuthPage.scss</title>
<path fill="none" stroke="#757575" d="M1112.33,-469.63C1136.44,-469.95 1162.2,-470.29 1186.87,-470.61"/>
<polygon fill="#757575" stroke="#757575" points="1186.95,-474.12 1197,-470.75 1187.04,-467.12 1186.95,-474.12"/>
</g>
<!-- containers/SignUpModal.tsx -->
<g id="node32" class="node">
<title>containers/SignUpModal.tsx</title>
<path fill="none" stroke="#c6c5fe" d="M1394.33,-442.72C1394.33,-442.72 1224.67,-442.72 1224.67,-442.72 1220.83,-442.72 1217,-438.89 1217,-435.05 1217,-435.05 1217,-427.39 1217,-427.39 1217,-423.55 1220.83,-419.72 1224.67,-419.72 1224.67,-419.72 1394.33,-419.72 1394.33,-419.72 1398.17,-419.72 1402,-423.55 1402,-427.39 1402,-427.39 1402,-435.05 1402,-435.05 1402,-438.89 1398.17,-442.72 1394.33,-442.72"/>
<text text-anchor="middle" x="1309.5" y="-427.52" font-family="Arial" font-size="14.00" fill="#c6c5fe">containers/SignUpModal.tsx</text>
</g>
<!-- components/pages/AuthPage.tsx&#45;&gt;containers/SignUpModal.tsx -->
<g id="edge34" class="edge">
<title>components/pages/AuthPage.tsx&#45;&gt;containers/SignUpModal.tsx</title>
<path fill="none" stroke="#757575" d="M1099.71,-456.72C1133.7,-452.56 1172.21,-447.86 1206.82,-443.64"/>
<polygon fill="#757575" stroke="#757575" points="1207.44,-447.09 1216.94,-442.4 1206.59,-440.14 1207.44,-447.09"/>
</g>
<!-- containers/SignUpModal.tsx&#45;&gt;components/AuthFrom.tsx -->
<g id="edge47" class="edge">
<title>containers/SignUpModal.tsx&#45;&gt;components/AuthFrom.tsx</title>
<path fill="none" stroke="#757575" d="M1402.24,-431.22C1429.98,-431.22 1460.54,-431.22 1488.63,-431.22"/>
<polygon fill="#757575" stroke="#757575" points="1488.86,-434.72 1498.86,-431.22 1488.86,-427.72 1488.86,-434.72"/>
</g>
<!-- containers/SignUpModal.tsx&#45;&gt;components/Form.tsx -->
<g id="edge48" class="edge">
<title>containers/SignUpModal.tsx&#45;&gt;components/Form.tsx</title>
<path fill="none" stroke="#757575" d="M1384.37,-442.74C1412.37,-446.57 1444.58,-450.34 1474,-452.22 1574.24,-458.63 1600.01,-461.76 1700,-452.22 1716.36,-450.66 1733.92,-447.81 1750.07,-444.7"/>
<polygon fill="#757575" stroke="#757575" points="1750.79,-448.12 1759.91,-442.74 1749.42,-441.26 1750.79,-448.12"/>
</g>
<!-- components/pages/HomePage.tsx -->
<g id="node33" class="node">
<title>components/pages/HomePage.tsx</title>
<path fill="none" stroke="#c6c5fe" d="M496.33,-516.72C496.33,-516.72 287.67,-516.72 287.67,-516.72 283.83,-516.72 280,-512.89 280,-509.05 280,-509.05 280,-501.39 280,-501.39 280,-497.55 283.83,-493.72 287.67,-493.72 287.67,-493.72 496.33,-493.72 496.33,-493.72 500.17,-493.72 504,-497.55 504,-501.39 504,-501.39 504,-509.05 504,-509.05 504,-512.89 500.17,-516.72 496.33,-516.72"/>
<text text-anchor="middle" x="392" y="-501.52" font-family="Arial" font-size="14.00" fill="#c6c5fe">components/pages/HomePage.tsx</text>
</g>
<!-- components/pages/HomePage.tsx&#45;&gt;components/pages/Page.tsx -->
<g id="edge36" class="edge">
<title>components/pages/HomePage.tsx&#45;&gt;components/pages/Page.tsx</title>
<path fill="none" stroke="#757575" d="M504.25,-505.6C531.06,-505.69 559.59,-505.78 586.03,-505.87"/>
<polygon fill="#757575" stroke="#757575" points="586.04,-509.37 596.05,-505.9 586.07,-502.37 586.04,-509.37"/>
</g>
<!-- components/pages/MessagesPage.tsx -->
<g id="node34" class="node">
<title>components/pages/MessagesPage.tsx</title>
<path fill="none" stroke="#c6c5fe" d="M509.33,-475.72C509.33,-475.72 274.67,-475.72 274.67,-475.72 270.83,-475.72 267,-471.89 267,-468.05 267,-468.05 267,-460.39 267,-460.39 267,-456.55 270.83,-452.72 274.67,-452.72 274.67,-452.72 509.33,-452.72 509.33,-452.72 513.17,-452.72 517,-456.55 517,-460.39 517,-460.39 517,-468.05 517,-468.05 517,-471.89 513.17,-475.72 509.33,-475.72"/>
<text text-anchor="middle" x="392" y="-460.52" font-family="Arial" font-size="14.00" fill="#c6c5fe">components/pages/MessagesPage.tsx</text>
</g>
<!-- components/pages/MessagesPage.tsx&#45;&gt;components/pages/Page.tsx -->
<g id="edge37" class="edge">
<title>components/pages/MessagesPage.tsx&#45;&gt;components/pages/Page.tsx</title>
<path fill="none" stroke="#757575" d="M474.41,-475.75C512.82,-481.19 558.79,-487.7 598.36,-493.31"/>
<polygon fill="#757575" stroke="#757575" points="597.88,-496.78 608.27,-494.71 598.86,-489.85 597.88,-496.78"/>
</g>
<!-- components/pages/NotFoundPage.tsx -->
<g id="node35" class="node">
<title>components/pages/NotFoundPage.tsx</title>
<path fill="none" stroke="#cfffac" d="M507.83,-434.72C507.83,-434.72 276.17,-434.72 276.17,-434.72 272.33,-434.72 268.5,-430.89 268.5,-427.05 268.5,-427.05 268.5,-419.39 268.5,-419.39 268.5,-415.55 272.33,-411.72 276.17,-411.72 276.17,-411.72 507.83,-411.72 507.83,-411.72 511.67,-411.72 515.5,-415.55 515.5,-419.39 515.5,-419.39 515.5,-427.05 515.5,-427.05 515.5,-430.89 511.67,-434.72 507.83,-434.72"/>
<text text-anchor="middle" x="392" y="-419.52" font-family="Arial" font-size="14.00" fill="#cfffac">components/pages/NotFoundPage.tsx</text>
</g>
<!-- components/pages/SellPage.tsx -->
<g id="node36" class="node">
<title>components/pages/SellPage.tsx</title>
<path fill="none" stroke="#c6c5fe" d="M489.33,-557.72C489.33,-557.72 294.67,-557.72 294.67,-557.72 290.83,-557.72 287,-553.89 287,-550.05 287,-550.05 287,-542.39 287,-542.39 287,-538.55 290.83,-534.72 294.67,-534.72 294.67,-534.72 489.33,-534.72 489.33,-534.72 493.17,-534.72 497,-538.55 497,-542.39 497,-542.39 497,-550.05 497,-550.05 497,-553.89 493.17,-557.72 489.33,-557.72"/>
<text text-anchor="middle" x="392" y="-542.52" font-family="Arial" font-size="14.00" fill="#c6c5fe">components/pages/SellPage.tsx</text>
</g>
<!-- components/pages/SellPage.tsx&#45;&gt;main/MenuConfig.ts -->
<g id="edge40" class="edge">
<title>components/pages/SellPage.tsx&#45;&gt;main/MenuConfig.ts</title>
<path fill="none" stroke="#757575" d="M497.27,-542.95C586.01,-542.13 716.47,-545.61 828,-567.22 878.22,-576.95 933.57,-598.03 968.42,-612.67"/>
<polygon fill="#757575" stroke="#757575" points="967.11,-615.92 977.69,-616.61 969.86,-609.48 967.11,-615.92"/>
</g>
<!-- components/pages/SellPage.tsx&#45;&gt;components/menus/SubMenu.tsx -->
<g id="edge38" class="edge">
<title>components/pages/SellPage.tsx&#45;&gt;components/menus/SubMenu.tsx</title>
<path fill="none" stroke="#757575" d="M476.38,-557.75C513.65,-562.9 557.72,-569 596.09,-574.3"/>
<polygon fill="#757575" stroke="#757575" points="595.85,-577.8 606.23,-575.71 596.81,-570.87 595.85,-577.8"/>
</g>
<!-- components/pages/SellPage.tsx&#45;&gt;components/pages/Page.tsx -->
<g id="edge39" class="edge">
<title>components/pages/SellPage.tsx&#45;&gt;components/pages/Page.tsx</title>
<path fill="none" stroke="#757575" d="M478.36,-534.7C514.49,-529.83 556.72,-524.13 593.89,-519.12"/>
<polygon fill="#757575" stroke="#757575" points="594.78,-522.53 604.23,-517.72 593.85,-515.59 594.78,-522.53"/>
</g>
<!-- components/views/CatalogsView.tsx -->
<g id="node37" class="node">
<title>components/views/CatalogsView.tsx</title>
<path fill="none" stroke="#c6c5fe" d="M501.83,-354.72C501.83,-354.72 282.17,-354.72 282.17,-354.72 278.33,-354.72 274.5,-350.89 274.5,-347.05 274.5,-347.05 274.5,-339.39 274.5,-339.39 274.5,-335.55 278.33,-331.72 282.17,-331.72 282.17,-331.72 501.83,-331.72 501.83,-331.72 505.67,-331.72 509.5,-335.55 509.5,-339.39 509.5,-339.39 509.5,-347.05 509.5,-347.05 509.5,-350.89 505.67,-354.72 501.83,-354.72"/>
<text text-anchor="middle" x="392" y="-339.52" font-family="Arial" font-size="14.00" fill="#c6c5fe">components/views/CatalogsView.tsx</text>
</g>
<!-- components/views/CatalogsView.tsx&#45;&gt;components/modals/NewCatalogModal.tsx -->
<g id="edge41" class="edge">
<title>components/views/CatalogsView.tsx&#45;&gt;components/modals/NewCatalogModal.tsx</title>
<path fill="none" stroke="#757575" d="M509.76,-343.22C520.55,-343.22 531.58,-343.22 542.6,-343.22"/>
<polygon fill="#757575" stroke="#757575" points="542.71,-346.72 552.71,-343.22 542.71,-339.72 542.71,-346.72"/>
</g>
<!-- components/views/ProductView.tsx -->
<g id="node38" class="node">
<title>components/views/ProductView.tsx</title>
<path fill="none" stroke="#c6c5fe" d="M498.33,-313.72C498.33,-313.72 285.67,-313.72 285.67,-313.72 281.83,-313.72 278,-309.89 278,-306.05 278,-306.05 278,-298.39 278,-298.39 278,-294.55 281.83,-290.72 285.67,-290.72 285.67,-290.72 498.33,-290.72 498.33,-290.72 502.17,-290.72 506,-294.55 506,-298.39 506,-298.39 506,-306.05 506,-306.05 506,-309.89 502.17,-313.72 498.33,-313.72"/>
<text text-anchor="middle" x="392" y="-298.52" font-family="Arial" font-size="14.00" fill="#c6c5fe">components/views/ProductView.tsx</text>
</g>
<!-- components/views/ProductView.tsx&#45;&gt;components/AuthContainer.tsx -->
<g id="edge42" class="edge">
<title>components/views/ProductView.tsx&#45;&gt;components/AuthContainer.tsx</title>
<path fill="none" stroke="#757575" d="M506.36,-302.22C530.4,-302.22 555.72,-302.22 579.62,-302.22"/>
<polygon fill="#757575" stroke="#757575" points="579.77,-305.72 589.77,-302.22 579.77,-298.72 579.77,-305.72"/>
</g>
<!-- components/views/ProductView.tsx&#45;&gt;services/RestService.ts -->
<g id="edge45" class="edge">
<title>components/views/ProductView.tsx&#45;&gt;services/RestService.ts</title>
<path fill="none" stroke="#757575" d="M471.78,-290.67C497.6,-287.34 526.47,-284.1 553,-282.22 794.12,-265.13 1079.54,-265.9 1220.57,-267.68"/>
<polygon fill="#757575" stroke="#757575" points="1220.84,-271.19 1230.89,-267.82 1220.94,-264.19 1220.84,-271.19"/>
</g>
<!-- components/views/ProductView.tsx&#45;&gt;types/models.d.ts -->
<g id="edge46" class="edge">
<title>components/views/ProductView.tsx&#45;&gt;types/models.d.ts</title>
<path fill="none" stroke="#757575" d="M504.96,-290.59C509.22,-288.17 513.26,-285.4 517,-282.22 555.55,-249.45 515.01,-207.63 553,-174.22 658.77,-81.2 723.8,-126.84 864,-113.22 1117.92,-88.55 1184.8,-82.05 1438,-113.22 1472.92,-117.52 1511.45,-127.32 1540.44,-135.75"/>
<polygon fill="#757575" stroke="#757575" points="1539.69,-139.18 1550.28,-138.67 1541.68,-132.47 1539.69,-139.18"/>
</g>
<!-- components/views/ProductView.tsx&#45;&gt;components/ProductFormModal.tsx -->
<g id="edge43" class="edge">
<title>components/views/ProductView.tsx&#45;&gt;components/ProductFormModal.tsx</title>
<path fill="none" stroke="#757575" d="M495.7,-290.69C503.07,-288.34 510.25,-285.55 517,-282.22 536.74,-272.48 534.43,-260.04 553,-248.22 579.71,-231.22 612.65,-218 639.47,-208.9"/>
<polygon fill="#757575" stroke="#757575" points="640.66,-212.19 649.06,-205.73 638.46,-205.55 640.66,-212.19"/>
</g>
<!-- components/views/ProductView.tsx&#45;&gt;components/ProductList.tsx -->
<g id="edge44" class="edge">
<title>components/views/ProductView.tsx&#45;&gt;components/ProductList.tsx</title>
<path fill="none" stroke="#757575" d="M506.18,-290.96C510.05,-288.43 513.68,-285.53 517,-282.22 587.99,-211.24 483.02,-131.2 553,-59.22 562.88,-49.06 575.41,-42.19 588.86,-37.64"/>
<polygon fill="#757575" stroke="#757575" points="590.18,-40.9 598.79,-34.73 588.21,-34.19 590.18,-40.9"/>
</g>
<!-- components/views/ProfileView.tsx -->
<g id="node39" class="node">
<title>components/views/ProfileView.tsx</title>
<path fill="none" stroke="#cfffac" d="M494.33,-272.72C494.33,-272.72 289.67,-272.72 289.67,-272.72 285.83,-272.72 282,-268.89 282,-265.05 282,-265.05 282,-257.39 282,-257.39 282,-253.55 285.83,-249.72 289.67,-249.72 289.67,-249.72 494.33,-249.72 494.33,-249.72 498.17,-249.72 502,-253.55 502,-257.39 502,-257.39 502,-265.05 502,-265.05 502,-268.89 498.17,-272.72 494.33,-272.72"/>
<text text-anchor="middle" x="392" y="-257.52" font-family="Arial" font-size="14.00" fill="#cfffac">components/views/ProfileView.tsx</text>
</g>
<!-- index.css -->
<g id="node40" class="node">
<title>index.css</title>
<path fill="none" stroke="#cfffac" d="M420.83,-231.72C420.83,-231.72 363.17,-231.72 363.17,-231.72 359.33,-231.72 355.5,-227.89 355.5,-224.05 355.5,-224.05 355.5,-216.39 355.5,-216.39 355.5,-212.55 359.33,-208.72 363.17,-208.72 363.17,-208.72 420.83,-208.72 420.83,-208.72 424.67,-208.72 428.5,-212.55 428.5,-216.39 428.5,-216.39 428.5,-224.05 428.5,-224.05 428.5,-227.89 424.67,-231.72 420.83,-231.72"/>
<text text-anchor="middle" x="392" y="-216.52" font-family="Arial" font-size="14.00" fill="#cfffac">index.css</text>
</g>
<!-- index.tsx -->
<g id="node41" class="node">
<title>index.tsx</title>
<path fill="none" stroke="#c6c5fe" d="M142.83,-475.72C142.83,-475.72 88.17,-475.72 88.17,-475.72 84.33,-475.72 80.5,-471.89 80.5,-468.05 80.5,-468.05 80.5,-460.39 80.5,-460.39 80.5,-456.55 84.33,-452.72 88.17,-452.72 88.17,-452.72 142.83,-452.72 142.83,-452.72 146.67,-452.72 150.5,-456.55 150.5,-460.39 150.5,-460.39 150.5,-468.05 150.5,-468.05 150.5,-471.89 146.67,-475.72 142.83,-475.72"/>
<text text-anchor="middle" x="115.5" y="-460.52" font-family="Arial" font-size="14.00" fill="#c6c5fe">index.tsx</text>
</g>
<!-- index.tsx&#45;&gt;components/containers/App.tsx -->
<g id="edge49" class="edge">
<title>index.tsx&#45;&gt;components/containers/App.tsx</title>
<path fill="none" stroke="#757575" d="M120.81,-475.76C135.17,-512.55 185.23,-627.87 267,-682.22 273.44,-686.5 280.45,-690.1 287.75,-693.11"/>
<polygon fill="#757575" stroke="#757575" points="286.54,-696.4 297.14,-696.63 289,-689.84 286.54,-696.4"/>
</g>
<!-- index.tsx&#45;&gt;main/RoutePath.ts -->
<g id="edge60" class="edge">
<title>index.tsx&#45;&gt;main/RoutePath.ts</title>
<path fill="none" stroke="#757575" d="M121.53,-475.81C137.15,-510.1 188.45,-610.98 267,-649.22 353.28,-691.22 1012.46,-676.64 1235.22,-670.42"/>
<polygon fill="#757575" stroke="#757575" points="1235.6,-673.92 1245.49,-670.14 1235.4,-666.92 1235.6,-673.92"/>
</g>
<!-- index.tsx&#45;&gt;components/pages/AccountPage.tsx -->
<g id="edge50" class="edge">
<title>index.tsx&#45;&gt;components/pages/AccountPage.tsx</title>
<path fill="none" stroke="#757575" d="M129.05,-475.74C153.53,-497.52 210.25,-544.55 267,-567.22 272.38,-569.37 277.99,-571.29 283.7,-573"/>
<polygon fill="#757575" stroke="#757575" points="282.85,-576.4 293.42,-575.7 284.72,-569.65 282.85,-576.4"/>
</g>
<!-- index.tsx&#45;&gt;components/pages/AuthPage.tsx -->
<g id="edge51" class="edge">
<title>index.tsx&#45;&gt;components/pages/AuthPage.tsx</title>
<path fill="none" stroke="#757575" d="M137.62,-452.6C166.03,-437.7 218.57,-412.66 267,-403.22 376.06,-381.96 406.13,-395.85 517,-403.22 663.23,-412.95 832.55,-438.94 927.94,-454.95"/>
<polygon fill="#757575" stroke="#757575" points="927.63,-458.45 938.07,-456.66 928.79,-451.55 927.63,-458.45"/>
</g>
<!-- index.tsx&#45;&gt;components/pages/HomePage.tsx -->
<g id="edge52" class="edge">
<title>index.tsx&#45;&gt;components/pages/HomePage.tsx</title>
<path fill="none" stroke="#757575" d="M150.71,-469.33C188.85,-475.03 252.02,-484.46 304.01,-492.23"/>
<polygon fill="#757575" stroke="#757575" points="303.51,-495.69 313.92,-493.71 304.54,-488.77 303.51,-495.69"/>
</g>
<!-- index.tsx&#45;&gt;components/pages/MessagesPage.tsx -->
<g id="edge53" class="edge">
<title>index.tsx&#45;&gt;components/pages/MessagesPage.tsx</title>
<path fill="none" stroke="#757575" d="M150.71,-464.22C177.75,-464.22 217.36,-464.22 256.65,-464.22"/>
<polygon fill="#757575" stroke="#757575" points="256.89,-467.72 266.89,-464.22 256.89,-460.72 256.89,-467.72"/>
</g>
<!-- index.tsx&#45;&gt;components/pages/NotFoundPage.tsx -->
<g id="edge54" class="edge">
<title>index.tsx&#45;&gt;components/pages/NotFoundPage.tsx</title>
<path fill="none" stroke="#757575" d="M150.71,-459.11C188.85,-453.41 252.02,-443.98 304.01,-436.21"/>
<polygon fill="#757575" stroke="#757575" points="304.54,-439.67 313.92,-434.73 303.51,-432.75 304.54,-439.67"/>
</g>
<!-- index.tsx&#45;&gt;components/pages/SellPage.tsx -->
<g id="edge55" class="edge">
<title>index.tsx&#45;&gt;components/pages/SellPage.tsx</title>
<path fill="none" stroke="#757575" d="M139.88,-475.84C168.97,-489.83 220.5,-513.08 267,-526.22 275.55,-528.64 284.53,-530.79 293.57,-532.7"/>
<polygon fill="#757575" stroke="#757575" points="292.89,-536.14 303.39,-534.69 294.28,-529.28 292.89,-536.14"/>
</g>
<!-- index.tsx&#45;&gt;components/views/CatalogsView.tsx -->
<g id="edge56" class="edge">
<title>index.tsx&#45;&gt;components/views/CatalogsView.tsx</title>
<path fill="none" stroke="#757575" d="M130.91,-452.61C156.64,-432.48 212.87,-391.15 267,-369.22 278.94,-364.38 291.91,-360.4 304.81,-357.13"/>
<polygon fill="#757575" stroke="#757575" points="305.74,-360.51 314.64,-354.77 304.1,-353.7 305.74,-360.51"/>
</g>
<!-- index.tsx&#45;&gt;components/views/ProductView.tsx -->
<g id="edge57" class="edge">
<title>index.tsx&#45;&gt;components/views/ProductView.tsx</title>
<path fill="none" stroke="#757575" d="M125.11,-452.33C145.96,-424.56 202.2,-355.35 267,-323.22 271.65,-320.91 276.5,-318.86 281.49,-317.02"/>
<polygon fill="#757575" stroke="#757575" points="282.84,-320.26 291.2,-313.75 280.61,-313.62 282.84,-320.26"/>
</g>
<!-- index.tsx&#45;&gt;components/views/ProfileView.tsx -->
<g id="edge58" class="edge">
<title>index.tsx&#45;&gt;components/views/ProfileView.tsx</title>
<path fill="none" stroke="#757575" d="M122.35,-452.4C139.44,-419.26 192.8,-325.08 267,-282.22 270.52,-280.19 274.17,-278.34 277.94,-276.66"/>
<polygon fill="#757575" stroke="#757575" points="279.51,-279.81 287.48,-272.83 276.9,-273.31 279.51,-279.81"/>
</g>
<!-- index.tsx&#45;&gt;index.css -->
<g id="edge59" class="edge">
<title>index.tsx&#45;&gt;index.css</title>
<path fill="none" stroke="#757575" d="M120.54,-452.55C134.26,-414.82 182.98,-295.36 267,-241.22 290.05,-226.37 320.31,-221.03 345.18,-219.45"/>
<polygon fill="#757575" stroke="#757575" points="345.63,-222.94 355.47,-218.99 345.32,-215.94 345.63,-222.94"/>
</g>
<!-- reportWebVitals.ts -->
<g id="node42" class="node">
<title>reportWebVitals.ts</title>
<path fill="none" stroke="#cfffac" d="M447.83,-639.72C447.83,-639.72 336.17,-639.72 336.17,-639.72 332.33,-639.72 328.5,-635.89 328.5,-632.05 328.5,-632.05 328.5,-624.39 328.5,-624.39 328.5,-620.55 332.33,-616.72 336.17,-616.72 336.17,-616.72 447.83,-616.72 447.83,-616.72 451.67,-616.72 455.5,-620.55 455.5,-624.39 455.5,-624.39 455.5,-632.05 455.5,-632.05 455.5,-635.89 451.67,-639.72 447.83,-639.72"/>
<text text-anchor="middle" x="392" y="-624.52" font-family="Arial" font-size="14.00" fill="#cfffac">reportWebVitals.ts</text>
</g>
<!-- index.tsx&#45;&gt;reportWebVitals.ts -->
<g id="edge61" class="edge">
<title>index.tsx&#45;&gt;reportWebVitals.ts</title>
<path fill="none" stroke="#757575" d="M124.73,-475.98C145.15,-504.13 201.27,-575.52 267,-608.22 282.67,-616.01 300.7,-620.89 318.07,-623.9"/>
<polygon fill="#757575" stroke="#757575" points="317.78,-627.4 328.2,-625.47 318.85,-620.48 317.78,-627.4"/>
</g>
<!-- react&#45;app&#45;env.d.ts -->
<g id="node43" class="node">
<title>react&#45;app&#45;env.d.ts</title>
<path fill="none" stroke="#cfffac" d="M170.33,-801.72C170.33,-801.72 60.67,-801.72 60.67,-801.72 56.83,-801.72 53,-797.89 53,-794.05 53,-794.05 53,-786.39 53,-786.39 53,-782.55 56.83,-778.72 60.67,-778.72 60.67,-778.72 170.33,-778.72 170.33,-778.72 174.17,-778.72 178,-782.55 178,-786.39 178,-786.39 178,-794.05 178,-794.05 178,-797.89 174.17,-801.72 170.33,-801.72"/>
<text text-anchor="middle" x="115.5" y="-786.52" font-family="Arial" font-size="14.00" fill="#cfffac">react&#45;app&#45;env.d.ts</text>
</g>
<!-- services/LocalData.ts -->
<g id="node44" class="node">
<title>services/LocalData.ts</title>
<path fill="none" stroke="#cfffac" d="M180.33,-842.72C180.33,-842.72 50.67,-842.72 50.67,-842.72 46.83,-842.72 43,-838.89 43,-835.05 43,-835.05 43,-827.39 43,-827.39 43,-823.55 46.83,-819.72 50.67,-819.72 50.67,-819.72 180.33,-819.72 180.33,-819.72 184.17,-819.72 188,-823.55 188,-827.39 188,-827.39 188,-835.05 188,-835.05 188,-838.89 184.17,-842.72 180.33,-842.72"/>
<text text-anchor="middle" x="115.5" y="-827.52" font-family="Arial" font-size="14.00" fill="#cfffac">services/LocalData.ts</text>
</g>
<!-- setupTests.ts -->
<g id="node46" class="node">
<title>setupTests.ts</title>
<path fill="none" stroke="#cfffac" d="M155.33,-883.72C155.33,-883.72 75.67,-883.72 75.67,-883.72 71.83,-883.72 68,-879.89 68,-876.05 68,-876.05 68,-868.39 68,-868.39 68,-864.55 71.83,-860.72 75.67,-860.72 75.67,-860.72 155.33,-860.72 155.33,-860.72 159.17,-860.72 163,-864.55 163,-868.39 163,-868.39 163,-876.05 163,-876.05 163,-879.89 159.17,-883.72 155.33,-883.72"/>
<text text-anchor="middle" x="115.5" y="-868.52" font-family="Arial" font-size="14.00" fill="#cfffac">setupTests.ts</text>
</g>
</g>
</svg>
