<?xml version="1.0" encoding="UTF-8" standalone="no"?>
<!DOCTYPE svg PUBLIC "-//W3C//DTD SVG 1.1//EN"
 "http://www.w3.org/Graphics/SVG/1.1/DTD/svg11.dtd">
<!-- Generated by graphviz version 2.43.0 (0)
 -->
<!-- Title: G Pages: 1 -->
<svg width="2191pt" height="1523pt"
 viewBox="0.00 0.00 2191.20 1522.78" xmlns="http://www.w3.org/2000/svg" xmlns:xlink="http://www.w3.org/1999/xlink">
<g id="graph0" class="graph" transform="scale(1 1) rotate(0) translate(21.6 1501.18)">
<title>G</title>
<polygon fill="#111111" stroke="transparent" points="-21.6,21.6 -21.6,-1501.18 2169.6,-1501.18 2169.6,21.6 -21.6,21.6"/>
<!-- components/AuthContainer.tsx -->
<g id="node1" class="node">
<title>components/AuthContainer.tsx</title>
<path fill="none" stroke="#c6c5fe" d="M484.83,-948.58C484.83,-948.58 299.17,-948.58 299.17,-948.58 295.33,-948.58 291.5,-944.74 291.5,-940.91 291.5,-940.91 291.5,-933.24 291.5,-933.24 291.5,-929.41 295.33,-925.58 299.17,-925.58 299.17,-925.58 484.83,-925.58 484.83,-925.58 488.67,-925.58 492.5,-929.41 492.5,-933.24 492.5,-933.24 492.5,-940.91 492.5,-940.91 492.5,-944.74 488.67,-948.58 484.83,-948.58"/>
<text text-anchor="middle" x="392" y="-933.38" font-family="Arial" font-size="14.00" fill="#c6c5fe">components/AuthContainer.tsx</text>
</g>
<!-- services/Firebase.ts -->
<g id="node2" class="node">
<title>services/Firebase.ts</title>
<path fill="none" stroke="#c6c5fe" d="M727.83,-987.58C727.83,-987.58 606.17,-987.58 606.17,-987.58 602.33,-987.58 598.5,-983.74 598.5,-979.91 598.5,-979.91 598.5,-972.24 598.5,-972.24 598.5,-968.41 602.33,-964.58 606.17,-964.58 606.17,-964.58 727.83,-964.58 727.83,-964.58 731.67,-964.58 735.5,-968.41 735.5,-972.24 735.5,-972.24 735.5,-979.91 735.5,-979.91 735.5,-983.74 731.67,-987.58 727.83,-987.58"/>
<text text-anchor="middle" x="667" y="-972.38" font-family="Arial" font-size="14.00" fill="#c6c5fe">services/Firebase.ts</text>
</g>
<!-- components/AuthContainer.tsx&#45;&gt;services/Firebase.ts -->
<g id="edge1" class="edge">
<title>components/AuthContainer.tsx&#45;&gt;services/Firebase.ts</title>
<path fill="none" stroke="#757575" d="M473.8,-948.62C510.02,-953.79 552.55,-959.87 588.38,-964.99"/>
<polygon fill="#757575" stroke="#757575" points="587.91,-968.46 598.3,-966.41 588.9,-961.53 587.91,-968.46"/>
</g>
<!-- types/models.d.ts -->
<g id="node52" class="node">
<title>types/models.d.ts</title>
<path fill="none" stroke="#cfffac" d="M1926.83,-1029.58C1926.83,-1029.58 1820.17,-1029.58 1820.17,-1029.58 1816.33,-1029.58 1812.5,-1025.74 1812.5,-1021.91 1812.5,-1021.91 1812.5,-1014.24 1812.5,-1014.24 1812.5,-1010.41 1816.33,-1006.58 1820.17,-1006.58 1820.17,-1006.58 1926.83,-1006.58 1926.83,-1006.58 1930.67,-1006.58 1934.5,-1010.41 1934.5,-1014.24 1934.5,-1014.24 1934.5,-1021.91 1934.5,-1021.91 1934.5,-1025.74 1930.67,-1029.58 1926.83,-1029.58"/>
<text text-anchor="middle" x="1873.5" y="-1014.38" font-family="Arial" font-size="14.00" fill="#cfffac">types/models.d.ts</text>
</g>
<!-- services/Firebase.ts&#45;&gt;types/models.d.ts -->
<g id="edge94" class="edge">
<title>services/Firebase.ts&#45;&gt;types/models.d.ts</title>
<path fill="none" stroke="#757575" d="M735.77,-978.44C946.34,-985.78 1587.87,-1008.15 1802.05,-1015.62"/>
<polygon fill="#757575" stroke="#757575" points="1802.1,-1019.12 1812.22,-1015.97 1802.35,-1012.13 1802.1,-1019.12"/>
</g>
<!-- components/AuthFrom.tsx -->
<g id="node3" class="node">
<title>components/AuthFrom.tsx</title>
<path fill="none" stroke="#ff6c60" d="M1037.83,-836.58C1037.83,-836.58 877.17,-836.58 877.17,-836.58 873.33,-836.58 869.5,-832.74 869.5,-828.91 869.5,-828.91 869.5,-821.24 869.5,-821.24 869.5,-817.41 873.33,-813.58 877.17,-813.58 877.17,-813.58 1037.83,-813.58 1037.83,-813.58 1041.67,-813.58 1045.5,-817.41 1045.5,-821.24 1045.5,-821.24 1045.5,-828.91 1045.5,-828.91 1045.5,-832.74 1041.67,-836.58 1037.83,-836.58"/>
<text text-anchor="middle" x="957.5" y="-821.38" font-family="Arial" font-size="14.00" fill="#ff6c60">components/AuthFrom.tsx</text>
</g>
<!-- components/Form.tsx -->
<g id="node4" class="node">
<title>components/Form.tsx</title>
<path fill="none" stroke="#cfffac" d="M1333.83,-955.58C1333.83,-955.58 1201.17,-955.58 1201.17,-955.58 1197.33,-955.58 1193.5,-951.74 1193.5,-947.91 1193.5,-947.91 1193.5,-940.24 1193.5,-940.24 1193.5,-936.41 1197.33,-932.58 1201.17,-932.58 1201.17,-932.58 1333.83,-932.58 1333.83,-932.58 1337.67,-932.58 1341.5,-936.41 1341.5,-940.24 1341.5,-940.24 1341.5,-947.91 1341.5,-947.91 1341.5,-951.74 1337.67,-955.58 1333.83,-955.58"/>
<text text-anchor="middle" x="1267.5" y="-940.38" font-family="Arial" font-size="14.00" fill="#cfffac">components/Form.tsx</text>
</g>
<!-- components/AuthFrom.tsx&#45;&gt;components/Form.tsx -->
<g id="edge2" class="edge">
<title>components/AuthFrom.tsx&#45;&gt;components/Form.tsx</title>
<path fill="none" stroke="#757575" d="M1045.57,-824.23C1064.25,-827.53 1082.89,-833.82 1098,-845.08 1128.62,-867.89 1103.55,-900.04 1134,-923.08 1148.13,-933.77 1165.56,-939.96 1183.08,-943.38"/>
<polygon fill="#757575" stroke="#757575" points="1182.95,-946.91 1193.39,-945.09 1184.09,-940 1182.95,-946.91"/>
</g>
<!-- components/FormInputGroup.tsx -->
<g id="node5" class="node">
<title>components/FormInputGroup.tsx</title>
<path fill="none" stroke="#ff6c60" d="M1367.83,-914.58C1367.83,-914.58 1167.17,-914.58 1167.17,-914.58 1163.33,-914.58 1159.5,-910.74 1159.5,-906.91 1159.5,-906.91 1159.5,-899.24 1159.5,-899.24 1159.5,-895.41 1163.33,-891.58 1167.17,-891.58 1167.17,-891.58 1367.83,-891.58 1367.83,-891.58 1371.67,-891.58 1375.5,-895.41 1375.5,-899.24 1375.5,-899.24 1375.5,-906.91 1375.5,-906.91 1375.5,-910.74 1371.67,-914.58 1367.83,-914.58"/>
<text text-anchor="middle" x="1267.5" y="-899.38" font-family="Arial" font-size="14.00" fill="#ff6c60">components/FormInputGroup.tsx</text>
</g>
<!-- components/AuthFrom.tsx&#45;&gt;components/FormInputGroup.tsx -->
<g id="edge3" class="edge">
<title>components/AuthFrom.tsx&#45;&gt;components/FormInputGroup.tsx</title>
<path fill="none" stroke="#757575" d="M1045.6,-820.81C1063.49,-823.7 1081.8,-828.56 1098,-836.08 1117.42,-845.09 1114.82,-858.57 1134,-868.08 1156.33,-879.15 1182.96,-885.5 1206.48,-889.8"/>
<polygon fill="#757575" stroke="#757575" points="1205.89,-893.25 1216.34,-891.53 1207.09,-886.36 1205.89,-893.25"/>
</g>
<!-- components/FormInputGroup.tsx&#45;&gt;components/AuthFrom.tsx -->
<g id="edge4" class="edge">
<title>components/FormInputGroup.tsx&#45;&gt;components/AuthFrom.tsx</title>
<path fill="none" stroke="#757575" d="M1159.25,-896.2C1150.51,-893.39 1141.98,-890.03 1134,-886.08 1114.82,-876.57 1117.42,-863.09 1098,-854.08 1081.62,-846.47 1063.08,-841.59 1044.99,-838.28"/>
<polygon fill="#757575" stroke="#757575" points="1045.45,-834.81 1035.01,-836.59 1044.29,-841.71 1045.45,-834.81"/>
</g>
<!-- components/FormInputGroup.scss -->
<g id="node6" class="node">
<title>components/FormInputGroup.scss</title>
<path fill="none" stroke="#cfffac" d="M1678.33,-991.58C1678.33,-991.58 1467.67,-991.58 1467.67,-991.58 1463.83,-991.58 1460,-987.74 1460,-983.91 1460,-983.91 1460,-976.24 1460,-976.24 1460,-972.41 1463.83,-968.58 1467.67,-968.58 1467.67,-968.58 1678.33,-968.58 1678.33,-968.58 1682.17,-968.58 1686,-972.41 1686,-976.24 1686,-976.24 1686,-983.91 1686,-983.91 1686,-987.74 1682.17,-991.58 1678.33,-991.58"/>
<text text-anchor="middle" x="1573" y="-976.38" font-family="Arial" font-size="14.00" fill="#cfffac">components/FormInputGroup.scss</text>
</g>
<!-- components/FormInputGroup.tsx&#45;&gt;components/FormInputGroup.scss -->
<g id="edge5" class="edge">
<title>components/FormInputGroup.tsx&#45;&gt;components/FormInputGroup.scss</title>
<path fill="none" stroke="#757575" d="M1375.63,-913.86C1384.4,-916.35 1392.97,-919.39 1401,-923.08 1420.19,-931.89 1417.99,-944.88 1437,-954.08 1446.79,-958.81 1457.37,-962.69 1468.15,-965.85"/>
<polygon fill="#757575" stroke="#757575" points="1467.52,-969.31 1478.08,-968.57 1469.36,-962.56 1467.52,-969.31"/>
</g>
<!-- components/Friends.tsx -->
<g id="node7" class="node">
<title>components/Friends.tsx</title>
<path fill="none" stroke="#cfffac" d="M188.33,-1315.58C188.33,-1315.58 42.67,-1315.58 42.67,-1315.58 38.83,-1315.58 35,-1311.74 35,-1307.91 35,-1307.91 35,-1300.24 35,-1300.24 35,-1296.41 38.83,-1292.58 42.67,-1292.58 42.67,-1292.58 188.33,-1292.58 188.33,-1292.58 192.17,-1292.58 196,-1296.41 196,-1300.24 196,-1300.24 196,-1307.91 196,-1307.91 196,-1311.74 192.17,-1315.58 188.33,-1315.58"/>
<text text-anchor="middle" x="115.5" y="-1300.38" font-family="Arial" font-size="14.00" fill="#cfffac">components/Friends.tsx</text>
</g>
<!-- components/ModalForm.scss -->
<g id="node8" class="node">
<title>components/ModalForm.scss</title>
<path fill="none" stroke="#cfffac" d="M481.83,-1356.58C481.83,-1356.58 302.17,-1356.58 302.17,-1356.58 298.33,-1356.58 294.5,-1352.74 294.5,-1348.91 294.5,-1348.91 294.5,-1341.24 294.5,-1341.24 294.5,-1337.41 298.33,-1333.58 302.17,-1333.58 302.17,-1333.58 481.83,-1333.58 481.83,-1333.58 485.67,-1333.58 489.5,-1337.41 489.5,-1341.24 489.5,-1341.24 489.5,-1348.91 489.5,-1348.91 489.5,-1352.74 485.67,-1356.58 481.83,-1356.58"/>
<text text-anchor="middle" x="392" y="-1341.38" font-family="Arial" font-size="14.00" fill="#cfffac">components/ModalForm.scss</text>
</g>
<!-- components/ModalForm.tsx -->
<g id="node9" class="node">
<title>components/ModalForm.tsx</title>
<path fill="none" stroke="#c6c5fe" d="M200.33,-1356.58C200.33,-1356.58 30.67,-1356.58 30.67,-1356.58 26.83,-1356.58 23,-1352.74 23,-1348.91 23,-1348.91 23,-1341.24 23,-1341.24 23,-1337.41 26.83,-1333.58 30.67,-1333.58 30.67,-1333.58 200.33,-1333.58 200.33,-1333.58 204.17,-1333.58 208,-1337.41 208,-1341.24 208,-1341.24 208,-1348.91 208,-1348.91 208,-1352.74 204.17,-1356.58 200.33,-1356.58"/>
<text text-anchor="middle" x="115.5" y="-1341.38" font-family="Arial" font-size="14.00" fill="#c6c5fe">components/ModalForm.tsx</text>
</g>
<!-- components/ModalForm.tsx&#45;&gt;components/ModalForm.scss -->
<g id="edge6" class="edge">
<title>components/ModalForm.tsx&#45;&gt;components/ModalForm.scss</title>
<path fill="none" stroke="#757575" d="M208.29,-1345.08C232.53,-1345.08 258.91,-1345.08 283.89,-1345.08"/>
<polygon fill="#757575" stroke="#757575" points="284.13,-1348.58 294.13,-1345.08 284.13,-1341.58 284.13,-1348.58"/>
</g>
<!-- components/containers/App.test.tsx -->
<g id="node10" class="node">
<title>components/containers/App.test.tsx</title>
<path fill="none" stroke="#c6c5fe" d="M223.33,-1274.58C223.33,-1274.58 7.67,-1274.58 7.67,-1274.58 3.83,-1274.58 0,-1270.74 0,-1266.91 0,-1266.91 0,-1259.24 0,-1259.24 0,-1255.41 3.83,-1251.58 7.67,-1251.58 7.67,-1251.58 223.33,-1251.58 223.33,-1251.58 227.17,-1251.58 231,-1255.41 231,-1259.24 231,-1259.24 231,-1266.91 231,-1266.91 231,-1270.74 227.17,-1274.58 223.33,-1274.58"/>
<text text-anchor="middle" x="115.5" y="-1259.38" font-family="Arial" font-size="14.00" fill="#c6c5fe">components/containers/App.test.tsx</text>
</g>
<!-- components/containers/App.tsx -->
<g id="node11" class="node">
<title>components/containers/App.tsx</title>
<path fill="none" stroke="#c6c5fe" d="M487.33,-1274.58C487.33,-1274.58 296.67,-1274.58 296.67,-1274.58 292.83,-1274.58 289,-1270.74 289,-1266.91 289,-1266.91 289,-1259.24 289,-1259.24 289,-1255.41 292.83,-1251.58 296.67,-1251.58 296.67,-1251.58 487.33,-1251.58 487.33,-1251.58 491.17,-1251.58 495,-1255.41 495,-1259.24 495,-1259.24 495,-1266.91 495,-1266.91 495,-1270.74 491.17,-1274.58 487.33,-1274.58"/>
<text text-anchor="middle" x="392" y="-1259.38" font-family="Arial" font-size="14.00" fill="#c6c5fe">components/containers/App.tsx</text>
</g>
<!-- components/containers/App.test.tsx&#45;&gt;components/containers/App.tsx -->
<g id="edge7" class="edge">
<title>components/containers/App.test.tsx&#45;&gt;components/containers/App.tsx</title>
<path fill="none" stroke="#757575" d="M231.32,-1263.08C246.99,-1263.08 263.06,-1263.08 278.68,-1263.08"/>
<polygon fill="#757575" stroke="#757575" points="278.87,-1266.58 288.87,-1263.08 278.87,-1259.58 278.87,-1266.58"/>
</g>
<!-- components/menus/RootMenu.tsx -->
<g id="node12" class="node">
<title>components/menus/RootMenu.tsx</title>
<path fill="none" stroke="#c6c5fe" d="M771.33,-1274.58C771.33,-1274.58 562.67,-1274.58 562.67,-1274.58 558.83,-1274.58 555,-1270.74 555,-1266.91 555,-1266.91 555,-1259.24 555,-1259.24 555,-1255.41 558.83,-1251.58 562.67,-1251.58 562.67,-1251.58 771.33,-1251.58 771.33,-1251.58 775.17,-1251.58 779,-1255.41 779,-1259.24 779,-1259.24 779,-1266.91 779,-1266.91 779,-1270.74 775.17,-1274.58 771.33,-1274.58"/>
<text text-anchor="middle" x="667" y="-1259.38" font-family="Arial" font-size="14.00" fill="#c6c5fe">components/menus/RootMenu.tsx</text>
</g>
<!-- components/containers/App.tsx&#45;&gt;components/menus/RootMenu.tsx -->
<g id="edge8" class="edge">
<title>components/containers/App.tsx&#45;&gt;components/menus/RootMenu.tsx</title>
<path fill="none" stroke="#757575" d="M495.04,-1263.08C511.22,-1263.08 528.09,-1263.08 544.66,-1263.08"/>
<polygon fill="#757575" stroke="#757575" points="544.93,-1266.58 554.93,-1263.08 544.93,-1259.58 544.93,-1266.58"/>
</g>
<!-- main/RoutePath.ts -->
<g id="node13" class="node">
<title>main/RoutePath.ts</title>
<path fill="none" stroke="#c6c5fe" d="M1323.83,-1185.58C1323.83,-1185.58 1211.17,-1185.58 1211.17,-1185.58 1207.33,-1185.58 1203.5,-1181.74 1203.5,-1177.91 1203.5,-1177.91 1203.5,-1170.24 1203.5,-1170.24 1203.5,-1166.41 1207.33,-1162.58 1211.17,-1162.58 1211.17,-1162.58 1323.83,-1162.58 1323.83,-1162.58 1327.67,-1162.58 1331.5,-1166.41 1331.5,-1170.24 1331.5,-1170.24 1331.5,-1177.91 1331.5,-1177.91 1331.5,-1181.74 1327.67,-1185.58 1323.83,-1185.58"/>
<text text-anchor="middle" x="1267.5" y="-1170.38" font-family="Arial" font-size="14.00" fill="#c6c5fe">main/RoutePath.ts</text>
</g>
<!-- components/containers/App.tsx&#45;&gt;main/RoutePath.ts -->
<g id="edge9" class="edge">
<title>components/containers/App.tsx&#45;&gt;main/RoutePath.ts</title>
<path fill="none" stroke="#757575" d="M474.71,-1251.52C499.8,-1248.2 527.51,-1244.75 553,-1242.08 794.65,-1216.7 856.58,-1226.48 1098,-1199.08 1129.28,-1195.53 1163.68,-1190.61 1193.2,-1186.07"/>
<polygon fill="#757575" stroke="#757575" points="1194.08,-1189.47 1203.42,-1184.48 1193,-1182.56 1194.08,-1189.47"/>
</g>
<!-- types/types.d.ts -->
<g id="node17" class="node">
<title>types/types.d.ts</title>
<path fill="none" stroke="#cfffac" d="M2140.33,-814.58C2140.33,-814.58 2045.67,-814.58 2045.67,-814.58 2041.83,-814.58 2038,-810.74 2038,-806.91 2038,-806.91 2038,-799.24 2038,-799.24 2038,-795.41 2041.83,-791.58 2045.67,-791.58 2045.67,-791.58 2140.33,-791.58 2140.33,-791.58 2144.17,-791.58 2148,-795.41 2148,-799.24 2148,-799.24 2148,-806.91 2148,-806.91 2148,-810.74 2144.17,-814.58 2140.33,-814.58"/>
<text text-anchor="middle" x="2093" y="-799.38" font-family="Arial" font-size="14.00" fill="#cfffac">types/types.d.ts</text>
</g>
<!-- components/menus/RootMenu.tsx&#45;&gt;types/types.d.ts -->
<g id="edge34" class="edge">
<title>components/menus/RootMenu.tsx&#45;&gt;types/types.d.ts</title>
<path fill="none" stroke="#757575" d="M779.01,-1273.76C899.08,-1284.37 1096.18,-1299.08 1266.5,-1299.08 1266.5,-1299.08 1266.5,-1299.08 1574,-1299.08 1765.14,-1299.08 1860.4,-1385.46 2002,-1257.08 2067.24,-1197.93 2086.74,-907.24 2091,-824.87"/>
<polygon fill="#757575" stroke="#757575" points="2094.51,-824.83 2091.5,-814.67 2087.51,-824.49 2094.51,-824.83"/>
</g>
<!-- components/menus/DropdownMenu.tsx -->
<g id="node27" class="node">
<title>components/menus/DropdownMenu.tsx</title>
<path fill="none" stroke="#c6c5fe" d="M1994.33,-1248.58C1994.33,-1248.58 1752.67,-1248.58 1752.67,-1248.58 1748.83,-1248.58 1745,-1244.74 1745,-1240.91 1745,-1240.91 1745,-1233.24 1745,-1233.24 1745,-1229.41 1748.83,-1225.58 1752.67,-1225.58 1752.67,-1225.58 1994.33,-1225.58 1994.33,-1225.58 1998.17,-1225.58 2002,-1229.41 2002,-1233.24 2002,-1233.24 2002,-1240.91 2002,-1240.91 2002,-1244.74 1998.17,-1248.58 1994.33,-1248.58"/>
<text text-anchor="middle" x="1873.5" y="-1233.38" font-family="Arial" font-size="14.00" fill="#c6c5fe">components/menus/DropdownMenu.tsx</text>
</g>
<!-- components/menus/RootMenu.tsx&#45;&gt;components/menus/DropdownMenu.tsx -->
<g id="edge32" class="edge">
<title>components/menus/RootMenu.tsx&#45;&gt;components/menus/DropdownMenu.tsx</title>
<path fill="none" stroke="#757575" d="M779.16,-1260.68C1000.06,-1255.91 1493.71,-1245.25 1734.76,-1240.05"/>
<polygon fill="#757575" stroke="#757575" points="1735.06,-1243.54 1744.99,-1239.83 1734.91,-1236.55 1735.06,-1243.54"/>
</g>
<!-- main/MenuConfig.ts -->
<g id="node28" class="node">
<title>main/MenuConfig.ts</title>
<path fill="none" stroke="#c6c5fe" d="M1018.83,-1147.58C1018.83,-1147.58 896.17,-1147.58 896.17,-1147.58 892.33,-1147.58 888.5,-1143.74 888.5,-1139.91 888.5,-1139.91 888.5,-1132.24 888.5,-1132.24 888.5,-1128.41 892.33,-1124.58 896.17,-1124.58 896.17,-1124.58 1018.83,-1124.58 1018.83,-1124.58 1022.67,-1124.58 1026.5,-1128.41 1026.5,-1132.24 1026.5,-1132.24 1026.5,-1139.91 1026.5,-1139.91 1026.5,-1143.74 1022.67,-1147.58 1018.83,-1147.58"/>
<text text-anchor="middle" x="957.5" y="-1132.38" font-family="Arial" font-size="14.00" fill="#c6c5fe">main/MenuConfig.ts</text>
</g>
<!-- components/menus/RootMenu.tsx&#45;&gt;main/MenuConfig.ts -->
<g id="edge33" class="edge">
<title>components/menus/RootMenu.tsx&#45;&gt;main/MenuConfig.ts</title>
<path fill="none" stroke="#757575" d="M694.37,-1251.47C746.41,-1228.56 862.39,-1177.51 921.05,-1151.68"/>
<polygon fill="#757575" stroke="#757575" points="922.56,-1154.84 930.3,-1147.61 919.74,-1148.44 922.56,-1154.84"/>
</g>
<!-- main/RoutePath.ts&#45;&gt;types/types.d.ts -->
<g id="edge91" class="edge">
<title>main/RoutePath.ts&#45;&gt;types/types.d.ts</title>
<path fill="none" stroke="#757575" d="M1331.52,-1181.06C1490.03,-1197.21 1899.95,-1229.85 2002,-1148.08 2053.59,-1106.74 2081.75,-894.18 2089.66,-824.92"/>
<polygon fill="#757575" stroke="#757575" points="2093.16,-825.07 2090.79,-814.74 2086.21,-824.29 2093.16,-825.07"/>
</g>
<!-- components/forms/CatalogForm.tsx -->
<g id="node14" class="node">
<title>components/forms/CatalogForm.tsx</title>
<path fill="none" stroke="#c6c5fe" d="M1376.33,-152.58C1376.33,-152.58 1158.67,-152.58 1158.67,-152.58 1154.83,-152.58 1151,-148.74 1151,-144.91 1151,-144.91 1151,-137.24 1151,-137.24 1151,-133.41 1154.83,-129.58 1158.67,-129.58 1158.67,-129.58 1376.33,-129.58 1376.33,-129.58 1380.17,-129.58 1384,-133.41 1384,-137.24 1384,-137.24 1384,-144.91 1384,-144.91 1384,-148.74 1380.17,-152.58 1376.33,-152.58"/>
<text text-anchor="middle" x="1267.5" y="-137.38" font-family="Arial" font-size="14.00" fill="#c6c5fe">components/forms/CatalogForm.tsx</text>
</g>
<!-- components/forms/catalogFormConfig.tsx -->
<g id="node15" class="node">
<title>components/forms/catalogFormConfig.tsx</title>
<path fill="none" stroke="#c6c5fe" d="M1699.83,-132.58C1699.83,-132.58 1446.17,-132.58 1446.17,-132.58 1442.33,-132.58 1438.5,-128.74 1438.5,-124.91 1438.5,-124.91 1438.5,-117.24 1438.5,-117.24 1438.5,-113.41 1442.33,-109.58 1446.17,-109.58 1446.17,-109.58 1699.83,-109.58 1699.83,-109.58 1703.67,-109.58 1707.5,-113.41 1707.5,-117.24 1707.5,-117.24 1707.5,-124.91 1707.5,-124.91 1707.5,-128.74 1703.67,-132.58 1699.83,-132.58"/>
<text text-anchor="middle" x="1573" y="-117.38" font-family="Arial" font-size="14.00" fill="#c6c5fe">components/forms/catalogFormConfig.tsx</text>
</g>
<!-- components/forms/CatalogForm.tsx&#45;&gt;components/forms/catalogFormConfig.tsx -->
<g id="edge10" class="edge">
<title>components/forms/CatalogForm.tsx&#45;&gt;components/forms/catalogFormConfig.tsx</title>
<path fill="none" stroke="#757575" d="M1384.11,-133.46C1398.53,-132.51 1413.42,-131.53 1428.21,-130.55"/>
<polygon fill="#757575" stroke="#757575" points="1428.68,-134.03 1438.43,-129.88 1428.22,-127.04 1428.68,-134.03"/>
</g>
<!-- types/dto.d.ts -->
<g id="node16" class="node">
<title>types/dto.d.ts</title>
<path fill="none" stroke="#c6c5fe" d="M1914.33,-501.58C1914.33,-501.58 1832.67,-501.58 1832.67,-501.58 1828.83,-501.58 1825,-497.74 1825,-493.91 1825,-493.91 1825,-486.24 1825,-486.24 1825,-482.41 1828.83,-478.58 1832.67,-478.58 1832.67,-478.58 1914.33,-478.58 1914.33,-478.58 1918.17,-478.58 1922,-482.41 1922,-486.24 1922,-486.24 1922,-493.91 1922,-493.91 1922,-497.74 1918.17,-501.58 1914.33,-501.58"/>
<text text-anchor="middle" x="1873.5" y="-486.38" font-family="Arial" font-size="14.00" fill="#c6c5fe">types/dto.d.ts</text>
</g>
<!-- components/forms/CatalogForm.tsx&#45;&gt;types/dto.d.ts -->
<g id="edge11" class="edge">
<title>components/forms/CatalogForm.tsx&#45;&gt;types/dto.d.ts</title>
<path fill="none" stroke="#757575" d="M1384.15,-151.91C1496.48,-164.3 1657.41,-187.58 1709,-223.08 1799.92,-285.64 1849.47,-416.94 1866.08,-468.57"/>
<polygon fill="#757575" stroke="#757575" points="1862.8,-469.82 1869.13,-478.32 1869.49,-467.74 1862.8,-469.82"/>
</g>
<!-- components/forms/CatalogForm.tsx&#45;&gt;types/types.d.ts -->
<g id="edge12" class="edge">
<title>components/forms/CatalogForm.tsx&#45;&gt;types/types.d.ts</title>
<path fill="none" stroke="#757575" d="M1305.19,-129.53C1339.02,-119.52 1390.83,-105.76 1437,-100.08 1561.61,-84.72 1907.76,-15.11 2002,-98.08 2054.77,-144.54 2084.92,-667.1 2090.89,-781.17"/>
<polygon fill="#757575" stroke="#757575" points="2087.41,-781.64 2091.42,-791.44 2094.4,-781.28 2087.41,-781.64"/>
</g>
<!-- components/forms/catalogFormConfig.tsx&#45;&gt;types/dto.d.ts -->
<g id="edge19" class="edge">
<title>components/forms/catalogFormConfig.tsx&#45;&gt;types/dto.d.ts</title>
<path fill="none" stroke="#757575" d="M1683.34,-132.62C1692.53,-136.36 1701.26,-141.09 1709,-147.08 1818.07,-231.4 1858.02,-406.64 1869.02,-468.16"/>
<polygon fill="#757575" stroke="#757575" points="1865.61,-469 1870.75,-478.27 1872.51,-467.83 1865.61,-469"/>
</g>
<!-- components/forms/catalogFormConfig.tsx&#45;&gt;types/types.d.ts -->
<g id="edge20" class="edge">
<title>components/forms/catalogFormConfig.tsx&#45;&gt;types/types.d.ts</title>
<path fill="none" stroke="#757575" d="M1637.97,-109.53C1731.81,-96.63 1906.03,-88.74 2002,-185.08 2087.84,-271.24 2092.35,-681.03 2092.15,-781.03"/>
<polygon fill="#757575" stroke="#757575" points="2088.65,-781.16 2092.11,-791.17 2095.65,-781.19 2088.65,-781.16"/>
</g>
<!-- types/dto.d.ts&#45;&gt;types/types.d.ts -->
<g id="edge98" class="edge">
<title>types/dto.d.ts&#45;&gt;types/types.d.ts</title>
<path fill="none" stroke="#757575" d="M1922.12,-496.04C1948.78,-501.7 1980.82,-512.7 2002,-534.08 2071.92,-604.66 2087.53,-731.05 2091.01,-781.46"/>
<polygon fill="#757575" stroke="#757575" points="2087.52,-781.76 2091.61,-791.54 2094.51,-781.35 2087.52,-781.76"/>
</g>
<!-- components/forms/ProductForm.tsx -->
<g id="node18" class="node">
<title>components/forms/ProductForm.tsx</title>
<path fill="none" stroke="#c6c5fe" d="M1376.33,-720.58C1376.33,-720.58 1158.67,-720.58 1158.67,-720.58 1154.83,-720.58 1151,-716.74 1151,-712.91 1151,-712.91 1151,-705.24 1151,-705.24 1151,-701.41 1154.83,-697.58 1158.67,-697.58 1158.67,-697.58 1376.33,-697.58 1376.33,-697.58 1380.17,-697.58 1384,-701.41 1384,-705.24 1384,-705.24 1384,-712.91 1384,-712.91 1384,-716.74 1380.17,-720.58 1376.33,-720.58"/>
<text text-anchor="middle" x="1267.5" y="-705.38" font-family="Arial" font-size="14.00" fill="#c6c5fe">components/forms/ProductForm.tsx</text>
</g>
<!-- components/forms/ProductForm.tsx&#45;&gt;types/dto.d.ts -->
<g id="edge15" class="edge">
<title>components/forms/ProductForm.tsx&#45;&gt;types/dto.d.ts</title>
<path fill="none" stroke="#757575" d="M1384.21,-711.45C1495.29,-711.96 1654.06,-707.5 1709,-680.08 1784.9,-642.19 1840.01,-551.84 1861.98,-510.89"/>
<polygon fill="#757575" stroke="#757575" points="1865.19,-512.31 1866.74,-501.82 1858.99,-509.06 1865.19,-512.31"/>
</g>
<!-- components/forms/ProductForm.tsx&#45;&gt;types/types.d.ts -->
<g id="edge16" class="edge">
<title>components/forms/ProductForm.tsx&#45;&gt;types/types.d.ts</title>
<path fill="none" stroke="#757575" d="M1358.4,-720.58C1373.03,-724.17 1387.72,-728.89 1401,-735.08 1419.62,-743.75 1417.84,-756.67 1437,-764.08 1543.38,-805.19 1884.08,-805.85 2027.45,-804.18"/>
<polygon fill="#757575" stroke="#757575" points="2027.88,-807.68 2037.84,-804.06 2027.8,-800.68 2027.88,-807.68"/>
</g>
<!-- components/forms/productFormConfig.tsx -->
<g id="node19" class="node">
<title>components/forms/productFormConfig.tsx</title>
<path fill="none" stroke="#c6c5fe" d="M1700.33,-755.58C1700.33,-755.58 1445.67,-755.58 1445.67,-755.58 1441.83,-755.58 1438,-751.74 1438,-747.91 1438,-747.91 1438,-740.24 1438,-740.24 1438,-736.41 1441.83,-732.58 1445.67,-732.58 1445.67,-732.58 1700.33,-732.58 1700.33,-732.58 1704.17,-732.58 1708,-736.41 1708,-740.24 1708,-740.24 1708,-747.91 1708,-747.91 1708,-751.74 1704.17,-755.58 1700.33,-755.58"/>
<text text-anchor="middle" x="1573" y="-740.38" font-family="Arial" font-size="14.00" fill="#c6c5fe">components/forms/productFormConfig.tsx</text>
</g>
<!-- components/forms/ProductForm.tsx&#45;&gt;components/forms/productFormConfig.tsx -->
<g id="edge13" class="edge">
<title>components/forms/ProductForm.tsx&#45;&gt;components/forms/productFormConfig.tsx</title>
<path fill="none" stroke="#757575" d="M1368.3,-720.59C1398.26,-724.04 1431.29,-727.85 1461.87,-731.38"/>
<polygon fill="#757575" stroke="#757575" points="1461.81,-734.89 1472.14,-732.56 1462.61,-727.94 1461.81,-734.89"/>
</g>
<!-- services/RestService.ts -->
<g id="node20" class="node">
<title>services/RestService.ts</title>
<path fill="none" stroke="#c6c5fe" d="M1643.83,-911.58C1643.83,-911.58 1502.17,-911.58 1502.17,-911.58 1498.33,-911.58 1494.5,-907.74 1494.5,-903.91 1494.5,-903.91 1494.5,-896.24 1494.5,-896.24 1494.5,-892.41 1498.33,-888.58 1502.17,-888.58 1502.17,-888.58 1643.83,-888.58 1643.83,-888.58 1647.67,-888.58 1651.5,-892.41 1651.5,-896.24 1651.5,-896.24 1651.5,-903.91 1651.5,-903.91 1651.5,-907.74 1647.67,-911.58 1643.83,-911.58"/>
<text text-anchor="middle" x="1573" y="-896.38" font-family="Arial" font-size="14.00" fill="#c6c5fe">services/RestService.ts</text>
</g>
<!-- components/forms/ProductForm.tsx&#45;&gt;services/RestService.ts -->
<g id="edge14" class="edge">
<title>components/forms/ProductForm.tsx&#45;&gt;services/RestService.ts</title>
<path fill="none" stroke="#757575" d="M1287.03,-720.74C1338.69,-753.25 1484.5,-845.01 1545.08,-883.14"/>
<polygon fill="#757575" stroke="#757575" points="1543.39,-886.21 1553.71,-888.57 1547.11,-880.28 1543.39,-886.21"/>
</g>
<!-- components/forms/productFormConfig.tsx&#45;&gt;types/dto.d.ts -->
<g id="edge21" class="edge">
<title>components/forms/productFormConfig.tsx&#45;&gt;types/dto.d.ts</title>
<path fill="none" stroke="#757575" d="M1678.13,-732.48C1689.02,-728.83 1699.55,-724.13 1709,-718.08 1790.81,-665.7 1844.37,-556.57 1864.06,-510.89"/>
<polygon fill="#757575" stroke="#757575" points="1867.29,-512.24 1867.94,-501.67 1860.84,-509.53 1867.29,-512.24"/>
</g>
<!-- components/forms/productFormConfig.tsx&#45;&gt;types/types.d.ts -->
<g id="edge22" class="edge">
<title>components/forms/productFormConfig.tsx&#45;&gt;types/types.d.ts</title>
<path fill="none" stroke="#757575" d="M1708.35,-742.29C1793.35,-743.59 1905.09,-749.82 2002,-770.08 2020.62,-773.97 2040.55,-780.96 2056.91,-787.51"/>
<polygon fill="#757575" stroke="#757575" points="2056.01,-790.93 2066.59,-791.5 2058.68,-784.46 2056.01,-790.93"/>
</g>
<!-- services/RestService.ts&#45;&gt;types/models.d.ts -->
<g id="edge97" class="edge">
<title>services/RestService.ts&#45;&gt;types/models.d.ts</title>
<path fill="none" stroke="#757575" d="M1603.16,-911.61C1657.22,-932.98 1772.98,-978.73 1833.62,-1002.71"/>
<polygon fill="#757575" stroke="#757575" points="1832.63,-1006.08 1843.22,-1006.5 1835.2,-999.57 1832.63,-1006.08"/>
</g>
<!-- services/products.json.ts -->
<g id="node54" class="node">
<title>services/products.json.ts</title>
<path fill="none" stroke="#cfffac" d="M1947.83,-911.58C1947.83,-911.58 1799.17,-911.58 1799.17,-911.58 1795.33,-911.58 1791.5,-907.74 1791.5,-903.91 1791.5,-903.91 1791.5,-896.24 1791.5,-896.24 1791.5,-892.41 1795.33,-888.58 1799.17,-888.58 1799.17,-888.58 1947.83,-888.58 1947.83,-888.58 1951.67,-888.58 1955.5,-892.41 1955.5,-896.24 1955.5,-896.24 1955.5,-903.91 1955.5,-903.91 1955.5,-907.74 1951.67,-911.58 1947.83,-911.58"/>
<text text-anchor="middle" x="1873.5" y="-896.38" font-family="Arial" font-size="14.00" fill="#cfffac">services/products.json.ts</text>
</g>
<!-- services/RestService.ts&#45;&gt;services/products.json.ts -->
<g id="edge96" class="edge">
<title>services/RestService.ts&#45;&gt;services/products.json.ts</title>
<path fill="none" stroke="#757575" d="M1651.65,-900.08C1691.3,-900.08 1739.8,-900.08 1781.24,-900.08"/>
<polygon fill="#757575" stroke="#757575" points="1781.33,-903.58 1791.33,-900.08 1781.33,-896.58 1781.33,-903.58"/>
</g>
<!-- components/forms/ResetPasswordForm.tsx -->
<g id="node21" class="node">
<title>components/forms/ResetPasswordForm.tsx</title>
<path fill="none" stroke="#c6c5fe" d="M1090.33,-877.58C1090.33,-877.58 824.67,-877.58 824.67,-877.58 820.83,-877.58 817,-873.74 817,-869.91 817,-869.91 817,-862.24 817,-862.24 817,-858.41 820.83,-854.58 824.67,-854.58 824.67,-854.58 1090.33,-854.58 1090.33,-854.58 1094.17,-854.58 1098,-858.41 1098,-862.24 1098,-862.24 1098,-869.91 1098,-869.91 1098,-873.74 1094.17,-877.58 1090.33,-877.58"/>
<text text-anchor="middle" x="957.5" y="-862.38" font-family="Arial" font-size="14.00" fill="#c6c5fe">components/forms/ResetPasswordForm.tsx</text>
</g>
<!-- components/forms/ResetPasswordForm.tsx&#45;&gt;components/Form.tsx -->
<g id="edge17" class="edge">
<title>components/forms/ResetPasswordForm.tsx&#45;&gt;components/Form.tsx</title>
<path fill="none" stroke="#757575" d="M1056.65,-877.58C1070.91,-881.18 1085.12,-885.89 1098,-892.08 1117.03,-901.22 1114.84,-914.2 1134,-923.08 1149.28,-930.16 1166.5,-934.92 1183.34,-938.1"/>
<polygon fill="#757575" stroke="#757575" points="1182.75,-941.55 1193.2,-939.79 1183.94,-934.65 1182.75,-941.55"/>
</g>
<!-- components/forms/ResetPasswordForm.tsx&#45;&gt;components/FormInputGroup.tsx -->
<g id="edge18" class="edge">
<title>components/forms/ResetPasswordForm.tsx&#45;&gt;components/FormInputGroup.tsx</title>
<path fill="none" stroke="#757575" d="M1054.26,-877.58C1087.94,-881.63 1125.96,-886.19 1160.43,-890.34"/>
<polygon fill="#757575" stroke="#757575" points="1160.18,-893.83 1170.53,-891.55 1161.02,-886.88 1160.18,-893.83"/>
</g>
<!-- components/lists/CatalogList.tsx -->
<g id="node22" class="node">
<title>components/lists/CatalogList.tsx</title>
<path fill="none" stroke="#c6c5fe" d="M764.33,-286.58C764.33,-286.58 569.67,-286.58 569.67,-286.58 565.83,-286.58 562,-282.74 562,-278.91 562,-278.91 562,-271.24 562,-271.24 562,-267.41 565.83,-263.58 569.67,-263.58 569.67,-263.58 764.33,-263.58 764.33,-263.58 768.17,-263.58 772,-267.41 772,-271.24 772,-271.24 772,-278.91 772,-278.91 772,-282.74 768.17,-286.58 764.33,-286.58"/>
<text text-anchor="middle" x="667" y="-271.38" font-family="Arial" font-size="14.00" fill="#c6c5fe">components/lists/CatalogList.tsx</text>
</g>
<!-- components/lists/CatalogList.tsx&#45;&gt;main/RoutePath.ts -->
<g id="edge24" class="edge">
<title>components/lists/CatalogList.tsx&#45;&gt;main/RoutePath.ts</title>
<path fill="none" stroke="#757575" d="M674.67,-286.64C694.73,-322 754.72,-432.4 781,-532.08 801.16,-608.54 765.42,-826.15 817,-886.08 901.1,-983.79 990.13,-887.47 1098,-958.08 1176.64,-1009.55 1234.27,-1110.26 1256.47,-1153.52"/>
<polygon fill="#757575" stroke="#757575" points="1253.39,-1155.18 1261.01,-1162.54 1259.64,-1152.03 1253.39,-1155.18"/>
</g>
<!-- components/lists/CatalogList.tsx&#45;&gt;types/dto.d.ts -->
<g id="edge25" class="edge">
<title>components/lists/CatalogList.tsx&#45;&gt;types/dto.d.ts</title>
<path fill="none" stroke="#757575" d="M772.27,-272.69C1019.35,-267.71 1626.06,-259.73 1709,-299.08 1786.06,-335.63 1840.73,-427.65 1862.3,-469.17"/>
<polygon fill="#757575" stroke="#757575" points="1859.31,-471.02 1866.96,-478.36 1865.56,-467.85 1859.31,-471.02"/>
</g>
<!-- components/modals/MakeCatalogModal.tsx -->
<g id="node23" class="node">
<title>components/modals/MakeCatalogModal.tsx</title>
<path fill="none" stroke="#c6c5fe" d="M1090.33,-246.58C1090.33,-246.58 824.67,-246.58 824.67,-246.58 820.83,-246.58 817,-242.74 817,-238.91 817,-238.91 817,-231.24 817,-231.24 817,-227.41 820.83,-223.58 824.67,-223.58 824.67,-223.58 1090.33,-223.58 1090.33,-223.58 1094.17,-223.58 1098,-227.41 1098,-231.24 1098,-231.24 1098,-238.91 1098,-238.91 1098,-242.74 1094.17,-246.58 1090.33,-246.58"/>
<text text-anchor="middle" x="957.5" y="-231.38" font-family="Arial" font-size="14.00" fill="#c6c5fe">components/modals/MakeCatalogModal.tsx</text>
</g>
<!-- components/lists/CatalogList.tsx&#45;&gt;components/modals/MakeCatalogModal.tsx -->
<g id="edge23" class="edge">
<title>components/lists/CatalogList.tsx&#45;&gt;components/modals/MakeCatalogModal.tsx</title>
<path fill="none" stroke="#757575" d="M751.06,-263.56C786.21,-258.69 827.31,-252.99 863.47,-247.98"/>
<polygon fill="#757575" stroke="#757575" points="864.1,-251.42 873.53,-246.58 863.14,-244.49 864.1,-251.42"/>
</g>
<!-- components/modals/MakeCatalogModal.tsx&#45;&gt;components/forms/CatalogForm.tsx -->
<g id="edge36" class="edge">
<title>components/modals/MakeCatalogModal.tsx&#45;&gt;components/forms/CatalogForm.tsx</title>
<path fill="none" stroke="#757575" d="M996.27,-223.55C1052.26,-206.46 1157.28,-174.41 1218.6,-155.69"/>
<polygon fill="#757575" stroke="#757575" points="1219.88,-158.96 1228.42,-152.7 1217.84,-152.27 1219.88,-158.96"/>
</g>
<!-- components/modals/MakeCatalogModal.tsx&#45;&gt;types/dto.d.ts -->
<g id="edge38" class="edge">
<title>components/modals/MakeCatalogModal.tsx&#45;&gt;types/dto.d.ts</title>
<path fill="none" stroke="#757575" d="M1098.17,-225.47C1285.68,-215.01 1607.06,-206.35 1709,-261.08 1795.23,-307.37 1846.63,-421.46 1864.9,-468.88"/>
<polygon fill="#757575" stroke="#757575" points="1861.7,-470.3 1868.48,-478.43 1868.25,-467.84 1861.7,-470.3"/>
</g>
<!-- components/modals/MakeCatalogModal.tsx&#45;&gt;types/types.d.ts -->
<g id="edge39" class="edge">
<title>components/modals/MakeCatalogModal.tsx&#45;&gt;types/types.d.ts</title>
<path fill="none" stroke="#757575" d="M972,-223.52C1000.12,-200.09 1067.86,-146.97 1134,-120.08 1313.15,-47.23 1857.29,71.22 2002,-57.08 2057.79,-106.54 2085.72,-662.7 2091.05,-781.02"/>
<polygon fill="#757575" stroke="#757575" points="2087.57,-781.52 2091.51,-791.35 2094.56,-781.21 2087.57,-781.52"/>
</g>
<!-- components/modals/MakeModalForm.tsx -->
<g id="node30" class="node">
<title>components/modals/MakeModalForm.tsx</title>
<path fill="none" stroke="#c6c5fe" d="M1393.33,-364.58C1393.33,-364.58 1141.67,-364.58 1141.67,-364.58 1137.83,-364.58 1134,-360.74 1134,-356.91 1134,-356.91 1134,-349.24 1134,-349.24 1134,-345.41 1137.83,-341.58 1141.67,-341.58 1141.67,-341.58 1393.33,-341.58 1393.33,-341.58 1397.17,-341.58 1401,-345.41 1401,-349.24 1401,-349.24 1401,-356.91 1401,-356.91 1401,-360.74 1397.17,-364.58 1393.33,-364.58"/>
<text text-anchor="middle" x="1267.5" y="-349.38" font-family="Arial" font-size="14.00" fill="#c6c5fe">components/modals/MakeModalForm.tsx</text>
</g>
<!-- components/modals/MakeCatalogModal.tsx&#45;&gt;components/modals/MakeModalForm.tsx -->
<g id="edge37" class="edge">
<title>components/modals/MakeCatalogModal.tsx&#45;&gt;components/modals/MakeModalForm.tsx</title>
<path fill="none" stroke="#757575" d="M988.59,-246.61C1044.49,-268.02 1164.3,-313.92 1226.77,-337.86"/>
<polygon fill="#757575" stroke="#757575" points="1225.69,-341.19 1236.28,-341.5 1228.2,-334.65 1225.69,-341.19"/>
</g>
<!-- components/lists/ProductList.tsx -->
<g id="node24" class="node">
<title>components/lists/ProductList.tsx</title>
<path fill="none" stroke="#c6c5fe" d="M764.33,-564.58C764.33,-564.58 569.67,-564.58 569.67,-564.58 565.83,-564.58 562,-560.74 562,-556.91 562,-556.91 562,-549.24 562,-549.24 562,-545.41 565.83,-541.58 569.67,-541.58 569.67,-541.58 764.33,-541.58 764.33,-541.58 768.17,-541.58 772,-545.41 772,-549.24 772,-549.24 772,-556.91 772,-556.91 772,-560.74 768.17,-564.58 764.33,-564.58"/>
<text text-anchor="middle" x="667" y="-549.38" font-family="Arial" font-size="14.00" fill="#c6c5fe">components/lists/ProductList.tsx</text>
</g>
<!-- components/lists/ProductList.tsx&#45;&gt;main/RoutePath.ts -->
<g id="edge27" class="edge">
<title>components/lists/ProductList.tsx&#45;&gt;main/RoutePath.ts</title>
<path fill="none" stroke="#757575" d="M680.03,-564.94C703.78,-589.19 756.55,-647.21 781,-707.08 823.61,-811.41 750.36,-867.19 817,-958.08 868.9,-1028.86 1120.54,-1123.01 1222.98,-1159.11"/>
<polygon fill="#757575" stroke="#757575" points="1222.11,-1162.52 1232.7,-1162.53 1224.43,-1155.91 1222.11,-1162.52"/>
</g>
<!-- components/lists/ProductList.tsx&#45;&gt;types/dto.d.ts -->
<g id="edge28" class="edge">
<title>components/lists/ProductList.tsx&#45;&gt;types/dto.d.ts</title>
<path fill="none" stroke="#757575" d="M735.31,-541.57C760.82,-537.62 790.18,-533.57 817,-531.08 916.27,-521.85 1608.47,-498.71 1814.67,-491.96"/>
<polygon fill="#757575" stroke="#757575" points="1814.81,-495.46 1824.69,-491.63 1814.58,-488.46 1814.81,-495.46"/>
</g>
<!-- components/lists/ProductList.tsx&#45;&gt;types/types.d.ts -->
<g id="edge29" class="edge">
<title>components/lists/ProductList.tsx&#45;&gt;types/types.d.ts</title>
<path fill="none" stroke="#757575" d="M696.53,-564.65C791.11,-603.04 1088.92,-724.12 1098,-730.08 1116.65,-742.32 1113.93,-755.32 1134,-765.08 1241.68,-817.45 1287.36,-763.35 1401,-801.08 1418.37,-806.84 1419.3,-816.4 1437,-821.08 1569.35,-856.06 1608.11,-823.41 1745,-824.08 1859.22,-824.63 1888.53,-837.14 2002,-824.08 2014.95,-822.59 2028.75,-819.92 2041.56,-816.99"/>
<polygon fill="#757575" stroke="#757575" points="2042.67,-820.32 2051.58,-814.59 2041.04,-813.51 2042.67,-820.32"/>
</g>
<!-- components/modals/MakeProductModal.tsx -->
<g id="node25" class="node">
<title>components/modals/MakeProductModal.tsx</title>
<path fill="none" stroke="#c6c5fe" d="M1090.33,-604.58C1090.33,-604.58 824.67,-604.58 824.67,-604.58 820.83,-604.58 817,-600.74 817,-596.91 817,-596.91 817,-589.24 817,-589.24 817,-585.41 820.83,-581.58 824.67,-581.58 824.67,-581.58 1090.33,-581.58 1090.33,-581.58 1094.17,-581.58 1098,-585.41 1098,-589.24 1098,-589.24 1098,-596.91 1098,-596.91 1098,-600.74 1094.17,-604.58 1090.33,-604.58"/>
<text text-anchor="middle" x="957.5" y="-589.38" font-family="Arial" font-size="14.00" fill="#c6c5fe">components/modals/MakeProductModal.tsx</text>
</g>
<!-- components/lists/ProductList.tsx&#45;&gt;components/modals/MakeProductModal.tsx -->
<g id="edge26" class="edge">
<title>components/lists/ProductList.tsx&#45;&gt;components/modals/MakeProductModal.tsx</title>
<path fill="none" stroke="#757575" d="M751.06,-564.59C786.21,-569.47 827.31,-575.16 863.47,-580.18"/>
<polygon fill="#757575" stroke="#757575" points="863.14,-583.67 873.53,-581.57 864.1,-576.73 863.14,-583.67"/>
</g>
<!-- utils/Array.ts -->
<g id="node26" class="node">
<title>utils/Array.ts</title>
<path fill="none" stroke="#cfffac" d="M994.83,-563.58C994.83,-563.58 920.17,-563.58 920.17,-563.58 916.33,-563.58 912.5,-559.74 912.5,-555.91 912.5,-555.91 912.5,-548.24 912.5,-548.24 912.5,-544.41 916.33,-540.58 920.17,-540.58 920.17,-540.58 994.83,-540.58 994.83,-540.58 998.67,-540.58 1002.5,-544.41 1002.5,-548.24 1002.5,-548.24 1002.5,-555.91 1002.5,-555.91 1002.5,-559.74 998.67,-563.58 994.83,-563.58"/>
<text text-anchor="middle" x="957.5" y="-548.38" font-family="Arial" font-size="14.00" fill="#cfffac">utils/Array.ts</text>
</g>
<!-- components/lists/ProductList.tsx&#45;&gt;utils/Array.ts -->
<g id="edge30" class="edge">
<title>components/lists/ProductList.tsx&#45;&gt;utils/Array.ts</title>
<path fill="none" stroke="#757575" d="M772.16,-552.72C816.08,-552.56 865.39,-552.39 901.95,-552.27"/>
<polygon fill="#757575" stroke="#757575" points="902.4,-555.76 912.39,-552.23 902.38,-548.76 902.4,-555.76"/>
</g>
<!-- components/modals/MakeProductModal.tsx&#45;&gt;types/dto.d.ts -->
<g id="edge45" class="edge">
<title>components/modals/MakeProductModal.tsx&#45;&gt;types/dto.d.ts</title>
<path fill="none" stroke="#757575" d="M1098.08,-584.99C1249.21,-575.13 1497.1,-555.75 1709,-524.08 1744.45,-518.78 1783.79,-510.67 1814.99,-503.7"/>
<polygon fill="#757575" stroke="#757575" points="1815.84,-507.1 1824.82,-501.48 1814.3,-500.27 1815.84,-507.1"/>
</g>
<!-- components/modals/MakeProductModal.tsx&#45;&gt;types/types.d.ts -->
<g id="edge46" class="edge">
<title>components/modals/MakeProductModal.tsx&#45;&gt;types/types.d.ts</title>
<path fill="none" stroke="#757575" d="M1001.95,-604.62C1031.98,-614.44 1071.18,-631.14 1098,-657.08 1123.72,-681.95 1105.2,-707.85 1134,-729.08 1230.81,-800.44 1288.7,-730.04 1401,-773.08 1418.73,-779.87 1418.88,-790.4 1437,-796.08 1567.72,-837.05 1608.03,-805.41 1745,-808.08 1859.2,-810.3 1887.82,-811.25 2002,-808.08 2010.32,-807.85 2019.07,-807.5 2027.71,-807.08"/>
<polygon fill="#757575" stroke="#757575" points="2027.95,-810.58 2037.77,-806.58 2027.6,-803.59 2027.95,-810.58"/>
</g>
<!-- components/modals/MakeProductModal.tsx&#45;&gt;components/forms/ProductForm.tsx -->
<g id="edge43" class="edge">
<title>components/modals/MakeProductModal.tsx&#45;&gt;components/forms/ProductForm.tsx</title>
<path fill="none" stroke="#757575" d="M989.16,-604.62C1045.05,-625.67 1163.51,-670.29 1225.98,-693.82"/>
<polygon fill="#757575" stroke="#757575" points="1224.92,-697.16 1235.51,-697.4 1227.38,-690.6 1224.92,-697.16"/>
</g>
<!-- components/modals/MakeProductModal.tsx&#45;&gt;components/modals/MakeModalForm.tsx -->
<g id="edge44" class="edge">
<title>components/modals/MakeProductModal.tsx&#45;&gt;components/modals/MakeModalForm.tsx</title>
<path fill="none" stroke="#757575" d="M1084.58,-581.56C1089.34,-578.83 1093.84,-575.69 1098,-572.08 1140.35,-535.27 1101.79,-497.01 1134,-451.08 1159.68,-414.46 1203.41,-386.02 1233.56,-369.42"/>
<polygon fill="#757575" stroke="#757575" points="1235.29,-372.47 1242.45,-364.66 1231.98,-366.3 1235.29,-372.47"/>
</g>
<!-- components/menus/DropdownMenu.tsx&#45;&gt;types/types.d.ts -->
<g id="edge31" class="edge">
<title>components/menus/DropdownMenu.tsx&#45;&gt;types/types.d.ts</title>
<path fill="none" stroke="#757575" d="M1936.87,-1225.53C1960.34,-1218.2 1985.35,-1206.31 2002,-1187.08 2050.18,-1131.43 2080.91,-898.41 2089.52,-825.19"/>
<polygon fill="#757575" stroke="#757575" points="2093.04,-825.2 2090.71,-814.86 2086.09,-824.4 2093.04,-825.2"/>
</g>
<!-- main/MenuConfig.ts&#45;&gt;main/RoutePath.ts -->
<g id="edge89" class="edge">
<title>main/MenuConfig.ts&#45;&gt;main/RoutePath.ts</title>
<path fill="none" stroke="#757575" d="M1026.86,-1144.51C1076.18,-1150.6 1142.7,-1158.8 1193.14,-1165.03"/>
<polygon fill="#757575" stroke="#757575" points="1192.97,-1168.53 1203.32,-1166.28 1193.82,-1161.58 1192.97,-1168.53"/>
</g>
<!-- main/MenuConfig.ts&#45;&gt;types/types.d.ts -->
<g id="edge90" class="edge">
<title>main/MenuConfig.ts&#45;&gt;types/types.d.ts</title>
<path fill="none" stroke="#757575" d="M1026.57,-1138.95C1246,-1147.58 1925.04,-1169.23 2002,-1110.08 2048.43,-1074.4 2079.43,-889.25 2088.92,-825.04"/>
<polygon fill="#757575" stroke="#757575" points="2092.43,-825.23 2090.4,-814.84 2085.5,-824.23 2092.43,-825.23"/>
</g>
<!-- components/menus/SubMenu.tsx -->
<g id="node29" class="node">
<title>components/menus/SubMenu.tsx</title>
<path fill="none" stroke="#c6c5fe" d="M768.83,-1028.58C768.83,-1028.58 565.17,-1028.58 565.17,-1028.58 561.33,-1028.58 557.5,-1024.74 557.5,-1020.91 557.5,-1020.91 557.5,-1013.24 557.5,-1013.24 557.5,-1009.41 561.33,-1005.58 565.17,-1005.58 565.17,-1005.58 768.83,-1005.58 768.83,-1005.58 772.67,-1005.58 776.5,-1009.41 776.5,-1013.24 776.5,-1013.24 776.5,-1020.91 776.5,-1020.91 776.5,-1024.74 772.67,-1028.58 768.83,-1028.58"/>
<text text-anchor="middle" x="667" y="-1013.38" font-family="Arial" font-size="14.00" fill="#c6c5fe">components/menus/SubMenu.tsx</text>
</g>
<!-- components/menus/SubMenu.tsx&#45;&gt;types/types.d.ts -->
<g id="edge35" class="edge">
<title>components/menus/SubMenu.tsx&#45;&gt;types/types.d.ts</title>
<path fill="none" stroke="#757575" d="M750.92,-1028.61C909.2,-1050.53 1241.04,-1096.08 1266.5,-1096.08 1266.5,-1096.08 1266.5,-1096.08 1574,-1096.08 1669.98,-1096.08 1926.76,-1097.67 2002,-1038.08 2070.17,-984.09 2086.74,-871.99 2090.74,-824.78"/>
<polygon fill="#757575" stroke="#757575" points="2094.24,-824.97 2091.48,-814.74 2087.25,-824.46 2094.24,-824.97"/>
</g>
<!-- components/modals/MakeModalForm.tsx&#45;&gt;types/types.d.ts -->
<g id="edge42" class="edge">
<title>components/modals/MakeModalForm.tsx&#45;&gt;types/types.d.ts</title>
<path fill="none" stroke="#757575" d="M1320.97,-341.54C1458.54,-314.74 1830.83,-265.16 2002,-469.08 2081.82,-564.16 2091.41,-723.47 2092.15,-781.28"/>
<polygon fill="#757575" stroke="#757575" points="2088.65,-781.46 2092.2,-791.44 2095.65,-781.42 2088.65,-781.46"/>
</g>
<!-- components/modals/Modal.tsx -->
<g id="node31" class="node">
<title>components/modals/Modal.tsx</title>
<path fill="none" stroke="#cfffac" d="M1665.83,-364.58C1665.83,-364.58 1480.17,-364.58 1480.17,-364.58 1476.33,-364.58 1472.5,-360.74 1472.5,-356.91 1472.5,-356.91 1472.5,-349.24 1472.5,-349.24 1472.5,-345.41 1476.33,-341.58 1480.17,-341.58 1480.17,-341.58 1665.83,-341.58 1665.83,-341.58 1669.67,-341.58 1673.5,-345.41 1673.5,-349.24 1673.5,-349.24 1673.5,-356.91 1673.5,-356.91 1673.5,-360.74 1669.67,-364.58 1665.83,-364.58"/>
<text text-anchor="middle" x="1573" y="-349.38" font-family="Arial" font-size="14.00" fill="#cfffac">components/modals/Modal.tsx</text>
</g>
<!-- components/modals/MakeModalForm.tsx&#45;&gt;components/modals/Modal.tsx -->
<g id="edge40" class="edge">
<title>components/modals/MakeModalForm.tsx&#45;&gt;components/modals/Modal.tsx</title>
<path fill="none" stroke="#757575" d="M1401.18,-353.08C1421.55,-353.08 1442.39,-353.08 1462.2,-353.08"/>
<polygon fill="#757575" stroke="#757575" points="1462.45,-356.58 1472.45,-353.08 1462.45,-349.58 1462.45,-356.58"/>
</g>
<!-- components/modals/ModalFooterForm.tsx -->
<g id="node32" class="node">
<title>components/modals/ModalFooterForm.tsx</title>
<path fill="none" stroke="#cfffac" d="M1701.33,-405.58C1701.33,-405.58 1444.67,-405.58 1444.67,-405.58 1440.83,-405.58 1437,-401.74 1437,-397.91 1437,-397.91 1437,-390.24 1437,-390.24 1437,-386.41 1440.83,-382.58 1444.67,-382.58 1444.67,-382.58 1701.33,-382.58 1701.33,-382.58 1705.17,-382.58 1709,-386.41 1709,-390.24 1709,-390.24 1709,-397.91 1709,-397.91 1709,-401.74 1705.17,-405.58 1701.33,-405.58"/>
<text text-anchor="middle" x="1573" y="-390.38" font-family="Arial" font-size="14.00" fill="#cfffac">components/modals/ModalFooterForm.tsx</text>
</g>
<!-- components/modals/MakeModalForm.tsx&#45;&gt;components/modals/ModalFooterForm.tsx -->
<g id="edge41" class="edge">
<title>components/modals/MakeModalForm.tsx&#45;&gt;components/modals/ModalFooterForm.tsx</title>
<path fill="none" stroke="#757575" d="M1353.85,-364.61C1392.07,-369.77 1437.3,-375.88 1476.64,-381.19"/>
<polygon fill="#757575" stroke="#757575" points="1476.39,-384.69 1486.77,-382.56 1477.32,-377.76 1476.39,-384.69"/>
</g>
<!-- components/pages/AccountPage.tsx -->
<g id="node33" class="node">
<title>components/pages/AccountPage.tsx</title>
<path fill="none" stroke="#c6c5fe" d="M502.33,-989.58C502.33,-989.58 281.67,-989.58 281.67,-989.58 277.83,-989.58 274,-985.74 274,-981.91 274,-981.91 274,-974.24 274,-974.24 274,-970.41 277.83,-966.58 281.67,-966.58 281.67,-966.58 502.33,-966.58 502.33,-966.58 506.17,-966.58 510,-970.41 510,-974.24 510,-974.24 510,-981.91 510,-981.91 510,-985.74 506.17,-989.58 502.33,-989.58"/>
<text text-anchor="middle" x="392" y="-974.38" font-family="Arial" font-size="14.00" fill="#c6c5fe">components/pages/AccountPage.tsx</text>
</g>
<!-- components/pages/AccountPage.tsx&#45;&gt;main/MenuConfig.ts -->
<g id="edge49" class="edge">
<title>components/pages/AccountPage.tsx&#45;&gt;main/MenuConfig.ts</title>
<path fill="none" stroke="#757575" d="M497.55,-989.64C504.3,-991.99 510.85,-994.78 517,-998.08 537.78,-1009.23 532.15,-1026.04 553,-1037.08 643.56,-1085 690.44,-1023.16 781,-1071.08 801.85,-1082.11 796.35,-1098.67 817,-1110.08 835.53,-1120.32 857.34,-1126.61 878.14,-1130.46"/>
<polygon fill="#757575" stroke="#757575" points="877.81,-1133.95 888.25,-1132.15 878.97,-1127.05 877.81,-1133.95"/>
</g>
<!-- components/pages/AccountPage.tsx&#45;&gt;components/menus/SubMenu.tsx -->
<g id="edge47" class="edge">
<title>components/pages/AccountPage.tsx&#45;&gt;components/menus/SubMenu.tsx</title>
<path fill="none" stroke="#757575" d="M473.8,-989.62C505.72,-994.18 542.54,-999.44 575.36,-1004.13"/>
<polygon fill="#757575" stroke="#757575" points="575.01,-1007.61 585.41,-1005.56 576,-1000.68 575.01,-1007.61"/>
</g>
<!-- components/pages/Page.tsx -->
<g id="node34" class="node">
<title>components/pages/Page.tsx</title>
<path fill="none" stroke="#cfffac" d="M753.33,-1146.58C753.33,-1146.58 580.67,-1146.58 580.67,-1146.58 576.83,-1146.58 573,-1142.74 573,-1138.91 573,-1138.91 573,-1131.24 573,-1131.24 573,-1127.41 576.83,-1123.58 580.67,-1123.58 580.67,-1123.58 753.33,-1123.58 753.33,-1123.58 757.17,-1123.58 761,-1127.41 761,-1131.24 761,-1131.24 761,-1138.91 761,-1138.91 761,-1142.74 757.17,-1146.58 753.33,-1146.58"/>
<text text-anchor="middle" x="667" y="-1131.38" font-family="Arial" font-size="14.00" fill="#cfffac">components/pages/Page.tsx</text>
</g>
<!-- components/pages/AccountPage.tsx&#45;&gt;components/pages/Page.tsx -->
<g id="edge48" class="edge">
<title>components/pages/AccountPage.tsx&#45;&gt;components/pages/Page.tsx</title>
<path fill="none" stroke="#757575" d="M502.97,-989.63C507.9,-992.04 512.62,-994.84 517,-998.08 546.1,-1019.57 528.16,-1044.78 553,-1071.08 573.14,-1092.4 601.98,-1108.58 625.49,-1119.33"/>
<polygon fill="#757575" stroke="#757575" points="624.31,-1122.63 634.87,-1123.47 627.13,-1116.23 624.31,-1122.63"/>
</g>
<!-- components/pages/AuthPage.scss -->
<g id="node35" class="node">
<title>components/pages/AuthPage.scss</title>
<path fill="none" stroke="#cfffac" d="M771.83,-866.58C771.83,-866.58 562.17,-866.58 562.17,-866.58 558.33,-866.58 554.5,-862.74 554.5,-858.91 554.5,-858.91 554.5,-851.24 554.5,-851.24 554.5,-847.41 558.33,-843.58 562.17,-843.58 562.17,-843.58 771.83,-843.58 771.83,-843.58 775.67,-843.58 779.5,-847.41 779.5,-851.24 779.5,-851.24 779.5,-858.91 779.5,-858.91 779.5,-862.74 775.67,-866.58 771.83,-866.58"/>
<text text-anchor="middle" x="667" y="-851.38" font-family="Arial" font-size="14.00" fill="#cfffac">components/pages/AuthPage.scss</text>
</g>
<!-- components/pages/AuthPage.tsx -->
<g id="node36" class="node">
<title>components/pages/AuthPage.tsx</title>
<path fill="none" stroke="#c6c5fe" d="M491.83,-866.58C491.83,-866.58 292.17,-866.58 292.17,-866.58 288.33,-866.58 284.5,-862.74 284.5,-858.91 284.5,-858.91 284.5,-851.24 284.5,-851.24 284.5,-847.41 288.33,-843.58 292.17,-843.58 292.17,-843.58 491.83,-843.58 491.83,-843.58 495.67,-843.58 499.5,-847.41 499.5,-851.24 499.5,-851.24 499.5,-858.91 499.5,-858.91 499.5,-862.74 495.67,-866.58 491.83,-866.58"/>
<text text-anchor="middle" x="392" y="-851.38" font-family="Arial" font-size="14.00" fill="#c6c5fe">components/pages/AuthPage.tsx</text>
</g>
<!-- components/pages/AuthPage.tsx&#45;&gt;services/Firebase.ts -->
<g id="edge54" class="edge">
<title>components/pages/AuthPage.tsx&#45;&gt;services/Firebase.ts</title>
<path fill="none" stroke="#757575" d="M499.74,-865.03C505.85,-867.78 511.67,-871.1 517,-875.08 546.62,-897.21 524.13,-926.98 553,-950.08 563.27,-958.29 575.66,-964.01 588.42,-967.97"/>
<polygon fill="#757575" stroke="#757575" points="587.65,-971.38 598.22,-970.66 589.51,-964.64 587.65,-971.38"/>
</g>
<!-- components/pages/AuthPage.tsx&#45;&gt;components/AuthFrom.tsx -->
<g id="edge50" class="edge">
<title>components/pages/AuthPage.tsx&#45;&gt;components/AuthFrom.tsx</title>
<path fill="none" stroke="#757575" d="M467.71,-843.57C494.54,-839.89 525.07,-836.22 553,-834.08 657.46,-826.08 777.54,-824.35 859.36,-824.3"/>
<polygon fill="#757575" stroke="#757575" points="859.39,-827.8 869.39,-824.3 859.39,-820.8 859.39,-827.8"/>
</g>
<!-- components/pages/AuthPage.tsx&#45;&gt;components/Form.tsx -->
<g id="edge51" class="edge">
<title>components/pages/AuthPage.tsx&#45;&gt;components/Form.tsx</title>
<path fill="none" stroke="#757575" d="M498.28,-866.69C504.78,-869.03 511.08,-871.81 517,-875.08 538.22,-886.81 531.26,-905.33 553,-916.08 661.51,-969.72 1019.67,-957.82 1183.45,-949.15"/>
<polygon fill="#757575" stroke="#757575" points="1183.68,-952.64 1193.48,-948.61 1183.3,-945.65 1183.68,-952.64"/>
</g>
<!-- components/pages/AuthPage.tsx&#45;&gt;components/pages/AuthPage.scss -->
<g id="edge52" class="edge">
<title>components/pages/AuthPage.tsx&#45;&gt;components/pages/AuthPage.scss</title>
<path fill="none" stroke="#757575" d="M499.72,-855.08C514.3,-855.08 529.36,-855.08 544.18,-855.08"/>
<polygon fill="#757575" stroke="#757575" points="544.4,-858.58 554.4,-855.08 544.4,-851.58 544.4,-858.58"/>
</g>
<!-- containers/SignUpModal.tsx -->
<g id="node37" class="node">
<title>containers/SignUpModal.tsx</title>
<path fill="none" stroke="#c6c5fe" d="M751.83,-907.58C751.83,-907.58 582.17,-907.58 582.17,-907.58 578.33,-907.58 574.5,-903.74 574.5,-899.91 574.5,-899.91 574.5,-892.24 574.5,-892.24 574.5,-888.41 578.33,-884.58 582.17,-884.58 582.17,-884.58 751.83,-884.58 751.83,-884.58 755.67,-884.58 759.5,-888.41 759.5,-892.24 759.5,-892.24 759.5,-899.91 759.5,-899.91 759.5,-903.74 755.67,-907.58 751.83,-907.58"/>
<text text-anchor="middle" x="667" y="-892.38" font-family="Arial" font-size="14.00" fill="#c6c5fe">containers/SignUpModal.tsx</text>
</g>
<!-- components/pages/AuthPage.tsx&#45;&gt;containers/SignUpModal.tsx -->
<g id="edge53" class="edge">
<title>components/pages/AuthPage.tsx&#45;&gt;containers/SignUpModal.tsx</title>
<path fill="none" stroke="#757575" d="M469.77,-866.61C503.79,-871.72 543.98,-877.75 579.09,-883.02"/>
<polygon fill="#757575" stroke="#757575" points="578.92,-886.54 589.33,-884.56 579.96,-879.62 578.92,-886.54"/>
</g>
<!-- containers/SignUpModal.tsx&#45;&gt;components/AuthFrom.tsx -->
<g id="edge73" class="edge">
<title>containers/SignUpModal.tsx&#45;&gt;components/AuthFrom.tsx</title>
<path fill="none" stroke="#757575" d="M755.49,-884.49C764.31,-881.95 772.96,-878.85 781,-875.08 799.85,-866.22 797.97,-853.54 817,-845.08 830.17,-839.22 844.66,-835 859.18,-831.97"/>
<polygon fill="#757575" stroke="#757575" points="860.04,-835.37 869.21,-830.06 858.73,-828.49 860.04,-835.37"/>
</g>
<!-- containers/SignUpModal.tsx&#45;&gt;components/Form.tsx -->
<g id="edge74" class="edge">
<title>containers/SignUpModal.tsx&#45;&gt;components/Form.tsx</title>
<path fill="none" stroke="#757575" d="M759.55,-903.42C874.98,-912.68 1071.76,-928.46 1183.16,-937.39"/>
<polygon fill="#757575" stroke="#757575" points="1183.09,-940.9 1193.34,-938.21 1183.65,-933.92 1183.09,-940.9"/>
</g>
<!-- components/pages/HomePage.tsx -->
<g id="node38" class="node">
<title>components/pages/HomePage.tsx</title>
<path fill="none" stroke="#c6c5fe" d="M496.33,-1112.58C496.33,-1112.58 287.67,-1112.58 287.67,-1112.58 283.83,-1112.58 280,-1108.74 280,-1104.91 280,-1104.91 280,-1097.24 280,-1097.24 280,-1093.41 283.83,-1089.58 287.67,-1089.58 287.67,-1089.58 496.33,-1089.58 496.33,-1089.58 500.17,-1089.58 504,-1093.41 504,-1097.24 504,-1097.24 504,-1104.91 504,-1104.91 504,-1108.74 500.17,-1112.58 496.33,-1112.58"/>
<text text-anchor="middle" x="392" y="-1097.38" font-family="Arial" font-size="14.00" fill="#c6c5fe">components/pages/HomePage.tsx</text>
</g>
<!-- components/pages/HomePage.tsx&#45;&gt;components/pages/Page.tsx -->
<g id="edge55" class="edge">
<title>components/pages/HomePage.tsx&#45;&gt;components/pages/Page.tsx</title>
<path fill="none" stroke="#757575" d="M485.43,-1112.59C510.42,-1115.7 537.61,-1119.09 563.14,-1122.27"/>
<polygon fill="#757575" stroke="#757575" points="562.85,-1125.76 573.21,-1123.52 563.71,-1118.81 562.85,-1125.76"/>
</g>
<!-- components/pages/MessagesPage.tsx -->
<g id="node39" class="node">
<title>components/pages/MessagesPage.tsx</title>
<path fill="none" stroke="#c6c5fe" d="M509.33,-1071.58C509.33,-1071.58 274.67,-1071.58 274.67,-1071.58 270.83,-1071.58 267,-1067.74 267,-1063.91 267,-1063.91 267,-1056.24 267,-1056.24 267,-1052.41 270.83,-1048.58 274.67,-1048.58 274.67,-1048.58 509.33,-1048.58 509.33,-1048.58 513.17,-1048.58 517,-1052.41 517,-1056.24 517,-1056.24 517,-1063.91 517,-1063.91 517,-1067.74 513.17,-1071.58 509.33,-1071.58"/>
<text text-anchor="middle" x="392" y="-1056.38" font-family="Arial" font-size="14.00" fill="#c6c5fe">components/pages/MessagesPage.tsx</text>
</g>
<!-- components/pages/MessagesPage.tsx&#45;&gt;components/pages/Page.tsx -->
<g id="edge56" class="edge">
<title>components/pages/MessagesPage.tsx&#45;&gt;components/pages/Page.tsx</title>
<path fill="none" stroke="#757575" d="M493.47,-1071.64C501.59,-1073.97 509.53,-1076.75 517,-1080.08 535.77,-1088.44 534.52,-1100.1 553,-1109.08 562.64,-1113.76 573.15,-1117.61 583.75,-1120.79"/>
<polygon fill="#757575" stroke="#757575" points="582.93,-1124.19 593.5,-1123.52 584.81,-1117.45 582.93,-1124.19"/>
</g>
<!-- components/pages/NotFoundPage.tsx -->
<g id="node40" class="node">
<title>components/pages/NotFoundPage.tsx</title>
<path fill="none" stroke="#cfffac" d="M507.83,-907.58C507.83,-907.58 276.17,-907.58 276.17,-907.58 272.33,-907.58 268.5,-903.74 268.5,-899.91 268.5,-899.91 268.5,-892.24 268.5,-892.24 268.5,-888.41 272.33,-884.58 276.17,-884.58 276.17,-884.58 507.83,-884.58 507.83,-884.58 511.67,-884.58 515.5,-888.41 515.5,-892.24 515.5,-892.24 515.5,-899.91 515.5,-899.91 515.5,-903.74 511.67,-907.58 507.83,-907.58"/>
<text text-anchor="middle" x="392" y="-892.38" font-family="Arial" font-size="14.00" fill="#cfffac">components/pages/NotFoundPage.tsx</text>
</g>
<!-- components/pages/SellPage.tsx -->
<g id="node41" class="node">
<title>components/pages/SellPage.tsx</title>
<path fill="none" stroke="#c6c5fe" d="M489.33,-1030.58C489.33,-1030.58 294.67,-1030.58 294.67,-1030.58 290.83,-1030.58 287,-1026.74 287,-1022.91 287,-1022.91 287,-1015.24 287,-1015.24 287,-1011.41 290.83,-1007.58 294.67,-1007.58 294.67,-1007.58 489.33,-1007.58 489.33,-1007.58 493.17,-1007.58 497,-1011.41 497,-1015.24 497,-1015.24 497,-1022.91 497,-1022.91 497,-1026.74 493.17,-1030.58 489.33,-1030.58"/>
<text text-anchor="middle" x="392" y="-1015.38" font-family="Arial" font-size="14.00" fill="#c6c5fe">components/pages/SellPage.tsx</text>
</g>
<!-- components/pages/SellPage.tsx&#45;&gt;main/MenuConfig.ts -->
<g id="edge59" class="edge">
<title>components/pages/SellPage.tsx&#45;&gt;main/MenuConfig.ts</title>
<path fill="none" stroke="#757575" d="M494.94,-1030.64C502.57,-1032.97 510.01,-1035.76 517,-1039.08 536.34,-1048.26 533.66,-1061.9 553,-1071.08 581.83,-1084.76 769.37,-1111.31 878.34,-1125.88"/>
<polygon fill="#757575" stroke="#757575" points="877.94,-1129.36 888.31,-1127.21 878.86,-1122.42 877.94,-1129.36"/>
</g>
<!-- components/pages/SellPage.tsx&#45;&gt;components/menus/SubMenu.tsx -->
<g id="edge57" class="edge">
<title>components/pages/SellPage.tsx&#45;&gt;components/menus/SubMenu.tsx</title>
<path fill="none" stroke="#757575" d="M497.38,-1018.31C513.58,-1018.19 530.43,-1018.07 546.93,-1017.95"/>
<polygon fill="#757575" stroke="#757575" points="547.17,-1021.45 557.15,-1017.87 547.12,-1014.45 547.17,-1021.45"/>
</g>
<!-- components/pages/SellPage.tsx&#45;&gt;components/pages/Page.tsx -->
<g id="edge58" class="edge">
<title>components/pages/SellPage.tsx&#45;&gt;components/pages/Page.tsx</title>
<path fill="none" stroke="#757575" d="M497.18,-1028.16C504.21,-1031.07 510.91,-1034.66 517,-1039.08 545.31,-1059.63 525.38,-1087.6 553,-1109.08 558.16,-1113.09 563.83,-1116.51 569.8,-1119.41"/>
<polygon fill="#757575" stroke="#757575" points="568.83,-1122.8 579.4,-1123.56 571.61,-1116.37 568.83,-1122.8"/>
</g>
<!-- components/views/CatalogView.tsx -->
<g id="node42" class="node">
<title>components/views/CatalogView.tsx</title>
<path fill="none" stroke="#c6c5fe" d="M498.33,-564.58C498.33,-564.58 285.67,-564.58 285.67,-564.58 281.83,-564.58 278,-560.74 278,-556.91 278,-556.91 278,-549.24 278,-549.24 278,-545.41 281.83,-541.58 285.67,-541.58 285.67,-541.58 498.33,-541.58 498.33,-541.58 502.17,-541.58 506,-545.41 506,-549.24 506,-549.24 506,-556.91 506,-556.91 506,-560.74 502.17,-564.58 498.33,-564.58"/>
<text text-anchor="middle" x="392" y="-549.38" font-family="Arial" font-size="14.00" fill="#c6c5fe">components/views/CatalogView.tsx</text>
</g>
<!-- components/views/CatalogView.tsx&#45;&gt;types/dto.d.ts -->
<g id="edge63" class="edge">
<title>components/views/CatalogView.tsx&#45;&gt;types/dto.d.ts</title>
<path fill="none" stroke="#757575" d="M419.88,-541.53C451.21,-528.62 504.85,-508.19 553,-498.08 668.22,-473.86 699.65,-485.59 817,-476.08 1075.94,-455.08 1141.39,-441.4 1401,-451.08 1538.17,-456.19 1572.24,-462.28 1709,-474.08 1744.1,-477.1 1783.4,-480.94 1814.67,-484.09"/>
<polygon fill="#757575" stroke="#757575" points="1814.65,-487.61 1824.95,-485.13 1815.35,-480.64 1814.65,-487.61"/>
</g>
<!-- components/views/CatalogView.tsx&#45;&gt;components/lists/ProductList.tsx -->
<g id="edge60" class="edge">
<title>components/views/CatalogView.tsx&#45;&gt;components/lists/ProductList.tsx</title>
<path fill="none" stroke="#757575" d="M506.01,-553.08C521.03,-553.08 536.44,-553.08 551.48,-553.08"/>
<polygon fill="#757575" stroke="#757575" points="551.82,-556.58 561.82,-553.08 551.82,-549.58 551.82,-556.58"/>
</g>
<!-- components/views/CatalogView.tsx&#45;&gt;components/modals/MakeProductModal.tsx -->
<g id="edge61" class="edge">
<title>components/views/CatalogView.tsx&#45;&gt;components/modals/MakeProductModal.tsx</title>
<path fill="none" stroke="#757575" d="M475.51,-564.59C500.37,-567.73 527.76,-570.88 553,-573.08 636.76,-580.38 730.54,-585.23 806.6,-588.32"/>
<polygon fill="#757575" stroke="#757575" points="806.6,-591.82 816.74,-588.72 806.89,-584.83 806.6,-591.82"/>
</g>
<!-- services/CatalogService.ts -->
<g id="node43" class="node">
<title>services/CatalogService.ts</title>
<path fill="none" stroke="#c6c5fe" d="M1347.83,-483.58C1347.83,-483.58 1187.17,-483.58 1187.17,-483.58 1183.33,-483.58 1179.5,-479.74 1179.5,-475.91 1179.5,-475.91 1179.5,-468.24 1179.5,-468.24 1179.5,-464.41 1183.33,-460.58 1187.17,-460.58 1187.17,-460.58 1347.83,-460.58 1347.83,-460.58 1351.67,-460.58 1355.5,-464.41 1355.5,-468.24 1355.5,-468.24 1355.5,-475.91 1355.5,-475.91 1355.5,-479.74 1351.67,-483.58 1347.83,-483.58"/>
<text text-anchor="middle" x="1267.5" y="-468.38" font-family="Arial" font-size="14.00" fill="#c6c5fe">services/CatalogService.ts</text>
</g>
<!-- components/views/CatalogView.tsx&#45;&gt;services/CatalogService.ts -->
<g id="edge62" class="edge">
<title>components/views/CatalogView.tsx&#45;&gt;services/CatalogService.ts</title>
<path fill="none" stroke="#757575" d="M480.6,-541.54C504.11,-538.45 529.52,-535.13 553,-532.08 670.31,-516.82 699.21,-509.05 817,-498.08 938.16,-486.79 1078.17,-479.61 1169.31,-475.72"/>
<polygon fill="#757575" stroke="#757575" points="1169.51,-479.22 1179.35,-475.3 1169.21,-472.23 1169.51,-479.22"/>
</g>
<!-- services/CatalogService.ts&#45;&gt;types/dto.d.ts -->
<g id="edge92" class="edge">
<title>services/CatalogService.ts&#45;&gt;types/dto.d.ts</title>
<path fill="none" stroke="#757575" d="M1355.68,-474.68C1480.88,-478.41 1708.21,-485.18 1814.64,-488.35"/>
<polygon fill="#757575" stroke="#757575" points="1814.76,-491.86 1824.86,-488.66 1814.97,-484.86 1814.76,-491.86"/>
</g>
<!-- services/CatalogService.ts&#45;&gt;types/types.d.ts -->
<g id="edge93" class="edge">
<title>services/CatalogService.ts&#45;&gt;types/types.d.ts</title>
<path fill="none" stroke="#757575" d="M1314.22,-483.64C1395.01,-504.56 1567.83,-551.54 1709,-605.08 1843.06,-655.92 1877.66,-668.68 2002,-740.08 2025.88,-753.79 2051.45,-772.07 2069.21,-785.41"/>
<polygon fill="#757575" stroke="#757575" points="2067.18,-788.26 2077.26,-791.52 2071.41,-782.68 2067.18,-788.26"/>
</g>
<!-- components/views/CatalogsView.tsx -->
<g id="node44" class="node">
<title>components/views/CatalogsView.tsx</title>
<path fill="none" stroke="#c6c5fe" d="M501.83,-349.58C501.83,-349.58 282.17,-349.58 282.17,-349.58 278.33,-349.58 274.5,-345.74 274.5,-341.91 274.5,-341.91 274.5,-334.24 274.5,-334.24 274.5,-330.41 278.33,-326.58 282.17,-326.58 282.17,-326.58 501.83,-326.58 501.83,-326.58 505.67,-326.58 509.5,-330.41 509.5,-334.24 509.5,-334.24 509.5,-341.91 509.5,-341.91 509.5,-345.74 505.67,-349.58 501.83,-349.58"/>
<text text-anchor="middle" x="392" y="-334.38" font-family="Arial" font-size="14.00" fill="#c6c5fe">components/views/CatalogsView.tsx</text>
</g>
<!-- components/views/CatalogsView.tsx&#45;&gt;types/dto.d.ts -->
<g id="edge67" class="edge">
<title>components/views/CatalogsView.tsx&#45;&gt;types/dto.d.ts</title>
<path fill="none" stroke="#757575" d="M509.59,-332.52C810.91,-318.87 1599.68,-287.89 1709,-332.08 1778.54,-360.19 1834.93,-433.62 1859.37,-469.6"/>
<polygon fill="#757575" stroke="#757575" points="1856.7,-471.9 1865.15,-478.29 1862.53,-468.03 1856.7,-471.9"/>
</g>
<!-- components/views/CatalogsView.tsx&#45;&gt;components/lists/CatalogList.tsx -->
<g id="edge64" class="edge">
<title>components/views/CatalogsView.tsx&#45;&gt;components/lists/CatalogList.tsx</title>
<path fill="none" stroke="#757575" d="M478.37,-326.52C491.43,-323.92 504.67,-320.8 517,-317.08 533.76,-312.02 536.39,-306.62 553,-301.08 566.81,-296.47 581.83,-292.39 596.28,-288.91"/>
<polygon fill="#757575" stroke="#757575" points="597.23,-292.28 606.17,-286.59 595.64,-285.46 597.23,-292.28"/>
</g>
<!-- components/views/CatalogsView.tsx&#45;&gt;components/modals/MakeCatalogModal.tsx -->
<g id="edge65" class="edge">
<title>components/views/CatalogsView.tsx&#45;&gt;components/modals/MakeCatalogModal.tsx</title>
<path fill="none" stroke="#757575" d="M500.04,-326.51C506.01,-323.88 511.72,-320.77 517,-317.08 543.44,-298.61 525.5,-270.92 553,-254.08 660.37,-188.34 815.56,-205.46 898.72,-221.55"/>
<polygon fill="#757575" stroke="#757575" points="898.25,-225.02 908.74,-223.55 899.62,-218.16 898.25,-225.02"/>
</g>
<!-- components/views/CatalogsView.tsx&#45;&gt;services/CatalogService.ts -->
<g id="edge66" class="edge">
<title>components/views/CatalogsView.tsx&#45;&gt;services/CatalogService.ts</title>
<path fill="none" stroke="#757575" d="M468.23,-349.62C630.22,-374.47 1011.14,-432.9 1181.52,-459.04"/>
<polygon fill="#757575" stroke="#757575" points="1181.04,-462.51 1191.45,-460.56 1182.1,-455.59 1181.04,-462.51"/>
</g>
<!-- components/views/ProductView.tsx -->
<g id="node45" class="node">
<title>components/views/ProductView.tsx</title>
<path fill="none" stroke="#c6c5fe" d="M773.33,-739.58C773.33,-739.58 560.67,-739.58 560.67,-739.58 556.83,-739.58 553,-735.74 553,-731.91 553,-731.91 553,-724.24 553,-724.24 553,-720.41 556.83,-716.58 560.67,-716.58 560.67,-716.58 773.33,-716.58 773.33,-716.58 777.17,-716.58 781,-720.41 781,-724.24 781,-724.24 781,-731.91 781,-731.91 781,-735.74 777.17,-739.58 773.33,-739.58"/>
<text text-anchor="middle" x="667" y="-724.38" font-family="Arial" font-size="14.00" fill="#c6c5fe">components/views/ProductView.tsx</text>
</g>
<!-- components/views/ProductView.tsx&#45;&gt;types/dto.d.ts -->
<g id="edge71" class="edge">
<title>components/views/ProductView.tsx&#45;&gt;types/dto.d.ts</title>
<path fill="none" stroke="#757575" d="M781.13,-718.33C913.41,-706.94 1116.65,-689.46 1134,-688.08 1197.86,-683 1650.44,-672.05 1709,-646.08 1776.82,-616 1833.66,-545.24 1858.73,-510.31"/>
<polygon fill="#757575" stroke="#757575" points="1861.79,-512.05 1864.68,-501.86 1856.06,-508.02 1861.79,-512.05"/>
</g>
<!-- components/views/ProductView.tsx&#45;&gt;types/types.d.ts -->
<g id="edge72" class="edge">
<title>components/views/ProductView.tsx&#45;&gt;types/types.d.ts</title>
<path fill="none" stroke="#757575" d="M706.6,-739.6C736.5,-748.18 779.08,-759.65 817,-767.08 940.62,-791.29 984.63,-749.16 1098,-804.08 1118.08,-813.81 1114.06,-829.06 1134,-839.08 1241.41,-893.03 1294.72,-825.93 1401,-882.08 1421.57,-892.94 1415.63,-910.88 1437,-920.08 1494.67,-944.88 1945.68,-947.81 2002,-920.08 2042.54,-900.11 2069.94,-852.14 2083.06,-824.21"/>
<polygon fill="#757575" stroke="#757575" points="2086.33,-825.48 2087.24,-814.92 2079.94,-822.6 2086.33,-825.48"/>
</g>
<!-- components/views/ProductView.tsx&#45;&gt;services/RestService.ts -->
<g id="edge70" class="edge">
<title>components/views/ProductView.tsx&#45;&gt;services/RestService.ts</title>
<path fill="none" stroke="#757575" d="M781.21,-731.91C889,-736.9 1042.74,-747.89 1098,-771.08 1117.21,-779.13 1115.12,-792.28 1134,-801.08 1243.27,-852.03 1289.6,-802.97 1401,-849.08 1419,-856.53 1419.05,-866.52 1437,-874.08 1451.85,-880.33 1468.25,-885.09 1484.35,-888.72"/>
<polygon fill="#757575" stroke="#757575" points="1483.82,-892.18 1494.32,-890.83 1485.27,-885.33 1483.82,-892.18"/>
</g>
<!-- components/views/ProductView.tsx&#45;&gt;components/modals/MakeProductModal.tsx -->
<g id="edge68" class="edge">
<title>components/views/ProductView.tsx&#45;&gt;components/modals/MakeProductModal.tsx</title>
<path fill="none" stroke="#757575" d="M679.94,-716.33C703.79,-693.62 759.92,-643.74 817,-619.08 828.24,-614.22 840.38,-610.27 852.64,-607.05"/>
<polygon fill="#757575" stroke="#757575" points="853.61,-610.42 862.48,-604.63 851.93,-603.62 853.61,-610.42"/>
</g>
<!-- services/ProductService.ts -->
<g id="node46" class="node">
<title>services/ProductService.ts</title>
<path fill="none" stroke="#c6c5fe" d="M1653.33,-637.58C1653.33,-637.58 1492.67,-637.58 1492.67,-637.58 1488.83,-637.58 1485,-633.74 1485,-629.91 1485,-629.91 1485,-622.24 1485,-622.24 1485,-618.41 1488.83,-614.58 1492.67,-614.58 1492.67,-614.58 1653.33,-614.58 1653.33,-614.58 1657.17,-614.58 1661,-618.41 1661,-622.24 1661,-622.24 1661,-629.91 1661,-629.91 1661,-633.74 1657.17,-637.58 1653.33,-637.58"/>
<text text-anchor="middle" x="1573" y="-622.38" font-family="Arial" font-size="14.00" fill="#c6c5fe">services/ProductService.ts</text>
</g>
<!-- components/views/ProductView.tsx&#45;&gt;services/ProductService.ts -->
<g id="edge69" class="edge">
<title>components/views/ProductView.tsx&#45;&gt;services/ProductService.ts</title>
<path fill="none" stroke="#757575" d="M714.75,-716.56C744,-709.64 782.54,-701.05 817,-695.08 1050.98,-654.49 1330.16,-636.84 1474.62,-629.96"/>
<polygon fill="#757575" stroke="#757575" points="1474.96,-633.44 1484.78,-629.48 1474.63,-626.45 1474.96,-633.44"/>
</g>
<!-- services/ProductService.ts&#45;&gt;types/dto.d.ts -->
<g id="edge95" class="edge">
<title>services/ProductService.ts&#45;&gt;types/dto.d.ts</title>
<path fill="none" stroke="#757575" d="M1661.21,-614.62C1677.44,-611 1694,-606.27 1709,-600.08 1764.84,-577.04 1821.43,-533.45 1851.18,-508.62"/>
<polygon fill="#757575" stroke="#757575" points="1853.8,-510.99 1859.17,-501.85 1849.28,-505.64 1853.8,-510.99"/>
</g>
<!-- components/views/ProfileView.tsx -->
<g id="node47" class="node">
<title>components/views/ProfileView.tsx</title>
<path fill="none" stroke="#cfffac" d="M494.33,-308.58C494.33,-308.58 289.67,-308.58 289.67,-308.58 285.83,-308.58 282,-304.74 282,-300.91 282,-300.91 282,-293.24 282,-293.24 282,-289.41 285.83,-285.58 289.67,-285.58 289.67,-285.58 494.33,-285.58 494.33,-285.58 498.17,-285.58 502,-289.41 502,-293.24 502,-293.24 502,-300.91 502,-300.91 502,-304.74 498.17,-308.58 494.33,-308.58"/>
<text text-anchor="middle" x="392" y="-293.38" font-family="Arial" font-size="14.00" fill="#cfffac">components/views/ProfileView.tsx</text>
</g>
<!-- index.css -->
<g id="node48" class="node">
<title>index.css</title>
<path fill="none" stroke="#cfffac" d="M420.83,-1194.58C420.83,-1194.58 363.17,-1194.58 363.17,-1194.58 359.33,-1194.58 355.5,-1190.74 355.5,-1186.91 355.5,-1186.91 355.5,-1179.24 355.5,-1179.24 355.5,-1175.41 359.33,-1171.58 363.17,-1171.58 363.17,-1171.58 420.83,-1171.58 420.83,-1171.58 424.67,-1171.58 428.5,-1175.41 428.5,-1179.24 428.5,-1179.24 428.5,-1186.91 428.5,-1186.91 428.5,-1190.74 424.67,-1194.58 420.83,-1194.58"/>
<text text-anchor="middle" x="392" y="-1179.38" font-family="Arial" font-size="14.00" fill="#cfffac">index.css</text>
</g>
<!-- index.tsx -->
<g id="node49" class="node">
<title>index.tsx</title>
<path fill="none" stroke="#c6c5fe" d="M142.83,-1010.58C142.83,-1010.58 88.17,-1010.58 88.17,-1010.58 84.33,-1010.58 80.5,-1006.74 80.5,-1002.91 80.5,-1002.91 80.5,-995.24 80.5,-995.24 80.5,-991.41 84.33,-987.58 88.17,-987.58 88.17,-987.58 142.83,-987.58 142.83,-987.58 146.67,-987.58 150.5,-991.41 150.5,-995.24 150.5,-995.24 150.5,-1002.91 150.5,-1002.91 150.5,-1006.74 146.67,-1010.58 142.83,-1010.58"/>
<text text-anchor="middle" x="115.5" y="-995.38" font-family="Arial" font-size="14.00" fill="#c6c5fe">index.tsx</text>
</g>
<!-- index.tsx&#45;&gt;components/containers/App.tsx -->
<g id="edge75" class="edge">
<title>index.tsx&#45;&gt;components/containers/App.tsx</title>
<path fill="none" stroke="#757575" d="M120.2,-1010.82C133.19,-1050.01 180.66,-1177.14 267,-1237.08 273.02,-1241.26 279.58,-1244.79 286.44,-1247.78"/>
<polygon fill="#757575" stroke="#757575" points="285.35,-1251.11 295.94,-1251.51 287.91,-1244.6 285.35,-1251.11"/>
</g>
<!-- index.tsx&#45;&gt;main/RoutePath.ts -->
<g id="edge87" class="edge">
<title>index.tsx&#45;&gt;main/RoutePath.ts</title>
<path fill="none" stroke="#757575" d="M120.73,-1010.83C134.7,-1047.66 183.32,-1160.82 267,-1203.08 308.16,-1223.86 969.58,-1190.16 1193.25,-1178.11"/>
<polygon fill="#757575" stroke="#757575" points="1193.45,-1181.6 1203.25,-1177.57 1193.07,-1174.61 1193.45,-1181.6"/>
</g>
<!-- index.tsx&#45;&gt;components/pages/AccountPage.tsx -->
<g id="edge76" class="edge">
<title>index.tsx&#45;&gt;components/pages/AccountPage.tsx</title>
<path fill="none" stroke="#757575" d="M150.71,-996.46C179.32,-994.27 222.01,-991 263.51,-987.83"/>
<polygon fill="#757575" stroke="#757575" points="264.04,-991.3 273.74,-987.05 263.5,-984.32 264.04,-991.3"/>
</g>
<!-- index.tsx&#45;&gt;components/pages/AuthPage.tsx -->
<g id="edge77" class="edge">
<title>index.tsx&#45;&gt;components/pages/AuthPage.tsx</title>
<path fill="none" stroke="#757575" d="M126.43,-987.5C148.72,-962.36 205.61,-902.83 267,-875.08 271.37,-873.1 275.89,-871.32 280.53,-869.71"/>
<polygon fill="#757575" stroke="#757575" points="281.69,-873.01 290.16,-866.65 279.57,-866.34 281.69,-873.01"/>
</g>
<!-- index.tsx&#45;&gt;components/pages/HomePage.tsx -->
<g id="edge78" class="edge">
<title>index.tsx&#45;&gt;components/pages/HomePage.tsx</title>
<path fill="none" stroke="#757575" d="M133.71,-1010.78C160.8,-1028.63 215.64,-1062.44 267,-1080.08 274.94,-1082.8 283.29,-1085.18 291.76,-1087.26"/>
<polygon fill="#757575" stroke="#757575" points="291.19,-1090.72 301.72,-1089.57 292.77,-1083.9 291.19,-1090.72"/>
</g>
<!-- index.tsx&#45;&gt;components/pages/MessagesPage.tsx -->
<g id="edge79" class="edge">
<title>index.tsx&#45;&gt;components/pages/MessagesPage.tsx</title>
<path fill="none" stroke="#757575" d="M150.65,-1009.12C181.01,-1017.81 226.71,-1030.33 267,-1039.08 279.58,-1041.81 292.95,-1044.4 306.07,-1046.76"/>
<polygon fill="#757575" stroke="#757575" points="305.58,-1050.23 316.03,-1048.52 306.8,-1043.34 305.58,-1050.23"/>
</g>
<!-- index.tsx&#45;&gt;components/pages/NotFoundPage.tsx -->
<g id="edge80" class="edge">
<title>index.tsx&#45;&gt;components/pages/NotFoundPage.tsx</title>
<path fill="none" stroke="#757575" d="M133.2,-987.32C160.05,-969.02 215.09,-933.97 267,-916.08 273.51,-913.83 280.3,-911.84 287.2,-910.07"/>
<polygon fill="#757575" stroke="#757575" points="288.47,-913.36 297.38,-907.62 286.84,-906.55 288.47,-913.36"/>
</g>
<!-- index.tsx&#45;&gt;components/pages/SellPage.tsx -->
<g id="edge81" class="edge">
<title>index.tsx&#45;&gt;components/pages/SellPage.tsx</title>
<path fill="none" stroke="#757575" d="M150.71,-1001.57C182.38,-1003.88 231.29,-1007.44 276.74,-1010.75"/>
<polygon fill="#757575" stroke="#757575" points="276.76,-1014.26 286.98,-1011.5 277.26,-1007.28 276.76,-1014.26"/>
</g>
<!-- index.tsx&#45;&gt;components/views/CatalogView.tsx -->
<g id="edge82" class="edge">
<title>index.tsx&#45;&gt;components/views/CatalogView.tsx</title>
<path fill="none" stroke="#757575" d="M123.29,-987.5C144.33,-951.71 210.4,-839.72 267,-748.08 306.67,-683.84 355.02,-608.67 377.86,-573.36"/>
<polygon fill="#757575" stroke="#757575" points="380.85,-575.18 383.34,-564.88 374.97,-571.37 380.85,-575.18"/>
</g>
<!-- index.tsx&#45;&gt;components/views/CatalogsView.tsx -->
<g id="edge83" class="edge">
<title>index.tsx&#45;&gt;components/views/CatalogsView.tsx</title>
<path fill="none" stroke="#757575" d="M119.07,-987.46C131.2,-933.8 185.5,-705.08 267,-532.08 298.9,-464.36 350.48,-391.9 375.88,-357.88"/>
<polygon fill="#757575" stroke="#757575" points="378.81,-359.8 382.03,-349.71 373.22,-355.59 378.81,-359.8"/>
</g>
<!-- index.tsx&#45;&gt;components/views/ProductView.tsx -->
<g id="edge84" class="edge">
<title>index.tsx&#45;&gt;components/views/ProductView.tsx</title>
<path fill="none" stroke="#757575" d="M123.67,-987.4C142.88,-957.11 198.72,-875.52 267,-834.08 353.55,-781.55 466.07,-754.71 549.55,-741.21"/>
<polygon fill="#757575" stroke="#757575" points="550.25,-744.65 559.58,-739.63 549.16,-737.73 550.25,-744.65"/>
</g>
<!-- index.tsx&#45;&gt;components/views/ProfileView.tsx -->
<g id="edge85" class="edge">
<title>index.tsx&#45;&gt;components/views/ProfileView.tsx</title>
<path fill="none" stroke="#757575" d="M117.32,-987.52C123.36,-905.73 163.64,-414.68 267,-317.08 268.98,-315.21 271.06,-313.48 273.22,-311.87"/>
<polygon fill="#757575" stroke="#757575" points="275.43,-314.61 281.97,-306.28 271.66,-308.71 275.43,-314.61"/>
</g>
<!-- index.tsx&#45;&gt;index.css -->
<g id="edge86" class="edge">
<title>index.tsx&#45;&gt;index.css</title>
<path fill="none" stroke="#757575" d="M123.5,-1010.98C142.3,-1041.77 197.24,-1124.28 267,-1162.08 290.85,-1175 320.76,-1180.33 345.23,-1182.38"/>
<polygon fill="#757575" stroke="#757575" points="345.13,-1185.89 355.35,-1183.08 345.61,-1178.9 345.13,-1185.89"/>
</g>
<!-- reportWebVitals.ts -->
<g id="node50" class="node">
<title>reportWebVitals.ts</title>
<path fill="none" stroke="#cfffac" d="M447.83,-1153.58C447.83,-1153.58 336.17,-1153.58 336.17,-1153.58 332.33,-1153.58 328.5,-1149.74 328.5,-1145.91 328.5,-1145.91 328.5,-1138.24 328.5,-1138.24 328.5,-1134.41 332.33,-1130.58 336.17,-1130.58 336.17,-1130.58 447.83,-1130.58 447.83,-1130.58 451.67,-1130.58 455.5,-1134.41 455.5,-1138.24 455.5,-1138.24 455.5,-1145.91 455.5,-1145.91 455.5,-1149.74 451.67,-1153.58 447.83,-1153.58"/>
<text text-anchor="middle" x="392" y="-1138.38" font-family="Arial" font-size="14.00" fill="#cfffac">reportWebVitals.ts</text>
</g>
<!-- index.tsx&#45;&gt;reportWebVitals.ts -->
<g id="edge88" class="edge">
<title>index.tsx&#45;&gt;reportWebVitals.ts</title>
<path fill="none" stroke="#757575" d="M126.83,-1010.8C149.47,-1035.67 206.31,-1093.65 267,-1121.08 282.88,-1128.26 300.92,-1133 318.22,-1136.13"/>
<polygon fill="#757575" stroke="#757575" points="317.86,-1139.62 328.3,-1137.79 319,-1132.71 317.86,-1139.62"/>
</g>
<!-- react&#45;app&#45;env.d.ts -->
<g id="node51" class="node">
<title>react&#45;app&#45;env.d.ts</title>
<path fill="none" stroke="#cfffac" d="M170.33,-1397.58C170.33,-1397.58 60.67,-1397.58 60.67,-1397.58 56.83,-1397.58 53,-1393.74 53,-1389.91 53,-1389.91 53,-1382.24 53,-1382.24 53,-1378.41 56.83,-1374.58 60.67,-1374.58 60.67,-1374.58 170.33,-1374.58 170.33,-1374.58 174.17,-1374.58 178,-1378.41 178,-1382.24 178,-1382.24 178,-1389.91 178,-1389.91 178,-1393.74 174.17,-1397.58 170.33,-1397.58"/>
<text text-anchor="middle" x="115.5" y="-1382.38" font-family="Arial" font-size="14.00" fill="#cfffac">react&#45;app&#45;env.d.ts</text>
</g>
<!-- services/LocalData.ts -->
<g id="node53" class="node">
<title>services/LocalData.ts</title>
<path fill="none" stroke="#cfffac" d="M180.33,-1438.58C180.33,-1438.58 50.67,-1438.58 50.67,-1438.58 46.83,-1438.58 43,-1434.74 43,-1430.91 43,-1430.91 43,-1423.24 43,-1423.24 43,-1419.41 46.83,-1415.58 50.67,-1415.58 50.67,-1415.58 180.33,-1415.58 180.33,-1415.58 184.17,-1415.58 188,-1419.41 188,-1423.24 188,-1423.24 188,-1430.91 188,-1430.91 188,-1434.74 184.17,-1438.58 180.33,-1438.58"/>
<text text-anchor="middle" x="115.5" y="-1423.38" font-family="Arial" font-size="14.00" fill="#cfffac">services/LocalData.ts</text>
</g>
<!-- setupTests.ts -->
<g id="node55" class="node">
<title>setupTests.ts</title>
<path fill="none" stroke="#cfffac" d="M155.33,-1479.58C155.33,-1479.58 75.67,-1479.58 75.67,-1479.58 71.83,-1479.58 68,-1475.74 68,-1471.91 68,-1471.91 68,-1464.24 68,-1464.24 68,-1460.41 71.83,-1456.58 75.67,-1456.58 75.67,-1456.58 155.33,-1456.58 155.33,-1456.58 159.17,-1456.58 163,-1460.41 163,-1464.24 163,-1464.24 163,-1471.91 163,-1471.91 163,-1475.74 159.17,-1479.58 155.33,-1479.58"/>
<text text-anchor="middle" x="115.5" y="-1464.38" font-family="Arial" font-size="14.00" fill="#cfffac">setupTests.ts</text>
</g>
</g>
</svg>
