<?xml version="1.0" encoding="UTF-8" standalone="no"?>
<!DOCTYPE svg PUBLIC "-//W3C//DTD SVG 1.1//EN"
 "http://www.w3.org/Graphics/SVG/1.1/DTD/svg11.dtd">
<!-- Generated by graphviz version 2.43.0 (0)
 -->
<!-- Title: G Pages: 1 -->
<svg width="1495pt" height="938pt"
 viewBox="0.00 0.00 1495.20 938.20" xmlns="http://www.w3.org/2000/svg" xmlns:xlink="http://www.w3.org/1999/xlink">
<g id="graph0" class="graph" transform="scale(1 1) rotate(0) translate(21.6 916.6)">
<title>G</title>
<polygon fill="#111111" stroke="transparent" points="-21.6,21.6 -21.6,-916.6 1473.6,-916.6 1473.6,21.6 -21.6,21.6"/>
<!-- components/Account/AccountView.tsx -->
<g id="node1" class="node">
<title>components/Account/AccountView.tsx</title>
<path fill="none" stroke="#cfffac" d="M998.33,-780C998.33,-780 768.67,-780 768.67,-780 764.83,-780 761,-776.17 761,-772.33 761,-772.33 761,-764.67 761,-764.67 761,-760.83 764.83,-757 768.67,-757 768.67,-757 998.33,-757 998.33,-757 1002.17,-757 1006,-760.83 1006,-764.67 1006,-764.67 1006,-772.33 1006,-772.33 1006,-776.17 1002.17,-780 998.33,-780"/>
<text text-anchor="middle" x="883.5" y="-764.8" font-family="Arial" font-size="14.00" fill="#cfffac">components/Account/AccountView.tsx</text>
</g>
<!-- components/AuthContainer.tsx -->
<g id="node2" class="node">
<title>components/AuthContainer.tsx</title>
<path fill="none" stroke="#c6c5fe" d="M423.83,-319C423.83,-319 238.17,-319 238.17,-319 234.33,-319 230.5,-315.17 230.5,-311.33 230.5,-311.33 230.5,-303.67 230.5,-303.67 230.5,-299.83 234.33,-296 238.17,-296 238.17,-296 423.83,-296 423.83,-296 427.67,-296 431.5,-299.83 431.5,-303.67 431.5,-303.67 431.5,-311.33 431.5,-311.33 431.5,-315.17 427.67,-319 423.83,-319"/>
<text text-anchor="middle" x="331" y="-303.8" font-family="Arial" font-size="14.00" fill="#c6c5fe">components/AuthContainer.tsx</text>
</g>
<!-- services/Firebase.ts -->
<g id="node3" class="node">
<title>services/Firebase.ts</title>
<path fill="none" stroke="#c6c5fe" d="M944.33,-297C944.33,-297 822.67,-297 822.67,-297 818.83,-297 815,-293.17 815,-289.33 815,-289.33 815,-281.67 815,-281.67 815,-277.83 818.83,-274 822.67,-274 822.67,-274 944.33,-274 944.33,-274 948.17,-274 952,-277.83 952,-281.67 952,-281.67 952,-289.33 952,-289.33 952,-293.17 948.17,-297 944.33,-297"/>
<text text-anchor="middle" x="883.5" y="-281.8" font-family="Arial" font-size="14.00" fill="#c6c5fe">services/Firebase.ts</text>
</g>
<!-- components/AuthContainer.tsx&#45;&gt;services/Firebase.ts -->
<g id="edge1" class="edge">
<title>components/AuthContainer.tsx&#45;&gt;services/Firebase.ts</title>
<path fill="none" stroke="#757575" d="M431.86,-310.32C511.36,-311.77 625.43,-312.05 725,-305.5 751.1,-303.78 779.5,-300.59 804.9,-297.25"/>
<polygon fill="#757575" stroke="#757575" points="805.39,-300.72 814.84,-295.92 804.46,-293.78 805.39,-300.72"/>
</g>
<!-- types/models.d.ts -->
<g id="node22" class="node">
<title>types/models.d.ts</title>
<path fill="none" stroke="#cfffac" d="M1208.33,-200C1208.33,-200 1101.67,-200 1101.67,-200 1097.83,-200 1094,-196.17 1094,-192.33 1094,-192.33 1094,-184.67 1094,-184.67 1094,-180.83 1097.83,-177 1101.67,-177 1101.67,-177 1208.33,-177 1208.33,-177 1212.17,-177 1216,-180.83 1216,-184.67 1216,-184.67 1216,-192.33 1216,-192.33 1216,-196.17 1212.17,-200 1208.33,-200"/>
<text text-anchor="middle" x="1155" y="-184.8" font-family="Arial" font-size="14.00" fill="#cfffac">types/models.d.ts</text>
</g>
<!-- services/Firebase.ts&#45;&gt;types/models.d.ts -->
<g id="edge51" class="edge">
<title>services/Firebase.ts&#45;&gt;types/models.d.ts</title>
<path fill="none" stroke="#757575" d="M952.12,-273.99C969.88,-270.17 988.85,-265.36 1006,-259.5 1048.83,-244.87 1095.48,-221.07 1124.72,-205.11"/>
<polygon fill="#757575" stroke="#757575" points="1126.51,-208.11 1133.58,-200.22 1123.13,-201.99 1126.51,-208.11"/>
</g>
<!-- components/AuthFrom.tsx -->
<g id="node4" class="node">
<title>components/AuthFrom.tsx</title>
<path fill="none" stroke="#ff6c60" d="M1235.33,-417C1235.33,-417 1074.67,-417 1074.67,-417 1070.83,-417 1067,-413.17 1067,-409.33 1067,-409.33 1067,-401.67 1067,-401.67 1067,-397.83 1070.83,-394 1074.67,-394 1074.67,-394 1235.33,-394 1235.33,-394 1239.17,-394 1243,-397.83 1243,-401.67 1243,-401.67 1243,-409.33 1243,-409.33 1243,-413.17 1239.17,-417 1235.33,-417"/>
<text text-anchor="middle" x="1155" y="-401.8" font-family="Arial" font-size="14.00" fill="#ff6c60">components/AuthFrom.tsx</text>
</g>
<!-- components/Form.tsx -->
<g id="node5" class="node">
<title>components/Form.tsx</title>
<path fill="none" stroke="#cfffac" d="M1444.33,-417C1444.33,-417 1311.67,-417 1311.67,-417 1307.83,-417 1304,-413.17 1304,-409.33 1304,-409.33 1304,-401.67 1304,-401.67 1304,-397.83 1307.83,-394 1311.67,-394 1311.67,-394 1444.33,-394 1444.33,-394 1448.17,-394 1452,-397.83 1452,-401.67 1452,-401.67 1452,-409.33 1452,-409.33 1452,-413.17 1448.17,-417 1444.33,-417"/>
<text text-anchor="middle" x="1378" y="-401.8" font-family="Arial" font-size="14.00" fill="#cfffac">components/Form.tsx</text>
</g>
<!-- components/AuthFrom.tsx&#45;&gt;components/Form.tsx -->
<g id="edge2" class="edge">
<title>components/AuthFrom.tsx&#45;&gt;components/Form.tsx</title>
<path fill="none" stroke="#757575" d="M1243.03,-405.5C1259.73,-405.5 1277.19,-405.5 1293.77,-405.5"/>
<polygon fill="#757575" stroke="#757575" points="1293.97,-409 1303.97,-405.5 1293.97,-402 1293.97,-409"/>
</g>
<!-- components/FormInputGroup.tsx -->
<g id="node6" class="node">
<title>components/FormInputGroup.tsx</title>
<path fill="none" stroke="#ff6c60" d="M983.83,-377C983.83,-377 783.17,-377 783.17,-377 779.33,-377 775.5,-373.17 775.5,-369.33 775.5,-369.33 775.5,-361.67 775.5,-361.67 775.5,-357.83 779.33,-354 783.17,-354 783.17,-354 983.83,-354 983.83,-354 987.67,-354 991.5,-357.83 991.5,-361.67 991.5,-361.67 991.5,-369.33 991.5,-369.33 991.5,-373.17 987.67,-377 983.83,-377"/>
<text text-anchor="middle" x="883.5" y="-361.8" font-family="Arial" font-size="14.00" fill="#ff6c60">components/FormInputGroup.tsx</text>
</g>
<!-- components/AuthFrom.tsx&#45;&gt;components/FormInputGroup.tsx -->
<g id="edge3" class="edge">
<title>components/AuthFrom.tsx&#45;&gt;components/FormInputGroup.tsx</title>
<path fill="none" stroke="#757575" d="M1066.98,-398.94C1024.46,-393.36 974.65,-385.68 937.83,-378.92"/>
<polygon fill="#757575" stroke="#757575" points="938.27,-375.44 927.8,-377.04 936.98,-382.32 938.27,-375.44"/>
</g>
<!-- components/FormInputGroup.tsx&#45;&gt;components/AuthFrom.tsx -->
<g id="edge4" class="edge">
<title>components/FormInputGroup.tsx&#45;&gt;components/AuthFrom.tsx</title>
<path fill="none" stroke="#757575" d="M991.79,-374.8C1029.11,-379.99 1069.37,-386.34 1100.44,-392.04"/>
<polygon fill="#757575" stroke="#757575" points="1100.13,-395.54 1110.61,-393.94 1101.42,-388.66 1100.13,-395.54"/>
</g>
<!-- components/FormInputGroup.scss -->
<g id="node8" class="node">
<title>components/FormInputGroup.scss</title>
<path fill="none" stroke="#cfffac" d="M1260.33,-376C1260.33,-376 1049.67,-376 1049.67,-376 1045.83,-376 1042,-372.17 1042,-368.33 1042,-368.33 1042,-360.67 1042,-360.67 1042,-356.83 1045.83,-353 1049.67,-353 1049.67,-353 1260.33,-353 1260.33,-353 1264.17,-353 1268,-356.83 1268,-360.67 1268,-360.67 1268,-368.33 1268,-368.33 1268,-372.17 1264.17,-376 1260.33,-376"/>
<text text-anchor="middle" x="1155" y="-360.8" font-family="Arial" font-size="14.00" fill="#cfffac">components/FormInputGroup.scss</text>
</g>
<!-- components/FormInputGroup.tsx&#45;&gt;components/FormInputGroup.scss -->
<g id="edge5" class="edge">
<title>components/FormInputGroup.tsx&#45;&gt;components/FormInputGroup.scss</title>
<path fill="none" stroke="#757575" d="M991.79,-365.1C1004.89,-365.05 1018.35,-365 1031.65,-364.95"/>
<polygon fill="#757575" stroke="#757575" points="1031.79,-368.45 1041.78,-364.92 1031.77,-361.45 1031.79,-368.45"/>
</g>
<!-- components/Footer.tsx -->
<g id="node7" class="node">
<title>components/Footer.tsx</title>
<path fill="none" stroke="#cfffac" d="M158.83,-567C158.83,-567 20.17,-567 20.17,-567 16.33,-567 12.5,-563.17 12.5,-559.33 12.5,-559.33 12.5,-551.67 12.5,-551.67 12.5,-547.83 16.33,-544 20.17,-544 20.17,-544 158.83,-544 158.83,-544 162.67,-544 166.5,-547.83 166.5,-551.67 166.5,-551.67 166.5,-559.33 166.5,-559.33 166.5,-563.17 162.67,-567 158.83,-567"/>
<text text-anchor="middle" x="89.5" y="-551.8" font-family="Arial" font-size="14.00" fill="#cfffac">components/Footer.tsx</text>
</g>
<!-- components/Friends.tsx -->
<g id="node9" class="node">
<title>components/Friends.tsx</title>
<path fill="none" stroke="#cfffac" d="M162.33,-608C162.33,-608 16.67,-608 16.67,-608 12.83,-608 9,-604.17 9,-600.33 9,-600.33 9,-592.67 9,-592.67 9,-588.83 12.83,-585 16.67,-585 16.67,-585 162.33,-585 162.33,-585 166.17,-585 170,-588.83 170,-592.67 170,-592.67 170,-600.33 170,-600.33 170,-604.17 166.17,-608 162.33,-608"/>
<text text-anchor="middle" x="89.5" y="-592.8" font-family="Arial" font-size="14.00" fill="#cfffac">components/Friends.tsx</text>
</g>
<!-- components/MainMenu.tsx -->
<g id="node10" class="node">
<title>components/MainMenu.tsx</title>
<path fill="none" stroke="#c6c5fe" d="M686.33,-606C686.33,-606 521.67,-606 521.67,-606 517.83,-606 514,-602.17 514,-598.33 514,-598.33 514,-590.67 514,-590.67 514,-586.83 517.83,-583 521.67,-583 521.67,-583 686.33,-583 686.33,-583 690.17,-583 694,-586.83 694,-590.67 694,-590.67 694,-598.33 694,-598.33 694,-602.17 690.17,-606 686.33,-606"/>
<text text-anchor="middle" x="604" y="-590.8" font-family="Arial" font-size="14.00" fill="#c6c5fe">components/MainMenu.tsx</text>
</g>
<!-- router/routes.ts -->
<g id="node11" class="node">
<title>router/routes.ts</title>
<path fill="none" stroke="#cfffac" d="M929.33,-575C929.33,-575 837.67,-575 837.67,-575 833.83,-575 830,-571.17 830,-567.33 830,-567.33 830,-559.67 830,-559.67 830,-555.83 833.83,-552 837.67,-552 837.67,-552 929.33,-552 929.33,-552 933.17,-552 937,-555.83 937,-559.67 937,-559.67 937,-567.33 937,-567.33 937,-571.17 933.17,-575 929.33,-575"/>
<text text-anchor="middle" x="883.5" y="-559.8" font-family="Arial" font-size="14.00" fill="#cfffac">router/routes.ts</text>
</g>
<!-- components/MainMenu.tsx&#45;&gt;router/routes.ts -->
<g id="edge6" class="edge">
<title>components/MainMenu.tsx&#45;&gt;router/routes.ts</title>
<path fill="none" stroke="#757575" d="M694.33,-584.52C735.17,-579.96 782.58,-574.66 819.6,-570.53"/>
<polygon fill="#757575" stroke="#757575" points="820.2,-573.98 829.75,-569.39 819.42,-567.02 820.2,-573.98"/>
</g>
<!-- services/LocalData.ts -->
<g id="node12" class="node">
<title>services/LocalData.ts</title>
<path fill="none" stroke="#cfffac" d="M948.33,-616C948.33,-616 818.67,-616 818.67,-616 814.83,-616 811,-612.17 811,-608.33 811,-608.33 811,-600.67 811,-600.67 811,-596.83 814.83,-593 818.67,-593 818.67,-593 948.33,-593 948.33,-593 952.17,-593 956,-596.83 956,-600.67 956,-600.67 956,-608.33 956,-608.33 956,-612.17 952.17,-616 948.33,-616"/>
<text text-anchor="middle" x="883.5" y="-600.8" font-family="Arial" font-size="14.00" fill="#cfffac">services/LocalData.ts</text>
</g>
<!-- components/MainMenu.tsx&#45;&gt;services/LocalData.ts -->
<g id="edge7" class="edge">
<title>components/MainMenu.tsx&#45;&gt;services/LocalData.ts</title>
<path fill="none" stroke="#757575" d="M694.33,-597.72C728.5,-598.95 767.28,-600.35 800.71,-601.55"/>
<polygon fill="#757575" stroke="#757575" points="800.79,-605.06 810.91,-601.92 801.04,-598.06 800.79,-605.06"/>
</g>
<!-- components/Menu/AccountMenu.tsx -->
<g id="node13" class="node">
<title>components/Menu/AccountMenu.tsx</title>
<path fill="none" stroke="#cfffac" d="M994.33,-739C994.33,-739 772.67,-739 772.67,-739 768.83,-739 765,-735.17 765,-731.33 765,-731.33 765,-723.67 765,-723.67 765,-719.83 768.83,-716 772.67,-716 772.67,-716 994.33,-716 994.33,-716 998.17,-716 1002,-719.83 1002,-723.67 1002,-723.67 1002,-731.33 1002,-731.33 1002,-735.17 998.17,-739 994.33,-739"/>
<text text-anchor="middle" x="883.5" y="-723.8" font-family="Arial" font-size="14.00" fill="#cfffac">components/Menu/AccountMenu.tsx</text>
</g>
<!-- components/Menu/Menu.tsx -->
<g id="node14" class="node">
<title>components/Menu/Menu.tsx</title>
<path fill="none" stroke="#cfffac" d="M969.83,-657C969.83,-657 797.17,-657 797.17,-657 793.33,-657 789.5,-653.17 789.5,-649.33 789.5,-649.33 789.5,-641.67 789.5,-641.67 789.5,-637.83 793.33,-634 797.17,-634 797.17,-634 969.83,-634 969.83,-634 973.67,-634 977.5,-637.83 977.5,-641.67 977.5,-641.67 977.5,-649.33 977.5,-649.33 977.5,-653.17 973.67,-657 969.83,-657"/>
<text text-anchor="middle" x="883.5" y="-641.8" font-family="Arial" font-size="14.00" fill="#cfffac">components/Menu/Menu.tsx</text>
</g>
<!-- components/ModalForm.scss -->
<g id="node15" class="node">
<title>components/ModalForm.scss</title>
<path fill="none" stroke="#cfffac" d="M973.33,-141C973.33,-141 793.67,-141 793.67,-141 789.83,-141 786,-137.17 786,-133.33 786,-133.33 786,-125.67 786,-125.67 786,-121.83 789.83,-118 793.67,-118 793.67,-118 973.33,-118 973.33,-118 977.17,-118 981,-121.83 981,-125.67 981,-125.67 981,-133.33 981,-133.33 981,-137.17 977.17,-141 973.33,-141"/>
<text text-anchor="middle" x="883.5" y="-125.8" font-family="Arial" font-size="14.00" fill="#cfffac">components/ModalForm.scss</text>
</g>
<!-- components/ModalForm.tsx -->
<g id="node16" class="node">
<title>components/ModalForm.tsx</title>
<path fill="none" stroke="#c6c5fe" d="M688.83,-141C688.83,-141 519.17,-141 519.17,-141 515.33,-141 511.5,-137.17 511.5,-133.33 511.5,-133.33 511.5,-125.67 511.5,-125.67 511.5,-121.83 515.33,-118 519.17,-118 519.17,-118 688.83,-118 688.83,-118 692.67,-118 696.5,-121.83 696.5,-125.67 696.5,-125.67 696.5,-133.33 696.5,-133.33 696.5,-137.17 692.67,-141 688.83,-141"/>
<text text-anchor="middle" x="604" y="-125.8" font-family="Arial" font-size="14.00" fill="#c6c5fe">components/ModalForm.tsx</text>
</g>
<!-- components/ModalForm.tsx&#45;&gt;components/ModalForm.scss -->
<g id="edge8" class="edge">
<title>components/ModalForm.tsx&#45;&gt;components/ModalForm.scss</title>
<path fill="none" stroke="#757575" d="M696.63,-129.5C721.86,-129.5 749.44,-129.5 775.46,-129.5"/>
<polygon fill="#757575" stroke="#757575" points="775.72,-133 785.72,-129.5 775.72,-126 775.72,-133"/>
</g>
<!-- components/Navbar.tsx -->
<g id="node17" class="node">
<title>components/Navbar.tsx</title>
<path fill="none" stroke="#cfffac" d="M160.83,-649C160.83,-649 18.17,-649 18.17,-649 14.33,-649 10.5,-645.17 10.5,-641.33 10.5,-641.33 10.5,-633.67 10.5,-633.67 10.5,-629.83 14.33,-626 18.17,-626 18.17,-626 160.83,-626 160.83,-626 164.67,-626 168.5,-629.83 168.5,-633.67 168.5,-633.67 168.5,-641.33 168.5,-641.33 168.5,-645.17 164.67,-649 160.83,-649"/>
<text text-anchor="middle" x="89.5" y="-633.8" font-family="Arial" font-size="14.00" fill="#cfffac">components/Navbar.tsx</text>
</g>
<!-- components/Page.tsx -->
<g id="node18" class="node">
<title>components/Page.tsx</title>
<path fill="none" stroke="#c6c5fe" d="M949.33,-698C949.33,-698 817.67,-698 817.67,-698 813.83,-698 810,-694.17 810,-690.33 810,-690.33 810,-682.67 810,-682.67 810,-678.83 813.83,-675 817.67,-675 817.67,-675 949.33,-675 949.33,-675 953.17,-675 957,-678.83 957,-682.67 957,-682.67 957,-690.33 957,-690.33 957,-694.17 953.17,-698 949.33,-698"/>
<text text-anchor="middle" x="883.5" y="-682.8" font-family="Arial" font-size="14.00" fill="#c6c5fe">components/Page.tsx</text>
</g>
<!-- containers/Router.tsx -->
<g id="node19" class="node">
<title>containers/Router.tsx</title>
<path fill="none" stroke="#cfffac" d="M1218.83,-698C1218.83,-698 1091.17,-698 1091.17,-698 1087.33,-698 1083.5,-694.17 1083.5,-690.33 1083.5,-690.33 1083.5,-682.67 1083.5,-682.67 1083.5,-678.83 1087.33,-675 1091.17,-675 1091.17,-675 1218.83,-675 1218.83,-675 1222.67,-675 1226.5,-678.83 1226.5,-682.67 1226.5,-682.67 1226.5,-690.33 1226.5,-690.33 1226.5,-694.17 1222.67,-698 1218.83,-698"/>
<text text-anchor="middle" x="1155" y="-682.8" font-family="Arial" font-size="14.00" fill="#cfffac">containers/Router.tsx</text>
</g>
<!-- components/Page.tsx&#45;&gt;containers/Router.tsx -->
<g id="edge9" class="edge">
<title>components/Page.tsx&#45;&gt;containers/Router.tsx</title>
<path fill="none" stroke="#757575" d="M957.08,-686.5C992.84,-686.5 1036.1,-686.5 1072.95,-686.5"/>
<polygon fill="#757575" stroke="#757575" points="1073.16,-690 1083.16,-686.5 1073.16,-683 1073.16,-690"/>
</g>
<!-- components/ProductForm.tsx -->
<g id="node20" class="node">
<title>components/ProductForm.tsx</title>
<path fill="none" stroke="#c6c5fe" d="M693.33,-100C693.33,-100 514.67,-100 514.67,-100 510.83,-100 507,-96.17 507,-92.33 507,-92.33 507,-84.67 507,-84.67 507,-80.83 510.83,-77 514.67,-77 514.67,-77 693.33,-77 693.33,-77 697.17,-77 701,-80.83 701,-84.67 701,-84.67 701,-92.33 701,-92.33 701,-96.17 697.17,-100 693.33,-100"/>
<text text-anchor="middle" x="604" y="-84.8" font-family="Arial" font-size="14.00" fill="#c6c5fe">components/ProductForm.tsx</text>
</g>
<!-- components/ProductForm.tsx&#45;&gt;components/Form.tsx -->
<g id="edge10" class="edge">
<title>components/ProductForm.tsx&#45;&gt;components/Form.tsx</title>
<path fill="none" stroke="#757575" d="M655.64,-76.99C778.23,-52.39 1093.67,-9.02 1268,-167.5 1334.78,-228.21 1363.54,-337.94 1373.09,-384.11"/>
<polygon fill="#757575" stroke="#757575" points="1369.66,-384.8 1375.02,-393.93 1376.52,-383.45 1369.66,-384.8"/>
</g>
<!-- components/ProductForm.tsx&#45;&gt;components/FormInputGroup.tsx -->
<g id="edge11" class="edge">
<title>components/ProductForm.tsx&#45;&gt;components/FormInputGroup.tsx</title>
<path fill="none" stroke="#757575" d="M701.08,-93.15C709.95,-96.78 718.15,-101.76 725,-108.5 788.43,-170.94 707.39,-234.45 761,-305.5 777.19,-326.96 803.13,-341.21 826.89,-350.42"/>
<polygon fill="#757575" stroke="#757575" points="825.97,-353.81 836.56,-353.95 828.37,-347.23 825.97,-353.81"/>
</g>
<!-- services/RestService.ts -->
<g id="node21" class="node">
<title>services/RestService.ts</title>
<path fill="none" stroke="#c6c5fe" d="M954.33,-23C954.33,-23 812.67,-23 812.67,-23 808.83,-23 805,-19.17 805,-15.33 805,-15.33 805,-7.67 805,-7.67 805,-3.83 808.83,0 812.67,0 812.67,0 954.33,0 954.33,0 958.17,0 962,-3.83 962,-7.67 962,-7.67 962,-15.33 962,-15.33 962,-19.17 958.17,-23 954.33,-23"/>
<text text-anchor="middle" x="883.5" y="-7.8" font-family="Arial" font-size="14.00" fill="#c6c5fe">services/RestService.ts</text>
</g>
<!-- components/ProductForm.tsx&#45;&gt;services/RestService.ts -->
<g id="edge12" class="edge">
<title>components/ProductForm.tsx&#45;&gt;services/RestService.ts</title>
<path fill="none" stroke="#757575" d="M636.97,-76.95C668.3,-65.9 717.53,-49.22 761,-37.5 777.63,-33.02 795.7,-28.8 812.7,-25.12"/>
<polygon fill="#757575" stroke="#757575" points="813.51,-28.53 822.56,-23.02 812.05,-21.68 813.51,-28.53"/>
</g>
<!-- components/ProductForm.tsx&#45;&gt;types/models.d.ts -->
<g id="edge13" class="edge">
<title>components/ProductForm.tsx&#45;&gt;types/models.d.ts</title>
<path fill="none" stroke="#757575" d="M701.29,-81.51C783.74,-78.29 904.8,-80.2 1006,-108.5 1052.96,-121.63 1101.61,-151.65 1129.77,-170.96"/>
<polygon fill="#757575" stroke="#757575" points="1127.97,-173.96 1138.17,-176.81 1131.97,-168.22 1127.97,-173.96"/>
</g>
<!-- services/RestService.ts&#45;&gt;types/models.d.ts -->
<g id="edge53" class="edge">
<title>services/RestService.ts&#45;&gt;types/models.d.ts</title>
<path fill="none" stroke="#757575" d="M909.38,-23.09C934.43,-35.1 973.85,-54.96 1006,-75.5 1053.16,-105.62 1104.21,-146.67 1132.32,-170.1"/>
<polygon fill="#757575" stroke="#757575" points="1130.37,-173.03 1140.29,-176.77 1134.87,-167.67 1130.37,-173.03"/>
</g>
<!-- services/products.json.ts -->
<g id="node44" class="node">
<title>services/products.json.ts</title>
<path fill="none" stroke="#cfffac" d="M1229.33,-23C1229.33,-23 1080.67,-23 1080.67,-23 1076.83,-23 1073,-19.17 1073,-15.33 1073,-15.33 1073,-7.67 1073,-7.67 1073,-3.83 1076.83,0 1080.67,0 1080.67,0 1229.33,0 1229.33,0 1233.17,0 1237,-3.83 1237,-7.67 1237,-7.67 1237,-15.33 1237,-15.33 1237,-19.17 1233.17,-23 1229.33,-23"/>
<text text-anchor="middle" x="1155" y="-7.8" font-family="Arial" font-size="14.00" fill="#cfffac">services/products.json.ts</text>
</g>
<!-- services/RestService.ts&#45;&gt;services/products.json.ts -->
<g id="edge52" class="edge">
<title>services/RestService.ts&#45;&gt;services/products.json.ts</title>
<path fill="none" stroke="#757575" d="M962.09,-11.5C993.51,-11.5 1030.03,-11.5 1062.72,-11.5"/>
<polygon fill="#757575" stroke="#757575" points="1062.74,-15 1072.74,-11.5 1062.74,-8 1062.74,-15"/>
</g>
<!-- components/ProductFormModal.tsx -->
<g id="node23" class="node">
<title>components/ProductFormModal.tsx</title>
<path fill="none" stroke="#c6c5fe" d="M439.33,-160C439.33,-160 222.67,-160 222.67,-160 218.83,-160 215,-156.17 215,-152.33 215,-152.33 215,-144.67 215,-144.67 215,-140.83 218.83,-137 222.67,-137 222.67,-137 439.33,-137 439.33,-137 443.17,-137 447,-140.83 447,-144.67 447,-144.67 447,-152.33 447,-152.33 447,-156.17 443.17,-160 439.33,-160"/>
<text text-anchor="middle" x="331" y="-144.8" font-family="Arial" font-size="14.00" fill="#c6c5fe">components/ProductFormModal.tsx</text>
</g>
<!-- components/ProductFormModal.tsx&#45;&gt;components/ModalForm.tsx -->
<g id="edge14" class="edge">
<title>components/ProductFormModal.tsx&#45;&gt;components/ModalForm.tsx</title>
<path fill="none" stroke="#757575" d="M447.32,-140.41C465.14,-139.17 483.44,-137.88 500.95,-136.65"/>
<polygon fill="#757575" stroke="#757575" points="501.42,-140.13 511.15,-135.94 500.93,-133.15 501.42,-140.13"/>
</g>
<!-- components/ProductFormModal.tsx&#45;&gt;components/ProductForm.tsx -->
<g id="edge15" class="edge">
<title>components/ProductFormModal.tsx&#45;&gt;components/ProductForm.tsx</title>
<path fill="none" stroke="#757575" d="M371.5,-136.95C401.82,-128.35 444.82,-116.72 483,-108.5 494.02,-106.13 505.66,-103.88 517.18,-101.8"/>
<polygon fill="#757575" stroke="#757575" points="518.02,-105.2 527.26,-100.01 516.8,-98.31 518.02,-105.2"/>
</g>
<!-- components/ProductFormModal.tsx&#45;&gt;types/models.d.ts -->
<g id="edge16" class="edge">
<title>components/ProductFormModal.tsx&#45;&gt;types/models.d.ts</title>
<path fill="none" stroke="#757575" d="M447.16,-154.1C620.12,-162.52 941.79,-178.17 1083.67,-185.08"/>
<polygon fill="#757575" stroke="#757575" points="1083.82,-188.59 1093.98,-185.58 1084.16,-181.6 1083.82,-188.59"/>
</g>
<!-- components/ProductList.tsx -->
<g id="node24" class="node">
<title>components/ProductList.tsx</title>
<path fill="none" stroke="#c6c5fe" d="M414.83,-259C414.83,-259 247.17,-259 247.17,-259 243.33,-259 239.5,-255.17 239.5,-251.33 239.5,-251.33 239.5,-243.67 239.5,-243.67 239.5,-239.83 243.33,-236 247.17,-236 247.17,-236 414.83,-236 414.83,-236 418.67,-236 422.5,-239.83 422.5,-243.67 422.5,-243.67 422.5,-251.33 422.5,-251.33 422.5,-255.17 418.67,-259 414.83,-259"/>
<text text-anchor="middle" x="331" y="-243.8" font-family="Arial" font-size="14.00" fill="#c6c5fe">components/ProductList.tsx</text>
</g>
<!-- components/ProductList.tsx&#45;&gt;types/models.d.ts -->
<g id="edge17" class="edge">
<title>components/ProductList.tsx&#45;&gt;types/models.d.ts</title>
<path fill="none" stroke="#757575" d="M422.65,-249.18C552.46,-250.42 798.57,-248.4 1006,-221.5 1038.2,-217.32 1073.73,-209.51 1101.91,-202.53"/>
<polygon fill="#757575" stroke="#757575" points="1103.09,-205.85 1111.94,-200.01 1101.38,-199.06 1103.09,-205.85"/>
</g>
<!-- utils/Array.ts -->
<g id="node25" class="node">
<title>utils/Array.ts</title>
<path fill="none" stroke="#cfffac" d="M641.33,-297C641.33,-297 566.67,-297 566.67,-297 562.83,-297 559,-293.17 559,-289.33 559,-289.33 559,-281.67 559,-281.67 559,-277.83 562.83,-274 566.67,-274 566.67,-274 641.33,-274 641.33,-274 645.17,-274 649,-277.83 649,-281.67 649,-281.67 649,-289.33 649,-289.33 649,-293.17 645.17,-297 641.33,-297"/>
<text text-anchor="middle" x="604" y="-281.8" font-family="Arial" font-size="14.00" fill="#cfffac">utils/Array.ts</text>
</g>
<!-- components/ProductList.tsx&#45;&gt;utils/Array.ts -->
<g id="edge18" class="edge">
<title>components/ProductList.tsx&#45;&gt;utils/Array.ts</title>
<path fill="none" stroke="#757575" d="M414.04,-259C457.66,-265.12 510.08,-272.47 548.63,-277.88"/>
<polygon fill="#757575" stroke="#757575" points="548.23,-281.35 558.62,-279.28 549.2,-274.42 548.23,-281.35"/>
</g>
<!-- components/ResetPasswordPage.tsx -->
<g id="node26" class="node">
<title>components/ResetPasswordPage.tsx</title>
<path fill="none" stroke="#c6c5fe" d="M717.33,-437C717.33,-437 490.67,-437 490.67,-437 486.83,-437 483,-433.17 483,-429.33 483,-429.33 483,-421.67 483,-421.67 483,-417.83 486.83,-414 490.67,-414 490.67,-414 717.33,-414 717.33,-414 721.17,-414 725,-417.83 725,-421.67 725,-421.67 725,-429.33 725,-429.33 725,-433.17 721.17,-437 717.33,-437"/>
<text text-anchor="middle" x="604" y="-421.8" font-family="Arial" font-size="14.00" fill="#c6c5fe">components/ResetPasswordPage.tsx</text>
</g>
<!-- components/ResetPasswordPage.tsx&#45;&gt;components/Form.tsx -->
<g id="edge19" class="edge">
<title>components/ResetPasswordPage.tsx&#45;&gt;components/Form.tsx</title>
<path fill="none" stroke="#757575" d="M707.62,-413.95C713.74,-411.33 719.6,-408.21 725,-404.5 750.63,-386.89 733.97,-359.87 761,-344.5 858.94,-288.81 1159.08,-314.69 1268,-343.5 1300.41,-352.07 1333.27,-372.77 1354.31,-387.9"/>
<polygon fill="#757575" stroke="#757575" points="1352.45,-390.87 1362.57,-393.99 1356.6,-385.24 1352.45,-390.87"/>
</g>
<!-- components/ResetPasswordPage.tsx&#45;&gt;components/FormInputGroup.tsx -->
<g id="edge20" class="edge">
<title>components/ResetPasswordPage.tsx&#45;&gt;components/FormInputGroup.tsx</title>
<path fill="none" stroke="#757575" d="M682.57,-413.96C696.78,-411.27 711.41,-408.11 725,-404.5 741.44,-400.13 744.65,-396.18 761,-391.5 776.89,-386.95 794.14,-382.8 810.53,-379.21"/>
<polygon fill="#757575" stroke="#757575" points="811.56,-382.57 820.6,-377.05 810.09,-375.73 811.56,-382.57"/>
</g>
<!-- containers/APage.tsx -->
<g id="node27" class="node">
<title>containers/APage.tsx</title>
<path fill="none" stroke="#cfffac" d="M153.83,-690C153.83,-690 25.17,-690 25.17,-690 21.33,-690 17.5,-686.17 17.5,-682.33 17.5,-682.33 17.5,-674.67 17.5,-674.67 17.5,-670.83 21.33,-667 25.17,-667 25.17,-667 153.83,-667 153.83,-667 157.67,-667 161.5,-670.83 161.5,-674.67 161.5,-674.67 161.5,-682.33 161.5,-682.33 161.5,-686.17 157.67,-690 153.83,-690"/>
<text text-anchor="middle" x="89.5" y="-674.8" font-family="Arial" font-size="14.00" fill="#cfffac">containers/APage.tsx</text>
</g>
<!-- containers/AccountPage.tsx -->
<g id="node28" class="node">
<title>containers/AccountPage.tsx</title>
<path fill="none" stroke="#c6c5fe" d="M688.33,-718C688.33,-718 519.67,-718 519.67,-718 515.83,-718 512,-714.17 512,-710.33 512,-710.33 512,-702.67 512,-702.67 512,-698.83 515.83,-695 519.67,-695 519.67,-695 688.33,-695 688.33,-695 692.17,-695 696,-698.83 696,-702.67 696,-702.67 696,-710.33 696,-710.33 696,-714.17 692.17,-718 688.33,-718"/>
<text text-anchor="middle" x="604" y="-702.8" font-family="Arial" font-size="14.00" fill="#c6c5fe">containers/AccountPage.tsx</text>
</g>
<!-- containers/AccountPage.tsx&#45;&gt;components/Account/AccountView.tsx -->
<g id="edge21" class="edge">
<title>containers/AccountPage.tsx&#45;&gt;components/Account/AccountView.tsx</title>
<path fill="none" stroke="#757575" d="M643.52,-718.02C674.94,-727.14 720.57,-739.75 761,-748.5 771.99,-750.88 783.59,-753.12 795.09,-755.19"/>
<polygon fill="#757575" stroke="#757575" points="794.7,-758.67 805.15,-756.96 795.91,-751.78 794.7,-758.67"/>
</g>
<!-- containers/AccountPage.tsx&#45;&gt;components/Menu/AccountMenu.tsx -->
<g id="edge22" class="edge">
<title>containers/AccountPage.tsx&#45;&gt;components/Menu/AccountMenu.tsx</title>
<path fill="none" stroke="#757575" d="M696.25,-713.41C715.03,-714.83 735.14,-716.35 754.94,-717.85"/>
<polygon fill="#757575" stroke="#757575" points="754.7,-721.34 764.94,-718.6 755.23,-714.36 754.7,-721.34"/>
</g>
<!-- containers/AccountPage.tsx&#45;&gt;components/Page.tsx -->
<g id="edge23" class="edge">
<title>containers/AccountPage.tsx&#45;&gt;components/Page.tsx</title>
<path fill="none" stroke="#757575" d="M696.25,-699.92C729.46,-697.53 766.8,-694.84 799.28,-692.5"/>
<polygon fill="#757575" stroke="#757575" points="799.92,-695.96 809.65,-691.75 799.42,-688.98 799.92,-695.96"/>
</g>
<!-- containers/AuthPage.scss -->
<g id="node29" class="node">
<title>containers/AuthPage.scss</title>
<path fill="none" stroke="#cfffac" d="M1233.83,-497C1233.83,-497 1076.17,-497 1076.17,-497 1072.33,-497 1068.5,-493.17 1068.5,-489.33 1068.5,-489.33 1068.5,-481.67 1068.5,-481.67 1068.5,-477.83 1072.33,-474 1076.17,-474 1076.17,-474 1233.83,-474 1233.83,-474 1237.67,-474 1241.5,-477.83 1241.5,-481.67 1241.5,-481.67 1241.5,-489.33 1241.5,-489.33 1241.5,-493.17 1237.67,-497 1233.83,-497"/>
<text text-anchor="middle" x="1155" y="-481.8" font-family="Arial" font-size="14.00" fill="#cfffac">containers/AuthPage.scss</text>
</g>
<!-- containers/AuthPage.tsx -->
<g id="node30" class="node">
<title>containers/AuthPage.tsx</title>
<path fill="none" stroke="#c6c5fe" d="M677.83,-497C677.83,-497 530.17,-497 530.17,-497 526.33,-497 522.5,-493.17 522.5,-489.33 522.5,-489.33 522.5,-481.67 522.5,-481.67 522.5,-477.83 526.33,-474 530.17,-474 530.17,-474 677.83,-474 677.83,-474 681.67,-474 685.5,-477.83 685.5,-481.67 685.5,-481.67 685.5,-489.33 685.5,-489.33 685.5,-493.17 681.67,-497 677.83,-497"/>
<text text-anchor="middle" x="604" y="-481.8" font-family="Arial" font-size="14.00" fill="#c6c5fe">containers/AuthPage.tsx</text>
</g>
<!-- containers/AuthPage.tsx&#45;&gt;services/Firebase.ts -->
<g id="edge29" class="edge">
<title>containers/AuthPage.tsx&#45;&gt;services/Firebase.ts</title>
<path fill="none" stroke="#757575" d="M674.37,-473.9C692.7,-467.98 711.19,-459.02 725,-445.5 759.04,-412.15 729.2,-379.99 761,-344.5 779.36,-324.01 806.41,-309.91 830.33,-300.64"/>
<polygon fill="#757575" stroke="#757575" points="831.83,-303.82 840.01,-297.08 829.42,-297.25 831.83,-303.82"/>
</g>
<!-- containers/AuthPage.tsx&#45;&gt;components/AuthFrom.tsx -->
<g id="edge24" class="edge">
<title>containers/AuthPage.tsx&#45;&gt;components/AuthFrom.tsx</title>
<path fill="none" stroke="#757575" d="M646.63,-473.94C670.09,-466.85 699.69,-456.95 725,-445.5 741.88,-437.86 743.24,-429.76 761,-424.5 858.66,-395.55 975.9,-393.88 1056.76,-397.53"/>
<polygon fill="#757575" stroke="#757575" points="1056.78,-401.04 1066.94,-398.03 1057.12,-394.04 1056.78,-401.04"/>
</g>
<!-- containers/AuthPage.tsx&#45;&gt;components/Form.tsx -->
<g id="edge25" class="edge">
<title>containers/AuthPage.tsx&#45;&gt;components/Form.tsx</title>
<path fill="none" stroke="#757575" d="M685.69,-495.72C838.52,-513.81 1164.17,-545.91 1268,-505.5 1309.35,-489.41 1344.54,-449.48 1363.04,-425.23"/>
<polygon fill="#757575" stroke="#757575" points="1365.94,-427.19 1369.09,-417.08 1360.32,-423.02 1365.94,-427.19"/>
</g>
<!-- containers/AuthPage.tsx&#45;&gt;router/routes.ts -->
<g id="edge28" class="edge">
<title>containers/AuthPage.tsx&#45;&gt;router/routes.ts</title>
<path fill="none" stroke="#757575" d="M636.36,-497.09C667.64,-508.39 717.21,-525.56 761,-537.5 779.96,-542.67 800.82,-547.46 819.82,-551.47"/>
<polygon fill="#757575" stroke="#757575" points="819.36,-554.95 829.86,-553.56 820.79,-548.1 819.36,-554.95"/>
</g>
<!-- containers/AuthPage.tsx&#45;&gt;containers/AuthPage.scss -->
<g id="edge26" class="edge">
<title>containers/AuthPage.tsx&#45;&gt;containers/AuthPage.scss</title>
<path fill="none" stroke="#757575" d="M685.71,-485.5C784.89,-485.5 952.96,-485.5 1058.48,-485.5"/>
<polygon fill="#757575" stroke="#757575" points="1058.49,-489 1068.49,-485.5 1058.49,-482 1058.49,-489"/>
</g>
<!-- containers/SignUpModal.tsx -->
<g id="node31" class="node">
<title>containers/SignUpModal.tsx</title>
<path fill="none" stroke="#c6c5fe" d="M968.33,-457C968.33,-457 798.67,-457 798.67,-457 794.83,-457 791,-453.17 791,-449.33 791,-449.33 791,-441.67 791,-441.67 791,-437.83 794.83,-434 798.67,-434 798.67,-434 968.33,-434 968.33,-434 972.17,-434 976,-437.83 976,-441.67 976,-441.67 976,-449.33 976,-449.33 976,-453.17 972.17,-457 968.33,-457"/>
<text text-anchor="middle" x="883.5" y="-441.8" font-family="Arial" font-size="14.00" fill="#c6c5fe">containers/SignUpModal.tsx</text>
</g>
<!-- containers/AuthPage.tsx&#45;&gt;containers/SignUpModal.tsx -->
<g id="edge27" class="edge">
<title>containers/AuthPage.tsx&#45;&gt;containers/SignUpModal.tsx</title>
<path fill="none" stroke="#757575" d="M684.89,-473.98C718.56,-469.13 757.89,-463.46 792.57,-458.46"/>
<polygon fill="#757575" stroke="#757575" points="793.29,-461.89 802.69,-457 792.29,-454.97 793.29,-461.89"/>
</g>
<!-- containers/SignUpModal.tsx&#45;&gt;components/AuthFrom.tsx -->
<g id="edge37" class="edge">
<title>containers/SignUpModal.tsx&#45;&gt;components/AuthFrom.tsx</title>
<path fill="none" stroke="#757575" d="M962.09,-433.98C994.64,-429.15 1032.66,-423.51 1066.23,-418.53"/>
<polygon fill="#757575" stroke="#757575" points="1067.11,-421.93 1076.49,-417 1066.09,-415.01 1067.11,-421.93"/>
</g>
<!-- containers/SignUpModal.tsx&#45;&gt;components/Form.tsx -->
<g id="edge38" class="edge">
<title>containers/SignUpModal.tsx&#45;&gt;components/Form.tsx</title>
<path fill="none" stroke="#757575" d="M976.21,-444.05C1054.08,-442.02 1168.68,-437.15 1268,-425.5 1282.36,-423.82 1297.68,-421.4 1312.17,-418.82"/>
<polygon fill="#757575" stroke="#757575" points="1312.83,-422.26 1322.04,-417.02 1311.57,-415.37 1312.83,-422.26"/>
</g>
<!-- containers/SignUpModal.tsx&#45;&gt;containers/AuthPage.scss -->
<g id="edge39" class="edge">
<title>containers/SignUpModal.tsx&#45;&gt;containers/AuthPage.scss</title>
<path fill="none" stroke="#757575" d="M962.09,-457.02C994.64,-461.85 1032.66,-467.49 1066.23,-472.47"/>
<polygon fill="#757575" stroke="#757575" points="1066.09,-475.99 1076.49,-474 1067.11,-469.07 1066.09,-475.99"/>
</g>
<!-- containers/BPage.tsx -->
<g id="node32" class="node">
<title>containers/BPage.tsx</title>
<path fill="none" stroke="#cfffac" d="M153.83,-731C153.83,-731 25.17,-731 25.17,-731 21.33,-731 17.5,-727.17 17.5,-723.33 17.5,-723.33 17.5,-715.67 17.5,-715.67 17.5,-711.83 21.33,-708 25.17,-708 25.17,-708 153.83,-708 153.83,-708 157.67,-708 161.5,-711.83 161.5,-715.67 161.5,-715.67 161.5,-723.33 161.5,-723.33 161.5,-727.17 157.67,-731 153.83,-731"/>
<text text-anchor="middle" x="89.5" y="-715.8" font-family="Arial" font-size="14.00" fill="#cfffac">containers/BPage.tsx</text>
</g>
<!-- containers/HomePage.tsx -->
<g id="node33" class="node">
<title>containers/HomePage.tsx</title>
<path fill="none" stroke="#c6c5fe" d="M682.33,-657C682.33,-657 525.67,-657 525.67,-657 521.83,-657 518,-653.17 518,-649.33 518,-649.33 518,-641.67 518,-641.67 518,-637.83 521.83,-634 525.67,-634 525.67,-634 682.33,-634 682.33,-634 686.17,-634 690,-637.83 690,-641.67 690,-641.67 690,-649.33 690,-649.33 690,-653.17 686.17,-657 682.33,-657"/>
<text text-anchor="middle" x="604" y="-641.8" font-family="Arial" font-size="14.00" fill="#c6c5fe">containers/HomePage.tsx</text>
</g>
<!-- containers/HomePage.tsx&#45;&gt;components/Menu/Menu.tsx -->
<g id="edge30" class="edge">
<title>containers/HomePage.tsx&#45;&gt;components/Menu/Menu.tsx</title>
<path fill="none" stroke="#757575" d="M690.15,-645.5C718.22,-645.5 749.76,-645.5 779.05,-645.5"/>
<polygon fill="#757575" stroke="#757575" points="779.3,-649 789.3,-645.5 779.3,-642 779.3,-649"/>
</g>
<!-- containers/HomePage.tsx&#45;&gt;components/Page.tsx -->
<g id="edge31" class="edge">
<title>containers/HomePage.tsx&#45;&gt;components/Page.tsx</title>
<path fill="none" stroke="#757575" d="M683.04,-657.03C719.38,-662.4 762.64,-668.79 799.57,-674.25"/>
<polygon fill="#757575" stroke="#757575" points="799.4,-677.76 809.81,-675.76 800.42,-670.84 799.4,-677.76"/>
</g>
<!-- containers/NotFoundPage.tsx -->
<g id="node34" class="node">
<title>containers/NotFoundPage.tsx</title>
<path fill="none" stroke="#cfffac" d="M693.33,-396C693.33,-396 514.67,-396 514.67,-396 510.83,-396 507,-392.17 507,-388.33 507,-388.33 507,-380.67 507,-380.67 507,-376.83 510.83,-373 514.67,-373 514.67,-373 693.33,-373 693.33,-373 697.17,-373 701,-376.83 701,-380.67 701,-380.67 701,-388.33 701,-388.33 701,-392.17 697.17,-396 693.33,-396"/>
<text text-anchor="middle" x="604" y="-380.8" font-family="Arial" font-size="14.00" fill="#cfffac">containers/NotFoundPage.tsx</text>
</g>
<!-- containers/ProductView.tsx -->
<g id="node35" class="node">
<title>containers/ProductView.tsx</title>
<path fill="none" stroke="#c6c5fe" d="M171.33,-219C171.33,-219 7.67,-219 7.67,-219 3.83,-219 0,-215.17 0,-211.33 0,-211.33 0,-203.67 0,-203.67 0,-199.83 3.83,-196 7.67,-196 7.67,-196 171.33,-196 171.33,-196 175.17,-196 179,-199.83 179,-203.67 179,-203.67 179,-211.33 179,-211.33 179,-215.17 175.17,-219 171.33,-219"/>
<text text-anchor="middle" x="89.5" y="-203.8" font-family="Arial" font-size="14.00" fill="#c6c5fe">containers/ProductView.tsx</text>
</g>
<!-- containers/ProductView.tsx&#45;&gt;components/AuthContainer.tsx -->
<g id="edge32" class="edge">
<title>containers/ProductView.tsx&#45;&gt;components/AuthContainer.tsx</title>
<path fill="none" stroke="#757575" d="M112.64,-219.12C137.27,-231.82 178.41,-252.38 215,-267.5 237.26,-276.7 262.49,-285.64 283.63,-292.72"/>
<polygon fill="#757575" stroke="#757575" points="282.75,-296.11 293.35,-295.94 284.95,-289.47 282.75,-296.11"/>
</g>
<!-- containers/ProductView.tsx&#45;&gt;services/RestService.ts -->
<g id="edge35" class="edge">
<title>containers/ProductView.tsx&#45;&gt;services/RestService.ts</title>
<path fill="none" stroke="#757575" d="M104.88,-195.83C127.13,-178.35 171.85,-145.52 215,-127.5 411.29,-45.51 663.37,-21.47 794.46,-14.42"/>
<polygon fill="#757575" stroke="#757575" points="795.03,-17.9 804.84,-13.89 794.67,-10.91 795.03,-17.9"/>
</g>
<!-- containers/ProductView.tsx&#45;&gt;types/models.d.ts -->
<g id="edge36" class="edge">
<title>containers/ProductView.tsx&#45;&gt;types/models.d.ts</title>
<path fill="none" stroke="#757575" d="M179.34,-205.91C386.11,-202.22 896.13,-193.11 1083.49,-189.76"/>
<polygon fill="#757575" stroke="#757575" points="1083.83,-193.25 1093.77,-189.58 1083.71,-186.26 1083.83,-193.25"/>
</g>
<!-- containers/ProductView.tsx&#45;&gt;components/ProductFormModal.tsx -->
<g id="edge33" class="edge">
<title>containers/ProductView.tsx&#45;&gt;components/ProductFormModal.tsx</title>
<path fill="none" stroke="#757575" d="M137.25,-195.98C176.11,-186.41 231.55,-172.75 273.01,-162.54"/>
<polygon fill="#757575" stroke="#757575" points="274.09,-165.88 282.96,-160.09 272.42,-159.08 274.09,-165.88"/>
</g>
<!-- containers/ProductView.tsx&#45;&gt;components/ProductList.tsx -->
<g id="edge34" class="edge">
<title>containers/ProductView.tsx&#45;&gt;components/ProductList.tsx</title>
<path fill="none" stroke="#757575" d="M159.45,-219.02C188.13,-223.81 221.58,-229.39 251.23,-234.34"/>
<polygon fill="#757575" stroke="#757575" points="250.68,-237.8 261.12,-236 251.83,-230.9 250.68,-237.8"/>
</g>
<!-- core/PageFactory.ts -->
<g id="node36" class="node">
<title>core/PageFactory.ts</title>
<path fill="none" stroke="#cfffac" d="M391.83,-772C391.83,-772 270.17,-772 270.17,-772 266.33,-772 262.5,-768.17 262.5,-764.33 262.5,-764.33 262.5,-756.67 262.5,-756.67 262.5,-752.83 266.33,-749 270.17,-749 270.17,-749 391.83,-749 391.83,-749 395.67,-749 399.5,-752.83 399.5,-756.67 399.5,-756.67 399.5,-764.33 399.5,-764.33 399.5,-768.17 395.67,-772 391.83,-772"/>
<text text-anchor="middle" x="331" y="-756.8" font-family="Arial" font-size="14.00" fill="#cfffac">core/PageFactory.ts</text>
</g>
<!-- index.css -->
<g id="node37" class="node">
<title>index.css</title>
<path fill="none" stroke="#cfffac" d="M359.83,-485C359.83,-485 302.17,-485 302.17,-485 298.33,-485 294.5,-481.17 294.5,-477.33 294.5,-477.33 294.5,-469.67 294.5,-469.67 294.5,-465.83 298.33,-462 302.17,-462 302.17,-462 359.83,-462 359.83,-462 363.67,-462 367.5,-465.83 367.5,-469.67 367.5,-469.67 367.5,-477.33 367.5,-477.33 367.5,-481.17 363.67,-485 359.83,-485"/>
<text text-anchor="middle" x="331" y="-469.8" font-family="Arial" font-size="14.00" fill="#cfffac">index.css</text>
</g>
<!-- index.tsx -->
<g id="node38" class="node">
<title>index.tsx</title>
<path fill="none" stroke="#c6c5fe" d="M116.83,-485C116.83,-485 62.17,-485 62.17,-485 58.33,-485 54.5,-481.17 54.5,-477.33 54.5,-477.33 54.5,-469.67 54.5,-469.67 54.5,-465.83 58.33,-462 62.17,-462 62.17,-462 116.83,-462 116.83,-462 120.67,-462 124.5,-465.83 124.5,-469.67 124.5,-469.67 124.5,-477.33 124.5,-477.33 124.5,-481.17 120.67,-485 116.83,-485"/>
<text text-anchor="middle" x="89.5" y="-469.8" font-family="Arial" font-size="14.00" fill="#c6c5fe">index.tsx</text>
</g>
<!-- index.tsx&#45;&gt;index.css -->
<g id="edge40" class="edge">
<title>index.tsx&#45;&gt;index.css</title>
<path fill="none" stroke="#757575" d="M124.56,-473.5C166.46,-473.5 237.76,-473.5 284.37,-473.5"/>
<polygon fill="#757575" stroke="#757575" points="284.5,-477 294.5,-473.5 284.5,-470 284.5,-477"/>
</g>
<!-- main/App.tsx -->
<g id="node39" class="node">
<title>main/App.tsx</title>
<path fill="none" stroke="#c6c5fe" d="M370.83,-526C370.83,-526 291.17,-526 291.17,-526 287.33,-526 283.5,-522.17 283.5,-518.33 283.5,-518.33 283.5,-510.67 283.5,-510.67 283.5,-506.83 287.33,-503 291.17,-503 291.17,-503 370.83,-503 370.83,-503 374.67,-503 378.5,-506.83 378.5,-510.67 378.5,-510.67 378.5,-518.33 378.5,-518.33 378.5,-522.17 374.67,-526 370.83,-526"/>
<text text-anchor="middle" x="331" y="-510.8" font-family="Arial" font-size="14.00" fill="#c6c5fe">main/App.tsx</text>
</g>
<!-- index.tsx&#45;&gt;main/App.tsx -->
<g id="edge41" class="edge">
<title>index.tsx&#45;&gt;main/App.tsx</title>
<path fill="none" stroke="#757575" d="M124.56,-479.33C163.3,-485.96 227.17,-496.9 273.42,-504.81"/>
<polygon fill="#757575" stroke="#757575" points="272.86,-508.27 283.3,-506.51 274.04,-501.37 272.86,-508.27"/>
</g>
<!-- reportWebVitals.ts -->
<g id="node40" class="node">
<title>reportWebVitals.ts</title>
<path fill="none" stroke="#cfffac" d="M386.83,-444C386.83,-444 275.17,-444 275.17,-444 271.33,-444 267.5,-440.17 267.5,-436.33 267.5,-436.33 267.5,-428.67 267.5,-428.67 267.5,-424.83 271.33,-421 275.17,-421 275.17,-421 386.83,-421 386.83,-421 390.67,-421 394.5,-424.83 394.5,-428.67 394.5,-428.67 394.5,-436.33 394.5,-436.33 394.5,-440.17 390.67,-444 386.83,-444"/>
<text text-anchor="middle" x="331" y="-428.8" font-family="Arial" font-size="14.00" fill="#cfffac">reportWebVitals.ts</text>
</g>
<!-- index.tsx&#45;&gt;reportWebVitals.ts -->
<g id="edge42" class="edge">
<title>index.tsx&#45;&gt;reportWebVitals.ts</title>
<path fill="none" stroke="#757575" d="M124.56,-467.67C158.95,-461.78 213.13,-452.51 257.22,-444.96"/>
<polygon fill="#757575" stroke="#757575" points="258.05,-448.37 267.32,-443.23 256.87,-441.47 258.05,-448.37"/>
</g>
<!-- main/App.tsx&#45;&gt;router/routes.ts -->
<g id="edge49" class="edge">
<title>main/App.tsx&#45;&gt;router/routes.ts</title>
<path fill="none" stroke="#757575" d="M378.94,-518.68C477.9,-527.49 708.01,-547.97 819.59,-557.9"/>
<polygon fill="#757575" stroke="#757575" points="819.42,-561.4 829.69,-558.8 820.04,-554.43 819.42,-561.4"/>
</g>
<!-- main/App.tsx&#45;&gt;components/ResetPasswordPage.tsx -->
<g id="edge44" class="edge">
<title>main/App.tsx&#45;&gt;components/ResetPasswordPage.tsx</title>
<path fill="none" stroke="#757575" d="M378.64,-511.28C400.2,-508.49 425.69,-503.26 447,-493.5 465.68,-484.95 464.93,-474.28 483,-464.5 502.04,-454.19 524.26,-446.03 544.37,-439.9"/>
<polygon fill="#757575" stroke="#757575" points="545.45,-443.23 554.05,-437.05 543.47,-436.51 545.45,-443.23"/>
</g>
<!-- main/App.tsx&#45;&gt;containers/AccountPage.tsx -->
<g id="edge45" class="edge">
<title>main/App.tsx&#45;&gt;containers/AccountPage.tsx</title>
<path fill="none" stroke="#757575" d="M340.49,-526.23C361.48,-554.44 418.83,-626.7 483,-666.5 500.8,-677.54 522,-685.91 541.58,-692.06"/>
<polygon fill="#757575" stroke="#757575" points="540.77,-695.47 551.35,-694.99 542.78,-688.76 540.77,-695.47"/>
</g>
<!-- main/App.tsx&#45;&gt;containers/AuthPage.tsx -->
<g id="edge46" class="edge">
<title>main/App.tsx&#45;&gt;containers/AuthPage.tsx</title>
<path fill="none" stroke="#757575" d="M378.59,-509.51C415.24,-505.59 467.43,-500.01 512.25,-495.21"/>
<polygon fill="#757575" stroke="#757575" points="512.72,-498.68 522.29,-494.14 511.97,-491.72 512.72,-498.68"/>
</g>
<!-- main/App.tsx&#45;&gt;containers/HomePage.tsx -->
<g id="edge47" class="edge">
<title>main/App.tsx&#45;&gt;containers/HomePage.tsx</title>
<path fill="none" stroke="#757575" d="M345.61,-526.01C370.98,-546.88 427.93,-591.09 483,-615.5 497.71,-622.02 514.1,-627.3 529.91,-631.5"/>
<polygon fill="#757575" stroke="#757575" points="529.11,-634.9 539.66,-633.97 530.83,-628.12 529.11,-634.9"/>
</g>
<!-- main/App.tsx&#45;&gt;containers/NotFoundPage.tsx -->
<g id="edge48" class="edge">
<title>main/App.tsx&#45;&gt;containers/NotFoundPage.tsx</title>
<path fill="none" stroke="#757575" d="M378.61,-516.06C401.45,-514.5 428.04,-508.94 447,-493.5 480.08,-466.55 449.71,-431.19 483,-404.5 487.43,-400.95 492.25,-397.92 497.33,-395.35"/>
<polygon fill="#757575" stroke="#757575" points="499,-398.44 506.74,-391.2 496.17,-392.04 499,-398.44"/>
</g>
<!-- main/App.test.tsx -->
<g id="node41" class="node">
<title>main/App.test.tsx</title>
<path fill="none" stroke="#c6c5fe" d="M142.33,-526C142.33,-526 36.67,-526 36.67,-526 32.83,-526 29,-522.17 29,-518.33 29,-518.33 29,-510.67 29,-510.67 29,-506.83 32.83,-503 36.67,-503 36.67,-503 142.33,-503 142.33,-503 146.17,-503 150,-506.83 150,-510.67 150,-510.67 150,-518.33 150,-518.33 150,-522.17 146.17,-526 142.33,-526"/>
<text text-anchor="middle" x="89.5" y="-510.8" font-family="Arial" font-size="14.00" fill="#c6c5fe">main/App.test.tsx</text>
</g>
<!-- main/App.test.tsx&#45;&gt;main/App.tsx -->
<g id="edge43" class="edge">
<title>main/App.test.tsx&#45;&gt;main/App.tsx</title>
<path fill="none" stroke="#757575" d="M150.01,-514.5C187.62,-514.5 235.95,-514.5 273.06,-514.5"/>
<polygon fill="#757575" stroke="#757575" points="273.21,-518 283.21,-514.5 273.21,-511 273.21,-518"/>
</g>
<!-- main/PageConfig.ts -->
<g id="node42" class="node">
<title>main/PageConfig.ts</title>
<path fill="none" stroke="#c6c5fe" d="M149.33,-772C149.33,-772 29.67,-772 29.67,-772 25.83,-772 22,-768.17 22,-764.33 22,-764.33 22,-756.67 22,-756.67 22,-752.83 25.83,-749 29.67,-749 29.67,-749 149.33,-749 149.33,-749 153.17,-749 157,-752.83 157,-756.67 157,-756.67 157,-764.33 157,-764.33 157,-768.17 153.17,-772 149.33,-772"/>
<text text-anchor="middle" x="89.5" y="-756.8" font-family="Arial" font-size="14.00" fill="#c6c5fe">main/PageConfig.ts</text>
</g>
<!-- main/PageConfig.ts&#45;&gt;core/PageFactory.ts -->
<g id="edge50" class="edge">
<title>main/PageConfig.ts&#45;&gt;core/PageFactory.ts</title>
<path fill="none" stroke="#757575" d="M157.21,-760.5C186.69,-760.5 221.53,-760.5 252.18,-760.5"/>
<polygon fill="#757575" stroke="#757575" points="252.4,-764 262.4,-760.5 252.4,-757 252.4,-764"/>
</g>
<!-- react&#45;app&#45;env.d.ts -->
<g id="node43" class="node">
<title>react&#45;app&#45;env.d.ts</title>
<path fill="none" stroke="#cfffac" d="M144.33,-813C144.33,-813 34.67,-813 34.67,-813 30.83,-813 27,-809.17 27,-805.33 27,-805.33 27,-797.67 27,-797.67 27,-793.83 30.83,-790 34.67,-790 34.67,-790 144.33,-790 144.33,-790 148.17,-790 152,-793.83 152,-797.67 152,-797.67 152,-805.33 152,-805.33 152,-809.17 148.17,-813 144.33,-813"/>
<text text-anchor="middle" x="89.5" y="-797.8" font-family="Arial" font-size="14.00" fill="#cfffac">react&#45;app&#45;env.d.ts</text>
</g>
<!-- setupTests.ts -->
<g id="node45" class="node">
<title>setupTests.ts</title>
<path fill="none" stroke="#cfffac" d="M129.33,-854C129.33,-854 49.67,-854 49.67,-854 45.83,-854 42,-850.17 42,-846.33 42,-846.33 42,-838.67 42,-838.67 42,-834.83 45.83,-831 49.67,-831 49.67,-831 129.33,-831 129.33,-831 133.17,-831 137,-834.83 137,-838.67 137,-838.67 137,-846.33 137,-846.33 137,-850.17 133.17,-854 129.33,-854"/>
<text text-anchor="middle" x="89.5" y="-838.8" font-family="Arial" font-size="14.00" fill="#cfffac">setupTests.ts</text>
</g>
<!-- types/type.d.ts -->
<g id="node46" class="node">
<title>types/type.d.ts</title>
<path fill="none" stroke="#cfffac" d="M133.83,-895C133.83,-895 45.17,-895 45.17,-895 41.33,-895 37.5,-891.17 37.5,-887.33 37.5,-887.33 37.5,-879.67 37.5,-879.67 37.5,-875.83 41.33,-872 45.17,-872 45.17,-872 133.83,-872 133.83,-872 137.67,-872 141.5,-875.83 141.5,-879.67 141.5,-879.67 141.5,-887.33 141.5,-887.33 141.5,-891.17 137.67,-895 133.83,-895"/>
<text text-anchor="middle" x="89.5" y="-879.8" font-family="Arial" font-size="14.00" fill="#cfffac">types/type.d.ts</text>
</g>
</g>
</svg>
