<?xml version="1.0" encoding="UTF-8" standalone="no"?>
<!DOCTYPE svg PUBLIC "-//W3C//DTD SVG 1.1//EN"
 "http://www.w3.org/Graphics/SVG/1.1/DTD/svg11.dtd">
<!-- Generated by graphviz version 2.43.0 (0)
 -->
<!-- Title: G Pages: 1 -->
<svg width="1883pt" height="764pt"
 viewBox="0.00 0.00 1883.20 764.10" xmlns="http://www.w3.org/2000/svg" xmlns:xlink="http://www.w3.org/1999/xlink">
<g id="graph0" class="graph" transform="scale(1 1) rotate(0) translate(21.6 742.5)">
<title>G</title>
<polygon fill="#111111" stroke="transparent" points="-21.6,21.6 -21.6,-742.5 1861.6,-742.5 1861.6,21.6 -21.6,21.6"/>
<!-- components/AuthContainer.tsx -->
<g id="node1" class="node">
<title>components/AuthContainer.tsx</title>
<path fill="none" stroke="#c6c5fe" d="M1113.83,-456C1113.83,-456 928.17,-456 928.17,-456 924.33,-456 920.5,-452.17 920.5,-448.33 920.5,-448.33 920.5,-440.67 920.5,-440.67 920.5,-436.83 924.33,-433 928.17,-433 928.17,-433 1113.83,-433 1113.83,-433 1117.67,-433 1121.5,-436.83 1121.5,-440.67 1121.5,-440.67 1121.5,-448.33 1121.5,-448.33 1121.5,-452.17 1117.67,-456 1113.83,-456"/>
<text text-anchor="middle" x="1021" y="-440.8" font-family="Arial" font-size="14.00" fill="#c6c5fe">components/AuthContainer.tsx</text>
</g>
<!-- services/Firebase.ts -->
<g id="node2" class="node">
<title>services/Firebase.ts</title>
<path fill="none" stroke="#c6c5fe" d="M1346.83,-418C1346.83,-418 1225.17,-418 1225.17,-418 1221.33,-418 1217.5,-414.17 1217.5,-410.33 1217.5,-410.33 1217.5,-402.67 1217.5,-402.67 1217.5,-398.83 1221.33,-395 1225.17,-395 1225.17,-395 1346.83,-395 1346.83,-395 1350.67,-395 1354.5,-398.83 1354.5,-402.67 1354.5,-402.67 1354.5,-410.33 1354.5,-410.33 1354.5,-414.17 1350.67,-418 1346.83,-418"/>
<text text-anchor="middle" x="1286" y="-402.8" font-family="Arial" font-size="14.00" fill="#c6c5fe">services/Firebase.ts</text>
</g>
<!-- components/AuthContainer.tsx&#45;&gt;services/Firebase.ts -->
<g id="edge1" class="edge">
<title>components/AuthContainer.tsx&#45;&gt;services/Firebase.ts</title>
<path fill="none" stroke="#757575" d="M1101.62,-433C1135.05,-428.17 1173.81,-422.57 1207.06,-417.76"/>
<polygon fill="#757575" stroke="#757575" points="1207.79,-421.19 1217.19,-416.3 1206.79,-414.26 1207.79,-421.19"/>
</g>
<!-- interfaces/models.d.ts -->
<g id="node15" class="node">
<title>interfaces/models.d.ts</title>
<path fill="none" stroke="#cfffac" d="M1609.83,-539C1609.83,-539 1476.17,-539 1476.17,-539 1472.33,-539 1468.5,-535.17 1468.5,-531.33 1468.5,-531.33 1468.5,-523.67 1468.5,-523.67 1468.5,-519.83 1472.33,-516 1476.17,-516 1476.17,-516 1609.83,-516 1609.83,-516 1613.67,-516 1617.5,-519.83 1617.5,-523.67 1617.5,-523.67 1617.5,-531.33 1617.5,-531.33 1617.5,-535.17 1613.67,-539 1609.83,-539"/>
<text text-anchor="middle" x="1543" y="-523.8" font-family="Arial" font-size="14.00" fill="#cfffac">interfaces/models.d.ts</text>
</g>
<!-- services/Firebase.ts&#45;&gt;interfaces/models.d.ts -->
<g id="edge50" class="edge">
<title>services/Firebase.ts&#45;&gt;interfaces/models.d.ts</title>
<path fill="none" stroke="#757575" d="M1354.71,-415.53C1368.03,-418.48 1381.68,-422.38 1394,-427.5 1443.56,-448.11 1493.76,-486.56 1521.08,-509.31"/>
<polygon fill="#757575" stroke="#757575" points="1518.9,-512.05 1528.8,-515.83 1523.42,-506.7 1518.9,-512.05"/>
</g>
<!-- components/AuthFrom.tsx -->
<g id="node3" class="node">
<title>components/AuthFrom.tsx</title>
<path fill="none" stroke="#ff6c60" d="M1623.33,-181C1623.33,-181 1462.67,-181 1462.67,-181 1458.83,-181 1455,-177.17 1455,-173.33 1455,-173.33 1455,-165.67 1455,-165.67 1455,-161.83 1458.83,-158 1462.67,-158 1462.67,-158 1623.33,-158 1623.33,-158 1627.17,-158 1631,-161.83 1631,-165.67 1631,-165.67 1631,-173.33 1631,-173.33 1631,-177.17 1627.17,-181 1623.33,-181"/>
<text text-anchor="middle" x="1543" y="-165.8" font-family="Arial" font-size="14.00" fill="#ff6c60">components/AuthFrom.tsx</text>
</g>
<!-- components/Form.tsx -->
<g id="node4" class="node">
<title>components/Form.tsx</title>
<path fill="none" stroke="#cfffac" d="M1832.33,-181C1832.33,-181 1699.67,-181 1699.67,-181 1695.83,-181 1692,-177.17 1692,-173.33 1692,-173.33 1692,-165.67 1692,-165.67 1692,-161.83 1695.83,-158 1699.67,-158 1699.67,-158 1832.33,-158 1832.33,-158 1836.17,-158 1840,-161.83 1840,-165.67 1840,-165.67 1840,-173.33 1840,-173.33 1840,-177.17 1836.17,-181 1832.33,-181"/>
<text text-anchor="middle" x="1766" y="-165.8" font-family="Arial" font-size="14.00" fill="#cfffac">components/Form.tsx</text>
</g>
<!-- components/AuthFrom.tsx&#45;&gt;components/Form.tsx -->
<g id="edge2" class="edge">
<title>components/AuthFrom.tsx&#45;&gt;components/Form.tsx</title>
<path fill="none" stroke="#757575" d="M1631.03,-169.5C1647.73,-169.5 1665.19,-169.5 1681.77,-169.5"/>
<polygon fill="#757575" stroke="#757575" points="1681.97,-173 1691.97,-169.5 1681.97,-166 1681.97,-173"/>
</g>
<!-- components/FormInputGroup.tsx -->
<g id="node5" class="node">
<title>components/FormInputGroup.tsx</title>
<path fill="none" stroke="#ff6c60" d="M1386.33,-262C1386.33,-262 1185.67,-262 1185.67,-262 1181.83,-262 1178,-258.17 1178,-254.33 1178,-254.33 1178,-246.67 1178,-246.67 1178,-242.83 1181.83,-239 1185.67,-239 1185.67,-239 1386.33,-239 1386.33,-239 1390.17,-239 1394,-242.83 1394,-246.67 1394,-246.67 1394,-254.33 1394,-254.33 1394,-258.17 1390.17,-262 1386.33,-262"/>
<text text-anchor="middle" x="1286" y="-246.8" font-family="Arial" font-size="14.00" fill="#ff6c60">components/FormInputGroup.tsx</text>
</g>
<!-- components/AuthFrom.tsx&#45;&gt;components/FormInputGroup.tsx -->
<g id="edge3" class="edge">
<title>components/AuthFrom.tsx&#45;&gt;components/FormInputGroup.tsx</title>
<path fill="none" stroke="#757575" d="M1528.91,-181.11C1505.16,-196.25 1452.86,-220.81 1404.1,-236.39"/>
<polygon fill="#757575" stroke="#757575" points="1402.92,-233.09 1394.4,-239.38 1404.99,-239.78 1402.92,-233.09"/>
</g>
<!-- components/FormInputGroup.tsx&#45;&gt;components/AuthFrom.tsx -->
<g id="edge4" class="edge">
<title>components/FormInputGroup.tsx&#45;&gt;components/AuthFrom.tsx</title>
<path fill="none" stroke="#757575" d="M1317.84,-238.9C1339.43,-234.21 1368.81,-228.96 1394,-221.5 1427.88,-211.47 1464.61,-196.36 1493,-184.79"/>
<polygon fill="#757575" stroke="#757575" points="1494.35,-188.02 1502.29,-181.01 1491.71,-181.53 1494.35,-188.02"/>
</g>
<!-- components/FormInputGroup.scss -->
<g id="node6" class="node">
<title>components/FormInputGroup.scss</title>
<path fill="none" stroke="#cfffac" d="M1648.33,-262C1648.33,-262 1437.67,-262 1437.67,-262 1433.83,-262 1430,-258.17 1430,-254.33 1430,-254.33 1430,-246.67 1430,-246.67 1430,-242.83 1433.83,-239 1437.67,-239 1437.67,-239 1648.33,-239 1648.33,-239 1652.17,-239 1656,-242.83 1656,-246.67 1656,-246.67 1656,-254.33 1656,-254.33 1656,-258.17 1652.17,-262 1648.33,-262"/>
<text text-anchor="middle" x="1543" y="-246.8" font-family="Arial" font-size="14.00" fill="#cfffac">components/FormInputGroup.scss</text>
</g>
<!-- components/FormInputGroup.tsx&#45;&gt;components/FormInputGroup.scss -->
<g id="edge5" class="edge">
<title>components/FormInputGroup.tsx&#45;&gt;components/FormInputGroup.scss</title>
<path fill="none" stroke="#757575" d="M1394.03,-250.5C1402.56,-250.5 1411.21,-250.5 1419.82,-250.5"/>
<polygon fill="#757575" stroke="#757575" points="1419.91,-254 1429.91,-250.5 1419.91,-247 1419.91,-254"/>
</g>
<!-- components/Friends.tsx -->
<g id="node7" class="node">
<title>components/Friends.tsx</title>
<path fill="none" stroke="#cfffac" d="M153.33,-221C153.33,-221 7.67,-221 7.67,-221 3.83,-221 0,-217.17 0,-213.33 0,-213.33 0,-205.67 0,-205.67 0,-201.83 3.83,-198 7.67,-198 7.67,-198 153.33,-198 153.33,-198 157.17,-198 161,-201.83 161,-205.67 161,-205.67 161,-213.33 161,-213.33 161,-217.17 157.17,-221 153.33,-221"/>
<text text-anchor="middle" x="80.5" y="-205.8" font-family="Arial" font-size="14.00" fill="#cfffac">components/Friends.tsx</text>
</g>
<!-- components/MainMenu.tsx -->
<g id="node8" class="node">
<title>components/MainMenu.tsx</title>
<path fill="none" stroke="#c6c5fe" d="M1103.33,-220C1103.33,-220 938.67,-220 938.67,-220 934.83,-220 931,-216.17 931,-212.33 931,-212.33 931,-204.67 931,-204.67 931,-200.83 934.83,-197 938.67,-197 938.67,-197 1103.33,-197 1103.33,-197 1107.17,-197 1111,-200.83 1111,-204.67 1111,-204.67 1111,-212.33 1111,-212.33 1111,-216.17 1107.17,-220 1103.33,-220"/>
<text text-anchor="middle" x="1021" y="-204.8" font-family="Arial" font-size="14.00" fill="#c6c5fe">components/MainMenu.tsx</text>
</g>
<!-- router/routes.ts -->
<g id="node9" class="node">
<title>router/routes.ts</title>
<path fill="none" stroke="#cfffac" d="M1331.83,-180C1331.83,-180 1240.17,-180 1240.17,-180 1236.33,-180 1232.5,-176.17 1232.5,-172.33 1232.5,-172.33 1232.5,-164.67 1232.5,-164.67 1232.5,-160.83 1236.33,-157 1240.17,-157 1240.17,-157 1331.83,-157 1331.83,-157 1335.67,-157 1339.5,-160.83 1339.5,-164.67 1339.5,-164.67 1339.5,-172.33 1339.5,-172.33 1339.5,-176.17 1335.67,-180 1331.83,-180"/>
<text text-anchor="middle" x="1286" y="-164.8" font-family="Arial" font-size="14.00" fill="#cfffac">router/routes.ts</text>
</g>
<!-- components/MainMenu.tsx&#45;&gt;router/routes.ts -->
<g id="edge6" class="edge">
<title>components/MainMenu.tsx&#45;&gt;router/routes.ts</title>
<path fill="none" stroke="#757575" d="M1097.72,-196.98C1137.11,-190.99 1184.7,-183.75 1222.05,-178.07"/>
<polygon fill="#757575" stroke="#757575" points="1222.94,-181.48 1232.3,-176.52 1221.89,-174.56 1222.94,-181.48"/>
</g>
<!-- services/LocalData.ts -->
<g id="node10" class="node">
<title>services/LocalData.ts</title>
<path fill="none" stroke="#cfffac" d="M1350.83,-221C1350.83,-221 1221.17,-221 1221.17,-221 1217.33,-221 1213.5,-217.17 1213.5,-213.33 1213.5,-213.33 1213.5,-205.67 1213.5,-205.67 1213.5,-201.83 1217.33,-198 1221.17,-198 1221.17,-198 1350.83,-198 1350.83,-198 1354.67,-198 1358.5,-201.83 1358.5,-205.67 1358.5,-205.67 1358.5,-213.33 1358.5,-213.33 1358.5,-217.17 1354.67,-221 1350.83,-221"/>
<text text-anchor="middle" x="1286" y="-205.8" font-family="Arial" font-size="14.00" fill="#cfffac">services/LocalData.ts</text>
</g>
<!-- components/MainMenu.tsx&#45;&gt;services/LocalData.ts -->
<g id="edge7" class="edge">
<title>components/MainMenu.tsx&#45;&gt;services/LocalData.ts</title>
<path fill="none" stroke="#757575" d="M1111.04,-208.84C1140.9,-208.95 1174.03,-209.08 1203.3,-209.19"/>
<polygon fill="#757575" stroke="#757575" points="1203.47,-212.69 1213.48,-209.23 1203.49,-205.69 1203.47,-212.69"/>
</g>
<!-- components/ModalForm.scss -->
<g id="node11" class="node">
<title>components/ModalForm.scss</title>
<path fill="none" stroke="#cfffac" d="M1375.83,-577C1375.83,-577 1196.17,-577 1196.17,-577 1192.33,-577 1188.5,-573.17 1188.5,-569.33 1188.5,-569.33 1188.5,-561.67 1188.5,-561.67 1188.5,-557.83 1192.33,-554 1196.17,-554 1196.17,-554 1375.83,-554 1375.83,-554 1379.67,-554 1383.5,-557.83 1383.5,-561.67 1383.5,-561.67 1383.5,-569.33 1383.5,-569.33 1383.5,-573.17 1379.67,-577 1375.83,-577"/>
<text text-anchor="middle" x="1286" y="-561.8" font-family="Arial" font-size="14.00" fill="#cfffac">components/ModalForm.scss</text>
</g>
<!-- components/ModalForm.tsx -->
<g id="node12" class="node">
<title>components/ModalForm.tsx</title>
<path fill="none" stroke="#c6c5fe" d="M1105.83,-577C1105.83,-577 936.17,-577 936.17,-577 932.33,-577 928.5,-573.17 928.5,-569.33 928.5,-569.33 928.5,-561.67 928.5,-561.67 928.5,-557.83 932.33,-554 936.17,-554 936.17,-554 1105.83,-554 1105.83,-554 1109.67,-554 1113.5,-557.83 1113.5,-561.67 1113.5,-561.67 1113.5,-569.33 1113.5,-569.33 1113.5,-573.17 1109.67,-577 1105.83,-577"/>
<text text-anchor="middle" x="1021" y="-561.8" font-family="Arial" font-size="14.00" fill="#c6c5fe">components/ModalForm.tsx</text>
</g>
<!-- components/ModalForm.tsx&#45;&gt;components/ModalForm.scss -->
<g id="edge8" class="edge">
<title>components/ModalForm.tsx&#45;&gt;components/ModalForm.scss</title>
<path fill="none" stroke="#757575" d="M1113.62,-565.5C1134.48,-565.5 1156.82,-565.5 1178.24,-565.5"/>
<polygon fill="#757575" stroke="#757575" points="1178.35,-569 1188.35,-565.5 1178.35,-562 1178.35,-569"/>
</g>
<!-- components/Navbar.tsx -->
<g id="node13" class="node">
<title>components/Navbar.tsx</title>
<path fill="none" stroke="#cfffac" d="M151.83,-262C151.83,-262 9.17,-262 9.17,-262 5.33,-262 1.5,-258.17 1.5,-254.33 1.5,-254.33 1.5,-246.67 1.5,-246.67 1.5,-242.83 5.33,-239 9.17,-239 9.17,-239 151.83,-239 151.83,-239 155.67,-239 159.5,-242.83 159.5,-246.67 159.5,-246.67 159.5,-254.33 159.5,-254.33 159.5,-258.17 155.67,-262 151.83,-262"/>
<text text-anchor="middle" x="80.5" y="-246.8" font-family="Arial" font-size="14.00" fill="#cfffac">components/Navbar.tsx</text>
</g>
<!-- components/ProductForm.tsx -->
<g id="node14" class="node">
<title>components/ProductForm.tsx</title>
<path fill="none" stroke="#c6c5fe" d="M1110.33,-536C1110.33,-536 931.67,-536 931.67,-536 927.83,-536 924,-532.17 924,-528.33 924,-528.33 924,-520.67 924,-520.67 924,-516.83 927.83,-513 931.67,-513 931.67,-513 1110.33,-513 1110.33,-513 1114.17,-513 1118,-516.83 1118,-520.67 1118,-520.67 1118,-528.33 1118,-528.33 1118,-532.17 1114.17,-536 1110.33,-536"/>
<text text-anchor="middle" x="1021" y="-520.8" font-family="Arial" font-size="14.00" fill="#c6c5fe">components/ProductForm.tsx</text>
</g>
<!-- components/ProductForm.tsx&#45;&gt;components/Form.tsx -->
<g id="edge9" class="edge">
<title>components/ProductForm.tsx&#45;&gt;components/Form.tsx</title>
<path fill="none" stroke="#757575" d="M1118.28,-518.44C1274.75,-506.78 1574.93,-476.32 1656,-410.5 1727.12,-352.75 1753.59,-238.64 1761.81,-191.09"/>
<polygon fill="#757575" stroke="#757575" points="1765.3,-191.44 1763.45,-181 1758.39,-190.31 1765.3,-191.44"/>
</g>
<!-- components/ProductForm.tsx&#45;&gt;components/FormInputGroup.tsx -->
<g id="edge10" class="edge">
<title>components/ProductForm.tsx&#45;&gt;components/FormInputGroup.tsx</title>
<path fill="none" stroke="#757575" d="M1061.04,-513C1086.79,-503.72 1119.76,-488.4 1142,-465.5 1168.88,-437.82 1157.93,-419.45 1178,-386.5 1205.22,-341.82 1244.92,-294.99 1267.53,-269.61"/>
<polygon fill="#757575" stroke="#757575" points="1270.15,-271.94 1274.23,-262.16 1264.94,-267.26 1270.15,-271.94"/>
</g>
<!-- components/ProductForm.tsx&#45;&gt;interfaces/models.d.ts -->
<g id="edge11" class="edge">
<title>components/ProductForm.tsx&#45;&gt;interfaces/models.d.ts</title>
<path fill="none" stroke="#757575" d="M1118.29,-525.06C1215.91,-525.62 1365.46,-526.48 1458.3,-527.02"/>
<polygon fill="#757575" stroke="#757575" points="1458.48,-530.52 1468.5,-527.08 1458.52,-523.52 1458.48,-530.52"/>
</g>
<!-- services/RestService.ts -->
<g id="node16" class="node">
<title>services/RestService.ts</title>
<path fill="none" stroke="#c6c5fe" d="M1356.83,-459C1356.83,-459 1215.17,-459 1215.17,-459 1211.33,-459 1207.5,-455.17 1207.5,-451.33 1207.5,-451.33 1207.5,-443.67 1207.5,-443.67 1207.5,-439.83 1211.33,-436 1215.17,-436 1215.17,-436 1356.83,-436 1356.83,-436 1360.67,-436 1364.5,-439.83 1364.5,-443.67 1364.5,-443.67 1364.5,-451.33 1364.5,-451.33 1364.5,-455.17 1360.67,-459 1356.83,-459"/>
<text text-anchor="middle" x="1286" y="-443.8" font-family="Arial" font-size="14.00" fill="#c6c5fe">services/RestService.ts</text>
</g>
<!-- components/ProductForm.tsx&#45;&gt;services/RestService.ts -->
<g id="edge12" class="edge">
<title>components/ProductForm.tsx&#45;&gt;services/RestService.ts</title>
<path fill="none" stroke="#757575" d="M1097.05,-513C1112.28,-509.35 1127.93,-504.62 1142,-498.5 1159.86,-490.73 1160.23,-481.49 1178,-473.5 1188.38,-468.83 1199.73,-464.93 1211.02,-461.68"/>
<polygon fill="#757575" stroke="#757575" points="1212.17,-465 1220.91,-459 1210.34,-458.24 1212.17,-465"/>
</g>
<!-- services/RestService.ts&#45;&gt;interfaces/models.d.ts -->
<g id="edge51" class="edge">
<title>services/RestService.ts&#45;&gt;interfaces/models.d.ts</title>
<path fill="none" stroke="#757575" d="M1323.81,-459.05C1369.1,-473.26 1446.05,-497.4 1495.41,-512.88"/>
<polygon fill="#757575" stroke="#757575" points="1494.62,-516.3 1505.2,-515.96 1496.71,-509.62 1494.62,-516.3"/>
</g>
<!-- services/products.json.ts -->
<g id="node25" class="node">
<title>services/products.json.ts</title>
<path fill="none" stroke="#cfffac" d="M1617.33,-401C1617.33,-401 1468.67,-401 1468.67,-401 1464.83,-401 1461,-397.17 1461,-393.33 1461,-393.33 1461,-385.67 1461,-385.67 1461,-381.83 1464.83,-378 1468.67,-378 1468.67,-378 1617.33,-378 1617.33,-378 1621.17,-378 1625,-381.83 1625,-385.67 1625,-385.67 1625,-393.33 1625,-393.33 1625,-397.17 1621.17,-401 1617.33,-401"/>
<text text-anchor="middle" x="1543" y="-385.8" font-family="Arial" font-size="14.00" fill="#cfffac">services/products.json.ts</text>
</g>
<!-- services/RestService.ts&#45;&gt;services/products.json.ts -->
<g id="edge52" class="edge">
<title>services/RestService.ts&#45;&gt;services/products.json.ts</title>
<path fill="none" stroke="#757575" d="M1352.5,-435.97C1366.24,-433.35 1380.62,-430.46 1394,-427.5 1426.2,-420.36 1462.04,-411.2 1490.38,-403.65"/>
<polygon fill="#757575" stroke="#757575" points="1491.32,-407.02 1500.07,-401.06 1489.51,-400.26 1491.32,-407.02"/>
</g>
<!-- components/ProductFormModal.tsx -->
<g id="node17" class="node">
<title>components/ProductFormModal.tsx</title>
<path fill="none" stroke="#c6c5fe" d="M856.33,-557C856.33,-557 639.67,-557 639.67,-557 635.83,-557 632,-553.17 632,-549.33 632,-549.33 632,-541.67 632,-541.67 632,-537.83 635.83,-534 639.67,-534 639.67,-534 856.33,-534 856.33,-534 860.17,-534 864,-537.83 864,-541.67 864,-541.67 864,-549.33 864,-549.33 864,-553.17 860.17,-557 856.33,-557"/>
<text text-anchor="middle" x="748" y="-541.8" font-family="Arial" font-size="14.00" fill="#c6c5fe">components/ProductFormModal.tsx</text>
</g>
<!-- components/ProductFormModal.tsx&#45;&gt;components/ModalForm.tsx -->
<g id="edge13" class="edge">
<title>components/ProductFormModal.tsx&#45;&gt;components/ModalForm.tsx</title>
<path fill="none" stroke="#757575" d="M864.32,-554.01C882.14,-555.33 900.44,-556.68 917.95,-557.97"/>
<polygon fill="#757575" stroke="#757575" points="917.92,-561.48 928.15,-558.72 918.44,-554.5 917.92,-561.48"/>
</g>
<!-- components/ProductFormModal.tsx&#45;&gt;components/ProductForm.tsx -->
<g id="edge14" class="edge">
<title>components/ProductFormModal.tsx&#45;&gt;components/ProductForm.tsx</title>
<path fill="none" stroke="#757575" d="M864.32,-536.56C880.78,-535.29 897.65,-533.98 913.93,-532.72"/>
<polygon fill="#757575" stroke="#757575" points="914.28,-536.2 923.98,-531.94 913.74,-529.22 914.28,-536.2"/>
</g>
<!-- components/ProductFormModal.tsx&#45;&gt;interfaces/models.d.ts -->
<g id="edge15" class="edge">
<title>components/ProductFormModal.tsx&#45;&gt;interfaces/models.d.ts</title>
<path fill="none" stroke="#757575" d="M781.48,-557.01C811.71,-567.08 858.26,-580.93 900,-586.5 1117.63,-615.52 1178.38,-627.89 1394,-586.5 1436.22,-578.39 1481.73,-558.38 1510.97,-543.91"/>
<polygon fill="#757575" stroke="#757575" points="1512.88,-546.87 1520.24,-539.24 1509.73,-540.62 1512.88,-546.87"/>
</g>
<!-- components/ProductList.tsx -->
<g id="node18" class="node">
<title>components/ProductList.tsx</title>
<path fill="none" stroke="#c6c5fe" d="M831.83,-695C831.83,-695 664.17,-695 664.17,-695 660.33,-695 656.5,-691.17 656.5,-687.33 656.5,-687.33 656.5,-679.67 656.5,-679.67 656.5,-675.83 660.33,-672 664.17,-672 664.17,-672 831.83,-672 831.83,-672 835.67,-672 839.5,-675.83 839.5,-679.67 839.5,-679.67 839.5,-687.33 839.5,-687.33 839.5,-691.17 835.67,-695 831.83,-695"/>
<text text-anchor="middle" x="748" y="-679.8" font-family="Arial" font-size="14.00" fill="#c6c5fe">components/ProductList.tsx</text>
</g>
<!-- components/ProductList.tsx&#45;&gt;interfaces/models.d.ts -->
<g id="edge16" class="edge">
<title>components/ProductList.tsx&#45;&gt;interfaces/models.d.ts</title>
<path fill="none" stroke="#757575" d="M802.59,-695.04C917.73,-717.02 1194.44,-754.53 1394,-657.5 1449.99,-630.28 1501.18,-576.04 1526.09,-546.97"/>
<polygon fill="#757575" stroke="#757575" points="1528.92,-549.05 1532.68,-539.15 1523.56,-544.54 1528.92,-549.05"/>
</g>
<!-- utils/Array.ts -->
<g id="node19" class="node">
<title>utils/Array.ts</title>
<path fill="none" stroke="#cfffac" d="M1058.33,-695C1058.33,-695 983.67,-695 983.67,-695 979.83,-695 976,-691.17 976,-687.33 976,-687.33 976,-679.67 976,-679.67 976,-675.83 979.83,-672 983.67,-672 983.67,-672 1058.33,-672 1058.33,-672 1062.17,-672 1066,-675.83 1066,-679.67 1066,-679.67 1066,-687.33 1066,-687.33 1066,-691.17 1062.17,-695 1058.33,-695"/>
<text text-anchor="middle" x="1021" y="-679.8" font-family="Arial" font-size="14.00" fill="#cfffac">utils/Array.ts</text>
</g>
<!-- components/ProductList.tsx&#45;&gt;utils/Array.ts -->
<g id="edge17" class="edge">
<title>components/ProductList.tsx&#45;&gt;utils/Array.ts</title>
<path fill="none" stroke="#757575" d="M839.62,-683.5C881.35,-683.5 929.49,-683.5 965.53,-683.5"/>
<polygon fill="#757575" stroke="#757575" points="965.84,-687 975.84,-683.5 965.84,-680 965.84,-687"/>
</g>
<!-- components/ResetPasswordPage.tsx -->
<g id="node20" class="node">
<title>components/ResetPasswordPage.tsx</title>
<path fill="none" stroke="#c6c5fe" d="M1134.33,-300C1134.33,-300 907.67,-300 907.67,-300 903.83,-300 900,-296.17 900,-292.33 900,-292.33 900,-284.67 900,-284.67 900,-280.83 903.83,-277 907.67,-277 907.67,-277 1134.33,-277 1134.33,-277 1138.17,-277 1142,-280.83 1142,-284.67 1142,-284.67 1142,-292.33 1142,-292.33 1142,-296.17 1138.17,-300 1134.33,-300"/>
<text text-anchor="middle" x="1021" y="-284.8" font-family="Arial" font-size="14.00" fill="#c6c5fe">components/ResetPasswordPage.tsx</text>
</g>
<!-- components/ResetPasswordPage.tsx&#45;&gt;components/Form.tsx -->
<g id="edge18" class="edge">
<title>components/ResetPasswordPage.tsx&#45;&gt;components/Form.tsx</title>
<path fill="none" stroke="#757575" d="M1079.44,-300.03C1194.16,-320.3 1457.63,-352.93 1656,-271.5 1697.43,-254.5 1732.58,-213.98 1751.07,-189.44"/>
<polygon fill="#757575" stroke="#757575" points="1754.02,-191.33 1757.1,-181.19 1748.37,-187.19 1754.02,-191.33"/>
</g>
<!-- components/ResetPasswordPage.tsx&#45;&gt;components/FormInputGroup.tsx -->
<g id="edge19" class="edge">
<title>components/ResetPasswordPage.tsx&#45;&gt;components/FormInputGroup.tsx</title>
<path fill="none" stroke="#757575" d="M1101.62,-277C1131.1,-272.74 1164.71,-267.88 1195.05,-263.5"/>
<polygon fill="#757575" stroke="#757575" points="1195.8,-266.92 1205.19,-262.03 1194.8,-260 1195.8,-266.92"/>
</g>
<!-- containers/AccountPage.tsx -->
<g id="node21" class="node">
<title>containers/AccountPage.tsx</title>
<path fill="none" stroke="#c6c5fe" d="M373.33,-420C373.33,-420 204.67,-420 204.67,-420 200.83,-420 197,-416.17 197,-412.33 197,-412.33 197,-404.67 197,-404.67 197,-400.83 200.83,-397 204.67,-397 204.67,-397 373.33,-397 373.33,-397 377.17,-397 381,-400.83 381,-404.67 381,-404.67 381,-412.33 381,-412.33 381,-416.17 377.17,-420 373.33,-420"/>
<text text-anchor="middle" x="289" y="-404.8" font-family="Arial" font-size="14.00" fill="#c6c5fe">containers/AccountPage.tsx</text>
</g>
<!-- containers/AccountPage.tsx&#45;&gt;components/AuthContainer.tsx -->
<g id="edge20" class="edge">
<title>containers/AccountPage.tsx&#45;&gt;components/AuthContainer.tsx</title>
<path fill="none" stroke="#757575" d="M381.35,-413C515.66,-419.63 766.05,-431.98 910.19,-439.08"/>
<polygon fill="#757575" stroke="#757575" points="910.22,-442.59 920.38,-439.59 910.57,-435.6 910.22,-442.59"/>
</g>
<!-- containers/ProductView.tsx -->
<g id="node22" class="node">
<title>containers/ProductView.tsx</title>
<path fill="none" stroke="#c6c5fe" d="M588.33,-536C588.33,-536 424.67,-536 424.67,-536 420.83,-536 417,-532.17 417,-528.33 417,-528.33 417,-520.67 417,-520.67 417,-516.83 420.83,-513 424.67,-513 424.67,-513 588.33,-513 588.33,-513 592.17,-513 596,-516.83 596,-520.67 596,-520.67 596,-528.33 596,-528.33 596,-532.17 592.17,-536 588.33,-536"/>
<text text-anchor="middle" x="506.5" y="-520.8" font-family="Arial" font-size="14.00" fill="#c6c5fe">containers/ProductView.tsx</text>
</g>
<!-- containers/AccountPage.tsx&#45;&gt;containers/ProductView.tsx -->
<g id="edge21" class="edge">
<title>containers/AccountPage.tsx&#45;&gt;containers/ProductView.tsx</title>
<path fill="none" stroke="#757575" d="M311.45,-420.05C349.92,-440.75 430.72,-484.25 474.96,-508.06"/>
<polygon fill="#757575" stroke="#757575" points="473.35,-511.17 483.82,-512.83 476.67,-505.01 473.35,-511.17"/>
</g>
<!-- containers/ProductView.tsx&#45;&gt;components/AuthContainer.tsx -->
<g id="edge35" class="edge">
<title>containers/ProductView.tsx&#45;&gt;components/AuthContainer.tsx</title>
<path fill="none" stroke="#757575" d="M528.32,-512.82C552.43,-499.93 593.76,-479.78 632,-470.5 723.83,-448.21 831.23,-442.53 909.72,-441.95"/>
<polygon fill="#757575" stroke="#757575" points="910.13,-445.45 920.11,-441.9 910.1,-438.45 910.13,-445.45"/>
</g>
<!-- containers/ProductView.tsx&#45;&gt;interfaces/models.d.ts -->
<g id="edge38" class="edge">
<title>containers/ProductView.tsx&#45;&gt;interfaces/models.d.ts</title>
<path fill="none" stroke="#757575" d="M537.56,-536.07C562.54,-545.34 599.17,-558.14 632,-566.5 960.81,-650.28 1066.37,-701.78 1394,-613.5 1442.94,-600.31 1492.35,-566.53 1519.89,-545.44"/>
<polygon fill="#757575" stroke="#757575" points="1522.31,-548 1528.04,-539.09 1518,-542.48 1522.31,-548"/>
</g>
<!-- containers/ProductView.tsx&#45;&gt;services/RestService.ts -->
<g id="edge39" class="edge">
<title>containers/ProductView.tsx&#45;&gt;services/RestService.ts</title>
<path fill="none" stroke="#757575" d="M596.13,-517.17C718.87,-506.82 947.48,-486.78 1142,-465.5 1159.94,-463.54 1179.13,-461.25 1197.43,-458.98"/>
<polygon fill="#757575" stroke="#757575" points="1198.01,-462.43 1207.5,-457.72 1197.14,-455.49 1198.01,-462.43"/>
</g>
<!-- containers/ProductView.tsx&#45;&gt;components/ProductFormModal.tsx -->
<g id="edge36" class="edge">
<title>containers/ProductView.tsx&#45;&gt;components/ProductFormModal.tsx</title>
<path fill="none" stroke="#757575" d="M596,-532.26C604.43,-533 613.08,-533.76 621.77,-534.52"/>
<polygon fill="#757575" stroke="#757575" points="621.71,-538.03 631.97,-535.41 622.32,-531.05 621.71,-538.03"/>
</g>
<!-- containers/ProductView.tsx&#45;&gt;components/ProductList.tsx -->
<g id="edge37" class="edge">
<title>containers/ProductView.tsx&#45;&gt;components/ProductList.tsx</title>
<path fill="none" stroke="#757575" d="M514.89,-536.29C532,-562.56 577.12,-626.05 632,-657.5 639.89,-662.02 648.51,-665.76 657.36,-668.84"/>
<polygon fill="#757575" stroke="#757575" points="656.44,-672.22 667.03,-671.94 658.58,-665.56 656.44,-672.22"/>
</g>
<!-- containers/App.test.tsx -->
<g id="node23" class="node">
<title>containers/App.test.tsx</title>
<path fill="none" stroke="#c6c5fe" d="M575.33,-340C575.33,-340 437.67,-340 437.67,-340 433.83,-340 430,-336.17 430,-332.33 430,-332.33 430,-324.67 430,-324.67 430,-320.83 433.83,-317 437.67,-317 437.67,-317 575.33,-317 575.33,-317 579.17,-317 583,-320.83 583,-324.67 583,-324.67 583,-332.33 583,-332.33 583,-336.17 579.17,-340 575.33,-340"/>
<text text-anchor="middle" x="506.5" y="-324.8" font-family="Arial" font-size="14.00" fill="#c6c5fe">containers/App.test.tsx</text>
</g>
<!-- containers/App.tsx -->
<g id="node24" class="node">
<title>containers/App.tsx</title>
<path fill="none" stroke="#c6c5fe" d="M804.33,-340C804.33,-340 691.67,-340 691.67,-340 687.83,-340 684,-336.17 684,-332.33 684,-332.33 684,-324.67 684,-324.67 684,-320.83 687.83,-317 691.67,-317 691.67,-317 804.33,-317 804.33,-317 808.17,-317 812,-320.83 812,-324.67 812,-324.67 812,-332.33 812,-332.33 812,-336.17 808.17,-340 804.33,-340"/>
<text text-anchor="middle" x="748" y="-324.8" font-family="Arial" font-size="14.00" fill="#c6c5fe">containers/App.tsx</text>
</g>
<!-- containers/App.test.tsx&#45;&gt;containers/App.tsx -->
<g id="edge22" class="edge">
<title>containers/App.test.tsx&#45;&gt;containers/App.tsx</title>
<path fill="none" stroke="#757575" d="M583.28,-328.5C612.08,-328.5 644.83,-328.5 673.43,-328.5"/>
<polygon fill="#757575" stroke="#757575" points="673.76,-332 683.76,-328.5 673.76,-325 673.76,-332"/>
</g>
<!-- containers/App.tsx&#45;&gt;components/AuthContainer.tsx -->
<g id="edge23" class="edge">
<title>containers/App.tsx&#45;&gt;components/AuthContainer.tsx</title>
<path fill="none" stroke="#757575" d="M770.02,-340.01C793.27,-352.86 831.71,-374.5 864,-394.5 880.35,-404.62 882.29,-411 900,-418.5 911.31,-423.29 923.6,-427.24 935.86,-430.49"/>
<polygon fill="#757575" stroke="#757575" points="935.12,-433.91 945.67,-432.94 936.82,-427.12 935.12,-433.91"/>
</g>
<!-- containers/App.tsx&#45;&gt;services/Firebase.ts -->
<g id="edge26" class="edge">
<title>containers/App.tsx&#45;&gt;services/Firebase.ts</title>
<path fill="none" stroke="#757575" d="M775.68,-340.1C805.39,-352.45 855.16,-371.43 900,-380.5 1004.79,-401.69 1128.54,-406.57 1206.9,-407.23"/>
<polygon fill="#757575" stroke="#757575" points="1207.15,-410.73 1217.17,-407.3 1207.19,-403.73 1207.15,-410.73"/>
</g>
<!-- containers/App.tsx&#45;&gt;components/MainMenu.tsx -->
<g id="edge24" class="edge">
<title>containers/App.tsx&#45;&gt;components/MainMenu.tsx</title>
<path fill="none" stroke="#757575" d="M763.91,-316.74C789.98,-296.78 846.2,-256.31 900,-234.5 911.89,-229.68 924.81,-225.69 937.64,-222.41"/>
<polygon fill="#757575" stroke="#757575" points="938.51,-225.8 947.4,-220.03 936.86,-219 938.51,-225.8"/>
</g>
<!-- containers/App.tsx&#45;&gt;services/LocalData.ts -->
<g id="edge27" class="edge">
<title>containers/App.tsx&#45;&gt;services/LocalData.ts</title>
<path fill="none" stroke="#757575" d="M773,-316.99C802.32,-303.4 853.72,-281.07 900,-268.5 928.62,-260.73 1098.77,-235.91 1203.07,-221.05"/>
<polygon fill="#757575" stroke="#757575" points="1203.85,-224.47 1213.26,-219.6 1202.86,-217.54 1203.85,-224.47"/>
</g>
<!-- containers/App.tsx&#45;&gt;interfaces/models.d.ts -->
<g id="edge25" class="edge">
<title>containers/App.tsx&#45;&gt;interfaces/models.d.ts</title>
<path fill="none" stroke="#757575" d="M812.24,-334.05C974.05,-348.27 1390.7,-385 1394,-386.5 1424.97,-400.53 1492.51,-472.57 1524.51,-507.9"/>
<polygon fill="#757575" stroke="#757575" points="1522.19,-510.56 1531.49,-515.65 1527.39,-505.87 1522.19,-510.56"/>
</g>
<!-- containers/App.tsx&#45;&gt;services/products.json.ts -->
<g id="edge28" class="edge">
<title>containers/App.tsx&#45;&gt;services/products.json.ts</title>
<path fill="none" stroke="#757575" d="M812.1,-326.52C928.02,-323.85 1182.38,-322.44 1394,-352.5 1428.36,-357.38 1466.33,-366.96 1495.2,-375.15"/>
<polygon fill="#757575" stroke="#757575" points="1494.44,-378.57 1505.02,-377.98 1496.38,-371.84 1494.44,-378.57"/>
</g>
<!-- containers/AuthPage.scss -->
<g id="node26" class="node">
<title>containers/AuthPage.scss</title>
<path fill="none" stroke="#cfffac" d="M1621.83,-23C1621.83,-23 1464.17,-23 1464.17,-23 1460.33,-23 1456.5,-19.17 1456.5,-15.33 1456.5,-15.33 1456.5,-7.67 1456.5,-7.67 1456.5,-3.83 1460.33,0 1464.17,0 1464.17,0 1621.83,0 1621.83,0 1625.67,0 1629.5,-3.83 1629.5,-7.67 1629.5,-7.67 1629.5,-15.33 1629.5,-15.33 1629.5,-19.17 1625.67,-23 1621.83,-23"/>
<text text-anchor="middle" x="1543" y="-7.8" font-family="Arial" font-size="14.00" fill="#cfffac">containers/AuthPage.scss</text>
</g>
<!-- containers/AuthPage.tsx -->
<g id="node27" class="node">
<title>containers/AuthPage.tsx</title>
<path fill="none" stroke="#c6c5fe" d="M1094.83,-140C1094.83,-140 947.17,-140 947.17,-140 943.33,-140 939.5,-136.17 939.5,-132.33 939.5,-132.33 939.5,-124.67 939.5,-124.67 939.5,-120.83 943.33,-117 947.17,-117 947.17,-117 1094.83,-117 1094.83,-117 1098.67,-117 1102.5,-120.83 1102.5,-124.67 1102.5,-124.67 1102.5,-132.33 1102.5,-132.33 1102.5,-136.17 1098.67,-140 1094.83,-140"/>
<text text-anchor="middle" x="1021" y="-124.8" font-family="Arial" font-size="14.00" fill="#c6c5fe">containers/AuthPage.tsx</text>
</g>
<!-- containers/AuthPage.tsx&#45;&gt;services/Firebase.ts -->
<g id="edge34" class="edge">
<title>containers/AuthPage.tsx&#45;&gt;services/Firebase.ts</title>
<path fill="none" stroke="#757575" d="M1060.61,-140.01C1086.51,-149.44 1119.82,-165.08 1142,-188.5 1169.65,-217.7 1157.34,-237.01 1178,-271.5 1204.65,-315.99 1244.29,-362.14 1267.09,-387.3"/>
<polygon fill="#757575" stroke="#757575" points="1264.8,-389.98 1274.14,-394.99 1269.97,-385.25 1264.8,-389.98"/>
</g>
<!-- containers/AuthPage.tsx&#45;&gt;components/AuthFrom.tsx -->
<g id="edge29" class="edge">
<title>containers/AuthPage.tsx&#45;&gt;components/AuthFrom.tsx</title>
<path fill="none" stroke="#757575" d="M1102.72,-130.38C1178.18,-132.66 1293.94,-137.53 1394,-147.5 1416.75,-149.77 1441.35,-153.08 1463.85,-156.44"/>
<polygon fill="#757575" stroke="#757575" points="1463.6,-159.95 1474.02,-157.99 1464.66,-153.02 1463.6,-159.95"/>
</g>
<!-- containers/AuthPage.tsx&#45;&gt;components/Form.tsx -->
<g id="edge30" class="edge">
<title>containers/AuthPage.tsx&#45;&gt;components/Form.tsx</title>
<path fill="none" stroke="#757575" d="M1102.73,-125.92C1223.61,-123.2 1458.53,-122.41 1656,-148.5 1670.9,-150.47 1686.84,-153.19 1701.8,-156.02"/>
<polygon fill="#757575" stroke="#757575" points="1701.5,-159.52 1711.98,-157.98 1702.83,-152.65 1701.5,-159.52"/>
</g>
<!-- containers/AuthPage.tsx&#45;&gt;router/routes.ts -->
<g id="edge33" class="edge">
<title>containers/AuthPage.tsx&#45;&gt;router/routes.ts</title>
<path fill="none" stroke="#757575" d="M1097.72,-140.02C1137.11,-146.01 1184.7,-153.25 1222.05,-158.93"/>
<polygon fill="#757575" stroke="#757575" points="1221.89,-162.44 1232.3,-160.48 1222.94,-155.52 1221.89,-162.44"/>
</g>
<!-- containers/AuthPage.tsx&#45;&gt;containers/AuthPage.scss -->
<g id="edge31" class="edge">
<title>containers/AuthPage.tsx&#45;&gt;containers/AuthPage.scss</title>
<path fill="none" stroke="#757575" d="M1034.97,-116.87C1060.29,-94.99 1118.99,-48.24 1178,-29.5 1265.69,-1.66 1371.2,0.36 1446,-3.09"/>
<polygon fill="#757575" stroke="#757575" points="1446.18,-6.6 1456.34,-3.61 1446.53,0.39 1446.18,-6.6"/>
</g>
<!-- containers/SignUpModal.tsx -->
<g id="node28" class="node">
<title>containers/SignUpModal.tsx</title>
<path fill="none" stroke="#c6c5fe" d="M1370.83,-62C1370.83,-62 1201.17,-62 1201.17,-62 1197.33,-62 1193.5,-58.17 1193.5,-54.33 1193.5,-54.33 1193.5,-46.67 1193.5,-46.67 1193.5,-42.83 1197.33,-39 1201.17,-39 1201.17,-39 1370.83,-39 1370.83,-39 1374.67,-39 1378.5,-42.83 1378.5,-46.67 1378.5,-46.67 1378.5,-54.33 1378.5,-54.33 1378.5,-58.17 1374.67,-62 1370.83,-62"/>
<text text-anchor="middle" x="1286" y="-46.8" font-family="Arial" font-size="14.00" fill="#c6c5fe">containers/SignUpModal.tsx</text>
</g>
<!-- containers/AuthPage.tsx&#45;&gt;containers/SignUpModal.tsx -->
<g id="edge32" class="edge">
<title>containers/AuthPage.tsx&#45;&gt;containers/SignUpModal.tsx</title>
<path fill="none" stroke="#757575" d="M1054.02,-116.95C1085.39,-105.85 1134.65,-88.97 1178,-76.5 1192.84,-72.23 1208.98,-68.07 1224.11,-64.37"/>
<polygon fill="#757575" stroke="#757575" points="1224.98,-67.75 1233.88,-62 1223.34,-60.95 1224.98,-67.75"/>
</g>
<!-- containers/SignUpModal.tsx&#45;&gt;components/AuthFrom.tsx -->
<g id="edge40" class="edge">
<title>containers/SignUpModal.tsx&#45;&gt;components/AuthFrom.tsx</title>
<path fill="none" stroke="#757575" d="M1311.91,-62.13C1357.81,-83.54 1455.76,-129.25 1507.82,-153.55"/>
<polygon fill="#757575" stroke="#757575" points="1506.44,-156.77 1516.98,-157.83 1509.4,-150.43 1506.44,-156.77"/>
</g>
<!-- containers/SignUpModal.tsx&#45;&gt;components/Form.tsx -->
<g id="edge41" class="edge">
<title>containers/SignUpModal.tsx&#45;&gt;components/Form.tsx</title>
<path fill="none" stroke="#757575" d="M1378.54,-41.42C1455.48,-37.37 1566.84,-40.02 1656,-76.5 1694.79,-92.37 1729.73,-127.63 1749.09,-149.89"/>
<polygon fill="#757575" stroke="#757575" points="1746.59,-152.35 1755.72,-157.71 1751.93,-147.82 1746.59,-152.35"/>
</g>
<!-- containers/SignUpModal.tsx&#45;&gt;containers/AuthPage.scss -->
<g id="edge42" class="edge">
<title>containers/SignUpModal.tsx&#45;&gt;containers/AuthPage.scss</title>
<path fill="none" stroke="#757575" d="M1362.47,-38.96C1392.03,-34.44 1426.09,-29.23 1456.54,-24.57"/>
<polygon fill="#757575" stroke="#757575" points="1457.36,-27.99 1466.72,-23.01 1456.31,-21.07 1457.36,-27.99"/>
</g>
<!-- index.css -->
<g id="node29" class="node">
<title>index.css</title>
<path fill="none" stroke="#cfffac" d="M317.83,-102C317.83,-102 260.17,-102 260.17,-102 256.33,-102 252.5,-98.17 252.5,-94.33 252.5,-94.33 252.5,-86.67 252.5,-86.67 252.5,-82.83 256.33,-79 260.17,-79 260.17,-79 317.83,-79 317.83,-79 321.67,-79 325.5,-82.83 325.5,-86.67 325.5,-86.67 325.5,-94.33 325.5,-94.33 325.5,-98.17 321.67,-102 317.83,-102"/>
<text text-anchor="middle" x="289" y="-86.8" font-family="Arial" font-size="14.00" fill="#cfffac">index.css</text>
</g>
<!-- index.tsx -->
<g id="node30" class="node">
<title>index.tsx</title>
<path fill="none" stroke="#c6c5fe" d="M107.83,-180C107.83,-180 53.17,-180 53.17,-180 49.33,-180 45.5,-176.17 45.5,-172.33 45.5,-172.33 45.5,-164.67 45.5,-164.67 45.5,-160.83 49.33,-157 53.17,-157 53.17,-157 107.83,-157 107.83,-157 111.67,-157 115.5,-160.83 115.5,-164.67 115.5,-164.67 115.5,-172.33 115.5,-172.33 115.5,-176.17 111.67,-180 107.83,-180"/>
<text text-anchor="middle" x="80.5" y="-164.8" font-family="Arial" font-size="14.00" fill="#c6c5fe">index.tsx</text>
</g>
<!-- index.tsx&#45;&gt;router/routes.ts -->
<g id="edge49" class="edge">
<title>index.tsx&#45;&gt;router/routes.ts</title>
<path fill="none" stroke="#757575" d="M115.57,-168.5C187.57,-168.5 360.49,-168.5 505.5,-168.5 505.5,-168.5 505.5,-168.5 749,-168.5 919.99,-168.5 1121.66,-168.5 1221.87,-168.5"/>
<polygon fill="#757575" stroke="#757575" points="1222.13,-172 1232.13,-168.5 1222.13,-165 1222.13,-172"/>
</g>
<!-- index.tsx&#45;&gt;components/ResetPasswordPage.tsx -->
<g id="edge43" class="edge">
<title>index.tsx&#45;&gt;components/ResetPasswordPage.tsx</title>
<path fill="none" stroke="#757575" d="M115.73,-172.88C245.88,-189.52 712.95,-249.24 919.98,-275.71"/>
<polygon fill="#757575" stroke="#757575" points="919.58,-279.19 929.94,-276.98 920.47,-272.24 919.58,-279.19"/>
</g>
<!-- index.tsx&#45;&gt;containers/AccountPage.tsx -->
<g id="edge44" class="edge">
<title>index.tsx&#45;&gt;containers/AccountPage.tsx</title>
<path fill="none" stroke="#757575" d="M115.5,-170.34C131.06,-172.82 148.72,-178.18 161,-189.5 196.34,-222.09 173.95,-249.31 197,-291.5 217.55,-329.11 249.88,-367.3 269.96,-389.4"/>
<polygon fill="#757575" stroke="#757575" points="267.41,-391.8 276.76,-396.79 272.56,-387.06 267.41,-391.8"/>
</g>
<!-- index.tsx&#45;&gt;containers/App.tsx -->
<g id="edge45" class="edge">
<title>index.tsx&#45;&gt;containers/App.tsx</title>
<path fill="none" stroke="#757575" d="M115.81,-172.89C130.55,-175.92 147.46,-181 161,-189.5 181.83,-202.56 175.64,-219.32 197,-231.5 237.9,-254.83 533.44,-298.61 673.6,-318.37"/>
<polygon fill="#757575" stroke="#757575" points="673.44,-321.88 683.83,-319.81 674.41,-314.95 673.44,-321.88"/>
</g>
<!-- index.tsx&#45;&gt;containers/AuthPage.tsx -->
<g id="edge46" class="edge">
<title>index.tsx&#45;&gt;containers/AuthPage.tsx</title>
<path fill="none" stroke="#757575" d="M115.53,-163.57C138.5,-160.44 169.51,-156.6 197,-154.5 462.44,-134.26 777.19,-129.71 929.06,-128.73"/>
<polygon fill="#757575" stroke="#757575" points="929.29,-132.23 939.27,-128.67 929.25,-125.23 929.29,-132.23"/>
</g>
<!-- index.tsx&#45;&gt;index.css -->
<g id="edge47" class="edge">
<title>index.tsx&#45;&gt;index.css</title>
<path fill="none" stroke="#757575" d="M104.54,-156.93C127.56,-145.66 164.16,-128.51 197,-116.5 211.54,-111.18 227.71,-106.25 242.34,-102.15"/>
<polygon fill="#757575" stroke="#757575" points="243.46,-105.47 252.18,-99.45 241.61,-98.72 243.46,-105.47"/>
</g>
<!-- reportWebVitals.ts -->
<g id="node31" class="node">
<title>reportWebVitals.ts</title>
<path fill="none" stroke="#cfffac" d="M344.83,-61C344.83,-61 233.17,-61 233.17,-61 229.33,-61 225.5,-57.17 225.5,-53.33 225.5,-53.33 225.5,-45.67 225.5,-45.67 225.5,-41.83 229.33,-38 233.17,-38 233.17,-38 344.83,-38 344.83,-38 348.67,-38 352.5,-41.83 352.5,-45.67 352.5,-45.67 352.5,-53.33 352.5,-53.33 352.5,-57.17 348.67,-61 344.83,-61"/>
<text text-anchor="middle" x="289" y="-45.8" font-family="Arial" font-size="14.00" fill="#cfffac">reportWebVitals.ts</text>
</g>
<!-- index.tsx&#45;&gt;reportWebVitals.ts -->
<g id="edge48" class="edge">
<title>index.tsx&#45;&gt;reportWebVitals.ts</title>
<path fill="none" stroke="#757575" d="M91.33,-156.95C109.78,-136.04 151.86,-92.01 197,-69.5 202.93,-66.54 209.3,-64.02 215.81,-61.87"/>
<polygon fill="#757575" stroke="#757575" points="216.85,-65.21 225.41,-58.97 214.82,-58.51 216.85,-65.21"/>
</g>
<!-- react&#45;app&#45;env.d.ts -->
<g id="node32" class="node">
<title>react&#45;app&#45;env.d.ts</title>
<path fill="none" stroke="#cfffac" d="M135.33,-303C135.33,-303 25.67,-303 25.67,-303 21.83,-303 18,-299.17 18,-295.33 18,-295.33 18,-287.67 18,-287.67 18,-283.83 21.83,-280 25.67,-280 25.67,-280 135.33,-280 135.33,-280 139.17,-280 143,-283.83 143,-287.67 143,-287.67 143,-295.33 143,-295.33 143,-299.17 139.17,-303 135.33,-303"/>
<text text-anchor="middle" x="80.5" y="-287.8" font-family="Arial" font-size="14.00" fill="#cfffac">react&#45;app&#45;env.d.ts</text>
</g>
<!-- setupTests.ts -->
<g id="node33" class="node">
<title>setupTests.ts</title>
<path fill="none" stroke="#cfffac" d="M120.33,-344C120.33,-344 40.67,-344 40.67,-344 36.83,-344 33,-340.17 33,-336.33 33,-336.33 33,-328.67 33,-328.67 33,-324.83 36.83,-321 40.67,-321 40.67,-321 120.33,-321 120.33,-321 124.17,-321 128,-324.83 128,-328.67 128,-328.67 128,-336.33 128,-336.33 128,-340.17 124.17,-344 120.33,-344"/>
<text text-anchor="middle" x="80.5" y="-328.8" font-family="Arial" font-size="14.00" fill="#cfffac">setupTests.ts</text>
</g>
</g>
</svg>
